<svg xmlns="http://www.w3.org/2000/svg" width="64.484" height="39.416"><path fill="#fefffd" d="m1.634 9.995 3.7 25.581a2.607 2.607 0 0 0 2.952 2.207c8.971-1.3 28.074-4.059 37.454-5.417a2.6 2.6 0 0 0 2.207-2.947v-.007c-1.132-7.8-2.582-17.833-3.7-25.58a2.6 2.6 0 0 0-2.946-2.209h-.008C33.429 2.761 12.606 5.778 3.841 7.042a2.606 2.606 0 0 0-2.207 2.951Z"/><path fill="#0d4b08" d="M.6 10.359c.024.162.167.3.19.468s-.01.333.013.5.019.329.042.492.132.313.156.476.056.324.08.486.1.317.128.48-.068.342-.044.5-.087.345-.063.507.275.293.3.455-.174.357-.151.52.19.3.213.467-.018.335.005.5.02.329.044.491-.015.334.009.5.079.32.1.483.241.3.265.46.008.331.032.493.081.32.105.483-.129.35-.105.513.241.3.264.46.06.323.083.486-.077.343-.054.506.006.331.029.494.166.308.189.471.038.327.062.489-.1.347-.076.509.146.311.17.473-.009.333.015.5-.02.335 0 .5.133.313.156.475.074.321.1.484-.058.34-.035.5.041.326.065.489.042.326.065.488.12.315.143.477.1.318.124.48.109.31.133.469-.083.338-.06.5.171.3.195.46-.067.335-.044.495-.03.329-.007.489.189.3.213.458.023.322.046.481.094.311.117.471-.147.347-.124.506c.038.263.221.237.259.5s.081.258.119.521.069.259.107.524-.127.287-.093.552c.014.165.092.321.113.485s-.069.346-.042.509.227.293.261.455.111.305.152.465a4 4 0 0 0 .106.475 4 4 0 0 0 .226.435 4 4 0 0 0 .266.418 4 4 0 0 0 .391.3c.123.11.149.354.285.447s.366.038.514.113.243.284.4.338a4 4 0 0 0 .509.053 4 4 0 0 0 .462-.033c.151.009.3.133.455.128s.3-.086.452-.1.3-.07.446-.091.316.045.465.02.272-.218.42-.243.3-.053.451-.075.348.139.509.116.307-.144.468-.168.336.053.5.029.315-.091.475-.114.32-.054.481-.078.307-.141.468-.164.314-.092.475-.115.329 0 .489-.019.344.112.5.089.313-.106.473-.129.316-.086.476-.109.332.028.493.005.3-.177.463-.2.346.121.506.1.288-.275.449-.3.328 0 .489-.025.335.049.5.026.32-.056.48-.08.309-.133.469-.156.327-.009.488-.032.345.115.505.092.313-.1.473-.127.318-.073.478-.1.323-.035.484-.059.309-.132.469-.155.31-.128.471-.151.32-.053.48-.076.347.129.507.106.312-.11.472-.133.307-.148.467-.171.351.162.512.139.3-.225.456-.249.318-.073.478-.1.322-.038.483-.062.332.029.493.006.315-.094.475-.117.322-.04.483-.063.315-.091.475-.115.354.177.514.154.311-.121.471-.144.3-.185.462-.209.32-.055.48-.078.327-.01.487-.034.334.043.495.02.311-.116.472-.139.319-.062.48-.085.335.044.5.021.334.044.495.02.319-.064.48-.088.3-.224.456-.248.326-.014.487-.037.329 0 .489-.021.311-.118.471-.142.338.067.5.044.326-.018.486-.041.3-.177.463-.2.333.035.494.012.328 0 .488-.027c.234-.034.214-.169.448-.2s.257.125.491.091.235-.038.47-.072.21-.2.445-.236.247.053.482.019.236-.029.471-.063.239 0 .474-.038.221-.137.456-.171.242.021.477-.013.221-.138.456-.172.27.2.506.17.221-.143.457-.177.232-.063.469-.1c.158-.023.311-.073.466-.1s.3-.1.457-.127.325.037.478 0 .348.069.5.024.212-.338.357-.4.4.093.534.012.159-.324.285-.425a4 4 0 0 0 .4-.294c.114-.123.14-.308.236-.443s.326-.188.4-.335 0-.364.054-.52a4 4 0 0 0 .181-.456 4 4 0 0 0 .092-.484 4 4 0 0 0-.02-.492 4 4 0 0 0 .008-.5c-.023-.162-.152-.31-.175-.471s-.036-.326-.059-.488.032-.335.009-.5.11-.346.088-.508-.136-.311-.159-.473-.016-.329-.039-.49-.188-.3-.211-.466.024-.334 0-.5l-.072-.486c-.023-.162.058-.339.035-.5s-.125-.313-.148-.475-.2-.3-.222-.464.14-.351.117-.513-.168-.306-.191-.468.13-.35.107-.512-.148-.309-.172-.471.052-.338.028-.5-.23-.3-.253-.459.094-.344.07-.506-.184-.3-.208-.466.1-.346.076-.507-.169-.306-.193-.468.042-.337.018-.5-.2-.3-.222-.464.1-.346.081-.508-.061-.322-.084-.484-.016-.329-.039-.49-.243-.3-.267-.457 0-.33-.027-.492.132-.35.108-.512-.2-.3-.22-.464-.062-.321-.086-.483.107-.347.083-.508-.1-.316-.126-.478-.054-.323-.078-.485-.146-.31-.169-.471.16-.355.136-.518-.074-.321-.1-.484-.115-.315-.139-.478-.02-.329-.044-.491-.21-.3-.233-.464-.072-.321-.1-.484.133-.351.109-.514-.134-.312-.158-.475-.054-.324-.078-.487-.019-.322-.042-.481-.038-.319-.061-.478-.115-.309-.138-.468.036-.33.013-.489c-.014-.18-.106-.35-.127-.529s.054-.371.025-.549-.033-.363-.07-.539-.271-.3-.315-.476a4 4 0 0 0-.155-.437c-.071-.146.036-.39-.052-.525s-.357-.136-.461-.259-.058-.392-.177-.5-.364-.064-.5-.157-.157-.333-.304-.408-.378.057-.531 0a4 4 0 0 0-.442-.171 3 3 0 0 0-.459-.083c-.158-.012-.314-.13-.473-.125s-.3.164-.462.181-.305.069-.462.093-.314.03-.469.055S39.729.8 39.574.82c-.245.036-.248.021-.493.056s-.236.1-.481.137-.236.1-.481.133-.245.038-.489.073-.275-.174-.52-.138-.236.1-.481.136-.25 0-.5.036-.232.128-.477.163-.231.132-.477.168-.277-.183-.523-.148-.24.071-.484.107-.218.218-.462.253-.279-.2-.524-.168-.221.209-.467.244-.245.039-.49.075-.269-.127-.514-.092-.249.018-.5.054-.222.2-.467.236-.247.032-.493.068-.237.094-.481.13-.268-.115-.515-.08-.248.028-.494.064-.241.081-.489.116-.262-.065-.509-.029-.225.154-.467.189-.231.106-.473.141-.257-.066-.5-.031-.222.169-.464.2-.272-.17-.514-.135-.241.043-.484.078-.216.219-.459.254-.239.059-.481.094-.272-.169-.514-.133-.247.005-.489.04-.23.127-.472.162l-.485.071c-.242.035-.256-.062-.5-.027s-.241.044-.484.079-.234.094-.477.13-.237.068-.479.1-.232.1-.473.135-.269-.153-.511-.118-.226.152-.469.188-.222.177-.465.212-.249-.009-.491.026-.272-.165-.515-.13-.208.279-.451.314-.248 0-.491.037-.254-.044-.5-.009-.254-.036-.5 0-.239.071-.482.107-.26-.074-.505-.038-.231.13-.475.165-.231.071-.467.1-.229.087-.466.121-.262-.135-.5-.1-.23.081-.468.116-.244-.013-.481.021-.235.058-.473.092-.233.065-.471.1-.24.025-.478.059-.234.055-.471.089-.24.024-.478.058-.238.042-.476.076-.231.09-.471.124-.24.028-.479.062c-.261.038-.247.137-.508.175s-.27-.012-.532.026l-.526.076c-.264.038-.283-.1-.547-.057s-.251.124-.515.163c-.174.025-.355-.009-.524.016s-.325.162-.493.194-.383-.11-.549-.065-.249.345-.41.409a3.4 3.4 0 0 0-.458.2c-.146.083-.4.016-.537.127-.121.1-.133.315-.239.425a4 4 0 0 0-.32.325c-.093.123-.281.188-.357.321a3.8 3.8 0 0 0-.299.893 4 4 0 0 0-.163.445c-.022.151.12.321.117.476S.485 9.9.5 10.05s.139.3.2.43.222.193.326.3.128.341.265.4a1.4 1.4 0 0 0 .471 0 1.4 1.4 0 0 0 .472 0 1.4 1.4 0 0 0 .412-.257c.1-.1.089-.32.146-.458s.219-.284.22-.438c-.033-.163-.186-.319-.168-.476a1.6 1.6 0 0 1 .12-.482c.068-.148.235-.232.345-.352a1.5 1.5 0 0 1 .4-.227c.138-.078.217-.312.381-.345.05-.01.1-.053.148-.058.151-.026.327.109.479.086s.3-.051.454-.072.284-.181.437-.2.332.163.484.142.273-.26.425-.283c.248-.036.279.178.527.142s.226-.181.474-.217.257.029.5-.007.26.046.508.01.245-.053.493-.089.244-.066.492-.1.222-.212.469-.247.277.161.525.125.252-.014.5-.05.245-.069.494-.105.247-.055.5-.091.249.006.492-.029.242-.046.485-.081.214-.234.458-.269.273.169.517.133.219-.21.463-.245.271.155.515.12.236-.091.48-.126.219-.2.463-.239.276.185.52.15.227-.157.471-.192.24-.068.483-.1.237-.083.481-.119.264.1.508.062.224-.17.467-.205.254.039.5 0 .231-.115.475-.151.279.205.524.17.233-.109.478-.145.23-.132.474-.168.251 0 .5-.031.24-.067.484-.1.253.025.5-.011.256.051.5.016.218-.222.463-.257.246-.029.492-.065.254.019.5-.017.257.038.5 0 .246-.009.488-.044.234-.1.477-.13.249.014.492-.021.22-.191.462-.226.272.169.514.134.227-.141.47-.176.244-.028.487-.063.254.04.5.005.24-.056.482-.091.244-.027.487-.062.241-.048.484-.083.227-.143.469-.178.26.092.5.057.243-.026.486-.061.231-.12.474-.155.249.011.492-.025.226-.145.469-.181.263.1.506.066.237-.077.48-.112.246-.018.489-.053.225-.154.468-.189.259.071.5.036.235-.1.479-.133.258.054.5.018.245-.031.49-.066.245-.017.487-.052.235-.1.479-.131.253.03.5-.005.222-.192.466-.227.27.14.515.105.221-.271.475-.308.269.066.523.025a4 4 0 0 1 .46-.106 4 4 0 0 1 .475-.034c.2.018.308.231.453.3.168.08.392.048.5.181a1.9 1.9 0 0 1 .327.444 4 4 0 0 1 .06.544c.038.171-.056.365-.031.539s.074.329.1.5.092.327.116.494.1.326.123.492-.039.346-.015.513.174.315.2.482 0 .34.025.506.082.329.107.5-.1.354-.072.521.069.317.092.477.235.293.258.453.017.325.04.485.086.315.109.475-.033.332-.009.492l.071.48.07.481c.023.16.106.312.129.472s-.106.343-.083.5.126.309.15.47.017.325.04.485.178.3.2.462-.161.35-.138.511.065.318.088.478.234.293.258.453-.053.335-.03.5-.1.342-.08.5.232.294.255.454-.035.332-.011.492.016.325.039.485-.007.329.017.489.027.323.05.484.129.308.152.469l.071.48c.024.16.071.317.094.477s-.059.336-.036.5.213.3.237.456.057.319.08.48.055.319.079.479-.055.335-.032.5.12.31.143.47.074.316.1.477-.036.332-.013.493.018.324.041.485.144.306.167.466 0 .33.028.493-.018.335.008.5.13.311.156.473-.014.335.011.5.171.306.2.469.059.324.081.487-.13.347-.111.51.033.327.048.489.123.314.095.468a1.5 1.5 0 0 1-.19.436c-.076.141-.229.2-.345.31s-.173.273-.32.343a1.6 1.6 0 0 1-.447.191c-.02 0-.033.039-.052.041-.164.029-.332.033-.5.06s-.349-.075-.513-.049-.3.252-.462.276-.33.043-.5.066-.363-.2-.528-.173-.308.2-.473.224-.347-.082-.512-.061-.32.116-.485.138-.316.143-.481.166-.33.04-.495.063-.332.021-.5.044-.318.068-.479.091-.326.017-.487.04-.345-.115-.506-.092-.307.149-.467.172-.329 0-.49.018-.3.222-.456.246-.323.035-.484.058-.343-.1-.5-.081-.317.08-.478.1-.3.175-.463.2-.334-.038-.494-.015-.321.05-.482.073-.311.119-.471.142-.339-.073-.5-.049-.337-.059-.5-.036-.3.215-.458.238-.325.02-.486.044-.329 0-.489.021-.32.054-.481.078-.333-.036-.494-.013-.32.061-.48.084-.326.016-.487.039-.313.107-.473.13-.317.077-.478.1-.3.165-.465.188-.347-.132-.508-.108-.322.04-.483.063-.317.077-.478.1-.3.2-.46.224-.347-.132-.508-.108-.31.128-.471.151-.325.02-.486.043-.322.042-.483.065-.3.171-.464.194-.328 0-.489.027-.311.124-.471.147-.322.04-.483.063-.337-.06-.5-.036-.319.064-.48.088-.32.06-.48.083-.308.137-.469.16-.335-.046-.5-.023l-.482.07c-.16.023-.327.01-.487.034s-.312.112-.473.135-.314.1-.475.123-.34-.086-.5-.063-.33-.016-.491.008-.327.01-.487.034-.292.25-.453.274-.333-.031-.493-.008-.322.043-.483.066-.323.033-.484.056-.335-.048-.5-.025-.324.028-.485.051l-.482.067c-.235.034-.2.262-.437.3s-.267-.191-.5-.157-.221.132-.456.166-.248-.052-.483-.018-.223.126-.459.161-.228.09-.464.124c-.151.022-.3.063-.464.094s-.333-.064-.49-.035-.3.185-.451.2a5 5 0 0 1-.48.061c-.166 0-.309-.177-.457-.2-.2-.036-.425.067-.562-.02a1.5 1.5 0 0 1-.429-.383c-.1-.145.036-.408-.019-.583s-.215-.306-.246-.484.033-.369.008-.542c-.036-.252-.092-.244-.128-.5s.036-.262 0-.514-.113-.241-.149-.493.008-.258-.028-.508-.165-.233-.2-.486.106-.273.069-.525.017-.261-.02-.515-.1-.244-.138-.5c-.023-.161-.23-.3-.254-.457s.037-.335.014-.5 0-.329-.027-.489-.022-.326-.045-.487-.023-.326-.046-.487-.067-.319-.09-.48-.072-.319-.1-.48-.127-.311-.151-.471.155-.352.132-.513-.294-.287-.318-.448.209-.359.186-.52-.308-.284-.331-.446.147-.35.124-.511-.213-.3-.236-.46-.054-.321-.078-.482.17-.354.147-.515-.236-.295-.26-.456.137-.349.114-.51-.06-.32-.084-.481-.127-.311-.151-.472.08-.341.057-.5-.222-.3-.245-.458.124-.347.1-.508-.08-.318-.1-.479-.034-.324-.057-.485-.185-.3-.208-.463.088-.342.064-.5-.216-.3-.24-.459-.01-.328-.034-.489.114-.346.09-.507l-.071-.483c-.024-.161-.148-.307-.172-.469s.036-.334.012-.5-.205-.3-.229-.461-.106-.314-.129-.475c-.034-.235.2-.268.162-.5s-.146-.218-.18-.453-.02-.237-.054-.471-.186-.212-.219-.446.008-.241-.026-.476-.031-.236-.065-.471-.011-.239-.045-.475.073-.253.032-.488a1.4 1.4 0 0 0-.141-.464c-.093-.118-.3-.149-.428-.222a1.2 1.2 0 0 0-.422-.145c-.144-.018-.26.1-.409.141s-.386-.094-.5 0a1.4 1.4 0 0 0-.281.392c-.073.128.037.321.017.471s-.16.292-.122.441"/><path fill="#0d4b08" d="M41.459 0a1.1 1.1 0 0 1 .425.1c.028.011.066.026.083.03a3 3 0 0 1 .45.077l.069.015a2 2 0 0 1 .378.136l.079.035.049-.008a1.4 1.4 0 0 1 .248-.027.74.74 0 0 1 .344.08.92.92 0 0 1 .38.427v.009h.011a.93.93 0 0 1 .52.211.87.87 0 0 1 .25.526.88.88 0 0 1 .472.332.9.9 0 0 1 .111.579v.054a3 3 0 0 1 .121.338l.032.1.053.06a1 1 0 0 1 .279.477 3 3 0 0 1 .049.356q.01.111.024.2a1.4 1.4 0 0 1-.009.433 1 1 0 0 0-.013.136 1 1 0 0 0 .043.162 1.8 1.8 0 0 1 .085.373 1.5 1.5 0 0 1-.007.355 1 1 0 0 0-.009.118 1 1 0 0 0 .043.13 1.6 1.6 0 0 1 .1.338q.017.128.032.251c.015.123.018.151.029.226.014.1.02.2.025.283s.008.141.017.2l.036.224c.013.075.029.173.042.263a1 1 0 0 0 .043.111 1.4 1.4 0 0 1 .114.364 1 1 0 0 1-.082.5l-.02.054c.009.051.021.1.034.16q.027.113.049.24l.038.056a1 1 0 0 1 .2.446c.015.1.021.2.026.289s.009.143.017.2a1 1 0 0 0 .044.139 1.7 1.7 0 0 1 .094.338q.015.095.042.205a3 3 0 0 1 .056.279.95.95 0 0 1-.107.536l-.011.025.024.052a1.3 1.3 0 0 1 .127.378q.017.114.037.23c.02.116.028.169.041.253a1 1 0 0 0 .044.157 2 2 0 0 1 .082.321 1.04 1.04 0 0 1-.059.473l-.02.067q.014.087.034.183c.02.096.03.156.043.239l.039.062a1.06 1.06 0 0 1 .185.432 1 1 0 0 1-.081.5l-.021.057a3 3 0 0 1 .012.264v.126l.03.037a.96.96 0 0 1 .242.474c.015.105.02.205.024.294q.001.109.015.2c.014.091.024.144.039.222s.032.171.045.262a1.05 1.05 0 0 1-.057.471l-.011.035.021.032a1.05 1.05 0 0 1 .187.434 1.4 1.4 0 0 1-.008.384c0 .035-.01.081-.011.106s.026.051.04.075a1.2 1.2 0 0 1 .153.4 1.1 1.1 0 0 1-.052.466l-.013.046.026.044a1.1 1.1 0 0 1 .171.42 1.1 1.1 0 0 1-.047.457l-.008.029.013.016a1 1 0 0 1 .226.465 1.3 1.3 0 0 1-.015.4c-.005.034-.012.08-.013.1s.027.062.041.092a1.3 1.3 0 0 1 .13.379 1 1 0 0 1-.079.5l-.012.032.024.045a1.2 1.2 0 0 1 .151.4 1 1 0 0 1-.089.514v.012l.011.017a1.05 1.05 0 0 1 .187.434 1 1 0 0 0 .044.124 1.5 1.5 0 0 1 .1.352 1.3 1.3 0 0 1-.019.405 1 1 0 0 0-.014.1l.035.233.037.247a1.6 1.6 0 0 1 0 .355c0 .042-.006.088-.006.12s.025.042.037.062a1.1 1.1 0 0 1 .175.426c.015.1.02.2.024.292q.002.11.015.2a1 1 0 0 0 .043.108 1.4 1.4 0 0 1 .116.366 1.03 1.03 0 0 1-.062.477l-.021.068a1.6 1.6 0 0 1-.006.33 1 1 0 0 0-.007.132q.018.133.031.258c.013.125.017.151.027.223.006.019.027.06.042.091a1.3 1.3 0 0 1 .133.379 1.6 1.6 0 0 1 0 .412 1 1 0 0 0-.007.142q.002.068.01.146a2.3 2.3 0 0 1 .008.413 3.4 3.4 0 0 1-.085.472l-.018.077a2 2 0 0 1-.142.386l-.049.112v.073a1 1 0 0 1-.092.53 1 1 0 0 1-.391.373l-.056.035-.035.082a1.2 1.2 0 0 1-.232.393 1.6 1.6 0 0 1-.329.258l-.094.062-.012.057a.9.9 0 0 1-.348.435.7.7 0 0 1-.359.094 1 1 0 0 1-.21-.022.8.8 0 0 1-.433.364.8.8 0 0 1-.233.033 1.4 1.4 0 0 1-.261-.029l-.072-.012a1 1 0 0 1-.179.015 2 2 0 0 1-.2-.013c-.038 0-.073-.008-.1-.008h-.006a1 1 0 0 0-.133.041 1.7 1.7 0 0 1-.331.088q-.084.014-.189.039a3 3 0 0 1-.275.056 1 1 0 0 0-.173.036 2 2 0 0 1-.294.061h-.011l-.018.012a1 1 0 0 1-.429.164 1 1 0 0 1-.116.008.8.8 0 0 1-.452-.147 1 1 0 0 1-.394.14 2 2 0 0 1-.215.017c-.057 0-.1 0-.138-.007h-.052a1 1 0 0 0-.072.006h-.014l-.021.013a1 1 0 0 1-.42.156 2 2 0 0 1-.3.024 1 1 0 0 0-.174.014c-.123.018-.185.025-.247.033s-.113.014-.225.03a1 1 0 0 1-.173.013 1 1 0 0 1-.243-.029l-.028-.006a.85.85 0 0 1-.482.238l-.226.035c-.061.01-.122.02-.244.037a1 1 0 0 1-.134.01.85.85 0 0 1-.366-.084.9.9 0 0 1-.438.186 2 2 0 0 1-.31.019 2 2 0 0 0-.179.008 1 1 0 0 1-.155.011 2 2 0 0 1-.215-.014c-.041 0-.081-.008-.108-.009l-.066.037a1.1 1.1 0 0 1-.412.163c-.1.015-.2.02-.287.025s-.141.008-.2.016a1 1 0 0 1-.128.009 1.5 1.5 0 0 1-.29-.035c-.03-.006-.069-.014-.089-.016a1 1 0 0 0-.12.042 1.6 1.6 0 0 1-.342.1 2 2 0 0 1-.267.016h-.1a1 1 0 0 0-.125.006 3 3 0 0 1-.293.023c-.052 0-.1 0-.147.009l-.043.032a1 1 0 0 1-.459.22q-.1.016-.211.039a4 4 0 0 1-.268.049 1 1 0 0 1-.145.01 2 2 0 0 1-.238-.019 1 1 0 0 0-.109-.011 1 1 0 0 1-.147.01 2 2 0 0 1-.24-.02 1 1 0 0 0-.109-.011q-.105.016-.218.038a6 6 0 0 1-.264.047 1 1 0 0 0-.133.043 1.6 1.6 0 0 1-.339.1 1 1 0 0 1-.146.01 2 2 0 0 1-.237-.019 1 1 0 0 0-.109-.011h-.005a3 3 0 0 1-.3.021 2 2 0 0 0-.188.012q-.114.017-.227.037c-.113.02-.15.026-.228.037l-.066.039a1.1 1.1 0 0 1-.422.174 1 1 0 0 0-.126.043 1.6 1.6 0 0 1-.343.1 1 1 0 0 1-.1.007 1 1 0 0 1-.454-.132l-.03-.015-.1.028a2 2 0 0 1-.306.072q-.125.017-.25.033c-.125.016-.155.019-.233.031a1 1 0 0 0-.165.043 2 2 0 0 1-.31.075 1 1 0 0 1-.163.011q-.11-.002-.2-.011c-.042 0-.081-.007-.111-.007h-.021q-.126.017-.254.032l-.229.029q-.09.015-.2.04c-.11.025-.147.034-.23.048l-.046.035a1 1 0 0 1-.46.222 1 1 0 0 1-.1.007 1 1 0 0 1-.437-.117l-.018-.008-.044.021a1.3 1.3 0 0 1-.381.13 1 1 0 0 0-.141.043 1.7 1.7 0 0 1-.331.09 1 1 0 0 1-.106.008 1.1 1.1 0 0 1-.393-.086l-.055-.02-.184.03-.25.04a1 1 0 0 0-.116.043 1.5 1.5 0 0 1-.355.108 1 1 0 0 0-.11.042 1.4 1.4 0 0 1-.359.112q-.133.019-.259.031c-.126.012-.153.017-.225.027s-.127.024-.2.04-.179.041-.28.056a1 1 0 0 0-.15.043 2 2 0 0 1-.323.084 1 1 0 0 1-.109.008 1.2 1.2 0 0 1-.373-.074l-.043-.02c-.1.011-.183.014-.262.016a2 2 0 0 0-.186.011 1 1 0 0 0-.109.042 1.4 1.4 0 0 1-.36.113l-.225.037c-.078.013-.167.029-.255.042a1 1 0 0 1-.141.01 2 2 0 0 1-.251-.023 1 1 0 0 0-.107-.012 4 4 0 0 1-.414.018l-.022.021a.9.9 0 0 1-.5.283 1 1 0 0 1-.108.008 1.1 1.1 0 0 1-.381-.079l-.03-.011-.037.022a1.1 1.1 0 0 1-.412.163 1 1 0 0 1-.165.011q-.107-.002-.2-.011c-.042 0-.081-.007-.11-.007h-.022a2 2 0 0 0-.177.042 2.4 2.4 0 0 1-.3.067 1 1 0 0 0-.148.043 2 2 0 0 1-.326.086 1 1 0 0 1-.11.008 1.2 1.2 0 0 1-.368-.071l-.064-.02a2 2 0 0 1-.207.01h-.143a1 1 0 0 0-.1 0 1.4 1.4 0 0 0-.17.043 2 2 0 0 1-.306.072c-.014 0-.062.026-.1.042a1.3 1.3 0 0 1-.371.122q-.115.017-.23.037c-.115.02-.167.028-.251.041a1.4 1.4 0 0 0-.171.043 2 2 0 0 1-.3.072 1 1 0 0 1-.138.01 2 2 0 0 1-.259-.025c-.036-.006-.077-.012-.1-.013s-.062.026-.092.041a1.3 1.3 0 0 1-.375.126 1 1 0 0 1-.1.007 1.1 1.1 0 0 1-.408-.1l-.05-.019q-.13.02-.269.045l-.062.011-.033.027a.95.95 0 0 1-.442.226 1 1 0 0 1-.158.013 2 2 0 0 1-.231-.02c-.034 0-.073-.01-.092-.01-.045.007-.1.02-.152.033a2 2 0 0 1-.31.06 1 1 0 0 0-.117.031 1.4 1.4 0 0 1-.371.073h-.027a1.1 1.1 0 0 1-.426-.1l-.063-.025c-.021 0-.056.008-.083.012a1.5 1.5 0 0 1-.261.027 1 1 0 0 1-.168-.015h-.007a1 1 0 0 0-.136-.008 1.4 1.4 0 0 1-.437-.063 1.03 1.03 0 0 1-.425-.314l-.037-.041h-.056a1 1 0 0 1-.513-.149 1 1 0 0 1-.331-.443l-.029-.063q-.039-.028-.09-.063a1.5 1.5 0 0 1-.325-.271 2 2 0 0 1-.228-.341q-.04-.072-.077-.129A3 3 0 0 1 4.259 37l-.035-.074a1.3 1.3 0 0 1-.109-.415 1 1 0 0 0-.021-.121l-.009-.03q-.02-.07-.056-.162a2 2 0 0 1-.094-.288l-.042-.055a1 1 0 0 1-.232-.458 1.2 1.2 0 0 1 .022-.438c.006-.032.015-.079.016-.1a1 1 0 0 0-.037-.141 1.8 1.8 0 0 1-.076-.346.94.94 0 0 1 .089-.533l.005-.011a2 2 0 0 0-.04-.195 3 3 0 0 1-.065-.318 1 1 0 0 0-.042-.182 2 2 0 0 1-.074-.315.9.9 0 0 1-.259-.518.95.95 0 0 1 .1-.52l.017-.039q-.013-.05-.032-.111a2 2 0 0 1-.074-.307c-.014-.1-.021-.19-.027-.279 0-.062-.009-.121-.015-.175l-.037-.06a1.1 1.1 0 0 1-.179-.425 1.5 1.5 0 0 1 0-.362 1 1 0 0 0 .006-.128 1.2 1.2 0 0 1 .026-.415c0-.023.01-.052.014-.073s-.022-.041-.033-.059a1.1 1.1 0 0 1-.158-.406 1.1 1.1 0 0 1 .039-.44c.006-.024.014-.056.017-.075s-.023-.076-.039-.12a1.7 1.7 0 0 1-.09-.332 1 1 0 0 0-.044-.159 2 2 0 0 1-.08-.319 1 1 0 0 0-.044-.133 1.6 1.6 0 0 1-.1-.345l-.034-.253-.031-.235-.034-.253-.031-.236a1.3 1.3 0 0 1 .019-.407 1 1 0 0 0 .014-.1q-.015-.09-.04-.195a3 3 0 0 1-.057-.285 1 1 0 0 0-.043-.113 1.4 1.4 0 0 1-.113-.361 1.7 1.7 0 0 1-.006-.35 1 1 0 0 0 0-.148 2 2 0 0 1-.013-.334 1 1 0 0 0 0-.158 1 1 0 0 0-.043-.1 1.3 1.3 0 0 1-.127-.378 1.1 1.1 0 0 1 .052-.465l.02-.073q-.016-.116-.029-.23l-.027-.218-.042-.082a1.2 1.2 0 0 1-.149-.4 2 2 0 0 1-.02-.31 2 2 0 0 0-.01-.184 1.2 1.2 0 0 1 .034-.434c.007-.029.015-.067.018-.087q-.016-.099-.036-.208c-.02-.109-.025-.135-.036-.206l-.034-.043a.96.96 0 0 1-.238-.472 1 1 0 0 1 .078-.5l.02-.055a2 2 0 0 0-.035-.147 3 3 0 0 1-.063-.292 3 3 0 0 1-.021-.307q.001-.072-.005-.134l-.031-.039a.97.97 0 0 1-.239-.474 2 2 0 0 0-.042-.192 3 3 0 0 1-.061-.292 2 2 0 0 1-.009-.342 1 1 0 0 0 0-.155c-.015-.1-.021-.2-.026-.287s-.009-.143-.018-.2a1.7 1.7 0 0 1-.007-.347c0-.047.005-.094 0-.128l-.038-.063a1.1 1.1 0 0 1-.177-.425.88.88 0 0 1 .1-.51.86.86 0 0 1-.248-.466 1.1 1.1 0 0 1 .042-.446l.019-.081a1.2 1.2 0 0 1 .03-.4c.006-.031.014-.073.016-.093a1 1 0 0 0-.042-.145 2 2 0 0 1-.084-.326q-.015-.106-.037-.222c-.022-.116-.03-.173-.043-.264a1 1 0 0 0-.044-.114 1.4 1.4 0 0 1-.112-.36c-.015-.1-.02-.2-.025-.287s-.008-.144-.017-.2a2 2 0 0 1-.012-.348 1 1 0 0 0 0-.149l-.041-.078a1.2 1.2 0 0 1-.145-.363.9.9 0 0 1-.114-.387.84.84 0 0 1 .1-.442v-.182a.86.86 0 0 1-.054-.424A1 1 0 0 1 .1 8.815v-.306l.075.125a1 1 0 0 0 .044-.107q.017-.062.032-.126a2.5 2.5 0 0 1 .116-.382c.02-.04.033-.081.051-.119a2.5 2.5 0 0 1 .164-.369 1.05 1.05 0 0 1 .334-.335c.022-.016.051-.036.065-.048a2 2 0 0 1 .256-.27l.075-.078c.007-.015.015-.038.022-.056a.96.96 0 0 1 .284-.432.97.97 0 0 1 .568-.185l.069-.006a3 3 0 0 1 .4-.176l.027-.011.033-.046a.9.9 0 0 1 .494-.4.8.8 0 0 1 .2-.026 1.3 1.3 0 0 1 .342.057l.064.017.079-.039a1.3 1.3 0 0 1 .412-.149 1.5 1.5 0 0 1 .232-.015h.207a1 1 0 0 0 .087 0 .3.3 0 0 0 .106-.033 1.2 1.2 0 0 1 .409-.128 1 1 0 0 1 .162-.012 1 1 0 0 1 .342.061l.028.009h.015l.254-.037.271-.039a2 2 0 0 1 .26-.02h.156a1 1 0 0 0 .117-.01.16.16 0 0 0 .083-.03 1.1 1.1 0 0 1 .425-.145c.125-.018.188-.025.25-.032s.115-.013.23-.03a.4.4 0 0 0 .126-.033 1.4 1.4 0 0 1 .345-.091c.112-.016.166-.026.223-.036s.126-.022.253-.04.2-.025.259-.031.109-.011.219-.027a2 2 0 0 0 .194-.037c.064-.015.137-.032.276-.052s.2-.025.26-.032.11-.011.219-.027a1 1 0 0 0 .171-.036 2 2 0 0 1 .3-.063 2 2 0 0 0 .189-.037 3 3 0 0 1 .285-.055 2 2 0 0 1 .235-.018h.15a1 1 0 0 0 .092-.008.6.6 0 0 0 .139-.035 1.6 1.6 0 0 1 .325-.079 1 1 0 0 1 .133-.01.86.86 0 0 1 .407.1.5.5 0 0 0 .089-.027 1.4 1.4 0 0 1 .338-.088 1 1 0 0 0 .161-.036 2 2 0 0 1 .306-.069A.13.13 0 0 0 13.7 4a1.1 1.1 0 0 1 .412-.142 1 1 0 0 1 .164-.012 1 1 0 0 1 .3.045l.024.009h.019a1 1 0 0 0 .169-.038 2 2 0 0 1 .313-.069 1.4 1.4 0 0 1 .2-.015 1.3 1.3 0 0 1 .193.016l.052.006h.055a1.3 1.3 0 0 1 .188-.014A1 1 0 0 1 16 3.8a.3.3 0 0 0 .047.006h.044a2 2 0 0 1 .315-.024h.095a.8.8 0 0 1 .533-.324 1 1 0 0 1 .127-.009.83.83 0 0 1 .445.132 2 2 0 0 1 .279-.01h.047a1 1 0 0 0 .1-.008.9.9 0 0 1 .472-.209h.008l.018-.012a1 1 0 0 1 .444-.175 1 1 0 0 1 .129-.009.84.84 0 0 1 .428.119.4.4 0 0 0 .064-.023 1.3 1.3 0 0 1 .363-.1 1 1 0 0 0 .174-.037 2 2 0 0 1 .3-.066.4.4 0 0 0 .131-.051 1.4 1.4 0 0 1 .353-.1c.113-.016.168-.026.225-.037s.129-.024.26-.042a1 1 0 0 1 .171-.013 1 1 0 0 1 .267.035l.032.007h.029l.25-.036.236-.034a.13.13 0 0 0 .067-.024 1.1 1.1 0 0 1 .405-.138 2 2 0 0 1 .306-.025 1 1 0 0 0 .183-.015 1 1 0 0 1 .126-.009.83.83 0 0 1 .447.134c.058-.01.093-.018.134-.028a3 3 0 0 1 .243-.049.85.85 0 0 1 .5-.261c.113-.016.168-.026.226-.036s.128-.023.257-.041a1 1 0 0 1 .125-.009.8.8 0 0 1 .419.118.9.9 0 0 1 .434-.177 1 1 0 0 1 .167-.013 1 1 0 0 1 .278.039l.031.007h.022a.3.3 0 0 0 .1-.03 1.2 1.2 0 0 1 .373-.111h.007l.016-.011a1 1 0 0 1 .448-.181 1 1 0 0 1 .172-.013 1 1 0 0 1 .276.037l.033.008h.028a.7.7 0 0 0 .157-.037 1.7 1.7 0 0 1 .333-.079c.13-.019.2-.027.262-.034s.116-.013.231-.03a1 1 0 0 1 .144-.011.9.9 0 0 1 .383.086.4.4 0 0 0 .111-.032 1.4 1.4 0 0 1 .354-.1l.254-.035.211-.029a.88.88 0 0 1 .5-.24c.14-.021.216-.026.283-.031s.107-.008.212-.023a1 1 0 0 1 .138-.01.9.9 0 0 1 .4.1l.211-.032.219-.034a.86.86 0 0 1 .5-.249 1 1 0 0 1 .119-.009.8.8 0 0 1 .423.125.84.84 0 0 1 .443-.2 1 1 0 0 0 .171-.038 2 2 0 0 1 .314-.069 1 1 0 0 1 .123-.009.8.8 0 0 1 .452.139l.009-.005a1.1 1.1 0 0 1 .417-.145.13.13 0 0 0 .069-.021 1.1 1.1 0 0 1 .408-.139 2 2 0 0 1 .319-.023 1 1 0 0 0 .177-.013.4.4 0 0 0 .116-.033 1.3 1.3 0 0 1 .365-.1 1 1 0 0 1 .126-.009.83.83 0 0 1 .454.139L37.8.689l.25-.037a.4.4 0 0 0 .12-.035 1.4 1.4 0 0 1 .359-.1.3.3 0 0 0 .114-.033 1.3 1.3 0 0 1 .367-.1c.137-.02.211-.026.276-.032S39.4.341 39.5.325a1 1 0 0 1 .152-.011 2 2 0 0 1 .206.013c.041 0 .079.008.1.008h.01c.1-.016.189-.025.278-.034q.104-.01.2-.022c.096-.012.1-.021.165-.035A3 3 0 0 1 40.9.187l.061-.033A1 1 0 0 1 41.43 0Zm1.456 1.395a.8.8 0 0 1-.264-.045q-.109-.042-.2-.082a1 1 0 0 0-.184-.072L42.2 1.18a2 2 0 0 0-.315-.056 1.2 1.2 0 0 1-.362-.095l-.043-.016-.027.015a1.1 1.1 0 0 1-.411.151 2 2 0 0 0-.2.039c-.073.017-.155.037-.245.051s-.171.021-.25.029-.149.015-.214.025a1 1 0 0 1-.172.013 2 2 0 0 1-.208-.014c-.041 0-.079-.008-.1-.008h-.008c-.137.02-.211.026-.276.032s-.109.009-.217.025a.3.3 0 0 0-.114.033 1.3 1.3 0 0 1-.367.1.4.4 0 0 0-.122.034 1.4 1.4 0 0 1-.359.1l-.24.036-.249.037a1 1 0 0 1-.126.009.83.83 0 0 1-.451-.137.4.4 0 0 0-.06.023 1.3 1.3 0 0 1-.364.1 2 2 0 0 1-.319.023 1 1 0 0 0-.177.013.14.14 0 0 0-.069.025 1.1 1.1 0 0 1-.408.139l-.032.006-.03.017a1.1 1.1 0 0 1-.415.145 1 1 0 0 1-.124.009.8.8 0 0 1-.463-.146 1 1 0 0 0-.107.027 2 2 0 0 1-.271.063.86.86 0 0 1-.5.26 1 1 0 0 1-.12.009.8.8 0 0 1-.429-.129.85.85 0 0 1-.442.2l-.237.036-.253.039a1 1 0 0 1-.139.01.9.9 0 0 1-.4-.1c-.123.017-.192.022-.254.027s-.1.007-.187.02a.88.88 0 0 1-.5.24l-.253.035-.24.033a.4.4 0 0 0-.127.035 1.4 1.4 0 0 1-.354.1 1 1 0 0 1-.144.011.9.9 0 0 1-.382-.086h-.005c-.12.018-.184.025-.246.032s-.116.013-.231.03a.7.7 0 0 0-.157.037 1.7 1.7 0 0 1-.333.079 1 1 0 0 1-.171.013 1 1 0 0 1-.275-.037l-.033-.008h-.035l-.016.011a1 1 0 0 1-.445.177.3.3 0 0 0-.1.03 1.2 1.2 0 0 1-.373.111 1 1 0 0 1-.167.013 1 1 0 0 1-.278-.039l-.031-.007h-.015l-.008.006a.93.93 0 0 1-.464.2 1 1 0 0 1-.125.009.82.82 0 0 1-.449-.136c-.075.011-.12.019-.166.027s-.112.02-.212.035a.85.85 0 0 1-.5.261 2 2 0 0 0-.193.038A3 3 0 0 1 24 3.7a1 1 0 0 1-.126.009.83.83 0 0 1-.448-.135 2 2 0 0 1-.246.017 1 1 0 0 0-.18.019.13.13 0 0 0-.066.024 1.1 1.1 0 0 1-.407.138l-.234.034-.251.037a1 1 0 0 1-.171.013 1 1 0 0 1-.266-.035l-.032-.007h-.029c-.112.016-.166.026-.223.036s-.13.024-.261.043a.4.4 0 0 0-.123.034 1.4 1.4 0 0 1-.353.1 1 1 0 0 0-.174.037 2 2 0 0 1-.307.066.3.3 0 0 0-.109.032 1.3 1.3 0 0 1-.363.1 1 1 0 0 1-.13.01.83.83 0 0 1-.413-.111 1 1 0 0 1-.425.169h-.005a.9.9 0 0 1-.472.209 2 2 0 0 1-.252.02h-.13a1 1 0 0 0-.109.009 1 1 0 0 1-.127.009.8.8 0 0 1-.359-.084.78.78 0 0 1-.48.26 2 2 0 0 1-.313.023 1 1 0 0 0-.177.013 1.3 1.3 0 0 1-.188.014 1.2 1.2 0 0 1-.218-.021.3.3 0 0 0-.047-.006h-.044a1.4 1.4 0 0 1-.2.015 1.3 1.3 0 0 1-.193-.016l-.052-.006h-.055a1 1 0 0 0-.169.038 2 2 0 0 1-.313.069 1 1 0 0 1-.16.024 1 1 0 0 1-.3-.045l-.027-.007h-.018a.12.12 0 0 0-.063.023 1.1 1.1 0 0 1-.413.142 1 1 0 0 0-.158.036 2 2 0 0 1-.308.069.5.5 0 0 0-.127.033 1.4 1.4 0 0 1-.339.088 1 1 0 0 1-.132.01.86.86 0 0 1-.406-.1.6.6 0 0 0-.1.028 1.6 1.6 0 0 1-.329.081 2 2 0 0 1-.235.018h-.15a1 1 0 0 0-.092.008 2 2 0 0 0-.189.037 3 3 0 0 1-.285.055 1 1 0 0 0-.171.036 2 2 0 0 1-.3.063c-.13.019-.2.025-.26.032s-.11.011-.219.027a2 2 0 0 0-.191.036c-.065.015-.138.032-.279.053s-.2.026-.263.032-.109.011-.216.026-.165.026-.223.036-.126.022-.253.04a.4.4 0 0 0-.125.033 1.4 1.4 0 0 1-.345.091c-.128.019-.193.026-.256.034s-.113.013-.224.029a.16.16 0 0 0-.082.03 1.1 1.1 0 0 1-.426.145 2 2 0 0 1-.26.02H6.68a1 1 0 0 0-.117.01l-.27.039-.256.037a1 1 0 0 1-.161.012 1 1 0 0 1-.343-.061l-.033-.02h-.014a.3.3 0 0 0-.107.034 1.2 1.2 0 0 1-.408.128 2 2 0 0 1-.231.015h-.207a1 1 0 0 0-.081 0 1 1 0 0 0-.106.05 1.3 1.3 0 0 1-.372.141 1 1 0 0 1-.146.013 1.2 1.2 0 0 1-.318-.05.9.9 0 0 1-.4.354l-.1.038q-.104.04-.193.079l.272 1.287a1.5 1.5 0 0 1 .277-.145l.072-.032.035-.044a.9.9 0 0 1 .469-.358.7.7 0 0 1 .227-.066 1 1 0 0 1 .111-.008 1.1 1.1 0 0 1 .36.072l.048.016.137-.022q.119-.02.244-.039l.053-.033a1 1 0 0 1 .42-.175 1 1 0 0 1 .092-.011.9.9 0 0 1 .376.094.8.8 0 0 1 .435-.228 1 1 0 0 1 .127-.009.8.8 0 0 1 .428.122.9.9 0 0 1 .446-.188 1.5 1.5 0 0 1 .212-.016 1.4 1.4 0 0 1 .168.011.4.4 0 0 0 .124 0 1.3 1.3 0 0 1 .19-.016 1.2 1.2 0 0 1 .224.022.3.3 0 0 0 .049.007h.046c.108-.015.156-.026.213-.038s.139-.03.279-.051a1.3 1.3 0 0 0 .188-.039 2 2 0 0 1 .27-.058.86.86 0 0 1 .5-.252 1 1 0 0 1 .13-.009.85.85 0 0 1 .444.128c.116-.015.184-.019.245-.023a2 2 0 0 0 .207-.021 1 1 0 0 0 .183-.039 2 2 0 0 1 .312-.066c.107-.015.155-.026.212-.039s.141-.032.284-.052a2 2 0 0 1 .266-.021h.1a1 1 0 0 0 .123-.01c.109-.016.162-.026.218-.037s.113-.022.212-.036a.83.83 0 0 1 .513-.277 1 1 0 0 1 .126-.009.8.8 0 0 1 .4.106.85.85 0 0 1 .455-.208 1 1 0 0 1 .129-.009.84.84 0 0 1 .432.122.5.5 0 0 0 .084-.027 1.4 1.4 0 0 1 .315-.086.9.9 0 0 1 .619-.253.8.8 0 0 1 .44.132.96.96 0 0 1 .428-.166 1 1 0 0 0 .177-.038 2 2 0 0 1 .306-.065.6.6 0 0 0 .147-.036 1.6 1.6 0 0 1 .334-.083 1 1 0 0 1 .151-.011 1 1 0 0 1 .348.068h.008a.94.94 0 0 1 .464-.2 1.4 1.4 0 0 1 .195-.015 1 1 0 0 1 .2.017l.05.006h.051a.2.2 0 0 0 .086-.028 1.2 1.2 0 0 1 .39-.123 1 1 0 0 1 .119-.009.8.8 0 0 1 .488.156l.027-.012a1.2 1.2 0 0 1 .379-.114l.031-.006.029-.016a1.1 1.1 0 0 1 .414-.152 2 2 0 0 1 .273-.021h.094a1 1 0 0 0 .13-.011 1 1 0 0 0 .179-.038 2 2 0 0 1 .306-.065 1.4 1.4 0 0 1 .368-.008h.056a1 1 0 0 0 .074-.007 1 1 0 0 1 .181-.014 1 1 0 0 1 .238.026l.04.007a.85.85 0 0 1 .505-.261c.128-.019.193-.026.258-.034s.117-.014.233-.031a2 2 0 0 1 .228-.018c.053 0 .1 0 .13.006h.056a1 1 0 0 0 .086-.008 1.4 1.4 0 0 1 .2-.015 1.3 1.3 0 0 1 .2.017l.052.006h.054a3 3 0 0 1 .3-.027 2 2 0 0 0 .191-.017.4.4 0 0 0 .122-.033 1.4 1.4 0 0 1 .355-.1 2 2 0 0 1 .238-.019h.159a1 1 0 0 0 .071-.005.91.91 0 0 1 .612-.239.8.8 0 0 1 .432.125 1 1 0 0 1 .426-.157c.129-.019.194-.026.258-.033s.115-.013.229-.03a1.3 1.3 0 0 1 .186.004 1.2 1.2 0 0 1 .206.018l.049.006h.049a2 2 0 0 0 .2-.038 3 3 0 0 1 .284-.054c.131-.019.2-.027.262-.034s.113-.013.225-.029.157-.026.215-.037.134-.026.269-.046h.017l.022-.014a1 1 0 0 1 .429-.161 1 1 0 0 1 .152-.011 1 1 0 0 1 .337.063h.013c.13-.019.2-.026.261-.033s.113-.012.224-.028a.2.2 0 0 0 .078-.026 1.1 1.1 0 0 1 .4-.128 2 2 0 0 1 .246-.019h.141a1 1 0 0 0 .1-.009h.015l.021-.013a1 1 0 0 1 .433-.165 1 1 0 0 1 .148-.011.9.9 0 0 1 .357.072h.01a1 1 0 0 0 .15-.036 2 2 0 0 1 .322-.075c.14-.02.214-.026.28-.03s.105-.008.21-.023h.006l.016-.011a1 1 0 0 1 .445-.177 1 1 0 0 1 .165-.012 1 1 0 0 1 .29.043l.03.008h.018a.4.4 0 0 0 .12-.033 1.3 1.3 0 0 1 .36-.1 1 1 0 0 1 .179-.014 1 1 0 0 1 .246.028l.041.007h.036l.254-.034c.063-.008.118-.015.235-.032.14-.02.215-.025.281-.03s.1-.007.207-.022a.4.4 0 0 0 .123-.034 1.4 1.4 0 0 1 .355-.1 1.4 1.4 0 0 1 .207-.016 1.4 1.4 0 0 1 .173.012h.096a.9.9 0 0 1 .488-.23 1 1 0 0 1 .134-.01.84.84 0 0 1 .355.078.8.8 0 0 1 .5-.271 1 1 0 0 1 .175-.013 1 1 0 0 1 .272.035l.035.008h.021l.123-.032a2.3 2.3 0 0 1 .377-.079l.066-.007a4 4 0 0 1 .44-.03h.066a.97.97 0 0 1 .591.309l.043.04.081.017a.92.92 0 0 1 .579.292l.063.071a1.8 1.8 0 0 1 .34.5 1.3 1.3 0 0 1 .077.483 1 1 0 0 0 .008.141 1.2 1.2 0 0 1-.009.475c-.006.034-.015.085-.015.106q.015.096.041.2.032.133.056.286a2 2 0 0 0 .045.184 2 2 0 0 1 .072.31 1.4 1.4 0 0 0 .045.173 2 2 0 0 1 .078.319 1.5 1.5 0 0 1-.005.384c0 .037-.01.092-.01.119s.028.054.043.081a1.2 1.2 0 0 1 .156.411 2 2 0 0 1 .017.324 1.4 1.4 0 0 0 .007.182q.014.09.044.2a3 3 0 0 1 .063.3 1.1 1.1 0 0 1-.049.463l-.02.08q.015.086.037.183a3 3 0 0 1 .043.215l.033.042a.96.96 0 0 1 .233.467c.015.1.02.2.024.289q.001.108.015.2a2 2 0 0 0 .042.177 2.4 2.4 0 0 1 .067.3 1.5 1.5 0 0 1 0 .366 1 1 0 0 0-.007.125q.017.121.036.241t.036.239l.07.481a1 1 0 0 0 .043.147 2 2 0 0 1 .086.324 1.04 1.04 0 0 1-.059.471l-.017.057c-.005.017.024.064.036.091a1.5 1.5 0 0 1 .107.352c.015.1.02.2.024.288q.001.096.013.176l.039.069a1.1 1.1 0 0 1 .164.413.93.93 0 0 1-.11.536l-.018.04.028.145q.022.101.04.212l.033.042a.96.96 0 0 1 .233.467 1.3 1.3 0 0 1-.016.4 1 1 0 0 0-.013.1 1.05 1.05 0 0 1-.057.462v.016l.006.008a.97.97 0 0 1 .23.465 1.5 1.5 0 0 1 0 .37 1 1 0 0 0-.008.123c.015.1.02.2.024.29q.001.108.015.195a2 2 0 0 1 .013.326 1 1 0 0 0 0 .162c.014.1.021.185.029.272s.012.147.022.212a1 1 0 0 0 .042.112 1.4 1.4 0 0 1 .11.356l.034.23.037.251q.015.093.04.2c.025.107.039.177.054.275a1.3 1.3 0 0 1-.02.407c0 .02-.008.043-.011.063l.024.034a1 1 0 0 1 .207.449q.016.108.038.223c.022.115.03.168.043.256q.016.108.037.226c.021.118.029.166.041.253a1.3 1.3 0 0 1-.017.4c-.006.034-.013.08-.014.1a1 1 0 0 0 .042.121 1.6 1.6 0 0 1 .1.344q.014.088.041.195c.027.107.042.18.057.282a1.4 1.4 0 0 1 0 .371 1 1 0 0 0-.009.122c.015.1.02.2.025.286q.002.107.016.194a1 1 0 0 0 .042.1 1.3 1.3 0 0 1 .126.374 2 2 0 0 1 .019.308 1.4 1.4 0 0 0 .009.18 1.6 1.6 0 0 1 .009.351 1 1 0 0 0 0 .143 1 1 0 0 0 .046.124 1.5 1.5 0 0 1 .11.35 1.7 1.7 0 0 1 .012.351 1 1 0 0 0 0 .136 1 1 0 0 0 .042.079 1.2 1.2 0 0 1 .156.405q.015.102.035.205.026.14.047.289a1 1 0 0 1-.084.5l-.022.059q.018.164.032.322l.011.122c0 .019.017.06.027.09a1 1 0 0 1 .063.53 1.7 1.7 0 0 1-.213.531l-.029.053A1.1 1.1 0 0 1 46.6 31a1 1 0 0 0-.08.06 1 1 0 0 0-.054.071 1.03 1.03 0 0 1-.395.361q-.046.023-.093.049a1.7 1.7 0 0 1-.352.155.5.5 0 0 1-.189.071c-.1.018-.2.027-.291.036a3 3 0 0 0-.2.024 1 1 0 0 1-.141.011 1.4 1.4 0 0 1-.3-.041l-.039-.008-.018.015a.96.96 0 0 1-.482.251q-.137.02-.276.037l-.22.029a1 1 0 0 1-.1.007.96.96 0 0 1-.467-.143 1.05 1.05 0 0 1-.441.188 1 1 0 0 1-.116.008 1.4 1.4 0 0 1-.324-.047l-.086-.019a1 1 0 0 0-.125.041 1.6 1.6 0 0 1-.343.094 1 1 0 0 0-.1.043 1.3 1.3 0 0 1-.38.123l-.232.029q-.13.016-.26.033c-.13.017-.192.02-.281.025s-.15.01-.214.019-.132.024-.205.04-.176.038-.274.052-.2.02-.289.024q-.109.002-.2.015a1 1 0 0 1-.109.008 1.2 1.2 0 0 1-.373-.074l-.046-.015-.064.03a1.3 1.3 0 0 1-.381.131 2 2 0 0 1-.241.015H37.6l-.042.031A1 1 0 0 1 37.1 33q-.134.018-.26.031c-.126.013-.153.017-.225.027a1 1 0 0 1-.112.008 1.2 1.2 0 0 1-.351-.066l-.065-.019a2 2 0 0 0-.157.037 3 3 0 0 1-.271.059l-.072.04a1.1 1.1 0 0 1-.41.162 1 1 0 0 1-.153.011 2 2 0 0 1-.223-.016c-.044 0-.085-.01-.111-.01h-.008l-.236.036-.247.038a1 1 0 0 0-.128.043 1.6 1.6 0 0 1-.343.1 1 1 0 0 1-.125.009 1.4 1.4 0 0 1-.3-.039c-.029-.006-.068-.015-.087-.017a1 1 0 0 1-.12.008 1.6 1.6 0 0 1-.273-.029l-.064-.011-.034.025a1 1 0 0 1-.45.209c-.1.014-.2.02-.281.026s-.143.009-.2.018a2 2 0 0 1-.263.016h-.109a1 1 0 0 0-.119.006q-.117.017-.235.038a7 7 0 0 1-.245.04 1 1 0 0 1-.155.011 2 2 0 0 1-.219-.015c-.043 0-.084-.009-.111-.009h-.011q-.102.016-.217.038c-.115.022-.171.033-.262.046s-.2.02-.291.024q-.108.001-.2.015a1 1 0 0 0-.146.043 2 2 0 0 1-.327.087q-.087.014-.193.041a3 3 0 0 1-.271.057c-.018.008-.053.027-.079.041a1.2 1.2 0 0 1-.4.15 1 1 0 0 1-.106.008 1.1 1.1 0 0 1-.4-.089l-.054-.02-.2.026q-.116.014-.232.03-.087.014-.193.041a2 2 0 0 1-.25.053l-.058.038a1 1 0 0 1-.437.192 1 1 0 0 1-.106.007 1.1 1.1 0 0 1-.4-.089l-.042-.016-.079.031a1.4 1.4 0 0 1-.355.109c-.1.015-.2.02-.284.026s-.142.009-.2.017q-.129.019-.261.035l-.2.027c-.018.008-.051.027-.075.04a1.2 1.2 0 0 1-.406.156 2 2 0 0 1-.31.019 2 2 0 0 0-.178.008 1 1 0 0 0-.123.043 1.5 1.5 0 0 1-.349.1q-.125.018-.251.033l-.232.03a1 1 0 0 1-.132.009 1.5 1.5 0 0 1-.275-.03 1 1 0 0 0-.1-.015q-.097.015-.206.038a4 4 0 0 1-.266.048q-.105.016-.219.038c-.114.022-.17.032-.261.045a1 1 0 0 0-.1.042 1.4 1.4 0 0 1-.366.118 1 1 0 0 1-.143.01 2 2 0 0 1-.245-.021 1 1 0 0 0-.108-.012l-.482.069a3 3 0 0 1-.3.022 2 2 0 0 0-.188.012 1 1 0 0 0-.139.043 1.7 1.7 0 0 1-.334.092 1 1 0 0 0-.158.043 2 2 0 0 1-.317.08 1 1 0 0 1-.118.008 1.3 1.3 0 0 1-.326-.05l-.079-.018a1.4 1.4 0 0 1-.171.01h-.298a3 3 0 0 1-.3.022q-.069-.002-.128.006l-.033.028a.94.94 0 0 1-.481.252 1 1 0 0 1-.16.011 2 2 0 0 1-.2-.012c-.042 0-.082-.008-.111-.008h-.018l-.248.034-.235.032q-.136.019-.263.03c-.127.011-.151.015-.221.025a1 1 0 0 1-.142.01 2 2 0 0 1-.249-.022 1 1 0 0 0-.107-.012q-.14.019-.27.028c-.13.009-.148.013-.214.022l-.245.034-.155.021a.8.8 0 0 1-.52.308 1 1 0 0 1-.118.009.8.8 0 0 1-.441-.139 1 1 0 0 1-.4.139 1 1 0 0 1-.176.013 1 1 0 0 1-.24-.027l-.036-.006h-.032l-.028.005-.027.015a1.1 1.1 0 0 1-.4.14.4.4 0 0 0-.12.032 1.4 1.4 0 0 1-.344.092q-.11.017-.238.047-.101.023-.205.043a1 1 0 0 1-.158.014 1.4 1.4 0 0 1-.272-.032l-.062-.011-.052.031a1.1 1.1 0 0 1-.426.172l-.142.021a3 3 0 0 1-.39.044H8.2a.95.95 0 0 1-.53-.188l-.036-.023c-.025 0-.058 0-.092.009a2 2 0 0 1-.2.015.77.77 0 0 1-.421-.114 1.9 1.9 0 0 1-.579-.531.9.9 0 0 1-.1-.653c0-.022.007-.051.009-.073s-.03-.048-.045-.07A1.2 1.2 0 0 1 6 35.073a1.5 1.5 0 0 1 0-.417 1 1 0 0 0 0-.14.5.5 0 0 0-.037-.143 1.5 1.5 0 0 1-.091-.353 1.3 1.3 0 0 1 0-.4.3.3 0 0 0 0-.116.3.3 0 0 0-.033-.105 1.3 1.3 0 0 1-.116-.387 1.7 1.7 0 0 1-.019-.341.8.8 0 0 0-.004-.171l-.013-.019a1 1 0 0 1-.187-.46.95.95 0 0 1 .06-.521l.006-.014a1.5 1.5 0 0 1-.014-.358.6.6 0 0 0-.006-.153.4.4 0 0 0-.036-.129 1.4 1.4 0 0 1-.094-.317l-.035-.046a1 1 0 0 1-.227-.462 1.4 1.4 0 0 1 0-.375 1 1 0 0 0 .009-.121 2 2 0 0 1-.019-.31 2 2 0 0 0-.008-.179 4 4 0 0 1-.027-.282 3 3 0 0 0-.019-.206c-.014-.1-.021-.189-.027-.277s-.01-.146-.019-.209-.024-.135-.04-.209-.037-.176-.051-.273q-.015-.093-.041-.2a3 3 0 0 1-.055-.275 1 1 0 0 0-.043-.119 1.5 1.5 0 0 1-.108-.354.9.9 0 0 1 .094-.482.84.84 0 0 1-.269-.474.8.8 0 0 1 .112-.508.8.8 0 0 1-.258-.459.96.96 0 0 1 .1-.519 1 1 0 0 1-.206-.449q-.017-.114-.037-.228a7 7 0 0 1-.041-.253.9.9 0 0 1 .106-.521.93.93 0 0 1-.219-.448 1 1 0 0 1 .086-.511l.02-.051-.031-.174q-.024-.123-.044-.255a1 1 0 0 0-.044-.12 1.5 1.5 0 0 1-.107-.352 1.1 1.1 0 0 1 .037-.438L4 20.342l-.018-.024a1 1 0 0 1-.217-.457 1 1 0 0 1 .074-.492l.019-.056a3 3 0 0 0-.035-.15 3 3 0 0 1-.061-.287q-.018-.137-.031-.264a4 4 0 0 0-.023-.2l-.039-.066a1.1 1.1 0 0 1-.172-.421 1.1 1.1 0 0 1 .042-.446l.01-.039-.018-.024a1 1 0 0 1-.21-.453 3 3 0 0 1-.022-.3 2 2 0 0 0-.012-.189 1 1 0 0 1 .065-.481l.02-.063-.056-.383-.008-.058c-.006-.019-.027-.062-.042-.094a1.3 1.3 0 0 1-.13-.379 1.4 1.4 0 0 1 0-.373c0-.029.007-.067.009-.1l-.023-.043a1 1 0 0 1-.2-.441 1 1 0 0 0-.044-.15 2 2 0 0 1-.085-.325.78.78 0 0 1 .129-.556.95.95 0 0 1-.147-.4c-.019-.132-.025-.2-.03-.264s-.008-.094-.02-.179a.87.87 0 0 1-.223-.476l-.012-.1-.069.03a.9.9 0 0 1-.336.063 2 2 0 0 1-.223-.016c-.038 0-.08-.009-.1-.009h-.017a.5.5 0 0 0-.1.008 2 2 0 0 1-.206.014h-.1q0 .023.005.045a1 1 0 0 0 .044.114 1.4 1.4 0 0 1 .112.36q.016.114.039.235c.023.121.029.165.041.251a1 1 0 0 0 .044.156 2 2 0 0 1 .084.324 1.2 1.2 0 0 1-.027.422c-.006.032-.015.074-.016.094a1.1 1.1 0 0 1-.043.437v.015a.9.9 0 0 1 .279.5.93.93 0 0 1-.121.551l.006.009a1.1 1.1 0 0 1 .177.428 1.7 1.7 0 0 1 .007.347 1 1 0 0 0 0 .149c.015.1.021.2.026.284s.009.145.018.207a2 2 0 0 1 .009.342 1 1 0 0 0 0 .155c.008.058.025.125.042.2s.036.147.051.23l.035.044a.96.96 0 0 1 .239.473 3 3 0 0 1 .021.307 2 2 0 0 0 .011.187c.008.055.025.121.042.19a3 3 0 0 1 .063.293 1 1 0 0 1-.078.5.96.96 0 0 1 .238.473q.016.105.038.223c.022.118.032.171.045.261a1.2 1.2 0 0 1-.034.435l-.018.087a3 3 0 0 1 .018.294q-.002.098.008.172c.008.018.027.055.042.082a1.2 1.2 0 0 1 .149.4q.017.13.032.258c.015.128.018.155.029.233a1.1 1.1 0 0 1-.053.464l-.017.061c-.005.019.024.054.036.079a1.3 1.3 0 0 1 .127.377 2 2 0 0 1 .012.332 1 1 0 0 0 0 .163 1.7 1.7 0 0 1 .006.352.35.35 0 0 0 .041.261 1.4 1.4 0 0 1 .112.36q.015.094.041.2c.026.106.042.181.057.283a1.3 1.3 0 0 1-.019.407 1 1 0 0 0-.014.1q.017.122.033.248l.031.234.034.253.031.235A1 1 0 0 0 3.5 27a1.6 1.6 0 0 1 .1.346 1 1 0 0 0 .044.161 2 2 0 0 1 .08.318 1 1 0 0 0 .043.141 1.7 1.7 0 0 1 .089.328 1.1 1.1 0 0 1-.039.439c0 .018-.01.041-.014.059l.03.054a1.1 1.1 0 0 1 .158.406 1.2 1.2 0 0 1-.026.417c-.006.03-.014.071-.016.09a1.5 1.5 0 0 1 0 .348c0 .034-.007.077-.007.106l.035.056a1.1 1.1 0 0 1 .179.425c.014.1.02.187.027.274s.011.145.02.208a1 1 0 0 0 .042.163 2 2 0 0 1 .075.308.94.94 0 0 1-.1.518.9.9 0 0 1 .23.487 1 1 0 0 0 .042.183 2 2 0 0 1 .077.339 2 2 0 0 0 .042.205 3 3 0 0 1 .065.318.93.93 0 0 1-.084.554l-.007.014v.014a1 1 0 0 0 .038.154 2 2 0 0 1 .072.311 1.3 1.3 0 0 1-.027.4c0 .019-.008.041-.011.06l.024.031a1 1 0 0 1 .226.429 1.4 1.4 0 0 0 .06.18c.028.073.059.156.084.249a1.7 1.7 0 0 1 .057.284 1 1 0 0 0 .02.115l.038.079a3 3 0 0 0 .155.3q.063.098.111.185a1.3 1.3 0 0 0 .115.181 1 1 0 0 0 .126.094 2 2 0 0 1 .22.164 1.1 1.1 0 0 1 .254.383h.007a1.1 1.1 0 0 1 .429.1 1.1 1.1 0 0 1 .329.272l.04.043h.106a2 2 0 0 1 .291.024c.02 0 .06-.008.09-.013a1.5 1.5 0 0 1 .261-.027h.063a1.1 1.1 0 0 1 .373.1l.054.022c.026-.006.064-.018.092-.026a1.6 1.6 0 0 1 .306-.068 2 2 0 0 0 .173-.036c.075-.018.159-.039.252-.053a1 1 0 0 1 .138-.01 2 2 0 0 1 .231.02l.048.006.017-.014a.94.94 0 0 1 .439-.225l.115-.02q.171-.03.347-.057a1 1 0 0 1 .105-.008 1.1 1.1 0 0 1 .407.1l.032.013.056-.021a1.3 1.3 0 0 1 .376-.126 1 1 0 0 1 .137-.01 2 2 0 0 1 .259.025 1 1 0 0 0 .1.013 2 2 0 0 0 .167-.042 2 2 0 0 1 .3-.072q.114-.017.227-.037c.113-.02.169-.029.254-.041.013 0 .061-.025.1-.042a1.3 1.3 0 0 1 .372-.123 1.4 1.4 0 0 0 .168-.042 2 2 0 0 1 .307-.073 2 2 0 0 1 .244-.015h.143a1 1 0 0 0 .1 0 1 1 0 0 1 .11-.008 1.2 1.2 0 0 1 .368.071l.058.018q.051-.013.117-.037a2 2 0 0 1 .325-.085 2 2 0 0 0 .179-.042 2.4 2.4 0 0 1 .3-.067 1 1 0 0 1 .165-.011q.107.002.2.011c.042 0 .081.007.11.007h.006l.067-.038a1.1 1.1 0 0 1 .412-.163 1 1 0 0 1 .109-.008 1.1 1.1 0 0 1 .365.074.88.88 0 0 1 .482-.267 2 2 0 0 1 .313-.017 1.4 1.4 0 0 0 .175-.007 1 1 0 0 1 .14-.01 2 2 0 0 1 .251.023 1 1 0 0 0 .107.012q.105-.016.223-.037c.118-.021.168-.03.256-.042a1 1 0 0 0 .109-.042 1.4 1.4 0 0 1 .36-.113 3 3 0 0 1 .3-.021 2 2 0 0 0 .186-.011 1 1 0 0 1 .11-.008 1.2 1.2 0 0 1 .373.074l.056.018q.051-.014.116-.036a2 2 0 0 1 .323-.084q.091-.015.2-.041c.109-.026.178-.041.279-.055s.175-.022.259-.031.153-.017.225-.027a1 1 0 0 0 .11-.042 1.4 1.4 0 0 1 .359-.112 1 1 0 0 0 .116-.043 1.5 1.5 0 0 1 .355-.108q.115-.017.23-.036c.115-.019.167-.028.25-.04a1 1 0 0 1 .106-.008 1.1 1.1 0 0 1 .393.087l.047.017q.047-.014.1-.034a1.7 1.7 0 0 1 .326-.089 1 1 0 0 0 .094-.042 1.3 1.3 0 0 1 .377-.13 1 1 0 0 1 .1-.007 1 1 0 0 1 .42.11.96.96 0 0 1 .448-.212q.091-.014.2-.041c.109-.027.178-.041.279-.055q.126-.018.254-.032c.128-.014.153-.018.229-.029a1 1 0 0 1 .164-.011q.11.002.2.011c.042 0 .081.007.11.007h.02a1 1 0 0 0 .166-.043 2 2 0 0 1 .309-.074l.252-.033.231-.03a1.4 1.4 0 0 0 .17-.043 2 2 0 0 1 .305-.072 1 1 0 0 1 .1-.007 1 1 0 0 1 .454.132l.022.011.065-.025a1.6 1.6 0 0 1 .321-.1l.066-.039a1.1 1.1 0 0 1 .42-.173q.116-.017.228-.037c.112-.02.167-.029.253-.041a3 3 0 0 1 .3-.022 2 2 0 0 0 .188-.012 1 1 0 0 1 .146-.01 2 2 0 0 1 .237.019 1 1 0 0 0 .109.011h.005a1 1 0 0 0 .132-.043 1.6 1.6 0 0 1 .338-.1q.102-.016.216-.039a5 5 0 0 1 .264-.047 1 1 0 0 1 .145-.01 2 2 0 0 1 .241.02 1 1 0 0 0 .108.011 1 1 0 0 1 .147-.01 2 2 0 0 1 .238.019 1 1 0 0 0 .109.011q.104-.015.216-.039c.112-.024.141-.029.217-.041l.046-.035a1 1 0 0 1 .459-.22 3 3 0 0 1 .293-.023c.071 0 .138-.006.193-.014a2 2 0 0 1 .267-.016h.1a1 1 0 0 0 .124-.006 1 1 0 0 0 .129-.043 1.6 1.6 0 0 1 .342-.1 1 1 0 0 1 .128-.009 1.5 1.5 0 0 1 .29.035c.031.006.072.014.091.016.1-.014.193-.019.276-.023q.098-.002.18-.014l.07-.039a1.1 1.1 0 0 1 .412-.163 1 1 0 0 1 .155-.011 2 2 0 0 1 .215.014c.043 0 .083.009.111.009h.012a2 2 0 0 1 .31-.019c.06 0 .117 0 .162-.006a.9.9 0 0 1 .462-.2 1 1 0 0 1 .134-.01.9.9 0 0 1 .392.1l.193-.03.2-.031a.85.85 0 0 1 .486-.242 1 1 0 0 1 .174-.013 1 1 0 0 1 .243.028l.035.006h.031c.123-.018.184-.025.246-.033l.225-.03a2 2 0 0 1 .3-.024 1 1 0 0 0 .174-.014h.015l.021-.013a1 1 0 0 1 .42-.156 2 2 0 0 1 .215-.017c.057 0 .1 0 .138.007h.052a1 1 0 0 0 .072-.006h.014l.02-.013a1 1 0 0 1 .421-.157 1 1 0 0 1 .116-.009.78.78 0 0 1 .45.146 1 1 0 0 1 .4-.144 1 1 0 0 0 .174-.036 2 2 0 0 1 .293-.061q.087-.014.19-.039c.084-.02.178-.042.28-.056a1 1 0 0 0 .143-.042 2 2 0 0 1 .3-.083 1 1 0 0 1 .163-.013 2 2 0 0 1 .2.013c.037 0 .072.008.094.008a1 1 0 0 1 .166-.016 1.3 1.3 0 0 1 .216.021.83.83 0 0 1 .373-.35.7.7 0 0 1 .279-.055 1 1 0 0 1 .187.018.9.9 0 0 1 .236-.307 2 2 0 0 1 .212-.148 1 1 0 0 0 .132-.093 1 1 0 0 0 .043-.1 1.4 1.4 0 0 1 .156-.3 1.1 1.1 0 0 1 .34-.29v-.006a1.1 1.1 0 0 1 .051-.438q.043-.115.087-.2a1 1 0 0 0 .075-.19l.019-.081a3 3 0 0 0 .063-.337 1.4 1.4 0 0 0-.009-.236q-.009-.09-.013-.191a2 2 0 0 1 .01-.265 1 1 0 0 0 .005-.167v-.009c-.006-.019-.027-.06-.042-.091a1.3 1.3 0 0 1-.134-.388q-.018-.131-.031-.256a4 4 0 0 0-.028-.23 1.5 1.5 0 0 1 0-.365 1 1 0 0 0 .007-.132 1 1 0 0 1 .063-.475l.017-.056c.005-.017-.024-.058-.035-.083a1.4 1.4 0 0 1-.116-.367c-.015-.1-.02-.2-.024-.291q-.002-.095-.012-.174c-.009-.017-.026-.044-.039-.065a1.1 1.1 0 0 1-.175-.425 1.6 1.6 0 0 1 0-.355 1 1 0 0 0 0-.141q-.017-.12-.036-.239c-.019-.119-.025-.165-.037-.247a1.3 1.3 0 0 1 .019-.405 1 1 0 0 0 .014-.1 1 1 0 0 0-.043-.118 1.6 1.6 0 0 1-.1-.319l-.039-.062a1.05 1.05 0 0 1-.187-.434 1 1 0 0 1 .089-.514l.01-.026-.021-.04a1.2 1.2 0 0 1-.152-.4 1 1 0 0 1 .079-.5l.014-.039-.029-.062a1.1 1.1 0 0 1-.115-.777c0-.021.007-.046.01-.068l-.024-.031a1 1 0 0 1-.226-.463 1.1 1.1 0 0 1 .047-.457l.013-.05-.027-.046a1.1 1.1 0 0 1-.171-.42 1.1 1.1 0 0 1 .052-.464l.014-.052-.03-.056a1.2 1.2 0 0 1-.153-.4 1.4 1.4 0 0 1 .008-.383c0-.03.008-.067.01-.093l-.034-.053a.91.91 0 0 1-.13-.9l.02-.068-.034-.191q-.025-.126-.045-.262c-.02-.136-.02-.205-.024-.294 0-.05 0-.1-.009-.142l-.031-.038a.96.96 0 0 1-.242-.474 2 2 0 0 1-.019-.313 2 2 0 0 0-.008-.179 1 1 0 0 1 .081-.5l.007-.018-.014-.022a1.06 1.06 0 0 1-.185-.432q-.015-.106-.04-.222c-.025-.116-.033-.17-.047-.262a1.04 1.04 0 0 1 .059-.474l.019-.064q-.014-.054-.038-.125a2 2 0 0 1-.083-.324q-.017-.114-.037-.23a8 8 0 0 1-.04-.25 1 1 0 0 0-.042-.1 1.3 1.3 0 0 1-.127-.378.94.94 0 0 1 .107-.535l.019-.043q-.013-.065-.03-.138a3 3 0 0 1-.057-.286 1 1 0 0 0-.044-.138 1.7 1.7 0 0 1-.095-.339c-.015-.1-.02-.2-.026-.285 0-.06-.007-.118-.013-.171l-.037-.055a1 1 0 0 1-.2-.447q-.015-.092-.04-.2a3 3 0 0 1-.055-.283 1 1 0 0 1 .082-.5l.016-.043-.032-.077a1.4 1.4 0 0 1-.114-.363l-.038-.239c-.013-.079-.028-.165-.04-.247-.014-.1-.02-.2-.025-.283s-.008-.141-.017-.2q-.017-.127-.032-.251c-.015-.124-.018-.151-.029-.226a1 1 0 0 0-.043-.132 1.6 1.6 0 0 1-.095-.335 1.4 1.4 0 0 1 0-.372A1 1 0 0 0 45 5.341v-.032a1 1 0 0 0-.044-.168 2 2 0 0 1-.081-.34 1.5 1.5 0 0 1 .015-.392 1 1 0 0 0 .013-.137q-.021-.139-.033-.267a2 2 0 0 0-.025-.206l-.045-.051a1.05 1.05 0 0 1-.267-.427l-.035-.109a2 2 0 0 0-.093-.257.9.9 0 0 1-.073-.432.9.9 0 0 1-.37-.243.9.9 0 0 1-.183-.426.9.9 0 0 1-.4-.146.9.9 0 0 1-.276-.33 1 1 0 0 1-.189.016Zm-.581 2.231-.046-.009a1.3 1.3 0 0 1-.338-.1 1.1 1.1 0 0 1-.29-.214l-.038-.035c-.084 0-.174.013-.268.023l-.067.007a2 2 0 0 0-.214.049q-.088.025-.188.048l-.028.005a1 1 0 0 1-.192.016 1 1 0 0 1-.268-.035h-.015a.82.82 0 0 1-.531.306 1 1 0 0 1-.134.01.85.85 0 0 1-.387-.097.9.9 0 0 1-.46.206 1.4 1.4 0 0 1-.208.016 1.4 1.4 0 0 1-.172-.012h-.055a1 1 0 0 0-.063.006.4.4 0 0 0-.122.034 1.4 1.4 0 0 1-.357.1c-.139.02-.214.025-.28.03s-.1.007-.207.022l-.254.034c-.063.008-.118.015-.235.032a1 1 0 0 1-.18.014 1 1 0 0 1-.246-.028l-.041-.007h-.036a.4.4 0 0 0-.12.033 1.3 1.3 0 0 1-.36.1 1 1 0 0 1-.165.012 1 1 0 0 1-.289-.043l-.03-.008h-.024l-.016.011a1 1 0 0 1-.445.177c-.139.02-.214.026-.28.03s-.105.008-.21.023a1 1 0 0 0-.157.037 1.7 1.7 0 0 1-.318.074 1 1 0 0 1-.147.011.9.9 0 0 1-.357-.072h-.016l-.022.014a1 1 0 0 1-.433.164 2 2 0 0 1-.248.02h-.141a1 1 0 0 0-.1.009.2.2 0 0 0-.078.026 1.1 1.1 0 0 1-.4.128c-.13.019-.2.026-.261.033s-.113.012-.224.028a1 1 0 0 1-.152.011 1 1 0 0 1-.341-.065h-.03l-.022.014a1 1 0 0 1-.43.161c-.11.016-.16.026-.218.037s-.132.026-.265.045-.194.026-.258.033-.114.013-.229.03a2 2 0 0 0-.2.038 3 3 0 0 1-.284.054 1.3 1.3 0 0 1-.192.015 1.2 1.2 0 0 1-.207-.018L28.7 5.2h-.049c-.13.019-.2.026-.259.033s-.115.013-.229.03h-.021l-.022.014a1 1 0 0 1-.426.157 1 1 0 0 1-.125.009.8.8 0 0 1-.407-.111.87.87 0 0 1-.444.193 2 2 0 0 1-.238.019h-.159a1 1 0 0 0-.1.008.4.4 0 0 0-.121.033 1.4 1.4 0 0 1-.355.1 3 3 0 0 1-.3.027 2 2 0 0 0-.192.017 1.4 1.4 0 0 1-.2.015 1.3 1.3 0 0 1-.2-.017l-.052-.006h-.054a2 2 0 0 1-.228.018c-.054 0-.1 0-.13-.006h-.056a1 1 0 0 0-.085.007c-.129.019-.193.026-.258.034s-.1.012-.19.025a.85.85 0 0 1-.508.263 1 1 0 0 1-.181.014 1 1 0 0 1-.237-.026.2.2 0 0 0-.043-.007h-.038a1.4 1.4 0 0 1-.369.008h-.056a1 1 0 0 0-.073.007 1 1 0 0 0-.179.038 2 2 0 0 1-.306.065 2 2 0 0 1-.272.021h-.094a1 1 0 0 0-.13.011l-.029.006-.03.016a1.1 1.1 0 0 1-.415.145.3.3 0 0 0-.1.03 1.2 1.2 0 0 1-.379.114 1 1 0 0 1-.12.009.8.8 0 0 1-.474-.159l-.018.009a1.2 1.2 0 0 1-.388.122 1.4 1.4 0 0 1-.195.015 1 1 0 0 1-.2-.017.3.3 0 0 0-.05-.006h-.044l-.009.007a.94.94 0 0 1-.465.2 1 1 0 0 1-.15.011 1 1 0 0 1-.348-.068h-.013a.6.6 0 0 0-.143.036 1.6 1.6 0 0 1-.336.083 1 1 0 0 0-.177.038 2 2 0 0 1-.306.065h-.007l-.016.011a1 1 0 0 1-.448.179 1 1 0 0 1-.123.009.8.8 0 0 1-.416-.118.85.85 0 0 1-.444.2.5.5 0 0 0-.133.035 1.5 1.5 0 0 1-.338.088 1 1 0 0 1-.13.01.8.8 0 0 1-.389-.1.84.84 0 0 1-.459.213 1 1 0 0 1-.127.009.8.8 0 0 1-.387-.1.8.8 0 0 1-.462.225c-.113.016-.164.026-.223.037s-.131.025-.262.044a2 2 0 0 1-.266.021h-.1a1 1 0 0 0-.123.01c-.1.015-.153.026-.209.039s-.143.032-.287.053a1 1 0 0 0-.183.039 2 2 0 0 1-.312.066 3 3 0 0 1-.293.029 2 2 0 0 0-.207.021 1 1 0 0 1-.13.01.8.8 0 0 1-.4-.1.85.85 0 0 1-.465.216 1.3 1.3 0 0 0-.187.039 2 2 0 0 1-.3.063c-.106.015-.154.026-.211.038s-.14.031-.283.051a1.3 1.3 0 0 1-.189.014 1.2 1.2 0 0 1-.225-.022.3.3 0 0 0-.051-.008h-.046a1.5 1.5 0 0 1-.212.016 1.4 1.4 0 0 1-.168-.011h-.113l-.007.006a.92.92 0 0 1-.478.213 1 1 0 0 1-.126.009.8.8 0 0 1-.386-.1.8.8 0 0 1-.443.23 1 1 0 0 1-.093.006.9.9 0 0 1-.419-.115 1 1 0 0 1-.406.168q-.124.019-.254.04l-.2.032a1 1 0 0 1-.112.008 1.1 1.1 0 0 1-.36-.072h-.013l-.022.008-.024.031a1 1 0 0 1-.306.287 2 2 0 0 1-.195.093 1 1 0 0 0-.092.043 2 2 0 0 1-.18.163 1 1 0 0 0-.08.068 1 1 0 0 0-.055.2c.007.037.014.074.021.1l.007.027a1.2 1.2 0 0 1 .117.309l.01.05v.051a.8.8 0 0 1-.051.268l.146 1.396a.9.9 0 0 1 .11.321c.019.133.025.2.031.267s.009.1.023.206l.01.015a.97.97 0 0 1 .17.433.79.79 0 0 1-.143.578l.025.075a2 2 0 0 1 .079.287l.038.056a1 1 0 0 1 .2.443 1.4 1.4 0 0 1 0 .373 1 1 0 0 0-.009.118c.006.019.027.061.042.093a1.3 1.3 0 0 1 .13.38l.009.061.062.423a1 1 0 0 1-.065.481l-.02.064c.011.094.014.182.017.262q-.002.078.007.148l.034.048a1 1 0 0 1 .21.452 1.1 1.1 0 0 1-.042.447l-.018.055.027.045a1.1 1.1 0 0 1 .172.422q.018.136.031.262a2.102 2.102 0 0 0 .067.41 3 3 0 0 1 .062.291 1 1 0 0 1-.074.493v.009l.006.007a1 1 0 0 1 .216.456 1.1 1.1 0 0 1-.037.437c-.006.025-.014.058-.017.078s.027.071.04.1a1.5 1.5 0 0 1 .108.356q.015.101.038.214c.023.113.033.174.046.267a.97.97 0 0 1-.084.5.96.96 0 0 1 .23.462.92.92 0 0 1-.118.547l-.019.039.026.159.035.213.037.053a1 1 0 0 1 .2.446.9.9 0 0 1-.076.475.83.83 0 0 1 .284.484.8.8 0 0 1-.116.513.8.8 0 0 1 .248.453.94.94 0 0 1-.1.531l-.013.031.028.07a1.5 1.5 0 0 1 .108.354q.015.09.04.2c.025.11.041.18.055.281q.015.098.04.209a3 3 0 0 1 .078.553q.006.112.019.205c.014.1.021.191.027.281q.006.112.019.207a2 2 0 0 1 .019.312 2 2 0 0 0 .008.178 1.4 1.4 0 0 1 0 .375c0 .024-.006.055-.008.08l.025.033a1 1 0 0 1 .228.465.4.4 0 0 0 .036.128 1.4 1.4 0 0 1 .1.369 1.5 1.5 0 0 1 .014.361.6.6 0 0 0 .006.153.95.95 0 0 1-.063.515l-.006.014.008.024a1 1 0 0 1 .187.458 1.8 1.8 0 0 1 .019.341.8.8 0 0 0 .009.168.3.3 0 0 0 .033.106 1.3 1.3 0 0 1 .116.387 1.3 1.3 0 0 1 0 .4.3.3 0 0 0 0 .116.5.5 0 0 0 .037.144 1.5 1.5 0 0 1 .091.352 1.5 1.5 0 0 1 0 .381 1 1 0 0 0-.009.137l.057.092a1.3 1.3 0 0 1 .175.338 1.1 1.1 0 0 1 .017.491v.03a1 1 0 0 0 .158.129h.045a2 2 0 0 1 .221-.015.9.9 0 0 1 .564.185l.037.024q.09-.01.2-.028l.141-.021.062-.037a1.1 1.1 0 0 1 .393-.168 1 1 0 0 1 .156-.014 1.4 1.4 0 0 1 .275.032l.077.013.155-.033c.1-.022.2-.045.311-.06a.4.4 0 0 0 .12-.032 1.4 1.4 0 0 1 .344-.092l.027-.005.027-.015a1.1 1.1 0 0 1 .405-.141 1 1 0 0 1 .175-.013 1 1 0 0 1 .24.027l.036.006h.054l.021-.013a1 1 0 0 1 .412-.149A1 1 0 0 1 12 35.4a.77.77 0 0 1 .372.1.77.77 0 0 1 .447-.226l.245-.034.236-.04c.095-.014.184-.021.271-.029s.148-.013.214-.022a1 1 0 0 1 .141-.01 2 2 0 0 1 .248.022 1 1 0 0 0 .107.012q.135-.019.262-.03c.127-.011.151-.015.221-.025l.247-.034.236-.032a1 1 0 0 1 .16-.011q.114.002.2.012l.076.006.025-.021a.94.94 0 0 1 .481-.252 3 3 0 0 1 .3-.022 2 2 0 0 0 .188-.012 1.3 1.3 0 0 1 .193-.013h.298a1 1 0 0 1 .119-.008 1.3 1.3 0 0 1 .326.05l.076.018a2 2 0 0 0 .139-.04 2 2 0 0 1 .317-.08 1 1 0 0 0 .138-.043 1.7 1.7 0 0 1 .335-.092 3 3 0 0 1 .3-.022 2 2 0 0 0 .188-.012l.483-.07a1 1 0 0 1 .143-.01 2 2 0 0 1 .245.021 1 1 0 0 0 .108.012 1 1 0 0 0 .1-.042 1.4 1.4 0 0 1 .365-.118q.104-.016.219-.038c.115-.022.17-.032.261-.045q.1-.016.211-.039a4 4 0 0 1 .268-.049 1 1 0 0 1 .132-.009 1.5 1.5 0 0 1 .275.03c.033.006.078.014.1.015l.244-.032q.116-.014.232-.03a1 1 0 0 0 .121-.043 1.5 1.5 0 0 1 .35-.1 2 2 0 0 1 .31-.019c.06 0 .117 0 .163-.006l.074-.04a1.2 1.2 0 0 1 .4-.156l.237-.032.245-.033c.1-.015.2-.021.286-.026s.142-.009.2-.017A1 1 0 0 0 25 33.6a1.4 1.4 0 0 1 .355-.109 1 1 0 0 1 .105-.007 1.1 1.1 0 0 1 .4.089h.013l.015-.01a1 1 0 0 1 .437-.192q.086-.014.192-.041c.085-.021.182-.044.286-.059q.126-.018.251-.033c.125-.015.155-.019.232-.03a1 1 0 0 1 .105-.007 1.1 1.1 0 0 1 .4.089l.029.011.042-.023a1.2 1.2 0 0 1 .4-.15q.087-.014.193-.041c.085-.021.181-.044.285-.059a1 1 0 0 0 .147-.043 2 2 0 0 1 .325-.087c.105-.015.2-.02.292-.024q.108-.002.2-.015c.092-.013.141-.024.218-.038s.171-.033.262-.046a1 1 0 0 1 .154-.011 2 2 0 0 1 .22.015c.043 0 .083.009.111.009h.011l.222-.036c.074-.013.172-.029.259-.042a2 2 0 0 1 .262-.016h.109a1 1 0 0 0 .119-.006c.1-.015.2-.021.285-.026.056 0 .11-.007.16-.012l.048-.034a1 1 0 0 1 .451-.209 1 1 0 0 1 .133-.009 1.6 1.6 0 0 1 .273.029c.034.006.079.014.1.014a1 1 0 0 1 .119-.008 1.4 1.4 0 0 1 .3.039c.028.006.065.014.085.016s.078-.026.118-.041a1.6 1.6 0 0 1 .34-.1l.236-.036.247-.038a1 1 0 0 1 .152-.011 2 2 0 0 1 .223.016c.04 0 .078.009.1.009l.067-.037a1.1 1.1 0 0 1 .411-.162c.054-.008.119-.024.187-.042a3 3 0 0 1 .291-.062 1 1 0 0 1 .112-.008 1.2 1.2 0 0 1 .356.065l.067.02q.117-.016.227-.027l.178-.02.046-.034a1 1 0 0 1 .457-.218 2 2 0 0 1 .241-.015h.15a1 1 0 0 0 .093 0c.019-.006.061-.027.092-.042a1.3 1.3 0 0 1 .381-.131 1 1 0 0 1 .11-.008 1.2 1.2 0 0 1 .373.074l.062.02q.135-.015.25-.019c.115-.004.14-.007.2-.015s.133-.024.207-.04.175-.038.272-.052.2-.021.292-.027c.074 0 .145-.009.207-.018q.139-.019.277-.036l.219-.028c.015 0 .066-.027.1-.043a1.3 1.3 0 0 1 .38-.123 1 1 0 0 0 .14-.044 1.6 1.6 0 0 1 .345-.094 1 1 0 0 1 .114-.007 1.4 1.4 0 0 1 .324.047l.061.014.043-.028a1.05 1.05 0 0 1 .441-.189 1 1 0 0 1 .093-.006 1 1 0 0 1 .477.149l.037.02.154-.02.2-.026.042-.035a.96.96 0 0 1 .475-.249 1 1 0 0 1 .134-.01 1.4 1.4 0 0 1 .3.041l.086.017q.134-.02.256-.03l.111-.011a.5.5 0 0 1 .176-.058.8.8 0 0 0 .165-.076l.11-.058.042-.056a1.4 1.4 0 0 1 .176-.211 2 2 0 0 1 .191-.152l.067-.05.024-.044a1.3 1.3 0 0 0 .1-.2l-.02-.062a1.5 1.5 0 0 1-.071-.279v-.018l-.013-.14q-.016-.174-.034-.339a1 1 0 0 1 .085-.489l.021-.057q-.016-.098-.034-.2c-.018-.102-.026-.145-.037-.22l-.042-.08a1.2 1.2 0 0 1-.155-.4 1.7 1.7 0 0 1-.011-.345 1 1 0 0 0 0-.15 1 1 0 0 0-.046-.124 1.5 1.5 0 0 1-.11-.349 1.6 1.6 0 0 1-.01-.356 1 1 0 0 0 0-.142 2 2 0 0 1-.021-.323 2 2 0 0 0-.008-.173 1 1 0 0 0-.042-.1 1.3 1.3 0 0 1-.126-.374c-.015-.1-.02-.2-.025-.286s-.008-.14-.016-.2a1.4 1.4 0 0 1 0-.372 1 1 0 0 0 .009-.121q-.014-.088-.041-.2a3 3 0 0 1-.057-.28 1 1 0 0 0-.043-.127 1.5 1.5 0 0 1-.1-.343 1.3 1.3 0 0 1 .017-.4c.006-.035.013-.082.014-.1q-.016-.106-.036-.22l-.042-.253q-.016-.107-.038-.223c-.022-.116-.025-.14-.037-.214l-.036-.05a1 1 0 0 1-.207-.449 1.3 1.3 0 0 1 .02-.407 1 1 0 0 0 .014-.1q-.015-.09-.039-.194-.03-.13-.054-.275l-.036-.248-.034-.233a1 1 0 0 0-.043-.113 1.4 1.4 0 0 1-.11-.355c-.014-.1-.021-.185-.029-.272s-.007-.138-.017-.198a2 2 0 0 1-.013-.326 1 1 0 0 0 0-.163c-.015-.1-.02-.2-.024-.29q-.002-.108-.015-.2a1.4 1.4 0 0 1 0-.369c0-.024.006-.055.007-.08l-.024-.031a.97.97 0 0 1-.23-.466 1.04 1.04 0 0 1 .056-.467l.02-.069a1.4 1.4 0 0 1 .02-.364c0-.018.006-.04.009-.059l-.02-.025a.96.96 0 0 1-.233-.467q-.016-.1-.039-.212a5 5 0 0 1-.049-.266.93.93 0 0 1 .11-.537v-.005l-.011-.018a1.1 1.1 0 0 1-.164-.413c-.015-.1-.02-.2-.024-.288q-.001-.108-.015-.2a1 1 0 0 0-.043-.117 1.5 1.5 0 0 1-.107-.353 1.04 1.04 0 0 1 .059-.47c.006-.019.014-.044.018-.062s-.022-.075-.037-.119a2 2 0 0 1-.086-.324l-.07-.481-.035-.233-.037-.247a1.5 1.5 0 0 1 0-.366 1 1 0 0 0 .007-.125 2 2 0 0 0-.042-.179 2.4 2.4 0 0 1-.067-.3c-.015-.1-.02-.2-.024-.289q-.001-.078-.009-.143l-.03-.039a.96.96 0 0 1-.234-.468q-.015-.093-.039-.2-.03-.13-.053-.277a1.1 1.1 0 0 1 .049-.463c.007-.026.016-.059.02-.079q-.015-.079-.04-.174a3 3 0 0 1-.064-.3 2 2 0 0 1-.017-.323 2 2 0 0 0-.006-.17A1 1 0 0 0 43 7.241a1.2 1.2 0 0 1-.156-.411 1.5 1.5 0 0 1 .005-.384 1 1 0 0 0 .009-.129 1.4 1.4 0 0 0-.045-.173 2 2 0 0 1-.078-.319 2 2 0 0 0-.044-.181 2 2 0 0 1-.072-.314 3 3 0 0 0-.042-.209q-.032-.133-.056-.286a1.3 1.3 0 0 1 .02-.413 1 1 0 0 0 .015-.1A1.7 1.7 0 0 1 42.534 4a1 1 0 0 0-.006-.131 1.2 1.2 0 0 0-.161-.208ZM2.548 7.96l.122-.922a1.1 1.1 0 0 1-.41.091 1 1 0 0 1-.06.137Zm-.285.522L2.146 7.36a1 1 0 0 1-.095.119 4 4 0 0 1-.134.129 1.3 1.3 0 0 0-.145.148 1.2 1.2 0 0 1-.281.254l-.056.041a2 2 0 0 0-.082.2l-.06.153a1 1 0 0 0-.042.133q.058.01.1.019l.036.007.032-.016a.94.94 0 0 1 .448-.13 1 1 0 0 1 .094.006 2 2 0 0 1 .302.059m.077 1.111-.03-.011a1.5 1.5 0 0 1-.231-.1.6.6 0 0 0-.179-.058l-.018.009a1.3 1.3 0 0 1-.258.108.7.7 0 0 1-.2.028 1 1 0 0 1-.193-.019l-.034.057v.01a1.1 1.1 0 0 1 .025.368 1 1 0 0 1-.077.257l.03.021a1.4 1.4 0 0 1 .2.16.9.9 0 0 1 .18.269 2 2 0 0 1 .208-.011 2 2 0 0 1 .216.016c.033 0 .067.008.092.009a1 1 0 0 0 .171-.1l.008-.045a1.3 1.3 0 0 1 .076-.289q.015-.034.031-.066a1 1 0 0 1 .034-.345.8.8 0 0 1-.051-.268"/><path fill="#0d4b08" d="M5.667 12.879c.137.089.158.355.295.444s.3.144.433.233.326.1.463.187.228.249.365.338.362.043.5.132.179.325.316.413.362.042.5.131.176.33.313.418.3.134.44.222.3.142.434.23.218.266.356.354.26.2.4.287.37.027.507.115.213.275.35.363.356.049.494.136.242.228.381.315.2.3.335.388.373.022.511.109.223.258.362.345.322.1.461.187.323.1.462.186.193.307.332.394.29.152.429.239.223.26.362.346.295.144.434.23.316.109.455.2.215.274.354.359.3.13.443.215.289.153.428.239.268.188.408.273.381 0 .52.088.261.2.4.284.293.146.433.231.216.274.355.358.3.143.435.228.236.241.376.326.347.066.489.151.254.22.4.3.269.194.411.279.329.1.471.181c.126.088.259.164.389.246s.287.111.42.188.207.253.343.325.212.264.35.331.37-.078.51-.016c.166.057.282.312.453.335s.361-.115.534-.127a2.7 2.7 0 0 0 .526-.025 2.7 2.7 0 0 0 .507-.171c.125-.083.293-.124.413-.215s.222-.215.335-.314.09-.345.2-.451.235-.185.335-.3.169-.25.26-.369c.113-.12.358-.121.471-.24s.083-.373.2-.493.215-.249.328-.369.316-.154.428-.275.255-.213.366-.333.135-.322.247-.443.229-.236.341-.356.332-.142.443-.263.148-.31.259-.431.263-.2.373-.327.272-.2.382-.32.157-.3.267-.423.2-.263.31-.385.3-.174.409-.3.224-.241.333-.364.223-.242.332-.365.163-.294.273-.418.178-.282.286-.4.169-.289.278-.412.313-.159.421-.281.12-.328.228-.451.3-.169.408-.292.273-.195.38-.317.106-.341.213-.463.231-.231.338-.354.178-.277.285-.4.361-.118.468-.241.074-.367.181-.49.18-.275.287-.4.189-.267.3-.391.342-.136.449-.259.164-.288.27-.412.3-.173.405-.3.081-.359.187-.483.179-.275.285-.4.272-.2.377-.321.223-.238.329-.362.241-.223.347-.348.16-.291.265-.416.346-.135.451-.26.085-.355.19-.48.324-.169.377-.3a1.4 1.4 0 0 0 .009-.479c0-.147-.114-.276-.169-.415s-.035-.33-.141-.441a1.2 1.2 0 0 0-.421-.2 1.1 1.1 0 0 0-.436-.051 1.2 1.2 0 0 0-.458 0c-.134.054-.159.266-.268.373-.1.125-.2.248-.31.373s-.354.129-.459.253-.134.313-.24.437-.287.184-.392.309-.176.278-.282.4-.2.254-.311.378-.139.31-.244.434-.177.278-.283.4-.25.214-.356.338-.333.144-.439.267-.167.286-.274.41-.182.274-.288.4-.27.2-.377.32-.114.333-.22.456-.341.136-.448.259-.039.4-.146.521-.249.216-.355.339-.287.182-.394.3-.207.252-.315.374-.149.3-.257.425-.244.22-.351.342-.338.136-.446.258-.172.283-.28.4-.2.262-.3.383-.225.236-.333.358-.153.3-.262.422-.157.3-.266.419-.213.247-.322.368-.35.124-.459.245-.171.285-.28.406-.143.311-.253.431-.375.1-.485.22-.087.362-.2.482-.2.258-.311.379-.227.235-.338.355-.277.187-.388.307-.187.272-.3.391-.248.257-.37.387-.211.292-.333.422-.409.106-.531.236-.19.311-.313.441-.129.34-.244.462-.225.249-.341.371c-.145.152-.356.362-.587.341-.189-.018-.431-.333-.586-.424-.2-.116-.233-.057-.431-.173s-.206-.1-.4-.22c-.149-.088-.252-.256-.4-.345s-.252-.255-.4-.344-.307-.162-.456-.252-.391-.024-.54-.113-.254-.191-.39-.273-.246-.2-.381-.286-.308-.1-.444-.183-.211-.262-.347-.344-.255-.189-.391-.271-.338-.052-.473-.134-.227-.235-.362-.318-.247-.2-.382-.284-.341-.048-.476-.131-.186-.3-.32-.385-.271-.163-.406-.246-.358-.022-.493-.106-.222-.241-.357-.324-.266-.171-.4-.255-.253-.193-.387-.276-.323-.079-.458-.163-.239-.215-.373-.3-.323-.08-.457-.164-.148-.378-.287-.465-.335-.081-.473-.168-.292-.149-.43-.236-.292-.15-.43-.237-.308-.125-.445-.213-.227-.252-.364-.34-.2-.3-.335-.387-.413.039-.551-.049-.14-.388-.277-.477-.376-.018-.514-.106-.243-.227-.38-.315-.328-.095-.465-.183-.183-.319-.32-.407-.363-.04-.5-.129-.251-.214-.388-.3-.266-.191-.4-.28-.292-.15-.429-.24-.24-.23-.377-.319-.333-.089-.47-.178a.9.9 0 0 0-.418-.173.83.83 0 0 0-.469-.008c-.152.067-.4.063-.509.195a1.6 1.6 0 0 0-.182.51 1.4 1.4 0 0 0-.091.517c.016.164.2.28.293.428a1.1 1.1 0 0 0 .293.391c.06 0 .066-.1.066-.1"/><path fill="#0d4b08" d="M40.127 5.322a2 2 0 0 1 .226.018c.033 0 .073.009.09.009h.079a1.4 1.4 0 0 1 .546.088c.021.009.053.019.086.03a1.2 1.2 0 0 1 .5.272l.011.011a.95.95 0 0 1 .231.533c0 .024.01.057.013.071s.025.049.041.077a1.05 1.05 0 0 1 .162.519c0 .023 0 .063.007.1a1.2 1.2 0 0 1-.051.562.9.9 0 0 1-.422.432l-.022.013-.008.031a1 1 0 0 1-.2.445 1 1 0 0 1-.426.275l-.048.019c-.017.026-.035.061-.054.094a1.7 1.7 0 0 1-.188.289 2.4 2.4 0 0 1-.217.22 2 2 0 0 0-.13.128q-.093.108-.182.2c-.089.092-.1.109-.146.161a1.5 1.5 0 0 1-.278.244 1 1 0 0 0-.1.079 2 2 0 0 0-.1.149 3 3 0 0 1-.152.217c0 .018-.01.043-.015.062a1 1 0 0 1-.2.456 1.2 1.2 0 0 1-.333.257c-.027.016-.063.037-.079.048a1 1 0 0 0-.075.121 1.7 1.7 0 0 1-.19.284 1 1 0 0 1-.419.269l-.056.023q-.044.057-.092.125c-.051.072-.109.154-.178.234a2 2 0 0 0-.1.147c-.043.065-.09.138-.149.211 0 .017-.009.04-.012.057a1 1 0 0 1-.2.475.96.96 0 0 1-.456.268l-.044.014q-.031.045-.067.1a2 2 0 0 1-.187.259 2 2 0 0 1-.2.2l-.126.129c-.007.018-.016.048-.023.07a1.1 1.1 0 0 1-.207.413 1.5 1.5 0 0 1-.277.237 1 1 0 0 0-.1.081 1.2 1.2 0 0 1-.334.252l-.068.04-.026.068a1.1 1.1 0 0 1-.208.383 1.1 1.1 0 0 1-.36.256l-.072.038c-.02.027-.046.071-.071.114a1.7 1.7 0 0 1-.2.286 1 1 0 0 0-.095.138 2 2 0 0 1-.192.267 1 1 0 0 0-.073.12 1.6 1.6 0 0 1-.2.3q-.088.1-.181.2c-.093.1-.1.11-.151.166s-.115.127-.174.189-.107.115-.16.174a1.3 1.3 0 0 1-.326.248c-.031.018-.073.042-.088.055-.039.044-.08.1-.123.154s-.113.149-.183.226a1 1 0 0 0-.061.107 1.4 1.4 0 0 1-.207.317 1.7 1.7 0 0 1-.267.228 1 1 0 0 0-.116.092 2 2 0 0 1-.249.221 1 1 0 0 0-.123.1 1 1 0 0 0-.049.1 1.3 1.3 0 0 1-.213.338 1.1 1.1 0 0 1-.393.253l-.069.031-.161.168c-.054.056-.1.106-.154.16-.01.017-.026.056-.038.084a1.2 1.2 0 0 1-.218.368 2.4 2.4 0 0 1-.23.211 2 2 0 0 0-.138.123 1.2 1.2 0 0 1-.36.246c-.026.013-.062.03-.078.04-.046.05-.092.1-.141.159s-.09.1-.139.157c0 .017-.009.038-.012.054a.96.96 0 0 1-.223.482 1 1 0 0 1-.439.251l-.044.015-.041.063a2 2 0 0 1-.2.269 2 2 0 0 1-.246.226l-.065.054-.007.029a.9.9 0 0 1-.259.486q-.052.047-.114.11a2.3 2.3 0 0 1-.248.226 1.5 1.5 0 0 1-.322.178 1 1 0 0 0-.117.057l-.023.015-.024.012a2.6 2.6 0 0 1-.524.186l-.077.021a1.3 1.3 0 0 1-.364.044h-.257c-.02 0-.067.022-.1.034a1.2 1.2 0 0 1-.437.1 1 1 0 0 1-.1-.007.9.9 0 0 1-.54-.32l-.009-.009a1.2 1.2 0 0 1-.259.033.7.7 0 0 1-.309-.069 1 1 0 0 1-.348-.3l-.044-.053a1.1 1.1 0 0 1-.3-.272c-.015-.018-.035-.042-.048-.055s-.067-.028-.109-.044a1.6 1.6 0 0 1-.315-.148l-.127-.079c-.083-.051-.168-.1-.254-.162-.024-.011-.077-.026-.113-.037a1.5 1.5 0 0 1-.352-.141c-.09-.053-.17-.112-.242-.163s-.117-.084-.17-.116a2 2 0 0 1-.27-.2 1 1 0 0 0-.117-.1c-.02-.006-.06-.013-.09-.019a1.2 1.2 0 0 1-.408-.138 1.4 1.4 0 0 1-.288-.242 1 1 0 0 0-.089-.084q-.08-.046-.18-.094a3 3 0 0 1-.255-.134 1.2 1.2 0 0 1-.313-.3l-.056-.068a3 3 0 0 0-.168-.088c-.078-.039-.166-.082-.253-.136a3 3 0 0 1-.244-.172l-.112-.083h-.049a.96.96 0 0 1-.518-.118c-.084-.051-.16-.1-.233-.156s-.12-.084-.176-.118-.117-.066-.183-.1-.161-.085-.245-.137a1 1 0 0 0-.155-.073 2 2 0 0 1-.288-.142 1.2 1.2 0 0 1-.309-.3l-.056-.068a1 1 0 0 0-.118-.045 1.6 1.6 0 0 1-.327-.145c-.048-.03-.109-.059-.173-.091a3 3 0 0 1-.262-.14 1.3 1.3 0 0 1-.3-.272 1 1 0 0 0-.069-.076q-.08-.049-.179-.1a3 3 0 0 1-.246-.137 1 1 0 0 1-.325-.356l-.031-.049-.089-.029a1.4 1.4 0 0 1-.349-.147 1 1 0 0 0-.114-.04 1.4 1.4 0 0 1-.349-.148 1.3 1.3 0 0 1-.293-.269l-.045-.052h-.041a1 1 0 0 1-.493-.131 1.06 1.06 0 0 1-.32-.343l-.042-.062a2 2 0 0 1-.24-.2 2 2 0 0 0-.094-.084l-.068-.01a1.06 1.06 0 0 1-.447-.142 1.2 1.2 0 0 1-.3-.3l-.034-.043H10.7a1 1 0 0 1-.487-.136c-.086-.055-.165-.115-.234-.168s-.113-.086-.163-.118a1.3 1.3 0 0 1-.3-.281 1 1 0 0 0-.067-.077 2 2 0 0 0-.158-.082 2.4 2.4 0 0 1-.271-.145 1 1 0 0 0-.152-.075 2 2 0 0 1-.289-.148 1 1 0 0 1-.327-.394l-.006-.011h-.017a1 1 0 0 1-.463-.142 1 1 0 0 1-.325-.385l-.008-.015h-.02a1 1 0 0 1-.463-.143 1.4 1.4 0 0 1-.278-.25 1 1 0 0 0-.086-.088c-.013-.007-.065-.022-.1-.034a1.3 1.3 0 0 1-.362-.154 2 2 0 0 0-.16-.085 2.4 2.4 0 0 1-.272-.148.8.8 0 0 1-.252-.276l-.11-.072a1.2 1.2 0 0 1-.4-.467l-.043-.075a1 1 0 0 0-.068-.078.96.96 0 0 1-.3-.569 1.8 1.8 0 0 1 .114-.72c.01-.03.02-.073.032-.119a1.3 1.3 0 0 1 .244-.558 1 1 0 0 1 .592-.306c.033-.007.083-.019.1-.025a.9.9 0 0 1 .363-.075 1.6 1.6 0 0 1 .278.03l.092.015a1.4 1.4 0 0 1 .621.247 1 1 0 0 0 .1.028 1.3 1.3 0 0 1 .379.154 2 2 0 0 1 .26.216 1 1 0 0 0 .117.1c.047.031.107.062.171.094a3 3 0 0 1 .257.144q.116.075.218.152c.102.077.125.09.184.129a2 2 0 0 1 .246.19q.06.052.112.092l.063.008a.88.88 0 0 1 .789.516l.025.042.074.022a1.3 1.3 0 0 1 .365.152 2 2 0 0 1 .261.212q.044.042.082.074h.048a1 1 0 0 1 .5.131.82.82 0 0 1 .313.418h.1a.75.75 0 0 1 .415.111 1.1 1.1 0 0 1 .315.34l.043.063a1.4 1.4 0 0 1 .262.242 1 1 0 0 0 .08.083 1 1 0 0 0 .141.064 2 2 0 0 1 .3.148q.075.045.175.1c.1.055.166.085.255.141.049.031.11.062.175.1s.162.083.248.136a1 1 0 0 0 .1.026 1.2 1.2 0 0 1 .384.146.9.9 0 0 1 .344.474v.005l.025.006a1.2 1.2 0 0 1 .373.143 2 2 0 0 1 .256.2 1 1 0 0 0 .11.093 1 1 0 0 0 .089.024 1.2 1.2 0 0 1 .375.143c.087.054.164.113.231.164s.108.083.156.112l.2.128q.098.064.2.126a1.3 1.3 0 0 1 .282.248l.049.052h.039a1 1 0 0 1 .478.126l.2.124.2.121a1 1 0 0 1 .324.357l.013.021h.03a1.1 1.1 0 0 1 .428.134 2 2 0 0 1 .246.181 1.4 1.4 0 0 0 .136.1 1.4 1.4 0 0 1 .28.238l.068.068.066.011a1.1 1.1 0 0 1 .421.135c.086.052.164.109.232.16s.109.081.157.109a1.2 1.2 0 0 1 .3.286c.017.021.039.049.053.063s.073.027.109.039a1.5 1.5 0 0 1 .324.139 2 2 0 0 1 .252.187 1 1 0 0 0 .128.1 3 3 0 0 1 .237.164q.065.05.123.089l.073.005a1.04 1.04 0 0 1 .5.126q.098.057.209.116c.111.059.162.086.246.136a1.5 1.5 0 0 1 .3.25 1 1 0 0 0 .1.093 1.5 1.5 0 0 1 .3.252 1 1 0 0 0 .1.092c.084.05.125.07.172.094s.118.059.232.126a.2.2 0 0 0 .08.032 1.2 1.2 0 0 1 .351.141 1.7 1.7 0 0 1 .284.228l.108.1a2 2 0 0 0 .166-.157q.083-.087.168-.182c.085-.095.1-.116.158-.173l.032-.08a1.1 1.1 0 0 1 .225-.4 1 1 0 0 0 .094-.138 1.8 1.8 0 0 1 .22-.3 1 1 0 0 1 .5-.259l.061-.016q.043-.055.091-.122a3 3 0 0 1 .206-.259l.185-.194.184-.192a1 1 0 0 0 .1-.138 2 2 0 0 1 .194-.252 1.5 1.5 0 0 1 .281-.228 1 1 0 0 0 .106-.078q.086-.093.173-.182c.087-.089.11-.114.164-.172s.083-.1.128-.157.093-.12.148-.183c0-.017.01-.04.014-.057a1 1 0 0 1 .216-.463.93.93 0 0 1 .483-.255l.021-.006.021-.046a1.3 1.3 0 0 1 .211-.343 1 1 0 0 0 .081-.124 1.7 1.7 0 0 1 .2-.281 1 1 0 0 1 .434-.258l.055-.02.123-.142q.083-.097.168-.192a1 1 0 0 0 .062-.108 1.5 1.5 0 0 1 .2-.31 1 1 0 0 0 .058-.1 1.4 1.4 0 0 1 .2-.318q.09-.099.177-.19a2.55 2.55 0 0 0 .282-.327c.045-.06.11-.146.178-.223a1 1 0 0 0 .087-.131 2 2 0 0 1 .192-.273 1 1 0 0 1 .411-.262l.061-.025c.064-.069.13-.129.189-.182a2 2 0 0 0 .135-.13 1 1 0 0 0 .057-.1 1.4 1.4 0 0 1 .2-.32q.075-.084.147-.176c.072-.092.109-.132.167-.2a1.3 1.3 0 0 1 .3-.245 1 1 0 0 0 .091-.062 2 2 0 0 1 .224-.216l.078-.07v-.032a.9.9 0 0 1 .192-.538 1 1 0 0 1 .417-.267l.031-.013.015-.042a1.1 1.1 0 0 1 .2-.393 1.5 1.5 0 0 1 .272-.237 1 1 0 0 0 .1-.083 2 2 0 0 0 .107-.15 2.4 2.4 0 0 1 .18-.246 1 1 0 0 0 .085-.132 2 2 0 0 1 .189-.278 1 1 0 0 1 .4-.267l.063-.028a2 2 0 0 1 .208-.2 1 1 0 0 0 .123-.114 1.4 1.4 0 0 0 .1-.145 2 2 0 0 1 .182-.256 1 1 0 0 0 .046-.1 1.3 1.3 0 0 1 .2-.337q.076-.088.147-.179c.071-.091.108-.133.163-.2a1.4 1.4 0 0 0 .1-.146 2 2 0 0 1 .182-.257 1.3 1.3 0 0 1 .308-.252c.029-.018.067-.043.084-.057s.029-.061.043-.093a1.3 1.3 0 0 1 .2-.344 1 1 0 0 1 .44-.274l.052-.019.137-.165.138-.167.016-.019.025-.05a.83.83 0 0 1 .422-.446.9.9 0 0 1 .352-.057m.316 1.028a2 2 0 0 1-.2-.016 1 1 0 0 1-.152.221l-.122.148-.177.213a.97.97 0 0 1-.441.274l-.034.012-.026.06a1.3 1.3 0 0 1-.2.344 1.3 1.3 0 0 1-.308.252 1 1 0 0 0-.087.059 2 2 0 0 0-.1.142 2 2 0 0 1-.183.258q-.076.089-.147.179c-.071.09-.107.133-.163.2a1 1 0 0 0-.047.1 1.3 1.3 0 0 1-.2.337 1.4 1.4 0 0 0-.1.144 2 2 0 0 1-.184.259 2 2 0 0 1-.233.224 1 1 0 0 0-.124.115 1 1 0 0 1-.4.268l-.058.026a1 1 0 0 0-.065.106 2 2 0 0 1-.19.28 2 2 0 0 0-.106.148 2.4 2.4 0 0 1-.183.249 1.5 1.5 0 0 1-.273.238c-.032.024-.071.052-.093.071s-.018.05-.027.074a1.1 1.1 0 0 1-.205.394 1 1 0 0 1-.4.261.9.9 0 0 1-.192.52 2 2 0 0 1-.226.218 1.4 1.4 0 0 0-.129.121 1.3 1.3 0 0 1-.307.247 1 1 0 0 0-.091.062q-.069.08-.145.172l-.167.2a1 1 0 0 0-.056.1 1.4 1.4 0 0 1-.2.323 3 3 0 0 1-.216.212 2 2 0 0 0-.134.129 1 1 0 0 1-.412.263l-.056.023c-.02.028-.043.066-.067.1a2 2 0 0 1-.192.273q-.061.07-.127.16c-.066.09-.111.148-.18.225s-.12.13-.178.191-.107.112-.156.167a1 1 0 0 0-.059.106 1.4 1.4 0 0 1-.2.317 1 1 0 0 0-.063.109 1.5 1.5 0 0 1-.2.311c-.052.058-.1.117-.154.176s-.111.129-.168.192a1 1 0 0 1-.435.26l-.049.018c-.018.026-.038.06-.058.093a1.7 1.7 0 0 1-.2.278 1 1 0 0 0-.046.093 1.3 1.3 0 0 1-.209.341.9.9 0 0 1-.471.254.97.97 0 0 1-.212.45q-.063.07-.13.159c-.067.089-.113.145-.182.221s-.121.128-.181.191-.106.109-.158.165a1.5 1.5 0 0 1-.282.229 1 1 0 0 0-.107.078 1 1 0 0 0-.1.139 2 2 0 0 1-.195.254q-.097.105-.2.206c-.103.101-.117.121-.174.182a2 2 0 0 0-.126.162 3 3 0 0 1-.208.261 1 1 0 0 1-.505.26l-.057.015c-.02.029-.042.065-.064.1a2 2 0 0 1-.205.287l-.032.08a1.1 1.1 0 0 1-.227.4c-.053.056-.1.112-.155.169s-.122.135-.187.2a1.33 1.33 0 0 1-.916.5h-.079a1.2 1.2 0 0 1-.682-.391c-.037-.034-.093-.086-.115-.1a.2.2 0 0 0-.076-.029 1.2 1.2 0 0 1-.351-.142c-.084-.05-.125-.07-.172-.094s-.119-.059-.233-.127a1.5 1.5 0 0 1-.3-.253 1 1 0 0 0-.1-.093 1.5 1.5 0 0 1-.3-.251 1 1 0 0 0-.1-.093q-.096-.056-.2-.111c-.104-.055-.146-.077-.222-.122l-.076-.006a1.03 1.03 0 0 1-.5-.127 3 3 0 0 1-.239-.166c-.055-.041-.106-.08-.152-.107a2 2 0 0 1-.253-.187 1 1 0 0 0-.128-.1 1 1 0 0 0-.12-.045 1.5 1.5 0 0 1-.324-.139 1.2 1.2 0 0 1-.3-.286c-.018-.022-.042-.052-.055-.065-.083-.051-.157-.106-.222-.154-.049-.036-.1-.071-.138-.1l-.072-.012a1.1 1.1 0 0 1-.421-.135 1.4 1.4 0 0 1-.281-.239 1 1 0 0 0-.082-.08 2 2 0 0 1-.246-.181q-.062-.051-.114-.089l-.068-.011a1.1 1.1 0 0 1-.43-.135 1 1 0 0 1-.324-.357l-.031-.05-.155-.094-.175-.106h-.055a1 1 0 0 1-.479-.127 1.3 1.3 0 0 1-.283-.248 1 1 0 0 0-.076-.078l-.21-.134-.188-.12c-.088-.055-.165-.114-.234-.166q-.077-.062-.147-.106a1 1 0 0 0-.09-.024 1.2 1.2 0 0 1-.375-.143 2 2 0 0 1-.256-.2 1 1 0 0 0-.111-.093 1 1 0 0 0-.089-.024 1.2 1.2 0 0 1-.376-.144.9.9 0 0 1-.342-.473v-.006l-.043-.01a1.2 1.2 0 0 1-.386-.147q-.077-.046-.176-.1c-.099-.054-.166-.085-.254-.14q-.078-.046-.177-.1c-.099-.054-.166-.085-.255-.141a1 1 0 0 0-.143-.065 2 2 0 0 1-.3-.148 1.4 1.4 0 0 1-.286-.258 1 1 0 0 0-.08-.083 1.05 1.05 0 0 1-.311-.332c-.048 0-.1.009-.159.009a.75.75 0 0 1-.415-.112.85.85 0 0 1-.326-.453.9.9 0 0 1-.464-.129 2 2 0 0 1-.261-.213 1 1 0 0 0-.119-.1c-.013-.007-.064-.021-.1-.032a1.3 1.3 0 0 1-.365-.152 1 1 0 0 1-.323-.371l-.01-.018h-.022a1 1 0 0 1-.466-.141 2 2 0 0 1-.248-.191 2 2 0 0 0-.142-.112c-.08-.052-.153-.1-.224-.155s-.122-.088-.18-.126-.105-.06-.168-.093a3 3 0 0 1-.261-.147 2 2 0 0 1-.261-.217 1 1 0 0 0-.111-.1c-.018-.008-.062-.019-.095-.028a1.3 1.3 0 0 1-.381-.155.44.44 0 0 0-.208-.095q-.069-.01-.133-.021a1 1 0 0 0-.093-.014 1.6 1.6 0 0 1-.256.074l-.055.013-.029.113a2 2 0 0 1-.053.194 1.6 1.6 0 0 0-.066.259l.036.04a1.6 1.6 0 0 1 .178.221l.007.012.2.133a.94.94 0 0 1 .331.437l.017.038q.05.027.11.055a2.4 2.4 0 0 1 .269.146 1 1 0 0 0 .1.034 1.3 1.3 0 0 1 .36.153 1.4 1.4 0 0 1 .279.251c.019.021.045.049.065.068l.057.007a1 1 0 0 1 .462.142 1 1 0 0 1 .324.385l.008.014h.02a1 1 0 0 1 .463.142 1 1 0 0 1 .327.394l.025.046q.05.025.113.053a2 2 0 0 1 .287.148 2 2 0 0 0 .163.085 2.4 2.4 0 0 1 .271.145 1.3 1.3 0 0 1 .294.28c.022.027.052.063.067.077.084.054.16.112.227.163l.129.1h.058a1 1 0 0 1 .485.134 1.2 1.2 0 0 1 .3.3l.041.052.053.008a1.06 1.06 0 0 1 .447.142 1.7 1.7 0 0 1 .264.215 1 1 0 0 0 .115.1 1.1 1.1 0 0 1 .319.343l.015.022h.02a1 1 0 0 1 .493.131 1.3 1.3 0 0 1 .292.268c.023.027.055.064.07.077a1 1 0 0 0 .112.039 1.4 1.4 0 0 1 .346.147 1 1 0 0 0 .113.039 1.4 1.4 0 0 1 .346.146 1 1 0 0 1 .325.356l.036.056c.046.027.1.055.153.083.079.042.161.085.246.137a1.3 1.3 0 0 1 .3.271c.023.027.055.064.069.076q.075.044.17.089a3 3 0 0 1 .261.139 1 1 0 0 0 .128.05 1.6 1.6 0 0 1 .326.144 1.2 1.2 0 0 1 .307.3c.018.023.043.055.057.069a2 2 0 0 0 .147.068 2 2 0 0 1 .285.14q.087.053.19.106a3 3 0 0 1 .464.284q.07.049.134.092h.051a.96.96 0 0 1 .516.116 3 3 0 0 1 .244.172c.057.043.11.084.158.113s.113.062.179.094.166.082.253.136a1.2 1.2 0 0 1 .311.3c.018.023.043.054.056.068q.069.04.163.083c.08.039.17.083.261.138a1.4 1.4 0 0 1 .287.241c.025.025.06.062.08.078s.059.013.088.019a1.2 1.2 0 0 1 .406.137 2 2 0 0 1 .268.2 1 1 0 0 0 .128.1c.09.053.17.112.242.163s.117.084.17.116a1 1 0 0 0 .121.04 1.5 1.5 0 0 1 .35.14l.03.019q.107.075.23.147l.142.088a1 1 0 0 0 .128.055 2 2 0 0 1 .275.124 1.1 1.1 0 0 1 .3.272l.048.056a1 1 0 0 1 .286.257 1 1 0 0 1 .233-.028.7.7 0 0 1 .267.05 1 1 0 0 1 .381.276l.018-.007a1.3 1.3 0 0 1 .372-.094c.07-.005.158 0 .244 0h.089a.4.4 0 0 0 .094-.007l.085-.027a2 2 0 0 0 .313-.1 2 2 0 0 1 .235-.118 1 1 0 0 0 .122-.059 2 2 0 0 0 .142-.133q.048-.05.105-.1l.007-.028a.9.9 0 0 1 .228-.462 2 2 0 0 1 .185-.162 1 1 0 0 0 .126-.111 1.4 1.4 0 0 0 .1-.149c.038-.059.082-.127.134-.194l.032-.038a1 1 0 0 1 .439-.251.96.96 0 0 1 .221-.481q.074-.079.15-.169c.076-.09.114-.131.176-.2a1.2 1.2 0 0 1 .371-.245c.027-.013.062-.031.079-.041a3 3 0 0 1 .217-.2c.049-.041.1-.08.129-.115.01-.018.025-.055.037-.084a1.2 1.2 0 0 1 .218-.368l.179-.187c.06-.062.109-.112.162-.169a1.1 1.1 0 0 1 .392-.252l.058-.025.038-.078a1.3 1.3 0 0 1 .212-.338 2 2 0 0 1 .247-.219 1 1 0 0 0 .124-.105 1.7 1.7 0 0 1 .267-.228 1 1 0 0 0 .115-.092 1 1 0 0 0 .06-.106 1.4 1.4 0 0 1 .207-.317q.061-.069.128-.16c.067-.091.112-.147.18-.223a1.3 1.3 0 0 1 .325-.246c.031-.018.072-.042.088-.054q.082-.091.168-.184l.16-.174.161-.177c.054-.059.114-.123.169-.186a1 1 0 0 0 .074-.12 1.6 1.6 0 0 1 .2-.3 1 1 0 0 0 .094-.137 2 2 0 0 1 .192-.267 1 1 0 0 0 .082-.128 1.7 1.7 0 0 1 .195-.283 1.1 1.1 0 0 1 .36-.256l.058-.03.023-.062a1.2 1.2 0 0 1 .208-.384 1.2 1.2 0 0 1 .333-.251c.028-.016.066-.037.081-.049a1.6 1.6 0 0 1 .268-.227c.03-.022.066-.047.089-.066l.021-.066a1.1 1.1 0 0 1 .207-.413q.098-.109.19-.2c.092-.091.1-.1.147-.154a1 1 0 0 0 .1-.142 2 2 0 0 1 .186-.258.94.94 0 0 1 .447-.265.97.97 0 0 1 .2-.466 2 2 0 0 0 .1-.146 2 2 0 0 1 .184-.252c.037-.043.077-.1.119-.158s.107-.152.175-.231a1 1 0 0 1 .419-.269l.052-.021a1 1 0 0 0 .058-.1 1.7 1.7 0 0 1 .19-.284 1.2 1.2 0 0 1 .331-.256l.05-.029.009-.038a1 1 0 0 1 .2-.456 2 2 0 0 0 .1-.149 2 2 0 0 1 .181-.251 1.5 1.5 0 0 1 .276-.241 1 1 0 0 0 .1-.079q.091-.107.181-.2c.09-.093.1-.109.146-.161a2.4 2.4 0 0 1 .215-.218 2 2 0 0 0 .131-.13 1 1 0 0 0 .077-.127 1.7 1.7 0 0 1 .188-.289 1 1 0 0 1 .426-.274h.012v-.017a1 1 0 0 1 .2-.445l.021-.024a1.2 1.2 0 0 1 .263-.2v-.053c0-.046-.008-.1-.01-.152-.009-.019-.025-.047-.037-.069a2 2 0 0 1-.1-.195 1.3 1.3 0 0 1-.069-.271v-.013l-.069-.024q-.068-.022-.146-.053a.7.7 0 0 0-.168-.014Z"/><path fill="#fefffd" d="M62.987 7.661c-.237.034-.217.168-.454.2s-.256-.1-.492-.064-.225.115-.462.149-.232.067-.469.1-.249-.047-.486-.013-.214.186-.452.221-.254-.088-.491-.053-.239.018-.476.052-.219.157-.455.191-.257-.11-.493-.076-.235.043-.471.077-.222.137-.46.171-.223.125-.461.16-.267-.174-.5-.139-.232.075-.47.109-.223.13-.461.164-.249-.049-.487-.015-.213.193-.45.228-.263-.139-.5-.1-.215.194-.453.228-.265-.145-.5-.111-.231.085-.47.12-.245.076-.5.113-.267-.068-.518-.032-.26 0-.51.046c-.148.042-.223.272-.338.361s-.3.131-.376.26.02.311 0 .46a1 1 0 0 0-.033.422c.044.146-.007.361.083.473s.331.086.459.159.235.213.382.233a1.3 1.3 0 0 0 .438-.109c.236-.04.225-.12.462-.154s.259.123.5.088.233-.058.47-.092.251.068.489.033.232-.067.469-.1.226-.107.462-.141.254.085.491.051.23-.082.467-.117.233-.054.47-.089.239-.014.474-.048.208-.228.444-.263.242 0 .48-.035.233-.062.47-.1.254.087.491.052.233-.064.471-.1.249.05.487.016.22-.155.458-.189.245.024.481-.01.242-.006.48-.041.226-.119.464-.154.238-.044.476-.079.231-.092.47-.126.267.079.517.042.271.1.522.062.216-.256.466-.3c.148-.042.371.087.485 0s.119-.312.192-.44a1.2 1.2 0 0 0 .2-.4 1.2 1.2 0 0 0-.006-.464 1.4 1.4 0 0 0-.168-.452 1.4 1.4 0 0 0-.388-.289c-.128-.073-.329.062-.478.042a1.2 1.2 0 0 0-.452-.019c-.05-.023.014-.167.013-.167"/><path fill="none" d="M62.987 7.661c-.237.034-.217.168-.454.2s-.256-.1-.492-.064-.225.115-.462.149-.232.067-.469.1-.249-.047-.486-.013-.214.186-.452.221-.254-.088-.491-.053-.239.018-.476.052-.219.157-.455.191-.257-.11-.493-.076-.235.043-.471.077-.222.137-.46.171-.223.125-.461.16-.267-.174-.5-.139-.232.075-.47.109-.223.13-.461.164-.249-.049-.487-.015-.213.193-.45.228-.263-.139-.5-.1-.215.194-.453.228-.265-.145-.5-.111-.231.085-.47.12-.245.076-.5.113-.267-.068-.518-.032-.26 0-.51.046c-.148.042-.223.272-.338.361s-.3.131-.376.26.02.311 0 .46a1 1 0 0 0-.033.422c.044.146-.007.361.083.473s.331.086.459.159.235.213.382.233a1.3 1.3 0 0 0 .438-.109c.236-.04.225-.12.462-.154s.259.123.5.088.233-.058.47-.092.251.068.489.033.232-.067.469-.1.226-.107.462-.141.254.085.491.051.23-.082.467-.117.233-.054.47-.089.239-.014.474-.048.208-.228.444-.263.242 0 .48-.035.233-.062.47-.1.254.087.491.052.233-.064.471-.1.249.05.487.016.22-.155.458-.189.245.024.481-.01.242-.006.48-.041.226-.119.464-.154.238-.044.476-.079.231-.092.47-.126.267.079.517.042.271.1.522.062.216-.256.466-.3c.148-.042.371.087.485 0s.119-.312.192-.44a1.2 1.2 0 0 0 .2-.4 1.2 1.2 0 0 0-.006-.464 1.4 1.4 0 0 0-.168-.452 1.4 1.4 0 0 0-.388-.289c-.128-.073-.329.062-.478.042a1.2 1.2 0 0 0-.452-.019c-.053-.025.012-.169.01-.169"/><path fill="#0d4b08" d="M59.859 14.748c-.245.036-.261-.079-.507-.043s-.249 0-.494.038-.258-.056-.5-.021-.222.2-.468.238-.258-.048-.5-.013-.249.013-.494.049-.252 0-.5.037-.234.122-.48.158-.23.15-.476.186-.265-.1-.51-.064-.26-.056-.507-.02-.227.17-.474.205-.267-.1-.515-.061-.236.116-.484.152-.24.068-.485.1-.26-.053-.5-.01c-.148.042-.221.247-.334.336s-.3.124-.377.252a1.3 1.3 0 0 0-.162.435c-.018.144.111.285.151.434s-.01.347.08.46a1.3 1.3 0 0 0 .364.3c.128.072.311.027.459.048s.268-.078.417-.115c.244-.042.278.172.523.136s.239-.076.483-.112.231-.131.476-.166.258.047.5.012.222-.2.468-.231.271.138.516.1.223-.195.47-.231.272.144.518.109.239-.086.485-.122.24-.076.485-.111.262.069.508.033.251-.009.5-.044.222-.21.47-.246.265.081.512.045.223-.183.468-.219.254.035.5-.008c.148-.042.36.012.474-.077s.089-.331.163-.46.213-.236.232-.385a1.2 1.2 0 0 0-.114-.434c-.045-.146-.174-.207-.265-.32s-.091-.319-.219-.391a1.2 1.2 0 0 0-.43-.121 1.6 1.6 0 0 0-.524-.038c-.041.053.1.2.1.2"/><path fill="#fefffd" d="M59.859 14.748c-.245.036-.261-.079-.507-.043s-.249 0-.494.038-.258-.056-.5-.021-.222.2-.468.238-.258-.048-.5-.013-.249.013-.494.049-.252 0-.5.037-.234.122-.48.158-.23.15-.476.186-.265-.1-.51-.064-.26-.056-.507-.02-.227.17-.474.205-.267-.1-.515-.061-.236.116-.484.152-.24.068-.485.1-.26-.053-.5-.01c-.148.042-.221.247-.334.336s-.3.124-.377.252a1.3 1.3 0 0 0-.162.435c-.018.144.111.285.151.434s-.01.347.08.46a1.3 1.3 0 0 0 .364.3c.128.072.311.027.459.048s.268-.078.417-.115c.244-.042.278.172.523.136s.239-.076.483-.112.231-.131.476-.166.258.047.5.012.222-.2.468-.231.271.138.516.1.223-.195.47-.231.272.144.518.109.239-.086.485-.122.24-.076.485-.111.262.069.508.033.251-.009.5-.044.222-.21.47-.246.265.081.512.045.223-.183.468-.219.254.035.5-.008c.148-.042.36.012.474-.077s.089-.331.163-.46.213-.236.232-.385a1.2 1.2 0 0 0-.114-.434c-.045-.146-.174-.207-.265-.32s-.091-.319-.219-.391a1.2 1.2 0 0 0-.43-.121 1.6 1.6 0 0 0-.524-.038c-.046.058.097.2.097.2M56.842 21.366c-.248.036-.226.187-.474.223s-.272-.131-.521-.095-.251.01-.5.046-.232.149-.48.185-.259-.033-.508 0-.238.117-.488.153-.243.081-.493.117-.247.03-.493.072c-.142.039-.3.025-.418.114a1.3 1.3 0 0 0-.333.313 1.4 1.4 0 0 0-.2.44c-.021.149.221.284.258.427a.9.9 0 0 0 .181.349c.088.116.1.282.235.359l-.015.03c.135.068.273.206.421.225s.3-.152.452-.184c.248-.04.261.048.509.012s.251-.014.5-.05.252 0 .5-.037.236-.123.485-.159.232-.151.481-.187.269.1.519.063.263.056.513.019.228-.163.474-.205c.142-.039.345.005.461-.083a1.3 1.3 0 0 0 .246-.4 1.2 1.2 0 0 0 .115-.441 1.3 1.3 0 0 0 .051-.468c-.04-.142-.241-.208-.33-.323s-.116-.3-.243-.376a1.5 1.5 0 0 0-.442-.154c-.148-.019-.323.107-.471.139-.035-.009 0-.131 0-.131"/><path fill="none" d="M56.842 21.366c-.248.036-.226.187-.474.223s-.272-.131-.521-.095-.251.01-.5.046-.232.149-.48.185-.259-.033-.508 0-.238.117-.488.153-.243.081-.493.117-.247.03-.493.072c-.142.039-.3.025-.418.114a1.3 1.3 0 0 0-.333.313 1.4 1.4 0 0 0-.2.44c-.021.149.221.284.258.427a.9.9 0 0 0 .181.349c.088.116.1.282.235.359l-.015.03c.135.068.273.206.421.225s.3-.152.452-.184c.248-.04.261.048.509.012s.251-.014.5-.05.252 0 .5-.037.236-.123.485-.159.232-.151.481-.187.269.1.519.063.263.056.513.019.228-.163.474-.205c.142-.039.345.005.461-.083a1.3 1.3 0 0 0 .246-.4 1.2 1.2 0 0 0 .115-.441 1.3 1.3 0 0 0 .051-.468c-.04-.142-.241-.208-.33-.323s-.116-.3-.243-.376a1.5 1.5 0 0 0-.442-.154c-.148-.019-.323.107-.471.139-.031-.003.009-.124.008-.124"/></svg>