<svg xmlns="http://www.w3.org/2000/svg" width="64.484" height="39.416" viewBox="0 0 64.484 39.416"><g transform="translate(0.5 0.5)"><path d="M2.866,11.217c1.12,7.744,2.572,17.778,3.7,25.581a2.607,2.607,0,0,0,2.952,2.207h0c8.971-1.3,28.074-4.059,37.454-5.417a2.6,2.6,0,0,0,2.207-2.947v-.007c-1.132-7.8-2.582-17.833-3.7-25.58a2.6,2.6,0,0,0-2.946-2.209h-.008C34.661,3.983,13.838,7,5.073,8.264a2.606,2.606,0,0,0-2.207,2.951Z" transform="translate(-1.732 -1.722)" fill="#fefffd"/><path d="M.6,10.359c.024.162.167.3.19.468s-.01.333.013.5.019.329.042.492.132.313.156.476.056.324.08.486.1.317.128.48-.068.342-.044.5-.087.345-.063.507.275.293.3.455-.174.357-.151.52.19.3.213.467-.018.335.005.5.02.329.044.491-.015.334.009.5.079.32.1.483.241.3.265.46.008.331.032.493.081.32.105.483-.129.35-.105.513.241.3.264.46.06.323.083.486-.077.343-.054.506.006.331.029.494.166.308.189.471.038.327.062.489-.1.347-.076.509.146.311.17.473-.009.333.015.5-.02.335,0,.5.133.313.156.475.074.321.1.484-.058.34-.035.5.041.326.065.489.042.326.065.488.12.315.143.477.1.318.124.48.109.31.133.469-.083.338-.06.5.171.3.195.46-.067.335-.044.495-.03.329-.007.489.189.3.213.458.023.322.046.481.094.311.117.471-.147.347-.124.506c.038.263.221.237.259.5s.081.258.119.521.069.259.107.524-.127.287-.093.552c.014.165.092.321.113.485s-.069.346-.042.509.227.293.261.455.111.305.152.465a3.722,3.722,0,0,0,.106.475,3.631,3.631,0,0,0,.226.435,3.8,3.8,0,0,0,.266.418,3.748,3.748,0,0,0,.391.3c.123.11.149.354.285.447s.366.038.514.113.243.284.4.338a4.15,4.15,0,0,0,.509.053,4.043,4.043,0,0,0,.462-.033c.151.009.3.133.455.128s.3-.086.452-.1.3-.07.446-.091.316.045.465.02.272-.218.42-.243.3-.053.451-.075.348.139.509.116.307-.144.468-.168.336.053.5.029.315-.091.475-.114.32-.054.481-.078.307-.141.468-.164.314-.092.475-.115.329,0,.489-.019.344.112.5.089.313-.106.473-.129.316-.086.476-.109.332.028.493.005.3-.177.463-.2.346.121.506.1.288-.275.449-.3.328,0,.489-.025.335.049.5.026.32-.056.48-.08.309-.133.469-.156.327-.009.488-.032.345.115.505.092.313-.1.473-.127.318-.073.478-.1.323-.035.484-.059.309-.132.469-.155.31-.128.471-.151.32-.053.48-.076.347.129.507.106.312-.11.472-.133.307-.148.467-.171.351.162.512.139.3-.225.456-.249.318-.073.478-.1.322-.038.483-.062.332.029.493.006.315-.094.475-.117.322-.04.483-.063.315-.091.475-.115.354.177.514.154.311-.121.471-.144.3-.185.462-.209.32-.055.48-.078.327-.01.487-.034.334.043.495.02.311-.116.472-.139.319-.062.48-.085.335.044.5.021.334.044.495.02.319-.064.48-.088.3-.224.456-.248.326-.014.487-.037.329,0,.489-.021.311-.118.471-.142.338.067.5.044.326-.018.486-.041.3-.177.463-.2.333.035.494.012.328,0,.488-.027c.234-.034.214-.169.448-.2s.257.125.491.091.235-.038.47-.072.21-.2.445-.236.247.053.482.019.236-.029.471-.063.239,0,.474-.038.221-.137.456-.171.242.021.477-.013.221-.138.456-.172.27.2.506.17.221-.143.457-.177.232-.063.469-.1c.158-.023.311-.073.466-.1s.3-.1.457-.127.325.037.478,0,.348.069.5.024.212-.338.357-.4.4.093.534.012.159-.324.285-.425a3.835,3.835,0,0,0,.4-.294c.114-.123.14-.308.236-.443s.326-.188.4-.335,0-.364.054-.52a3.615,3.615,0,0,0,.181-.456,3.712,3.712,0,0,0,.092-.484,3.741,3.741,0,0,0-.02-.492,3.78,3.78,0,0,0,.008-.5c-.023-.162-.152-.31-.175-.471s-.036-.326-.059-.488.032-.335.009-.5.11-.346.088-.508-.136-.311-.159-.473-.016-.329-.039-.49-.188-.3-.211-.466.024-.334,0-.5-.049-.324-.072-.486.058-.339.035-.5-.125-.313-.148-.475-.2-.3-.222-.464.14-.351.117-.513-.168-.306-.191-.468.13-.35.107-.512-.148-.309-.172-.471.052-.338.028-.5-.23-.3-.253-.459.094-.344.07-.506-.184-.3-.208-.466.1-.346.076-.507-.169-.306-.193-.468.042-.337.018-.5-.2-.3-.222-.464.1-.346.081-.508-.061-.322-.084-.484-.016-.329-.039-.49-.243-.3-.267-.457,0-.33-.027-.492.132-.35.108-.512-.2-.3-.22-.464-.062-.321-.086-.483.107-.347.083-.508-.1-.316-.126-.478-.054-.323-.078-.485-.146-.31-.169-.471.16-.355.136-.518-.074-.321-.1-.484-.115-.315-.139-.478-.02-.329-.044-.491-.21-.3-.233-.464-.072-.321-.1-.484.133-.351.109-.514-.134-.312-.158-.475-.054-.324-.078-.487-.019-.322-.042-.481-.038-.319-.061-.478-.115-.309-.138-.468.036-.33.013-.489c-.014-.18-.106-.35-.127-.529s.054-.371.025-.549-.033-.363-.07-.539-.271-.3-.315-.476a3.545,3.545,0,0,0-.155-.437c-.071-.146.036-.39-.052-.525s-.357-.136-.461-.259-.058-.392-.177-.5-.364-.064-.5-.157S43.5.954,43.353.879s-.378.057-.531,0A3.577,3.577,0,0,0,42.38.708a3.274,3.274,0,0,0-.459-.083c-.158-.012-.314-.13-.473-.125s-.3.164-.462.181-.305.069-.462.093-.314.03-.469.055S39.729.8,39.574.82c-.245.036-.248.021-.493.056s-.236.1-.481.137-.236.1-.481.133-.245.038-.489.073-.275-.174-.52-.138-.236.1-.481.136-.25,0-.5.036-.232.128-.477.163-.231.132-.477.168-.277-.183-.523-.148-.24.071-.484.107-.218.218-.462.253-.279-.2-.524-.168-.221.209-.467.244-.245.039-.49.075-.269-.127-.514-.092-.249.018-.5.054-.222.2-.467.236-.247.032-.493.068-.237.094-.481.13-.268-.115-.515-.08-.248.028-.494.064-.241.081-.489.116-.262-.065-.509-.029-.225.154-.467.189-.231.106-.473.141-.257-.066-.5-.031-.222.169-.464.2-.272-.17-.514-.135-.241.043-.484.078-.216.219-.459.254-.239.059-.481.094-.272-.169-.514-.133-.247.005-.489.04-.23.127-.472.162l-.485.071c-.242.035-.256-.062-.5-.027s-.241.044-.484.079-.234.094-.477.13-.237.068-.479.1-.232.1-.473.135-.269-.153-.511-.118-.226.152-.469.188-.222.177-.465.212-.249-.009-.491.026-.272-.165-.515-.13-.208.279-.451.314-.248,0-.491.037-.254-.044-.5-.009-.254-.036-.5,0-.239.071-.482.107-.26-.074-.505-.038-.231.13-.475.165-.231.071-.467.1-.229.087-.466.121-.262-.135-.5-.1-.23.081-.468.116-.244-.013-.481.021-.235.058-.473.092-.233.065-.471.1-.24.025-.478.059-.234.055-.471.089-.24.024-.478.058-.238.042-.476.076-.231.09-.471.124-.24.028-.479.062c-.261.038-.247.137-.508.175s-.27-.012-.532.026l-.526.076c-.264.038-.283-.1-.547-.057s-.251.124-.515.163c-.174.025-.355-.009-.524.016s-.325.162-.493.194-.383-.11-.549-.065-.249.345-.41.409a3.4,3.4,0,0,0-.458.2c-.146.083-.4.016-.537.127-.121.1-.133.315-.239.425a3.513,3.513,0,0,0-.32.325c-.093.123-.281.188-.357.321A3.807,3.807,0,0,0,.7,8.661a3.9,3.9,0,0,0-.163.445c-.022.151.12.321.117.476S.485,9.9.5,10.05s.139.3.2.43.222.193.326.3.128.341.265.4a1.4,1.4,0,0,0,.471,0,1.365,1.365,0,0,0,.472,0,1.363,1.363,0,0,0,.412-.257c.1-.1.089-.32.146-.458s.219-.284.22-.438c-.033-.163-.186-.319-.168-.476a1.623,1.623,0,0,1,.12-.482c.068-.148.235-.232.345-.352a1.463,1.463,0,0,1,.4-.227c.138-.078.217-.312.381-.345.05-.01.1-.053.148-.058.151-.026.327.109.479.086s.3-.051.454-.072.284-.181.437-.2.332.163.484.142.273-.26.425-.283c.248-.036.279.178.527.142s.226-.181.474-.217.257.029.5-.007.26.046.508.01.245-.053.493-.089.244-.066.492-.1.222-.212.469-.247.277.161.525.125.252-.014.5-.05.245-.069.494-.105.247-.055.5-.091.249.006.492-.029.242-.046.485-.081.214-.234.458-.269.273.169.517.133.219-.21.463-.245.271.155.515.12.236-.091.48-.126.219-.2.463-.239.276.185.52.15.227-.157.471-.192.24-.068.483-.1.237-.083.481-.119.264.1.508.062.224-.17.467-.205.254.039.5,0,.231-.115.475-.151.279.205.524.17.233-.109.478-.145.23-.132.474-.168.251,0,.5-.031.24-.067.484-.1.253.025.5-.011.256.051.5.016.218-.222.463-.257.246-.029.492-.065.254.019.5-.017.257.038.5,0,.246-.009.488-.044.234-.1.477-.13.249.014.492-.021.22-.191.462-.226.272.169.514.134.227-.141.47-.176.244-.028.487-.063.254.04.5.005.24-.056.482-.091.244-.027.487-.062.241-.048.484-.083.227-.143.469-.178.26.092.5.057.243-.026.486-.061.231-.12.474-.155.249.011.492-.025.226-.145.469-.181.263.1.506.066.237-.077.48-.112.246-.018.489-.053.225-.154.468-.189.259.071.5.036.235-.1.479-.133.258.054.5.018.245-.031.49-.066.245-.017.487-.052.235-.1.479-.131.253.03.5-.005.222-.192.466-.227.27.14.515.105.221-.271.475-.308.269.066.523.025a4.193,4.193,0,0,1,.46-.106,4.309,4.309,0,0,1,.475-.034c.2.018.308.231.453.3.168.08.392.048.5.181a1.848,1.848,0,0,1,.327.444,3.729,3.729,0,0,1,.06.544c.038.171-.056.365-.031.539s.074.329.1.5.092.327.116.494.1.326.123.492-.039.346-.015.513.174.315.2.482,0,.34.025.506.082.329.107.5-.1.354-.072.521.069.317.092.477.235.293.258.453.017.325.04.485.086.315.109.475-.033.332-.009.492.048.32.071.48l.07.481c.023.16.106.312.129.472s-.106.343-.083.5.126.309.15.47.017.325.04.485.178.3.2.462-.161.35-.138.511.065.318.088.478.234.293.258.453-.053.335-.03.5-.1.342-.08.5.232.294.255.454-.035.332-.011.492.016.325.039.485-.007.329.017.489.027.323.05.484.129.308.152.469.047.32.071.48.071.317.094.477-.059.336-.036.5.213.3.237.456.057.319.08.48.055.319.079.479-.055.335-.032.5.12.31.143.47.074.316.1.477-.036.332-.013.493.018.324.041.485.144.306.167.466,0,.33.028.493-.018.335.008.5.13.311.156.473-.014.335.011.5.171.306.2.469.059.324.081.487-.13.347-.111.51.033.327.048.489.123.314.095.468a1.5,1.5,0,0,1-.19.436c-.076.141-.229.2-.345.31s-.173.273-.32.343a1.567,1.567,0,0,1-.447.191c-.02,0-.033.039-.052.041-.164.029-.332.033-.5.06s-.349-.075-.513-.049-.3.252-.462.276-.33.043-.5.066-.363-.2-.528-.173-.308.2-.473.224-.347-.082-.512-.061-.32.116-.485.138-.316.143-.481.166-.33.04-.495.063-.332.021-.5.044-.318.068-.479.091-.326.017-.487.04-.345-.115-.506-.092-.307.149-.467.172-.329,0-.49.018-.3.222-.456.246-.323.035-.484.058-.343-.1-.5-.081-.317.08-.478.1-.3.175-.463.2-.334-.038-.494-.015-.321.05-.482.073-.311.119-.471.142-.339-.073-.5-.049-.337-.059-.5-.036-.3.215-.458.238-.325.02-.486.044-.329,0-.489.021-.32.054-.481.078-.333-.036-.494-.013-.32.061-.48.084-.326.016-.487.039-.313.107-.473.13-.317.077-.478.1-.3.165-.465.188-.347-.132-.508-.108-.322.04-.483.063-.317.077-.478.1-.3.2-.46.224-.347-.132-.508-.108-.31.128-.471.151-.325.02-.486.043-.322.042-.483.065-.3.171-.464.194-.328,0-.489.027-.311.124-.471.147-.322.04-.483.063-.337-.06-.5-.036-.319.064-.48.088-.32.06-.48.083-.308.137-.469.16-.335-.046-.5-.023l-.482.07c-.16.023-.327.01-.487.034s-.312.112-.473.135-.314.1-.475.123-.34-.086-.5-.063-.33-.016-.491.008-.327.01-.487.034-.292.25-.453.274-.333-.031-.493-.008-.322.043-.483.066-.323.033-.484.056-.335-.048-.5-.025-.324.028-.485.051l-.482.067c-.235.034-.2.262-.437.3s-.267-.191-.5-.157-.221.132-.456.166-.248-.052-.483-.018-.223.126-.459.161-.228.09-.464.124c-.151.022-.3.063-.464.094s-.333-.064-.49-.035-.3.185-.451.2a4.8,4.8,0,0,1-.48.061c-.166,0-.309-.177-.457-.2-.2-.036-.425.067-.562-.02a1.456,1.456,0,0,1-.429-.383c-.1-.145.036-.408-.019-.583s-.215-.306-.246-.484.033-.369.008-.542c-.036-.252-.092-.244-.128-.5s.036-.262,0-.514-.113-.241-.149-.493.008-.258-.028-.508-.165-.233-.2-.486.106-.273.069-.525.017-.261-.02-.515-.1-.244-.138-.5c-.023-.161-.23-.3-.254-.457s.037-.335.014-.5,0-.329-.027-.489-.022-.326-.045-.487-.023-.326-.046-.487-.067-.319-.09-.48-.072-.319-.1-.48-.127-.311-.151-.471.155-.352.132-.513-.294-.287-.318-.448.209-.359.186-.52-.308-.284-.331-.446.147-.35.124-.511-.213-.3-.236-.46-.054-.321-.078-.482.17-.354.147-.515-.236-.295-.26-.456.137-.349.114-.51-.06-.32-.084-.481-.127-.311-.151-.472.08-.341.057-.5-.222-.3-.245-.458.124-.347.1-.508-.08-.318-.1-.479-.034-.324-.057-.485-.185-.3-.208-.463.088-.342.064-.5-.216-.3-.24-.459-.01-.328-.034-.489.114-.346.09-.507-.047-.322-.071-.483-.148-.307-.172-.469.036-.334.012-.5-.205-.3-.229-.461-.106-.314-.129-.475c-.034-.235.2-.268.162-.5s-.146-.218-.18-.453-.02-.237-.054-.471-.186-.212-.219-.446.008-.241-.026-.476-.031-.236-.065-.471-.011-.239-.045-.475.073-.253.032-.488a1.42,1.42,0,0,0-.141-.464c-.093-.118-.3-.149-.428-.222A1.157,1.157,0,0,0,1.9,8.918c-.144-.018-.26.1-.409.141s-.386-.094-.5,0a1.4,1.4,0,0,0-.281.392c-.073.128.037.321.017.471s-.16.292-.122.441" transform="translate(-0.5 -0.5)" fill="#0d4b08"/><path d="M41.459,0a1.142,1.142,0,0,1,.425.1c.028.011.066.026.083.03a3.131,3.131,0,0,1,.45.077l.069.015a1.934,1.934,0,0,1,.378.136l.079.035.049-.008a1.419,1.419,0,0,1,.248-.027.735.735,0,0,1,.344.08.919.919,0,0,1,.38.427l0,.009.011,0a.931.931,0,0,1,.52.211.872.872,0,0,1,.25.526.876.876,0,0,1,.472.332.887.887,0,0,1,.111.579c0,.016,0,.037,0,.054a3.046,3.046,0,0,1,.121.338c.01.033.021.066.032.1.014.017.037.042.053.06a1.014,1.014,0,0,1,.279.477,3.313,3.313,0,0,1,.049.356c.007.073.014.142.024.2a1.4,1.4,0,0,1-.009.433.94.94,0,0,0-.013.136,1.1,1.1,0,0,0,.043.162,1.771,1.771,0,0,1,.085.373,1.445,1.445,0,0,1-.007.355.9.9,0,0,0-.009.118.933.933,0,0,0,.043.13,1.6,1.6,0,0,1,.1.338c.012.085.022.169.032.251s.018.151.029.226c.014.1.02.2.025.283s.008.141.017.2.023.149.036.224.029.173.042.263a.99.99,0,0,0,.043.111,1.4,1.4,0,0,1,.114.364.99.99,0,0,1-.082.5l-.02.054c.009.051.021.1.034.16.017.076.035.155.049.24l.038.056a1.02,1.02,0,0,1,.2.446c.015.1.021.2.026.289s.009.143.017.2a.964.964,0,0,0,.044.139,1.668,1.668,0,0,1,.094.338c.009.063.025.132.042.205s.041.178.056.279a.945.945,0,0,1-.107.536l-.011.025.024.052a1.288,1.288,0,0,1,.127.378c.011.076.024.153.037.23s.028.169.041.253a1.108,1.108,0,0,0,.044.157,1.88,1.88,0,0,1,.082.321,1.044,1.044,0,0,1-.059.473c-.007.021-.015.049-.02.067.009.058.021.119.034.183s.03.156.043.239c.01.017.026.042.039.062a1.058,1.058,0,0,1,.185.432.99.99,0,0,1-.081.5c-.006.017-.015.04-.021.057a2.549,2.549,0,0,1,.012.264c0,.045,0,.088,0,.126l.03.037a.958.958,0,0,1,.242.474c.015.105.02.205.024.294,0,.072.007.14.015.2s.024.144.039.222.032.171.045.262a1.045,1.045,0,0,1-.057.471l-.011.035.021.032a1.052,1.052,0,0,1,.187.434,1.374,1.374,0,0,1-.008.384c0,.035-.01.081-.011.106s.026.051.04.075a1.171,1.171,0,0,1,.153.4,1.064,1.064,0,0,1-.052.466l-.013.046.026.044a1.1,1.1,0,0,1,.171.42,1.081,1.081,0,0,1-.047.457l-.008.029.013.016a.98.98,0,0,1,.226.465,1.292,1.292,0,0,1-.015.4c-.005.034-.012.08-.013.1s.027.062.041.092a1.3,1.3,0,0,1,.13.379,1,1,0,0,1-.079.5l-.012.032.024.045a1.174,1.174,0,0,1,.151.4.977.977,0,0,1-.089.514l0,.012.011.017a1.051,1.051,0,0,1,.187.434.876.876,0,0,0,.044.124,1.5,1.5,0,0,1,.1.352,1.272,1.272,0,0,1-.019.405c-.006.035-.014.082-.014.1.011.078.023.155.035.233s.025.165.037.247a1.611,1.611,0,0,1,0,.355c0,.042-.006.088-.006.12s.025.042.037.062a1.081,1.081,0,0,1,.175.426c.015.1.02.2.024.292,0,.072.007.141.015.2a.926.926,0,0,0,.043.108,1.376,1.376,0,0,1,.116.366,1.035,1.035,0,0,1-.062.477c-.007.022-.016.05-.021.068a1.607,1.607,0,0,1-.006.33.909.909,0,0,0-.007.132c.012.088.022.175.031.258s.017.151.027.223c.006.019.027.06.042.091a1.268,1.268,0,0,1,.133.379,1.619,1.619,0,0,1,0,.412,1.316,1.316,0,0,0-.007.142c0,.045.006.094.01.146a2.254,2.254,0,0,1,.008.413,3.4,3.4,0,0,1-.085.472l-.018.077a1.909,1.909,0,0,1-.142.386c-.018.039-.035.077-.049.112,0,.019,0,.051,0,.073a.993.993,0,0,1-.092.53.983.983,0,0,1-.391.373l-.056.035c-.011.022-.025.056-.035.082a1.233,1.233,0,0,1-.232.393,1.628,1.628,0,0,1-.329.258c-.034.022-.067.043-.094.062L47.885,33a.905.905,0,0,1-.348.435.7.7,0,0,1-.359.094,1.109,1.109,0,0,1-.21-.022.79.79,0,0,1-.433.364.807.807,0,0,1-.233.033,1.406,1.406,0,0,1-.261-.029l-.072-.012a.991.991,0,0,1-.179.015,1.842,1.842,0,0,1-.2-.013c-.038,0-.073-.008-.1-.008h-.006a1.079,1.079,0,0,0-.133.041,1.714,1.714,0,0,1-.331.088c-.055.008-.12.023-.189.039s-.175.041-.275.056a1.2,1.2,0,0,0-.173.036,2.182,2.182,0,0,1-.294.061l-.011,0-.018.012a.985.985,0,0,1-.429.164.817.817,0,0,1-.116.008.78.78,0,0,1-.452-.147.99.99,0,0,1-.394.14,1.5,1.5,0,0,1-.215.017c-.057,0-.1,0-.138-.007l-.052,0a.528.528,0,0,0-.072.006l-.014,0-.021.013a1,1,0,0,1-.42.156,2.1,2.1,0,0,1-.3.024,1.139,1.139,0,0,0-.174.014c-.123.018-.185.025-.247.033s-.113.014-.225.03a1.211,1.211,0,0,1-.173.013,1.091,1.091,0,0,1-.243-.029l-.028-.006a.847.847,0,0,1-.482.238l-.226.035c-.061.01-.122.02-.244.037a.944.944,0,0,1-.134.01.847.847,0,0,1-.366-.084.892.892,0,0,1-.438.186,2.29,2.29,0,0,1-.31.019,1.509,1.509,0,0,0-.179.008,1.074,1.074,0,0,1-.155.011,2,2,0,0,1-.215-.014c-.041,0-.081-.008-.108-.009l-.066.037a1.116,1.116,0,0,1-.412.163c-.1.015-.2.02-.287.025s-.141.008-.2.016a.9.9,0,0,1-.128.009,1.45,1.45,0,0,1-.29-.035c-.03-.006-.069-.014-.089-.016a1.183,1.183,0,0,0-.12.042,1.573,1.573,0,0,1-.342.1,1.852,1.852,0,0,1-.267.016h-.1a.951.951,0,0,0-.125.006,2.881,2.881,0,0,1-.293.023c-.052,0-.1,0-.147.009l-.043.032a.984.984,0,0,1-.459.22c-.066.01-.137.024-.211.039s-.174.035-.268.049a1.007,1.007,0,0,1-.145.01,1.806,1.806,0,0,1-.238-.019,1.066,1.066,0,0,0-.109-.011,1.089,1.089,0,0,1-.147.01,1.784,1.784,0,0,1-.24-.02,1.051,1.051,0,0,0-.109-.011c-.07.01-.142.024-.218.038s-.171.033-.264.047a.929.929,0,0,0-.133.043,1.615,1.615,0,0,1-.339.1,1.011,1.011,0,0,1-.146.01,1.791,1.791,0,0,1-.237-.019,1.077,1.077,0,0,0-.109-.011h-.005a2.617,2.617,0,0,1-.3.021,1.828,1.828,0,0,0-.188.012c-.076.011-.152.024-.227.037s-.15.026-.228.037c-.017.009-.045.026-.066.039a1.081,1.081,0,0,1-.422.174.9.9,0,0,0-.126.043,1.545,1.545,0,0,1-.343.1.7.7,0,0,1-.1.007.99.99,0,0,1-.454-.132l-.03-.015-.1.028a2.2,2.2,0,0,1-.306.072c-.083.012-.167.022-.25.033s-.155.019-.233.031a1.322,1.322,0,0,0-.165.043,2.094,2.094,0,0,1-.31.075,1.131,1.131,0,0,1-.163.011c-.073,0-.14-.006-.2-.011-.042,0-.081-.007-.111-.007h-.021c-.084.012-.169.022-.254.032s-.153.018-.229.029c-.06.009-.127.024-.2.04s-.147.034-.23.048l-.046.035a.982.982,0,0,1-.46.222.7.7,0,0,1-.1.007,1.016,1.016,0,0,1-.437-.117l-.018-.008-.044.021a1.28,1.28,0,0,1-.381.13.981.981,0,0,0-.141.043,1.707,1.707,0,0,1-.331.09.746.746,0,0,1-.106.008,1.1,1.1,0,0,1-.393-.086l-.055-.02-.184.03c-.083.014-.167.028-.25.04a.911.911,0,0,0-.116.043,1.445,1.445,0,0,1-.355.108.959.959,0,0,0-.11.042,1.4,1.4,0,0,1-.359.112c-.089.013-.175.022-.259.031s-.153.017-.225.027-.127.024-.2.04-.179.041-.28.056a1.07,1.07,0,0,0-.15.043,1.838,1.838,0,0,1-.323.084.767.767,0,0,1-.109.008,1.149,1.149,0,0,1-.373-.074L20.1,37.6c-.1.011-.183.014-.262.016a1.749,1.749,0,0,0-.186.011.967.967,0,0,0-.109.042,1.393,1.393,0,0,1-.36.113c-.073.011-.147.024-.225.037s-.167.029-.255.042a.988.988,0,0,1-.141.01,1.7,1.7,0,0,1-.251-.023.985.985,0,0,0-.107-.012,3.5,3.5,0,0,1-.414.018l-.022.021a.9.9,0,0,1-.5.283.757.757,0,0,1-.108.008,1.127,1.127,0,0,1-.381-.079l-.03-.011-.037.022a1.116,1.116,0,0,1-.412.163,1.144,1.144,0,0,1-.165.011c-.072,0-.138-.006-.2-.011-.042,0-.081-.007-.11-.007h-.022a1.629,1.629,0,0,0-.177.042,2.422,2.422,0,0,1-.3.067,1.04,1.04,0,0,0-.148.043,1.8,1.8,0,0,1-.326.086.773.773,0,0,1-.11.008,1.165,1.165,0,0,1-.368-.071l-.064-.02a1.8,1.8,0,0,1-.207.01h-.143a.78.78,0,0,0-.1,0,1.4,1.4,0,0,0-.17.043,2.175,2.175,0,0,1-.306.072c-.014,0-.062.026-.1.042a1.312,1.312,0,0,1-.371.122c-.077.011-.153.024-.23.037s-.167.028-.251.041a1.433,1.433,0,0,0-.171.043,2.215,2.215,0,0,1-.3.072.958.958,0,0,1-.138.01,1.629,1.629,0,0,1-.259-.025c-.036-.006-.077-.012-.1-.013s-.062.026-.092.041a1.3,1.3,0,0,1-.375.126.733.733,0,0,1-.1.007,1.071,1.071,0,0,1-.408-.1l-.05-.019c-.087.013-.176.029-.269.045l-.062.011-.033.027a.948.948,0,0,1-.442.226.926.926,0,0,1-.158.013,1.634,1.634,0,0,1-.231-.02c-.034,0-.073-.01-.092-.01-.045.007-.1.02-.152.033a2.226,2.226,0,0,1-.31.06.9.9,0,0,0-.117.031,1.392,1.392,0,0,1-.371.073H8.175a1.069,1.069,0,0,1-.426-.1l-.063-.025c-.021,0-.056.008-.083.012a1.529,1.529,0,0,1-.261.027.913.913,0,0,1-.168-.015H7.167a1.058,1.058,0,0,0-.136-.008,1.4,1.4,0,0,1-.437-.063,1.029,1.029,0,0,1-.425-.314l-.037-.041-.056,0a1.008,1.008,0,0,1-.513-.149.976.976,0,0,1-.331-.443c-.009-.019-.02-.045-.029-.063-.025-.019-.057-.04-.09-.063a1.523,1.523,0,0,1-.325-.271,2.017,2.017,0,0,1-.228-.341c-.027-.047-.052-.092-.077-.129A3.277,3.277,0,0,1,4.259,37l-.035-.074a1.314,1.314,0,0,1-.109-.415.871.871,0,0,0-.021-.121l-.009-.03c-.012-.048-.033-.1-.056-.162a2.377,2.377,0,0,1-.094-.288l-.042-.055a1.006,1.006,0,0,1-.232-.458,1.211,1.211,0,0,1,.022-.438c.006-.032.015-.079.016-.1a1.219,1.219,0,0,0-.037-.141,1.75,1.75,0,0,1-.076-.346.94.94,0,0,1,.089-.533l.005-.011a1.505,1.505,0,0,0-.04-.195,2.5,2.5,0,0,1-.065-.318.94.94,0,0,0-.042-.182,1.873,1.873,0,0,1-.074-.315l0,0A.9.9,0,0,1,3.2,32.3a.949.949,0,0,1,.1-.52l.017-.039c-.008-.033-.02-.071-.032-.111a2.08,2.08,0,0,1-.074-.307c-.014-.1-.021-.19-.027-.279,0-.062-.009-.121-.015-.175-.009-.016-.025-.041-.037-.06a1.058,1.058,0,0,1-.179-.425,1.5,1.5,0,0,1,0-.362.9.9,0,0,0,.006-.128,1.189,1.189,0,0,1,.026-.415c0-.023.01-.052.014-.073s-.022-.041-.033-.059a1.129,1.129,0,0,1-.158-.406,1.113,1.113,0,0,1,.039-.44c.006-.024.014-.056.017-.075s-.023-.076-.039-.12a1.69,1.69,0,0,1-.09-.332,1.215,1.215,0,0,0-.044-.159,1.969,1.969,0,0,1-.08-.319.888.888,0,0,0-.044-.133,1.584,1.584,0,0,1-.1-.345c-.012-.084-.023-.168-.034-.253s-.02-.157-.031-.235-.023-.169-.034-.253-.02-.157-.031-.236a1.278,1.278,0,0,1,.019-.407c.006-.035.014-.082.014-.1-.009-.06-.024-.125-.04-.195-.02-.085-.042-.182-.057-.285a.992.992,0,0,0-.043-.113,1.427,1.427,0,0,1-.113-.361,1.684,1.684,0,0,1-.006-.35.956.956,0,0,0,0-.148,1.888,1.888,0,0,1-.013-.334,1.237,1.237,0,0,0,0-.158,1.015,1.015,0,0,0-.043-.1,1.3,1.3,0,0,1-.127-.378,1.063,1.063,0,0,1,.052-.465c.007-.023.015-.054.02-.073-.011-.077-.02-.154-.029-.23s-.017-.146-.027-.218c-.008-.018-.027-.055-.042-.082a1.19,1.19,0,0,1-.149-.4,2.377,2.377,0,0,1-.02-.31,1.593,1.593,0,0,0-.01-.184,1.162,1.162,0,0,1,.034-.434c.007-.029.015-.067.018-.087-.01-.066-.023-.135-.036-.208s-.025-.135-.036-.206l-.034-.043a.964.964,0,0,1-.238-.472,1,1,0,0,1,.078-.5c.006-.016.014-.038.02-.055-.009-.045-.022-.1-.035-.147a2.811,2.811,0,0,1-.063-.292,2.5,2.5,0,0,1-.021-.307c0-.048,0-.093-.005-.134l-.031-.039a.965.965,0,0,1-.239-.474c-.008-.057-.024-.122-.042-.192a2.953,2.953,0,0,1-.061-.292,1.777,1.777,0,0,1-.009-.342,1.026,1.026,0,0,0,0-.155c-.015-.1-.021-.2-.026-.287s-.009-.143-.018-.2a1.7,1.7,0,0,1-.007-.347c0-.047.005-.094,0-.128-.01-.017-.026-.043-.038-.063a1.082,1.082,0,0,1-.177-.425.875.875,0,0,1,.1-.51.864.864,0,0,1-.248-.466,1.11,1.11,0,0,1,.042-.446c.007-.027.016-.062.019-.081a1.244,1.244,0,0,1,.03-.4c.006-.031.014-.073.016-.093a1.291,1.291,0,0,0-.042-.145,1.844,1.844,0,0,1-.084-.326c-.01-.071-.023-.144-.037-.222s-.03-.173-.043-.264a.965.965,0,0,0-.044-.114,1.432,1.432,0,0,1-.112-.36c-.015-.1-.02-.2-.025-.287s-.008-.144-.017-.2A1.855,1.855,0,0,1,.3,11.059a1.324,1.324,0,0,0,0-.149c-.008-.018-.027-.053-.041-.078a1.225,1.225,0,0,1-.145-.363A.927.927,0,0,1,0,10.082a.841.841,0,0,1,.1-.442V9.458a.858.858,0,0,1-.054-.424A1.109,1.109,0,0,1,.1,8.815V8.509l.075.125a.96.96,0,0,0,.044-.107c.012-.041.022-.084.032-.126a2.485,2.485,0,0,1,.116-.382C.387,7.979.4,7.938.418,7.9a2.476,2.476,0,0,1,.164-.369,1.048,1.048,0,0,1,.334-.335c.022-.016.051-.036.065-.048a2.12,2.12,0,0,1,.256-.27L1.312,6.8c.007-.015.015-.038.022-.056a.962.962,0,0,1,.284-.432.966.966,0,0,1,.568-.185l.069-.006a3.2,3.2,0,0,1,.4-.176l.027-.011.033-.046a.892.892,0,0,1,.494-.4.775.775,0,0,1,.2-.026,1.266,1.266,0,0,1,.342.057l.064.017c.024-.011.056-.027.079-.039a1.307,1.307,0,0,1,.412-.149,1.537,1.537,0,0,1,.232-.015l.116,0,.091,0a.628.628,0,0,0,.087,0A.258.258,0,0,0,4.938,5.3a1.23,1.23,0,0,1,.409-.128,1.115,1.115,0,0,1,.162-.012,1.014,1.014,0,0,1,.342.061l.028.009.015,0,.254-.037.271-.039a1.785,1.785,0,0,1,.26-.02l.1,0,.056,0a.788.788,0,0,0,.117-.01.164.164,0,0,0,.083-.03,1.131,1.131,0,0,1,.425-.145c.125-.018.188-.025.25-.032s.115-.013.23-.03a.443.443,0,0,0,.126-.033,1.412,1.412,0,0,1,.345-.091c.112-.016.166-.026.223-.036s.126-.022.253-.04.2-.025.259-.031.109-.011.219-.027a1.9,1.9,0,0,0,.194-.037c.064-.015.137-.032.276-.052s.2-.025.26-.032.11-.011.219-.027a1.116,1.116,0,0,0,.171-.036,2.086,2.086,0,0,1,.3-.063,1.621,1.621,0,0,0,.189-.037,2.589,2.589,0,0,1,.285-.055,1.606,1.606,0,0,1,.235-.018c.038,0,.07,0,.1,0l.05,0a.628.628,0,0,0,.092-.008.578.578,0,0,0,.139-.035A1.551,1.551,0,0,1,12.2,4.15a.937.937,0,0,1,.133-.01.857.857,0,0,1,.407.1.452.452,0,0,0,.089-.027,1.444,1.444,0,0,1,.338-.088.873.873,0,0,0,.161-.036,1.847,1.847,0,0,1,.306-.069A.125.125,0,0,0,13.7,4a1.082,1.082,0,0,1,.412-.142,1.132,1.132,0,0,1,.164-.012,1.028,1.028,0,0,1,.3.045L14.6,3.9l.019,0a.962.962,0,0,0,.169-.038,1.932,1.932,0,0,1,.313-.069,1.379,1.379,0,0,1,.2-.015,1.281,1.281,0,0,1,.193.016.366.366,0,0,0,.052.006.4.4,0,0,0,.055,0,1.3,1.3,0,0,1,.188-.014A1.2,1.2,0,0,1,16,3.8a.271.271,0,0,0,.047.006.322.322,0,0,0,.044,0,2.016,2.016,0,0,1,.315-.024c.033,0,.059,0,.095,0a.8.8,0,0,1,.533-.324.887.887,0,0,1,.127-.009.832.832,0,0,1,.445.132,1.784,1.784,0,0,1,.279-.01h.047a.687.687,0,0,0,.1-.008l0,0a.916.916,0,0,1,.472-.209h.008l.018-.012a.979.979,0,0,1,.444-.175.905.905,0,0,1,.129-.009.841.841,0,0,1,.428.119.361.361,0,0,0,.064-.023,1.3,1.3,0,0,1,.363-.1,1.057,1.057,0,0,0,.174-.037,2.04,2.04,0,0,1,.3-.066A.416.416,0,0,0,20.563,3a1.388,1.388,0,0,1,.353-.1c.113-.016.168-.026.225-.037s.129-.024.26-.042a1.191,1.191,0,0,1,.171-.013,1.068,1.068,0,0,1,.267.035l.032.007.029,0,.25-.036.236-.034a.132.132,0,0,0,.067-.024,1.1,1.1,0,0,1,.405-.138,2.207,2.207,0,0,1,.306-.025,1.239,1.239,0,0,0,.183-.015.883.883,0,0,1,.126-.009.825.825,0,0,1,.447.134c.058-.01.093-.018.134-.028.06-.015.127-.031.243-.049a.847.847,0,0,1,.5-.261c.113-.016.168-.026.226-.036s.128-.023.257-.041a.877.877,0,0,1,.125-.009.808.808,0,0,1,.419.118.921.921,0,0,1,.434-.177,1.159,1.159,0,0,1,.167-.013,1.039,1.039,0,0,1,.278.039l.031.007.022,0a.268.268,0,0,0,.1-.03,1.243,1.243,0,0,1,.373-.111h.007l.016-.011A.969.969,0,0,1,27.7,1.92a1.185,1.185,0,0,1,.172-.013,1.065,1.065,0,0,1,.276.037l.033.008.028,0a.709.709,0,0,0,.157-.037,1.684,1.684,0,0,1,.333-.079c.13-.019.2-.027.262-.034s.116-.013.231-.03a1.012,1.012,0,0,1,.144-.011.912.912,0,0,1,.383.086l0,0a.43.43,0,0,0,.111-.032,1.406,1.406,0,0,1,.354-.1l.254-.035.211-.029a.876.876,0,0,1,.5-.24c.14-.021.216-.026.283-.031s.107-.008.212-.023a.97.97,0,0,1,.138-.01.9.9,0,0,1,.4.1l.211-.032.219-.034a.863.863,0,0,1,.5-.249.837.837,0,0,1,.119-.009.787.787,0,0,1,.423.125.84.84,0,0,1,.443-.2.965.965,0,0,0,.171-.038,1.923,1.923,0,0,1,.314-.069.866.866,0,0,1,.123-.009.813.813,0,0,1,.452.139l.009-.005a1.075,1.075,0,0,1,.417-.145A.134.134,0,0,0,35.652.9a1.093,1.093,0,0,1,.408-.139,1.993,1.993,0,0,1,.319-.023,1.024,1.024,0,0,0,.177-.013.352.352,0,0,0,.116-.033,1.331,1.331,0,0,1,.365-.1.88.88,0,0,1,.126-.009.827.827,0,0,1,.454.139L37.8.689l.25-.037A.4.4,0,0,0,38.17.617a1.363,1.363,0,0,1,.359-.1.339.339,0,0,0,.114-.033,1.313,1.313,0,0,1,.367-.1c.137-.02.211-.026.276-.032S39.4.341,39.5.325a1.037,1.037,0,0,1,.152-.011,1.937,1.937,0,0,1,.206.013c.041,0,.079.008.1.008h.01c.1-.016.189-.025.278-.034.07-.007.135-.013.2-.022s.1-.021.165-.035A2.685,2.685,0,0,1,40.9.187l.061-.033A1.013,1.013,0,0,1,41.43,0Zm1.456,1.395a.766.766,0,0,1-.264-.045c-.073-.027-.139-.056-.2-.082a1.1,1.1,0,0,0-.184-.072L42.2,1.18a2.267,2.267,0,0,0-.315-.056,1.234,1.234,0,0,1-.362-.095l-.043-.016-.027.015a1.062,1.062,0,0,1-.411.151,1.712,1.712,0,0,0-.2.039c-.073.017-.155.037-.245.051s-.171.021-.25.029-.149.015-.214.025a1.039,1.039,0,0,1-.172.013,1.948,1.948,0,0,1-.208-.014c-.041,0-.079-.008-.1-.008h-.008c-.137.02-.211.026-.276.032s-.109.009-.217.025a.339.339,0,0,0-.114.033,1.313,1.313,0,0,1-.367.1.4.4,0,0,0-.122.034,1.363,1.363,0,0,1-.359.1l-.24.036-.249.037a.882.882,0,0,1-.126.009.825.825,0,0,1-.451-.137.435.435,0,0,0-.06.023,1.33,1.33,0,0,1-.364.1,1.993,1.993,0,0,1-.319.023,1.024,1.024,0,0,0-.177.013.137.137,0,0,0-.069.025,1.092,1.092,0,0,1-.408.139.192.192,0,0,0-.032.006l-.03.017a1.076,1.076,0,0,1-.415.145.868.868,0,0,1-.124.009.82.82,0,0,1-.463-.146.944.944,0,0,0-.107.027,1.877,1.877,0,0,1-.271.063.855.855,0,0,1-.5.26.839.839,0,0,1-.12.009.789.789,0,0,1-.429-.129.847.847,0,0,1-.442.2l-.237.036-.253.039a.974.974,0,0,1-.139.01.9.9,0,0,1-.4-.1c-.123.017-.192.022-.254.027s-.1.007-.187.02a.876.876,0,0,1-.5.24l-.253.035-.24.033a.436.436,0,0,0-.127.035,1.406,1.406,0,0,1-.354.1,1.009,1.009,0,0,1-.144.011.911.911,0,0,1-.382-.086l-.005,0c-.12.018-.184.025-.246.032s-.116.013-.231.03a.71.71,0,0,0-.157.037,1.684,1.684,0,0,1-.333.079,1.18,1.18,0,0,1-.171.013,1.064,1.064,0,0,1-.275-.037l-.033-.008-.029,0h-.006l-.016.011a.97.97,0,0,1-.445.177.268.268,0,0,0-.1.03,1.243,1.243,0,0,1-.373.111,1.158,1.158,0,0,1-.167.013,1.039,1.039,0,0,1-.278-.039l-.031-.007-.015,0-.008.006a.93.93,0,0,1-.464.2.876.876,0,0,1-.125.009.824.824,0,0,1-.449-.136c-.075.011-.12.019-.166.027s-.112.02-.212.035a.847.847,0,0,1-.5.261,1.677,1.677,0,0,0-.193.038A2.629,2.629,0,0,1,24,3.7a.883.883,0,0,1-.126.009.826.826,0,0,1-.448-.135,2.144,2.144,0,0,1-.246.017A1.232,1.232,0,0,0,23,3.61a.133.133,0,0,0-.066.024,1.1,1.1,0,0,1-.407.138l-.234.034-.251.037a1.186,1.186,0,0,1-.171.013,1.067,1.067,0,0,1-.266-.035l-.032-.007-.029,0c-.112.016-.166.026-.223.036s-.13.024-.261.043a.415.415,0,0,0-.123.034,1.388,1.388,0,0,1-.353.1,1.071,1.071,0,0,0-.174.037,2.022,2.022,0,0,1-.307.066.32.32,0,0,0-.109.032,1.3,1.3,0,0,1-.363.1.91.91,0,0,1-.13.01.833.833,0,0,1-.413-.111.974.974,0,0,1-.425.169l-.005,0a.916.916,0,0,1-.472.209,1.729,1.729,0,0,1-.252.02c-.046,0-.084,0-.13,0a.733.733,0,0,0-.109.009.887.887,0,0,1-.127.009.8.8,0,0,1-.359-.084.778.778,0,0,1-.48.26,2.034,2.034,0,0,1-.313.023,1.049,1.049,0,0,0-.177.013,1.3,1.3,0,0,1-.188.014,1.2,1.2,0,0,1-.218-.021.271.271,0,0,0-.047-.006.322.322,0,0,0-.044,0,1.366,1.366,0,0,1-.2.015,1.276,1.276,0,0,1-.193-.016.366.366,0,0,0-.052-.006.4.4,0,0,0-.055,0,.963.963,0,0,0-.169.038,1.931,1.931,0,0,1-.313.069A1.141,1.141,0,0,1,14.6,4.9a1.03,1.03,0,0,1-.3-.045l-.027-.007-.018,0a.123.123,0,0,0-.063.023,1.083,1.083,0,0,1-.413.142.883.883,0,0,0-.158.036,1.835,1.835,0,0,1-.308.069.467.467,0,0,0-.127.033,1.438,1.438,0,0,1-.339.088.926.926,0,0,1-.132.01.855.855,0,0,1-.406-.1.559.559,0,0,0-.1.028,1.551,1.551,0,0,1-.329.081,1.621,1.621,0,0,1-.235.018c-.038,0-.071,0-.1,0l-.05,0a.622.622,0,0,0-.092.008,1.618,1.618,0,0,0-.189.037,2.592,2.592,0,0,1-.285.055,1.116,1.116,0,0,0-.171.036,2.087,2.087,0,0,1-.3.063c-.13.019-.2.025-.26.032s-.11.011-.219.027a1.914,1.914,0,0,0-.191.036c-.065.015-.138.032-.279.053s-.2.026-.263.032-.109.011-.216.026-.165.026-.223.036-.126.022-.253.04a.442.442,0,0,0-.125.033,1.413,1.413,0,0,1-.345.091c-.128.019-.193.026-.256.034s-.113.013-.224.029a.163.163,0,0,0-.082.03,1.128,1.128,0,0,1-.426.145,1.789,1.789,0,0,1-.26.02l-.1,0-.056,0a.783.783,0,0,0-.117.01l-.27.039-.256.037a1.14,1.14,0,0,1-.161.012,1.016,1.016,0,0,1-.343-.061L5.5,6.156l-.014,0a.258.258,0,0,0-.107.034,1.234,1.234,0,0,1-.408.128,1.585,1.585,0,0,1-.231.015l-.117,0-.09,0a.626.626,0,0,0-.081,0,1.028,1.028,0,0,0-.106.05,1.337,1.337,0,0,1-.372.141.8.8,0,0,1-.146.013,1.2,1.2,0,0,1-.318-.05.912.912,0,0,1-.4.354l-.1.038c-.07.027-.133.052-.193.079l.272,1.287A1.457,1.457,0,0,1,3.366,8.1l.072-.032.035-.044a.907.907,0,0,1,.469-.358A.7.7,0,0,1,4.169,7.6a.747.747,0,0,1,.111-.008,1.1,1.1,0,0,1,.36.072l.048.016.137-.022c.079-.013.161-.027.244-.039l.053-.033a1.034,1.034,0,0,1,.42-.175A.685.685,0,0,1,5.634,7.4a.876.876,0,0,1,.376.094.812.812,0,0,1,.435-.228.879.879,0,0,1,.127-.009A.811.811,0,0,1,7,7.379a.911.911,0,0,1,.446-.188,1.46,1.46,0,0,1,.212-.016,1.416,1.416,0,0,1,.168.011.367.367,0,0,0,.124,0A1.309,1.309,0,0,1,8.14,7.17a1.2,1.2,0,0,1,.224.022.277.277,0,0,0,.049.007.333.333,0,0,0,.046,0c.108-.015.156-.026.213-.038s.139-.03.279-.051a1.317,1.317,0,0,0,.188-.039,2.244,2.244,0,0,1,.27-.058.862.862,0,0,1,.5-.252.909.909,0,0,1,.13-.009.852.852,0,0,1,.444.128c.116-.015.184-.019.245-.023a1.976,1.976,0,0,0,.207-.021,1.166,1.166,0,0,0,.183-.039,2.133,2.133,0,0,1,.312-.066c.107-.015.155-.026.212-.039s.141-.032.284-.052a1.806,1.806,0,0,1,.266-.021l.1,0a.8.8,0,0,0,.123-.01c.109-.016.162-.026.218-.037s.113-.022.212-.036a.832.832,0,0,1,.513-.277.889.889,0,0,1,.126-.009.808.808,0,0,1,.4.106.853.853,0,0,1,.455-.208.9.9,0,0,1,.129-.009.843.843,0,0,1,.432.122.479.479,0,0,0,.084-.027,1.426,1.426,0,0,1,.315-.086.893.893,0,0,1,.619-.253.8.8,0,0,1,.44.132.957.957,0,0,1,.428-.166,1.139,1.139,0,0,0,.177-.038,2.111,2.111,0,0,1,.306-.065.609.609,0,0,0,.147-.036,1.588,1.588,0,0,1,.334-.083,1.054,1.054,0,0,1,.151-.011.947.947,0,0,1,.348.068l.008,0,0,0a.937.937,0,0,1,.464-.2,1.354,1.354,0,0,1,.195-.015,1.243,1.243,0,0,1,.2.017.329.329,0,0,0,.05.006.384.384,0,0,0,.051,0,.2.2,0,0,0,.086-.028,1.169,1.169,0,0,1,.39-.123.832.832,0,0,1,.119-.009A.807.807,0,0,1,20.3,5.5l.027-.012a1.229,1.229,0,0,1,.379-.114.187.187,0,0,0,.031-.006l.029-.016A1.072,1.072,0,0,1,21.18,5.2a1.861,1.861,0,0,1,.273-.021h.094a.824.824,0,0,0,.13-.011,1.154,1.154,0,0,0,.179-.038,2.115,2.115,0,0,1,.306-.065,1.382,1.382,0,0,1,.368-.008c.027,0,.041,0,.056,0a.53.53,0,0,0,.074-.007,1.258,1.258,0,0,1,.181-.014,1.146,1.146,0,0,1,.238.026l.04.007a.848.848,0,0,1,.505-.261c.128-.019.193-.026.258-.034s.117-.014.233-.031a1.59,1.59,0,0,1,.228-.018c.053,0,.1,0,.13.006l.056,0a.617.617,0,0,0,.086-.008,1.368,1.368,0,0,1,.2-.015,1.264,1.264,0,0,1,.2.017.344.344,0,0,0,.052.006.4.4,0,0,0,.054,0,2.5,2.5,0,0,1,.3-.027,1.522,1.522,0,0,0,.191-.017.4.4,0,0,0,.122-.033,1.364,1.364,0,0,1,.355-.1,1.653,1.653,0,0,1,.238-.019c.039,0,.073,0,.107,0l.052,0a.562.562,0,0,0,.071-.005.914.914,0,0,1,.612-.239.815.815,0,0,1,.432.125,1.024,1.024,0,0,1,.426-.157c.129-.019.194-.026.258-.033s.115-.013.229-.03A1.324,1.324,0,0,1,28.7,4.2a1.238,1.238,0,0,1,.206.018.307.307,0,0,0,.049.006.364.364,0,0,0,.049,0,1.915,1.915,0,0,0,.2-.038,2.883,2.883,0,0,1,.284-.054c.131-.019.2-.027.262-.034s.113-.013.225-.029.157-.026.215-.037.134-.026.269-.046l.017,0,.022-.014a1.012,1.012,0,0,1,.429-.161,1.065,1.065,0,0,1,.152-.011.952.952,0,0,1,.337.063l.013,0c.13-.019.2-.026.261-.033s.113-.012.224-.028a.168.168,0,0,0,.078-.026,1.133,1.133,0,0,1,.4-.128,1.694,1.694,0,0,1,.246-.019l.092,0h.049a.689.689,0,0,0,.1-.009l.015,0,.021-.013a1.006,1.006,0,0,1,.433-.165,1.042,1.042,0,0,1,.148-.011.934.934,0,0,1,.357.072l.01,0a.754.754,0,0,0,.15-.036,1.752,1.752,0,0,1,.322-.075c.14-.02.214-.026.28-.03s.105-.008.21-.023h.006l.016-.011a.97.97,0,0,1,.445-.177,1.147,1.147,0,0,1,.165-.012,1.039,1.039,0,0,1,.29.043l.03.008.018,0a.376.376,0,0,0,.12-.033,1.342,1.342,0,0,1,.36-.1,1.238,1.238,0,0,1,.179-.014,1.126,1.126,0,0,1,.246.028.219.219,0,0,0,.041.007.263.263,0,0,0,.036,0c.127-.018.191-.026.254-.034s.118-.015.235-.032c.14-.02.215-.025.281-.03s.1-.007.207-.022a.4.4,0,0,0,.123-.034,1.373,1.373,0,0,1,.355-.1,1.443,1.443,0,0,1,.207-.016,1.375,1.375,0,0,1,.173.012.459.459,0,0,0,.054,0l.042,0h0a.892.892,0,0,1,.488-.23.948.948,0,0,1,.134-.01.84.84,0,0,1,.355.078.806.806,0,0,1,.5-.271,1.207,1.207,0,0,1,.175-.013,1.1,1.1,0,0,1,.272.035l.035.008.021,0c.038-.009.08-.02.123-.032a2.289,2.289,0,0,1,.377-.079l.066-.007a4.261,4.261,0,0,1,.44-.03l.066,0a.973.973,0,0,1,.591.309l.043.04c.022.005.056.012.081.017a.921.921,0,0,1,.579.292L43.117,3a1.772,1.772,0,0,1,.34.5,1.3,1.3,0,0,1,.077.483,1.025,1.025,0,0,0,.008.141,1.189,1.189,0,0,1-.009.475c-.006.034-.015.085-.015.106.009.063.025.132.041.2.02.09.041.183.056.286a1.541,1.541,0,0,0,.045.184,2.354,2.354,0,0,1,.072.31,1.357,1.357,0,0,0,.045.173,2.129,2.129,0,0,1,.078.319,1.454,1.454,0,0,1-.005.384c0,.037-.01.092-.01.119s.028.054.043.081a1.186,1.186,0,0,1,.156.411,2.216,2.216,0,0,1,.017.324,1.437,1.437,0,0,0,.007.182c.008.059.025.127.044.2a2.9,2.9,0,0,1,.063.3,1.1,1.1,0,0,1-.049.463c-.007.025-.016.06-.02.08.009.057.023.119.037.183s.031.14.043.215l.033.042a.961.961,0,0,1,.233.467c.015.1.02.2.024.289,0,.072.007.139.015.2a1.65,1.65,0,0,0,.042.177,2.443,2.443,0,0,1,.067.3,1.467,1.467,0,0,1,0,.366.916.916,0,0,0-.007.125q.017.121.036.241t.036.239l.07.481a1.04,1.04,0,0,0,.043.147,1.8,1.8,0,0,1,.086.324,1.036,1.036,0,0,1-.059.471c-.006.018-.012.04-.017.057s.024.064.036.091a1.458,1.458,0,0,1,.107.352c.015.1.02.2.024.288,0,.063.006.124.013.176.009.017.026.047.039.069a1.109,1.109,0,0,1,.164.413.929.929,0,0,1-.11.536l-.018.04c.008.046.018.095.028.145.014.068.028.138.04.212l.033.042a.963.963,0,0,1,.233.467,1.291,1.291,0,0,1-.016.4,1.01,1.01,0,0,0-.013.1,1.046,1.046,0,0,1-.057.462l0,.016.006.008a.967.967,0,0,1,.23.465,1.447,1.447,0,0,1,0,.37.92.92,0,0,0-.008.123c.015.1.02.2.024.29,0,.071.007.138.015.195a1.928,1.928,0,0,1,.013.326,1.167,1.167,0,0,0,0,.162c.014.1.021.185.029.272s.012.147.022.212a.944.944,0,0,0,.042.112,1.424,1.424,0,0,1,.11.356l.034.23q.019.125.037.251c.009.061.024.129.04.2s.039.177.054.275a1.246,1.246,0,0,1-.02.407c0,.02-.008.043-.011.063l.024.034a1.008,1.008,0,0,1,.207.449c.01.072.024.146.038.223s.03.168.043.256c.011.073.023.147.037.226s.029.166.041.253a1.277,1.277,0,0,1-.017.4c-.006.034-.013.08-.014.1a1.053,1.053,0,0,0,.042.121,1.545,1.545,0,0,1,.1.344c.008.058.024.125.041.195s.042.18.057.282a1.429,1.429,0,0,1,0,.371.917.917,0,0,0-.009.122c.015.1.02.2.025.286,0,.07.008.137.016.194a1.014,1.014,0,0,0,.042.1,1.287,1.287,0,0,1,.126.374,2.263,2.263,0,0,1,.019.308,1.432,1.432,0,0,0,.009.18,1.622,1.622,0,0,1,.009.351.934.934,0,0,0,0,.143.907.907,0,0,0,.046.124,1.511,1.511,0,0,1,.11.35,1.7,1.7,0,0,1,.012.351,1.266,1.266,0,0,0,0,.136c.008.019.027.053.042.079a1.17,1.17,0,0,1,.156.405c.01.068.022.137.035.205.017.093.034.189.047.289a1,1,0,0,1-.084.5c-.007.018-.016.041-.022.059.012.109.022.217.032.322l.011.122c0,.019.017.06.027.09a1.027,1.027,0,0,1,.063.53,1.718,1.718,0,0,1-.213.531l-.029.053A1.093,1.093,0,0,1,46.6,31a.881.881,0,0,0-.08.06.809.809,0,0,0-.054.071,1.031,1.031,0,0,1-.395.361c-.031.015-.062.032-.093.049a1.743,1.743,0,0,1-.352.155.515.515,0,0,1-.189.071c-.1.018-.2.027-.291.036-.073.007-.143.014-.2.024a.859.859,0,0,1-.141.011,1.39,1.39,0,0,1-.3-.041l-.039-.008-.018.015a.959.959,0,0,1-.482.251c-.091.014-.183.025-.276.037l-.22.029a.68.68,0,0,1-.1.007.963.963,0,0,1-.467-.143,1.045,1.045,0,0,1-.441.188.858.858,0,0,1-.116.008,1.351,1.351,0,0,1-.324-.047c-.028-.007-.065-.016-.086-.019a1.31,1.31,0,0,0-.125.041,1.642,1.642,0,0,1-.343.094,1,1,0,0,0-.1.043,1.321,1.321,0,0,1-.38.123l-.232.029c-.087.011-.174.021-.26.033s-.192.02-.281.025-.15.01-.214.019-.132.024-.205.04-.176.038-.274.052-.2.02-.289.024c-.072,0-.14.007-.2.015a.766.766,0,0,1-.109.008,1.151,1.151,0,0,1-.373-.074l-.046-.015-.064.03a1.272,1.272,0,0,1-.381.131,1.679,1.679,0,0,1-.241.015H37.6l-.042.031A.989.989,0,0,1,37.1,33c-.089.013-.176.022-.26.031s-.153.017-.225.027a.789.789,0,0,1-.112.008A1.2,1.2,0,0,1,36.152,33l-.065-.019c-.047.009-.1.022-.157.037-.081.021-.172.044-.271.059-.017.008-.049.026-.072.04a1.126,1.126,0,0,1-.41.162,1.051,1.051,0,0,1-.153.011,1.908,1.908,0,0,1-.223-.016c-.044,0-.085-.01-.111-.01h-.008l-.236.036-.247.038a.932.932,0,0,0-.128.043,1.573,1.573,0,0,1-.343.1.877.877,0,0,1-.125.009,1.392,1.392,0,0,1-.3-.039c-.029-.006-.068-.015-.087-.017a.944.944,0,0,1-.12.008,1.55,1.55,0,0,1-.273-.029l-.064-.011-.034.025a1.006,1.006,0,0,1-.45.209c-.1.014-.2.02-.281.026s-.143.009-.2.018a1.816,1.816,0,0,1-.263.016h-.109a.918.918,0,0,0-.119.006c-.078.011-.156.025-.235.038s-.163.028-.245.04a1.067,1.067,0,0,1-.155.011,1.957,1.957,0,0,1-.219-.015c-.043,0-.084-.009-.111-.009h-.011c-.068.01-.141.024-.217.038s-.171.033-.262.046-.2.02-.291.024c-.072,0-.139.007-.2.015a1.043,1.043,0,0,0-.146.043,1.784,1.784,0,0,1-.327.087c-.057.008-.123.024-.193.041s-.173.042-.271.057c-.018.008-.053.027-.079.041a1.172,1.172,0,0,1-.4.15.742.742,0,0,1-.106.008,1.094,1.094,0,0,1-.4-.089l-.054-.02-.2.026c-.077.01-.155.019-.232.03-.057.008-.123.024-.193.041s-.159.039-.25.053l-.058.038a1.03,1.03,0,0,1-.437.192.742.742,0,0,1-.106.007,1.094,1.094,0,0,1-.4-.089l-.042-.016-.079.031a1.44,1.44,0,0,1-.355.109c-.1.015-.2.02-.284.026s-.142.009-.2.017c-.086.013-.173.024-.261.035l-.2.027c-.018.008-.051.027-.075.04a1.145,1.145,0,0,1-.406.156,2.3,2.3,0,0,1-.31.019,1.505,1.505,0,0,0-.178.008.891.891,0,0,0-.123.043,1.5,1.5,0,0,1-.349.1c-.084.012-.167.023-.251.033s-.155.019-.232.03a.928.928,0,0,1-.132.009,1.535,1.535,0,0,1-.275-.03c-.033-.006-.078-.014-.1-.015-.065.01-.133.023-.206.038s-.173.035-.266.048c-.07.01-.143.024-.219.038s-.17.032-.261.045a1.025,1.025,0,0,0-.1.042,1.354,1.354,0,0,1-.366.118.992.992,0,0,1-.143.01,1.748,1.748,0,0,1-.245-.021,1.017,1.017,0,0,0-.108-.012l-.482.069a2.628,2.628,0,0,1-.3.022,1.826,1.826,0,0,0-.188.012.952.952,0,0,0-.139.043,1.674,1.674,0,0,1-.334.092,1.172,1.172,0,0,0-.158.043,1.931,1.931,0,0,1-.317.08.831.831,0,0,1-.118.008,1.285,1.285,0,0,1-.326-.05c-.026-.007-.06-.015-.079-.018a1.374,1.374,0,0,1-.171.01c-.053,0-.1,0-.148,0s-.067,0-.1,0a.376.376,0,0,0-.05,0,2.629,2.629,0,0,1-.3.022c-.045,0-.089,0-.128.006l-.033.028a.938.938,0,0,1-.481.252,1.111,1.111,0,0,1-.16.011c-.075,0-.144-.006-.2-.012-.042,0-.082-.008-.111-.008h-.018l-.248.034-.235.032c-.091.013-.178.022-.263.03s-.151.015-.221.025a1,1,0,0,1-.142.01,1.72,1.72,0,0,1-.249-.022,1,1,0,0,0-.107-.012c-.093.013-.183.021-.27.028s-.148.013-.214.022l-.245.034-.155.021a.791.791,0,0,1-.52.308.823.823,0,0,1-.118.009.786.786,0,0,1-.441-.139,1.019,1.019,0,0,1-.4.139,1.216,1.216,0,0,1-.176.013,1.1,1.1,0,0,1-.24-.027l-.036-.006-.032,0a.179.179,0,0,0-.028.005l-.027.015a1.066,1.066,0,0,1-.4.14.412.412,0,0,0-.12.032,1.38,1.38,0,0,1-.344.092c-.072.01-.153.028-.238.047-.067.015-.136.03-.205.043a.854.854,0,0,1-.158.014,1.411,1.411,0,0,1-.272-.032l-.062-.011-.052.031a1.06,1.06,0,0,1-.426.172l-.142.021a2.935,2.935,0,0,1-.39.044H8.2a.947.947,0,0,1-.53-.188l-.036-.023c-.025,0-.058,0-.092.009a1.778,1.778,0,0,1-.2.015.772.772,0,0,1-.421-.114,1.944,1.944,0,0,1-.579-.531.9.9,0,0,1-.1-.653c0-.022.007-.051.009-.073s-.03-.048-.045-.07A1.193,1.193,0,0,1,6,35.073a1.487,1.487,0,0,1,0-.417A.949.949,0,0,0,6,34.516a.535.535,0,0,0-.037-.143,1.508,1.508,0,0,1-.091-.353,1.277,1.277,0,0,1,0-.4.309.309,0,0,0,0-.116.276.276,0,0,0-.033-.105,1.254,1.254,0,0,1-.116-.387,1.741,1.741,0,0,1-.019-.341A.785.785,0,0,0,5.7,32.5V32.5l-.013-.019a.976.976,0,0,1-.187-.46A.949.949,0,0,1,5.56,31.5l.006-.014a1.541,1.541,0,0,1-.014-.358.575.575,0,0,0-.006-.153.409.409,0,0,0-.036-.129,1.351,1.351,0,0,1-.094-.317l-.035-.046a.977.977,0,0,1-.227-.462,1.428,1.428,0,0,1,0-.375.923.923,0,0,0,.009-.121,2.289,2.289,0,0,1-.019-.31,1.472,1.472,0,0,0-.008-.179c-.014-.1-.021-.193-.027-.282-.005-.074-.01-.144-.019-.206-.014-.1-.021-.189-.027-.277s-.01-.146-.019-.209-.024-.135-.04-.209-.037-.176-.051-.273c-.009-.061-.024-.13-.041-.2s-.04-.177-.055-.275a.891.891,0,0,0-.043-.119,1.456,1.456,0,0,1-.108-.354A.888.888,0,0,1,4.8,26.15a.839.839,0,0,1-.269-.474.8.8,0,0,1,.112-.508.8.8,0,0,1-.258-.459.956.956,0,0,1,.1-.519l0,0a1.017,1.017,0,0,1-.206-.449c-.011-.076-.024-.152-.037-.228s-.029-.169-.041-.253a.888.888,0,0,1,.106-.521.934.934,0,0,1-.219-.448.978.978,0,0,1,.086-.511l.02-.051c-.009-.056-.02-.114-.031-.174-.015-.082-.031-.167-.044-.255a.883.883,0,0,0-.044-.12,1.464,1.464,0,0,1-.107-.352,1.136,1.136,0,0,1,.037-.438L4,20.342l-.018-.024a.994.994,0,0,1-.217-.457,1.006,1.006,0,0,1,.074-.492c.006-.017.014-.039.019-.056-.009-.046-.022-.1-.035-.15a2.882,2.882,0,0,1-.061-.287c-.013-.092-.022-.179-.031-.264s-.014-.136-.023-.2c-.009-.017-.026-.045-.039-.066a1.086,1.086,0,0,1-.172-.421,1.1,1.1,0,0,1,.042-.446l.01-.039-.018-.024a1,1,0,0,1-.21-.453,2.643,2.643,0,0,1-.022-.3,1.839,1.839,0,0,0-.012-.189,1.033,1.033,0,0,1,.065-.481c.007-.02.015-.045.02-.063q-.028-.191-.056-.383l-.008-.058c-.006-.019-.027-.062-.042-.094a1.286,1.286,0,0,1-.13-.379,1.44,1.44,0,0,1,0-.373c0-.029.007-.067.009-.1L3.122,14.5a1.021,1.021,0,0,1-.2-.441,1.043,1.043,0,0,0-.044-.15,1.816,1.816,0,0,1-.085-.325.779.779,0,0,1,.129-.556.95.95,0,0,1-.147-.4c-.019-.132-.025-.2-.03-.264s-.008-.094-.02-.179a.865.865,0,0,1-.223-.476c-.005-.036-.009-.069-.012-.1l-.069.03a.856.856,0,0,1-.336.063,1.875,1.875,0,0,1-.223-.016c-.038,0-.08-.009-.1-.009H1.745c-.025,0-.064,0-.1.008a1.936,1.936,0,0,1-.206.014q-.05,0-.1,0,0,.023.005.045a.965.965,0,0,0,.044.114,1.432,1.432,0,0,1,.112.36c.011.077.024.153.039.235s.029.165.041.251a1.087,1.087,0,0,0,.044.156,1.858,1.858,0,0,1,.084.324,1.208,1.208,0,0,1-.027.422c-.006.032-.015.074-.016.094a1.125,1.125,0,0,1-.043.437l0,.015h0a.915.915,0,0,1,.279.5.925.925,0,0,1-.121.551l.006.009a1.08,1.08,0,0,1,.177.428,1.7,1.7,0,0,1,.007.347.976.976,0,0,0,0,.149c.015.1.021.2.026.284s.009.145.018.207a1.791,1.791,0,0,1,.009.342,1.036,1.036,0,0,0,0,.155c.008.058.025.125.042.2s.036.147.051.23l.035.044a.964.964,0,0,1,.239.473,2.493,2.493,0,0,1,.021.307,1.7,1.7,0,0,0,.011.187c.008.055.025.121.042.19a2.812,2.812,0,0,1,.063.293,1,1,0,0,1-.078.5h0a.96.96,0,0,1,.238.473c.01.07.024.144.038.223s.032.171.045.261a1.165,1.165,0,0,1-.034.435c-.007.029-.015.068-.018.087a2.47,2.47,0,0,1,.018.294c0,.064,0,.124.008.172.008.018.027.055.042.082a1.189,1.189,0,0,1,.149.4c.012.087.022.172.032.258s.018.155.029.233a1.065,1.065,0,0,1-.053.464c-.005.019-.012.042-.017.061s.024.054.036.079a1.3,1.3,0,0,1,.127.377,1.908,1.908,0,0,1,.012.332,1.135,1.135,0,0,0,0,.163,1.679,1.679,0,0,1,.006.352.352.352,0,0,0,.041.261,1.425,1.425,0,0,1,.112.36c.009.062.025.13.041.2s.042.181.057.283a1.271,1.271,0,0,1-.019.407c-.006.035-.014.082-.014.1.012.081.022.164.033.248s.02.156.031.234.023.168.034.253.02.157.031.235A.9.9,0,0,0,3.5,27a1.575,1.575,0,0,1,.1.346,1.215,1.215,0,0,0,.044.161,1.965,1.965,0,0,1,.08.318.951.951,0,0,0,.043.141,1.7,1.7,0,0,1,.089.328,1.117,1.117,0,0,1-.039.439c0,.018-.01.041-.014.059l.03.054a1.129,1.129,0,0,1,.158.406,1.191,1.191,0,0,1-.026.417c-.006.03-.014.071-.016.09a1.535,1.535,0,0,1,0,.348c0,.034-.007.077-.007.106l.035.056a1.058,1.058,0,0,1,.179.425c.014.1.02.187.027.274s.011.145.02.208a1.311,1.311,0,0,0,.042.163,2.082,2.082,0,0,1,.075.308.943.943,0,0,1-.1.518.884.884,0,0,1,.23.487.942.942,0,0,0,.042.183,1.9,1.9,0,0,1,.077.339,1.523,1.523,0,0,0,.042.205,2.5,2.5,0,0,1,.065.318.928.928,0,0,1-.084.554l-.007.014v.014a.983.983,0,0,0,.038.154,1.843,1.843,0,0,1,.072.311,1.267,1.267,0,0,1-.027.4c0,.019-.008.041-.011.06l.024.031a1.022,1.022,0,0,1,.226.429,1.4,1.4,0,0,0,.06.18c.028.073.059.156.084.249a1.656,1.656,0,0,1,.057.284.837.837,0,0,0,.02.115l.038.079a2.492,2.492,0,0,0,.155.3c.042.064.079.128.111.185a1.254,1.254,0,0,0,.115.181.854.854,0,0,0,.126.094,1.969,1.969,0,0,1,.22.164,1.06,1.06,0,0,1,.254.383l0,0h.007a1.106,1.106,0,0,1,.429.1,1.122,1.122,0,0,1,.329.272l.04.043c.03,0,.074,0,.106,0a1.815,1.815,0,0,1,.291.024c.02,0,.06-.008.09-.013a1.532,1.532,0,0,1,.261-.027l.063,0a1.126,1.126,0,0,1,.373.1l.054.022c.026-.006.064-.018.092-.026a1.567,1.567,0,0,1,.306-.068,1.453,1.453,0,0,0,.173-.036c.075-.018.159-.039.252-.053a.953.953,0,0,1,.138-.01,1.637,1.637,0,0,1,.231.02l.048.006.017-.014a.941.941,0,0,1,.439-.225l.115-.02c.113-.02.231-.04.347-.057a.733.733,0,0,1,.105-.008,1.07,1.07,0,0,1,.407.1l.032.013L10.948,38a1.305,1.305,0,0,1,.376-.126.962.962,0,0,1,.137-.01,1.629,1.629,0,0,1,.259.025,1,1,0,0,0,.1.013,1.505,1.505,0,0,0,.167-.042,2.215,2.215,0,0,1,.3-.072c.076-.011.151-.024.227-.037s.169-.029.254-.041c.013,0,.061-.025.1-.042a1.314,1.314,0,0,1,.372-.123,1.4,1.4,0,0,0,.168-.042,2.174,2.174,0,0,1,.307-.073,1.7,1.7,0,0,1,.244-.015h.143a.78.78,0,0,0,.1,0,.773.773,0,0,1,.11-.008,1.164,1.164,0,0,1,.368.071l.058.018c.033-.008.074-.022.117-.037a1.8,1.8,0,0,1,.325-.085,1.627,1.627,0,0,0,.179-.042,2.423,2.423,0,0,1,.3-.067,1.145,1.145,0,0,1,.165-.011c.072,0,.138.006.2.011.042,0,.081.007.11.007h.006l.067-.038a1.116,1.116,0,0,1,.412-.163.751.751,0,0,1,.109-.008,1.089,1.089,0,0,1,.365.074.877.877,0,0,1,.482-.267,2.193,2.193,0,0,1,.313-.017,1.42,1.42,0,0,0,.175-.007.986.986,0,0,1,.14-.01,1.7,1.7,0,0,1,.251.023.986.986,0,0,0,.107.012c.07-.01.144-.023.223-.037s.168-.03.256-.042a.964.964,0,0,0,.109-.042,1.392,1.392,0,0,1,.36-.113,2.555,2.555,0,0,1,.3-.021,1.752,1.752,0,0,0,.186-.011.76.76,0,0,1,.11-.008,1.148,1.148,0,0,1,.373.074l.056.018c.033-.008.074-.022.116-.036a1.838,1.838,0,0,1,.323-.084c.06-.009.128-.024.2-.041s.178-.041.279-.055.175-.022.259-.031.153-.017.225-.027a.96.96,0,0,0,.11-.042,1.4,1.4,0,0,1,.359-.112.915.915,0,0,0,.116-.043,1.445,1.445,0,0,1,.355-.108c.077-.011.153-.024.23-.036s.167-.028.25-.04a.749.749,0,0,1,.106-.008,1.1,1.1,0,0,1,.393.087l.047.017c.03-.009.066-.021.1-.034a1.723,1.723,0,0,1,.326-.089,1.025,1.025,0,0,0,.094-.042,1.283,1.283,0,0,1,.377-.13.712.712,0,0,1,.1-.007.986.986,0,0,1,.42.11.961.961,0,0,1,.448-.212c.06-.009.128-.024.2-.041s.178-.041.279-.055c.084-.012.169-.022.254-.032s.153-.018.229-.029a1.136,1.136,0,0,1,.164-.011c.073,0,.14.006.2.011.042,0,.081.007.11.007h.02a1.32,1.32,0,0,0,.166-.043,2.093,2.093,0,0,1,.309-.074c.084-.012.168-.023.252-.033l.231-.03a1.418,1.418,0,0,0,.17-.043,2.2,2.2,0,0,1,.305-.072.69.69,0,0,1,.1-.007.99.99,0,0,1,.454.132l.022.011.065-.025a1.6,1.6,0,0,1,.321-.1c.017-.009.045-.026.066-.039a1.084,1.084,0,0,1,.42-.173c.077-.011.153-.024.228-.037s.167-.029.253-.041a2.633,2.633,0,0,1,.3-.022,1.828,1.828,0,0,0,.188-.012,1.01,1.01,0,0,1,.146-.01,1.789,1.789,0,0,1,.237.019,1.077,1.077,0,0,0,.109.011h.005a.961.961,0,0,0,.132-.043,1.614,1.614,0,0,1,.338-.1c.068-.01.14-.024.216-.039s.171-.033.264-.047a1,1,0,0,1,.145-.01,1.786,1.786,0,0,1,.241.02,1.05,1.05,0,0,0,.108.011,1.082,1.082,0,0,1,.147-.01,1.8,1.8,0,0,1,.238.019,1.068,1.068,0,0,0,.109.011c.07-.009.141-.024.216-.039s.141-.029.217-.041l.046-.035a.984.984,0,0,1,.459-.22,2.9,2.9,0,0,1,.293-.023c.071,0,.138-.006.193-.014a1.859,1.859,0,0,1,.267-.016h.1a.946.946,0,0,0,.124-.006.921.921,0,0,0,.129-.043,1.572,1.572,0,0,1,.342-.1.9.9,0,0,1,.128-.009,1.451,1.451,0,0,1,.29.035c.031.006.072.014.091.016.1-.014.193-.019.276-.023.065,0,.126-.007.18-.014.018-.009.047-.026.07-.039a1.116,1.116,0,0,1,.412-.163,1.079,1.079,0,0,1,.155-.011,2,2,0,0,1,.215.014c.043,0,.083.009.111.009h.012a2.3,2.3,0,0,1,.31-.019c.06,0,.117,0,.162-.006h0a.9.9,0,0,1,.462-.2.945.945,0,0,1,.134-.01.864.864,0,0,1,.392.1l.193-.03.2-.031a.849.849,0,0,1,.486-.242,1.2,1.2,0,0,1,.174-.013,1.089,1.089,0,0,1,.243.028l.035.006.031,0c.123-.018.184-.025.246-.033s.112-.014.225-.03a2.1,2.1,0,0,1,.3-.024,1.139,1.139,0,0,0,.174-.014l.015,0,.021-.013a1,1,0,0,1,.42-.156,1.506,1.506,0,0,1,.215-.017c.057,0,.1,0,.138.007l.052,0a.527.527,0,0,0,.072-.006l.014,0,.02-.013a1,1,0,0,1,.421-.157.816.816,0,0,1,.116-.009.779.779,0,0,1,.45.146.972.972,0,0,1,.4-.144,1.205,1.205,0,0,0,.174-.036,2.18,2.18,0,0,1,.293-.061c.057-.008.122-.023.19-.039.084-.02.178-.042.28-.056a.971.971,0,0,0,.143-.042,1.79,1.79,0,0,1,.3-.083,1.017,1.017,0,0,1,.163-.013,1.851,1.851,0,0,1,.2.013c.037,0,.072.008.094.008h0a.833.833,0,0,1,.166-.016,1.248,1.248,0,0,1,.216.021.831.831,0,0,1,.373-.35.707.707,0,0,1,.279-.055,1.056,1.056,0,0,1,.187.018.9.9,0,0,1,.236-.307,2.188,2.188,0,0,1,.212-.148,1.056,1.056,0,0,0,.132-.093c.011-.018.029-.063.043-.1a1.421,1.421,0,0,1,.156-.3,1.071,1.071,0,0,1,.34-.29l0,0v-.006a1.084,1.084,0,0,1,.051-.438c.028-.076.059-.144.087-.2a1.112,1.112,0,0,0,.075-.19l.019-.081a2.563,2.563,0,0,0,.063-.337,1.435,1.435,0,0,0-.009-.236c-.005-.061-.011-.123-.013-.191a2.089,2.089,0,0,1,.01-.265.877.877,0,0,0,.005-.167v-.009c-.006-.019-.027-.06-.042-.091a1.249,1.249,0,0,1-.134-.388c-.012-.087-.022-.173-.031-.256s-.017-.156-.028-.23a1.515,1.515,0,0,1,0-.365.909.909,0,0,0,.007-.132,1.034,1.034,0,0,1,.063-.475c.006-.017.012-.039.017-.056s-.024-.058-.035-.083a1.369,1.369,0,0,1-.116-.367c-.015-.1-.02-.2-.024-.291,0-.062-.006-.122-.012-.174-.009-.017-.026-.044-.039-.065a1.08,1.08,0,0,1-.175-.425,1.611,1.611,0,0,1,0-.355.929.929,0,0,0,0-.141c-.011-.08-.024-.159-.036-.239s-.025-.165-.037-.247a1.272,1.272,0,0,1,.019-.405c.006-.034.014-.08.014-.1a1.072,1.072,0,0,0-.043-.118,1.581,1.581,0,0,1-.1-.319c-.01-.017-.026-.042-.039-.062a1.051,1.051,0,0,1-.187-.434.977.977,0,0,1,.089-.514l.01-.026-.021-.04a1.17,1.17,0,0,1-.152-.4.994.994,0,0,1,.079-.5l.014-.039-.029-.062a1.1,1.1,0,0,1-.115-.777c0-.021.007-.046.01-.068l-.024-.031a.982.982,0,0,1-.226-.463,1.081,1.081,0,0,1,.047-.457l.013-.05-.027-.046a1.1,1.1,0,0,1-.171-.42,1.063,1.063,0,0,1,.052-.464l.014-.052-.03-.056a1.169,1.169,0,0,1-.153-.4,1.373,1.373,0,0,1,.008-.383c0-.03.008-.067.01-.093l-.034-.053a.907.907,0,0,1-.13-.9c.007-.022.015-.049.02-.068-.01-.061-.022-.124-.034-.191-.016-.084-.032-.171-.045-.262s-.02-.205-.024-.294c0-.05,0-.1-.009-.142l-.031-.038a.958.958,0,0,1-.242-.474,2.262,2.262,0,0,1-.019-.313,1.479,1.479,0,0,0-.008-.179.99.99,0,0,1,.081-.5l.007-.018-.014-.022a1.058,1.058,0,0,1-.185-.432c-.01-.071-.024-.144-.04-.222s-.033-.17-.047-.262a1.04,1.04,0,0,1,.059-.474c.006-.02.014-.046.019-.064-.008-.035-.023-.079-.038-.125a1.868,1.868,0,0,1-.083-.324c-.011-.076-.024-.153-.037-.23s-.028-.167-.04-.25a1,1,0,0,0-.042-.1,1.288,1.288,0,0,1-.127-.378.942.942,0,0,1,.107-.535l.019-.043c-.008-.043-.019-.09-.03-.138-.02-.086-.042-.183-.057-.286a.97.97,0,0,0-.044-.138,1.67,1.67,0,0,1-.095-.339c-.015-.1-.02-.2-.026-.285,0-.06-.007-.118-.013-.171l-.037-.055a1.031,1.031,0,0,1-.2-.447c-.009-.06-.024-.129-.04-.2s-.041-.182-.055-.283a.99.99,0,0,1,.082-.5l.016-.043c-.009-.024-.022-.055-.032-.077a1.408,1.408,0,0,1-.114-.363c-.012-.081-.025-.16-.038-.239s-.028-.165-.04-.247c-.014-.1-.02-.2-.025-.283s-.008-.141-.017-.2c-.012-.084-.022-.169-.032-.251s-.018-.151-.029-.226a.9.9,0,0,0-.043-.132,1.6,1.6,0,0,1-.095-.335,1.41,1.41,0,0,1,0-.372A.9.9,0,0,0,45,5.341l0-.032a.994.994,0,0,0-.044-.168,1.85,1.85,0,0,1-.081-.34,1.486,1.486,0,0,1,.015-.392.937.937,0,0,0,.013-.137c-.015-.093-.024-.181-.033-.267s-.014-.143-.025-.206L44.8,3.748a1.049,1.049,0,0,1-.267-.427c-.012-.037-.023-.073-.035-.109a1.92,1.92,0,0,0-.093-.257.876.876,0,0,1-.073-.432.872.872,0,0,1-.37-.243.879.879,0,0,1-.183-.426.927.927,0,0,1-.4-.146.912.912,0,0,1-.276-.33A1.212,1.212,0,0,1,42.914,1.394Zm-.581,2.231-.046-.009a1.331,1.331,0,0,1-.338-.1,1.108,1.108,0,0,1-.29-.214l-.038-.035c-.084,0-.174.013-.268.023l-.067.007a1.513,1.513,0,0,0-.214.049c-.059.016-.121.033-.188.048l-.028.005a1.192,1.192,0,0,1-.192.016,1.081,1.081,0,0,1-.268-.035l-.015,0a.818.818,0,0,1-.531.306.944.944,0,0,1-.134.01A.851.851,0,0,1,39.33,3.6a.879.879,0,0,1-.46.206,1.432,1.432,0,0,1-.208.016,1.374,1.374,0,0,1-.172-.012.461.461,0,0,0-.055,0,.467.467,0,0,0-.063.006.4.4,0,0,0-.122.034,1.369,1.369,0,0,1-.357.1c-.139.02-.214.025-.28.03s-.1.007-.207.022c-.127.018-.191.026-.254.034s-.118.015-.235.032a1.242,1.242,0,0,1-.18.014,1.124,1.124,0,0,1-.246-.028.22.22,0,0,0-.041-.007.262.262,0,0,0-.036,0,.377.377,0,0,0-.12.033,1.341,1.341,0,0,1-.36.1,1.139,1.139,0,0,1-.165.012,1.037,1.037,0,0,1-.289-.043l-.03-.008-.018,0h-.006l-.016.011a.97.97,0,0,1-.445.177c-.139.02-.214.026-.28.03s-.105.008-.21.023a.772.772,0,0,0-.157.037A1.73,1.73,0,0,1,34,4.493a1.038,1.038,0,0,1-.147.011.933.933,0,0,1-.357-.072l-.009,0h-.007l-.022.014a1,1,0,0,1-.433.164,1.684,1.684,0,0,1-.248.02l-.092,0h-.049a.7.7,0,0,0-.1.009.167.167,0,0,0-.078.026,1.133,1.133,0,0,1-.4.128c-.13.019-.2.026-.261.033s-.113.012-.224.028a1.065,1.065,0,0,1-.152.011A.953.953,0,0,1,31.08,4.8l-.014,0-.016,0-.022.014a1.013,1.013,0,0,1-.43.161c-.11.016-.16.026-.218.037s-.132.026-.265.045-.194.026-.258.033-.114.013-.229.03a1.923,1.923,0,0,0-.2.038,2.882,2.882,0,0,1-.284.054,1.332,1.332,0,0,1-.192.015,1.239,1.239,0,0,1-.207-.018A.311.311,0,0,0,28.7,5.2a.349.349,0,0,0-.049,0c-.13.019-.2.026-.259.033s-.115.013-.229.03l-.021,0-.022.014a1.025,1.025,0,0,1-.426.157.881.881,0,0,1-.125.009.8.8,0,0,1-.407-.111.87.87,0,0,1-.444.193,1.636,1.636,0,0,1-.238.019c-.039,0-.073,0-.107,0l-.052,0a.647.647,0,0,0-.1.008.4.4,0,0,0-.121.033,1.364,1.364,0,0,1-.355.1,2.492,2.492,0,0,1-.3.027,1.527,1.527,0,0,0-.192.017,1.367,1.367,0,0,1-.2.015,1.263,1.263,0,0,1-.2-.017.344.344,0,0,0-.052-.006.4.4,0,0,0-.054,0,1.592,1.592,0,0,1-.228.018c-.054,0-.1,0-.13-.006l-.056,0a.612.612,0,0,0-.085.007c-.129.019-.193.026-.258.034s-.1.012-.19.025a.85.85,0,0,1-.508.263,1.252,1.252,0,0,1-.181.014,1.145,1.145,0,0,1-.237-.026.227.227,0,0,0-.043-.007.278.278,0,0,0-.038,0,1.384,1.384,0,0,1-.369.008c-.027,0-.041,0-.056,0a.526.526,0,0,0-.073.007,1.154,1.154,0,0,0-.179.038,2.114,2.114,0,0,1-.306.065,1.838,1.838,0,0,1-.272.021h-.094a.855.855,0,0,0-.13.011.171.171,0,0,0-.029.006l-.03.016a1.069,1.069,0,0,1-.415.145.253.253,0,0,0-.1.03,1.229,1.229,0,0,1-.379.114.835.835,0,0,1-.12.009.806.806,0,0,1-.474-.159l-.018.009a1.171,1.171,0,0,1-.388.122,1.354,1.354,0,0,1-.195.015,1.243,1.243,0,0,1-.2-.017.3.3,0,0,0-.05-.006l-.044,0-.009.007a.935.935,0,0,1-.465.2,1.052,1.052,0,0,1-.15.011.947.947,0,0,1-.348-.068l-.013,0a.608.608,0,0,0-.143.036,1.58,1.58,0,0,1-.336.083,1.139,1.139,0,0,0-.177.038,2.11,2.11,0,0,1-.306.065h-.007l-.016.011a.971.971,0,0,1-.448.179.861.861,0,0,1-.123.009.792.792,0,0,1-.416-.118.85.85,0,0,1-.444.2.474.474,0,0,0-.133.035A1.45,1.45,0,0,1,15,7.253a.913.913,0,0,1-.13.01.822.822,0,0,1-.389-.1.842.842,0,0,1-.459.213.891.891,0,0,1-.127.009.8.8,0,0,1-.387-.1.816.816,0,0,1-.462.225c-.113.016-.164.026-.223.037s-.131.025-.262.044a1.805,1.805,0,0,1-.266.021l-.1,0a.8.8,0,0,0-.123.01c-.1.015-.153.026-.209.039s-.143.032-.287.053a1.165,1.165,0,0,0-.183.039,2.133,2.133,0,0,1-.312.066,2.942,2.942,0,0,1-.293.029,1.978,1.978,0,0,0-.207.021.911.911,0,0,1-.13.01.828.828,0,0,1-.4-.1.847.847,0,0,1-.465.216,1.312,1.312,0,0,0-.187.039,2.292,2.292,0,0,1-.3.063c-.106.015-.154.026-.211.038s-.14.031-.283.051a1.308,1.308,0,0,1-.189.014,1.2,1.2,0,0,1-.225-.022A.273.273,0,0,0,8.14,8.17a.331.331,0,0,0-.046,0,1.464,1.464,0,0,1-.212.016,1.418,1.418,0,0,1-.168-.011.494.494,0,0,0-.056,0,.451.451,0,0,0-.057,0l-.007.006a.923.923,0,0,1-.478.213.881.881,0,0,1-.126.009.8.8,0,0,1-.386-.1.811.811,0,0,1-.443.23.68.68,0,0,1-.093.006.933.933,0,0,1-.419-.115,1.006,1.006,0,0,1-.406.168c-.084.012-.166.026-.254.04l-.2.032a.747.747,0,0,1-.112.008,1.1,1.1,0,0,1-.36-.072l-.013,0-.022.008-.024.031a1.025,1.025,0,0,1-.306.287,1.975,1.975,0,0,1-.195.093,1.009,1.009,0,0,0-.092.043,1.769,1.769,0,0,1-.18.163c-.026.021-.063.051-.08.068a.963.963,0,0,0-.055.2c.007.037.014.074.021.1l.007.027a1.171,1.171,0,0,1,.117.309l.01.05v.051a.771.771,0,0,1-.051.268L3.6,11.694a.874.874,0,0,1,.11.321c.019.133.025.2.031.267s.009.1.023.206v0l.01.015a.965.965,0,0,1,.17.433.786.786,0,0,1-.143.578c.007.023.016.049.025.075a1.961,1.961,0,0,1,.079.287c.01.016.026.039.038.056a1.033,1.033,0,0,1,.2.443,1.432,1.432,0,0,1,0,.373,1.107,1.107,0,0,0-.009.118c.006.019.027.061.042.093a1.28,1.28,0,0,1,.13.38l.009.061q.031.212.062.423a1.033,1.033,0,0,1-.065.481c-.007.02-.015.046-.02.064.011.094.014.182.017.262,0,.053,0,.1.007.148l.034.048a1,1,0,0,1,.21.452,1.1,1.1,0,0,1-.042.447L4.5,17.78l.027.045a1.087,1.087,0,0,1,.172.422c.013.09.022.178.031.262s.016.152.026.223c.008.054.024.119.041.187a2.844,2.844,0,0,1,.062.291,1,1,0,0,1-.074.493l0,.009.006.007a.993.993,0,0,1,.216.456,1.135,1.135,0,0,1-.037.437c-.006.025-.014.058-.017.078s.027.071.04.1a1.459,1.459,0,0,1,.108.356c.01.067.023.139.038.214s.033.174.046.267a.966.966,0,0,1-.084.5.957.957,0,0,1,.23.462.923.923,0,0,1-.118.547l-.019.039c.008.053.017.106.026.159.012.071.024.142.035.213l.037.053a1.018,1.018,0,0,1,.2.446.9.9,0,0,1-.076.475.825.825,0,0,1,.284.484.806.806,0,0,1-.116.513.815.815,0,0,1,.248.453.944.944,0,0,1-.1.531l-.013.031c.009.023.019.049.028.07a1.457,1.457,0,0,1,.108.354c.009.059.024.127.04.2s.041.18.055.281c.009.065.024.135.04.209s.037.175.051.271.021.192.027.282c.005.074.01.143.019.205.014.1.021.191.027.281.005.074.01.144.019.207a2.257,2.257,0,0,1,.019.312,1.5,1.5,0,0,0,.008.178,1.416,1.416,0,0,1,0,.375c0,.024-.006.055-.008.08l.025.033a.976.976,0,0,1,.228.465.406.406,0,0,0,.036.128,1.374,1.374,0,0,1,.1.369,1.542,1.542,0,0,1,.014.361.575.575,0,0,0,.006.153.949.949,0,0,1-.063.515l-.006.014v0L6.5,31.9a.977.977,0,0,1,.187.458,1.756,1.756,0,0,1,.019.341.776.776,0,0,0,.009.168.278.278,0,0,0,.033.106,1.254,1.254,0,0,1,.116.387,1.283,1.283,0,0,1,0,.4.306.306,0,0,0,0,.116.538.538,0,0,0,.037.144,1.506,1.506,0,0,1,.091.352,1.54,1.54,0,0,1,0,.381,1.214,1.214,0,0,0-.009.137c.011.021.038.063.057.092a1.332,1.332,0,0,1,.175.338,1.09,1.09,0,0,1,.017.491l0,.03a1.189,1.189,0,0,0,.158.129l.045,0a1.933,1.933,0,0,1,.221-.015.906.906,0,0,1,.564.185l.037.024c.059-.006.127-.016.2-.028l.141-.021.062-.037a1.122,1.122,0,0,1,.393-.168.866.866,0,0,1,.156-.014,1.423,1.423,0,0,1,.275.032l.077.013.155-.033c.1-.022.2-.045.311-.06a.411.411,0,0,0,.12-.032,1.379,1.379,0,0,1,.344-.092.168.168,0,0,0,.027-.005l.027-.015a1.063,1.063,0,0,1,.405-.141,1.214,1.214,0,0,1,.175-.013,1.1,1.1,0,0,1,.24.027l.036.006.032,0,.022,0,.021-.013a1.027,1.027,0,0,1,.412-.149A.83.83,0,0,1,12,35.4a.766.766,0,0,1,.372.1.771.771,0,0,1,.447-.226l.245-.034L13.3,35.2c.095-.014.184-.021.271-.029s.148-.013.214-.022a.993.993,0,0,1,.141-.01,1.718,1.718,0,0,1,.248.022,1,1,0,0,0,.107.012c.09-.013.177-.022.262-.03s.151-.015.221-.025l.247-.034.236-.032a1.111,1.111,0,0,1,.16-.011c.075,0,.144.006.2.012l.076.006.025-.021a.938.938,0,0,1,.481-.252,2.63,2.63,0,0,1,.3-.022,1.827,1.827,0,0,0,.188-.012,1.344,1.344,0,0,1,.193-.013c.053,0,.1,0,.148,0s.067,0,.1,0a.371.371,0,0,0,.05,0,.835.835,0,0,1,.119-.008,1.286,1.286,0,0,1,.326.05l.076.018c.038-.008.087-.023.139-.04a1.932,1.932,0,0,1,.317-.08.958.958,0,0,0,.138-.043,1.675,1.675,0,0,1,.335-.092,2.628,2.628,0,0,1,.3-.022,1.826,1.826,0,0,0,.188-.012l.483-.07a.99.99,0,0,1,.143-.01,1.747,1.747,0,0,1,.245.021,1.02,1.02,0,0,0,.108.012.91.91,0,0,0,.1-.042,1.352,1.352,0,0,1,.365-.118c.07-.01.142-.024.219-.038s.17-.032.261-.045c.066-.01.137-.024.211-.039s.174-.035.268-.049a.93.93,0,0,1,.132-.009,1.537,1.537,0,0,1,.275.03c.033.006.078.014.1.015l.244-.032c.077-.01.155-.019.232-.03a.9.9,0,0,0,.121-.043,1.5,1.5,0,0,1,.35-.1,2.289,2.289,0,0,1,.31-.019c.06,0,.117,0,.163-.006.018-.008.05-.026.074-.04a1.148,1.148,0,0,1,.4-.156l.237-.032.245-.033c.1-.015.2-.021.286-.026s.142-.009.2-.017A.918.918,0,0,0,25,33.6a1.44,1.44,0,0,1,.355-.109.74.74,0,0,1,.105-.007,1.092,1.092,0,0,1,.4.089l.013,0,.015-.01a1.03,1.03,0,0,1,.437-.192c.057-.008.122-.024.192-.041.085-.021.182-.044.286-.059.084-.012.167-.023.251-.033s.155-.019.232-.03a.739.739,0,0,1,.105-.007,1.092,1.092,0,0,1,.4.089l.029.011.042-.023a1.172,1.172,0,0,1,.4-.15c.057-.008.123-.024.193-.041.085-.021.181-.044.285-.059a1.043,1.043,0,0,0,.147-.043,1.8,1.8,0,0,1,.325-.087c.105-.015.2-.02.292-.024.072,0,.139-.007.2-.015s.141-.024.218-.038.171-.033.262-.046a1.067,1.067,0,0,1,.154-.011,1.959,1.959,0,0,1,.22.015c.043,0,.083.009.111.009h.011c.073-.011.148-.023.222-.036s.172-.029.259-.042a1.815,1.815,0,0,1,.262-.016h.109a.918.918,0,0,0,.119-.006c.1-.015.2-.021.285-.026.056,0,.11-.007.16-.012l.048-.034a1.007,1.007,0,0,1,.451-.209.932.932,0,0,1,.133-.009,1.548,1.548,0,0,1,.273.029c.034.006.079.014.1.014a.874.874,0,0,1,.119-.008,1.39,1.39,0,0,1,.3.039c.028.006.065.014.085.016s.078-.026.118-.041a1.581,1.581,0,0,1,.34-.1l.236-.036.247-.038a1.041,1.041,0,0,1,.152-.011,1.907,1.907,0,0,1,.223.016c.04,0,.078.009.1.009l.067-.037a1.122,1.122,0,0,1,.411-.162c.054-.008.119-.024.187-.042a2.756,2.756,0,0,1,.291-.062.789.789,0,0,1,.112-.008,1.2,1.2,0,0,1,.356.065l.067.02c.078-.011.154-.019.227-.027l.178-.02.046-.034a.989.989,0,0,1,.457-.218,1.679,1.679,0,0,1,.241-.015h.15a.825.825,0,0,0,.093,0c.019-.006.061-.027.092-.042a1.272,1.272,0,0,1,.381-.131.77.77,0,0,1,.11-.008,1.152,1.152,0,0,1,.373.074l.062.02c.089-.011.174-.015.25-.019s.14-.007.2-.015.133-.024.207-.04.175-.038.272-.052.2-.021.292-.027c.074,0,.145-.009.207-.018.092-.013.185-.024.277-.036l.219-.028c.015,0,.066-.027.1-.043a1.321,1.321,0,0,1,.38-.123.927.927,0,0,0,.14-.044,1.64,1.64,0,0,1,.345-.094.87.87,0,0,1,.114-.007,1.351,1.351,0,0,1,.324.047l.061.014.043-.028a1.051,1.051,0,0,1,.441-.189.682.682,0,0,1,.093-.006.98.98,0,0,1,.477.149l.037.02.154-.02.2-.026.042-.035a.963.963,0,0,1,.475-.249.863.863,0,0,1,.134-.01,1.391,1.391,0,0,1,.3.041c.029.006.067.014.086.017.09-.014.174-.022.256-.03l.111-.011a.512.512,0,0,1,.176-.058.8.8,0,0,0,.165-.076c.034-.018.071-.038.11-.058.012-.015.028-.038.042-.056a1.41,1.41,0,0,1,.176-.211,1.626,1.626,0,0,1,.191-.152c.023-.016.052-.037.067-.05l.024-.044a1.3,1.3,0,0,0,.1-.2c-.005-.018-.013-.042-.02-.062a1.462,1.462,0,0,1-.071-.279l0-.018q-.007-.07-.013-.14c-.011-.117-.021-.228-.034-.339a1.013,1.013,0,0,1,.085-.489c.006-.017.015-.039.021-.057-.01-.065-.022-.132-.034-.2s-.026-.145-.037-.22c-.008-.018-.027-.053-.042-.08a1.18,1.18,0,0,1-.155-.4,1.715,1.715,0,0,1-.011-.345.972.972,0,0,0,0-.15.906.906,0,0,0-.046-.124,1.512,1.512,0,0,1-.11-.349,1.62,1.62,0,0,1-.01-.356.939.939,0,0,0,0-.142,2.216,2.216,0,0,1-.021-.323,1.54,1.54,0,0,0-.008-.173,1.009,1.009,0,0,0-.042-.1,1.286,1.286,0,0,1-.126-.374c-.015-.1-.02-.2-.025-.286s-.008-.14-.016-.2a1.432,1.432,0,0,1,0-.372.923.923,0,0,0,.009-.121c-.008-.059-.024-.125-.041-.2s-.042-.179-.057-.28a.9.9,0,0,0-.043-.127,1.543,1.543,0,0,1-.1-.343,1.277,1.277,0,0,1,.017-.4c.006-.035.013-.082.014-.1-.01-.071-.023-.143-.036-.22s-.029-.166-.042-.253c-.01-.072-.024-.145-.038-.223s-.025-.14-.037-.214l-.036-.05a1.007,1.007,0,0,1-.207-.449,1.246,1.246,0,0,1,.02-.407c.006-.033.014-.077.014-.1-.009-.059-.024-.125-.039-.194-.019-.087-.039-.177-.054-.275q-.018-.124-.036-.248t-.034-.233a.923.923,0,0,0-.043-.113,1.423,1.423,0,0,1-.11-.355c-.014-.1-.021-.185-.029-.272S44.58,19,44.57,18.94a1.922,1.922,0,0,1-.013-.326,1.169,1.169,0,0,0,0-.163c-.015-.1-.02-.2-.024-.29,0-.071-.007-.139-.015-.2a1.444,1.444,0,0,1,0-.369c0-.024.006-.055.007-.08l-.024-.031a.968.968,0,0,1-.23-.466,1.041,1.041,0,0,1,.056-.467c.007-.022.015-.05.02-.069a1.351,1.351,0,0,1,.02-.364c0-.018.006-.04.009-.059l-.02-.025a.963.963,0,0,1-.233-.467c-.01-.066-.024-.137-.039-.212s-.035-.173-.049-.266a.93.93,0,0,1,.11-.537l0-.005-.011-.018a1.109,1.109,0,0,1-.164-.413c-.015-.1-.02-.2-.024-.288,0-.072-.007-.139-.015-.2a.911.911,0,0,0-.043-.117,1.458,1.458,0,0,1-.107-.353,1.037,1.037,0,0,1,.059-.47c.006-.019.014-.044.018-.062s-.022-.075-.037-.119a1.8,1.8,0,0,1-.086-.324l-.07-.481c-.011-.078-.023-.155-.035-.233s-.025-.165-.037-.247a1.467,1.467,0,0,1,0-.366.917.917,0,0,0,.007-.125,1.646,1.646,0,0,0-.042-.179,2.441,2.441,0,0,1-.067-.3c-.015-.1-.02-.2-.024-.289,0-.051-.005-.1-.009-.143l-.03-.039a.962.962,0,0,1-.234-.468c-.009-.061-.024-.129-.039-.2-.019-.088-.039-.178-.053-.277a1.1,1.1,0,0,1,.049-.463c.007-.026.016-.059.02-.079-.009-.052-.024-.111-.04-.174a2.87,2.87,0,0,1-.064-.3,2.214,2.214,0,0,1-.017-.323,1.648,1.648,0,0,0-.006-.17c-.008-.019-.028-.056-.044-.083a1.186,1.186,0,0,1-.156-.411,1.455,1.455,0,0,1,.005-.384.924.924,0,0,0,.009-.129,1.357,1.357,0,0,0-.045-.173,2.13,2.13,0,0,1-.078-.319,1.568,1.568,0,0,0-.044-.181,2.333,2.333,0,0,1-.072-.314c-.009-.063-.025-.134-.042-.209-.02-.09-.041-.183-.056-.286a1.287,1.287,0,0,1,.02-.413c.006-.033.014-.08.015-.1A1.717,1.717,0,0,1,42.534,4a1.215,1.215,0,0,0-.006-.131,1.22,1.22,0,0,0-.161-.208ZM2.548,7.96l.122-.922a1.089,1.089,0,0,1-.41.091c-.016.042-.035.088-.06.137Zm-.285.522L2.146,7.36a.793.793,0,0,1-.095.119c-.047.048-.093.091-.134.129a1.274,1.274,0,0,0-.145.148,1.183,1.183,0,0,1-.281.254l-.056.041a2.122,2.122,0,0,0-.082.2c-.02.052-.039.1-.06.153a1.044,1.044,0,0,0-.042.133c.038.006.072.013.1.019l.036.007.032-.016a.937.937,0,0,1,.448-.13.74.74,0,0,1,.094.006A1.991,1.991,0,0,1,2.263,8.482ZM2.34,9.593l-.03-.011a1.515,1.515,0,0,1-.231-.1A.576.576,0,0,0,1.9,9.424l-.018.009a1.275,1.275,0,0,1-.258.108.744.744,0,0,1-.2.028,1.105,1.105,0,0,1-.193-.019l-.034.057,0,.01a1.069,1.069,0,0,1,.025.368.951.951,0,0,1-.077.257l.03.021a1.349,1.349,0,0,1,.2.16.911.911,0,0,1,.18.269,1.69,1.69,0,0,1,.208-.011,1.85,1.85,0,0,1,.216.016c.033,0,.067.008.092.009a1.083,1.083,0,0,0,.171-.1l.008-.045a1.313,1.313,0,0,1,.076-.289c.01-.023.02-.045.031-.066a.981.981,0,0,1,.034-.345A.825.825,0,0,1,2.34,9.593Z" transform="translate(-0.5 -0.5)" fill="#0d4b08"/><path d="M10.688,18.8c.137.089.158.355.295.444s.3.144.433.233.326.1.463.187.228.249.365.338.362.043.5.132.179.325.316.413.362.042.5.131.176.33.313.418.3.134.44.222.3.142.434.23.218.266.356.354.26.2.4.287.37.027.507.115.213.275.35.363.356.049.494.136.242.228.381.315.2.3.335.388.373.022.511.109.223.258.362.345.322.1.461.187.323.1.462.186.193.307.332.394.29.152.429.239.223.26.362.346.295.144.434.23.316.109.455.2.215.274.354.359.3.13.443.215.289.153.428.239.268.188.408.273.381,0,.52.088.261.2.4.284.293.146.433.231.216.274.355.358.3.143.435.228.236.241.376.326.347.066.489.151.254.22.4.3.269.194.411.279.329.1.471.181c.126.088.259.164.389.246s.287.111.42.188.207.253.343.325.212.264.35.331.37-.078.51-.016c.166.057.282.312.453.335s.361-.115.534-.127a2.706,2.706,0,0,0,.526-.025,2.735,2.735,0,0,0,.507-.171c.125-.083.293-.124.413-.215s.222-.215.335-.314.09-.345.2-.451.235-.185.335-.3.169-.25.26-.369c.113-.12.358-.121.471-.24s.083-.373.2-.493.215-.249.328-.369.316-.154.428-.275.255-.213.366-.333.135-.322.247-.443.229-.236.341-.356.332-.142.443-.263.148-.31.259-.431.263-.2.373-.327.272-.2.382-.32.157-.3.267-.423.2-.263.31-.385.3-.174.409-.3.224-.241.333-.364.223-.242.332-.365.163-.294.273-.418.178-.282.286-.4.169-.289.278-.412.313-.159.421-.281.12-.328.228-.451.3-.169.408-.292.273-.195.38-.317.106-.341.213-.463.231-.231.338-.354.178-.277.285-.4.361-.118.468-.241.074-.367.181-.49.18-.275.287-.4.189-.267.3-.391.342-.136.449-.259.164-.288.27-.412.3-.173.405-.3.081-.359.187-.483.179-.275.285-.4.272-.2.377-.321.223-.238.329-.362.241-.223.347-.348.16-.291.265-.416.346-.135.451-.26.085-.355.19-.48.324-.169.377-.3a1.4,1.4,0,0,0,.009-.479c0-.147-.114-.276-.169-.415s-.035-.33-.141-.441a1.236,1.236,0,0,0-.421-.2,1.128,1.128,0,0,0-.436-.051,1.241,1.241,0,0,0-.458,0c-.134.054-.159.266-.268.373-.1.125-.2.248-.31.373s-.354.129-.459.253-.134.313-.24.437-.287.184-.392.309-.176.278-.282.4-.2.254-.311.378-.139.31-.244.434-.177.278-.283.4-.25.214-.356.338-.333.144-.439.267-.167.286-.274.41-.182.274-.288.4-.27.2-.377.32-.114.333-.22.456-.341.136-.448.259-.039.4-.146.521-.249.216-.355.339-.287.182-.394.3-.207.252-.315.374-.149.3-.257.425-.244.22-.351.342-.338.136-.446.258-.172.283-.28.4-.2.262-.3.383-.225.236-.333.358-.153.3-.262.422-.157.3-.266.419-.213.247-.322.368-.35.124-.459.245-.171.285-.28.406-.143.311-.253.431-.375.1-.485.22-.087.362-.2.482-.2.258-.311.379-.227.235-.338.355-.277.187-.388.307-.187.272-.3.391-.248.257-.37.387-.211.292-.333.422-.409.106-.531.236-.19.311-.313.441-.129.34-.244.462-.225.249-.341.371c-.145.152-.356.362-.587.341-.189-.018-.431-.333-.586-.424-.2-.116-.233-.057-.431-.173s-.206-.1-.4-.22c-.149-.088-.252-.256-.4-.345s-.252-.255-.4-.344-.307-.162-.456-.252-.391-.024-.54-.113-.254-.191-.39-.273-.246-.2-.381-.286-.308-.1-.444-.183-.211-.262-.347-.344-.255-.189-.391-.271-.338-.052-.473-.134-.227-.235-.362-.318-.247-.2-.382-.284-.341-.048-.476-.131-.186-.3-.32-.385-.271-.163-.406-.246-.358-.022-.493-.106-.222-.241-.357-.324-.266-.171-.4-.255-.253-.193-.387-.276-.323-.079-.458-.163-.239-.215-.373-.3-.323-.08-.457-.164-.148-.378-.287-.465-.335-.081-.473-.168-.292-.149-.43-.236-.292-.15-.43-.237-.308-.125-.445-.213-.227-.252-.364-.34-.2-.3-.335-.387-.413.039-.551-.049-.14-.388-.277-.477-.376-.018-.514-.106-.243-.227-.38-.315-.328-.095-.465-.183-.183-.319-.32-.407-.363-.04-.5-.129-.251-.214-.388-.3-.266-.191-.4-.28-.292-.15-.429-.24-.24-.23-.377-.319-.333-.089-.47-.178a.92.92,0,0,0-.418-.173.833.833,0,0,0-.469-.008c-.152.067-.4.063-.509.195a1.575,1.575,0,0,0-.182.51,1.357,1.357,0,0,0-.091.517c.016.164.2.28.293.428a1.065,1.065,0,0,0,.293.391c.06,0,.066-.1.066-.1" transform="translate(-5.521 -6.421)" fill="#0d4b08"/><path d="M45.148,11.243a1.716,1.716,0,0,1,.226.018c.033,0,.073.009.09.009h.079a1.384,1.384,0,0,1,.546.088c.021.009.053.019.086.03a1.213,1.213,0,0,1,.5.272l.011.011a.951.951,0,0,1,.231.533c0,.024.01.057.013.071s.025.049.041.077a1.046,1.046,0,0,1,.162.519c0,.023,0,.063.007.1a1.2,1.2,0,0,1-.051.562.9.9,0,0,1-.422.432l-.022.013-.008.031a1.019,1.019,0,0,1-.2.445.991.991,0,0,1-.426.275l-.048.019c-.017.026-.035.061-.054.094a1.712,1.712,0,0,1-.188.289,2.407,2.407,0,0,1-.217.22,1.626,1.626,0,0,0-.13.128c-.061.073-.123.138-.182.2s-.1.109-.146.161a1.483,1.483,0,0,1-.278.244.913.913,0,0,0-.1.079,1.569,1.569,0,0,0-.1.149,2.627,2.627,0,0,1-.152.217c0,.018-.01.043-.015.062a1.008,1.008,0,0,1-.2.456,1.206,1.206,0,0,1-.333.257c-.027.016-.063.037-.079.048a1.2,1.2,0,0,0-.075.121,1.744,1.744,0,0,1-.19.284,1.012,1.012,0,0,1-.419.269l-.056.023c-.029.037-.06.08-.092.125-.051.072-.109.154-.178.234a1.506,1.506,0,0,0-.1.147c-.043.065-.09.138-.149.211,0,.017-.009.04-.012.057a.978.978,0,0,1-.2.475.955.955,0,0,1-.456.268l-.044.014c-.021.029-.043.064-.067.1a2.107,2.107,0,0,1-.187.259c-.065.075-.131.141-.2.2-.045.045-.088.088-.126.129-.007.018-.016.048-.023.07a1.071,1.071,0,0,1-.207.413,1.529,1.529,0,0,1-.277.237.9.9,0,0,0-.1.081,1.208,1.208,0,0,1-.334.252l-.068.04c-.008.019-.018.047-.026.068a1.143,1.143,0,0,1-.208.383,1.131,1.131,0,0,1-.36.256c-.024.012-.055.028-.072.038-.02.027-.046.071-.071.114a1.739,1.739,0,0,1-.2.286,1.2,1.2,0,0,0-.095.138,1.966,1.966,0,0,1-.192.267.894.894,0,0,0-.073.12,1.576,1.576,0,0,1-.2.3c-.058.066-.12.133-.181.2s-.1.11-.151.166-.115.127-.174.189-.107.115-.16.174a1.277,1.277,0,0,1-.326.248c-.031.018-.073.042-.088.055-.039.044-.08.1-.123.154s-.113.149-.183.226a.911.911,0,0,0-.061.107,1.423,1.423,0,0,1-.207.317,1.676,1.676,0,0,1-.267.228.961.961,0,0,0-.116.092,1.875,1.875,0,0,1-.249.221,1.169,1.169,0,0,0-.123.1,1,1,0,0,0-.049.1,1.3,1.3,0,0,1-.213.338,1.062,1.062,0,0,1-.393.253l-.069.031c-.054.057-.107.112-.161.168s-.1.106-.154.16c-.01.017-.026.056-.038.084a1.189,1.189,0,0,1-.218.368,2.407,2.407,0,0,1-.23.211,1.636,1.636,0,0,0-.138.123,1.16,1.16,0,0,1-.36.246c-.026.013-.062.03-.078.04-.046.05-.092.1-.141.159s-.09.1-.139.157c0,.017-.009.038-.012.054a.963.963,0,0,1-.223.482,1.012,1.012,0,0,1-.439.251l-.044.015-.041.063a2.164,2.164,0,0,1-.2.269,1.947,1.947,0,0,1-.246.226l-.065.054-.007.029a.888.888,0,0,1-.259.486c-.035.03-.073.069-.114.11a2.339,2.339,0,0,1-.248.226,1.537,1.537,0,0,1-.322.178,1.057,1.057,0,0,0-.117.057l-.023.015-.024.012a2.63,2.63,0,0,1-.524.186l-.077.021a1.333,1.333,0,0,1-.364.044l-.117,0c-.05,0-.1,0-.14,0-.02,0-.067.022-.1.034a1.225,1.225,0,0,1-.437.1.809.809,0,0,1-.1-.007.908.908,0,0,1-.54-.32l-.009-.009a1.2,1.2,0,0,1-.259.033.7.7,0,0,1-.309-.069,1.026,1.026,0,0,1-.348-.3c-.014-.017-.032-.04-.044-.053a1.119,1.119,0,0,1-.3-.272c-.015-.018-.035-.042-.048-.055s-.067-.028-.109-.044a1.6,1.6,0,0,1-.315-.148l-.127-.079c-.083-.051-.168-.1-.254-.162-.024-.011-.077-.026-.113-.037a1.451,1.451,0,0,1-.352-.141c-.09-.053-.17-.112-.242-.163s-.117-.084-.17-.116a1.865,1.865,0,0,1-.27-.2,1.353,1.353,0,0,0-.117-.1c-.02-.006-.06-.013-.09-.019a1.191,1.191,0,0,1-.408-.138,1.429,1.429,0,0,1-.288-.242.919.919,0,0,0-.089-.084c-.052-.031-.114-.062-.18-.094s-.166-.081-.255-.134a1.17,1.17,0,0,1-.313-.3c-.018-.023-.043-.054-.056-.068-.049-.029-.107-.058-.168-.088-.078-.039-.166-.082-.253-.136a2.843,2.843,0,0,1-.244-.172c-.039-.03-.077-.058-.112-.083h-.049a.957.957,0,0,1-.518-.118c-.084-.051-.16-.1-.233-.156s-.12-.084-.176-.118-.117-.066-.183-.1-.161-.085-.245-.137a1.359,1.359,0,0,0-.155-.073,2.111,2.111,0,0,1-.288-.142,1.173,1.173,0,0,1-.309-.3c-.018-.023-.042-.053-.056-.068a1.235,1.235,0,0,0-.118-.045,1.577,1.577,0,0,1-.327-.145c-.048-.03-.109-.059-.173-.091a2.857,2.857,0,0,1-.262-.14,1.276,1.276,0,0,1-.3-.272c-.023-.027-.055-.063-.069-.076-.053-.033-.114-.065-.179-.1s-.161-.085-.246-.137a1.03,1.03,0,0,1-.325-.356l-.031-.049c-.025-.009-.062-.021-.089-.029a1.413,1.413,0,0,1-.349-.147.922.922,0,0,0-.114-.04,1.41,1.41,0,0,1-.349-.148,1.3,1.3,0,0,1-.293-.269l-.045-.052-.041,0a.99.99,0,0,1-.493-.131,1.058,1.058,0,0,1-.32-.343c-.013-.02-.03-.046-.042-.062a1.845,1.845,0,0,1-.24-.2c-.033-.031-.068-.063-.094-.084l-.068-.01a1.055,1.055,0,0,1-.447-.142,1.192,1.192,0,0,1-.3-.3l-.034-.043-.036,0a1,1,0,0,1-.487-.136c-.086-.055-.165-.115-.234-.168s-.113-.086-.163-.118a1.266,1.266,0,0,1-.3-.281c-.022-.027-.052-.063-.067-.077a1.727,1.727,0,0,0-.158-.082,2.423,2.423,0,0,1-.271-.145,1.261,1.261,0,0,0-.152-.075,2.021,2.021,0,0,1-.289-.148.986.986,0,0,1-.327-.394l-.006-.011-.017,0a1.024,1.024,0,0,1-.463-.142,1,1,0,0,1-.325-.385l-.008-.015-.02,0a1.022,1.022,0,0,1-.463-.143,1.432,1.432,0,0,1-.278-.25.917.917,0,0,0-.086-.088c-.013-.007-.065-.022-.1-.034a1.317,1.317,0,0,1-.362-.154,1.635,1.635,0,0,0-.16-.085,2.4,2.4,0,0,1-.272-.148.787.787,0,0,1-.252-.276l-.11-.072a1.212,1.212,0,0,1-.4-.467c-.016-.029-.031-.055-.043-.075a1.03,1.03,0,0,0-.068-.078.962.962,0,0,1-.3-.569,1.78,1.78,0,0,1,.114-.72c.01-.03.02-.073.032-.119a1.311,1.311,0,0,1,.244-.558,1.011,1.011,0,0,1,.592-.306c.033-.007.083-.019.1-.025a.894.894,0,0,1,.363-.075,1.567,1.567,0,0,1,.278.03l.092.015a1.408,1.408,0,0,1,.621.247c.018.008.063.019.1.028a1.251,1.251,0,0,1,.379.154,1.812,1.812,0,0,1,.26.216,1.043,1.043,0,0,0,.117.1c.047.031.107.062.171.094a2.85,2.85,0,0,1,.257.144c.078.051.149.1.218.152s.125.09.184.129a2.316,2.316,0,0,1,.246.19c.04.034.078.066.112.092l.063.008a.879.879,0,0,1,.789.516l.025.042.074.022a1.305,1.305,0,0,1,.365.152,1.83,1.83,0,0,1,.261.212c.029.027.057.053.082.074l.048,0a.975.975,0,0,1,.5.131.819.819,0,0,1,.313.418c.031,0,.065,0,.1,0a.748.748,0,0,1,.415.111,1.063,1.063,0,0,1,.315.34c.014.021.031.047.043.063a1.421,1.421,0,0,1,.262.242.932.932,0,0,0,.08.083,1.085,1.085,0,0,0,.141.064,1.825,1.825,0,0,1,.3.148c.049.031.11.062.175.1s.166.085.255.141c.049.031.11.062.175.1s.162.083.248.136c.018.007.062.018.1.026a1.242,1.242,0,0,1,.384.146.9.9,0,0,1,.344.474l0,.005.025.006a1.228,1.228,0,0,1,.373.143,1.852,1.852,0,0,1,.256.2,1.258,1.258,0,0,0,.11.093c.018.007.059.017.089.024a1.228,1.228,0,0,1,.375.143c.087.054.164.113.231.164s.108.083.156.112c.067.042.134.085.2.128s.131.085.2.126a1.337,1.337,0,0,1,.282.248l.049.052.039,0a.984.984,0,0,1,.478.126l.2.124.2.121a1,1,0,0,1,.324.357l.013.021.03,0a1.065,1.065,0,0,1,.428.134,2.217,2.217,0,0,1,.246.181,1.415,1.415,0,0,0,.136.1,1.392,1.392,0,0,1,.28.238c.022.022.05.051.068.068l.066.011a1.082,1.082,0,0,1,.421.135c.086.052.164.109.232.16s.109.081.157.109a1.162,1.162,0,0,1,.3.286c.017.021.039.049.053.063s.073.027.109.039a1.511,1.511,0,0,1,.324.139,1.982,1.982,0,0,1,.252.187,1.22,1.22,0,0,0,.128.1,2.765,2.765,0,0,1,.237.164c.043.033.085.064.123.089l.073.005a1.038,1.038,0,0,1,.5.126c.065.039.135.076.209.116s.162.086.246.136a1.483,1.483,0,0,1,.3.25.918.918,0,0,0,.1.093,1.474,1.474,0,0,1,.3.252.931.931,0,0,0,.1.092c.084.05.125.07.172.094s.118.059.232.126a.207.207,0,0,0,.08.032,1.181,1.181,0,0,1,.351.141,1.718,1.718,0,0,1,.284.228c.03.028.071.066.108.1a1.6,1.6,0,0,0,.166-.157c.056-.058.11-.119.168-.182s.1-.116.158-.173c.009-.018.022-.053.032-.08a1.125,1.125,0,0,1,.225-.4,1.015,1.015,0,0,0,.094-.138,1.756,1.756,0,0,1,.22-.3.988.988,0,0,1,.5-.259l.061-.016c.029-.036.059-.078.091-.122a2.561,2.561,0,0,1,.206-.259c.061-.065.123-.13.185-.194s.123-.127.184-.192a1.342,1.342,0,0,0,.1-.138,2.126,2.126,0,0,1,.194-.252,1.525,1.525,0,0,1,.281-.228.908.908,0,0,0,.106-.078c.057-.062.115-.122.173-.182s.11-.114.164-.172.083-.1.128-.157.093-.12.148-.183c0-.017.01-.04.014-.057a.986.986,0,0,1,.216-.463.933.933,0,0,1,.483-.255l.021-.006.021-.046a1.284,1.284,0,0,1,.211-.343,1,1,0,0,0,.081-.124,1.715,1.715,0,0,1,.2-.281.994.994,0,0,1,.434-.258l.055-.02.123-.142c.055-.064.111-.129.168-.192a.926.926,0,0,0,.062-.108,1.459,1.459,0,0,1,.2-.31.954.954,0,0,0,.058-.1,1.412,1.412,0,0,1,.2-.318c.059-.066.119-.129.177-.19s.107-.112.155-.167.082-.1.127-.16.11-.146.178-.223a1.09,1.09,0,0,0,.087-.131,1.857,1.857,0,0,1,.192-.273,1.027,1.027,0,0,1,.411-.262l.061-.025c.064-.069.13-.129.189-.182a1.744,1.744,0,0,0,.135-.13.9.9,0,0,0,.057-.1,1.4,1.4,0,0,1,.2-.32c.049-.056.1-.114.147-.176s.109-.132.167-.2a1.317,1.317,0,0,1,.3-.245.917.917,0,0,0,.091-.062,2.18,2.18,0,0,1,.224-.216l.078-.07,0-.032a.908.908,0,0,1,.192-.538,1.016,1.016,0,0,1,.417-.267l.031-.013.015-.042a1.123,1.123,0,0,1,.2-.393,1.538,1.538,0,0,1,.272-.237.9.9,0,0,0,.1-.083,1.628,1.628,0,0,0,.107-.15,2.437,2.437,0,0,1,.18-.246,1.033,1.033,0,0,0,.085-.132,1.817,1.817,0,0,1,.189-.278,1.026,1.026,0,0,1,.4-.267l.063-.028a2.189,2.189,0,0,1,.208-.2,1.251,1.251,0,0,0,.123-.114,1.4,1.4,0,0,0,.1-.145,2.2,2.2,0,0,1,.182-.256c.008-.012.03-.061.046-.1a1.324,1.324,0,0,1,.2-.337c.05-.058.1-.119.147-.179s.108-.133.163-.2a1.4,1.4,0,0,0,.1-.146,2.2,2.2,0,0,1,.182-.257,1.3,1.3,0,0,1,.308-.252c.029-.018.067-.043.084-.057s.029-.061.043-.093a1.292,1.292,0,0,1,.2-.344.973.973,0,0,1,.44-.274l.052-.019.137-.165.138-.167.016-.019c.007-.013.017-.034.025-.05a.827.827,0,0,1,.422-.446A.857.857,0,0,1,45.148,11.243Zm.316,1.028a1.547,1.547,0,0,1-.2-.016.961.961,0,0,1-.152.221l-.122.148c-.058.071-.117.142-.177.213a.972.972,0,0,1-.441.274l-.034.012-.026.06a1.292,1.292,0,0,1-.2.344,1.306,1.306,0,0,1-.308.252,1.014,1.014,0,0,0-.087.059,1.485,1.485,0,0,0-.1.142,2.186,2.186,0,0,1-.183.258c-.05.059-.1.119-.147.179s-.107.133-.163.2a1.04,1.04,0,0,0-.047.1,1.324,1.324,0,0,1-.2.337,1.418,1.418,0,0,0-.1.144,2.182,2.182,0,0,1-.184.259,2.014,2.014,0,0,1-.233.224,1.254,1.254,0,0,0-.124.115,1.026,1.026,0,0,1-.4.268l-.058.026c-.02.028-.042.066-.065.106a1.807,1.807,0,0,1-.19.28,1.647,1.647,0,0,0-.106.148,2.422,2.422,0,0,1-.183.249,1.535,1.535,0,0,1-.273.238c-.032.024-.071.052-.093.071s-.018.05-.027.074a1.12,1.12,0,0,1-.205.394.991.991,0,0,1-.4.261.882.882,0,0,1-.192.52,2.2,2.2,0,0,1-.226.218,1.428,1.428,0,0,0-.129.121,1.31,1.31,0,0,1-.307.247.918.918,0,0,0-.091.062c-.046.052-.094.111-.145.172s-.109.132-.167.2a.957.957,0,0,0-.056.1,1.389,1.389,0,0,1-.2.323,2.539,2.539,0,0,1-.216.212,1.761,1.761,0,0,0-.134.129,1.027,1.027,0,0,1-.412.263l-.056.023c-.02.028-.043.066-.067.1a1.857,1.857,0,0,1-.192.273c-.041.046-.083.1-.127.16s-.111.148-.18.225-.12.13-.178.191-.107.112-.156.167a.907.907,0,0,0-.059.106,1.409,1.409,0,0,1-.2.317.916.916,0,0,0-.063.109,1.453,1.453,0,0,1-.2.311c-.052.058-.1.117-.154.176s-.111.129-.168.192a.993.993,0,0,1-.435.26l-.049.018c-.018.026-.038.06-.058.093a1.728,1.728,0,0,1-.2.278,1.023,1.023,0,0,0-.046.093,1.286,1.286,0,0,1-.209.341.916.916,0,0,1-.471.254.97.97,0,0,1-.212.45c-.042.046-.085.1-.13.159s-.113.145-.182.221-.121.128-.181.191-.106.109-.158.165a1.516,1.516,0,0,1-.282.229.891.891,0,0,0-.107.078,1.35,1.35,0,0,0-.1.139,2.11,2.11,0,0,1-.195.254c-.065.07-.131.138-.2.206s-.117.121-.174.182a1.76,1.76,0,0,0-.126.162,2.542,2.542,0,0,1-.208.261.989.989,0,0,1-.505.26l-.057.015c-.02.029-.042.065-.064.1a1.821,1.821,0,0,1-.205.287c-.009.018-.022.053-.032.08a1.121,1.121,0,0,1-.227.4c-.053.056-.1.112-.155.169s-.122.135-.187.2a1.329,1.329,0,0,1-.916.5c-.026,0-.053,0-.079,0a1.216,1.216,0,0,1-.682-.391c-.037-.034-.093-.086-.115-.1a.2.2,0,0,0-.076-.029,1.178,1.178,0,0,1-.351-.142c-.084-.05-.125-.07-.172-.094s-.119-.059-.233-.127a1.467,1.467,0,0,1-.3-.253.931.931,0,0,0-.1-.093,1.477,1.477,0,0,1-.3-.251.917.917,0,0,0-.1-.093c-.063-.038-.131-.073-.2-.111s-.146-.077-.222-.122l-.076-.006a1.035,1.035,0,0,1-.5-.127,2.729,2.729,0,0,1-.239-.166c-.055-.041-.106-.08-.152-.107a1.983,1.983,0,0,1-.253-.187,1.221,1.221,0,0,0-.128-.1.879.879,0,0,0-.12-.045,1.512,1.512,0,0,1-.324-.139,1.162,1.162,0,0,1-.3-.286c-.018-.022-.042-.052-.055-.065-.083-.051-.157-.106-.222-.154-.049-.036-.1-.071-.138-.1l-.072-.012a1.082,1.082,0,0,1-.421-.135,1.384,1.384,0,0,1-.281-.239.907.907,0,0,0-.082-.08,2.192,2.192,0,0,1-.246-.181c-.041-.033-.08-.065-.114-.089l-.068-.011a1.061,1.061,0,0,1-.43-.135,1,1,0,0,1-.324-.357l-.031-.05-.155-.094-.175-.106-.055,0a.982.982,0,0,1-.479-.127,1.329,1.329,0,0,1-.283-.248.91.91,0,0,0-.076-.078c-.069-.043-.139-.088-.21-.134l-.188-.12c-.088-.055-.165-.114-.234-.166-.052-.04-.1-.078-.147-.106-.018-.007-.059-.017-.09-.024a1.228,1.228,0,0,1-.375-.143,1.852,1.852,0,0,1-.256-.2,1.251,1.251,0,0,0-.111-.093c-.018-.007-.059-.017-.089-.024a1.225,1.225,0,0,1-.376-.144.9.9,0,0,1-.342-.473l0-.006L18.9,22a1.24,1.24,0,0,1-.386-.147c-.05-.032-.111-.063-.176-.1s-.166-.085-.254-.14c-.051-.032-.112-.063-.177-.1s-.166-.085-.255-.141a1.051,1.051,0,0,0-.143-.065,1.826,1.826,0,0,1-.3-.148,1.364,1.364,0,0,1-.286-.258.931.931,0,0,0-.08-.083,1.05,1.05,0,0,1-.311-.332c-.048,0-.1.009-.159.009a.746.746,0,0,1-.415-.112.846.846,0,0,1-.326-.453.927.927,0,0,1-.464-.129,1.846,1.846,0,0,1-.261-.213,1.064,1.064,0,0,0-.119-.1c-.013-.007-.064-.021-.1-.032a1.305,1.305,0,0,1-.365-.152A1.017,1.017,0,0,1,14,18.933l-.01-.018-.022,0a1.032,1.032,0,0,1-.466-.141,2.32,2.32,0,0,1-.248-.191,1.53,1.53,0,0,0-.142-.112c-.08-.052-.153-.1-.224-.155s-.122-.088-.18-.126-.105-.06-.168-.093a2.827,2.827,0,0,1-.261-.147,1.808,1.808,0,0,1-.261-.217,1.191,1.191,0,0,0-.111-.1c-.018-.008-.062-.019-.095-.028a1.249,1.249,0,0,1-.381-.155.435.435,0,0,0-.208-.095c-.046-.006-.09-.014-.133-.021s-.07-.012-.093-.014a1.573,1.573,0,0,1-.256.074l-.055.013c-.01.035-.021.079-.029.113-.015.063-.031.127-.053.194a1.585,1.585,0,0,0-.066.259l.036.04a1.549,1.549,0,0,1,.178.221l.007.012.2.133a.936.936,0,0,1,.331.437l.017.038c.033.018.071.036.11.055a2.421,2.421,0,0,1,.269.146,1.038,1.038,0,0,0,.1.034,1.32,1.32,0,0,1,.36.153,1.429,1.429,0,0,1,.279.251c.019.021.045.049.065.068l.057.007a1.023,1.023,0,0,1,.462.142,1,1,0,0,1,.324.385l.008.014.02,0a1.024,1.024,0,0,1,.463.142.986.986,0,0,1,.327.394l.025.046c.032.017.072.034.113.053a2.034,2.034,0,0,1,.287.148,1.628,1.628,0,0,0,.163.085,2.421,2.421,0,0,1,.271.145,1.27,1.27,0,0,1,.294.28c.022.027.052.063.067.077.084.054.16.112.227.163.045.035.088.068.129.1l.058,0a1,1,0,0,1,.485.134,1.2,1.2,0,0,1,.3.3l.041.052.053.008a1.055,1.055,0,0,1,.447.142,1.74,1.74,0,0,1,.264.215,1.007,1.007,0,0,0,.115.1,1.063,1.063,0,0,1,.319.343l.015.022h.02a.99.99,0,0,1,.493.131,1.3,1.3,0,0,1,.292.268c.023.027.055.064.07.077a1,1,0,0,0,.112.039,1.413,1.413,0,0,1,.346.147.965.965,0,0,0,.113.039,1.418,1.418,0,0,1,.346.146,1.03,1.03,0,0,1,.325.356l.036.056c.046.027.1.055.153.083.079.042.161.085.246.137a1.284,1.284,0,0,1,.3.271c.023.027.055.064.069.076.049.03.108.059.17.089a2.88,2.88,0,0,1,.261.139.91.91,0,0,0,.128.05,1.583,1.583,0,0,1,.326.144,1.179,1.179,0,0,1,.307.3c.018.023.043.055.057.069a1.547,1.547,0,0,0,.147.068,2.125,2.125,0,0,1,.285.14c.058.036.122.07.19.106s.156.082.237.132.156.1.227.152c.046.032.091.064.134.092h.051a.96.96,0,0,1,.516.116,2.841,2.841,0,0,1,.244.172c.057.043.11.084.158.113s.113.062.179.094.166.082.253.136a1.168,1.168,0,0,1,.311.3c.018.023.043.054.056.068.046.027.1.054.163.083.08.039.17.083.261.138a1.424,1.424,0,0,1,.287.241c.025.025.06.062.08.078s.059.013.088.019a1.193,1.193,0,0,1,.406.137,1.878,1.878,0,0,1,.268.2,1.114,1.114,0,0,0,.128.1c.09.053.17.112.242.163s.117.084.17.116a.939.939,0,0,0,.121.04,1.456,1.456,0,0,1,.35.14l.03.019c.071.049.148.1.23.147l.142.088a.858.858,0,0,0,.128.055,1.74,1.74,0,0,1,.275.124,1.128,1.128,0,0,1,.3.272c.015.019.036.043.048.056a1.036,1.036,0,0,1,.286.257,1.123,1.123,0,0,1,.233-.028.713.713,0,0,1,.267.05,1.026,1.026,0,0,1,.381.276l.018-.007a1.3,1.3,0,0,1,.372-.094c.07-.005.158,0,.244,0l.089,0a.4.4,0,0,0,.094-.007L30.768,30a2.076,2.076,0,0,0,.313-.1,1.893,1.893,0,0,1,.235-.118.983.983,0,0,0,.122-.059,1.562,1.562,0,0,0,.142-.133c.032-.033.067-.068.105-.1l.007-.028A.907.907,0,0,1,31.92,29a2.387,2.387,0,0,1,.185-.162,1.15,1.15,0,0,0,.126-.111,1.391,1.391,0,0,0,.1-.149c.038-.059.082-.127.134-.194l.032-.038a1.015,1.015,0,0,1,.439-.251l0,0a.964.964,0,0,1,.221-.481c.048-.052.1-.109.15-.169s.114-.131.176-.2A1.162,1.162,0,0,1,33.854,27c.027-.013.062-.031.079-.041a2.512,2.512,0,0,1,.217-.2c.049-.041.1-.08.129-.115.01-.018.025-.055.037-.084a1.189,1.189,0,0,1,.218-.368c.059-.063.119-.125.179-.187s.109-.112.162-.169a1.064,1.064,0,0,1,.392-.252l.058-.025c.012-.021.027-.053.038-.078a1.3,1.3,0,0,1,.212-.338,1.886,1.886,0,0,1,.247-.219,1.125,1.125,0,0,0,.124-.105,1.686,1.686,0,0,1,.267-.228.957.957,0,0,0,.115-.092.94.94,0,0,0,.06-.106,1.423,1.423,0,0,1,.207-.317c.041-.045.083-.1.128-.16s.112-.147.18-.223a1.281,1.281,0,0,1,.325-.246c.031-.018.072-.042.088-.054.054-.061.111-.122.168-.184s.107-.115.16-.174.107-.118.161-.177.114-.123.169-.186a.88.88,0,0,0,.074-.12,1.584,1.584,0,0,1,.2-.3,1.211,1.211,0,0,0,.094-.137,1.966,1.966,0,0,1,.192-.267,1.006,1.006,0,0,0,.082-.128,1.743,1.743,0,0,1,.195-.283,1.131,1.131,0,0,1,.36-.256l.058-.03c.007-.018.016-.042.023-.062a1.146,1.146,0,0,1,.208-.384,1.21,1.21,0,0,1,.333-.251c.028-.016.066-.037.081-.049a1.558,1.558,0,0,1,.268-.227c.03-.022.066-.047.089-.066.007-.018.015-.045.021-.066a1.071,1.071,0,0,1,.207-.413c.065-.074.129-.138.19-.2s.1-.1.147-.154a1.33,1.33,0,0,0,.1-.142,2.122,2.122,0,0,1,.186-.258.942.942,0,0,1,.447-.265.968.968,0,0,1,.2-.466,1.531,1.531,0,0,0,.1-.146,2.3,2.3,0,0,1,.184-.252c.037-.043.077-.1.119-.158s.107-.152.175-.231a1.012,1.012,0,0,1,.419-.269l.052-.021c.018-.027.038-.063.058-.1a1.744,1.744,0,0,1,.19-.284,1.2,1.2,0,0,1,.331-.256l.05-.029.009-.038a1.008,1.008,0,0,1,.2-.456,1.569,1.569,0,0,0,.1-.149,2.358,2.358,0,0,1,.181-.251,1.484,1.484,0,0,1,.276-.241.909.909,0,0,0,.1-.079c.06-.072.122-.137.181-.2s.1-.109.146-.161a2.417,2.417,0,0,1,.215-.218,1.614,1.614,0,0,0,.131-.13.986.986,0,0,0,.077-.127,1.712,1.712,0,0,1,.188-.289.994.994,0,0,1,.426-.274l.012,0,0-.017a1.019,1.019,0,0,1,.2-.445l.021-.024a1.167,1.167,0,0,1,.263-.2c0-.019,0-.037,0-.053,0-.046-.008-.1-.01-.152-.009-.019-.025-.047-.037-.069a1.7,1.7,0,0,1-.1-.195,1.282,1.282,0,0,1-.069-.271l0-.013-.069-.024c-.044-.015-.095-.032-.146-.053a.668.668,0,0,0-.168-.014Z" transform="translate(-5.521 -6.421)" fill="#0d4b08"/><path d="M118.373,15.627c-.237.034-.217.168-.454.2s-.256-.1-.492-.064-.225.115-.462.149-.232.067-.469.1-.249-.047-.486-.013-.214.186-.452.221-.254-.088-.491-.053-.239.018-.476.052-.219.157-.455.191-.257-.11-.493-.076-.235.043-.471.077-.222.137-.46.171-.223.125-.461.16-.267-.174-.5-.139-.232.075-.47.109-.223.13-.461.164-.249-.049-.487-.015-.213.193-.45.228-.263-.139-.5-.1-.215.194-.453.228-.265-.145-.5-.111-.231.085-.47.12-.245.076-.5.113-.267-.068-.518-.032-.26,0-.51.046c-.148.042-.223.272-.338.361s-.3.131-.376.26.02.311,0,.46a1.027,1.027,0,0,0-.033.422c.044.146-.007.361.083.473s.331.086.459.159.235.213.382.233a1.269,1.269,0,0,0,.438-.109c.236-.04.225-.12.462-.154s.259.123.5.088.233-.058.47-.092.251.068.489.033.232-.067.469-.1.226-.107.462-.141.254.085.491.051.23-.082.467-.117.233-.054.47-.089.239-.014.474-.048.208-.228.444-.263.242,0,.48-.035.233-.062.47-.1.254.087.491.052.233-.064.471-.1.249.05.487.016.22-.155.458-.189.245.024.481-.01.242-.006.48-.041.226-.119.464-.154.238-.044.476-.079.231-.092.47-.126.267.079.517.042.271.1.522.062.216-.256.466-.3c.148-.042.371.087.485,0s.119-.312.192-.44a1.188,1.188,0,0,0,.2-.4,1.244,1.244,0,0,0-.006-.464,1.423,1.423,0,0,0-.168-.452,1.387,1.387,0,0,0-.388-.289c-.128-.073-.329.062-.478.042a1.208,1.208,0,0,0-.452-.019c-.05-.023.014-.167.013-.167" transform="translate(-55.886 -8.466)" fill="#fefffd"/><path d="M118.373,15.627c-.237.034-.217.168-.454.2s-.256-.1-.492-.064-.225.115-.462.149-.232.067-.469.1-.249-.047-.486-.013-.214.186-.452.221-.254-.088-.491-.053-.239.018-.476.052-.219.157-.455.191-.257-.11-.493-.076-.235.043-.471.077-.222.137-.46.171-.223.125-.461.16-.267-.174-.5-.139-.232.075-.47.109-.223.13-.461.164-.249-.049-.487-.015-.213.193-.45.228-.263-.139-.5-.1-.215.194-.453.228-.265-.145-.5-.111-.231.085-.47.12-.245.076-.5.113-.267-.068-.518-.032-.26,0-.51.046c-.148.042-.223.272-.338.361s-.3.131-.376.26.02.311,0,.46a1.027,1.027,0,0,0-.033.422c.044.146-.007.361.083.473s.331.086.459.159.235.213.382.233a1.269,1.269,0,0,0,.438-.109c.236-.04.225-.12.462-.154s.259.123.5.088.233-.058.47-.092.251.068.489.033.232-.067.469-.1.226-.107.462-.141.254.085.491.051.23-.082.467-.117.233-.054.47-.089.239-.014.474-.048.208-.228.444-.263.242,0,.48-.035.233-.062.47-.1.254.087.491.052.233-.064.471-.1.249.05.487.016.22-.155.458-.189.245.024.481-.01.242-.006.48-.041.226-.119.464-.154.238-.044.476-.079.231-.092.47-.126.267.079.517.042.271.1.522.062.216-.256.466-.3c.148-.042.371.087.485,0s.119-.312.192-.44a1.188,1.188,0,0,0,.2-.4,1.244,1.244,0,0,0-.006-.464,1.423,1.423,0,0,0-.168-.452,1.387,1.387,0,0,0-.388-.289c-.128-.073-.329.062-.478.042a1.208,1.208,0,0,0-.452-.019C118.31,15.771,118.375,15.627,118.373,15.627Z" transform="translate(-55.886 -8.466)" fill="none"/><path d="M116.134,30.368c-.245.036-.261-.079-.507-.043s-.249,0-.494.038-.258-.056-.5-.021-.222.2-.468.238-.258-.048-.5-.013-.249.013-.494.049-.252,0-.5.037-.234.122-.48.158-.23.15-.476.186-.265-.1-.51-.064-.26-.056-.507-.02-.227.17-.474.205-.267-.1-.515-.061-.236.116-.484.152-.24.068-.485.1-.26-.053-.5-.01c-.148.042-.221.247-.334.336s-.3.124-.377.252a1.261,1.261,0,0,0-.162.435c-.018.144.111.285.151.434s-.01.347.08.46a1.335,1.335,0,0,0,.364.3c.128.072.311.027.459.048s.268-.078.417-.115c.244-.042.278.172.523.136s.239-.076.483-.112.231-.131.476-.166.258.047.5.012.222-.2.468-.231.271.138.516.1.223-.195.47-.231.272.144.518.109.239-.086.485-.122.24-.076.485-.111.262.069.508.033.251-.009.5-.044.222-.21.47-.246.265.081.512.045.223-.183.468-.219.254.035.5-.008c.148-.042.36.012.474-.077s.089-.331.163-.46.213-.236.232-.385a1.227,1.227,0,0,0-.114-.434c-.045-.146-.174-.207-.265-.32s-.091-.319-.219-.391a1.2,1.2,0,0,0-.43-.121,1.621,1.621,0,0,0-.524-.038c-.041.053.1.2.1.2" transform="translate(-56.775 -16.12)" fill="#0d4b08"/><path d="M116.134,30.368c-.245.036-.261-.079-.507-.043s-.249,0-.494.038-.258-.056-.5-.021-.222.2-.468.238-.258-.048-.5-.013-.249.013-.494.049-.252,0-.5.037-.234.122-.48.158-.23.15-.476.186-.265-.1-.51-.064-.26-.056-.507-.02-.227.17-.474.205-.267-.1-.515-.061-.236.116-.484.152-.24.068-.485.1-.26-.053-.5-.01c-.148.042-.221.247-.334.336s-.3.124-.377.252a1.261,1.261,0,0,0-.162.435c-.018.144.111.285.151.434s-.01.347.08.46a1.335,1.335,0,0,0,.364.3c.128.072.311.027.459.048s.268-.078.417-.115c.244-.042.278.172.523.136s.239-.076.483-.112.231-.131.476-.166.258.047.5.012.222-.2.468-.231.271.138.516.1.223-.195.47-.231.272.144.518.109.239-.086.485-.122.24-.076.485-.111.262.069.508.033.251-.009.5-.044.222-.21.47-.246.265.081.512.045.223-.183.468-.219.254.035.5-.008c.148-.042.36.012.474-.077s.089-.331.163-.46.213-.236.232-.385a1.227,1.227,0,0,0-.114-.434c-.045-.146-.174-.207-.265-.32s-.091-.319-.219-.391a1.2,1.2,0,0,0-.43-.121,1.621,1.621,0,0,0-.524-.038C115.991,30.226,116.134,30.368,116.134,30.368Z" transform="translate(-56.775 -16.12)" fill="#fefffd"/><path d="M114.071,44.569c-.248.036-.226.187-.474.223s-.272-.131-.521-.095-.251.01-.5.046-.232.149-.48.185-.259-.033-.508,0-.238.117-.488.153-.243.081-.493.117-.247.03-.493.072c-.142.039-.3.025-.418.114a1.25,1.25,0,0,0-.333.313,1.351,1.351,0,0,0-.2.44c-.021.149.221.284.258.427a.9.9,0,0,0,.181.349c.088.116.1.282.235.359l-.015.03c.135.068.273.206.421.225s.3-.152.452-.184c.248-.04.261.048.509.012s.251-.014.5-.05.252,0,.5-.037.236-.123.485-.159.232-.151.481-.187.269.1.519.063.263.056.513.019.228-.163.474-.205c.142-.039.345.005.461-.083a1.335,1.335,0,0,0,.246-.4,1.191,1.191,0,0,0,.115-.441,1.279,1.279,0,0,0,.051-.468c-.04-.142-.241-.208-.33-.323s-.116-.3-.243-.376a1.448,1.448,0,0,0-.442-.154c-.148-.019-.323.107-.471.139-.035-.009,0-.131,0-.131" transform="translate(-57.729 -23.703)" fill="#fefffd"/><path d="M114.071,44.569c-.248.036-.226.187-.474.223s-.272-.131-.521-.095-.251.01-.5.046-.232.149-.48.185-.259-.033-.508,0-.238.117-.488.153-.243.081-.493.117-.247.03-.493.072c-.142.039-.3.025-.418.114a1.25,1.25,0,0,0-.333.313,1.351,1.351,0,0,0-.2.44c-.021.149.221.284.258.427a.9.9,0,0,0,.181.349c.088.116.1.282.235.359l-.015.03c.135.068.273.206.421.225s.3-.152.452-.184c.248-.04.261.048.509.012s.251-.014.5-.05.252,0,.5-.037.236-.123.485-.159.232-.151.481-.187.269.1.519.063.263.056.513.019.228-.163.474-.205c.142-.039.345.005.461-.083a1.335,1.335,0,0,0,.246-.4,1.191,1.191,0,0,0,.115-.441,1.279,1.279,0,0,0,.051-.468c-.04-.142-.241-.208-.33-.323s-.116-.3-.243-.376a1.448,1.448,0,0,0-.442-.154c-.148-.019-.323.107-.471.139C114.032,44.69,114.072,44.569,114.071,44.569Z" transform="translate(-57.729 -23.703)" fill="none"/></g></svg>