<svg xmlns="http://www.w3.org/2000/svg" width="250" height="185"><defs><clipPath id="a"><path fill="none" d="M0 0h129.488v185H0z"/></clipPath></defs><path fill="none" d="M0 0h250v184.473H0z"/><g clip-path="url(#a)" transform="translate(60.493)"><path fill="#407b3e" d="M77.982 130.398h49.443c-1.439 11.3-7.927 22.607-24.725 22.607-15.708 0-23.262-11.312-24.717-22.607Z"/><path fill="#0d4b08" d="M88.058 98.639a7 7 0 0 0-.988-.11c-.317.055-.573.391-.875.492a6 6 0 0 0-.9.323 14 14 0 0 0-1.64 1.02 7 7 0 0 0-.73.676c-.172.254.05.759-.1 1.025s-.608.371-.74.647-.146.61-.257.9c-.162.359-.49.645-.648 1.006s0 .859-.15 1.222-.426.675-.575 1.039c-.135.315-.023.729-.152 1.045s-.739.445-.862.764.14.783.023 1.1-.473.557-.585.881-.334.612-.44.937-.024.711-.123 1.038-.465.579-.559.908.055.727-.033 1.058-.23.648-.312.98.12.73.044 1.064-.525.585-.6.919-.217.659-.281 1 .153.725.1 1.062.122.7.072 1.034-.169.653-.209.988-.557.623-.588.959.3.7.279 1.041-.09.671-.1 1.008-.172.675-.173 1.012.386.671.395 1.008.06.666.078 1-.334.7-.306 1.034.292.65.329.985-.109.694-.061 1.028-.084.7-.027 1.034.247.647.313.978.539.572.615.9 0 .689.085 1.016-.177.751-.082 1.075.7.49.807.812.2.636.314.954.106.675.229.989.342.584.474.9.231.627.372.935.311.578.465.873.335.564.5.853.067.732.245 1.013.586.408.775.681.135.72.335.986.443.5.654.76.678.292.9.54.238.678.469.917.629.306.869.537.481.446.731.667.249.73.508.94.784.074 1.051.274.47.47.745.658.3.757.582.934.795-.024 1.085.143.5.462.8.616.5.509.8.651.632.241.94.372.746-.074 1.061.037.667.1.986.2.574.4.9.489.679.03 1 .11.641.167.969.235.585.5.914.556.648.241.979.288.705-.2 1.038-.162.656.208.99.232.679-.117 1.014-.1.668.193 1 .2.663-.4 1-.406.673.168 1.008.147.667-.04 1-.072.681.058 1.014.015.618-.38.949-.434.715.2 1.044.135.658-.143.984-.218.564-.494.887-.581.665-.087.986-.184.77.194 1.087.086.529-.541.844-.666.609-.3.918-.437.544-.421.847-.573.705-.108 1-.274.532-.429.82-.607.668-.216.948-.408.7-.2.975-.4.5-.479.763-.694.538-.43.791-.656.3-.68.538-.918.427-.523.659-.771.451-.5.672-.756.346-.581.555-.849.654-.353.851-.629.374-.567.559-.852.282-.622.454-.915.256-.625.415-.926.39-.549.534-.851.094-.687.229-.993.766-.4.892-.713-.239-.811-.122-1.124.688-.466.8-.782.146-.662.245-.981.207-.642.3-.964.084-.673.164-1 .251-.632.322-.959-.132-.709-.071-1.038.352-.619.4-.949-.239-.708-.2-1.04.162-.65.194-.983.149-.657.172-.99.206-.66.219-1-.182-.674-.178-1.008.236-.672.23-1.006-.03-.673-.046-1.007-.057-.671-.083-1-.009-.687-.043-1.025-.327-.651-.367-.989.065-.7.018-1.033.061-.7.007-1.037-.495-.607-.556-.942.068-.706 0-1.04-.139-.667-.214-1-.292-.631-.374-.961-.167-.659-.256-.987.1-.737.005-1.064-.123-.679-.225-1-.572-.532-.681-.856.036-.733-.08-1.054-.456-.541-.57-.854.087-.742-.032-1.052-.376-.569-.5-.877-.179-.645-.3-.952-.716-.423-.845-.729.1-.76-.037-1.065-.194-.64-.328-.943-.624-.431-.757-.722-.271-.576-.418-.861-.249-.581-.421-.852-.154-.675-.36-.924a6 6 0 0 0-.651-.735c-.235-.207-.66-.16-.943-.336-.321-.175-.537-.547-.877-.673a8 8 0 0 0-1.065-.265 8 8 0 0 0-1.094 0 7.4 7.4 0 0 0-1.079.047c-.521.01-.524.075-1.046.075s-.521-.467-1.042-.467-.522.267-1.044.267-.522-.194-1.045-.194-.523.335-1.046.335-.523-.406-1.045-.406-.522.059-1.044.059-.523.3-1.045.3-.523-.383-1.046-.383-.523.534-1.046.534-.523-.151-1.046-.151-.523.131-1.045.131-.524-.014-1.048-.014-.521-.238-1.042-.238-.521.095-1.042.095-.522-.036-1.043-.036-.524.2-1.048.2-.531-.2-1.059-.2-.523.038-1.046.038-.525-.2-1.049-.2-.524-.013-1.048-.013-.524.069-1.049.069-.522.025-1.044.025-.525-.025-1.05-.025-.526.133-1.052.133-.527.007-1.054.007-.53-.364-1.057-.358a1.93 1.93 0 0 0-1.142.713 1.7 1.7 0 0 0-.47 1.174c.014.416.443.616.719.89a1.16 1.16 0 0 0 .9.41c.512 0 .509.438 1.021.438s.511-.454 1.022-.454.511.1 1.022.1.512.284 1.023.284.513-.111 1.025-.111.513-.111 1.026-.111.512.243 1.024.243.512-.1 1.024-.1.512.008 1.024.008.513-.177 1.026-.177.513.361 1.026.361.512-.556 1.024-.556.513.06 1.026.06.513.065 1.026.065.511.441 1.023.441.51-.487 1.021-.487.511.118 1.023.118.514.119 1.027.119.513-.014 1.026-.014.512-.258 1.025-.258.514.054 1.029.054.513.118 1.027.118.514-.174 1.028-.174.512.422 1.024.422.515-.171 1.029-.171.516-.037 1.031-.037.517-.2 1.034-.2.517.221 1.033.21a3.7 3.7 0 0 1 1.046-.04 3.9 3.9 0 0 1 1.041.286c.3.166.247.775.482 1.023s.7.3.848.613.365.593.515.905-.047.785.1 1.1.416.569.555.886.558.516.692.835-.08.781.048 1.1.413.58.536.9.278.635.4.96.228.654.34.982.351.614.458.943.267.645.368.976-.214.785-.118 1.118.33.624.421.958.1.691.19 1.026.519.586.6.923-.059.727.012 1.066-.05.713.011 1.055.252.658.3 1 .182.675.223 1.019-.195.715-.163 1.06.282.67.3 1.016.33.683.342 1.029-.5.7-.5 1.051.537.7.528 1.045-.134.7-.152 1.042-.423.667-.451 1.012.263.721.225 1.065-.172.68-.22 1.023-.313.651-.371.994.321.764.254 1.1-.216.67-.293 1.008-.187.673-.274 1.009-.5.582-.6.916-.109.683-.217 1.011-.2.659-.324.981-.41.572-.548.889.213.863.059 1.173-.46.551-.629.854-.456.539-.638.834-.316.622-.512.907-.356.6-.566.879-.413.565-.635.831-.651.351-.887.605-.563.407-.811.65-.5.461-.759.691-.457.516-.727.735-.419.583-.7.79-.713.152-1 .33-.423.627-.724.79-.538.47-.847.617-.65.251-.965.385-.738.006-1.06.125-.7.046-1.027.15-.616.3-.946.39-.56.591-.894.667-.771-.336-1.108-.273-.644.27-.983.32-.7-.154-1.043-.117-.668.1-1.01.129-.656.554-1 .566-.694-.115-1.036-.115-.678-.312-1.02-.324-.682.021-1.023 0-.724.376-1.064.341-.645-.415-.983-.462-.678-.139-1.019-.2-.673-.152-1.01-.228-.756.144-1.089.05-.615-.378-.944-.488-.764.05-1.088-.076-.427-.78-.743-.92-.635-.253-.945-.41-.721-.112-1.022-.282-.666-.245-.959-.431-.544-.441-.828-.64-.574-.395-.847-.607-.42-.579-.683-.8-.421-.554-.673-.792-.86-.118-1.1-.368-.388-.6-.616-.857-.572-.444-.787-.716-.36-.593-.552-.874.063-.85-.118-1.137-.424-.525-.594-.818-.647-.416-.806-.715-.157-.683-.305-.988-.538-.5-.675-.813 0-.736-.13-1.051-.067-.692-.18-1.012-.285-.611-.387-.934-.5-.559-.591-.886.238-.756.161-1.086-.649-.554-.714-.887-.1-.679-.15-1.014.419-.739.379-1.076-.125-.657-.153-1-.509-.645-.524-.984.034-.7.026-1.045.085-.7.087-1.042.24-.686.252-1.032-.147-.7-.125-1.043.212-.676.244-1.021.139-.676.179-1.02.052-.685.1-1.028.035-.691.093-1.032-.079-.717-.013-1.057.427-.617.5-.955.135-.674.216-1.011-.034-.72.054-1.055.413-.6.507-.935.094-.69.195-1.021.211-.657.318-.986.08-.7.193-1.029.229-.653.347-.979.124-.693.247-1.017.087-.712.214-1.034.521-.539.653-.86.445-.564.581-.882-.182-.836-.042-1.152.3-.627.448-.942.5-.533.643-.846a3.4 3.4 0 0 1 .464-.876 3.5 3.5 0 0 1 .663-.749c.261-.2.5-.547.813-.665a4 4 0 0 1 1.047-.159c.377-.01.823.227 1.061.045a2.1 2.1 0 0 0 .692-.9c.092-.317-.322-.707-.407-1.021a1.3 1.3 0 0 0-.438-.795c-.24-.175-.509-.085-.893-.075 0 0 0-.24-.007-.24"/><path fill="#0d4b08" d="M97.327 154.524c0 .5.344.5.344 1s.062.5.062 1-.063.5-.063 1 .131.5.131 1-.136.5-.136.994.163.5.163 1-.405.5-.405 1 .213.5.213 1-.352.5-.352 1-.028.5-.028 1 .442.5.442 1-.071.5-.071 1 .1.5.1 1 .1.5.1 1-.547.5-.547 1 .169.5.169 1.006-.459.962.007 1.156c.444.184.367-.521.659-.9s.2-.406.376-.852c-.314.092-.524-.011-.833.092s-.5.546-.81.659-.635.168-.936.291-.483.515-.781.649-.72-.008-1.013.137-.469.506-.756.66-.541.352-.822.517-.6.261-.872.435-.648.2-.918.379-.6.307-.847.518-.592.346-.825.573-.5.463-.714.71-.167.715-.348.984a7 7 0 0 0-.581.8c-.143.294-.02.682-.112 1s-.341.578-.375.907a5.4 5.4 0 0 0-.118.988c.026.314.289.6.373.932a5 5 0 0 0 .255.954c.155.31.186.715.4.957s.657.287.93.476a4.8 4.8 0 0 0 .84.516 6.6 6.6 0 0 0 .935.341 9 9 0 0 0 .961.3c.326.048.659.19.994.214s.686-.417 1.018-.41.667.361 1 .359.672-.13 1-.136c.345-.006.679.174 1 .174.52 0 .52-.344 1.041-.344s.519.131 1.038.131.519-.262 1.038-.262.521.52 1.041.52.52-.408 1.04-.408.521.256 1.041.256.519.119 1.037.119.521-.193 1.043-.193.521.277 1.043.277.524-.249 1.047-.249.524.059 1.047.059c.332 0 .665-.288 1-.288s.665.384 1 .384.665.08 1 .08.665-.283 1-.283.671-.245 1.02-.267.678.019 1.019-.034.8.341 1.125.245.55-.558.858-.71a4.7 4.7 0 0 0 .9-.5 4.4 4.4 0 0 0 .845-.646c.219-.286.059-.768.192-1.073a3.6 3.6 0 0 0 .236-.939c.055-.341.441-.649.418-.994s-.309-.642-.4-.979a7 7 0 0 0-.157-1.032 9 9 0 0 0-.315-1.021 10 10 0 0 0-.7-.8c-.211-.277-.742-.269-.976-.516a10 10 0 0 0-.624-.806c-.266-.2-.318-.7-.591-.891s-.849.055-1.13-.129-.549-.365-.836-.538-.5-.451-.8-.613-.631-.226-.93-.377-.577-.327-.882-.467-.615-.246-.925-.375-.623-.221-.938-.338-.522-.523-.84-.628-.44-.245-.762-.339c.174.448.018.511.309.892s.209.924.655.746c.464-.186-.315-.527-.315-1.026s.279-.5.279-1-.235-.5-.235-1v-1c0-.5.39-.5.39-.994s-.432-.5-.432-1 .1-.5.1-1 .461-.5.461-1-.438-.5-.438-1 .158-.5.158-1 .229-.5.229-1-.044-.5-.044-1-.337-.5-.337-1-.128-.5-.128-1 .213-.5.213-1-.149-.5-.149-1.006.021-.5.016-1c-.016-.438.12-.94-.178-1.217a2.05 2.05 0 0 0-1.253-.6c-.417.015-.78.476-1.055.75a1.74 1.74 0 0 0-.608 1.06c0 .5.161.5.161 1s-.174.5-.174 1 .4.5.4 1-.193.5-.193 1-.006.5-.006.994-.129.5-.129 1 .293.5.293 1-.319.5-.319 1 .006.5.006 1 .348.5.348 1-.094.5-.094 1-.418.5-.418 1 .331.5.331 1 .044.5.044 1 .154.5.154 1-.229.5-.229 1.006.105.5.108 1.006a1.6 1.6 0 0 0 .166.976c.205.268.443.716.784.817s.675.132 1 .244.64.244.963.37.757-.023 1.075.115.665.222.978.373.628.306.934.469.67.239.969.413.441.616.734.8a8 8 0 0 1 .931.637 8 8 0 0 1 .89.711 8.4 8.4 0 0 1 .783.842 3 3 0 0 1 .37 1.143 3.3 3.3 0 0 1 .175 1.24c-.118.274-.717.137-1.01.274-.253.119-.4.686-.71.735-.3.047-.65-.414-.948-.4-.327.012-.63.08-.895.08-.513 0-.513-.014-1.026-.014s-.513.094-1.027.094-.514-.1-1.028-.1-.512.273-1.024.273-.511-.237-1.022-.237-.513.34-1.025.34-.514-.085-1.029-.085-.513-.089-1.026-.089-.514-.166-1.027-.166-.515.2-1.03.2-.514-.234-1.029-.234-.515.011-1.029.011-.513.02-1.026.02-.515-.047-1.031-.047-.516.257-1.032.257-.518-.151-1.036-.151-.524-.174-1.042-.162c-.373.037-.744.438-1.118.429a10 10 0 0 1-1.1-.292 9 9 0 0 1-1.086-.23 1.57 1.57 0 0 1-.906-.636 1.67 1.67 0 0 1-.123-1.144c.1-.388.507-.634.7-.979a4.2 4.2 0 0 1 .723-.86c.271-.285.317-.813.657-1.024.278-.2.71-.167 1-.354s.442-.577.735-.752.755-.047 1.056-.209.531-.444.839-.592.642-.222.956-.358.444-.727.763-.849.776.123 1.1.014.67-.134 1-.227.4-.606.6-.875a1.2 1.2 0 0 0 .285-.815c0-.5.056-.5.056-1s.251-.5.251-1 .043-.5.043-1-.3-.5-.3-1 .252-.5.252-.994-.042-.5-.042-1-.152-.5-.152-1-.04-.5-.04-1-.075-.5-.075-1 .469-.5.469-1-.269-.5-.269-1 .195-.5.195-1-.335-.5-.335-1 .406-.5.406-1-.059-.5-.059-1-.3-.5-.3-1.006.39-.507.384-1.009c-.015-.438-.655-.622-.952-.9s-.508-.517-.947-.5a1.25 1.25 0 0 0-.89.519 1.14 1.14 0 0 0-.4.891h-.444M86.235 132.22c.513 0 .515-.473 1.028-.473s.514.03 1.027.03.515.249 1.029.249.514-.074 1.028-.074.513-.234 1.026-.234.513.466 1.025.466.513-.368 1.026-.368.513.169 1.027.169.514.163 1.028.163.515-.051 1.029-.051.514-.162 1.028-.162.513-.061 1.027-.061.514.136 1.028.136.514.171 1.029.171.514-.343 1.029-.343.514-.062 1.028-.062.515.063 1.029.063.515-.13 1.03-.13.513.135 1.026.135.512-.163 1.025-.163.513.4 1.026.4.516-.212 1.031-.212.514.351 1.029.351.514.028 1.028.028.517-.441 1.033-.441.515.072 1.03.072.516-.1 1.032-.1.514-.1 1.027-.1.517.546 1.033.546.517-.17 1.035-.17.518.093 1.037.093.519-.139 1.038-.145c.438-.015.677-.365.954-.662s.886-.568.87-1.006c-.015-.416-.527-.735-.8-1.009a1.53 1.53 0 0 0-1.022-.514c-.513-.006-.513.288-1.026.288s-.514-.308-1.027-.308-.515.24-1.029.24-.514.049-1.028.049-.513-.08-1.026-.08-.513-.186-1.026-.186-.512-.117-1.025-.117-.514-.128-1.027-.128-.514-.037-1.028-.037-.515.318-1.029.318-.514-.1-1.028-.1-.514.256-1.027.256-.514-.191-1.028-.191-.514-.107-1.029-.107-.515.213-1.029.213-.514-.092-1.028-.092-.515-.2-1.029-.2-.515.264-1.03.264-.513-.051-1.026-.051-.512-.028-1.025-.028-.513-.11-1.026-.11-.516-.108-1.031-.108-.514.455-1.029.455-.514-.353-1.029-.353-.516.121-1.032.121-.515-.184-1.03-.184-.516.344-1.032.344-.514-.131-1.027-.131-.517.261-1.033.261-.518-.52-1.035-.52-.518.409-1.037.409-.52-.261-1.038-.256a1.9 1.9 0 0 0-1.253.448 1.85 1.85 0 0 0-.284 1.273c.015.416-.006.99.269 1.264a2.16 2.16 0 0 0 1.266.5"/><path fill="#407b3e" d="M21.7 8.113c0 6.994-.051 16.809-.051 25.826 0 5.071-4.409 6.789-8.165 8.926-3.943 2.243-7.423 5.066-9.384 9.247C1.283 58.138 2 65.23 2 71.707v98.43a12.994 12.994 0 0 0 13.013 12.976h28.338a12.994 12.994 0 0 0 13.013-12.976V71.704c0-6.477.723-13.568-2.1-19.6-1.957-4.181-5.437-7.005-9.376-9.247-3.755-2.138-8.163-3.851-8.163-8.927 0-9.013-.051-18.828-.051-25.826"/><path fill="#fefffd" d="M2.007 86.667h54.357v54.308H2.007z"/><path fill="#0d4b08" d="M20.085 8.113c0 .351-.239.7-.239 1.054s-.027.7-.028 1.055.332.7.331 1.054-.17.7-.171 1.055-.149.7-.15 1.054.148.7.147 1.055.288.7.287 1.055-.025.7-.026 1.054-.287.7-.288 1.054-.034.7-.035 1.054.006.7 0 1.055.1.7.1 1.055.224.7.223 1.055-.058.7-.059 1.054.029.7.028 1.054c0 .324-.2.646-.2.97s.1.646.1.969-.076.647-.076.97.147.647.146.97.166.646.166.97-.333.645-.333.969.063.646.063.969-.014.646-.015.97.266.634.266.957c.03.371-.379.748-.4 1.119s.3.782.239 1.149-.583.612-.69.968c-.155.38 0 .908-.233 1.242a6 6 0 0 1-.96.8c-.245.207-.513.382-.767.577s-.569.3-.831.488-.406.541-.677.715-.434.533-.712.694-.59.282-.875.431-.6.235-.9.372c-.3.162-.667.2-.965.37s-.534.441-.826.62-.572.372-.859.56-.583.358-.864.555-.533.427-.807.633-.709.205-.978.42-.319.682-.58.9-.489.474-.734.718-.441.521-.674.777-.473.492-.693.76-.582.417-.788.7-.632.409-.824.7-.19.706-.368 1-.149.7-.312 1.01-.45.541-.6.855-.5.537-.637.858-.069.718-.185 1.044-.423.593-.523.925-.194.673-.277 1.009.127.738.061 1.078-.445.628-.494.971.357.743.324 1.088-.454.653-.49 1 .02.7-.008 1.053-.284.684-.3 1.033-.094.7-.109 1.048-.014.7-.023 1.053.136.7.132 1.053S0 65.696 0 66.045s.2.7.2 1.048-.134.7-.128 1.051.277.694.284 1.044-.014.7-.006 1.049.034.7.042 1.048-.18.7-.173 1.051-.07.7-.065 1.048.084.7.087 1.046-.017.7-.017 1.043c0 .512.182.512.182 1.024s.094.511.094 1.024.053.513.053 1.024-.379.513-.379 1.025.126.511.126 1.023-.05.512-.05 1.023.2.512.2 1.023-.132.512-.132 1.023.382.511.382 1.019-.178.511-.178 1.022.078.514.078 1.025-.493.512-.493 1.022.517.512.517 1.022-.462.509-.462 1.022.44.512.44 1.022-.2.512-.2 1.022.166.512.166 1.023-.184.512-.184 1.02.268.513.268 1.024-.113.513-.113 1.025-.411.513-.411 1.025.1.512.1 1.024.388.513.388 1.025-.407.512-.407 1.023.429.512.429 1.024-.125.512-.125 1.023.12.512.12 1.023-.322.512-.322 1.023-.125.512-.125 1.023.028.512.028 1.023.486.515.486 1.027-.037.513-.037 1.024-.061.513-.061 1.025.1.513.1 1.025-.423.513-.423 1.025.435.513.435 1.025-.032.512-.032 1.024-.266.512-.266 1.024-.037.512-.037 1.024v1.023c0 .511-.247.513-.247 1.024s.242.513.242 1.025-.006.513-.006 1.025-.021.513-.021 1.025.05.51.05 1.019.242.51.242 1.019-.513.511-.513 1.02.049.511.049 1.021.474.512.474 1.022-.03.513-.03 1.024-.25.513-.25 1.026.074.513.074 1.026.235.512.235 1.024-.467.512-.467 1.023.369.512.369 1.023-.169.511-.169 1.022-.163.511-.163 1.022.051.511.051 1.022.161.512.161 1.023.062.512.062 1.024-.136.513-.136 1.026-.171.514-.171 1.027.344.514.344 1.026.062.513.062 1.025-.064.513-.064 1.024.131.513.131 1.025-.135.513-.135 1.025.162.514.162 1.026-.4.515-.4 1.028.213.514.213 1.027-.353.513-.353 1.025-.027.514-.027 1.026.442.515.442 1.028-.072.515-.072 1.028.1.514.1 1.027.105.514.105 1.027-.548.515-.548 1.029.17.512.17 1.024-.093.512-.093 1.023.148.514.148 1.029.226.516.226 1.03-.5.514-.5 1.027.356.514.356 1.027-.07.516-.07 1.031.29.515.29 1.029-.31.516-.31 1.031.242.513.242 1.026.049.516.049 1.031-.08.517-.08 1.033-.188.519-.188 1.036-.115.517-.115 1.036c-.014.335-.147.676-.141 1.01s-.016.688.009 1.022.377.643.421.975-.007.681.057 1.01.385.6.467.923-.013.695.088 1.015.11.674.229.988.444.54.581.848.226.637.395.927.182.69.371.967.605.4.813.662.385.553.611.8.441.511.684.744.424.543.682.759.467.516.74.713.808.009 1.094.187.4.65.7.809.657.2.966.337.556.437.874.552.744-.106 1.069-.011.611.3.942.372c.329.049.688-.168 1.018-.128s.6.591.935.621.694-.353 1.025-.332.65.291.982.3.666.136 1 .138.665-.2 1-.205.668.256 1 .238c.52-.007.517-.249 1.037-.249s.522.058 1.044.058.521-.287 1.043-.287.521.383 1.042.383.522.08 1.043.08.522-.282 1.044-.282.52-.238 1.04-.238.52.075 1.039.075.52.482 1.04.482.523-.356 1.045-.356.522.053 1.043.053.521.155 1.043.155.523-.384 1.046-.384.522-.039 1.045-.039.523.376 1.046.376.52-.232 1.041-.232.524.19 1.047.19.524.185 1.049.185.525-.129 1.051-.129.53-.418 1.056-.41c.339.02.678.2 1.018.2s.679.377 1.019.374.664-.541 1-.556.67-.025 1.009-.051.682.074 1.02.036.655-.182.991-.232.663-.065 1-.127c.326-.081.617-.194.934-.3s.606-.238.915-.362.737.029 1.037-.117.464-.537.753-.7.73-.081 1.008-.265.525-.419.79-.622.3-.666.551-.887.675-.241.91-.48.28-.633.5-.886.412-.5.611-.769.707-.316.888-.6-.023-.781.138-1.073.393-.527.534-.83c.146-.324.706-.48.824-.81s-.193-.8-.1-1.142.327-.639.4-.984.357-.658.407-1.006.049-.713.082-1.064-.276-.726-.257-1.078-.1-.7-.087-1.053.226-.7.227-1.049-.15-.7-.153-1.054.006-.7 0-1.055.364-.712.36-1.064.126-.7.126-1.05c0-.51-.289-.51-.289-1.019s.145-.51.145-1.019-.161-.51-.161-1.019.174-.51.174-1.018-.4-.51-.4-1.018.193-.51.193-1.018.006-.509.006-1.018.129-.509.129-1.017-.293-.509-.293-1.018.319-.509.319-1.018-.006-.509-.006-1.017-.348-.51-.348-1.019.094-.509.094-1.018.417-.51.417-1.019-.33-.511-.33-1.02-.044-.51-.044-1.02-.154-.511-.154-1.021.229-.511.229-1.02-.108-.511-.108-1.021.175-.51.175-1.019.241-.51.241-1.019-.075-.51-.075-1.019.016-.51.016-1.019-.3-.51-.3-1.019-.068-.509-.068-1.018v-1.019c0-.509-.108-.511-.108-1.02s.306-.51.306-1.019-.017-.511-.017-1.021-.1-.511-.1-1.021-.089-.511-.089-1.021.1-.511.1-1.02-.2-.511-.2-1.02.543-.511.543-1.02-.522-.51-.522-1.019.487-.511.487-1.02-.07-.51-.07-1.02.013-.51.013-1.02-.094-.511-.094-1.021.1-.511.1-1.021-.274-.508-.274-1.015.238-.508.238-1.015-.341-.508-.341-1.016.085-.509.085-1.016.09-.51.09-1.018.166-.511.166-1.02-.2-.511-.2-1.021.235-.512.235-1.022-.011-.511-.011-1.02-.02-.51-.02-1.019.047-.51.047-1.019-.258-.509-.258-1.018.151-.509.151-1.017.162-.51.162-1.018-.388-.51-.388-1.019.2-.511.2-1.02v-1.022c0-.511-.143-.512-.143-1.023v-1.018c0-.511.292-.511.292-1.02s.077-.511.077-1.02-.383-.511-.383-1.02.273-.511.273-1.021-.249-.512-.249-1.023.339-.512.339-1.024-.146-.511-.146-1.022.073-.511.073-1.021-.5-.512-.5-1.022.384-.513.384-1.024.077-.512.077-1.023-.4-.512-.4-1.023v-1.023c0-.511.056-.513.056-1.024s.251-.511.251-1.021.043-.51.043-1.019-.3-.511-.3-1.021.251-.513.251-1.025-.041-.512-.041-1.023-.152-.512-.152-1.023-.04-.514-.04-1.027-.075-.512-.075-1.024.468-.514.468-1.027-.268-.511-.268-1.021.195-.515.195-1.028-.336-.515-.336-1.028.407-.517.407-1.032-.059-.517-.059-1.032c0-.35-.3-.7-.293-1.052s.392-.7.4-1.046-.524-.709-.518-1.059.165-.7.172-1.049-.116-.7-.109-1.054.027-.7.033-1.05.251-.7.255-1.048-.088-.7-.087-1.053.038-.7.036-1.051-.211-.7-.217-1.047.172-.7.161-1.054-.063-.7-.08-1.047.165-.712.142-1.061-.039-.7-.07-1.051-.134-.692-.174-1.041-.108-.693-.156-1.04-.062-.684-.119-1.021-.251-.648-.324-.982-.16-.661-.249-.991.156-.765.05-1.09-.4-.592-.527-.912-.224-.652-.361-.966-.577-.483-.73-.79-.292-.607-.46-.905.033-.817-.149-1.107-.751-.323-.948-.6-.315-.607-.525-.878-.207-.715-.431-.975-.539-.443-.776-.691-.556-.412-.805-.649-.341-.649-.6-.874-.6-.35-.868-.558-.538-.421-.813-.621-.655-.253-.936-.447-.364-.683-.65-.868-.871.107-1.163-.07-.547-.4-.844-.564-.554-.384-.855-.543c-.29-.135-.374-.668-.657-.817s-.8.12-1.075-.043-.49-.437-.757-.613-.463-.458-.72-.647-.519-.374-.767-.576-.67-.224-.907-.439a5.5 5.5 0 0 1-.61-.848 5 5 0 0 1-.358-.958 6.4 6.4 0 0 1-.448-.929c-.063-.319.315-.708.289-1.041s-.208-.638-.213-.974-.042-.653-.042-.989-.2-.646-.2-.97.211-.646.211-.969-.106-.647-.106-.97-.1-.646-.106-.969.517-.648.516-.971-.354-.646-.354-.969-.066-.646-.067-.969.376-.648.375-.971-.146-.646-.147-.969c0-.341-.309-.681-.309-1.022s.371-.682.37-1.023-.172-.681-.173-1.022-.038-.681-.039-1.022 0-.681 0-1.022-.137-.681-.138-1.022-.059-.681-.06-1.022.431-.682.431-1.023-.149-.681-.15-1.022.1-.682.095-1.022-.356-.681-.357-1.022.219-.682.218-1.022.188-.682.188-1.023-.138-.681-.138-1.022-.086-.681-.086-1.022c-.016-.437-.015-1.012-.313-1.288a1.96 1.96 0 0 0-1.314-.268c-.417.015-.6.4-.88.678s-.894.458-.909.874c0 .348.538.7.538 1.049s-.112.7-.111 1.043-.383.7-.382 1.045.326.7.327 1.043-.091.7-.09 1.044-.215.7-.214 1.044.45.7.451 1.042-.075.7-.074 1.044-.026.7-.025 1.044-.337.7-.336 1.045.088.7.089 1.043.026.7.027 1.043-.168.7-.167 1.045.552.694.553 1.042-.156.7-.155 1.044-.126.715-.125 1.072.071.714.071 1.071.06.715.061 1.072.024.714.024 1.071-.263.715-.262 1.071-.129.715-.129 1.071-.014.714-.013 1.071.088.713.088 1.07c0 .332.2.661.208.988s-.249.679-.226 1.006.378.63.424.954.266.6.344.922a8 8 0 0 0 .239.93c.116.3 0 .708.161 1a7 7 0 0 0 .385.954 11 11 0 0 0 .775.77c.241.262.795.2 1.058.442s.216.841.5 1.059.667.306.961.507.464.605.768.793.636.339.945.518.872-.1 1.183.076.558.459.87.629.474.609.783.783.643.305.948.486.84 0 1.137.192.407.676.693.882c.263.185.493.41.746.608s.482.419.724.631.695.2.926.425.322.591.54.828.66.29.865.537-.041.85.151 1.108.4.488.573.756.527.433.681.716.413.52.553.812.205.621.33.919.256.6.365.9.028.669.121.979.042.648.119.962.65.519.711.837-.006.666.039.986.236.639.274.967.017.667.048 1-.466.7-.441 1.029.129.647.146.976.387.643.4.973-.159.664-.157.993.275.662.27.992-.3.655-.308.985c0 .353-.195.7-.2 1.057s.062.706.058 1.059.31.709.306 1.062-.431.7-.435 1.054.505.71.5 1.063-.034.7-.036 1.058-.527.7-.529 1.055.051.707.051 1.06c0 .514.462.514.462 1.026s-.069.514-.069 1.027-.1.514-.1 1.027-.232.514-.232 1.027.175.514.175 1.026-.165.514-.165 1.026-.073.513-.073 1.025.033.513.033 1.025.068.513.068 1.025.2.513.2 1.025-.3.512-.3 1.024.015.513.015 1.024.206.513.206 1.025-.243.513-.243 1.024.1.513.1 1.025-.007.513-.007 1.025.144.513.144 1.025v1.026c0 .512.122.514.122 1.027s.175.514.175 1.026-.283.515-.283 1.028-.194.514-.194 1.028.5.513.5 1.026-.021.514-.021 1.027-.229.513-.229 1.026-.013.513-.013 1.025.045.514.045 1.026.188.513.188 1.025-.066.514-.066 1.026-.4.513-.4 1.026-.083.513-.083 1.026.434.514.434 1.026-.079.515-.079 1.028.182.514.182 1.028-.17.514-.17 1.027.007.514.007 1.028.233.513.233 1.026-.291.514-.291 1.027.167.513.167 1.026.09.514.09 1.026-.031.514-.031 1.027-.054.514-.054 1.027-.375.514-.375 1.027.432.515.432 1.029-.491.511-.491 1.021.235.511.235 1.022-.144.512-.144 1.022.4.513.4 1.024-.476.513-.476 1.025.157.513.157 1.026-.136.515-.136 1.028-.089.515-.089 1.029.332.514.332 1.027-.289.513-.289 1.026.356.513.356 1.025-.342.513-.342 1.024-.068.513-.068 1.025.085.513.085 1.025.205.513.205 1.025-.249.514-.249 1.027.32.515.32 1.028-.069.516-.069 1.031.2.514.2 1.028-.018.514-.018 1.027-.135.514-.135 1.027.183.514.183 1.027.026.515.026 1.028-.332.515-.332 1.029.046.516.046 1.031-.147.515-.147 1.029.445.514.445 1.028-.474.515-.474 1.029-.045.515-.045 1.03.212.516.212 1.03-.141.516-.141 1.03.5.515.5 1.03-.6.516-.6 1.031.425.514.425 1.027-.336.514-.336 1.026.073.514.073 1.027.236.517.236 1.033.163.515.163 1.03.015.515.015 1.029-.244.518-.244 1.034-.112.516-.112 1.031.367.517.367 1.033-.058.515-.058 1.029-.091.518-.091 1.034-.2.519-.2 1.036.247.52.247 1.038-.484.524-.477 1.043c.019.328.608.651.609.978s-.279.658-.3.985-.3.627-.335.953-.052.642-.107.965.021.665-.052.985-.282.59-.373.905c-.12.331-.287.612-.435.927s.014.792-.161 1.093-.542.487-.745.771-.48.5-.708.763-.377.593-.629.836-.483.507-.756.726-.511.493-.8.686-.765.069-1.074.234-.391.795-.714.932-.807-.15-1.142-.042-.649.188-.993.266c-.353.053-.7.027-1.058.068s-.7.08-1.059.108-.694.312-1.051.326-.717-.166-1.075-.164-.712.092-1.07.081-.721.277-1.078.253c-.515-.009-.511-.365-1.026-.365s-.516.095-1.032.095-.515.047-1.031.047-.515.029-1.03.029-.516.212-1.031.212-.516-.064-1.033-.064-.514-.245-1.028-.245-.513.276-1.027.276-.514.077-1.028.077-.517-.083-1.033-.083-.516-.426-1.031-.426-.516.24-1.031.24-.517-.063-1.035-.063-.516-.21-1.032-.21-.517.342-1.034.342-.515.057-1.03.057-.518-.29-1.035-.29-.519.11-1.037.11-.52-.251-1.04-.251-.52.27-1.039.279c-.364.026-.736-.228-1.1-.218s-.721.31-1.085.306-.738.144-1.1.124-.71-.307-1.073-.342-.719-.089-1.08-.138-.686-.229-1.045-.293c-.345-.089-.7-.07-1.028-.188s-.579-.408-.9-.556-.685-.178-.989-.356-.776-.109-1.063-.313-.346-.7-.613-.934-.643-.338-.888-.592-.384-.594-.605-.871-.41-.56-.605-.856-.556-.488-.723-.8-.312-.639-.449-.966-.132-.7-.238-1.039c-.089-.362-.278-.7-.346-1.066s.116-.766.071-1.136.019-.735 0-1.106-.47-.727-.47-1.1.085-.745.107-1.117c.008-.511.379-.51.379-1.019s-.044-.511-.044-1.021-.087-.511-.087-1.021-.215-.512-.215-1.022-.089-.511-.089-1.022.265-.511.265-1.021-.272-.51-.272-1.02.366-.51.366-1.02-.313-.51-.313-1.02-.036-.51-.036-1.019.137-.51.137-1.019.113-.51.113-1.019-.337-.51-.337-1.019.3-.51.3-1.019-.135-.511-.135-1.02.247-.51.247-1.019-.5-.51-.5-1.02.6-.51.6-1.02-.508-.51-.508-1.02.283-.511.283-1.021-.28-.511-.28-1.022.08-.511.08-1.022.344-.512.344-1.022-.282-.511-.282-1.022-.024-.511-.024-1.021-.226-.51-.226-1.02.3-.511.3-1.02-.115-.511-.115-1.021-.032-.51-.032-1.02-.02-.51-.02-1.02-.027-.511-.027-1.02.435-.511.435-1.021-.507-.511-.507-1.021.429-.512.429-1.022-.249-.512-.249-1.023-.135-.512-.135-1.022v-1.022c0-.51-.018-.511-.018-1.022s.488-.511.488-1.021-.427-.511-.427-1.021-.116-.511-.116-1.021.371-.511.371-1.021.187-.511.187-1.021-.354-.512-.354-1.023.117-.512.117-1.023.293-.508.293-1.016-.487-.508-.487-1.016.193-.509.193-1.017.074-.51.074-1.018-.058-.511-.058-1.02-.309-.511-.309-1.021.184-.512.184-1.023.1-.512.1-1.023-.2-.511-.2-1.022.034-.51.034-1.02.114-.51.114-1.02.029-.51.029-1.019v-1.019c0-.51-.131-.51-.131-1.02s-.158-.51-.158-1.02.229-.511.229-1.021-.2-.512-.2-1.023.241-.513.241-1.025-.213-.512-.213-1.023.026-.512.026-1.022.211-.512.211-1.022.2-.511.2-1.021-.063-.512-.063-1.023.053-.512.053-1.024.011-.513.011-1.025-.116-.525-.116-1.033-.107-.512-.107-1.023.234-.513.234-1.024-.473-.513-.473-1.025.208-.513.208-1.025-.008-.512-.008-1.024.016-.513.016-1.024-.238-.514-.238-1.026.117-.512.117-1.022-.129-.512-.129-1.022-.017-.511-.017-1.022.1-.514.1-1.026.017-.513.017-1.029.163-.513.163-1.024.26-.515.26-1.028-.394-.514-.394-1.027.445-.514.445-1.027-.117-.512-.117-1.024-.157-.51-.157-1.025.248-.516.248-1.031-.548-.514-.548-1.033.24-.517.24-1.033c0-.338.345-.68.341-1.02s-.564-.669-.57-1.009.46-.687.452-1.026-.071-.676-.08-1.016-.387-.668-.4-1.008.272-.686.264-1.026-.231-.676-.236-1.016.184-.682.182-1.022-.055-.68-.052-1.02.105-.678.113-1.017.025-.678.039-1.018.079-.674.1-1.013-.062-.684-.032-1.022-.092-.694-.052-1.031.454-.623.5-.959-.089-.7-.027-1.033c.059-.355-.055-.747.024-1.1s.358-.654.458-1 .308-.65.428-.989.152-.706.292-1.038.187-.7.347-1.028.238-.7.416-1.008.743-.381.94-.683c.189-.268.238-.62.44-.878s.379-.531.594-.779.158-.753.387-.988.545-.4.785-.623.673-.235.925-.445.324-.654.586-.851.628-.262.9-.445c.285-.2.6-.368.893-.553s.479-.562.783-.738.625-.32.932-.49.67-.231.977-.4.574-.4.88-.573.767-.067 1.068-.243.656-.281.95-.468.511-.507.8-.708.5-.5.771-.718.725-.247.977-.489.478-.534.707-.8a10 10 0 0 0 .708-.806c.2-.286-.008-.8.137-1.1a7 7 0 0 0 .447-.891c.1-.322.45-.585.517-.916s.174-.673.21-1.011.057-.684.072-1.023-.3-.684-.3-1.024.347-.673.347-1.012c0-.357.03-.714.03-1.072s-.457-.714-.457-1.072.329-.714.33-1.071-.416-.715-.415-1.072.134-.714.135-1.071.069-.713.07-1.07.112-.714.113-1.07-.011-.714-.009-1.071c0-.337-.007-.674-.006-1.011s-.2-.675-.2-1.012.135-.674.136-1.011.273-.674.274-1.011.076-.674.077-1.011-.127-.675-.126-1.012-.307-.675-.306-1.013.007-.674.008-1.011v-1.012c0-.338.091-.674.092-1.011s-.245-.675-.244-1.012.476-.673.476-1.01.047-.675.047-1.012-.17-.674-.17-1.012-.083-.673-.083-1.01a1.68 1.68 0 0 0-.4-1.181 1.68 1.68 0 0 0-1.208-.278 1.65 1.65 0 0 0-1.13.333 1.86 1.86 0 0 0-.6 1.118l.214-.246a2 2 0 0 0-.042.252"/><path fill="#0d4b08" d="M56.366 84.819c-.512 0-.515-.016-1.026-.016s-.512.132-1.024.132-.512.192-1.024.192-.512-.118-1.024-.118h-1.025c-.513 0-.513-.165-1.025-.165s-.51.041-1.019.041-.509.3-1.019.3-.51.082-1.02.082-.51-.3-1.021-.3-.511.073-1.022.073-.512.213-1.023.213-.513-.026-1.026-.026-.513.031-1.026.031-.512-.3-1.024-.3-.512-.154-1.023-.154-.511.509-1.022.509-.511-.281-1.022-.281-.511-.187-1.022-.187-.511.205-1.022.205-.512-.237-1.023-.237-.512-.027-1.024-.027-.513.331-1.026.331-.513-.17-1.027-.17-.513-.147-1.026-.147-.512.149-1.024.149-.513.288-1.025.288-.512-.023-1.024-.023-.512-.284-1.025-.284-.513-.031-1.026-.031-.514.008-1.028.008-.513.106-1.026.106-.513.225-1.026.225-.513-.056-1.026-.056-.514.031-1.028.031-.513-.2-1.027-.2-.513.1-1.027.1-.513-.074-1.027-.074-.514.148-1.028.148-.513.168-1.025.168-.511-.331-1.023-.331-.512.065-1.025.065-.514-.013-1.029-.013-.514.266-1.027.266-.514-.416-1.027-.416-.516.357-1.031.357-.514-.435-1.027-.435-.515.393-1.03.393-.513-.194-1.026-.194-.516-.032-1.031-.032-.517-.1-1.033-.1-.518.217-1.036.217-.515.217-1.033.222a1.14 1.14 0 0 0-.943.387 1.23 1.23 0 0 0-.429.977 1.45 1.45 0 0 0 .315 1.057 1.47 1.47 0 0 0 1.056.346c.511.006.51-.011 1.022-.011s.512.027 1.023.027.512-.037 1.024-.037.512.266 1.025.266.512-.329 1.024-.329.513-.014 1.026-.014.509-.048 1.019-.048.509.028 1.019.028.509.194 1.019.194.511.271 1.021.271.511-.224 1.022-.224.512-.225 1.024-.225.513.151 1.025.151.513.235 1.026.235.512-.2 1.024-.2.512.208 1.024.208H19.4c.511 0 .511-.292 1.022-.292s.511.322 1.022.322.511-.451 1.022-.451.511.37 1.023.37.512-.087 1.024-.087.512.23 1.025.23.514.056 1.028.056.513-.011 1.025-.011.513-.151 1.025-.151.512.121 1.024.121.512-.192 1.024-.192.513.141 1.025.141.514-.264 1.027-.264.514.028 1.028.028.513-.017 1.026-.017.513.194 1.025.194.513.084 1.026.084.514-.074 1.028-.074.514.023 1.028.023.513-.181 1.026-.181.514-.091 1.027-.091.515-.054 1.029-.054.512.378 1.024.378.512-.121 1.023-.121.513.05 1.025.05.515-.2 1.03-.2.513.133 1.027.133.513-.386 1.027-.386.515.176 1.03.176.515-.072 1.029-.072.515.492 1.031.492.513-.517 1.025-.517.516.461 1.032.461.516-.439 1.033-.439.518.205 1.035.205.517-.161 1.035-.167a1.53 1.53 0 0 0 1.133-.335c.278-.3.182-.714.167-1.152a1.29 1.29 0 0 0-.317-.987c-.275-.275-.562-.8-.979-.814M2.006 142.554c.512 0 .512-.275 1.023-.275s.512.012 1.024.012.512.207 1.024.207.512-.113 1.024-.113.513.407 1.025.407.513-.067 1.026-.067.509.042 1.018.042.51-.438 1.019-.438.51.258 1.02.258.51-.336 1.021-.336.511.607 1.022.607.512-.5 1.024-.5.512.013 1.025.013.513.205 1.026.205.512.055 1.024.055.512-.037 1.023-.037.511-.021 1.023-.021.511.146 1.022.146.51-.444 1.021-.444.511.548 1.022.548.512.016 1.023.016.512-.132 1.024-.132.513-.191 1.026-.191.514.117 1.027.117h1.026c.513 0 .512.165 1.025.165s.512-.041 1.024-.041.512-.3 1.024-.3.512-.082 1.025-.082.513.3 1.027.3.513-.073 1.027-.073.513-.214 1.026-.214.513.027 1.026.027.513-.032 1.026-.032.514.3 1.028.3.513.154 1.027.154.514-.508 1.027-.508.513.28 1.027.28.514.187 1.029.187.512-.205 1.024-.205.512.238 1.023.238.512.027 1.025.027.515-.331 1.029-.331.514.169 1.027.169.514.148 1.028.148.515-.149 1.03-.149.515-.289 1.029-.289.515.023 1.03.023.513.284 1.026.284.516.031 1.031.031.517-.008 1.033-.008.518-.106 1.036-.106.516-.22 1.034-.225a1.33 1.33 0 0 0 1.028-.413 1.35 1.35 0 0 0 .364-1.056 1.57 1.57 0 0 0-.283-1.109 1.62 1.62 0 0 0-1.108-.376c-.511-.006-.511-.074-1.023-.074s-.511.148-1.023.148-.512.167-1.024.167-.512-.33-1.024-.33-.513.064-1.025.064-.513-.013-1.026-.013-.509.266-1.018.266-.51-.416-1.019-.416-.51.358-1.02.358-.511-.453-1.021-.453-.511.393-1.022.393-.512-.2-1.024-.2-.512-.031-1.025-.031-.513-.1-1.026-.1-.512.217-1.024.217-.512.223-1.023.223-.512-.045-1.023-.045-.511-.065-1.022-.065-.511-.144-1.021-.144-.511.112-1.023.112-.511.011-1.022.011-.512-.027-1.024-.027-.513.038-1.026.038-.514-.266-1.027-.266-.513.328-1.026.328-.513.015-1.025.015-.512.048-1.024.048-.512-.029-1.024-.029-.513-.193-1.025-.193-.513-.272-1.027-.272-.514.224-1.027.224-.514.225-1.027.225-.512-.151-1.025-.151-.513-.235-1.026-.235-.514.2-1.028.2-.514-.208-1.027-.208h-1.027c-.514 0-.514.293-1.027.293s-.515-.323-1.029-.323-.512.451-1.024.451-.512-.37-1.023-.37-.513.087-1.025.087-.515-.23-1.029-.23-.514-.056-1.027-.056-.514.011-1.028.011-.515.151-1.03.151-.515-.12-1.029-.12-.515.191-1.03.191-.513-.141-1.026-.141-.516.264-1.032.264-.516-.028-1.032-.028-.518.017-1.036.017-.52-.2-1.038-.194a2.03 2.03 0 0 0-1.283.5 2 2 0 0 0-.416 1.308 1.95 1.95 0 0 0 .5 1.194 1.85 1.85 0 0 0 1.2.322"/><path fill="#407b3e" d="M38.27 17.959V11.61h1.017a1.265 1.265 0 0 0 1.272-1.258V7.695a1.27 1.27 0 0 0-1.27-1.268H38.27v-2a2.54 2.54 0 0 0-2.543-2.537H22.639a2.54 2.54 0 0 0-2.544 2.537v2h-1.024A1.273 1.273 0 0 0 17.8 7.695v2.644a1.27 1.27 0 0 0 1.272 1.268h1.024v15.571a5.083 5.083 0 0 0 5.087 5.073h8a5.083 5.083 0 0 0 5.087-5.073z"/><path fill="#0d4b08" d="M39.664 17.958c0-.5.482-.506.482-1.01s-.112-.508-.112-1.015-.429-.508-.429-1.016.569-.51.569-1.019.157-.791-.335-.931c-.54-.155-.466.213-.864.609s-.63.29-.893.785a13 13 0 0 0 1.268-.238c.379-.044.784.182 1.119.051s.452-.534.715-.808c.234-.243.827-.3.972-.686.079-.323-.2-.729-.155-1.057a8 8 0 0 0 .075-.976 9 9 0 0 0 .062-.991c.034-.33.317-.664.314-1a9 9 0 0 0-.17-1.006 9 9 0 0 0-.215-.994 3.3 3.3 0 0 0-.518-1.065c-.264-.273-.778-.222-1.122-.358a4.2 4.2 0 0 0-1.051-.28 8 8 0 0 0-.988-.171c.263.5.3.438.7.835s.21.683.71.939c0-.386.271-.9.274-1.293s.051-.8.016-1.187a4.7 4.7 0 0 0-.214-1.072 4.6 4.6 0 0 0-.622-.892 4.3 4.3 0 0 0-.785-.694 4 4 0 0 0-.824-.606 4 4 0 0 0-.983-.231c-.329-.046-.614-.4-.944-.424s-.682.358-1.016.349-.649-.01-.98 0-.672-.353-1.002-.327c-.336 0-.665-.077-1-.079s-.67-.018-1.005-.022S30.037.5 29.7.5s-.668-.143-1-.147-.672.014-1.007.01-.672.179-1.008.177S26.01 0 25.674 0 25 .148 24.666.152s-.666.285-1 .293-.674-.082-1.009-.07c-.367 0-.807-.3-1.149-.208s-.595.54-.9.72a4.2 4.2 0 0 0-.769.735c-.254.251-.743.341-.927.653s0 .771-.1 1.123c-.059.338-.058.66-.088 1s.016.667.015 1.009-.236.7-.209 1.046c.492-.27.172-.63.569-1.026s.584-.169.84-.667a6.6 6.6 0 0 0-.986.114 4.2 4.2 0 0 0-1.088.364 2.44 2.44 0 0 0-.883.668 2.5 2.5 0 0 0-.574.947 10 10 0 0 0-.146.952c-.031.322.191.641.192.964s-.267.648-.234.971c-.041.344-.36.7-.353 1.041s.408.674.464 1.016a7 7 0 0 0 .179 1.017c.167.354.559.429.8.648a2.1 2.1 0 0 0 .8.489c.323.116.585.374.946.411a8 8 0 0 0 .9.19c-.271-.491-.079-.644-.476-1.041a3.1 3.1 0 0 0-.877-.771c0 .34-.29.824-.291 1.164s.436.682.435 1.023-.262.679-.264 1.02.333.682.331 1.023-.612.677-.614 1.017.5.684.5 1.025-.017.68-.019 1.021-.208.68-.209 1.02-.058.681-.058 1.022.038.681.038 1.021.023.681.024 1.021-.141.683-.138 1.023.452.676.457 1.016-.541.688-.534 1.029a7 7 0 0 0 .072 1.033 7 7 0 0 0 .366.971c.1.318.407.563.552.861a7 7 0 0 0 .4.922 7 7 0 0 0 .635.783 7 7 0 0 0 .637.814 7 7 0 0 0 .875.546c.286.165.72.041 1.033.166.334.1.676.107 1.018.178s.637.418.984.457.708-.013 1.058-.008.7-.221 1.045-.25c.494-.01.5.027.993.027s.5-.031.994-.031.5.3 1 .3.5.155 1 .155.5-.519 1-.509c.321.026.637.314.956.3a10 10 0 0 0 .987.1c.317-.045.6-.31.915-.39s.7.048 1-.065a10 10 0 0 0 .927-.379c.3-.184.418-.673.684-.9a7 7 0 0 0 .872-.619 7.6 7.6 0 0 0 .766-.777 7.5 7.5 0 0 0 .37-1.01c.141-.32-.016-.743.075-1.082a7 7 0 0 0 .213-1c.038-.345.334-.681.319-1.034 0-.487.032-.485.032-.971s-.008-.488-.008-.975-.107-.488-.107-.974-.226-.488-.226-.975.057-.486.057-.971-.032-.489-.032-.977.2-.489.2-.977-.1-.491-.1-.981.079-.491.074-.981a1.5 1.5 0 0 0-.614-1.014c-.3-.276-.608-.24-1.046-.224-.417.015-.833-.13-1.108.145a1.6 1.6 0 0 0-.412 1.095c-.005.486-.014.486-.014.972s.267.486.267.971-.416.486-.416.972.358.484.358.968-.454.487-.454.973.394.487.394.974-.195.489-.195.977-.032.489-.032.978c0 .35-.1.694-.1 1.035s.183.712.122 1.048a4.2 4.2 0 0 1-.121 1.1 3.8 3.8 0 0 1-.695.882A4.8 4.8 0 0 1 35 30.3a4.6 4.6 0 0 1-.9.228 4.5 4.5 0 0 1-.878.283 4.5 4.5 0 0 1-.915 0c-.561-.015-.557-.028-1.118-.028s-.562.038-1.124.038-.564-.266-1.127-.266-.561.321-1.125.328c-.343.02-.686.047-1.029.051s-.7.051-1.042.042-.706-.057-1.049-.081a4 4 0 0 1-.957-.482c-.308-.142-.425-.538-.677-.756s-.623-.3-.806-.585-.541-.521-.638-.844a4 4 0 0 1-.007-1.054c-.007-.369.225-.741.222-1.11s-.2-.737-.2-1.107.21-.737.211-1.107l.006-1.107c0-.37-.289-.741-.287-1.11s.326-.737.326-1.106c0-.545-.452-.545-.452-1.09s.371-.545.371-1.091-.087-.543-.087-1.087.231-.546.231-1.092.051-.547.051-1.094-.011-.548-.011-1.1-.149-.549-.151-1.1a2.06 2.06 0 0 0-.43-1.3 2 2 0 0 0-1.3-.357 3.4 3.4 0 0 0-.99-.131c-.253.128.491.277.316.516.079-.107-.058-.6-.058-.731 0-.576-.018-.576-.018-1.152s.2-.575.2-1.151c0-.138.119-.838.032-.948-.107-.134.026-.062-.3.08-.181.079-.278.427-.15.494a3.3 3.3 0 0 0 .969-.175 1.55 1.55 0 0 0 1.057-.537 1.4 1.4 0 0 0 .394-1.055c0-.331.336-.755.327-1.174a2.8 2.8 0 0 1 .018-1.1c.143-.35.312-.473.8-.508.367-.027.725-.238 1.1-.238s.737.141 1.107.15.744-.368 1.111-.368.7.176 1.058.176.7-.074 1.058-.075.707.489 1.06.488.7-.519 1.057-.52.707.459 1.06.458.7-.44 1.058-.44.706.205 1.059.206.706-.164 1.059-.162.7.184 1.057.188c.387 0 .822-.075 1 .115a1.9 1.9 0 0 1 .285.974c.037.287-.377.6-.39.912s.066.649.066.921c.006.435.513.684.8.969s.522.811.959.817c.3.048.564-.37.866-.419.206-.095-.361.07-.234-.121-.079.119.3.62.3.759 0 .608-.322.608-.322 1.218s-.125.609-.125 1.219c0 .134.31.475.389.587-.111-.158.185.219-.036.107a2.2 2.2 0 0 0-.808-.025 1.26 1.26 0 0 0-1 .355 1.2 1.2 0 0 0-.318.983c0 .5-.423.5-.423 1.008s.434.508.434 1.015-.031.509-.031 1.016-.267.51-.267 1.019-.042.511-.036 1.02a1.65 1.65 0 0 0 .519 1.129c.3.276.734.7 1.173.68.417-.014.811-.442 1.086-.716a1.7 1.7 0 0 0 .478-1.112c-.042-.093-.244.019-.244.018"/><path fill="#0d4b08" d="M24.009 10.984c.538 0 .538.478 1.076.478s.538-.318 1.075-.318.54-.13 1.08-.13.539-.025 1.077-.025.54.226 1.079.226.537-.168 1.075-.168.54-.007 1.08-.007.541.481 1.081.481.543-.113 1.085-.113.543-.43 1.083-.43c.439 0 1.055.3 1.343.013s.154-.9.154-1.339a1.7 1.7 0 0 0-.279-1.215 1.94 1.94 0 0 0-1.218-.584c-.538 0-.538.508-1.076.508s-.538-.308-1.075-.308-.54.291-1.08.291-.539-.482-1.077-.482-.54.345-1.079.345-.537-.009-1.075-.009-.54-.109-1.08-.109-.541-.266-1.081-.266-.543.1-1.085.1-.543.031-1.085.031a1.98 1.98 0 0 0-1.29.415c-.287.287-.211.849-.211 1.286a1.45 1.45 0 0 0 .416 1.08 1.43 1.43 0 0 0 1.083.378v-.13M19.328 135.643a2.3 2.3 0 0 0 1.074-.467c.33-.189.33-.616.495-.938s.7-.574.7-.942-.391-.692-.556-1.015a1.64 1.64 0 0 0-.769-.637 1.68 1.68 0 0 0-.943-.208c-.415 0-.755-.132-1.044.034-.33.189-.418.533-.583.856a1.96 1.96 0 0 0-.221.972c0 .368-.368.864-.2 1.187a2.4 2.4 0 0 0 .909.808 2.46 2.46 0 0 0 1.141.352M29.185 135.552a2.17 2.17 0 0 0 1.053-.413c.329-.189.789-.356.954-.678a2.7 2.7 0 0 0 .076-1.166c0-.368-.348-.619-.514-.942s-.072-.908-.4-1.1c-.289-.166-.752.025-1.167.025a1.74 1.74 0 0 0-.943.363 1.46 1.46 0 0 0-.632.708c-.166.323-.448.577-.448.945a2.2 2.2 0 0 0 .4.971 1.53 1.53 0 0 0 .67.7c.289.166.541.58.957.58M39.042 135.512a2.7 2.7 0 0 0 1.2-.123 2.37 2.37 0 0 0 .728-.97 2.54 2.54 0 0 0 .114-1.124c0-.369.133-.843-.032-1.167a2.3 2.3 0 0 0-.933-.714c-.289-.166-.659.025-1.075.025s-.878-.351-1.167-.185c-.33.189-.381.7-.546 1.026a2.1 2.1 0 0 0-.108 1.015 1.9 1.9 0 0 0 .246.945c.166.322.2.692.531.881a2.1 2.1 0 0 0 1.044.39"/><path fill="#407b3e" d="M29.185 101.64a3.74 3.74 0 0 0-3.816 3.657v.125a3.674 3.674 0 0 0 3.49 3.85q.162.009.326 0A3.64 3.64 0 0 0 33 105.829a4 4 0 0 0 0-.408 3.73 3.73 0 0 0-3.683-3.781zM20.676 101.64a3.74 3.74 0 0 0-3.816 3.657v.125a3.674 3.674 0 0 0 3.49 3.85q.162.009.326 0a3.636 3.636 0 0 0 3.818-3.444 4.02 4.02 0 0 0-3.685-4.189h-.133M37.7 101.64a3.74 3.74 0 0 0-3.816 3.657v.125a3.674 3.674 0 0 0 3.49 3.85q.162.009.326 0a3.64 3.64 0 0 0 3.819-3.444 4 4 0 0 0 0-.408 3.73 3.73 0 0 0-3.683-3.781H37.7M33.693 109.724a3.74 3.74 0 0 0-3.816 3.657v.125a3.674 3.674 0 0 0 3.49 3.85q.162.009.326 0a3.64 3.64 0 0 0 3.819-3.444 4 4 0 0 0 0-.408 3.73 3.73 0 0 0-3.683-3.781h-.133M24.678 109.724a3.74 3.74 0 0 0-3.816 3.657v.125a3.674 3.674 0 0 0 3.49 3.85q.162.009.326 0a3.636 3.636 0 0 0 3.818-3.444 4.02 4.02 0 0 0-3.685-4.189h-.133M29.185 117.55a3.74 3.74 0 0 0-3.816 3.657v.125a3.674 3.674 0 0 0 3.49 3.85q.162.009.326 0A3.64 3.64 0 0 0 33 121.739a4 4 0 0 0 0-.408 3.73 3.73 0 0 0-3.683-3.781z"/><path fill="#0d4b08" d="M29.188 99.931a5.6 5.6 0 0 0-.99.14 5.4 5.4 0 0 0-.927.336c-.306.115-.462.487-.74.654a5 5 0 0 0-.774.52c-.243.213-.59.3-.793.556a5.5 5.5 0 0 0-.655.743 6 6 0 0 0-.542.867c-.108.351.234.8.2 1.16a4.2 4.2 0 0 0 .249 2.073 5.4 5.4 0 0 0 .222 1.057 5.5 5.5 0 0 0 .526.961 6 6 0 0 0 .715.866 6 6 0 0 0 1 .533 6.3 6.3 0 0 0 1.021.5c.357.094.784-.14 1.149-.115a6 6 0 0 0 1.111.174 6 6 0 0 0 1.1-.234 6 6 0 0 0 1.085-.37c.316-.2.454-.664.718-.914a5.3 5.3 0 0 0 .667-.858 5.2 5.2 0 0 0 .423-.988 5.2 5.2 0 0 0 .431-.983c.076-.356.428-.7.431-1.069a6 6 0 0 0-.028-1.15c-.067-.356-.681-.554-.812-.88s.062-.828-.133-1.123a5.6 5.6 0 0 0-.784-.761c-.251-.253-.652-.308-.946-.507s-.461-.63-.792-.767-.759.094-1.113.025a5 5 0 0 0-1.018-.074c-.44 0-1.027-.262-1.316.023s-.149.874-.149 1.311a1.4 1.4 0 0 0 .388 1.069 1.52 1.52 0 0 0 1.07.527l.007-.074c.111 0 .226-.212.337-.21.373.009-.374.263-.021.349.17.04.407-.139.57-.085a4 4 0 0 0 .266.359c-.047.044-.432-.369-.11-.207a3.6 3.6 0 0 0 .626.314c-.039-.1-.383.188-.469.127.051.041.2-.068.247-.023s.215-.034.26.011.02.593.058.6c-.134-.022-.114-.6.031-.37.094.151-.034.422.053.578s-.086-.093-.083-.306a3 3 0 0 0 .208.495c.018.165.354.09.406.247-.134-.217.041-.1.042.123 0 .085.059.169.06.254s-.408.407-.356.482c.053-.1.077-.073.091-.183-.01.066-.166.1-.178.171-.023.111.153.265.122.374-.021.076-.014.166-.038.24-.016.045-.053.033-.07.078-.062.156.028.1.125-.135a2.6 2.6 0 0 0-.256.446c-.039.063-.209.048-.244.113-.1.177.13-.466-.086-.242-.139.112-.095.216-.212.352.114 0 .243.328.333.259-.048.036-.343-.273-.391-.243s-.057.131-.112.165c-.079.047-.156.086-.236.13-.279.154.357.1.153.153-.171.042-.424-.262-.594-.222-.065.015-.053.366-.118.381-.171.028-.118.118.135.081-.069.008-.178-.388-.247-.383-.176.012-.33.217-.506.209-.1-.022-.25.308-.351.314.031-.015.479-.418.212-.482-.175-.042-.442.247-.612.19-.072-.033-.028-.324-.1-.345.233.1.247.161.095.089-.042-.021.013-.2-.029-.223-.143-.079-.542.311-.69.244.278.128.2.045.1-.053-.065-.064-.063-.194-.129-.26s.028-.259-.026-.307c-.154-.134.392.257.224-.006-.1-.158-.308-.235-.4-.4-.164-.294-.017.426-.121.1-.021-.062.187-.192.167-.253a2.3 2.3 0 0 0-.34-.542c.023.016-.244.449-.259.157-.006-.107.463-.227.46-.333 0-.087-.32-.17-.32-.256 0-.05-.128-.126-.118-.177.017-.175.469-.2.435.055.062-.187-.151-.292-.123-.488.045-.087.261-.284.282-.38.013.144-.476.319-.337.048a5 5 0 0 0 .4-.663c-.1.032-.118.251-.181.337.041-.05.029-.176.073-.221.066-.071.535.261.6.2.035-.033-.239-.327-.2-.358.129-.107.063-.113-.132.037.085-.046.389.172.463.108s-.094-.531-.007-.579c.342-.177.167.273.134.238.018.019.449-.415.521-.43.049-.011.143.461.194.451.174-.029.116-.1-.124-.061.146-.026.282-.294.431-.283a1.47 1.47 0 0 0 1.107-.353c.288-.287.726-.671.726-1.109a1.98 1.98 0 0 0-.611-1.222 1.76 1.76 0 0 0-1.19-.471c-.064-.021-.011-.02-.018-.02"/><path fill="#0d4b08" d="M20.676 99.987c-.331 0-.6.4-.921.455s-.662-.071-.965.044a6 6 0 0 0-.97.243c-.28.168-.452.495-.7.71a5.3 5.3 0 0 0-.661.7c-.2.253-.686.353-.84.643s.239.8.139 1.117a5.5 5.5 0 0 0-.393.993 5.7 5.7 0 0 0-.164 1.086c.034.362.412.644.516.991s-.173.851 0 1.172.749.367.981.65.268.724.553.958a5.7 5.7 0 0 0 .984.494c.333.161.6.543.953.636a6.3 6.3 0 0 0 1.125.205c.365.024.72-.462 1.084-.507a5.6 5.6 0 0 0 1.079-.073c.345-.113.8-.034 1.121-.213.317-.2.337-.767.6-1.016a5 5 0 0 0 .663-.808c.211-.3.577-.481.723-.817a3.33 3.33 0 0 0 .246-2.119c0-.362.255-.732.184-1.1a6 6 0 0 0-.137-1.094c-.133-.334-.5-.564-.7-.86s-.249-.741-.5-.993a5.8 5.8 0 0 0-.85-.716c-.3-.2-.76-.126-1.091-.263a5.3 5.3 0 0 0-1.033-.2 5.4 5.4 0 0 0-1.031-.3 1.62 1.62 0 0 0-1.121.508c-.288.286-.229.678-.229 1.116a1.3 1.3 0 0 0 .288 1.053 1.55 1.55 0 0 0 1.055.577l.007-.2c.111 0 .221.166.332.168.373.009-.387.058-.034.144.169.04.441-.257.6-.2-.013 0 .312.475.316.471-.047.044-.523-.386-.2-.224.113.058.082.431.2.443-.04-.1.146-.1.06-.165.05.041.188-.026.234.019s.244-.062.289-.017-.007.27.032.276c-.134-.022.052-.329.2-.1.094.151-.181.518-.093.674s.153.079.156-.135c.028.127-.095.234-.038.352.018.165.28.1.332.256-.134-.217-.262-.09-.26.138 0 .085.294.167.3.252s-.27.451-.219.526c.055-.1.185-.092.2-.2-.01.066.079.161.066.229-.021.111-.2.2-.233.312a6 6 0 0 1-.072.233c-.015.045-.265-.046-.281 0-.062.157.159.167.256-.071a3 3 0 0 0-.419.317c-.04.063-.179.083-.215.148-.1.177.459-.205.242.018a3 3 0 0 0-.361.4c.113 0 .09-.069.18-.139-.048.036-.025.19-.073.22s-.093.08-.147.114c-.079.047-.19.049-.27.093-.279.154.207-.268 0-.218-.17.042-.3.235-.475.275-.064.015-.17-.184-.234-.17-.172.028-.081.316.173.279-.069.008-.137.175-.206.179a6 6 0 0 1-.579.018c-.1-.021-.141-.559-.244-.554.032-.015.319.492.051.428-.175-.042-.2-.532-.37-.589-.072-.034-.2.121-.277.1.234.1.33-.007.177-.079-.042-.021-.085-.008-.126-.031-.144-.079-.461.151-.608.084.278.128.18.113.081.015-.065-.064-.2-.056-.268-.122s.155-.387.1-.435c-.154-.134.2.386.032.123-.1-.158-.258-.276-.349-.439-.165-.294-.141.435-.246.111-.02-.062-.011-.137-.03-.2-.03-.1.128-.568.063-.615.023.016.157.368.142.076-.005-.107.149-.211.146-.317 0-.087-.429-.17-.429-.256a1 1 0 0 1 .011-.17c.017-.174.379-.2.346.06.061-.187-.12-.3-.092-.5a.7.7 0 0 0 .062-.226c.013.144.081.34.221.069a4 4 0 0 0 .111-.684.53.53 0 0 0-.286.141c.041-.05.229 0 .272-.046.066-.071.279.008.345-.057.035-.033.036-.021.072-.053.129-.107-.177-.382-.372-.231.086-.047.316.047.391-.016s.148-.152.236-.2c.341-.177-.089.254-.123.219.019.019.652-.4.723-.413.05-.01.108.3.159.286.174-.029.071-.53-.169-.495a2 2 0 0 1 .476.028c.439 0 .946.177 1.233-.111a1.8 1.8 0 0 0 .379-1.235c0-.436-.338-.7-.625-.988s-.532-.711-.969-.712c-.041-.007 0 .044-.007.044M37.694 100.133c-.332 0-.7-.288-1.016-.23s-.577.434-.88.547-.737.014-1.016.181a6 6 0 0 0-.824.6c-.244.214-.2.719-.4.975s-.523.42-.677.71a5.4 5.4 0 0 0-.333.917 5.6 5.6 0 0 0-.313 1.051 5.6 5.6 0 0 0 .153 1.086c.035.362-.136.774-.033 1.121a6 6 0 0 0 .346 1.076c.17.319.616.488.847.771s.346.7.631.936a6.4 6.4 0 0 0 .924.692c.333.161.858-.166 1.21-.073s.659.5 1.026.522a6 6 0 0 0 1.106-.209 6 6 0 0 0 1.1-.163 6 6 0 0 0 .945-.568c.317-.2.806-.189 1.069-.439s.2-.8.412-1.1.808-.4.954-.74-.051-.811.027-1.171a5.5 5.5 0 0 0 .2-1.083 5.5 5.5 0 0 0-.173-1.089 5.3 5.3 0 0 0-.225-1.046c-.133-.334-.6-.467-.791-.762s-.047-.863-.3-1.115a5.7 5.7 0 0 0-.922-.593 5.5 5.5 0 0 0-.939-.525 6 6 0 0 0-.994-.517 6 6 0 0 0-1.117.117 1.8 1.8 0 0 0-1.223.412 2 2 0 0 0-.646 1.219c0 .438.424.864.712 1.151a1.9 1.9 0 0 0 1.151.689l.007-.427c.111 0 .219.3.33.3.373.009-.331-.284.023-.2.168.04.4-.084.567-.03-.013 0 .288.516.293.512-.048.044-.645-.13-.325.032a2.2 2.2 0 0 0 .545.107c-.04-.1-.042-.049-.129-.111a2 2 0 0 1 .146.116c.047.045-.075.256-.029.3a2.5 2.5 0 0 0 .35.274c-.134-.022-.408-.384-.264-.153.1.151.645.023.734.179s-.034.289-.031.076c.029.128-.083.16-.027.277.018.165-.124.507-.073.664-.133-.217.17-.466.172-.238 0 .085.118.169.119.254s-.349.393-.3.468c.054-.1.128-.056.143-.167q-.015.099-.033.2c-.022.111.054.252.022.361-.021.076-.274.08-.3.155-.016.045-.169-.017-.187.027-.062.156.112.212.208-.025-.091.079.062.372 0 .472-.04.063-.4-.061-.434 0-.1.177.344-.32.126-.1-.139.112-.135.493-.252.628a.56.56 0 0 0 .329-.062c-.048.036-.411-.38-.46-.35s.088.366.034.4c-.079.047-.331-.214-.41-.171-.279.154.355-.1.151-.053-.17.042-.319.166-.49.205-.064.015-.055.374-.118.389-.173.028-.182-.269.071-.306-.069.008-.1.315-.17.32-.177.012-.331-.421-.507-.429-.1-.021-.276.571-.38.577.033-.015.378.008.11-.056-.175-.042-.265-.381-.436-.438-.071-.034-.1-.134-.175-.155.234.1.125.419-.028.347-.042-.021-.064-.1-.1-.121-.144-.079-.262-.223-.409-.29.278.128.4-.063.3-.161-.066-.064-.147-.109-.213-.175s-.19-.038-.244-.086c-.154-.134-.082.546-.25.283-.1-.158-.013-.438-.1-.6-.166-.294.3.275.2-.049-.02-.062-.2-.073-.218-.134-.03-.1-.06-.5-.124-.55.022.016.362.348.348.056-.006-.107-.578-.192-.582-.3 0-.087.186-.177.186-.264 0-.05.16-.091.168-.143.018-.174.151-.232.118.025a2 2 0 0 0 .121-.433 3 3 0 0 0 .093-.47c.014.144-.3.461-.162.189a2.6 2.6 0 0 0 .284-.464c-.1.032-.26-.092-.323-.006.041-.05.44.2.483.154.065-.071-.206-.477-.139-.541.035-.033.149.084.187.053.128-.108.016-.164-.179-.014.085-.046.141-.177.215-.24s.189-.143.277-.19c.341-.177.114.314.079.279.02.019.541-.279.611-.294.05-.011.022-.177.073-.187.174-.029.182.193-.059.229.146-.026.295.2.443.213a1.82 1.82 0 0 0 1.113-.683c.288-.287.7-.672.7-1.11a2.05 2.05 0 0 0-.524-1.281c-.286-.285-.838-.246-1.276-.247-.038.006.01.019 0 .019"/><path fill="#0d4b08" d="M33.691 108.174a5.3 5.3 0 0 0-.941.227 5.6 5.6 0 0 0-1.766.656 5.4 5.4 0 0 0-.851.459 5.4 5.4 0 0 0-.7.678 5.6 5.6 0 0 0-.595.784 5.6 5.6 0 0 0-.319.93 4.34 4.34 0 0 0-.519 2.184 6 6 0 0 0 .35 1.086 6 6 0 0 0 .309 1.1c.169.319.862.3 1.093.58a5 5 0 0 0 .723.726 5 5 0 0 0 .875.557c.333.161.493.787.845.879a6.4 6.4 0 0 0 1.149-.025 6 6 0 0 0 1.126.1c.361-.045.623-.539.974-.654s.839.108 1.164-.072c.316-.2.455-.637.719-.886a5.3 5.3 0 0 0 .567-.913c.211-.3.841-.371.987-.706a6 6 0 0 0 .186-1.129 3.53 3.53 0 0 0-.248-2.168 5 5 0 0 0-.384-.95 5 5 0 0 0-.408-.931c-.2-.3-.187-.746-.436-1s-.408-.681-.7-.879-.871.106-1.2-.032a5 5 0 0 0-.954-.406 5.4 5.4 0 0 0-1.038.085 1.06 1.06 0 0 0-.917.359c-.289.286-.874.474-.875.911s.418.793.7 1.08a1.63 1.63 0 0 0 1.08.6l.007-.152c.111 0 .216.28.327.282.373.009-.315-.432.038-.346.169.04.259.337.422.391-.013 0 .312.034.316.03-.047.044-.308-.461.013-.3.113.058.089.585.211.6-.04-.1.1-.141.013-.2.05.041.12.063.166.108s-.049.231 0 .276a2.6 2.6 0 0 0 .277.3c-.134-.023-.127-.5.018-.273.094.151-.041.426.047.582a.242.242 0 0 0 .423-.126c.028.127-.484.229-.427.347.018.165.378.2.431.358-.134-.217-.266-.248-.264-.02 0 .085-.089.172-.088.257a1.4 1.4 0 0 0 .148.443c.054-.1.084-.047.1-.158-.01.066-.154.1-.167.171-.022.111.285.3.254.408-.022.076-.171.117-.2.191-.015.044.191.124.174.168-.062.157-.084.037.012-.2-.092.079-.1.446-.164.545-.04.063-.492-.124-.528-.059-.1.177.32-.33.1-.107-.139.112-.16.081-.277.216.114 0 .185.32.275.25-.048.036-.3-.224-.349-.194s-.1.056-.157.09c-.079.047-.175.043-.255.087-.279.154.4.1.2.149-.17.042-.28.34-.451.38-.064.015-.206-.343-.27-.328-.172.028-.1.178.151.142-.069.007-.15-.222-.219-.217a4 4 0 0 1-.486.068c-.1-.021-.231.219-.334.224.032-.015.324.351.056.287-.175-.042-.33-.232-.5-.289-.072-.033 0-.394-.073-.414.234.1.109.448-.043.376-.042-.021.126-.439.085-.462-.144-.079-.341-.119-.488-.185.278.128.274.192.175.095-.065-.064-.11-.146-.176-.211s-.318.1-.372.057c-.154-.134.478.142.309-.122-.1-.158-.443-.162-.534-.324-.165-.294.378.258.273-.066l-.059-.179c-.03-.1-.385-.346-.45-.393.023.016.15.284.135-.008 0-.107-.063-.209-.066-.315 0-.087.094-.174.094-.26 0-.05-.158-.11-.149-.162.017-.175-.056-.063-.089.194.061-.187.5-.378.53-.573.045-.087-.146-.257-.124-.352.013.144.01.4.15.131a6 6 0 0 0 .045-.867c-.1.032.174.485.11.57.041-.05.056-.1.1-.141.066-.071 0-.262.07-.327.035-.034.087.026.123-.006.129-.107.106-.079-.089.072.086-.047.249.026.324-.038s-.051-.443.037-.491c.341-.177.317-.012.283-.047a1.4 1.4 0 0 0 .368-.016c.05-.01.067.073.117.064.174-.029.134-.047-.106-.011a1.8 1.8 0 0 1 .439 0c.439 0 .623-.441.91-.728s.851-.473.85-.91a1.8 1.8 0 0 0-.608-1.148 1.7 1.7 0 0 0-1.155-.495c-.018 0 .025.088.017.088"/><path fill="#0d4b08" d="M24.673 108.35a5 5 0 0 0-.938.047c-.323.059-.722-.164-1.025-.05s-.511.46-.79.627a5.4 5.4 0 0 0-.819.521 5.7 5.7 0 0 0-.786.614 5.7 5.7 0 0 0-.621.8c-.151.283.163.764.063 1.078-.109.351-.708.6-.745.958s.356.746.39 1.1-.132.766-.028 1.113a3.9 3.9 0 0 0 .979 2 6 6 0 0 0 .879.7c.3.222.744.178 1.07.336s.583.5.936.6.751-.2 1.116-.176a5.2 5.2 0 0 0 1.045.027c.362-.045.749.117 1.1 0a6 6 0 0 0 1.1-.266 6.3 6.3 0 0 0 .979-.62 6 6 0 0 0 .61-.979 6 6 0 0 0 .345-1.067 5.2 5.2 0 0 0 .283-1.035 5.6 5.6 0 0 0 .325-1.059 5.6 5.6 0 0 0-.163-1.094 5.3 5.3 0 0 0-.355-1c-.134-.333-.484-.513-.677-.808s-.072-.84-.322-1.091a6 6 0 0 0-.771-.807c-.294-.2-.8-.05-1.131-.187s-.592-.529-.945-.6a6 6 0 0 0-1.1.012c-.439 0-.65.454-.938.74s-.589.5-.59.933a1.6 1.6 0 0 0 .351 1.175c.287.288.732.235 1.171.236l.006.291c.111 0 .227-.375.338-.373.373.009-.417.432-.064.518.169.04.345-.027.508.027-.013 0 .2-.111.2-.115-.047.044-.356 0-.035.164.113.058.272.246.394.258-.039-.1.161-.238.076-.3.05.041.169.039.215.084s.165.02.21.065-.019.171.02.176c-.134-.023-.473.119-.328.35.094.151.171.29.259.447s.074-.085.077-.3a2.5 2.5 0 0 0 .1.458c.019.165.248.236.3.393-.134-.217-.259-.248-.257-.02 0 .085.274.168.275.253s-.09.474-.039.548a.5.5 0 0 0 .052-.24c-.01.066-.108.118-.121.186-.022.111.223.3.192.407-.022.076-.287.084-.313.159-.015.045-.28-.056-.3-.012-.062.157.342.214.439-.023-.092.079-.484.171-.55.27-.04.063.057.22.021.285-.1.177.11-.491-.107-.267-.139.113-.054.666-.17.8.113 0 .019-.363.108-.432-.048.036.038.269-.01.3s-.019.2-.073.236c-.079.047-.3-.146-.384-.1-.279.154.328.127.124.176-.17.042-.406-.179-.577-.14-.064.015-.13.006-.194.021-.172.028-.1.227.156.19-.069.008-.165-.219-.234-.214a5 5 0 0 1-.513.044c-.1-.021-.177-.213-.28-.208.032-.015.347.382.079.318a6 6 0 0 1-.515-.159c-.072-.034-.259.153-.336.132.234.1.512-.364.36-.436-.042-.021-.181.167-.222.144-.144-.079-.177-.429-.324-.5.278.128.139.378.04.28-.065-.064-.112-.143-.178-.208s-.2-.022-.25-.07c-.154-.134.094.4-.075.138-.1-.158-.2-.325-.291-.488-.165-.294.11.318 0-.006-.02-.062.081-.163.062-.223-.03-.1-.035-.546-.1-.593.023.016.1.4.087.112 0-.107-.081-.207-.084-.313 0-.087.184-.174.184-.26 0-.05.113-.066.122-.118.017-.175-.446-.1-.479.153.062-.188.551-.369.579-.564a4 4 0 0 0 .048-.517c.013.144-.636.334-.5.063.068-.129.618.037.646-.1-.1.032-.364-.33-.428-.244.041-.05.343.1.386.056.066-.071.226-.039.292-.1.035-.033-.253-.352-.217-.383.129-.108.135-.028-.06.122a2 2 0 0 0 .3-.124c.083-.052.1-.256.191-.3.341-.177.327.093.293.058a1.5 1.5 0 0 0 .424.078c.05-.01.034-.084.085-.093.174-.029.157.149-.083.184.145-.026.28-.509.428-.5a1.14 1.14 0 0 0 .961-.331c.287-.287.69-.528.689-.966A2.04 2.04 0 0 0 26 108.4c-.287-.286-.79-.033-1.227-.034-.094.045-.088-.016-.1-.016"/><path fill="#0d4b08" d="M29.186 115.918a6.4 6.4 0 0 0-1.022-.125 6 6 0 0 0-1 .251c-.306.115-.36.757-.639.923s-.646.172-.891.387a5.3 5.3 0 0 0-.625.731c-.2.253-.6.39-.751.679a6 6 0 0 0-.2.982c-.11.351-.477.669-.514 1.025s.288.748.322 1.107a6 6 0 0 0 0 1.113 6 6 0 0 0 .424 1.03 6 6 0 0 0 .51 1.016 6.3 6.3 0 0 0 .813.814 6.3 6.3 0 0 0 1.021.535 6.2 6.2 0 0 0 1.118.2 6.3 6.3 0 0 0 1.072.382 6 6 0 0 0 1.13-.1 6 6 0 0 0 1.107-.218 6 6 0 0 0 1.031-.47c.316-.2.336-.759.6-1.008s.919-.179 1.128-.479a6 6 0 0 0 .429-1.062c.146-.336-.145-.8-.069-1.155s.354-.66.357-1.03a5.5 5.5 0 0 0-.092-1.083c-.065-.356.092-.791-.039-1.117s-.522-.556-.716-.852-.272-.719-.522-.97-.821-.112-1.117-.31-.335-.878-.666-1.015-.8.095-1.148.026a5.2 5.2 0 0 0-1.052-.1 1.55 1.55 0 0 0-1.127.4c-.287.287-.7.688-.7 1.126s.591.656.878.942a1.15 1.15 0 0 0 .945.4c.111 0 .22.315.331.317.373.009-.317-.3.036-.211.169.04.38 0 .543.059a.7.7 0 0 0 .029.192c-.047.044-.2-.179.124-.018.113.058.217.451.339.463-.04-.1.04-.133-.046-.194.05.041-.111.3-.065.348s.4-.221.445-.176.075.131.114.137c-.134-.023-.061-.2.084.036.094.151.051.382.139.538s-.153.091-.15-.123a2.3 2.3 0 0 0 .21.395c.018.165.109.247.162.4-.134-.217-.035-.218-.033.01 0 .085.2.168.2.253s-.4.4-.348.477c.055-.1-.2-.107-.186-.217-.01.066.537.221.524.29-.022.111-.559.1-.59.208-.022.076.068.175.043.25-.016.045-.086.014-.1.058-.062.156.392.2.489-.037a3.6 3.6 0 0 0-.436.4c-.04.063-.177.072-.213.137-.1.177.218-.391 0-.168-.139.113-.146.249-.262.385.113 0 .114.077.2.008-.048.036-.081.1-.129.135s.007.243-.047.277c-.079.047-.349-.228-.429-.184-.279.154.305-.09.1-.04-.17.042-.37-.044-.541 0-.064.015-.029.511-.093.525-.172.028-.137.027.117-.01-.069.008-.174-.189-.243-.184-.176.012-.34-.175-.516-.182-.1-.022-.256.375-.359.38.032-.015.485-.414.217-.478-.175-.042-.447.269-.617.212-.072-.033-.026-.325-.1-.346.234.1.331-.013.179-.085-.042-.021-.26.315-.3.292-.144-.079-.308-.13-.455-.2.278.128.4-.1.3-.2-.065-.064-.312.056-.378-.01s-.182-.018-.236-.066c-.154-.134.213.265.044 0-.1-.158.084-.483-.007-.645-.165-.294-.084.448-.189.124-.02-.062.015-.141 0-.2-.03-.1.019-.647-.046-.694.023.016.171.506.156.213-.005-.107-.493-.2-.5-.3 0-.087.54-.177.54-.264 0-.05-.4-.113-.388-.165.017-.174.008-.073-.025.184.061-.187.434-.374.462-.568.045-.087-.3-.115-.278-.21.013.144.1.217.238-.054.068-.129.266-.205.294-.343-.1.032-.161-.126-.225-.04.041-.05-.1-.283-.062-.328.066-.071.185-.112.251-.176.035-.033.2.143.239.111.129-.107-.026-.212-.222-.062.086-.047.471.27.546.207s.049-.234.137-.282c.341-.177-.113 0-.147-.036.019.019.566-.382.637-.4.05-.01.091.192.141.183.174-.029.13-.078-.11-.042a2 2 0 0 1 .443-.095c.439 0 .625-.319.912-.606s.819-.476.818-.913a2.04 2.04 0 0 0-.415-1.311c-.287-.286-.891-.174-1.329-.175-.03 0 .036-.149.028-.149"/><path fill="#407b3e" d="M29.49 100.743a1 1 0 0 1-.667-1.152 6.272 6.272 0 0 1 8.6-4.951 1 1 0 0 1 .667 1.152 6.272 6.272 0 0 1-8.6 4.951M27.586 100.646a.77.77 0 0 0 .512-.883 4.813 4.813 0 0 0-6.6-3.8.77.77 0 0 0-.512.883 4.813 4.813 0 0 0 6.6 3.8"/><path fill="#0d4b08" d="M29.979 98.973c.221.055.061.536.127.754.048.188.006.4.095.021a9 9 0 0 1 .284-.905c.038-.109.37-.456.222-.14.071-.153.366-.187.445-.336s.091-.327.183-.474c.046-.074-.015-.214.034-.286.023-.033.238-.322.108-.161-.1.126-.031-.394.019-.446.126-.134.631.122.771 0 .07-.062.026-.244.1-.3-.218.17-.034.01.009-.018.2-.125.255-.5.464-.6.028-.015.312-.255.161-.191s.186-.021.217-.032c.2-.069.474.083.677.035.085-.02.561-.049.261-.012a6 6 0 0 1 .736.063c.169 0 .327-.014.5 0 .095.006.2-.051.29-.046.248.012-.2-.327.041-.278.37.072.739.215 1.1.323.076.033.1.246.182.264a.8.8 0 0 1-.357-.114c-.142-.151-.088-.426-.053-.629 0-.2-.327-.07-.344 0s.5.274.479.346c-.043.169-.346.27-.4.434s-.121.294-.174.449c-.026.074-.352.151-.2-.15-.036.075-.037.171-.073.245a6.4 6.4 0 0 1-.5.857c-.05.073-.041.177-.1.249.18-.244.18.048.14.095-.123.136-.027.488-.158.616s-.425.116-.572.232c.23-.182-.271.192-.337.232s-.231-.079-.3-.041c-.178.088-.388.327-.152.225a5 5 0 0 1-.678.3c-.075.02-.222-.267-.3-.25-.023 0-.482.207-.148.16a6 6 0 0 1-.655.124c-.216 0-.41-.309-.625-.328-.094-.007-.222.368-.316.36.228.022.121-.21-.026-.236A9 9 0 0 1 30 98.969c-.422-.113-.851.32-1.2.52a1.39 1.39 0 0 0-.746.848 1.37 1.37 0 0 0 .265 1.075c.2.351.319.832.736.955a9 9 0 0 0 .925.458c.325.072.74-.389 1.069-.356a8 8 0 0 0 .968.109 8 8 0 0 0 .985.014c.328-.046.712.145 1.033.061a9 9 0 0 0 .962-.33c.307-.12.487-.523.78-.68.3-.185.713-.214.987-.435s.3-.7.548-.954.679-.337.889-.62.593-.482.764-.791a9 9 0 0 0 .488-.978c.13-.326-.288-.844-.2-1.188.1-.281.361-.5.384-.8a3.3 3.3 0 0 0-.092-.859c-.083-.349-.011-.785-.221-1.067a2.9 2.9 0 0 0-.928-.576c-.335-.158-.588-.571-.941-.677s-.8.133-1.165.08a8 8 0 0 0-1.092-.284 8 8 0 0 0-1.061.035 8 8 0 0 0-1.082.046 8 8 0 0 0-1.032.327 8 8 0 0 0-.941.529c-.3.172-.5.536-.774.749s-.685.3-.931.546a8 8 0 0 0-.644.854 9 9 0 0 0-.61.889 9 9 0 0 0-.456.976c-.135.325.158.8.063 1.145-.119.317-.722.54-.746.875a4 4 0 0 0 .222 1.049c.088.279.578.333.744.564s.162.569.4.741a2.6 2.6 0 0 0 .745.394c.423.116.949.291 1.3.091s.5-.733.62-1.154a1.87 1.87 0 0 0 .016-1.283c-.2-.35-.9-.336-1.313-.463-.085-.088.266-.435.268-.434"/><path fill="#0d4b08" d="M28.1 102.466a3.1 3.1 0 0 0 .826-.613 3 3 0 0 0 .693-.731c.148-.3.017-.727.042-1.054a2.5 2.5 0 0 0-.221-.939 7 7 0 0 0-.45-1.03c-.147-.352-.02-.834-.221-1.16a7 7 0 0 0-.531-.86c-.218-.249-.607-.341-.859-.55s-.409-.583-.692-.751-.755.047-1.062-.075-.51-.552-.833-.625a7 7 0 0 0-1.009.01c-.418-.023-.8.254-1.218.3s-.912-.345-1.313-.224a2.8 2.8 0 0 0-.915.443 3.1 3.1 0 0 0-.816.662c-.17.267.16.765.1 1.082s-.366.618-.3.94a7 7 0 0 0 .423.93 7 7 0 0 0 .3.969c.158.3.48.49.68.759a7 7 0 0 0 .592.807c.236.235.384.6.655.8a7 7 0 0 0 .947.477 7 7 0 0 0 .95.484 7 7 0 0 0 1.056.155c.341.043.7-.42 1.044-.43s.7.26 1.036.2a7 7 0 0 0 .971-.352 1.45 1.45 0 0 0 .927-.7 1.7 1.7 0 0 0 .359-1.213c-.117-.422-.66-.514-1.013-.713s-.7-.572-1.123-.456c-.252.08-.43.486-.689.538-.068.014-.231-.456-.3-.443-.248.046.131.146.136.142a2 2 0 0 1-.42-.052c-.149 0-.3.455-.448.455-.076 0-.138-.493-.213-.5-.314-.021.081.042.1.063a2.4 2.4 0 0 0-.472-.065c-.077-.021-.1-.157-.174-.182-.045-.015-.549.309-.346.408s.137-.424.087-.447-.219.154-.275.121c-.088-.051-.075-.314-.119-.4.062.13-.172.431-.31.308-.054-.048-.127-.08-.18-.13a5 5 0 0 1-.318-.384c-.258-.3.335.082.113-.234-.076-.11-.075-.26-.142-.376-.058-.1.015-.256-.037-.356-.029-.058-.532.123-.56.065-.154-.305.408.21.3-.107-.076-.214-.4-.357-.46-.576-.03-.11-.1-.2-.136-.311-.046-.155.124.132.124.118.006.233.031.4-.136.564-.077.074-.183.207-.284.193.062-.012.071.029.13 0 .111-.033.166-.294.278-.322.133-.032.281-.071.414-.095h.058c.14-.021.168.15.028.172s-.093.386.047.365c.054-.006 0-.526.057-.53a7 7 0 0 1 .931.047c.232.017-.236.245-.291.177.056.018.36-.255.419-.251.176.036.235.575.4.632.079.022.1.061.172.1-.3-.163-.113-.01-.049.025.142.079.541-.264.678-.176a2 2 0 0 0 .2.165c-.028 0-.435-.091-.215.107.12.107.091.35.2.466.036.038.126.017.161.056s.165-.009.2.031q.113.137-.087-.122c.094.119.423.1.5.229s-.32.511-.253.642c.029.058.382-.045.41.013.124.255-.257-.187-.195 0 .088.258.456.435.524.7.014.056-.459.219-.445.274.053.276.642.241.859.388s.345.392.622.339a.97.97 0 0 0 .635-.422c.146-.215.368-.5.315-.774a1.28 1.28 0 0 0-.5-.728 1.22 1.22 0 0 0-.845-.107c-.512.1-.638.547-.6 1.066a.624.624 0 0 1 .555-.677 1.9 1.9 0 0 0-1.053.661 1.48 1.48 0 0 0-.094 1.175 1.58 1.58 0 0 0 .63 1.017c.353.2.707.5 1.129.389.149.052.194.022.2.021"/></g></svg>