<svg xmlns="http://www.w3.org/2000/svg" data-name="レイヤー_2" viewBox="0 0 28.84 23.87"><g data-name="レイヤー_1"><rect width="23.55" height="16.9" x=".49" y="3.03" rx="1.46" ry="1.46" style="fill:#fffef0"/><circle cx="24.19" cy="15.38" r="2.99" style="fill:#fff"/><path d="M27.47 18.06c-.54 1.07-2.67 4.32-3.3 5.27-.08.13-.27.13-.35 0-.63-.95-2.77-4.2-3.31-5.27-.58-1.15-.95-1.84-.92-2.84.04-1.82 1.21-3.45 2.93-4.03.09-.03.2-.06.32-.09a5.6 5.6 0 0 1 2.3 0c.12.03.23.05.32.09 1.72.58 2.89 2.22 2.93 4.03.02 1-.34 1.69-.92 2.84Zm-3.39-4.77c-1.18 0-2.14.96-2.14 2.14s.96 2.14 2.14 2.14 2.14-.96 2.14-2.14-.96-2.14-2.14-2.14Zm-4.92-8.74v.72c0 .36-.29.65-.65.65h-.45c-.36 0-.65-.29-.65-.65v-.72H7.1v.72c0 .36-.29.65-.65.65H6c-.36 0-.65-.29-.65-.65v-.72H3.07c-.56 0-1.02.45-1.02 1.02v3.26h21.94V4.55zM7.3 2.98h9.98m-12.05 0H1.71c-.7 0-1.26.57-1.26 1.26v14.94c0 .7.57 1.26 1.26 1.26h20.16m2.2-9.72V4.23c0-.7-.57-1.26-1.26-1.26h-3.47M3.93 11.48H7.2m-3.27 2.24H7.2m-3.27 2.25H7.2m3.42-4.49h3.27m-3.27 2.24h3.27m-3.27 2.25h3.27M7.1 5.16V1.22a.77.77 0 0 0-.77-.77h-.21a.77.77 0 0 0-.77.77v3.94c0 .42.34.77.77.77h.21c.42 0 .77-.34.77-.77Zm12.06 0V1.22a.77.77 0 0 0-.77-.77h-.21a.77.77 0 0 0-.77.77v3.94c0 .42.34.77.77.77h.21c.42 0 .77-.34.77-.77Z" style="stroke:#004829;stroke-miterlimit:10;stroke-width:.89px;fill:#fffef0"/></g></svg>