<?xml version="1.0" encoding="UTF-8"?>
<svg id="_レイヤー_2" data-name="レイヤー_2" xmlns="http://www.w3.org/2000/svg" viewBox="0 0 28.84 23.87">
  <defs>
    <style>
      .cls-1 {
        stroke: #004829;
        stroke-miterlimit: 10;
        stroke-width: .89px;
      }

      .cls-1, .cls-2 {
        fill: #fffef0;
      }

      .cls-3 {
        fill: #fff;
      }
    </style>
  </defs>
  <g id="_レイヤー_1-2" data-name="レイヤー_1">
    <g>
      <rect class="cls-2" x=".49" y="3.03" width="23.55" height="16.9" rx="1.46" ry="1.46"/>
      <g>
        <circle class="cls-3" cx="24.19" cy="15.38" r="2.99"/>
        <path class="cls-1" d="M27.47,18.06c-.54,1.07-2.67,4.32-3.3,5.27-.08.13-.27.13-.35,0-.63-.95-2.77-4.2-3.31-5.27-.58-1.15-.95-1.84-.92-2.84.04-1.82,1.21-3.45,2.93-4.03.09-.03.2-.06.32-.09.76-.16,1.54-.16,2.3,0,.12.03.23.05.32.09,1.72.58,2.89,2.22,2.93,4.03.02,1-.34,1.69-.92,2.84ZM24.08,13.29c-1.18,0-2.14.96-2.14,2.14s.96,2.14,2.14,2.14,2.14-.96,2.14-2.14-.96-2.14-2.14-2.14ZM19.16,4.55v.72c0,.36-.29.65-.65.65h-.45c-.36,0-.65-.29-.65-.65v-.72H7.1v.72c0,.36-.29.65-.65.65h-.45c-.36,0-.65-.29-.65-.65v-.72h-2.28c-.56,0-1.02.45-1.02,1.02v3.26h21.94v-4.28h-4.83ZM7.3,2.98h9.98M5.23,2.98H1.71c-.7,0-1.26.57-1.26,1.26v14.94c0,.7.57,1.26,1.26,1.26h20.16M24.07,10.72v-6.49c0-.7-.57-1.26-1.26-1.26h-3.47M3.93,11.48h3.27M3.93,13.72h3.27M3.93,15.97h3.27M10.62,11.48h3.27M10.62,13.72h3.27M10.62,15.97h3.27M7.1,5.16V1.22c0-.42-.34-.77-.77-.77h-.21c-.42,0-.77.34-.77.77v3.94c0,.42.34.77.77.77h.21c.42,0,.77-.34.77-.77ZM19.16,5.16V1.22c0-.42-.34-.77-.77-.77h-.21c-.42,0-.77.34-.77.77v3.94c0,.42.34.77.77.77h.21c.42,0,.77-.34.77-.77Z"/>
      </g>
    </g>
  </g>
</svg>