<?xml version="1.0" encoding="UTF-8"?>
<svg id="_レイヤー_1" data-name="レイヤー_1" xmlns="http://www.w3.org/2000/svg" version="1.1" viewBox="0 0 291.5 22">
  <!-- Generator: Adobe Illustrator 29.0.1, SVG Export Plug-In . SVG Version: 2.1.0 Build 192)  -->
  <defs>
    <style>
      .st0 {
        fill: #fff;
      }
    </style>
  </defs>
  <path class="st0" d="M1.9,0h11.9c1,0,1.9.8,1.9,1.9,0,0,0,0,0,0,0,1-.8,1.9-1.9,1.9h-4v16.4c0,1-.8,1.9-1.9,1.9,0,0,0,0,0,0-1,0-1.9-.8-1.9-1.9V3.7H1.9c-1,0-1.9-.9-1.9-1.9C0,.8.8,0,1.9,0c0,0,0,0,0,0Z"/>
  <path class="st0" d="M31.2,22c-1,0-2-.4-2.8-1.1l-1.4-1.4c-.7-.8-1.1-1.7-1.2-2.8v-1.3c0-1,.8-1.9,1.9-1.9,0,0,0,0,0,0,1,0,1.9.8,1.9,1.9,0,0,0,.4,0,.4,0,1.2.1,1.1,1,2,.3.2.7.4,1.1.5h3.9c.4,0,.8-.1,1-.4.2-.2.4-.4.6-.6.3-.3.4-.6.4-1v-1.2c0-1-.5-1.2-1.3-1.5l-7.8-2.6c-1.5-.3-2.5-1.7-2.3-3.2v-2.4c0-1,.4-2,1.1-2.8l1.4-1.3C29.5.4,30.5,0,31.6,0h4.4c1.1,0,2.1.4,2.9,1.1l1.4,1.4c.8.7,1.2,1.7,1.1,2.8v1c0,1-.8,1.9-1.8,1.9-1,0-1.9-.8-1.9-1.8,0,0,0,0,0,0v-.5c0-.4-.2-.8-.4-1l-.6-.6c-.3-.3-.7-.4-1.1-.4-1,0-2.7,0-3.7,0-.4,0-.8.1-1,.4-.1.2-.3.3-.6.6-.3.3-.4.7-.4,1.1,0,.1,0,.8,0,1,0,.4.2.7.6.8l8.8,3c1.2.5,2,1.5,2.1,2.8v3.3c0,1-.4,2-1.1,2.8l-1.4,1.4c-.7.7-1.7,1.1-2.8,1.1h-5,0Z"/>
  <path class="st0" d="M57.8,22c-1,0-2-.4-2.8-1.1l-1.4-1.3c-.7-.7-1.1-1.7-1.1-2.8V1.9C52.5.8,53.4,0,54.4,0c1,0,1.9.8,1.9,1.9h0v14.4c0,.4.2.8.4,1l.6.6c.3.3.6.4,1,.4h4.3c.4,0,.8-.1,1-.4l.6-.6c.3-.3.4-.6.4-1V1.9C64.7.8,65.5,0,66.6,0c1,0,1.9.8,1.9,1.9h0v14.9c0,1-.4,2-1.1,2.8l-1.4,1.3c-.7.7-1.7,1.2-2.8,1.1h-5.3Z"/>
  <path class="st0" d="M111.9,22c-1,0-2-.4-2.8-1.1l-1.4-1.3c-.7-.7-1.1-1.7-1.1-2.8V1.9C106.6.8,107.4,0,108.4,0c1,0,1.9.8,1.9,1.9h0v14.4c0,.4.2.8.4,1l.6.6c.3.3.6.4,1,.4h4.3c.4,0,.8-.1,1-.4l.6-.6c.3-.3.4-.6.4-1V1.9C118.7.8,119.6,0,120.6,0c1,0,1.9.8,1.9,1.9h0v14.9c0,1-.4,2-1.1,2.8l-1.4,1.3c-.7.7-1.7,1.2-2.8,1.1h-5.3,0Z"/>
  <path class="st0" d="M135.3,0h11.9c1,0,1.9.8,1.9,1.9h0c0,1-.8,1.9-1.9,1.9h-4v16.4c0,1-.8,1.9-1.9,1.9s0,0,0,0c-1,0-1.9-.8-1.9-1.9V3.7h-4.1c-1,0-1.9-.9-1.9-1.9,0-1,.8-1.9,1.9-1.9,0,0,0,0,0,0Z"/>
  <path class="st0" d="M168.1,1.7l6.4,17.7c.3,1-.2,2-1.1,2.4-1,.3-2-.2-2.4-1.1h0l-.9-2.7h-8.5l-1.1,2.7c-.3,1-1.4,1.5-2.4,1.1s-1.5-1.4-1.1-2.4l6.4-17.8C163.7.7,164.7,0,165.7,0c1.1,0,2,.7,2.4,1.7ZM168.7,14.2l-2.9-8.3-2.9,8.3h5.8Z"/>
  <path class="st0" d="M200.3,22c-1.6,0-2.9-1.3-2.9-2.9V1.9c0-1,.8-1.9,1.8-1.9,1,0,1.9.8,1.9,1.8,0,0,0,0,0,0v16.4h6.7c1,0,1.8.9,1.8,1.9,0,1-.8,1.8-1.8,1.8h-7.6Z"/>
  <path class="st0" d="M231.9,1.7l6.4,17.7c.3,1-.2,2-1.1,2.4-1,.3-2-.2-2.4-1.1l-.9-2.7h-8.5l-1.1,2.7c-.3,1-1.4,1.5-2.4,1.1-1-.3-1.5-1.4-1.1-2.4l6.4-17.8C227.5.7,228.5,0,229.5,0c1.1,0,2,.7,2.4,1.7h0ZM232.5,14.4l-2.9-8.4-2.9,8.4h5.8Z"/>
  <path class="st0" d="M291.5,16.7c0,1-.4,2-1.1,2.8l-1.3,1.3c-.7.7-1.7,1.2-2.8,1.1h-5.4c-1,0-2-.4-2.8-1.1l-1.3-1.3c-.7-.7-1.1-1.7-1.1-2.8V5.3c0-1,.4-2,1.1-2.8l1.3-1.3C278.8.4,279.8,0,280.9,0h5.4c1,0,2,.4,2.8,1.1l1.3,1.4c.7.7,1.1,1.7,1.1,2.8v11.5h0ZM287.8,5.8c0-.4-.1-.8-.4-1.1l-.6-.6c-.3-.3-.6-.4-1-.4h-4.3c-.4,0-.8.2-1,.4l-.6.6c-.3.3-.4.7-.4,1.1v10.4c0,.4.1.8.4,1.1l.6.6c.3.3.6.4,1,.4h4.3c.4,0,.8-.2,1-.4l.6-.6c.3-.3.4-.7.4-1.1V5.8Z"/>
  <path class="st0" d="M95.8,19.1l-3.4-6.3,2-1.7c.7-.7,1.1-1.7,1.1-2.8v-3.1c0-1-.4-2-1.1-2.8l-1.3-1.4c-.7-.7-1.7-1.2-2.8-1.1h-7.6c-1.6,0-2.9,1.3-2.9,2.9h0v17.2c0,.9.6,1.7,1.5,1.9,1,.2,2-.4,2.2-1.4,0-.1,0-.3,0-.4V3.7h6.2c.4,0,.8.2,1,.4l.6.6c.3.3.4.7.4,1.1v2c0,.4-.2.8-.4,1l-.6.6c-.3.3-.6.4-1,.4h-2.3c-1,0-1.9.8-1.9,1.9h0c0,1,.8,1.9,1.9,1.9,0,0,0,0,0,0h1.3l3.9,7.3c.5.9,1.6,1.2,2.5.7,0,0,0,0,0,0,.9-.5,1.2-1.6.7-2.5h0Z"/>
  <path class="st0" d="M263.2,11.2l-.9-.6s.4-.3.8-.7c.6-.5,1-1.2,1-2v-3.5c0-1-.5-1.9-1.4-2.4l-2.5-1.5c-.6-.3-1.3-.5-2-.5h-5.8c-1.6,0-2.9,1.3-2.9,3.4v16.3c.2,1.4,1.5,2.4,2.9,2.3h6.3c.7,0,1.5-.2,2.1-.6l2.3-1.4c.9-.5,1.4-1.5,1.4-2.5v-3.7c0-1-.5-2-1.3-2.6h0ZM260.7,16.4c0,.4-.2.7-.5.9l-1.1.7c-.3.1-.5.2-.8.2h-5V3.7h4.6c.3,0,.6,0,.8.2l1.2.7c.3.2.5.5.5.9v1.2c0,.4-.2.8-.5,1l-1.1.9c-.3.2-.6.3-.9.3h-.8c-1,0-1.8.9-1.8,1.9,0,1,.8,1.8,1.8,1.8h1.2c.3,0,.7.1.9.3l1,.7c.3.2.5.6.5,1v1.7h0Z"/>
</svg>