<svg xmlns="http://www.w3.org/2000/svg" width="161.19" height="12.172" viewBox="0 0 161.19 12.172"><path d="M1.031,0H7.6A1.028,1.028,0,0,1,8.631,1.031,1.043,1.043,0,0,1,7.6,2.077H5.369v9.059a1.029,1.029,0,0,1-1.031,1.031,1.043,1.043,0,0,1-1.047-1.031V2.073H1.031A1.043,1.043,0,0,1,0,1.026,1.026,1.026,0,0,1,1.031,0Z" fill="#0d4b08"/><path d="M38.1,12.167a2.165,2.165,0,0,1-1.536-.635l-.762-.762a2.389,2.389,0,0,1-.635-1.536V8.5A1.029,1.029,0,0,1,36.2,7.47,1.043,1.043,0,0,1,37.247,8.5c0,.016-.016.208-.016.224.016.648.077.619.57,1.108a1.262,1.262,0,0,0,.587.253h2.155a.753.753,0,0,0,.57-.236,3.692,3.692,0,0,0,.334-.334.725.725,0,0,0,.236-.57V8.277c0-.554-.3-.68-.745-.823L36.616,6.029a1.665,1.665,0,0,1-1.3-1.788V2.908a2.126,2.126,0,0,1,.635-1.536l.79-.745A2.162,2.162,0,0,1,38.294,0H40.75a2.3,2.3,0,0,1,1.6.635l.745.745a2.026,2.026,0,0,1,.635,1.536v.574a1.031,1.031,0,0,1-2.061,0V3.2a.872.872,0,0,0-.236-.57L41.1,2.3a.808.808,0,0,0-.587-.236c-.554,0-1.475-.016-2.045-.016a.657.657,0,0,0-.554.236c-.065.094-.175.175-.334.35a.7.7,0,0,0-.212.587c0,.077,0,.468,0,.57a.476.476,0,0,0,.334.444l4.864,1.646a1.878,1.878,0,0,1,1.189,1.536V9.234a2.194,2.194,0,0,1-.635,1.536l-.762.762a2.2,2.2,0,0,1-1.519.635H38.1Z" transform="translate(-20.844)" fill="#0d4b08"/><path d="M74.223,12.167a2.1,2.1,0,0,1-1.536-.635l-.762-.745a2.242,2.242,0,0,1-.635-1.536V1.031A1.046,1.046,0,0,1,72.337,0a1.029,1.029,0,0,1,1.031,1.031V8.965a.8.8,0,0,0,.236.57l.334.334a.772.772,0,0,0,.57.236h2.375a.753.753,0,0,0,.57-.236l.334-.334a.8.8,0,0,0,.236-.57V1.031A1.043,1.043,0,0,1,79.07,0,1.029,1.029,0,0,1,80.1,1.031v8.22a2.238,2.238,0,0,1-.631,1.536l-.762.745a2.116,2.116,0,0,1-1.536.635H74.227Z" transform="translate(-42.251)" fill="#0d4b08"/><path d="M147.593,12.167a2.1,2.1,0,0,1-1.536-.635l-.762-.745a2.242,2.242,0,0,1-.635-1.536V1.031A1.043,1.043,0,0,1,145.707,0a1.029,1.029,0,0,1,1.031,1.031V8.965a.8.8,0,0,0,.236.57l.334.334a.772.772,0,0,0,.57.236h2.375a.753.753,0,0,0,.57-.236l.334-.334a.8.8,0,0,0,.236-.57V1.031A1.04,1.04,0,0,1,152.436,0a1.029,1.029,0,0,1,1.031,1.031v8.22a2.224,2.224,0,0,1-.635,1.536l-.762.745a2.116,2.116,0,0,1-1.536.635h-2.945Z" transform="translate(-85.735)" fill="#0d4b08"/><path d="M182.241,0h6.574a1.029,1.029,0,0,1,1.031,1.031,1.043,1.043,0,0,1-1.031,1.047h-2.232v9.059a1.029,1.029,0,0,1-1.031,1.031,1.043,1.043,0,0,1-1.047-1.031V2.073h-2.265a1.043,1.043,0,0,1-1.031-1.047A1.028,1.028,0,0,1,182.241,0Z" transform="translate(-107.397)" fill="#0d4b08"/><path d="M219.173.933l3.532,9.809a1.036,1.036,0,1,1-1.951.7l-.521-1.487h-4.688l-.587,1.519a1.033,1.033,0,1,1-1.951-.68L216.538.933A1.427,1.427,0,0,1,217.858,0,1.408,1.408,0,0,1,219.173.933Zm.334,6.945-1.629-4.566-1.6,4.566Z" transform="translate(-126.208)" fill="#0d4b08"/><path d="M269.585,12.167A1.589,1.589,0,0,1,268,10.583V1.047a1.031,1.031,0,1,1,2.061,0v9.059h3.707a1.031,1.031,0,0,1,0,2.061h-4.179Z" transform="translate(-158.835)" fill="#0d4b08"/><path d="M305.783.933l3.532,9.809a1.036,1.036,0,1,1-1.951.7l-.521-1.487h-4.688l-.587,1.519a1.033,1.033,0,1,1-1.951-.68L303.148.933A1.433,1.433,0,0,1,304.472,0a1.408,1.408,0,0,1,1.316.933Zm.334,7.035-1.629-4.656-1.6,4.656Z" transform="translate(-177.539)" fill="#0d4b08"/><path d="M382.936,9.251a2.167,2.167,0,0,1-.631,1.536l-.745.745a2.143,2.143,0,0,1-1.536.635h-2.961a2.126,2.126,0,0,1-1.536-.635l-.745-.745a2.167,2.167,0,0,1-.631-1.536V2.912a2.167,2.167,0,0,1,.631-1.536l.745-.745A2.123,2.123,0,0,1,377.058,0h2.961a2.126,2.126,0,0,1,1.536.635l.745.745a2.167,2.167,0,0,1,.631,1.536V9.255Zm-2.061-6.037a.815.815,0,0,0-.236-.587l-.334-.334a.873.873,0,0,0-.57-.236h-2.391a.872.872,0,0,0-.57.236l-.334.334a.808.808,0,0,0-.236.587V8.949a.815.815,0,0,0,.236.587l.334.334a.872.872,0,0,0,.57.236h2.391a.873.873,0,0,0,.57-.236l.334-.334a.808.808,0,0,0,.236-.587Z" transform="translate(-221.747)" fill="#0d4b08"/><path d="M117.115,10.572l-1.87-3.483,1.092-.933a2.212,2.212,0,0,0,.635-1.536V2.927a2.224,2.224,0,0,0-.635-1.536l-.745-.762A2.065,2.065,0,0,0,114.056.01h-4.2a1.592,1.592,0,0,0-1.6,1.585v9.5a1.069,1.069,0,0,0,.835,1.063,1.031,1.031,0,0,0,1.242-1.01V2.063h3.422a.84.84,0,0,1,.57.236l.322.322a.839.839,0,0,1,.248.595V4.328a.8.8,0,0,1-.236.57l-.334.334a.772.772,0,0,1-.57.236h-1.3A1.029,1.029,0,0,0,111.429,6.5h0a1.029,1.029,0,0,0,1.031,1.031h.7l2.155,4.037a1.025,1.025,0,0,0,1.393.411,1.044,1.044,0,0,0,.411-1.409Z" transform="translate(-64.162 -0.006)" fill="#0d4b08"/><path d="M346.274,6.214l-.477-.35s.22-.191.46-.363a1.4,1.4,0,0,0,.538-1.092V2.462a1.519,1.519,0,0,0-.778-1.344L344.608.311A2.31,2.31,0,0,0,343.5.01h-3.185A1.669,1.669,0,0,0,338.73,1.9v9a1.555,1.555,0,0,0,1.585,1.283H343.8a2.331,2.331,0,0,0,1.173-.334l1.25-.778A1.6,1.6,0,0,0,347,9.7V7.66a1.8,1.8,0,0,0-.729-1.442Zm-1.348,2.868a.588.588,0,0,1-.285.521l-.6.379a.977.977,0,0,1-.46.126h-2.786V2.051h2.566a.867.867,0,0,1,.444.126l.648.4a.6.6,0,0,1,.285.505v.652a.7.7,0,0,1-.269.554l-.587.477a.889.889,0,0,1-.521.191h-.444a1.031,1.031,0,0,0,0,2.061h.684a.817.817,0,0,1,.505.175l.554.411a.666.666,0,0,1,.269.538v.953Z" transform="translate(-200.754 -0.006)" fill="#0d4b08"/></svg>