<?xml version="1.0" encoding="UTF-8"?>
<svg id="_レイヤー_2" data-name="レイヤー 2" xmlns="http://www.w3.org/2000/svg" viewBox="0 0 207.84 15.71">
  <defs>
    <style>
      .cls-1 {
        fill: #0d4b08;
      }
    </style>
  </defs>
  <g id="_レイヤー_1-2" data-name="レイヤー 1">
    <g>
      <path class="cls-1" d="M1.33.01h8.48c.73,0,1.32.6,1.32,1.33,0,0,0,0,0,0,0,.74-.59,1.34-1.33,1.35h-2.88v11.68c0,.73-.59,1.33-1.33,1.33,0,0,0,0,0,0-.74,0-1.34-.59-1.35-1.33V2.68H1.33C.59,2.67,0,2.07,0,1.33,0,.6.59.01,1.32.01c0,0,0,0,0,0Z"/>
      <path class="cls-1" d="M22.25,15.7c-.74,0-1.45-.29-1.98-.82l-.98-.98c-.5-.54-.79-1.24-.82-1.98v-.95c0-.73.59-1.33,1.32-1.33,0,0,0,0,0,0,.74,0,1.34.59,1.35,1.33,0,.02-.02.27-.02.29.02.83.1.8.74,1.43.22.17.48.28.76.33h2.78c.28,0,.54-.1.74-.3.15-.13.29-.28.43-.43.21-.19.32-.46.3-.74v-.86c0-.71-.39-.88-.96-1.06l-5.57-1.84c-1.06-.23-1.78-1.22-1.68-2.31v-1.72c0-.74.29-1.46.82-1.98l1.02-.96C21.03.29,21.75,0,22.5.01h3.17c.77,0,1.5.29,2.06.82l.96.96c.54.51.84,1.23.82,1.98v.74c.02.73-.56,1.34-1.3,1.36-.73.02-1.34-.56-1.36-1.3,0-.02,0-.04,0-.06v-.37c0-.27-.12-.54-.3-.74l-.43-.43c-.2-.2-.47-.31-.76-.3-.71,0-1.9-.02-2.64-.02-.27-.02-.54.09-.71.3-.08.12-.23.23-.43.45-.21.2-.31.48-.27.76,0,.1,0,.6,0,.74,0,.26.18.49.43.57l6.27,2.12c.84.32,1.43,1.09,1.53,1.98v2.35c0,.74-.3,1.45-.82,1.98l-.98.98c-.52.52-1.23.81-1.96.82h-3.53,0Z"/>
      <path class="cls-1" d="M41.22,15.7c-.74.01-1.46-.29-1.98-.82l-.98-.96c-.52-.53-.81-1.24-.82-1.98V1.34c.01-.74.61-1.33,1.35-1.33.73,0,1.33.59,1.33,1.32h0v10.24c0,.28.11.54.3.74l.43.43c.19.2.46.31.74.3h3.06c.28,0,.54-.1.74-.3l.43-.43c.2-.19.31-.46.3-.74V1.34c0-.74.61-1.34,1.36-1.33.73,0,1.33.59,1.33,1.32h0v10.6c0,.74-.3,1.45-.81,1.98l-.98.96c-.52.53-1.23.83-1.98.82h-3.8Z"/>
      <path class="cls-1" d="M79.76,15.7c-.74.01-1.46-.29-1.98-.82l-.98-.96c-.52-.53-.81-1.24-.82-1.98V1.34c0-.74.61-1.33,1.35-1.33.73,0,1.33.59,1.33,1.32h0v10.24c0,.28.11.54.3.74l.43.43c.19.2.46.31.74.3h3.06c.28,0,.54-.1.74-.3l.43-.43c.2-.19.31-.46.3-.74V1.34c0-.74.61-1.33,1.35-1.33.73,0,1.33.59,1.33,1.32h0v10.6c0,.74-.3,1.45-.82,1.98l-.98.96c-.52.53-1.24.83-1.98.82h-3.8,0Z"/>
      <path class="cls-1" d="M96.5.01h8.48c.73,0,1.33.59,1.33,1.32h0c0,.74-.59,1.35-1.33,1.35h-2.88v11.68c0,.73-.59,1.33-1.33,1.33,0,0,0,0,0,0-.74,0-1.34-.59-1.35-1.33V2.68h-2.92c-.74,0-1.33-.61-1.33-1.35,0-.73.6-1.32,1.33-1.32,0,0,0,0,0,0Z"/>
      <path class="cls-1" d="M119.86,1.21l4.55,12.65c.25.69-.11,1.46-.81,1.71-.69.25-1.46-.11-1.71-.81h0l-.67-1.91h-6.04l-.76,1.96c-.24.69-1,1.06-1.7.82s-1.06-1-.82-1.7l4.55-12.71c.26-.72.94-1.2,1.7-1.21.76,0,1.44.49,1.69,1.2ZM120.29,10.17l-2.1-5.89-2.06,5.89h4.16Z"/>
      <path class="cls-1" d="M142.8,15.7c-1.13,0-2.04-.92-2.04-2.04V1.36c-.02-.73.56-1.34,1.3-1.36.73-.02,1.34.56,1.36,1.3,0,.02,0,.04,0,.06v11.68h4.78c.73.02,1.31.63,1.3,1.36-.02.71-.59,1.28-1.3,1.3h-5.39Z"/>
      <path class="cls-1" d="M165.36,1.21l4.55,12.65c.25.69-.11,1.46-.81,1.71-.69.25-1.46-.11-1.71-.81l-.67-1.91h-6.04l-.76,1.96c-.24.69-1,1.06-1.7.82-.69-.24-1.06-1-.82-1.7l4.55-12.71c.26-.72.94-1.2,1.71-1.21.76,0,1.44.49,1.7,1.2h0ZM165.78,10.28l-2.1-6-2.06,6h4.16Z"/>
      <path class="cls-1" d="M207.83,11.94c0,.74-.29,1.45-.81,1.98l-.96.96c-.52.53-1.24.82-1.98.82h-3.82c-.74,0-1.46-.29-1.98-.82l-.96-.96c-.52-.53-.82-1.24-.81-1.98V3.77c0-.74.29-1.45.81-1.98l.96-.96c.52-.53,1.23-.82,1.97-.81h3.82c.74,0,1.46.29,1.98.82l.96.96c.52.53.82,1.24.81,1.98v8.17h0ZM205.18,4.15c0-.28-.11-.56-.3-.76l-.43-.43c-.2-.19-.46-.3-.74-.3h-3.08c-.27,0-.54.12-.74.3l-.43.43c-.2.2-.31.47-.3.76v7.39c0,.28.11.56.3.76l.43.43c.2.19.46.3.74.3h3.08c.27,0,.54-.12.74-.3l.43-.43c.2-.2.31-.47.3-.76v-7.39Z"/>
      <path class="cls-1" d="M68.28,13.63l-2.41-4.49,1.41-1.2c.52-.53.81-1.24.82-1.98v-2.18c0-.74-.3-1.45-.82-1.98l-.96-.98c-.52-.53-1.24-.82-1.98-.8h-5.41c-1.13,0-2.06.91-2.06,2.04h0v12.25c-.01.65.44,1.23,1.08,1.37.72.15,1.42-.31,1.57-1.03.02-.09.03-.18.03-.27V2.66h4.41c.27,0,.54.11.74.3l.41.41c.2.2.32.48.32.77v1.43c0,.28-.11.54-.3.74l-.43.43c-.19.2-.46.31-.74.3h-1.68c-.73,0-1.33.59-1.33,1.32h0c0,.74.59,1.33,1.32,1.33,0,0,0,0,0,0h.9l2.78,5.21c.35.64,1.15.88,1.79.53,0,0,0,0,0,0,.64-.36.88-1.17.53-1.82h0Z"/>
      <path class="cls-1" d="M187.63,8.01l-.61-.45s.29-.25.59-.47c.43-.34.69-.86.69-1.41v-2.51c0-.72-.38-1.38-1-1.73l-1.82-1.04c-.44-.25-.93-.38-1.43-.39h-4.11c-1.15,0-2.04.92-2.04,2.43v11.6c.17.98,1.04,1.69,2.04,1.65h4.49c.53,0,1.06-.15,1.51-.43l1.61-1.01c.62-.37,1-1.03,1-1.75v-2.64c0-.73-.35-1.42-.94-1.86h0ZM185.89,11.71c0,.27-.13.53-.37.67l-.78.49c-.18.1-.39.16-.59.16h-3.59V2.65h3.31c.2,0,.4.06.57.16l.83.51c.23.14.36.39.37.65v.84c0,.28-.13.54-.35.71l-.76.62c-.19.15-.43.24-.67.25h-.57c-.73.02-1.31.63-1.3,1.36.02.71.59,1.28,1.3,1.3h.88c.24,0,.47.08.65.23l.71.53c.22.16.35.42.35.69v1.23h0Z"/>
    </g>
  </g>
</svg>