<svg xmlns="http://www.w3.org/2000/svg" width="291.486" height="22.01" viewBox="0 0 291.486 22.01"><path d="M1.864,0H13.752a1.859,1.859,0,0,1,1.856,1.864,1.886,1.886,0,0,1-1.864,1.893H9.708V20.139A1.861,1.861,0,0,1,7.845,22a1.886,1.886,0,0,1-1.893-1.864V3.749H1.864A1.886,1.886,0,0,1,0,1.856,1.855,1.855,0,0,1,1.864,0Z" fill="#0d4b08"/><path d="M40.473,22A3.916,3.916,0,0,1,37.7,20.853l-1.377-1.377A4.321,4.321,0,0,1,35.17,16.7V15.373a1.861,1.861,0,0,1,1.864-1.864,1.886,1.886,0,0,1,1.893,1.864c0,.029-.029.376-.029.405.029,1.171.14,1.12,1.031,2a2.283,2.283,0,0,0,1.061.457h3.9a1.362,1.362,0,0,0,1.031-.427,6.677,6.677,0,0,0,.6-.6,1.311,1.311,0,0,0,.427-1.031V14.968c0-1-.545-1.23-1.348-1.488L37.785,10.9a3.011,3.011,0,0,1-2.35-3.234V5.259a3.845,3.845,0,0,1,1.149-2.777l1.429-1.348A3.91,3.91,0,0,1,40.82,0h4.442a4.166,4.166,0,0,1,2.887,1.149L49.5,2.5a3.664,3.664,0,0,1,1.149,2.777V6.313a1.864,1.864,0,1,1-3.727,0V5.79a1.578,1.578,0,0,0-.427-1.031l-.6-.6a1.462,1.462,0,0,0-1.061-.427c-1,0-2.666-.029-3.7-.029a1.188,1.188,0,0,0-1,.427c-.118.169-.317.317-.6.633a1.259,1.259,0,0,0-.383,1.061c0,.14.007.847.007,1.031a.86.86,0,0,0,.6.8l8.795,2.976A3.4,3.4,0,0,1,50.7,13.406V16.7a3.968,3.968,0,0,1-1.149,2.777l-1.377,1.377A3.984,3.984,0,0,1,45.423,22H40.466Z" transform="translate(-9.264 0)" fill="#0d4b08"/><path d="M76.593,22a3.8,3.8,0,0,1-2.777-1.149l-1.377-1.348a4.054,4.054,0,0,1-1.149-2.777V1.864A1.891,1.891,0,0,1,73.183,0a1.861,1.861,0,0,1,1.864,1.864V16.213a1.444,1.444,0,0,0,.427,1.031l.6.6a1.4,1.4,0,0,0,1.031.427H81.4a1.362,1.362,0,0,0,1.031-.427l.6-.6a1.444,1.444,0,0,0,.427-1.031V1.864A1.886,1.886,0,0,1,85.359,0a1.861,1.861,0,0,1,1.864,1.864V16.728a4.047,4.047,0,0,1-1.142,2.777L84.7,20.853A3.826,3.826,0,0,1,81.926,22H76.6Z" transform="translate(-18.778)" fill="#0d4b08"/><path d="M149.964,22a3.8,3.8,0,0,1-2.777-1.149l-1.377-1.348a4.054,4.054,0,0,1-1.149-2.777V1.864A1.886,1.886,0,0,1,146.553,0a1.861,1.861,0,0,1,1.864,1.864V16.213a1.444,1.444,0,0,0,.427,1.031l.6.6a1.4,1.4,0,0,0,1.031.427h4.294a1.362,1.362,0,0,0,1.031-.427l.6-.6a1.444,1.444,0,0,0,.427-1.031V1.864A1.88,1.88,0,0,1,158.722,0a1.861,1.861,0,0,1,1.864,1.864V16.728a4.021,4.021,0,0,1-1.149,2.777l-1.377,1.348A3.826,3.826,0,0,1,155.282,22h-5.326Z" transform="translate(-38.104)" fill="#0d4b08"/><path d="M183.074,0h11.889a1.861,1.861,0,0,1,1.864,1.864,1.886,1.886,0,0,1-1.864,1.893h-4.037V20.139A1.861,1.861,0,0,1,189.062,22a1.886,1.886,0,0,1-1.893-1.864V3.749h-4.1a1.886,1.886,0,0,1-1.864-1.893A1.859,1.859,0,0,1,183.074,0Z" transform="translate(-47.731)" fill="#0d4b08"/><path d="M224.2,1.687l6.386,17.737a1.873,1.873,0,1,1-3.528,1.26L226.12,18h-8.478l-1.061,2.748a1.868,1.868,0,1,1-3.528-1.23l6.386-17.826A2.581,2.581,0,0,1,221.826,0,2.547,2.547,0,0,1,224.2,1.687Zm.6,12.559-2.946-8.257-2.895,8.257Z" transform="translate(-56.091)" fill="#0d4b08"/><path d="M270.865,22A2.873,2.873,0,0,1,268,19.137V1.893a1.864,1.864,0,1,1,3.727,0V18.275h6.7a1.864,1.864,0,0,1,0,3.727h-7.557Z" transform="translate(-70.592)" fill="#0d4b08"/><path d="M310.815,1.687,317.2,19.424a1.873,1.873,0,1,1-3.528,1.26L312.73,18h-8.478l-1.061,2.748a1.868,1.868,0,0,1-3.528-1.23l6.386-17.826A2.591,2.591,0,0,1,308.443,0a2.547,2.547,0,0,1,2.379,1.687Zm.6,12.721-2.946-8.419-2.895,8.419Z" transform="translate(-78.904)" fill="#0d4b08"/><path d="M390.038,16.728a3.918,3.918,0,0,1-1.142,2.777l-1.348,1.348A3.875,3.875,0,0,1,384.772,22h-5.355a3.845,3.845,0,0,1-2.777-1.149l-1.348-1.348a3.919,3.919,0,0,1-1.142-2.777V5.267a3.919,3.919,0,0,1,1.142-2.777l1.348-1.348A3.839,3.839,0,0,1,379.409,0h5.355a3.845,3.845,0,0,1,2.777,1.149L388.889,2.5a3.918,3.918,0,0,1,1.142,2.777V16.736ZM386.311,5.812a1.474,1.474,0,0,0-.427-1.061l-.6-.6a1.578,1.578,0,0,0-1.031-.427h-4.324a1.577,1.577,0,0,0-1.031.427l-.6.6a1.462,1.462,0,0,0-.427,1.061V16.183a1.474,1.474,0,0,0,.427,1.061l.6.6a1.577,1.577,0,0,0,1.031.427h4.324a1.578,1.578,0,0,0,1.031-.427l.6-.6a1.462,1.462,0,0,0,.427-1.061Z" transform="translate(-98.552 0)" fill="#0d4b08"/><path d="M124.274,19.11l-3.381-6.3,1.974-1.687a4,4,0,0,0,1.149-2.777V5.284a4.021,4.021,0,0,0-1.149-2.777L121.519,1.13A3.734,3.734,0,0,0,118.742.01h-7.587a2.88,2.88,0,0,0-2.895,2.865V20.053a1.933,1.933,0,0,0,1.51,1.923,1.865,1.865,0,0,0,2.247-1.827V3.722H118.2a1.519,1.519,0,0,1,1.031.427l.582.582a1.517,1.517,0,0,1,.449,1.075V7.818a1.444,1.444,0,0,1-.427,1.031l-.6.6a1.4,1.4,0,0,1-1.031.427h-2.35a1.861,1.861,0,0,0-1.864,1.864h0a1.861,1.861,0,0,0,1.864,1.864h1.267l3.9,7.3a1.854,1.854,0,0,0,2.519.744,1.888,1.888,0,0,0,.744-2.549Z" transform="translate(-28.516 -0.003)" fill="#0d4b08"/><path d="M352.372,11.228l-.862-.633s.4-.346.832-.656a2.539,2.539,0,0,0,.972-1.974V4.444a2.747,2.747,0,0,0-1.407-2.431L349.359.555a4.176,4.176,0,0,0-2-.545H341.6c-1.606,0-2.865,1.289-2.865,3.41V19.692a2.812,2.812,0,0,0,2.865,2.32h6.3a4.215,4.215,0,0,0,2.121-.6L352.276,20a2.891,2.891,0,0,0,1.407-2.46v-3.7a3.259,3.259,0,0,0-1.318-2.608Zm-2.438,5.186a1.063,1.063,0,0,1-.516.943l-1.09.685a1.766,1.766,0,0,1-.832.228h-5.038V3.7H347.1a1.569,1.569,0,0,1,.8.228l1.171.714a1.088,1.088,0,0,1,.516.913V6.735a1.259,1.259,0,0,1-.486,1L348.04,8.6a1.607,1.607,0,0,1-.943.346h-.8a1.864,1.864,0,0,0,0,3.727h1.238a1.477,1.477,0,0,1,.913.317l1,.744a1.2,1.2,0,0,1,.486.972v1.724Z" transform="translate(-89.222 -0.003)" fill="#0d4b08"/></svg>