<svg xmlns="http://www.w3.org/2000/svg" id="_レイヤー_1" data-name="レイヤー_1" version="1.1" viewBox="0 0 291.5 22"><defs><style>.st0{fill:#fff}</style></defs><path d="M1.9 0h11.9c1 0 1.9.8 1.9 1.9 0 1-.8 1.9-1.9 1.9h-4v16.4c0 1-.8 1.9-1.9 1.9-1 0-1.9-.8-1.9-1.9V3.7H1.9C.9 3.7 0 2.8 0 1.8S.8 0 1.9 0M31.2 22c-1 0-2-.4-2.8-1.1L27 19.5c-.7-.8-1.1-1.7-1.2-2.8v-1.3c0-1 .8-1.9 1.9-1.9 1 0 1.9.8 1.9 1.9v.4c0 1.2.1 1.1 1 2 .3.2.7.4 1.1.5h3.9c.4 0 .8-.1 1-.4l.6-.6c.3-.3.4-.6.4-1v-1.2c0-1-.5-1.2-1.3-1.5L28.5 11c-1.5-.3-2.5-1.7-2.3-3.2V5.4c0-1 .4-2 1.1-2.8l1.4-1.3C29.5.4 30.5 0 31.6 0H36c1.1 0 2.1.4 2.9 1.1l1.4 1.4c.8.7 1.2 1.7 1.1 2.8v1c0 1-.8 1.9-1.8 1.9s-1.9-.8-1.9-1.8v-.5c0-.4-.2-.8-.4-1l-.6-.6c-.3-.3-.7-.4-1.1-.4h-3.7c-.4 0-.8.1-1 .4-.1.2-.3.3-.6.6s-.4.7-.4 1.1v1c0 .4.2.7.6.8l8.8 3c1.2.5 2 1.5 2.1 2.8v3.3c0 1-.4 2-1.1 2.8l-1.4 1.4c-.7.7-1.7 1.1-2.8 1.1h-5ZM57.8 22c-1 0-2-.4-2.8-1.1l-1.4-1.3c-.7-.7-1.1-1.7-1.1-2.8V1.9c0-1.1.9-1.9 1.9-1.9s1.9.8 1.9 1.9v14.4c0 .4.2.8.4 1l.6.6c.3.3.6.4 1 .4h4.3c.4 0 .8-.1 1-.4l.6-.6c.3-.3.4-.6.4-1V1.9c.1-1.1.9-1.9 2-1.9 1 0 1.9.8 1.9 1.9v14.9c0 1-.4 2-1.1 2.8L66 20.9c-.7.7-1.7 1.2-2.8 1.1h-5.3ZM111.9 22c-1 0-2-.4-2.8-1.1l-1.4-1.3c-.7-.7-1.1-1.7-1.1-2.8V1.9c0-1.1.8-1.9 1.8-1.9s1.9.8 1.9 1.9v14.4c0 .4.2.8.4 1l.6.6c.3.3.6.4 1 .4h4.3c.4 0 .8-.1 1-.4l.6-.6c.3-.3.4-.6.4-1V1.9c.1-1.1 1-1.9 2-1.9s1.9.8 1.9 1.9v14.9c0 1-.4 2-1.1 2.8l-1.4 1.3c-.7.7-1.7 1.2-2.8 1.1zM135.3 0h11.9c1 0 1.9.8 1.9 1.9 0 1-.8 1.9-1.9 1.9h-4v16.4c0 1-.8 1.9-1.9 1.9-1 0-1.9-.8-1.9-1.9V3.7h-4.1c-1 0-1.9-.9-1.9-1.9s.8-1.9 1.9-1.9ZM168.1 1.7l6.4 17.7c.3 1-.2 2-1.1 2.4-1 .3-2-.2-2.4-1.1l-.9-2.7h-8.5l-1.1 2.7c-.3 1-1.4 1.5-2.4 1.1s-1.5-1.4-1.1-2.4l6.4-17.8c.3-.9 1.3-1.6 2.3-1.6 1.1 0 2 .7 2.4 1.7m.6 12.5-2.9-8.3-2.9 8.3zM200.3 22c-1.6 0-2.9-1.3-2.9-2.9V1.9c0-1 .8-1.9 1.8-1.9s1.9.8 1.9 1.8v16.4h6.7c1 0 1.8.9 1.8 1.9s-.8 1.8-1.8 1.8h-7.6ZM231.9 1.7l6.4 17.7c.3 1-.2 2-1.1 2.4-1 .3-2-.2-2.4-1.1l-.9-2.7h-8.5l-1.1 2.7c-.3 1-1.4 1.5-2.4 1.1-1-.3-1.5-1.4-1.1-2.4l6.4-17.8c.3-.9 1.3-1.6 2.3-1.6 1.1 0 2 .7 2.4 1.7m.6 12.7L229.6 6l-2.9 8.4zM291.5 16.7c0 1-.4 2-1.1 2.8l-1.3 1.3c-.7.7-1.7 1.2-2.8 1.1h-5.4c-1 0-2-.4-2.8-1.1l-1.3-1.3c-.7-.7-1.1-1.7-1.1-2.8V5.3c0-1 .4-2 1.1-2.8l1.3-1.3c.7-.8 1.7-1.2 2.8-1.2h5.4c1 0 2 .4 2.8 1.1l1.3 1.4c.7.7 1.1 1.7 1.1 2.8v11.5Zm-3.7-10.9c0-.4-.1-.8-.4-1.1l-.6-.6c-.3-.3-.6-.4-1-.4h-4.3c-.4 0-.8.2-1 .4l-.6.6c-.3.3-.4.7-.4 1.1v10.4c0 .4.1.8.4 1.1l.6.6c.3.3.6.4 1 .4h4.3c.4 0 .8-.2 1-.4l.6-.6c.3-.3.4-.7.4-1.1zM95.8 19.1l-3.4-6.3 2-1.7c.7-.7 1.1-1.7 1.1-2.8V5.2c0-1-.4-2-1.1-2.8L93.1 1c-.7-.7-1.7-1.2-2.8-1.1h-7.6c-1.6 0-2.9 1.3-2.9 2.9V20c0 .9.6 1.7 1.5 1.9 1 .2 2-.4 2.2-1.4V3.7h6.2c.4 0 .8.2 1 .4l.6.6c.3.3.4.7.4 1.1v2c0 .4-.2.8-.4 1l-.6.6c-.3.3-.6.4-1 .4h-2.3c-1 0-1.9.8-1.9 1.9 0 1 .8 1.9 1.9 1.9h1.3l3.9 7.3c.5.9 1.6 1.2 2.5.7s1.2-1.6.7-2.5M263.2 11.2l-.9-.6s.4-.3.8-.7c.6-.5 1-1.2 1-2V4.4c0-1-.5-1.9-1.4-2.4L260.2.5c-.6-.3-1.3-.5-2-.5h-5.8c-1.6 0-2.9 1.3-2.9 3.4v16.3c.2 1.4 1.5 2.4 2.9 2.3h6.3c.7 0 1.5-.2 2.1-.6l2.3-1.4c.9-.5 1.4-1.5 1.4-2.5v-3.7c0-1-.5-2-1.3-2.6m-2.5 5.2c0 .4-.2.7-.5.9l-1.1.7c-.3.1-.5.2-.8.2h-5V3.7h4.6c.3 0 .6 0 .8.2l1.2.7c.3.2.5.5.5.9v1.2c0 .4-.2.8-.5 1l-1.1.9q-.45.3-.9.3h-.8c-1 0-1.8.9-1.8 1.9s.8 1.8 1.8 1.8h1.2c.3 0 .7.1.9.3l1 .7c.3.2.5.6.5 1v1.7Z" class="st0"/></svg>