<svg xmlns="http://www.w3.org/2000/svg" id="_レイヤー_2" data-name="レイヤー_2" viewBox="0 0 381.7 39.29"><defs><style>.cls-1{fill:#004829}.cls-2{fill:none;stroke:#004829;stroke-linecap:round;stroke-linejoin:round;stroke-width:.99px}</style></defs><g id="_レイヤー_1-2" data-name="レイヤー_1"><path d="M.49.49v38.3M381.21.49v38.3" class="cls-2"/><path d="M11.71 7.43c-.9 0-1.21.02-1.27.02-.1 0-.11-.01-.11-.1v-.61c0-.1.01-.11.11-.11.06 0 .37.02 1.27.02h2.45v-.46h-1.2c-.98 0-1.32.02-1.38.02-.1 0-.11 0-.11-.11v-.55c0-.1.01-.1.11-.1.06 0 .4.01 1.38.01h1.2v-.44h-1.75c-.97 0-1.3.02-1.36.02-.1 0-.11 0-.11-.12v-.59c0-.1 0-.11.11-.11.06 0 .39.02 1.36.02h1.75c0-.39-.01-.65-.07-.92.36 0 .73.03 1.09.07.1 0 .15.06.15.1 0 .08-.02.12-.05.2-.05.1-.06.25-.06.55h1.92c.97 0 1.3-.02 1.36-.02.1 0 .11 0 .11.11v.59c0 .11-.01.12-.11.12-.06 0-.39-.02-1.36-.02h-1.92v.44h1.4c.97 0 1.31-.01 1.37-.01.11 0 .12 0 .12.1v.55c0 .1 0 .11-.12.11-.06 0-.4-.02-1.37-.02h-1.4v.46h2.63c.89 0 1.21-.02 1.27-.02.1 0 .11.01.11.11v.61c0 .09-.01.1-.11.1-.06 0-.37-.02-1.27-.02zm5.96 2.84c0 .47.02.93.02 1.18 0 .32-.07.61-.26.79-.17.16-.52.24-1.42.24-.31 0-.33.02-.4-.29-.05-.23-.17-.53-.29-.69.39.03.7.04.99.04.26 0 .34-.09.34-.33v-.3h-3.73v.45c0 .7.02 1.04.02 1.09 0 .1-.01.11-.11.11H12c-.1 0-.11 0-.11-.11 0-.06.02-.36.02-1.08V9.08c0-.71-.02-1.04-.02-1.11 0-.1.01-.11.11-.11.06 0 .39.02 1.36.02h2.87c.97 0 1.3-.02 1.36-.02.11 0 .12 0 .12.11 0 .06-.02.44-.02 1.19v1.12Zm-4.76-1.64v.46h3.73v-.46zm3.73 1.6v-.46h-3.73v.46zM22.37 8.17c0-.42-.01-.63-.05-.88.35 0 .62.02.94.05.09.01.14.05.14.1 0 .06-.03.12-.05.17-.03.06-.05.19-.05.56v.25h.14c.82 0 1.1-.02 1.15-.02.1 0 .11 0 .11.11v.66c0 .11 0 .12-.11.12-.05 0-.31-.02-1.08-.02.34.41.76.74 1.28 1.07-.14.14-.27.32-.37.51-.07.14-.12.2-.17.2s-.11-.05-.22-.15c-.31-.28-.53-.52-.75-.91.02 1.54.04 2.26.04 2.44 0 .1 0 .11-.11.11h-.73c-.1 0-.11 0-.11-.11 0-.17.02-.83.03-2.22-.32.57-.78 1.12-1.34 1.6-.1.09-.16.13-.21.13s-.09-.06-.16-.21c-.1-.21-.27-.45-.4-.58.74-.5 1.33-1.07 1.86-1.88h-.32c-.82 0-1.1.02-1.16.02-.09 0-.1 0-.1-.12v-.66c0-.1 0-.11.1-.11.06 0 .33.02 1.16.02h.55v-.25Zm.12-2.86c-.97 0-1.29.02-1.36.02-.1 0-.11 0-.11-.11v-.68c0-.09.01-.1.11-.1.07 0 .39.02 1.36.02h1.95v-.02c0-.45-.01-.69-.06-1.11.36 0 .72.03 1.07.07.1 0 .16.06.16.11 0 .07-.03.12-.05.19-.04.09-.06.25-.06.6v.15h2.09c.96 0 1.29-.02 1.35-.02.1 0 .11 0 .11.1v.68c0 .1-.01.11-.11.11-.06 0-.39-.02-1.35-.02h-1.41c.96.69 2 1.12 3.39 1.43-.16.17-.32.39-.42.6-.09.19-.13.26-.22.26-.05 0-.12-.02-.22-.05-1.36-.42-2.48-1.09-3.24-1.91 0 .95.05 1.79.05 2 0 .1 0 .11-.11.11h-.88c-.1 0-.11-.01-.11-.11 0-.21.03-1.02.04-1.99-.75.87-1.86 1.47-3.09 1.89-.11.04-.18.06-.24.06-.08 0-.12-.06-.21-.24a2.4 2.4 0 0 0-.42-.59c1.33-.3 2.35-.77 3.24-1.46h-1.25Zm4.09 2.85c0-.39 0-.61-.04-.88.35 0 .64.03.98.06.07 0 .12.06.12.1 0 .05-.02.11-.05.17s-.04.18-.04.53v.27h.67c.86 0 1.15-.02 1.21-.02.11 0 .11 0 .11.11v.66c0 .11 0 .12-.11.12-.06 0-.34-.02-1.21-.02h-.45c.56.75 1.21 1.32 2.07 1.79-.14.15-.3.37-.4.59-.08.16-.12.23-.18.23-.05 0-.11-.04-.21-.12-.59-.47-1.13-1.03-1.53-1.69 0 1.41.03 2.19.03 2.35 0 .11 0 .12-.1.12h-.76c-.1 0-.11 0-.11-.12 0-.16.02-.95.03-2.35-.33.66-.9 1.32-1.58 1.8-.11.08-.18.13-.23.13-.06 0-.1-.06-.18-.19-.11-.19-.27-.37-.44-.5.88-.5 1.6-1.21 2.15-2.04-.8 0-1.08.02-1.14.02-.1 0-.11 0-.11-.12V8.5c0-.1.01-.11.11-.11.06 0 .34.02 1.21.02h.19v-.26ZM33.86 10.44c.11.08.15.12.15.16 0 .06-.06.12-.14.15-.08.04-.21.16-.32.27-.41.41-.95.83-1.6 1.18-.11.06-.18.1-.23.1-.08 0-.13-.07-.23-.22-.17-.22-.35-.37-.56-.51.77-.28 1.42-.75 1.77-1.1.16-.17.24-.26.37-.48.33.16.57.29.79.45M31.37 5.5c0-.48-.01-.74-.07-1.13.37 0 .74.03 1.1.07.1 0 .16.07.16.13s-.03.12-.06.21c-.05.13-.06.27-.06.69v3.41h5.83c.94 0 1.26-.02 1.32-.02.1 0 .11.01.11.11v.71c0 .1-.01.11-.11.11-.06 0-.38-.02-1.32-.02h-2.39v1.55c0 .74.02 1.03.02 1.09 0 .1 0 .11-.11.11h-.92c-.09 0-.1-.01-.1-.11 0-.07.02-.34.02-1.09V9.77H32.8c-.95 0-1.28.02-1.34.02-.1 0-.11 0-.11-.11 0-.07.02-.45.02-1.29V5.48Zm5.8-1.81c.92 0 1.24-.02 1.3-.02.11 0 .12 0 .12.11 0 .06-.02.38-.02 1.09v2.22c0 .7.02 1.02.02 1.09 0 .1-.11.11-.22.11-.06 0-.28-.02-1.2-.02h-2.24c-.92 0-1.23.02-1.3.02-.1 0-.21 0-.21-.11 0-.07.02-.38.02-1.09V4.87c0-.7-.02-1.02-.02-1.09 0-.1.01-.11.11-.11.07 0 .38.02 1.3.02zm-2.73 1.3h3.11v-.53h-3.11zm3.11 1.24v-.55h-3.11v.55zm0 .7h-3.11v.59h3.11zm-.24 3.15c.06-.04.09-.05.12-.05s.06 0 .1.05c.56.53 1.29 1.05 2.18 1.4-.18.14-.36.33-.55.6-.11.15-.15.22-.22.22-.05 0-.12-.04-.23-.11a8.2 8.2 0 0 1-2.01-1.61c-.07-.07-.05-.1.06-.17zM45.97 10.18c.12.04.14.06.12.16-.12.61-.29 1.33-.53 1.85-.04.1-.05.1-.17.06l-.44-.2c-.14-.05-.14-.09-.08-.19l.07-.16h-2.3899999999999997v.43c0 .1-.01.11-.11.11h-.67c-.1 0-.11-.01-.11-.11 0-.06.02-.26.02-.92V8.38l-.3.3c-.1.1-.17.14-.22.14s-.08-.04-.11-.12c-.1-.35-.22-.5-.32-.62.92-.74 1.49-1.59 1.82-2.78h-.59v.75c0 .1-.01.11-.11.11h-.64c-.1 0-.11 0-.11-.11 0-.07.02-.17.02-.82v-.22c0-.23-.02-.35-.02-.42 0-.1 0-.11.11-.11.06 0 .35.02 1.18.02h.35l.06-.31c.06-.34.08-.56.08-.84.35.03.61.07.85.11.12.03.18.06.18.13s-.03.11-.08.17-.08.19-.13.48l-.05.26h.43c.83 0 1.11-.02 1.18-.02.1 0 .11.01.11.11 0 .06-.02.19-.02.35v.26c0 .62.02.72.02.79 0 .1 0 .11-.11.11h-.64c-.1 0-.11-.01-.11-.11V5.3h-1.04c-.14.53-.34 1.04-.62 1.53h.61c.09-.15.15-.29.2-.42s.1-.28.13-.48c.24.05.58.14.76.18.09.02.12.06.12.11s-.03.08-.07.11c-.06.05-.1.09-.13.16l-.16.34h.05c.61 0 .78-.02.84-.02.1 0 .11.01.11.12v.53c0 .1 0 .11-.11.11-.06 0-.23-.02-.84-.02h-.13v.63c.53 0 .73-.02.78-.02.1 0 .11.01.11.11v.52c0 .1-.01.11-.11.11-.05 0-.25 0-.78-.02v.62c.54 0 .74-.02.79-.02.1 0 .11 0 .11.11v.53c0 .1-.01.11-.11.11-.05 0-.25 0-.79-.02v.72c.63 0 .85-.02.99-.02.08-.26.14-.52.19-.78.02-.11.04-.11.16-.08l.41.12Zm-2.56-2.01v-.63h-.85v.63zm0 1.33v-.62h-.85v.62zm0 1.44v-.72h-.85v.72zM47 9.72c-.75 0-1.14.02-1.2.02-.1 0-.11 0-.11-.12 0-.06.02-.41.02-1.22V5.5c0-.79-.02-1.13-.02-1.19 0-.1 0-.11.11-.11.05 0 .28.02.92.02.08-.14.13-.27.17-.38.07-.19.11-.33.14-.56.34.04.66.08.92.12.09.02.17.06.17.12s-.03.1-.11.16c-.06.05-.08.11-.13.22l-.15.32h.51c.78 0 1.06-.02 1.12-.02.1 0 .11 0 .11.11 0 .07-.02.27-.02.83V6.4c0 .55.02.77.02.83 0 .1-.01.11-.11.11-.06 0-.33-.02-1.12-.02h-1.62v.43h2.09c.99 0 1.32-.02 1.38-.02.1 0 .11.01.11.12v.55c0 .11 0 .12-.11.12-.06 0-.39-.02-1.38-.02h-2.09v.45h2.26c.72 0 .96-.02 1.02-.02.09 0 .11.02.11.12l-.05.61c-.04.9-.13 1.66-.26 2.02-.18.6-.54.78-1.22.78h-.5c-.17 0-.19-.03-.21-.26-.03-.29-.09-.5-.16-.64.28.03.44.05.72.05s.44-.04.51-.25c.07-.19.15-.68.19-1.65h-2.04Zm-.52 2.22c-.12.03-.13.02-.13-.09.01-.54-.03-1.07-.12-1.56-.02-.11 0-.13.11-.15l.39-.07c.11-.02.12-.02.14.09.08.47.14 1 .14 1.51 0 .1 0 .13-.11.16zm.14-6.98v.47h1.9v-.47zm1.9 1.13h-1.9v.5h1.9zm-.97 3.88c.08-.02.1-.02.13.08.12.38.22.82.27 1.2.01.1 0 .12-.09.15l-.35.13c-.13.05-.15.02-.16-.1a8 8 0 0 0-.24-1.22c-.02-.1-.01-.12.12-.15zm.73-.06c.09-.03.11-.02.16.07.1.22.25.55.31.82.03.1.02.13-.1.18l-.28.11c-.1.04-.12.04-.14-.07-.06-.28-.16-.62-.27-.88-.03-.1-.01-.12.07-.15zM51.89 12.34c-.1 0-.11 0-.11-.11 0-.07.02-.67.02-3.58V6.72c0-1.94-.02-2.56-.02-2.63 0-.1.01-.11.11-.11.07 0 .41.02 1.37.02h5.07c.96 0 1.3-.02 1.37-.02.1 0 .11 0 .11.11 0 .07-.02.69-.02 2.33v2.23c0 2.91.02 3.51.02 3.57 0 .1-.01.11-.11.11h-.86c-.1 0-.11-.01-.11-.11v-.55h-5.85v.56c0 .1-.01.11-.11.11h-.86Zm.97-5.02h2.36V4.95h-2.36zm2.37 3.39V8.27h-2.36v2.44zm1.03-5.76v2.37h2.45V4.95zm2.46 5.76V8.27h-2.45v2.44zM66.45 7.87c0 2.4.02 2.86.02 2.92 0 .1 0 .11-.11.11h-.75c-.1 0-.11 0-.11-.11v-.43h-2.6v.74c0 .1-.01.11-.1.11h-.77c-.1 0-.11-.01-.11-.11 0-.07.02-.54.02-3.07V6.24c0-1.79-.02-2.3-.02-2.36 0-.1 0-.11.11-.11.07 0 .36.02 1.23.02h1.89c.87 0 1.16-.02 1.23-.02.1 0 .11 0 .11.11 0 .06-.02.57-.02 2.36v1.63Zm-3.56-1.29h.81V4.69h-.81zm.82 2.88V7.47h-.81v1.99zm.94-4.78v1.89h.84V4.68zm.85 4.78V7.47h-.84v1.99zm2.61-3.47c-.87 0-1.18.02-1.24.02-.11 0-.12 0-.12-.12v-.83c0-.1.01-.11.12-.11.06 0 .36.02 1.24.02h1.25c.87 0 1.18-.02 1.24-.02.11 0 .12 0 .12.11v.83c0 .11-.01.12-.12.12-.06 0-.35-.02-1.14-.02v3.63c0 .6.03 1.16.03 1.6 0 .5-.07.77-.34 1.01-.23.19-.52.27-1.41.26q-.29 0-.37-.32a2.8 2.8 0 0 0-.3-.77c.28.03.6.04.91.04.35 0 .45-.08.45-.39V6h-.31ZM23.73 23.56c1.05 0 2.25-.02 3.23-.06.26-.02.28.11.3.34.04.54.04 1.16 0 1.69-.02.28-.06.36-.36.34-.73 0-2.03-.02-3.08-.02h-.88c-.13 3.06-.6 4.86-1.65 6.59-1.07 1.78-2.8 3.06-5.05 3.98-.3.13-.47.19-.6.19s-.24-.06-.41-.24c-.64-.66-1.05-.96-1.78-1.28 3.04-.94 4.69-2.03 5.78-3.79.83-1.37 1.18-2.85 1.26-5.46h-4.56v.77c0 1.26 0 2.42.06 3.55.02.24-.13.28-.36.3-.56.04-1.26.04-1.84 0-.28-.02-.41-.06-.39-.3.06-1.11.11-2.16.11-3.51v-.81h-.64c-1.16 0-2.87.06-3.53.11-.17 0-.24-.13-.26-.41-.09-.45-.11-1.2-.15-2.08.9.06 2.29.11 3.94.11h.64v-1.56c0-1.37-.04-1.91-.26-3.15 1.11.11 2.16.21 2.61.34.24.04.32.15.32.3 0 .13-.06.28-.13.45-.15.39-.15.6-.15 2.06v1.56h4.6l.02-2.1c.02-1.2-.04-2.18-.19-2.93.81.09 1.99.21 2.5.36.3.06.39.17.39.34a1 1 0 0 1-.09.38c-.15.41-.17.96-.17 1.88v2.03h.75ZM39.83 26.9c-.13 2.4-.43 3.83-1.26 5.46-.86 1.67-2.4 3.23-3.77 4.05-.24.15-.45.26-.64.26-.15 0-.3-.06-.45-.21-.43-.43-1.16-.86-1.91-1.13 2.1-1.13 3.36-2.18 4.26-3.81.79-1.41 1.01-2.57 1.09-4.6h-4.07c-1.07 0-2.12.06-3.21.13-.19.02-.26-.13-.28-.41-.11-.6-.17-1.41-.17-2.06 1.2.11 2.4.11 3.64.11h9.61c1.67 0 2.91-.04 4.17-.13.21 0 .24.13.24.43.02.28.02 1.37 0 1.65 0 .28-.13.36-.32.36-1.11-.04-2.59-.09-4.07-.09h-2.87Zm-4.24-4.97c-.98 0-1.84.04-3.04.09-.28 0-.34-.11-.36-.36-.06-.51-.09-1.28-.15-2.05 1.5.08 2.59.11 3.55.11h4.8c1.2 0 2.55-.02 3.62-.08.21 0 .26.13.26.41.04.51.04 1.05 0 1.56 0 .3-.04.41-.28.41-1.16-.04-2.42-.06-3.6-.06h-4.8ZM53.17 26.26c-1.07 0-2.14.02-3.21.09-.19 0-.28-.13-.32-.41-.13-.54-.17-1.33-.24-2.16 1.22.13 2.53.17 3.94.17h7.34c.36 0 .79-.04 1.13-.24.11-.09.19-.13.28-.13.11 0 .21.06.32.15.51.41 1.09.94 1.43 1.33.15.15.21.3.21.45 0 .13-.06.28-.24.41-.34.28-.49.51-.73 1.01-2.14 4.56-4.6 7.24-8.73 9.46-.17.09-.3.15-.43.15-.15 0-.3-.09-.47-.26-.58-.51-1.26-.83-1.99-1.11 3.96-1.84 7.45-4.8 8.99-8.93l-7.3.02Zm1.43-4.6c-.96 0-2.03.02-2.93.09-.21 0-.28-.13-.3-.47-.06-.45-.11-1.39-.11-2.05 1.31.13 1.95.15 3.51.15h3.85c1.39 0 2.53-.06 3.36-.11.19 0 .26.11.26.34.04.54.04 1.13 0 1.67 0 .36-.06.45-.39.43-.71 0-1.71-.04-3.02-.04h-4.24ZM75.39 31.65c0 1.48.02 2.74.06 4.45.02.28-.09.36-.32.36-.69.04-1.46.04-2.14 0-.24 0-.32-.09-.3-.34.02-1.54.09-2.93.09-4.39v-4.99c-1.88 1.58-4.17 3.21-5.89 4.11-.11.06-.21.08-.32.08-.17 0-.3-.06-.45-.21-.49-.49-1.2-.92-1.84-1.26 2.95-1.52 4.77-2.76 6.74-4.39 1.69-1.39 3.23-2.89 4.56-4.47.73-.86 1.01-1.28 1.35-2.21.96.54 1.91 1.11 2.38 1.5.13.08.17.21.17.32 0 .17-.13.36-.3.47-.36.24-.71.56-1.28 1.18-.83 1.01-1.63 1.84-2.5 2.7v7.09ZM85.52 24.65c2.61.81 4.69 1.65 6.81 2.91.24.13.34.28.24.56-.28.71-.62 1.37-.92 1.86-.09.15-.17.24-.28.24-.06 0-.15-.02-.24-.11-1.97-1.26-3.9-2.21-5.63-2.74v4.73c0 1.39.04 2.65.09 4.2.02.26-.09.32-.39.32-.62.04-1.28.04-1.91 0-.3 0-.41-.06-.41-.32.06-1.58.09-2.85.09-4.22V21.55c0-1.61-.06-2.31-.21-3.17.98.06 2.06.17 2.68.34.3.06.41.19.41.36 0 .13-.06.3-.17.49-.15.28-.15.81-.15 2.01v3.06ZM104.27 27.01c-.83 1.2-1.71 2.14-3.02 3.3-1.09 1.01-2.74 2.27-4.05 3-.19.13-.34.19-.49.19-.13 0-.26-.06-.36-.21-.43-.51-1.16-1.03-1.76-1.26 2.18-1.2 3.53-2.1 4.99-3.38 1.26-1.11 2.29-2.14 3.15-3.32l-3.75.02c-1.11 0-2.31.04-3.43.11-.19.02-.28-.13-.3-.36-.09-.41-.13-1.29-.17-2.08 1.28.09 2.55.11 3.83.11h5.1l-.09-1.91c-.04-1.07-.15-1.84-.34-2.53 1.16.04 2.03.11 2.7.24.21.04.28.13.28.26 0 .09-.04.19-.09.32-.06.26-.15.6-.09 1.97l.06 1.63h1.86c1.5 0 2.57-.04 4.15-.11.21 0 .32.11.32.26.02.6.02 1.26 0 1.86 0 .17-.09.3-.3.3-1.56-.06-2.78-.11-4.11-.11h-1.73l.39 8.05c.06 1.13-.32 1.84-1.03 2.27-.73.43-1.97.75-2.95.75-.41 0-.56-.08-.66-.36-.34-.79-.71-1.29-1.5-1.91 1.61-.02 2.29-.06 3.02-.21.49-.11.66-.32.62-1.26l-.26-5.61ZM119.18 23.2c-1.39 0-2.61.06-3.53.11-.28.02-.36-.13-.41-.43-.06-.43-.15-1.54-.19-2.16.96.11 2.1.15 4.11.15h7.64c.64 0 .88-.04 1.18-.21.11-.06.21-.09.32-.09.13 0 .26.04.41.11.58.36 1.16.9 1.56 1.41.11.13.15.24.15.36 0 .19-.11.36-.3.54-.19.19-.3.41-.49.83-1.05 2.53-2.35 4.88-4.15 6.96-1.84 2.1-3.92 3.88-6.08 5.09-.19.13-.39.19-.58.19-.17 0-.36-.06-.54-.24-.49-.47-1.2-.86-1.99-1.18 3.13-1.58 5.03-3.06 7-5.35 1.67-1.91 2.76-3.72 3.62-6.1h-7.73ZM138.23 32.85c0 1.03.04 2.4.06 3.49.02.26-.11.36-.36.38-.56.04-1.18.04-1.73 0-.24-.02-.36-.13-.34-.38.02-1.22.06-2.29.06-3.43v-3.66c-1.46 1.22-3.34 2.53-4.43 3.08-.09.06-.19.09-.28.09-.15 0-.32-.09-.43-.21-.39-.45-.96-.88-1.54-1.07 3.36-1.75 6.27-4 8.88-6.96.49-.58.86-1.11 1.13-1.84.73.43 1.63.98 1.97 1.28.15.13.24.28.24.38 0 .15-.11.3-.32.41-.28.15-.77.66-.96.88-.56.64-1.2 1.35-1.95 2.08zM154.33 20.78c.77 0 1.16-.02 1.48-.19.09-.06.15-.09.24-.09.13 0 .24.09.36.17.49.38.98.94 1.39 1.5.06.11.11.19.11.28 0 .13-.09.28-.28.43-.28.24-.56.56-.79.94-.88 1.5-1.71 2.7-2.74 4 2.06 1.52 3.96 3.19 5.93 5.18.11.11.17.21.17.3s-.04.19-.15.32c-.41.49-.9 1.01-1.43 1.46-.09.09-.17.13-.26.13-.11 0-.19-.06-.3-.17-1.8-2.1-3.64-3.79-5.57-5.31-2.42 2.53-4.86 4.35-7.19 5.65-.19.09-.34.17-.49.17a.45.45 0 0 1-.36-.19c-.47-.58-1.09-1.01-1.8-1.39 3.34-1.69 5.33-3.21 7.54-5.46 1.54-1.61 2.72-3.12 4.02-5.37l-5.52.02c-1.11 0-2.23.04-3.38.13-.17.02-.24-.13-.28-.36-.11-.45-.19-1.48-.19-2.23 1.16.08 2.23.08 3.62.08h5.89ZM174.91 33.39c0 .44.1.58.35.64.25.08.75.1 1.51.1.7 0 1.43-.08 1.66-.25.31-.23.46-.75.48-2.05.39.25.91.5 1.41.68q.48.17.43.66c-.12 1.35-.37 1.85-.91 2.24-.54.42-1.74.58-3.23.58s-2.36-.06-2.92-.27c-.44-.19-.79-.5-.79-1.37v-4h-1.74c-.56 3.26-2.59 5.25-5.93 5.95-.19.04-.31.06-.41.06-.19 0-.25-.1-.44-.48-.25-.48-.58-.93-.95-1.26 3.42-.42 5.22-1.85 5.6-4.27h-.04c-1.87 0-2.49.04-2.61.04-.21 0-.23-.02-.23-.21 0-.13.04-.85.04-2.36v-5.78c0-1.54-.04-2.26-.04-2.4 0-.19.02-.21.23-.21.12 0 .77.04 2.65.04h6.22c1.85 0 2.51-.04 2.65-.04.19 0 .21.02.21.21 0 .14-.04.85-.04 2.4v5.78c0 1.51.04 2.24.04 2.36 0 .19-.02.21-.21.21-.14 0-.79-.04-2.65-.04h-.35v3.05Zm-6.73-12.17v1.41h7.88v-1.41zm7.88 4.41v-1.37h-7.88v1.37zm0 1.62h-7.88v1.43h7.88zM184.29 31.27c-1.72 0-2.3.04-2.41.04-.19 0-.21-.02-.21-.21v-1.49c0-.19.02-.21.21-.21.12 0 .7.04 2.41.04h5.08c-.02-.62-.04-1.12-.12-1.64l1.12.12c.66-.42 1.18-.85 1.76-1.39h-4.17c-1.78 0-2.4.04-2.49.04-.19 0-.21-.02-.21-.19v-1.35c0-.19.02-.21.21-.21.1 0 .71.04 2.49.04h5.24c.27 0 .39 0 .46-.04.1-.04.16-.08.25-.08.15 0 .35.15.83.62.39.41.54.66.54.83 0 .16-.08.25-.23.31-.19.1-.46.25-.93.64-.79.68-1.66 1.35-2.7 2.01v.31h4.83c1.72 0 2.3-.04 2.42-.04.19 0 .21.02.21.21v1.49c0 .19-.02.21-.21.21-.12 0-.7-.04-2.42-.04h-4.83v1.25c0 .46.04 1.18.04 1.68 0 .83-.15 1.26-.62 1.58-.5.31-1.1.43-2.96.43-.6 0-.6.02-.75-.56-.14-.5-.35-1.02-.58-1.41.77.08 1.31.12 2.07.12.54 0 .75-.14.75-.68v-2.41h-5.08Zm1.19-12.37c.25-.1.31-.06.43.1.48.62 1 1.45 1.29 2.01.1.19.1.21-.17.31l-1.27.46h4.02c-.29-.85-.75-1.82-1.1-2.42-.12-.19-.06-.21.17-.29l1.27-.39c.23-.08.29-.04.39.12.33.54.81 1.54 1.06 2.24.06.17.06.19-.21.29l-1.26.44h2.97c.37-.62.64-1.22.95-1.95.1-.25.19-.56.29-1.02.7.13 1.37.35 1.91.58.17.08.27.17.27.29s-.08.21-.19.29c-.12.08-.27.27-.37.44-.27.5-.5.91-.79 1.37h.5c1.8 0 2.43-.04 2.55-.04.21 0 .23.02.23.21 0 .12-.04.48-.04 1.04v.89c0 1.74.04 2.05.04 2.16 0 .21-.02.23-.23.23h-1.53c-.19 0-.21-.02-.21-.23v-2.55h-12.36v2.55c0 .19-.02.21-.21.21h-1.53c-.21 0-.23-.02-.23-.21 0-.14.04-.44.04-2.18v-.71c0-.71-.04-1.06-.04-1.2 0-.19.02-.21.23-.21.12 0 .75.04 2.55.04h.52c-.33-.79-.85-1.64-1.24-2.16-.12-.17-.1-.21.14-.29zM205.06 27.52c0 1-.82 1.83-1.83 1.83a1.83 1.83 0 1 1 1.83-1.83M215.64 24.78c-1.79 0-2.39.04-2.5.04-.18 0-.2-.02-.2-.2v-1.41c0-.2.02-.2.2-.2.11 0 .71.02 2.5.02h1.85v-1.19c0-1.17-.04-1.81-.13-2.6.66.02 1.3.05 1.92.15.18 0 .29.09.29.18 0 .15-.07.26-.13.38-.09.22-.11.6-.11 1.85v1.22h2.6c1.77 0 2.4-.02 2.52-.02.16 0 .18 0 .18.2v1.41c0 .18-.02.2-.18.2-.13 0-.75-.04-2.52-.04h-1.9c1.26 2.47 2.61 4.17 5.08 6.25-.38.38-.68.79-.9 1.22-.13.26-.2.38-.29.38s-.2-.11-.38-.29c-2.1-2.07-3.27-3.86-4.26-6.14 0 1.65.02 3.27.04 4.7h.42c1.43 0 1.88-.04 1.99-.04.18 0 .2.02.2.2v1.33c0 .2-.02.22-.2.22-.11 0-.57-.04-1.99-.04h-.4c.02 1.74.06 2.94.06 3.13s-.02.2-.2.2h-1.57c-.2 0-.22-.02-.22-.2s.04-1.41.07-3.13h-.33c-1.43 0-1.88.04-1.99.04-.18 0-.2-.02-.2-.22v-1.33c0-.18.02-.2.2-.2.11 0 .57.04 1.99.04h.35c.04-1.43.05-3.05.05-4.68-1.04 2.47-2.36 4.42-4.17 6.11-.18.16-.29.27-.38.27s-.16-.11-.29-.35c-.26-.44-.55-.79-.82-1.08v1.75c0 1.79.04 2.69.04 2.78 0 .18-.02.2-.2.2h-1.55c-.17 0-.18-.02-.18-.2 0-.11.04-.99.04-2.78v-4.15c0-.6 0-1.33.02-2.07-.35.46-.7.91-1.06 1.33-.13.15-.24.24-.33.24s-.15-.11-.2-.33c-.13-.58-.38-1.21-.62-1.57 1.57-1.72 2.78-3.77 3.47-5.94.13-.44.24-.84.27-1.3.66.16 1.24.35 1.77.57.2.09.29.15.29.27s-.05.2-.2.33c-.11.11-.2.26-.37.73-.35.9-.73 1.79-1.19 2.67v7.4c2.03-1.7 3.58-3.64 4.79-6.34h-1.02ZM227.74 30.08c.24.07.26.09.26.29-.07 1.59-.2 2.92-.66 4.19-.04.11-.05.15-.11.15-.04 0-.11-.02-.2-.09l-.55-.37c-.22-.15-.24-.2-.18-.4.38-1.04.53-2.3.62-3.78q.02-.22.27-.15l.55.17Zm11.23-5.17v1.21h.82c1.54 0 2.07-.04 2.19-.04.18 0 .2.02.2.2 0 .13-.04.48-.04 1.39v1.61c0 .91.04 1.28.04 1.39 0 .18-.02.2-.2.2-.13 0-.66-.04-2.19-.04h-.55c.88 1.44 2.38 2.54 4.2 3.2-.29.29-.64.79-.88 1.26-.17.31-.22.42-.35.42-.09 0-.2-.07-.42-.18-1.59-.95-2.82-2.19-3.6-3.56-.69 1.55-2.12 2.8-3.73 3.67-.22.13-.35.2-.44.2-.13 0-.22-.13-.4-.38-.22-.33-.47-.6-.71-.8-.29.77-.93 1.08-1.68 1.08-.26 0-.55 0-.82-.04q-.29-.04-.38-.58c-.09-.46-.22-.84-.37-1.19.53.07.93.13 1.24.13.44 0 .66-.11.82-.44.22-.46.33-1.66.4-4.42h-3.07c-1.23 0-1.68.04-1.87.04s-.2-.02-.2-.2c0-.13.04-.79.04-2.25v-4.57c0-1.44-.04-2.14-.04-2.25 0-.18.02-.2.2-.2s.64.04 1.87.04h2.71c1.12 0 1.63-.04 1.74-.04.2 0 .22.02.22.2v1.17c0 .17-.02.18-.22.18-.11 0-.62-.04-1.74-.04h-.26v1.28c.93 0 1.28-.04 1.37-.04.18 0 .2.02.2.2v.8a9.4 9.4 0 0 0 3.78-3.38c.24-.38.4-.69.53-1.11.58.09 1.1.2 1.63.31.15.05.24.11.24.24 0 .11-.04.18-.17.26l-.13.09c1.08 1.48 2.58 2.63 4.61 3.4-.22.26-.44.79-.58 1.32-.09.31-.15.46-.27.46-.09 0-.24-.07-.44-.18-.49-.26-.97-.55-1.41-.88v.73c0 .17-.02.18-.2.18-.13 0-.46-.04-1.63-.04h-.07Zm-10.13 5.12c.24-.05.26-.04.27.13.16 1.1.27 2.19.33 3.31 0 .17-.02.24-.22.31l-.49.15c-.22.07-.26.09-.26-.09 0-1.22-.06-2.34-.2-3.46-.04-.18-.04-.22.16-.26l.4-.09Zm1.15-7.48v-1.28h-1.41v1.28zm0 2.58v-1.24h-1.41v1.24zm0 2.65v-1.3h-1.41v1.3zm.02 2.16c.18-.04.22-.05.26.11.18.82.35 1.81.44 2.71.02.17 0 .22-.18.29l-.37.15c-.2.07-.24.09-.26-.11-.09-1-.24-1.96-.42-2.81-.04-.17-.04-.18.17-.24l.37-.09Zm1.04-.24c.16-.07.2-.05.24.07.22.6.42 1.28.53 1.96.02.15 0 .18-.15.26l-.35.17c-.17.09-.22.07-.24-.07-.11-.69-.27-1.43-.47-2.03-.06-.15-.06-.13.11-.2l.33-.15Zm.77-1.92c1.1 0 1.43-.04 1.54-.04.18 0 .22.04.22.24-.04.44-.05.91-.05 1.28-.09 2.67-.26 4.15-.51 5.12 1.66-.71 3-1.77 3.71-3.22l.15-.33h-.33c-1.54 0-2.07.04-2.19.04-.18 0-.2-.02-.2-.2 0-.13.04-.47.04-1.39v-1.61c0-.91-.04-1.26-.04-1.39 0-.18.02-.2.2-.2.13 0 .66.04 2.19.04h.75v-1.21c-1.12 0-1.44.04-1.54.04-.18 0-.2-.02-.2-.18v-.66c-.44.35-.88.66-1.33.91-.2.11-.33.18-.42.18-.11 0-.18-.13-.31-.44-.13-.27-.31-.58-.47-.84h-.13c-.09 0-.44-.02-1.37-.04v1.24c.93 0 1.28-.04 1.37-.04.18 0 .2.02.2.22v1c0 .18-.02.2-.2.2-.09 0-.44-.02-1.37-.04v1.3h.31Zm3.99-.31v2.03h1.35c.07-.55.09-1.22.11-2.03zm4.4-3.93c-.82-.68-1.54-1.44-2.08-2.23-.53.8-1.19 1.55-1.9 2.23h3.99Zm.31 5.96v-2.03h-1.59c-.02.79-.04 1.44-.11 2.03zM255.23 26.13h3.98c1.61 0 3.34-.04 4.71-.11.19 0 .24.11.26.39.04.51.04 1.09 0 1.61-.02.36-.08.41-.41.38-1.5-.02-3.15-.04-4.56-.04h-4v3.23c0 .66.19.98.58 1.13.45.15 1.09.24 2.33.24s2.8-.09 3.77-.26c.19 0 .26.08.26.32.04.38.06 1.03.06 1.69 0 .36-.11.43-.43.45-.77.11-2.25.19-3.98.19-1.86 0-2.91-.21-3.7-.58-.98-.45-1.41-1.26-1.41-2.61v-3.81h-1.37c-1.88 0-3.47.06-4.45.11-.28.02-.34-.13-.36-.41-.09-.47-.11-1.33-.15-2.03 1.31.11 3 .13 4.99.13h1.35v-3.38c-2.05 0-2.98 0-3.72.04-.28 0-.36-.11-.36-.39-.06-.64-.09-1.33-.09-1.99 1.03.08 2.72.11 4.37.11h4.32c1.69 0 3.06-.04 4.22-.09.26 0 .32.11.32.36.02.51.04 1.07.04 1.58 0 .3-.11.39-.45.36-1.26 0-2.72-.02-4.13-.02h-1.97v3.38ZM269.76 33.52c-1.39 0-2.8.02-3.85.11-.21 0-.28-.13-.32-.41-.09-.49-.13-1.22-.19-2.35 1.54.11 3.08.13 4.43.13h7.79c2.38 0 3.83-.06 4.82-.11.28 0 .34.11.34.39.04.6.04 1.26 0 1.86 0 .32-.04.45-.32.45-1.03-.04-3.23-.06-4.69-.06h-8.01Zm1.97-9.1c-1.35 0-2.29.04-3.28.09-.21 0-.28-.13-.3-.45-.11-.66-.13-1.39-.13-2.27 1.35.11 2.35.13 3.64.13h4.24c1.65 0 2.93-.06 3.85-.11.17 0 .24.11.24.36.04.62.04 1.29 0 1.91-.02.3-.06.41-.28.41-1.01-.04-2.38-.06-3.75-.06h-4.24ZM295.71 21.42c.62-.02.9-.15 1.18-.32.15-.11.26-.15.36-.15s.24.06.39.17c.47.28 1.07.86 1.46 1.31.13.13.17.26.17.39s-.06.26-.24.41c-.21.19-.43.41-.64.81-.92 1.82-1.93 3.58-3.15 5.18.88.71 1.69 1.46 2.31 2.16.09.08.13.19.13.3 0 .08-.04.19-.13.28-.3.36-.96 1.05-1.33 1.35-.09.06-.17.11-.26.11-.06 0-.15-.04-.24-.13-.51-.6-1.37-1.46-2.08-2.08-2.18 2.36-4.39 4.03-6.83 5.35-.19.11-.36.19-.54.19-.13 0-.26-.06-.41-.19-.69-.56-1.28-.83-2.03-1.09 3.32-1.69 5.46-3.23 7.88-5.8-.81-.66-1.78-1.33-3.08-2.01.47-.51.92-1.07 1.41-1.52.08-.09.17-.15.28-.15.06 0 .13.04.21.09.77.36 1.71.98 2.76 1.71 1.03-1.33 1.82-2.72 2.5-4.24l-5.31.11c-1.76 2.25-3.15 3.72-4.58 4.82-.15.11-.28.19-.43.19-.11 0-.24-.04-.34-.15-.54-.38-1.09-.68-1.8-.98 3-2.38 4.6-4.35 6.06-6.72.68-1.16.96-1.73 1.16-2.63.73.26 1.84.62 2.5 1.05.17.09.24.21.24.34 0 .15-.11.32-.26.43-.19.13-.34.3-.45.45-.17.3-.3.51-.66 1.07l3.77-.09ZM304.75 29.04c-2.12 0-2.93.26-3.15.26-.26 0-.43-.13-.49-.45-.11-.49-.24-1.5-.32-2.59 1.39.21 2.46.26 4.62.26h6.89c1.63 0 3.28-.04 4.92-.06.32-.02.39.04.39.3.04.64.04 1.37 0 2.01 0 .26-.09.34-.39.32-1.61-.02-3.19-.04-4.77-.04h-7.71ZM320.16 21.14c.26-.13.43-.06.58.15 1.03 1.29 1.82 2.68 2.4 4.05.04.11.09.19.09.28 0 .13-.09.21-.26.32-.39.24-1.11.62-1.65.83-.32.13-.45-.02-.56-.32-.69-1.61-1.41-3-2.5-4.33.81-.47 1.48-.81 1.91-.98Zm14.99.32c.15.08.24.26.24.43 0 .13-.06.26-.17.36-.36.3-.64.98-.83 1.41-1.52 3.4-2.72 5.44-4.15 7.28-1.63 2.06-3.34 3.81-5.65 5.31-.19.13-.34.19-.49.19-.11 0-.21-.04-.36-.15-.64-.45-1.28-.79-2.06-1.01 2.96-1.95 4.65-3.49 6.36-5.65 1.5-1.91 2.8-4.26 3.7-6.64.32-.9.54-1.65.62-2.8 1.16.41 2.1.83 2.8 1.26Zm-9.4-1.65c.26-.11.41-.04.56.17.71.96 1.65 2.68 2.1 3.96.11.26.06.43-.21.6-.39.24-1.16.58-1.63.77-.34.13-.47.08-.58-.26-.54-1.54-1.24-2.96-2.21-4.33.64-.3 1.33-.64 1.97-.92ZM342.69 22.53c-1.22 0-2.53.09-3.79.17-.26.02-.34-.13-.38-.32-.17-.6-.3-1.67-.39-2.31 1.46.11 2.63.15 4.35.15h9.18c.9 0 1.26-.04 1.48-.13.11-.04.3-.15.41-.15.17 0 .34.13.49.3.47.41.88.86 1.29 1.35.11.13.17.26.17.39 0 .17-.11.32-.3.45-.24.17-.41.39-.58.62-1.01 1.52-2.33 3-3.77 4.13-.13.13-.28.19-.45.19s-.36-.08-.51-.21c-.54-.43-1.07-.66-1.78-.88 1.71-1.28 2.76-2.21 3.83-3.75zm1.2 8.35c.81-1.52 1.05-2.98 1.05-5.05 0-.79-.04-1.28-.21-2.01 1.05.11 2.16.26 2.76.41.28.06.36.21.36.41 0 .13-.04.26-.11.39-.15.3-.17.51-.19.88-.06 2.08-.28 3.98-1.26 5.89-.83 1.61-2.12 3.13-3.9 4.26-.19.13-.39.21-.6.21-.15 0-.3-.06-.43-.19-.51-.45-1.13-.79-1.95-1.09 2.33-1.22 3.55-2.38 4.47-4.09ZM359.56 29.04c-2.12 0-2.93.26-3.15.26-.26 0-.43-.13-.49-.45-.11-.49-.24-1.5-.32-2.59 1.39.21 2.46.26 4.62.26h6.89c1.63 0 3.28-.04 4.92-.06.32-.02.38.04.38.3.04.64.04 1.37 0 2.01 0 .26-.09.34-.38.32-1.61-.02-3.19-.04-4.77-.04h-7.71Z" class="cls-1"/></g></svg>