<svg xmlns="http://www.w3.org/2000/svg" id="_レイヤー_2" data-name="レイヤー_2" viewBox="0 0 376.35 25.35"><defs><style>.cls-1{fill:#004829}</style></defs><g id="_レイヤー_1-2" data-name="レイヤー_1"><path d="M2.98 23.06c-1.79 0-2.24.02-2.98.08.08-.97.18-1.57.42-2.34.52-1.65 1.47-3.15 2.86-4.44.75-.69 1.51-1.27 3.53-2.64 1.71-1.15 2.12-1.67 2.12-2.58s-.85-1.59-2.12-1.59c-.95 0-1.63.32-2.06.99-.28.44-.4.83-.5 1.67l-4.17-.44c.3-1.73.65-2.6 1.45-3.53C2.66 6.91 4.47 6.2 6.79 6.2c2.68 0 4.72.89 5.71 2.5.44.69.65 1.47.65 2.32 0 1.45-.6 2.68-1.83 3.69-.65.58-.85.71-2.88 2.12-1.73 1.19-2.46 1.88-2.92 2.76h4.62c1.49 0 2.4-.04 3.17-.14v3.75c-1.15-.1-1.98-.14-3.39-.14zM18.45 21.57a6.3 6.3 0 0 1-1.45-2.2c-.52-1.41-.77-2.94-.77-4.54 0-2.08.5-4.25 1.25-5.5 1.21-2.02 3.27-3.13 5.77-3.13 1.92 0 3.61.65 4.82 1.84.65.65 1.15 1.41 1.45 2.2.52 1.41.77 2.94.77 4.56 0 2.08-.5 4.26-1.25 5.51-1.19 1.98-3.27 3.09-5.79 3.09-1.94 0-3.59-.63-4.8-1.84Zm1.84-6.9c0 3.55 1.01 5.38 2.98 5.38s2.94-1.79 2.94-5.32-1.03-5.18-2.96-5.18-2.96 1.88-2.96 5.12M34.83 23.06c-1.79 0-2.24.02-2.98.08.08-.97.18-1.57.42-2.34.52-1.65 1.47-3.15 2.86-4.44.75-.69 1.51-1.27 3.53-2.64 1.71-1.15 2.12-1.67 2.12-2.58s-.85-1.59-2.12-1.59c-.95 0-1.63.32-2.06.99-.28.44-.4.83-.5 1.67l-4.17-.44c.3-1.73.65-2.6 1.45-3.53 1.13-1.33 2.94-2.04 5.26-2.04 2.68 0 4.72.89 5.71 2.5.44.69.65 1.47.65 2.32 0 1.45-.6 2.68-1.83 3.69-.65.58-.85.71-2.88 2.12-1.73 1.19-2.46 1.88-2.92 2.76h4.62c1.49 0 2.4-.04 3.17-.14v3.75c-1.15-.1-1.98-.14-3.39-.14h-6.96ZM51.69 12.13c0 .1-.02.3-.06.63.89-.66 1.92-.95 3.21-.95 1.77 0 3.21.56 4.26 1.63.99 1.01 1.49 2.3 1.49 3.97 0 3.81-2.5 6.07-6.7 6.07-2.5 0-4.46-.85-5.61-2.44-.46-.62-.69-1.19-.99-2.22l3.99-.62c.34 1.31 1.17 1.92 2.6 1.92 1.67 0 2.78-1.05 2.78-2.64s-1.07-2.62-2.74-2.62c-1.25 0-2.06.5-2.5 1.47l-3.69-.36c.08-.59.14-1.07.2-1.63l.54-6.19c.04-.42.06-.89.08-1.65.83.04 1.03.04 1.98.04h5.93c1.75 0 2.48-.04 3.27-.14v3.47c-1.05-.1-1.96-.14-3.23-.14h-4.6l-.2 2.38ZM67.26 13.38v-.35c-.42.44-.58.59-1.07 1.05-.61-1.1-1-1.61-1.75-2.31 1.63-1.3 2.61-2.5 3.33-4.06.25-.53.37-.89.44-1.26l2.91.49c-.16.32-.17.35-.37.81-.09.19-.14.31-.26.56h7.68c.89 0 1.44-.04 2.01-.1v2.66c-.61-.07-1.15-.11-2.01-.11h-3.15v1.68h2.45c.93 0 1.45-.02 2.03-.07v2.54c-.58-.05-1.09-.07-1.94-.07h-2.54v2.28h3.68c.88 0 1.5-.04 2.06-.11v2.71c-.63-.07-1.23-.1-2.06-.1h-3.68v1.47c0 1.02.02 1.5.1 2.12H72.2c.07-.56.1-1.12.1-2.17v-1.42h-5.44c-.84 0-1.49.04-2.08.1v-2.71c.6.07 1.23.11 2.08.11h.4v-3.73Zm1.82-2.62c-.49.7-.77 1.07-1.3 1.66.26.02.37.02.65.02h3.87v-1.68zm3.22 6.35v-2.28h-2.43v2.28zM100.79 24.31c-2.57 0-3.23.03-4.29.11.11-1.4.26-2.26.6-3.37.74-2.37 2.12-4.55 4.12-6.41 1.09-1 2.17-1.83 5.09-3.8 2.46-1.66 3.06-2.4 3.06-3.72s-1.23-2.29-3.06-2.29c-1.37 0-2.34.46-2.97 1.43-.4.63-.57 1.2-.71 2.4l-6-.63c.43-2.49.94-3.75 2.09-5.09 1.63-1.92 4.23-2.95 7.58-2.95 3.86 0 6.81 1.29 8.24 3.6.63 1 .94 2.12.94 3.35 0 2.09-.86 3.86-2.63 5.32-.94.83-1.23 1.03-4.15 3.06-2.49 1.72-3.55 2.72-4.2 3.98h6.66c2.15 0 3.46-.06 4.58-.2v5.4c-1.66-.14-2.86-.2-4.89-.2h-10.04ZM127.16 18.16c-.4 2.42-1.25 4.23-2.9 6.19-.85-1.19-1.47-1.8-2.52-2.58.95-.99 1.49-1.86 1.88-3.09.59-1.77.79-4.09.79-9.5 0-1.53-.04-2.34-.12-3.08.85.08 1.39.1 2.6.1h8.95c1.27 0 1.86-.02 2.5-.1-.08.58-.1 1.09-.1 2.44V21.2c0 1.29-.26 1.98-.87 2.4-.56.38-1.31.52-2.92.52-.6 0-1.31-.02-2.26-.06-.2-1.27-.38-2-.83-3.09 1.09.16 2.28.26 3.09.26.56 0 .67-.08.67-.44v-2.62h-7.97Zm7.97-2.72v-1.92h-7.58c-.04.81-.06 1.17-.12 1.92zm0-4.64V9.07h-7.56v1.73zM161.63 14.31c.89 1.06 1.26 2.26 1.26 3.92 0 1.8-.66 3.43-1.89 4.58-1.74 1.66-4.66 2.54-8.24 2.54s-6.58-.94-8.29-2.63c-1.14-1.12-1.74-2.69-1.74-4.49 0-1.97.74-3.55 2.2-4.69.89-.69 1.63-1.03 3-1.31-1.43-.46-2.09-.8-2.77-1.57-.89-.94-1.37-2.23-1.37-3.66s.4-2.77 1.17-3.75c1.52-1.86 4.35-2.92 7.83-2.92 5.55 0 9.06 2.52 9.06 6.49 0 2.72-1.31 4.46-4.03 5.41 1.8.31 2.86.89 3.8 2.09Zm-13.01 3.43c0 1.86 1.57 2.97 4.17 2.97s4.17-1.12 4.17-3.03-1.54-3.03-4.12-3.03-4.23 1.17-4.23 3.09Zm.83-10.38c0 1.57 1.32 2.57 3.4 2.57s3.32-.97 3.32-2.57-1.29-2.52-3.35-2.52-3.37.97-3.37 2.52M179.38 6.36c.93 0 1.59-.02 2.2-.1-.06.85-.1 1.59-.1 2.24v12.87c0 1.13.04 1.9.12 2.72h-3.33v-.99h-8.25v.99h-3.27c.08-.81.12-1.73.12-2.72V8.52c0-.73-.04-1.45-.1-2.26.65.06 1.37.1 2.28.1zm-1.11 6.78V9.29h-8.25v3.85zm-8.26 2.84v4.15h8.25v-4.15zM191.04 22.42h3.65v1.71h-5.59V5.68h5.59v1.71h-3.65v15.04ZM204.91 8.36c0-.95-.04-1.79-.14-2.58h3.57c-.1.75-.14 1.55-.14 2.58v2.92h3.27c1.23 0 2.06-.04 2.97-.14v3.27c-.95-.1-1.8-.14-2.97-.14h-3.27v6.39h4.3c1.33 0 2.48-.04 3.27-.14v3.23c-.93-.1-1.96-.14-3.27-.14h-11.62c-1.29 0-2.36.04-3.27.14v-3.23c.79.1 1.94.14 3.27.14h4.03v-6.39h-3.02c-1.13 0-2.1.04-2.97.14v-3.27c.85.1 1.8.14 2.97.14h3.02zM219.09 7.39V5.68h5.59v18.45h-5.59v-1.71h3.65V7.39zM239.88 14.89c0 1.69-1.35 3.04-3.01 3.04s-3.04-1.35-3.04-3.02 1.35-3.04 3.04-3.04 3.01 1.35 3.01 3.02M253.58 24.63c-2.57 0-3.23.03-4.29.11.12-1.4.26-2.26.6-3.37.74-2.37 2.12-4.55 4.12-6.41 1.09-1 2.17-1.83 5.09-3.8 2.46-1.66 3.06-2.4 3.06-3.72s-1.23-2.29-3.06-2.29c-1.37 0-2.35.46-2.97 1.43-.4.63-.57 1.2-.71 2.4l-6-.63c.43-2.49.94-3.75 2.09-5.09 1.63-1.92 4.23-2.95 7.58-2.95 3.86 0 6.81 1.29 8.24 3.6.63 1 .94 2.12.94 3.35 0 2.09-.86 3.86-2.63 5.32-.94.83-1.23 1.03-4.15 3.06-2.49 1.72-3.55 2.72-4.2 3.97h6.66c2.14 0 3.46-.06 4.58-.2v5.4c-1.66-.14-2.86-.2-4.89-.2H253.6ZM278.81 18.16c-.4 2.42-1.25 4.23-2.9 6.19-.85-1.19-1.47-1.8-2.52-2.58.95-.99 1.49-1.86 1.88-3.09.59-1.77.79-4.09.79-9.5 0-1.53-.04-2.34-.12-3.08.85.08 1.39.1 2.6.1h8.95c1.27 0 1.86-.02 2.5-.1-.08.58-.1 1.09-.1 2.44V21.2c0 1.29-.26 1.98-.87 2.4-.56.38-1.31.52-2.92.52-.6 0-1.31-.02-2.26-.06-.2-1.27-.38-2-.83-3.09 1.09.16 2.28.26 3.1.26.55 0 .67-.08.67-.44v-2.62h-7.97Zm7.98-2.72v-1.92h-7.58c-.04.81-.06 1.17-.12 1.92zm0-4.64V9.07h-7.56v1.73zM299.84 18.32c.23.63.4.92.69 1.23.63.69 1.54 1.06 2.69 1.06 1.6 0 2.89-.71 3.66-2 .54-.92.8-1.94.97-3.89-1.54 1.46-3.17 2.06-5.69 2.06-5.15 0-8.49-3.12-8.49-7.92 0-5.06 3.89-8.52 9.55-8.52 3.63 0 6.52 1.49 8.23 4.23 1.17 1.86 1.8 4.58 1.8 7.72s-.57 5.83-1.63 8.01c-1 2.06-2.83 3.69-4.86 4.35-1.14.37-2.54.6-3.83.6-2.72 0-4.92-.74-6.61-2.23-.97-.89-1.46-1.66-2.2-3.4l5.72-1.29Zm7.43-9.75c0-2.14-1.66-3.63-4.03-3.63s-4 1.49-4 3.66 1.54 3.66 3.89 3.66 4.15-1.49 4.15-3.69ZM330.65 6.36c.93 0 1.59-.02 2.2-.1-.06.85-.1 1.59-.1 2.24v12.87c0 1.13.04 1.9.12 2.72h-3.33v-.99h-8.25v.99h-3.27c.08-.81.12-1.73.12-2.72V8.52c0-.73-.04-1.45-.1-2.26.66.06 1.37.1 2.28.1zm-1.11 6.78V9.29h-8.25v3.85zm-8.25 2.84v4.15h8.25v-4.15zM342.31 22.42h3.65v1.71h-5.59V5.68h5.59v1.71h-3.65v15.04ZM363.98 6.36c.93 0 1.59-.02 2.2-.1-.06.85-.1 1.59-.1 2.24v12.87c0 1.13.04 1.9.12 2.72h-3.33v-.99h-8.25v.99h-3.27c.08-.81.12-1.73.12-2.72V8.52c0-.73-.04-1.45-.1-2.26.66.06 1.37.1 2.28.1h10.34Zm-1.12 6.78V9.29h-8.25v3.85zm-8.25 2.84v4.15h8.25v-4.15zM370.76 7.39V5.68h5.59v18.45h-5.59v-1.71h3.65V7.39z" class="cls-1"/></g></svg>