<?xml version="1.0" encoding="UTF-8"?>
<svg id="_レイヤー_2" data-name="レイヤー_2" xmlns="http://www.w3.org/2000/svg" viewBox="0 0 376.81 19.72">
  <defs>
    <style>
      .cls-1 {
        fill: #004829;
      }

      .cls-2 {
        fill: #e95513;
      }
    </style>
  </defs>
  <g id="_レイヤー_1-2" data-name="レイヤー_1">
    <g>
      <path class="cls-1" d="M4.94,10.9c.11.04.13.06.11.15-.11.58-.27,1.25-.5,1.74-.04.09-.05.09-.16.06l-.42-.19c-.13-.05-.13-.08-.08-.18l.07-.15c-.16,0-.43,0-.89,0h-1.35v.41c0,.09,0,.1-.1.1h-.63c-.09,0-.1,0-.1-.1,0-.06.02-.25.02-.86v-2.67l-.28.28c-.09.09-.16.13-.21.13s-.08-.04-.1-.11c-.09-.33-.21-.47-.3-.59.86-.7,1.4-1.5,1.71-2.61h-.56v.71c0,.09,0,.1-.1.1H.44c-.09,0-.1,0-.1-.1,0-.07.02-.16.02-.78v-.21c0-.22-.02-.33-.02-.4,0-.09,0-.1.1-.1.06,0,.33.02,1.11.02h.33l.06-.29c.06-.32.08-.53.08-.79.33.03.58.07.8.1.11.03.17.06.17.12s-.03.1-.08.16c-.05.06-.08.18-.12.45l-.05.25h.41c.79,0,1.04-.02,1.11-.02.09,0,.1,0,.1.1,0,.06-.02.18-.02.33v.25c0,.59.02.68.02.75,0,.09,0,.1-.1.1h-.61c-.09,0-.1,0-.1-.1v-.65h-.97c-.13.5-.32.97-.59,1.44h.58c.08-.14.14-.27.19-.4s.09-.26.12-.45c.23.05.55.13.72.17.09.02.11.06.11.1s-.03.08-.07.1c-.06.05-.09.09-.12.15l-.15.32h.05c.58,0,.74-.02.79-.02.09,0,.1,0,.1.11v.5c0,.09,0,.1-.1.1-.06,0-.22-.02-.79-.02h-.12v.6c.5,0,.69-.02.74-.02.09,0,.1,0,.1.1v.49c0,.09,0,.1-.1.1-.05,0-.24,0-.74-.02v.59c.51,0,.7-.02.75-.02.09,0,.1,0,.1.1v.5c0,.09,0,.1-.1.1-.05,0-.24,0-.75-.02v.68c.6,0,.8-.02.93-.02.08-.25.13-.49.18-.74.02-.1.04-.1.15-.08l.39.11ZM2.53,9.01v-.6h-.8v.6h.8ZM2.53,10.26v-.59h-.8v.59h.8ZM2.53,11.62v-.68h-.8v.68h.8ZM5.9,10.47c-.71,0-1.07.02-1.13.02-.09,0-.1,0-.1-.11,0-.06.02-.39.02-1.15v-2.72c0-.75-.02-1.06-.02-1.12,0-.09,0-.1.1-.1.05,0,.27.02.86.02.08-.13.12-.26.16-.36.07-.18.1-.31.13-.53.32.04.62.08.87.11.08.02.16.06.16.11s-.03.09-.1.15c-.06.05-.08.1-.12.21l-.14.3h.48c.74,0,.99-.02,1.05-.02.09,0,.1,0,.1.1,0,.07-.02.26-.02.78v1.18c0,.52.02.73.02.79,0,.09,0,.1-.1.1-.06,0-.31-.02-1.05-.02h-1.52v.41h1.97c.93,0,1.24-.02,1.3-.02.09,0,.1,0,.1.11v.52c0,.1,0,.11-.1.11-.06,0-.37-.02-1.3-.02h-1.97v.43h2.13c.68,0,.9-.02.96-.02.09,0,.1.02.1.11l-.05.58c-.04.85-.12,1.56-.25,1.9-.17.57-.51.74-1.15.74-.16,0-.28,0-.47,0-.16,0-.18-.03-.2-.25-.03-.27-.09-.47-.15-.61.26.03.42.05.68.05s.42-.04.48-.24c.07-.18.14-.64.18-1.55h-1.92ZM5.42,12.56c-.11.03-.12.02-.12-.08,0-.51-.03-1-.11-1.47-.02-.1,0-.12.1-.14l.37-.07c.1-.02.11-.02.13.09.08.44.13.95.13,1.42,0,.09,0,.12-.1.15l-.4.1ZM5.55,5.99v.44h1.79v-.44h-1.79ZM7.34,7.05h-1.79v.47h1.79v-.47ZM6.42,10.71c.08-.02.09-.02.12.08.11.36.21.78.26,1.13,0,.09,0,.11-.09.14l-.33.12c-.12.05-.14.02-.15-.09-.05-.39-.12-.79-.23-1.14-.02-.09,0-.11.11-.14l.3-.08ZM7.11,10.65c.08-.03.1-.02.15.07.09.21.24.52.29.77.03.09.02.12-.09.17l-.27.1c-.09.04-.11.04-.13-.07-.06-.26-.15-.59-.26-.82-.03-.09,0-.11.07-.14l.24-.08Z"/>
      <path class="cls-1" d="M10.89,12.93c-.09,0-.1,0-.1-.1,0-.07.02-.63.02-3.37v-1.82c0-1.83-.02-2.41-.02-2.48,0-.09,0-.1.1-.1.07,0,.39.02,1.29.02h4.77c.9,0,1.22-.02,1.29-.02.09,0,.1,0,.1.1,0,.07-.02.65-.02,2.19v2.1c0,2.73.02,3.3.02,3.36,0,.09,0,.1-.1.1h-.81c-.09,0-.1,0-.1-.1v-.52h-5.51v.53c0,.09,0,.1-.1.1h-.81ZM11.81,8.21h2.22v-2.23h-2.22v2.23ZM14.03,11.4v-2.3h-2.22v2.3h2.22ZM15,5.98v2.23h2.31v-2.23h-2.31ZM17.31,11.4v-2.3h-2.31v2.3h2.31Z"/>
      <path class="cls-1" d="M24.98,8.73c0,2.26.02,2.69.02,2.74,0,.09,0,.1-.1.1h-.71c-.09,0-.1,0-.1-.1v-.41h-2.45v.7c0,.09,0,.1-.09.1h-.73c-.09,0-.1,0-.1-.1,0-.07.02-.51.02-2.89v-1.68c0-1.68-.02-2.17-.02-2.22,0-.09,0-.1.1-.1.07,0,.34.02,1.15.02h1.78c.81,0,1.09-.02,1.15-.02.09,0,.1,0,.1.1,0,.06-.02.54-.02,2.22v1.53ZM21.63,7.51h.77v-1.78h-.77v1.78ZM22.39,10.22v-1.87h-.77v1.87h.77ZM23.28,5.73v1.78h.79v-1.78h-.79ZM24.08,10.22v-1.87h-.79v1.87h.79ZM26.54,6.96c-.82,0-1.11.02-1.16.02-.1,0-.11,0-.11-.11v-.79c0-.09,0-.1.11-.1.06,0,.34.02,1.16.02h1.17c.82,0,1.11-.02,1.16-.02.1,0,.11,0,.11.1v.79c0,.1,0,.11-.11.11-.06,0-.33-.02-1.07-.02v3.42c0,.57.03,1.09.03,1.5,0,.47-.07.73-.32.95-.22.18-.49.25-1.32.25q-.27,0-.35-.3c-.07-.29-.18-.55-.28-.73.26.03.57.04.85.04.33,0,.43-.08.43-.37v-4.75h-.29Z"/>
      <path class="cls-1" d="M32.36,10.19c.3-.12.6-.26.92-.44-.02.17-.02.39,0,.59.02.31.02.3-.25.43-.59.29-1.26.57-1.88.8-.16.07-.27.11-.31.15-.04.04-.1.07-.16.07s-.1-.03-.14-.11c-.09-.25-.17-.52-.26-.84.3-.06.6-.12.94-.24l.22-.07v-2.69h-.08c-.61,0-.8.02-.86.02-.09,0-.09,0-.09-.1v-.72c0-.09,0-.1.09-.1.06,0,.25.02.86.02h.08v-.89c0-.62,0-1.01-.08-1.39.37,0,.66.03.97.07.09,0,.15.06.15.11,0,.07-.03.11-.06.19-.05.11-.06.35-.06.9v1.01c.54,0,.72-.02.78-.02.08,0,.09,0,.09.1v.72c0,.09,0,.1-.09.1-.06,0-.24-.02-.78-.02v2.34ZM34.75,11.5c0,.25.05.36.18.43.13.08.43.1,1.36.1,1.02,0,1.33-.05,1.52-.2.15-.13.2-.32.23-1.07.19.11.41.23.68.3q.24.07.21.31c-.08.82-.2,1.08-.51,1.28-.32.22-.78.31-2.24.31-1.29,0-1.76-.11-2-.26-.23-.14-.36-.43-.36-.94v-2.95c-.48.17-.68.26-.76.27-.09.03-.1.02-.12-.08l-.12-.74c-.02-.09,0-.09.08-.12.08-.02.32-.08.93-.27v-1.04c0-.52,0-.96-.06-1.34.32,0,.62.03.91.06.13.02.19.06.19.1,0,.08-.02.11-.06.2-.05.09-.06.3-.06.9v.81l.91-.3v-1.37c0-.57-.02-.86-.08-1.34.36,0,.65.03.96.08.09,0,.15.05.15.1,0,.07-.03.11-.06.19-.05.11-.06.35-.06.85v1.19l.73-.25c.89-.29,1.17-.42,1.24-.43.07,0,.1.02.1.09l-.03,1.21c-.02.96-.09,1.66-.23,2.14-.14.55-.41.72-.81.72-.11,0-.23,0-.35-.02q-.21-.02-.26-.31c-.03-.22-.1-.49-.2-.68.2.05.37.07.5.07.16,0,.23-.05.28-.35.07-.36.1-.73.11-1.66l-1.1.38v1.65c0,.95.02,1.41.02,1.47,0,.09,0,.1-.1.1h-.76c-.09,0-.1,0-.1-.1,0-.07.02-.52.02-1.47v-1.33l-.91.31v3Z"/>
      <path class="cls-1" d="M42.25,10.28c.27-.1.55-.22.82-.36-.02.17-.03.37-.03.59q0,.31-.27.44c-.08.04-.15.08-.23.1.38,0,.64-.05.97-.11.69-.14,1.52-.33,2.39-.65-.03.19-.06.38-.07.57,0,.31,0,.32-.28.41-.67.24-1.44.43-2.16.61-.17.06-.28.08-.34.11-.08.04-.13.08-.2.08-.06,0-.1-.04-.14-.14-.08-.25-.14-.52-.2-.85-.46.2-.98.38-1.48.55-.16.06-.24.09-.28.13-.05.04-.1.07-.16.07-.05,0-.09-.03-.12-.12-.08-.25-.14-.53-.2-.85.3-.04.53-.09.82-.17l.21-.06v-2.76h-.02c-.59,0-.77.02-.82.02-.08,0-.09,0-.09-.1v-.71c0-.1,0-.11.09-.11.07,0,.25.02.84.02v-.87c0-.67,0-.96-.07-1.44.35,0,.64.03.97.07.08,0,.14.06.14.1,0,.08-.02.12-.04.2-.05.11-.08.35-.08,1.05v.89c.48,0,.64-.02.7-.02.09,0,.1,0,.1.11v.71c0,.09,0,.1-.1.1-.06,0-.22,0-.7-.02v2.44ZM46.94,6.85c.04,1.02.12,1.93.26,2.67.16-.32.28-.66.39-1.03.08-.27.16-.67.18-.96.28.08.58.18.81.27.11.06.16.08.16.17,0,.07-.04.11-.09.18-.08.08-.1.2-.21.51-.26.81-.56,1.49-.94,2.08.26.87.5,1.18.59,1.18.15,0,.23-.41.26-1.21.13.14.33.26.48.35q.25.12.22.39c-.13,1.27-.41,1.61-.96,1.61-.39,0-.84-.41-1.24-1.46-.48.54-1.07,1-1.79,1.44-.12.07-.19.11-.25.11s-.1-.06-.2-.18c-.16-.21-.35-.38-.54-.48,1.06-.52,1.86-1.14,2.45-1.89-.26-1-.43-2.36-.49-3.75h-1.68c-.92,0-1.23.02-1.29.02-.09,0-.1,0-.1-.11v-.69c0-.09,0-.1.1-.1.06,0,.37.02,1.29.02h1.66v-.11c0-.63-.02-.9-.08-1.35.33,0,.62.03.96.08.1,0,.15.06.15.1,0,.07-.02.12-.05.19-.05.09-.07.2-.07.65v.44h.54c.93,0,1.25-.02,1.31-.02.09,0,.1,0,.1.1v.69c0,.1,0,.11-.1.11-.06,0-.38-.02-1.31-.02h-.52ZM44.86,7.55c.51,0,.66-.02.72-.02.1,0,.11,0,.11.1,0,.06-.02.25-.02.73v.85c0,.49.02.68.02.74,0,.09,0,.1-.11.1-.06,0-.21-.02-.72-.02h-.74c-.51,0-.66.02-.73.02-.09,0-.1,0-.1-.1,0-.07.02-.25.02-.74v-.85c0-.48-.02-.67-.02-.73,0-.09,0-.1.1-.1.07,0,.22.02.73.02h.74ZM44.93,8.29h-.86v1.01h.86v-1.01ZM47.85,4.63c.11-.04.11-.03.18.05.21.24.41.53.54.78.05.08.03.11-.1.16l-.41.19c-.13.07-.14.06-.19-.05-.14-.28-.31-.55-.52-.79-.07-.08-.05-.1.08-.15l.43-.18Z"/>
      <path class="cls-1" d="M50.87,7.06c.08-.09.1-.09.19-.05.46.25.92.58,1.34.96.04.04.06.06.06.08,0,.03-.02.06-.06.11l-.43.61s-.05.07-.08.07c-.02,0-.05-.02-.09-.06-.41-.4-.86-.75-1.33-1.03-.05-.03-.07-.05-.07-.07,0-.03.02-.07.06-.11l.4-.51ZM50.96,11.7c.27-.52.6-1.26.95-2.18.13.15.33.34.51.48.15.11.21.16.21.24,0,.06-.03.12-.07.23-.28.73-.61,1.46-.92,2.08-.08.14-.14.26-.16.36-.02.08-.06.12-.12.12-.05,0-.1-.03-.17-.07-.22-.13-.46-.29-.73-.52.2-.25.33-.44.5-.75ZM51.25,4.66c.08-.08.1-.08.18-.04.47.26.91.61,1.31.97.04.03.06.06.06.09s-.02.06-.06.11l-.43.6c-.04.06-.07.08-.08.08-.03,0-.05-.02-.09-.05-.42-.41-.88-.79-1.33-1.07-.05-.03-.07-.05-.07-.07,0-.03.02-.06.07-.11l.44-.51ZM54.19,8.29c-.94,0-1.26.02-1.31.02-.09,0-.1,0-.1-.1v-.75c0-.08,0-.09.1-.09.06,0,.38.02,1.31.02h1.11v-1.24c-.54.08-1.09.15-1.64.21-.3.03-.31.02-.39-.24-.08-.27-.17-.48-.26-.62,1.54-.09,3.21-.37,4.17-.67.26-.08.43-.15.61-.26.24.19.45.42.62.61.06.07.08.11.08.19,0,.06-.04.11-.13.12-.11,0-.26.02-.51.1-.45.15-.97.27-1.54.39v1.42h1.24c.93,0,1.25-.02,1.31-.02.08,0,.09,0,.09.09v.75c0,.09,0,.1-.09.1-.06,0-.38-.02-1.31-.02h-1.24v1.22h.68c.87,0,1.16-.02,1.23-.02.09,0,.1,0,.1.1,0,.06-.02.32-.02.95v.85c0,1.31.02,1.55.02,1.61,0,.08,0,.09-.1.09h-.8c-.09,0-.1,0-.1-.09v-.32h-2.95v.37c0,.09,0,.09-.1.09h-.78c-.1,0-.11,0-.11-.09,0-.07.02-.31.02-1.63v-.75c0-.75-.02-1.01-.02-1.08,0-.09,0-.1.11-.1.06,0,.37.02,1.23.02h.58v-1.22h-1.11ZM54.37,11.82h2.95v-1.47h-2.95v1.47Z"/>
      <path class="cls-1" d="M61.2,6.54c.12.03.14.05.13.15-.04.78-.11,1.49-.3,2.07-.03.09-.05.08-.15.04l-.47-.19c-.12-.05-.13-.09-.1-.19.16-.51.27-1.16.3-1.92,0-.09.02-.08.15-.06l.44.09ZM61.58,5.89c0-.67,0-.97-.08-1.43.36,0,.68.03.99.07.09,0,.15.06.15.1,0,.07-.02.11-.05.18-.05.12-.07.36-.07,1.05v5.5c0,1.07.02,1.61.02,1.66,0,.1,0,.11-.1.11h-.79c-.09,0-.1,0-.1-.11,0-.05.02-.59.02-1.65v-5.48ZM63.05,6.06c.1-.04.13-.03.17.06.13.36.28.78.37,1.16.2-.51.36-1.05.44-1.53.03-.17.06-.4.07-.68.31.06.72.17.91.24.12.05.16.08.16.13,0,.07-.02.08-.06.13-.06.08-.09.18-.11.29-.05.23-.1.46-.17.71h.87v-.68c0-.67-.02-.96-.08-1.43.36,0,.71.03,1.03.07.09,0,.15.05.15.09,0,.07-.03.12-.05.19-.05.14-.07.36-.07,1.05v.71h.79c.84,0,1.13-.02,1.18-.02.09,0,.1,0,.1.1v.73c0,.09,0,.1-.1.1-.06,0-.34-.02-1.18-.02h-.79v1.65h.51c.85,0,1.14-.02,1.2-.02.09,0,.1,0,.1.1v.74c0,.09,0,.1-.1.1-.06,0-.35-.02-1.2-.02h-.51v1.86h.96c.93,0,1.24-.02,1.3-.02.09,0,.1,0,.1.1v.73c0,.1,0,.11-.1.11-.06,0-.37-.02-1.3-.02h-3.14c-.93,0-1.25.02-1.3.02-.09,0-.1,0-.1-.11v-.73c0-.09,0-.1.1-.1.05,0,.37.02,1.3.02h1.19v-1.86h-.57c-.85,0-1.14.02-1.2.02-.09,0-.1,0-.1-.1v-.74c0-.09,0-.1.1-.1.07,0,.35.02,1.2.02h.57v-1.65h-1.16c-.13.38-.29.76-.45,1.09-.08.14-.11.2-.17.2-.04,0-.09-.04-.18-.09-.22-.14-.48-.25-.68-.31.16-.25.31-.55.44-.86l-.4.14c-.12.05-.15.05-.17-.06-.08-.44-.2-.87-.34-1.23-.04-.1-.03-.12.09-.16l.37-.12Z"/>
      <path class="cls-1" d="M71.88,9.45c0-.36,0-.79.02-1.21-.28.37-.57.71-.84.98-.09.08-.15.14-.21.14s-.09-.07-.14-.21c-.08-.26-.23-.56-.36-.78,1-.9,1.71-1.92,2.19-3.2.09-.22.15-.44.19-.66.37.09.61.18.92.3.12.05.16.08.16.14s-.03.11-.09.16c-.08.06-.13.16-.24.41-.17.41-.37.82-.6,1.22v4.83c0,.92.02,1.38.02,1.44,0,.08,0,.09-.1.09h-.82c-.1,0-.11,0-.11-.09,0-.07.02-.52.02-1.44v-2.14ZM75.48,11.38c0,.34.06.46.26.54.17.06.42.07.94.07.48,0,.77-.06.97-.24.16-.13.25-.54.28-1.44.2.15.47.29.73.39.24.08.23.08.21.33-.07.93-.23,1.33-.55,1.57-.31.22-.88.32-1.71.32-.89,0-1.34-.04-1.65-.19-.31-.15-.5-.4-.5-1.03v-5.97c0-.53,0-.8-.06-1.1.38,0,.68.03,1.01.07.12,0,.18.05.18.12s-.03.12-.06.18c-.05.08-.07.24-.07.64v2.37c.61-.38,1.16-.82,1.75-1.39.19-.17.41-.42.56-.64.26.19.53.43.74.62.08.08.1.12.1.19s-.07.12-.16.15c-.1.04-.28.17-.49.36-.7.62-1.53,1.26-2.5,1.84v2.24Z"/>
      <path class="cls-1" d="M81.89,6.79c-.85,0-1.15.02-1.2.02-.09,0-.1,0-.1-.1v-.75c0-.1,0-.11.1-.11.06,0,.35.02,1.2.02h2.27v-.15c0-.54,0-.78-.08-1.21.34,0,.75.03,1.08.07.08,0,.15.06.15.1,0,.08-.04.13-.07.2-.03.09-.06.26-.06.75v.25h2.41c.85,0,1.15-.02,1.2-.02.09,0,.1,0,.1.11v.75c0,.09,0,.1-.1.1-.06,0-.35-.02-1.2-.02h-2.41v1.17h1.38c.14,0,.23-.02.27-.04.04-.02.09-.04.12-.04.07,0,.14.06.38.29.22.21.29.32.29.41,0,.08-.05.1-.13.17-.09.07-.14.11-.23.26-.51.8-1.08,1.47-1.73,2.01.95.53,2.1.85,3.52,1.07-.15.2-.3.49-.41.76-.07.19-.09.25-.2.25-.05,0-.11,0-.21-.03-1.46-.33-2.63-.77-3.59-1.4-.95.6-2.07,1.04-3.42,1.39-.09.03-.16.04-.21.04-.09,0-.12-.07-.19-.25-.1-.27-.26-.51-.39-.67,1.39-.28,2.51-.63,3.42-1.14-.62-.59-1.14-1.3-1.53-2.18-.64,0-.89.02-.94.02-.09,0-.1,0-.1-.1v-.73c0-.09,0-.1.1-.1.06,0,.37.02,1.29.02h1.47v-1.17h-2.27ZM83.43,8.86c.36.66.79,1.18,1.31,1.61.55-.43,1.01-.96,1.4-1.61h-2.71Z"/>
      <path class="cls-1" d="M92.48,10.03c0,.91.03,1.41.03,1.88,0,.52-.08.78-.29.94-.21.16-.51.21-1.09.21-.29,0-.31,0-.36-.28-.05-.29-.15-.53-.23-.68.21.03.37.03.81.03.13,0,.2-.06.2-.26v-1.88l-.37.11c-.17.06-.27.12-.33.16-.05.04-.1.06-.16.06s-.09-.04-.12-.11c-.06-.25-.11-.57-.16-.9.27-.04.55-.08.88-.18l.26-.08v-1.83h-.17c-.59,0-.77.02-.81.02-.09,0-.1,0-.1-.1v-.69c0-.09,0-.1.1-.1.05,0,.23.02.81.02h.17v-.5c0-.61-.02-.91-.07-1.34.34,0,.64.03.96.07.09,0,.16.07.16.1,0,.08-.04.13-.07.2-.06.11-.06.31-.06.96v.52c.48,0,.64-.02.71-.02.09,0,.1,0,.1.1v.69c0,.09,0,.1-.1.1-.07,0-.23-.02-.71-.02v1.51c.24-.09.48-.19.74-.29-.03.16-.05.45-.05.68s-.03.25-.2.33c-.16.08-.32.14-.49.21v.39ZM97.51,9.68c.1,0,.15-.02.2-.04.04-.02.08-.03.12-.03.08,0,.16.06.33.25.17.18.24.28.24.36,0,.05-.04.09-.1.13-.08.05-.12.09-.25.28-.28.4-.58.76-.92,1.08.56.26,1.23.45,2.02.6-.11.14-.21.35-.29.59q-.1.28-.39.21c-.77-.2-1.44-.46-2.03-.82-.5.35-1.09.63-1.8.85-.1.04-.17.06-.22.06-.08,0-.1-.07-.18-.22-.11-.23-.24-.38-.35-.5.73-.16,1.33-.41,1.84-.71-.29-.27-.57-.56-.81-.9-.37.77-.87,1.43-1.52,1.99-.1.08-.16.13-.21.13-.06,0-.1-.06-.18-.16-.15-.21-.28-.32-.45-.45,1.04-.77,1.72-1.87,2.04-3.22-.69,0-.96.02-1.01.02-.09,0-.1,0-.1-.11v-.62c0-.09,0-.1.1-.1.06,0,.35.02,1.16.02.02-.16.03-.34.04-.51-.78,0-1.07.02-1.12.02-.09,0-.1,0-.1-.11v-.54c0-.09,0-.1.1-.1.06,0,.36.02,1.23.02h2.03c.21-.35.38-.7.51-1.03.06-.16.11-.34.14-.51.32.07.6.13.84.23.08.03.12.08.12.13,0,.06-.04.1-.09.14-.07.05-.1.09-.15.18-.15.29-.26.54-.45.86.62,0,.86-.02.92-.02.09,0,.1,0,.1.1v.54c0,.1,0,.11-.1.11-.07,0-.37-.02-1.24-.02h-1.84c-.02.18-.04.35-.07.51h2.04c.89,0,1.2-.02,1.26-.02.09,0,.09,0,.09.1v.62c0,.1,0,.11-.09.11-.06,0-.37-.02-1.26-.02h-2.19c-.04.18-.09.35-.13.52h2.15ZM98.63,4.96c.06.06.1.1.1.16,0,.07-.08.11-.2.11-.1,0-.26.03-.42.06-1.17.23-2.73.4-4.01.48-.3.02-.33.03-.43-.25-.07-.19-.18-.4-.27-.52,1.5,0,2.9-.13,4.06-.38.22-.05.4-.11.53-.18.22.14.51.4.63.52ZM94.49,5.84c.12-.05.14-.04.2.04.19.27.31.52.44.79.04.09.03.11-.09.16l-.52.22c-.12.05-.15.05-.19-.06-.1-.31-.22-.54-.4-.81-.07-.08-.06-.09.07-.14l.5-.2ZM95.44,10.35c.27.38.59.68.95.94.31-.27.57-.59.79-.94h-1.73ZM96.13,6.98c-.13.06-.15.06-.19-.06-.1-.32-.26-.62-.41-.91-.04-.07,0-.09.13-.14l.43-.16c.13-.06.16-.04.21.04.19.29.32.56.44.86.03.08.02.11-.09.16l-.51.21Z"/>
      <path class="cls-1" d="M103.19,6.83c0-.75-.02-1.14-.12-1.67.47.04.93.1,1.22.19.12.03.18.09.18.17,0,.04-.02.09-.06.15-.1.2-.12.4-.12.84v.97l2.47-.58c.42-.09.5-.14.67-.27.05-.04.09-.06.13-.06.05,0,.08.02.13.06.2.12.5.39.7.62.06.06.08.11.08.17,0,.07-.05.13-.12.19-.13.09-.21.24-.29.37-.48.81-.96,1.5-1.5,2.04-.09.08-.16.14-.25.14-.06,0-.11-.02-.18-.07-.27-.16-.51-.28-.79-.36.65-.57,1.12-1.2,1.54-1.89l-2.6.66v2.15c0,.5.17.66,1.19.66.77,0,1.65-.09,2.29-.21.13-.02.14.05.16.19.05.26.09.54.09.79,0,.09-.06.13-.2.14-.57.07-1.22.11-2.26.11-1.81,0-2.37-.39-2.37-1.67v-1.91l-.61.16c-.51.13-1.04.27-1.33.41-.05.02-.09.04-.11.04-.07,0-.1-.05-.15-.15-.13-.25-.27-.65-.38-.96.6-.08,1.14-.17,1.78-.33l.8-.2v-.91Z"/>
      <path class="cls-1" d="M112.04,5.76s.09-.08.13-.08c.04,0,.08.02.12.05.48.26,1.27.83,1.81,1.34.06.06.09.09.09.13s-.02.08-.06.12c-.14.19-.45.57-.59.71-.05.05-.08.08-.11.08s-.08-.03-.12-.08c-.57-.59-1.25-1.13-1.93-1.54.21-.26.48-.55.66-.74ZM112.86,10.74c1.15-.6,1.77-.99,2.72-1.76,1.15-.94,1.79-1.54,2.59-2.57.06.47.14.79.26,1.11.03.07.05.12.05.18,0,.08-.05.16-.15.28-.5.59-1.31,1.34-2.18,2-.79.62-1.58,1.15-2.86,1.85-.43.26-.55.35-.63.44-.06.06-.11.09-.17.09-.05,0-.1-.04-.16-.1-.24-.26-.53-.65-.76-1.05.48-.13.78-.22,1.28-.47Z"/>
      <path class="cls-1" d="M126.65,6.1c.27,0,.4-.07.52-.14.07-.05.11-.07.16-.07s.1.03.17.08c.21.12.47.38.64.58.06.06.08.11.08.17s-.03.11-.1.18c-.09.08-.19.18-.28.36-.41.8-.85,1.58-1.39,2.29.39.31.75.64,1.02.96.04.04.06.09.06.13,0,.04-.02.08-.06.12-.13.16-.43.46-.59.6-.04.03-.08.05-.11.05-.03,0-.07-.02-.1-.06-.23-.27-.61-.64-.92-.92-.96,1.04-1.94,1.78-3.02,2.37-.08.05-.16.08-.24.08-.06,0-.11-.03-.18-.08-.3-.25-.57-.37-.9-.48,1.47-.75,2.41-1.43,3.48-2.56-.36-.29-.79-.59-1.36-.89.21-.23.41-.47.62-.67.04-.04.08-.07.12-.07.03,0,.06.02.09.04.34.16.76.44,1.22.76.45-.59.8-1.2,1.11-1.87l-2.35.05c-.78.99-1.39,1.65-2.02,2.13-.07.05-.12.08-.19.08-.05,0-.1-.02-.15-.07-.24-.17-.48-.3-.79-.43,1.32-1.05,2.03-1.92,2.68-2.97.3-.51.43-.77.51-1.16.32.11.81.27,1.11.46.08.04.1.09.1.15,0,.07-.05.14-.11.19-.09.06-.15.13-.2.2-.08.13-.13.23-.29.47l1.67-.04Z"/>
      <path class="cls-1" d="M132.91,9.47c-.94,0-1.3.11-1.39.11-.11,0-.19-.06-.22-.2-.05-.22-.1-.66-.14-1.14.62.09,1.09.11,2.04.11h3.05c.72,0,1.45-.02,2.18-.03.14,0,.17.02.17.13.02.28.02.61,0,.89,0,.11-.04.15-.17.14-.71,0-1.41-.02-2.11-.02h-3.41Z"/>
    </g>
    <g>
      <g>
        <path id="_パス_7943" data-name="パス_7943" class="cls-2" d="M144.96,0h9.52c.87.06,1.53.8,1.48,1.67.05.88-.61,1.63-1.49,1.7h-3.23v14.68c.05.87-.62,1.62-1.49,1.67-.88-.05-1.55-.79-1.51-1.67V3.36h-3.28c-.88-.06-1.54-.82-1.49-1.7-.05-.87.62-1.62,1.49-1.66Z"/>
        <path id="_パス_7944" data-name="パス_7944" class="cls-2" d="M168.46,19.71c-.86,0-1.67-.38-2.23-1.03l-1.1-1.23c-.57-.71-.89-1.58-.92-2.49v-1.19c-.05-.87.62-1.62,1.49-1.67.88.05,1.55.79,1.52,1.67,0,.03-.02.34-.02.36.02,1.05.11,1,.83,1.8.24.21.53.35.85.41h3.12c.32,0,.62-.13.83-.38.17-.17.33-.35.48-.54.24-.25.36-.58.34-.92v-1.08c0-.9-.44-1.1-1.08-1.33l-6.25-2.31c-1.25-.37-2.05-1.6-1.88-2.9v-2.16c-.01-.91.31-1.8.92-2.49l1.14-1.21C167.05.37,167.87,0,168.73,0h3.56c.88,0,1.72.38,2.32,1.03l1.08,1.21c.62.68.95,1.57.92,2.49v.93c.09.82-.5,1.57-1.33,1.66-.82.09-1.57-.5-1.66-1.33-.01-.11-.01-.22,0-.33v-.47c0-.34-.13-.66-.34-.92l-.48-.54c-.21-.25-.52-.39-.85-.38-.8,0-2.13-.03-2.96-.03-.32-.02-.62.12-.8.38-.09.15-.25.28-.48.57-.24.26-.35.61-.31.95,0,.13,0,.76,0,.92,0,.32.19.6.48.72l7.04,2.66c.98.46,1.63,1.41,1.72,2.49v2.95c0,.91-.32,1.8-.92,2.49l-1.1,1.23c-.56.63-1.35,1.01-2.2,1.03h-3.97,0Z"/>
        <path id="_パス_7945" data-name="パス_7945" class="cls-2" d="M189.75,19.71c-.86,0-1.67-.37-2.23-1.03l-1.1-1.21c-.59-.69-.92-1.58-.92-2.49V1.67c-.03-.88.64-1.62,1.52-1.67.87.05,1.54.8,1.49,1.67v12.85c0,.34.12.67.34.92l.48.54c.2.25.51.39.83.38h3.44c.32,0,.62-.13.83-.38l.48-.54c.22-.26.35-.58.34-.92V1.67c-.04-.88.64-1.62,1.51-1.67.87.05,1.54.8,1.49,1.67v13.32c0,.91-.33,1.79-.91,2.49l-1.1,1.21c-.55.65-1.37,1.03-2.23,1.03h-4.27Z"/>
        <path id="_パス_7946" data-name="パス_7946" class="cls-2" d="M233.02,19.71c-.86,0-1.67-.37-2.23-1.03l-1.1-1.21c-.59-.69-.92-1.58-.92-2.49V1.67c-.04-.88.64-1.62,1.52-1.67.87.05,1.54.8,1.49,1.67v12.85c0,.34.12.67.34.92l.48.54c.2.25.51.39.83.38h3.44c.32,0,.62-.13.83-.38l.48-.54c.22-.26.35-.58.34-.92V1.67c-.09-.83.51-1.57,1.34-1.66.83-.09,1.57.51,1.66,1.34.01.11.01.21,0,.32v13.32c0,.91-.33,1.79-.92,2.49l-1.1,1.21c-.55.65-1.37,1.03-2.23,1.03h-4.26,0Z"/>
        <path id="_パス_7947" data-name="パス_7947" class="cls-2" d="M251.81,0h9.52c.87.05,1.54.8,1.49,1.67.05.88-.61,1.63-1.49,1.7h-3.23v14.68c.05.87-.62,1.62-1.49,1.67-.88-.05-1.55-.79-1.52-1.67V3.36h-3.28c-.88-.06-1.54-.82-1.49-1.7-.05-.87.62-1.61,1.49-1.66Z"/>
        <path id="_パス_7948" data-name="パス_7948" class="cls-2" d="M278.05,1.51l5.11,15.89c.3.84-.09,1.77-.9,2.16-.77.27-1.62-.14-1.89-.91-.01-.04-.03-.08-.04-.12l-.75-2.41h-6.78l-.85,2.46c-.19.78-.99,1.26-1.77,1.07-.05-.01-.09-.02-.14-.04-.81-.37-1.2-1.29-.92-2.13l5.11-15.97c.25-.86,1.02-1.47,1.91-1.51.89.04,1.66.65,1.9,1.51ZM278.53,12.76l-2.36-7.4-2.32,7.4h4.68Z"/>
        <path id="_パス_7949" data-name="パス_7949" class="cls-2" d="M303.79,19.71c-1.34-.08-2.36-1.23-2.29-2.57V1.7c-.11-.82.48-1.58,1.3-1.68.82-.11,1.58.48,1.68,1.3.02.13.02.26,0,.38v14.68h5.37c.92.1,1.59.93,1.49,1.85-.09.78-.7,1.4-1.49,1.49h-6.06Z"/>
        <path id="_パス_7950" data-name="パス_7950" class="cls-2" d="M329.12,1.51l5.11,15.89c.3.84-.09,1.77-.9,2.16-.77.27-1.62-.14-1.89-.91-.01-.04-.03-.08-.04-.12l-.75-2.41h-6.78l-.85,2.46c-.19.78-.99,1.26-1.77,1.07-.05-.01-.09-.02-.14-.04-.81-.37-1.2-1.29-.92-2.13l5.11-15.97c.25-.86,1.02-1.47,1.92-1.51.9.04,1.67.65,1.91,1.51h0ZM329.6,12.91l-2.36-7.54-2.32,7.54h4.68Z"/>
        <path id="_パス_7951" data-name="パス_7951" class="cls-2" d="M376.81,14.99c0,.91-.32,1.8-.91,2.49l-1.08,1.21c-.56.65-1.37,1.03-2.23,1.03h-4.29c-.86,0-1.67-.38-2.23-1.03l-1.08-1.21c-.6-.69-.92-1.57-.91-2.49V4.72c0-.91.32-1.8.91-2.49l1.08-1.21C366.63.37,367.44,0,368.3,0h4.29c.86,0,1.67.38,2.23,1.03l1.08,1.21c.6.69.92,1.57.91,2.49v10.27h0ZM373.82,5.21c0-.35-.11-.69-.34-.95l-.48-.54c-.21-.23-.51-.37-.83-.38h-3.46c-.31.01-.61.15-.83.38l-.48.54c-.23.26-.35.6-.34.95v9.29c0,.35.11.69.34.95l.48.54c.21.23.51.37.83.38h3.46c.31-.01.61-.15.83-.38l.48-.54c.23-.26.35-.6.34-.95V5.21Z"/>
        <path id="_パス_7952" data-name="パス_7952" class="cls-2" d="M220.13,17.12l-2.71-5.64,1.58-1.51c.59-.69.92-1.58.92-2.49v-2.75c0-.91-.33-1.79-.92-2.49l-1.08-1.23c-.55-.65-1.37-1.02-2.23-1h-6.07c-1.35.07-2.38,1.22-2.32,2.57v15.39c-.04.78.46,1.5,1.21,1.72.84.14,1.64-.43,1.78-1.27.02-.12.03-.24.02-.37V3.33h4.95c.32,0,.61.15.83.38l.47.52c.23.27.36.61.36.96v1.8c0,.34-.12.67-.34.92l-.48.54c-.2.25-.51.39-.83.38h-1.88c-.87.05-1.54.8-1.49,1.67h0c-.05.87.62,1.62,1.49,1.67h1.01l3.12,6.54c.3.72,1.12,1.05,1.84.75.06-.02.12-.05.17-.09.74-.51.99-1.48.6-2.28h0Z"/>
        <path id="_パス_7953" data-name="パス_7953" class="cls-2" d="M354.12,10.06l-.69-.57s.32-.31.67-.59c.5-.45.78-1.1.78-1.77v-3.16c.03-.87-.4-1.7-1.13-2.18l-2.04-1.3c-.48-.31-1.03-.48-1.6-.49h-4.61c-1.29,0-2.29,1.16-2.29,3.06v14.57c.13,1.17,1.12,2.06,2.29,2.08h5.04c.61-.01,1.2-.2,1.7-.54l1.81-1.26c.71-.51,1.14-1.33,1.13-2.2v-3.31c0-.9-.38-1.75-1.06-2.33h.01ZM352.17,14.71c.02.33-.14.65-.41.85l-.87.61c-.2.13-.43.2-.67.2h-4.03V3.31h3.71c.23,0,.45.07.64.2l.94.64c.26.19.41.5.41.82v1.06c0,.34-.14.67-.39.9l-.85.77c-.21.19-.47.3-.75.31h-.64c-.87.05-1.54.8-1.49,1.67-.05.87.62,1.62,1.49,1.67h.99c.27,0,.53.1.73.28l.8.67c.25.22.39.54.39.87v1.54h0Z"/>
      </g>
      <g>
        <path id="_パス_7943-2" data-name="パス_7943" class="cls-1" d="M144.96,0h9.52c.87.06,1.53.8,1.48,1.67.05.88-.61,1.63-1.49,1.7h-3.23v14.68c.05.87-.62,1.62-1.49,1.67-.88-.05-1.55-.79-1.51-1.67V3.36h-3.28c-.88-.06-1.54-.82-1.49-1.7-.05-.87.62-1.62,1.49-1.66Z"/>
        <path id="_パス_7944-2" data-name="パス_7944" class="cls-1" d="M168.46,19.71c-.86,0-1.67-.38-2.23-1.03l-1.1-1.23c-.57-.71-.89-1.58-.92-2.49v-1.19c-.05-.87.62-1.62,1.49-1.67.88.05,1.55.79,1.52,1.67,0,.03-.02.34-.02.36.02,1.05.11,1,.83,1.8.24.21.53.35.85.41h3.12c.32,0,.62-.13.83-.38.17-.17.33-.35.48-.54.24-.25.36-.58.34-.92v-1.08c0-.9-.44-1.1-1.08-1.33l-6.25-2.31c-1.25-.37-2.05-1.6-1.88-2.9v-2.16c-.01-.91.31-1.8.92-2.49l1.14-1.21C167.05.37,167.87,0,168.73,0h3.56c.88,0,1.72.38,2.32,1.03l1.08,1.21c.62.68.95,1.57.92,2.49v.93c.09.82-.5,1.57-1.33,1.66-.82.09-1.57-.5-1.66-1.33-.01-.11-.01-.22,0-.33v-.47c0-.34-.13-.66-.34-.92l-.48-.54c-.21-.25-.52-.39-.85-.38-.8,0-2.13-.03-2.96-.03-.32-.02-.62.12-.8.38-.09.15-.25.28-.48.57-.24.26-.35.61-.31.95,0,.13,0,.76,0,.92,0,.32.19.6.48.72l7.04,2.66c.98.46,1.63,1.41,1.72,2.49v2.95c0,.91-.32,1.8-.92,2.49l-1.1,1.23c-.56.63-1.35,1.01-2.2,1.03h-3.97,0Z"/>
        <path id="_パス_7945-2" data-name="パス_7945" class="cls-1" d="M189.75,19.71c-.86,0-1.67-.37-2.23-1.03l-1.1-1.21c-.59-.69-.92-1.58-.92-2.49V1.67c-.03-.88.64-1.62,1.52-1.67.87.05,1.54.8,1.49,1.67v12.85c0,.34.12.67.34.92l.48.54c.2.25.51.39.83.38h3.44c.32,0,.62-.13.83-.38l.48-.54c.22-.26.35-.58.34-.92V1.67c-.04-.88.64-1.62,1.51-1.67.87.05,1.54.8,1.49,1.67v13.32c0,.91-.33,1.79-.91,2.49l-1.1,1.21c-.55.65-1.37,1.03-2.23,1.03h-4.27Z"/>
        <path id="_パス_7946-2" data-name="パス_7946" class="cls-1" d="M233.02,19.71c-.86,0-1.67-.37-2.23-1.03l-1.1-1.21c-.59-.69-.92-1.58-.92-2.49V1.67c-.04-.88.64-1.62,1.52-1.67.87.05,1.54.8,1.49,1.67v12.85c0,.34.12.67.34.92l.48.54c.2.25.51.39.83.38h3.44c.32,0,.62-.13.83-.38l.48-.54c.22-.26.35-.58.34-.92V1.67c-.09-.83.51-1.57,1.34-1.66.83-.09,1.57.51,1.66,1.34.01.11.01.21,0,.32v13.32c0,.91-.33,1.79-.92,2.49l-1.1,1.21c-.55.65-1.37,1.03-2.23,1.03h-4.26,0Z"/>
        <path id="_パス_7947-2" data-name="パス_7947" class="cls-1" d="M251.81,0h9.52c.87.05,1.54.8,1.49,1.67.05.88-.61,1.63-1.49,1.7h-3.23v14.68c.05.87-.62,1.62-1.49,1.67-.88-.05-1.55-.79-1.52-1.67V3.36h-3.28c-.88-.06-1.54-.82-1.49-1.7-.05-.87.62-1.61,1.49-1.66Z"/>
        <path id="_パス_7948-2" data-name="パス_7948" class="cls-1" d="M278.05,1.51l5.11,15.89c.3.84-.09,1.77-.9,2.16-.77.27-1.62-.14-1.89-.91-.01-.04-.03-.08-.04-.12l-.75-2.41h-6.78l-.85,2.46c-.19.78-.99,1.26-1.77,1.07-.05-.01-.09-.02-.14-.04-.81-.37-1.2-1.29-.92-2.13l5.11-15.97c.25-.86,1.02-1.47,1.91-1.51.89.04,1.66.65,1.9,1.51ZM278.53,12.76l-2.36-7.4-2.32,7.4h4.68Z"/>
        <path id="_パス_7949-2" data-name="パス_7949" class="cls-1" d="M303.79,19.71c-1.34-.08-2.36-1.23-2.29-2.57V1.7c-.11-.82.48-1.58,1.3-1.68.82-.11,1.58.48,1.68,1.3.02.13.02.26,0,.38v14.68h5.37c.92.1,1.59.93,1.49,1.85-.09.78-.7,1.4-1.49,1.49h-6.06Z"/>
        <path id="_パス_7950-2" data-name="パス_7950" class="cls-1" d="M329.12,1.51l5.11,15.89c.3.84-.09,1.77-.9,2.16-.77.27-1.62-.14-1.89-.91-.01-.04-.03-.08-.04-.12l-.75-2.41h-6.78l-.85,2.46c-.19.78-.99,1.26-1.77,1.07-.05-.01-.09-.02-.14-.04-.81-.37-1.2-1.29-.92-2.13l5.11-15.97c.25-.86,1.02-1.47,1.92-1.51.9.04,1.67.65,1.91,1.51h0ZM329.6,12.91l-2.36-7.54-2.32,7.54h4.68Z"/>
        <path id="_パス_7951-2" data-name="パス_7951" class="cls-1" d="M376.81,14.99c0,.91-.32,1.8-.91,2.49l-1.08,1.21c-.56.65-1.37,1.03-2.23,1.03h-4.29c-.86,0-1.67-.38-2.23-1.03l-1.08-1.21c-.6-.69-.92-1.57-.91-2.49V4.72c0-.91.32-1.8.91-2.49l1.08-1.21C366.63.37,367.44,0,368.3,0h4.29c.86,0,1.67.38,2.23,1.03l1.08,1.21c.6.69.92,1.57.91,2.49v10.27h0ZM373.82,5.21c0-.35-.11-.69-.34-.95l-.48-.54c-.21-.23-.51-.37-.83-.38h-3.46c-.31.01-.61.15-.83.38l-.48.54c-.23.26-.35.6-.34.95v9.29c0,.35.11.69.34.95l.48.54c.21.23.51.37.83.38h3.46c.31-.01.61-.15.83-.38l.48-.54c.23-.26.35-.6.34-.95V5.21Z"/>
        <path id="_パス_7952-2" data-name="パス_7952" class="cls-1" d="M220.13,17.12l-2.71-5.64,1.58-1.51c.59-.69.92-1.58.92-2.49v-2.75c0-.91-.33-1.79-.92-2.49l-1.08-1.23c-.55-.65-1.37-1.02-2.23-1h-6.07c-1.35.07-2.38,1.22-2.32,2.57v15.39c-.04.78.46,1.5,1.21,1.72.84.14,1.64-.43,1.78-1.27.02-.12.03-.24.02-.37V3.33h4.95c.32,0,.61.15.83.38l.47.52c.23.27.36.61.36.96v1.8c0,.34-.12.67-.34.92l-.48.54c-.2.25-.51.39-.83.38h-1.88c-.87.05-1.54.8-1.49,1.67h0c-.05.87.62,1.62,1.49,1.67h1.01l3.12,6.54c.3.72,1.12,1.05,1.84.75.06-.02.12-.05.17-.09.74-.51.99-1.48.6-2.28h0Z"/>
        <path id="_パス_7953-2" data-name="パス_7953" class="cls-1" d="M354.12,10.06l-.69-.57s.32-.31.67-.59c.5-.45.78-1.1.78-1.77v-3.16c.03-.87-.4-1.7-1.13-2.18l-2.04-1.3c-.48-.31-1.03-.48-1.6-.49h-4.61c-1.29,0-2.29,1.16-2.29,3.06v14.57c.13,1.17,1.12,2.06,2.29,2.08h5.04c.61-.01,1.2-.2,1.7-.54l1.81-1.26c.71-.51,1.14-1.33,1.13-2.2v-3.31c0-.9-.38-1.75-1.06-2.33h.01ZM352.17,14.71c.02.33-.14.65-.41.85l-.87.61c-.2.13-.43.2-.67.2h-4.03V3.31h3.71c.23,0,.45.07.64.2l.94.64c.26.19.41.5.41.82v1.06c0,.34-.14.67-.39.9l-.85.77c-.21.19-.47.3-.75.31h-.64c-.87.05-1.54.8-1.49,1.67-.05.87.62,1.62,1.49,1.67h.99c.27,0,.53.1.73.28l.8.67c.25.22.39.54.39.87v1.54h0Z"/>
      </g>
    </g>
  </g>
</svg>