<?xml version="1.0" encoding="UTF-8"?>
<svg id="_レイヤー_2" data-name="レイヤー_2" xmlns="http://www.w3.org/2000/svg" viewBox="0 0 382.23 80.81">
  <defs>
    <style>
      .cls-1 {
        fill: #004829;
      }

      .cls-2 {
        fill: #fff;
      }

      .cls-3 {
        stroke: #004829;
        stroke-miterlimit: 10;
        stroke-width: 3.02px;
      }

      .cls-3, .cls-4 {
        fill: #fffef0;
      }
    </style>
  </defs>
  <g id="_レイヤー_1-2" data-name="レイヤー_1">
    <g>
      <rect class="cls-1" y="10.08" width="364.71" height="59.79"/>
      <g>
        <rect class="cls-4" x="287.87" y="11.36" width="79.71" height="57.23" rx="2.29" ry="2.29"/>
        <g>
          <circle class="cls-2" cx="366.48" cy="52.05" r="10.13"/>
          <path class="cls-3" d="M377.59,61.14c-1.83,3.62-9.05,14.61-11.18,17.84-.28.43-.91.43-1.2,0-2.14-3.23-9.37-14.22-11.2-17.84-1.96-3.88-3.2-6.22-3.12-9.6.15-6.15,4.11-11.68,9.93-13.65.32-.11.69-.2,1.09-.29,2.56-.55,5.21-.55,7.77,0,.4.09.78.18,1.1.29,5.82,1.98,9.78,7.51,9.93,13.65.08,3.38-1.16,5.72-3.12,9.6ZM366.11,44.99c-4.01,0-7.25,3.25-7.25,7.25s3.25,7.25,7.25,7.25,7.25-3.25,7.25-7.25-3.25-7.25-7.25-7.25ZM349.45,15.41v2.45c0,1.21-.98,2.19-2.19,2.19h-1.54c-1.21,0-2.19-.98-2.19-2.19v-2.45h-34.9v2.45c0,1.21-.98,2.19-2.19,2.19h-1.54c-1.21,0-2.19-.98-2.19-2.19v-2.45h-7.73c-1.9,0-3.44,1.54-3.44,3.44v11.04h74.27v-14.48h-16.35ZM309.28,10.08h33.79M302.29,10.08h-11.93c-2.36,0-4.27,1.91-4.27,4.27v50.57c0,2.36,1.91,4.27,4.27,4.27h68.25M366.07,36.31V14.35c0-2.36-1.91-4.27-4.27-4.27h-11.75M297.88,38.86h11.08M297.88,46.46h11.08M297.88,54.06h11.08M320.54,38.86h11.08M320.54,46.46h11.08M320.54,54.06h11.08M308.63,18.54V3.03c0-.84-.68-1.52-1.52-1.52h-2.89c-.84,0-1.52.68-1.52,1.52v15.51c0,.84.68,1.52,1.52,1.52h2.89c.84,0,1.52-.68,1.52-1.52ZM349.45,18.54V3.03c0-.84-.68-1.52-1.52-1.52h-2.89c-.84,0-1.52.68-1.52,1.52v15.51c0,.84.68,1.52,1.52,1.52h2.89c.84,0,1.52-.68,1.52-1.52Z"/>
        </g>
      </g>
      <g>
        <path class="cls-4" d="M33.21,31.86c1.2,2.24,1.82,3.85,2.77,7.17l-3.99,1.22c-.67-2.9-1.52-5.37-2.58-7.35l3.8-1.04ZM49.76,32.35c-.18.53-.28.88-.53,2.19-.83,3.99-2.19,7.12-4.17,9.7-2.03,2.6-4.56,4.54-8.41,6.41-.88-1.64-1.41-2.35-2.83-3.69,2.77-.99,4.77-2.19,6.66-3.99,2.47-2.33,3.82-5,4.61-9.05.21-1.06.28-1.66.3-2.6l4.38,1.04ZM39.39,30.78c1.11,1.96,1.89,3.96,2.74,6.89l-3.96,1.22c-.69-2.72-1.36-4.63-2.56-7.1l3.78-1.01Z"/>
        <path class="cls-4" d="M76.46,33.29c-.35.37-.41.48-.71,1.2-1.47,3.46-3.46,5.78-6.43,7.63-.81-1.04-1.57-1.77-2.58-2.51-.14,2.4-.53,4.08-1.34,5.6-.81,1.47-2,2.79-3.59,3.89-.94.65-1.73,1.06-3.25,1.77-.92-1.82-1.29-2.37-2.63-3.73,2.53-.81,4.19-1.82,5.28-3.2,1.11-1.43,1.5-3.06,1.5-6.13,0-.74-.02-1.08-.14-1.59h4.33c-.07.46-.09.67-.12,1.98,0,.02-.02.58-.02.81q.14-.09.53-.28c1.68-.85,3.04-2.23,3.87-3.92h-10.99c-1.75,0-2.56.05-3.66.16v-4.03c1.06.16,1.84.21,3.73.21h12.07c1.29,0,1.45-.02,1.98-.25l2.17,2.4Z"/>
        <path class="cls-4" d="M81.05,37.99c1.08.16,2.33.21,4.72.21h11.01c2.3,0,3.18-.05,4.72-.21v4.45c-1.11-.12-2.12-.14-4.75-.14h-10.97c-2.58,0-3.34.02-4.75.14v-4.45Z"/>
        <path class="cls-4" d="M123.45,50.46c-2-2.53-4.03-4.54-6.61-6.54-2.17,2.56-4.91,4.58-8.48,6.31-.81-1.61-1.29-2.3-2.58-3.64,3-1.15,5.37-2.65,7.47-4.65,2.14-2.05,3.55-4.1,4.63-6.77l-5.99.09c-1.98.05-2.72.09-3.66.23l-.12-4.1c.9.12,1.52.16,2.42.16.18,0,.62,0,1.29-.02l7.88-.12c1.08-.02,1.22-.02,1.84-.25l2.03,2.07c-.35.35-.48.58-.83,1.36-1.22,2.88-2.1,4.49-3.39,6.22,2.79,2,3.73,2.81,7.33,6.24l-3.23,3.41Z"/>
        <path class="cls-4" d="M146.45,37.55c-.28,3.13-.62,4.68-1.41,6.41-.9,1.91-2.26,3.5-4.12,4.86-1.13.81-2.03,1.29-3.8,2.05-.83-1.71-1.34-2.37-2.7-3.64,3.5-1.2,5.55-2.7,6.71-4.88.67-1.27.99-2.63,1.15-4.79h-4.7c-1.36,2.14-2.05,3-3.66,4.49-.99-1.11-1.75-1.71-3.36-2.58,2.24-1.89,3.64-3.71,4.82-6.29.65-1.38.94-2.3,1.11-3.36l4.24.88c-.21.48-.3.69-.58,1.41q-.28.71-.76,1.75h8.73c1.75,0,2.4-.02,3.64-.16v4.01c-1.08-.09-2.05-.14-3.66-.14h-1.64Z"/>
        <path class="cls-4" d="M159.47,35.99c2.47.97,4.63,2.05,6.43,3.27l-1.96,3.62c-1.66-1.29-4.24-2.7-6.59-3.59l2.12-3.29ZM158.02,46.05c2.03,0,4.95-.62,7.1-1.47,4.31-1.71,7.35-5.09,8.99-10.07,1.11,1.24,2.17,2.14,3.39,2.88-2.93,7.23-8.16,11.2-16.68,12.65-.81.16-1.18.25-1.64.39l-1.15-4.38ZM161.2,30.34c2.53.92,5.02,2.07,6.61,3.04l-2.05,3.53c-2.14-1.43-4.56-2.63-6.61-3.29l2.05-3.27ZM173.11,30.13c.81,1.06,1.5,2.35,2.03,3.66l-2.28.83c-.62-1.52-1.2-2.6-2.03-3.73l2.28-.76ZM176.31,29.07c.76.97,1.41,2.05,2.05,3.55l-2.21.81c-.65-1.52-1.24-2.6-2-3.62l2.17-.74Z"/>
        <path class="cls-4" d="M195.71,46.35c1.29,0,2.21-.05,3.02-.14v3.5c-.76-.07-1.87-.09-3.04-.09h-10.78c-1.5,0-2.26.02-3.09.09v-3.5c.88.12,1.41.14,3.09.14h5.69c.55-3.09.67-3.85.99-6.87h-4.42c-1.54,0-2.24.02-3,.09v-3.5c.97.12,1.43.14,3.09.14h5.58c.6,0,.88-.05,1.31-.25l1.75,1.45q-.3.58-.6,2.83c-.21,1.54-.58,4.03-.9,6.11h1.31Z"/>
        <path class="cls-4" d="M203.18,37.99c1.08.16,2.33.21,4.72.21h11.01c2.3,0,3.18-.05,4.72-.21v4.45c-1.11-.12-2.12-.14-4.75-.14h-10.97c-2.58,0-3.34.02-4.75.14v-4.45Z"/>
        <path class="cls-4" d="M236.13,30.83q-.09.78-.25,5.34c-.14,4.82-.6,7.37-1.71,9.88-.76,1.71-1.64,2.95-3.2,4.61-1.17-1.54-1.82-2.19-3.29-3.23,1.31-1.18,2.03-2.14,2.74-3.66,1.08-2.26,1.45-5.12,1.45-11.08,0-1.01-.02-1.52-.09-2.12l4.35.25ZM242.65,30.46c-.14.94-.16,1.31-.18,2.67l-.12,12.07c1.24-.78,1.98-1.45,2.76-2.53.83-1.18,1.38-2.37,1.8-3.94,1.15,1.43,1.75,2.03,3.06,3.04-1.04,2.58-2.23,4.35-3.99,5.85-1.38,1.18-2.51,1.77-4.84,2.63-.65.23-.83.3-1.13.48l-1.98-2.07c.21-.6.25-.99.25-1.94l.12-13.64v-.83c0-.74-.02-1.24-.09-1.8h4.33Z"/>
      </g>
    </g>
  </g>
</svg>