<svg xmlns="http://www.w3.org/2000/svg" id="_レイヤー_2" data-name="レイヤー_2" viewBox="0 0 373.01 78.68"><defs><clipPath id="clippath"><path d="M108.65 30.12h27.23V62.8h-27.23z" class="cls-1"/></clipPath><clipPath id="clippath-1"><path d="M108.65 30.12h27.54V63.1h-27.54z" class="cls-1"/></clipPath><style>.cls-1{fill:none}.cls-3{fill:#004829}.cls-4{fill:#87b89b}.cls-5{fill:#00773b}.cls-6{fill:#e95513}.cls-7{fill:#9ac580}.cls-8{fill:#fff}.cls-9{fill:#a40b5e}</style></defs><g id="_レイヤー_1-2" data-name="レイヤー_1"><path d="M171.35 18.08c0 .6-.47 1.06-1.09 1.06-.63 0-1.14-.47-1.14-1.06 0-.57.5-1.06 1.1-1.07.63 0 1.13.47 1.13 1.07M180.23 18.08c0 .6-.47 1.06-1.09 1.06-.63 0-1.14-.47-1.14-1.06 0-.57.5-1.06 1.1-1.07.63 0 1.13.47 1.13 1.07M197.98 18.07c0 .61-.48 1.08-1.11 1.08-.61 0-1.1-.47-1.11-1.05-.01-.59.51-1.09 1.12-1.08.61 0 1.1.47 1.1 1.06ZM153.6 26.59c0 .59-.48 1.05-1.09 1.06-.63 0-1.13-.48-1.13-1.07 0-.57.51-1.06 1.11-1.06.63 0 1.12.47 1.12 1.08ZM180.23 77.62c0 .59-.48 1.05-1.1 1.05-.63 0-1.13-.48-1.13-1.07 0-.57.51-1.06 1.11-1.06.63 0 1.12.47 1.12 1.08M162.47 26.57c0 .61-.48 1.08-1.11 1.08-.61 0-1.1-.46-1.12-1.05-.01-.59.51-1.09 1.12-1.09s1.1.47 1.1 1.05ZM197.98 26.59c0 .6-.47 1.06-1.09 1.06-.63 0-1.14-.47-1.14-1.06 0-.57.5-1.06 1.1-1.07.63 0 1.13.47 1.12 1.07ZM189.1 9.58c0 .6-.47 1.06-1.09 1.06-.63 0-1.14-.47-1.14-1.06 0-.57.5-1.06 1.1-1.07.63 0 1.13.47 1.12 1.07ZM180.23 9.56c0 .61-.47 1.08-1.11 1.08-.61 0-1.1-.46-1.12-1.05-.01-.59.51-1.09 1.12-1.09s1.1.47 1.11 1.05ZM206.86 69.12c0 .59-.48 1.05-1.1 1.06-.63 0-1.13-.48-1.13-1.07 0-.57.51-1.06 1.11-1.06.63 0 1.12.47 1.12 1.08ZM197.98 69.12c0 .59-.48 1.05-1.1 1.05-.63 0-1.13-.48-1.13-1.07 0-.57.51-1.06 1.11-1.06.63 0 1.12.47 1.12 1.08M188.02 70.17c-.63 0-1.14-.47-1.14-1.06 0-.57.5-1.06 1.1-1.07.61 0 1.11.45 1.13 1.03.01.62-.46 1.09-1.08 1.1ZM180.23 69.12c0 .59-.48 1.05-1.09 1.06-.63 0-1.13-.48-1.13-1.07 0-.57.51-1.06 1.11-1.06.63 0 1.12.47 1.12 1.08ZM153.6 35.07c0 .61-.47 1.08-1.1 1.08-.61 0-1.1-.46-1.12-1.04-.01-.59.5-1.09 1.12-1.09.61 0 1.1.47 1.11 1.05ZM162.47 35.1c0 .59-.48 1.05-1.1 1.05-.63 0-1.13-.48-1.13-1.07 0-.57.51-1.06 1.11-1.06.63 0 1.12.48 1.11 1.08ZM197.98 35.09c0 .6-.47 1.06-1.09 1.06-.63 0-1.14-.47-1.14-1.07 0-.57.5-1.06 1.1-1.07.63 0 1.12.47 1.12 1.07ZM206.86 60.59c0 .61-.48 1.08-1.11 1.08-.61 0-1.1-.47-1.11-1.05 0-.59.51-1.09 1.12-1.08.61 0 1.09.47 1.1 1.06ZM197.98 60.62c0 .59-.49 1.05-1.1 1.05-.63 0-1.13-.48-1.12-1.08 0-.57.52-1.06 1.12-1.05.63 0 1.11.48 1.11 1.09ZM189.1 60.6c0 .6-.47 1.06-1.09 1.06-.63 0-1.14-.47-1.14-1.06 0-.57.5-1.06 1.1-1.07.63 0 1.13.47 1.13 1.07M180.23 60.6c0 .6-.47 1.06-1.08 1.07-.63 0-1.14-.47-1.14-1.06 0-.57.5-1.06 1.1-1.07.63 0 1.13.47 1.13 1.07ZM171.35 60.59c0 .61-.48 1.08-1.12 1.07-.61 0-1.1-.47-1.11-1.06 0-.57.49-1.07 1.09-1.08.62-.01 1.13.46 1.13 1.06ZM162.47 60.59c0 .61-.48 1.08-1.11 1.07-.61 0-1.1-.47-1.11-1.05 0-.59.52-1.09 1.13-1.08.61 0 1.09.47 1.1 1.06ZM153.6 60.6c0 .6-.47 1.06-1.08 1.07-.63 0-1.14-.46-1.14-1.06 0-.57.5-1.06 1.09-1.08.62-.01 1.13.46 1.13 1.07M144.72 60.6c0 .6-.47 1.06-1.08 1.07-.63 0-1.14-.46-1.14-1.06 0-.57.5-1.06 1.09-1.07.62-.01 1.13.46 1.13 1.07ZM135.85 60.61c0 .6-.48 1.05-1.09 1.06-.63 0-1.13-.47-1.13-1.07 0-.57.51-1.06 1.1-1.07.63 0 1.12.47 1.12 1.08M144.72 43.59c0 .6-.47 1.06-1.09 1.06-.63 0-1.14-.47-1.14-1.06 0-.57.5-1.06 1.1-1.07.63 0 1.13.47 1.13 1.07M153.6 43.59c0 .6-.47 1.06-1.09 1.06-.63 0-1.14-.47-1.14-1.06 0-.57.5-1.06 1.1-1.07.63 0 1.13.47 1.13 1.07M162.47 43.59c0 .61-.48 1.08-1.12 1.07-.61 0-1.1-.47-1.11-1.06 0-.57.49-1.07 1.09-1.08.62-.01 1.13.46 1.13 1.06ZM171.35 43.6c0 .6-.48 1.05-1.09 1.06-.63 0-1.13-.47-1.13-1.07 0-.57.51-1.06 1.1-1.07.63 0 1.12.47 1.12 1.08M180.23 43.58c0 .61-.47 1.08-1.11 1.08-.61 0-1.1-.46-1.12-1.05-.01-.59.51-1.09 1.12-1.09s1.1.47 1.11 1.05ZM189.1 43.6c0 .6-.48 1.05-1.09 1.06-.63 0-1.13-.47-1.13-1.07 0-.57.51-1.06 1.1-1.07.63 0 1.12.47 1.12 1.08M197.98 43.58c0 .61-.48 1.08-1.11 1.08-.61 0-1.1-.46-1.11-1.05s.51-1.09 1.12-1.09 1.1.47 1.1 1.05ZM197.98 52.11c0 .59-.48 1.05-1.1 1.05-.63 0-1.13-.48-1.12-1.08 0-.57.52-1.06 1.11-1.06.63 0 1.12.48 1.11 1.08ZM189.1 52.1c0 .6-.47 1.06-1.09 1.06-.63 0-1.14-.47-1.14-1.06 0-.57.5-1.06 1.1-1.07.63 0 1.13.47 1.13 1.07M180.23 52.08c0 .61-.48 1.08-1.11 1.08-.61 0-1.1-.46-1.12-1.05-.01-.59.51-1.09 1.12-1.09s1.1.47 1.1 1.05ZM171.35 52.09c0 .6-.47 1.06-1.08 1.07-.63.01-1.14-.46-1.14-1.06 0-.57.49-1.07 1.09-1.08.62-.01 1.13.46 1.13 1.06ZM135.85 52.09c0 .61-.48 1.08-1.12 1.07-.61 0-1.1-.47-1.11-1.05 0-.57.49-1.07 1.09-1.08.62-.01 1.13.46 1.13 1.06ZM162.47 52.1c0 .6-.48 1.05-1.09 1.06-.63 0-1.13-.47-1.13-1.07 0-.57.51-1.06 1.1-1.07.63 0 1.12.47 1.12 1.08M153.6 52.1c0 .6-.47 1.06-1.09 1.06-.63 0-1.14-.47-1.13-1.07 0-.57.51-1.06 1.1-1.07.63 0 1.12.47 1.12 1.07ZM144.72 52.1c0 .6-.47 1.06-1.09 1.06-.63 0-1.14-.47-1.14-1.06 0-.57.5-1.06 1.1-1.07.63 0 1.13.47 1.13 1.07" class="cls-4"/><path d="M182.45 3.18c0 .6-.49 1.09-1.11 1.08-.61 0-1.1-.47-1.11-1.05 0-.59.47-1.07 1.08-1.08.64-.01 1.14.45 1.15 1.05ZM191.33 45.73c0 .58-.49 1.06-1.1 1.06-.62 0-1.13-.47-1.13-1.07 0-.58.49-1.06 1.1-1.06.63 0 1.13.47 1.13 1.07M181.35 46.79c-.62 0-1.12-.48-1.12-1.08 0-.58.5-1.05 1.11-1.05.63 0 1.12.47 1.12 1.08 0 .58-.5 1.05-1.11 1.06ZM172.47 44.66c.63 0 1.12.48 1.11 1.08-.01.58-.51 1.05-1.11 1.05-.62 0-1.12-.49-1.11-1.09 0-.58.5-1.05 1.11-1.04M163.58 46.79c-.62 0-1.11-.49-1.1-1.1.01-.58.51-1.04 1.12-1.03.63 0 1.12.49 1.1 1.09-.02.58-.52 1.05-1.12 1.04" class="cls-7"/><path d="M155.82 45.74c0 .58-.5 1.05-1.11 1.05-.62 0-1.12-.48-1.11-1.09 0-.58.5-1.05 1.11-1.05.63 0 1.12.48 1.11 1.08Z" class="cls-9"/><path d="M145.84 46.79c-.62 0-1.12-.48-1.12-1.08 0-.58.5-1.05 1.11-1.05.63 0 1.12.47 1.12 1.08 0 .58-.5 1.05-1.11 1.06ZM129.19 54.24c0 .58-.5 1.05-1.11 1.05-.62 0-1.12-.48-1.11-1.08 0-.58.5-1.05 1.11-1.05.63 0 1.12.48 1.11 1.08M136.98 53.16c.63.01 1.11.5 1.09 1.1-.02.58-.52 1.04-1.13 1.03-.62-.01-1.11-.5-1.09-1.1.02-.58.52-1.04 1.13-1.03M146.95 54.21c0 .6-.49 1.09-1.11 1.08-.61 0-1.1-.47-1.11-1.05 0-.59.47-1.07 1.08-1.08.64-.01 1.14.45 1.15 1.05ZM154.71 55.29c-.62 0-1.12-.49-1.11-1.09.01-.58.51-1.05 1.12-1.04.63 0 1.12.48 1.11 1.09-.01.58-.51 1.05-1.12 1.04M164.7 54.21c0 .6-.49 1.09-1.12 1.08-.61 0-1.1-.47-1.11-1.05 0-.59.47-1.07 1.08-1.08.64-.01 1.14.45 1.15 1.05M172.49 53.16c.63.01 1.11.5 1.09 1.11-.02.58-.53 1.04-1.14 1.03-.63-.01-1.11-.51-1.09-1.11.02-.58.52-1.03 1.14-1.02ZM181.34 55.29c-.62 0-1.12-.48-1.11-1.09 0-.58.5-1.05 1.11-1.05.63 0 1.12.48 1.11 1.08 0 .58-.51 1.05-1.11 1.05ZM190.24 53.16c.63.01 1.11.5 1.09 1.1-.02.58-.53 1.04-1.13 1.03-.62-.01-1.11-.5-1.09-1.11.02-.58.52-1.04 1.13-1.03ZM199.09 53.16c.63 0 1.12.48 1.11 1.08-.01.58-.51 1.05-1.11 1.05-.62 0-1.12-.49-1.11-1.09 0-.58.5-1.05 1.11-1.04M190.24 36.15c.63.01 1.11.5 1.09 1.1-.02.58-.53 1.04-1.13 1.03-.62-.01-1.11-.5-1.09-1.11.02-.58.52-1.04 1.13-1.03ZM182.45 37.23c0 .58-.5 1.05-1.11 1.05-.62 0-1.12-.48-1.11-1.09 0-.58.5-1.05 1.11-1.05.63 0 1.12.48 1.11 1.08ZM172.46 38.28c-.62 0-1.12-.48-1.11-1.09 0-.58.5-1.05 1.11-1.04.63 0 1.12.48 1.11 1.08 0 .58-.51 1.05-1.11 1.05M164.7 37.23c0 .58-.5 1.05-1.11 1.05-.62 0-1.12-.48-1.11-1.08 0-.58.5-1.05 1.11-1.05.63 0 1.12.48 1.11 1.08M154.73 36.15c.63.01 1.11.5 1.09 1.1-.02.58-.53 1.04-1.13 1.03-.62-.01-1.11-.5-1.09-1.11.02-.58.52-1.04 1.13-1.02M145.85 36.15c.63.01 1.11.5 1.09 1.1-.02.58-.52 1.04-1.13 1.03-.62-.01-1.11-.5-1.09-1.1.02-.58.52-1.04 1.13-1.03M136.96 61.67c.63 0 1.12.48 1.11 1.08-.01.58-.51 1.05-1.11 1.05-.62 0-1.12-.49-1.11-1.09 0-.58.5-1.05 1.11-1.04M146.95 62.75c0 .58-.5 1.05-1.11 1.05-.62 0-1.12-.48-1.11-1.08 0-.58.5-1.05 1.11-1.05.63 0 1.12.48 1.11 1.08M155.82 62.75c0 .58-.5 1.05-1.11 1.05-.62 0-1.12-.48-1.12-1.08 0-.58.5-1.05 1.11-1.05.63 0 1.12.48 1.12 1.08M163.61 61.67c.63.01 1.11.5 1.09 1.1-.02.58-.52 1.04-1.13 1.03-.62-.01-1.11-.5-1.09-1.1.02-.58.52-1.04 1.13-1.03M181.36 61.67c.63 0 1.11.49 1.1 1.1-.02.58-.52 1.04-1.13 1.03-.62 0-1.11-.5-1.09-1.1.02-.58.52-1.04 1.13-1.03ZM191.33 62.74c0 .58-.5 1.05-1.11 1.05-.62 0-1.12-.48-1.12-1.08 0-.58.5-1.05 1.11-1.05.63 0 1.12.47 1.12 1.08M200.2 62.73c0 .58-.48 1.06-1.09 1.07-.62.01-1.13-.47-1.13-1.07 0-.58.48-1.06 1.09-1.06.63 0 1.13.46 1.13 1.06M209.08 62.73c0 .58-.48 1.06-1.09 1.07-.62.01-1.13-.47-1.13-1.07 0-.58.48-1.06 1.09-1.06.63 0 1.13.46 1.13 1.06M154.71 27.65c.63 0 1.12.48 1.11 1.08 0 .58-.5 1.05-1.11 1.05-.62 0-1.12-.48-1.11-1.09 0-.58.5-1.05 1.11-1.05ZM182.45 71.25c0 .58-.5 1.05-1.11 1.05-.62 0-1.12-.48-1.11-1.09 0-.58.5-1.05 1.11-1.05.63 0 1.12.48 1.11 1.08ZM191.33 71.26c-.02.58-.52 1.05-1.12 1.04-.62 0-1.11-.49-1.1-1.1.01-.58.51-1.04 1.12-1.03.63 0 1.12.49 1.1 1.09M173.58 11.69c0 .58-.48 1.06-1.08 1.08-.62.01-1.13-.46-1.14-1.06 0-.58.48-1.06 1.08-1.07.64 0 1.13.45 1.14 1.06ZM181.36 10.64c.63.01 1.11.5 1.09 1.1-.02.58-.53 1.04-1.13 1.03-.62-.01-1.11-.5-1.09-1.11.02-.58.52-1.04 1.13-1.02M190.21 10.64c.63 0 1.12.48 1.11 1.08 0 .58-.5 1.05-1.11 1.05-.62 0-1.12-.48-1.11-1.08 0-.58.5-1.05 1.11-1.05M200.2 11.71c0 .58-.49 1.06-1.1 1.06-.62 0-1.13-.47-1.13-1.07 0-.58.49-1.06 1.1-1.06.63 0 1.13.46 1.13 1.07M182.45 20.2c0 .6-.5 1.08-1.12 1.08-.61 0-1.1-.47-1.11-1.06 0-.58.47-1.06 1.08-1.08.64-.01 1.14.45 1.14 1.05ZM172.47 21.28c-.62 0-1.12-.48-1.11-1.08 0-.58.5-1.05 1.11-1.05.63 0 1.12.48 1.11 1.08 0 .58-.5 1.05-1.11 1.05" class="cls-7"/><path d="M195.75 71.22c0 .61-.48 1.09-1.11 1.08-.6 0-1.1-.48-1.12-1.06-.01-.58.51-1.08 1.13-1.08s1.09.45 1.09 1.05ZM186.88 71.22c0 .61-.48 1.09-1.1 1.08-.6 0-1.1-.47-1.12-1.05s.5-1.08 1.12-1.08 1.09.45 1.1 1.05M204.63 62.74c0 .59-.48 1.05-1.09 1.06-.62 0-1.14-.49-1.13-1.08 0-.58.51-1.05 1.11-1.05.64 0 1.11.46 1.11 1.07M195.75 62.72c0 .61-.48 1.09-1.11 1.08-.6 0-1.1-.48-1.12-1.06-.01-.58.51-1.08 1.13-1.08s1.09.45 1.09 1.05ZM186.88 62.74c0 .59-.48 1.05-1.09 1.06-.62 0-1.14-.49-1.13-1.08 0-.58.51-1.05 1.11-1.05.64 0 1.11.46 1.11 1.08ZM178 62.74c0 .59-.48 1.05-1.09 1.06-.62 0-1.14-.49-1.13-1.08 0-.58.51-1.05 1.11-1.05.64 0 1.11.46 1.11 1.07M169.13 62.73c0 .59-.47 1.06-1.08 1.07-.62 0-1.14-.48-1.14-1.07 0-.57.5-1.06 1.1-1.06.64 0 1.12.45 1.12 1.06M160.25 62.74c0 .59-.48 1.06-1.09 1.06-.62 0-1.14-.49-1.13-1.08 0-.58.51-1.05 1.11-1.06.64 0 1.11.45 1.11 1.07ZM151.37 62.73c0 .6-.47 1.06-1.08 1.07-.62 0-1.14-.48-1.14-1.07 0-.57.5-1.06 1.1-1.07.64 0 1.12.45 1.12 1.06ZM142.5 62.72c0 .61-.48 1.09-1.1 1.08-.6 0-1.1-.48-1.12-1.05-.01-.58.51-1.08 1.13-1.08s1.09.45 1.1 1.05ZM133.62 62.73c0 .59-.47 1.06-1.08 1.07-.62 0-1.14-.48-1.14-1.07 0-.57.5-1.06 1.1-1.06.64 0 1.12.45 1.12 1.07ZM195.75 54.24c0 .59-.48 1.05-1.09 1.06-.62 0-1.14-.49-1.13-1.08 0-.58.51-1.05 1.11-1.05.64 0 1.11.46 1.11 1.08ZM186.88 54.23c0 .6-.47 1.06-1.08 1.07-.62 0-1.14-.48-1.14-1.07 0-.57.5-1.06 1.1-1.06.64 0 1.12.45 1.12 1.06M178 54.21c0 .61-.48 1.09-1.1 1.08-.6 0-1.1-.47-1.12-1.05s.5-1.08 1.12-1.08 1.09.45 1.1 1.05M169.13 54.23c0 .59-.48 1.06-1.09 1.06-.62 0-1.14-.49-1.13-1.08 0-.58.51-1.05 1.11-1.06.64 0 1.11.46 1.11 1.07ZM160.25 54.24c0 .59-.48 1.05-1.09 1.06-.62 0-1.14-.49-1.13-1.08 0-.58.51-1.05 1.11-1.05.64 0 1.11.46 1.11 1.07M151.37 54.24c0 .59-.49 1.05-1.1 1.05-.62 0-1.13-.5-1.12-1.09.01-.58.51-1.05 1.12-1.05.64 0 1.11.46 1.1 1.08ZM151.37 20.22c0 .59-.48 1.06-1.09 1.06-.62 0-1.14-.49-1.13-1.08 0-.58.51-1.05 1.11-1.06.64 0 1.11.46 1.11 1.07ZM142.5 54.22c0 .61-.48 1.08-1.11 1.08-.6 0-1.1-.48-1.11-1.06-.01-.57.49-1.06 1.09-1.07.64-.01 1.13.44 1.13 1.05M160.25 20.19c0 .61-.48 1.09-1.1 1.08-.6 0-1.1-.48-1.12-1.05-.01-.58.51-1.08 1.13-1.08s1.09.45 1.1 1.05ZM178 20.19c0 .61-.48 1.09-1.1 1.08-.6 0-1.1-.48-1.12-1.05-.01-.58.51-1.08 1.13-1.08s1.09.45 1.1 1.05ZM195.75 20.2c0 .6-.47 1.06-1.08 1.07-.62.01-1.14-.47-1.14-1.06 0-.57.5-1.06 1.1-1.07.64 0 1.12.45 1.12 1.06M195.75 11.69c0 .61-.48 1.09-1.11 1.08-.6 0-1.1-.48-1.11-1.06s.51-1.08 1.13-1.07c.62 0 1.09.45 1.09 1.05M186.88 11.71c0 .59-.47 1.06-1.08 1.07-.62 0-1.14-.48-1.14-1.07 0-.57.5-1.06 1.1-1.06.64 0 1.12.45 1.12 1.07ZM178 11.69c0 .61-.48 1.09-1.11 1.08-.6 0-1.1-.48-1.12-1.06-.01-.58.51-1.08 1.13-1.08s1.09.45 1.09 1.05ZM133.62 54.22c0 .61-.48 1.08-1.11 1.08-.6 0-1.1-.48-1.11-1.06 0-.57.49-1.06 1.09-1.07.64-.01 1.13.44 1.13 1.06ZM178 3.21c0 .59-.48 1.06-1.09 1.06-.62 0-1.14-.49-1.13-1.08 0-.58.51-1.05 1.11-1.06.64 0 1.11.46 1.11 1.07ZM195.75 45.73c0 .59-.48 1.06-1.09 1.06-.62 0-1.14-.49-1.13-1.07 0-.58.5-1.05 1.11-1.06.64 0 1.11.45 1.11 1.07M186.88 45.73c0 .59-.48 1.06-1.09 1.06-.62 0-1.14-.49-1.13-1.07 0-.57.5-1.05 1.11-1.06.64 0 1.12.45 1.11 1.07M178 45.71c0 .61-.48 1.09-1.1 1.08-.6 0-1.1-.47-1.12-1.05s.5-1.08 1.12-1.08 1.09.45 1.1 1.05M169.13 45.73c0 .59-.48 1.05-1.09 1.06-.62 0-1.14-.49-1.13-1.08 0-.58.51-1.05 1.11-1.05.64 0 1.11.46 1.11 1.07M160.25 45.71c0 .61-.48 1.09-1.11 1.08-.6 0-1.1-.48-1.11-1.06s.51-1.08 1.13-1.08 1.09.45 1.09 1.05ZM151.37 45.73c0 .59-.48 1.06-1.09 1.06-.62 0-1.14-.49-1.13-1.08 0-.58.51-1.05 1.11-1.06.64 0 1.11.45 1.11 1.07ZM142.5 45.71c0 .61-.48 1.08-1.11 1.08-.6 0-1.1-.48-1.11-1.06-.01-.57.49-1.06 1.09-1.07.64-.01 1.13.44 1.13 1.05M195.75 37.23c0 .59-.48 1.05-1.09 1.06-.62 0-1.14-.49-1.13-1.08 0-.58.51-1.05 1.11-1.05.64 0 1.11.46 1.11 1.07M178 37.23c0 .59-.48 1.05-1.09 1.06-.62 0-1.14-.49-1.13-1.08 0-.58.51-1.05 1.11-1.05.64 0 1.11.46 1.11 1.08ZM160.25 37.23c0 .59-.49 1.05-1.1 1.05-.62 0-1.13-.5-1.12-1.08s.51-1.05 1.12-1.05c.64 0 1.11.46 1.1 1.08M151.37 37.21c0 .6-.47 1.06-1.08 1.07-.62.01-1.14-.47-1.15-1.06 0-.57.5-1.06 1.1-1.07.64 0 1.12.45 1.12 1.06ZM195.75 28.72c0 .59-.48 1.05-1.09 1.06-.62 0-1.14-.49-1.13-1.08 0-.58.51-1.05 1.11-1.05.64 0 1.11.46 1.11 1.08ZM160.25 28.72c0 .59-.48 1.05-1.09 1.06-.62 0-1.14-.49-1.13-1.08 0-.58.51-1.05 1.11-1.05.64 0 1.11.46 1.11 1.07M151.37 28.73c0 .59-.49 1.05-1.1 1.05-.62 0-1.13-.5-1.12-1.08s.51-1.05 1.12-1.05c.64 0 1.11.46 1.1 1.08" class="cls-4"/><path d="M160.25 49.98c0 .61-.46 1.05-1.09 1.05s-1.14-.47-1.13-1.07c0-.57.52-1.06 1.11-1.06.63 0 1.11.47 1.11 1.08M135.85 56.34c0 .61-.49 1.08-1.12 1.07-.61 0-1.1-.47-1.11-1.06 0-.58.49-1.06 1.09-1.07.64-.01 1.13.45 1.13 1.05ZM197.98 13.83c0 .6-.47 1.05-1.09 1.06-.63 0-1.14-.47-1.14-1.06 0-.58.49-1.06 1.1-1.06.64 0 1.13.45 1.13 1.06M194.67 25.52c-.64 0-1.14-.46-1.14-1.06 0-.57.51-1.06 1.1-1.07.61 0 1.11.45 1.12 1.04.01.63-.44 1.09-1.08 1.1ZM176.91 17.01c-.63 0-1.14-.48-1.13-1.07.01-.57.53-1.06 1.12-1.06.63 0 1.11.48 1.11 1.09 0 .6-.47 1.04-1.09 1.04ZM153.6 30.83c0 .6-.47 1.06-1.08 1.07-.63.01-1.14-.46-1.14-1.06 0-.58.49-1.06 1.1-1.06.64 0 1.13.45 1.13 1.06ZM186.88 15.95c0 .62-.47 1.07-1.11 1.06-.61 0-1.1-.47-1.11-1.05 0-.57.5-1.06 1.1-1.08.62-.01 1.12.46 1.13 1.07ZM162.47 30.84c0 .59-.48 1.05-1.09 1.06-.63 0-1.13-.47-1.13-1.07 0-.58.5-1.05 1.11-1.06.64 0 1.12.46 1.12 1.07ZM195.75 15.97c0 .6-.47 1.04-1.1 1.04s-1.14-.49-1.12-1.08c.02-.57.53-1.06 1.12-1.05.63 0 1.11.48 1.1 1.09M197.98 30.83c0 .61-.49 1.08-1.12 1.07-.61 0-1.1-.48-1.1-1.06s.49-1.06 1.09-1.07c.64 0 1.13.45 1.13 1.06M178 75.48c0 .62-.47 1.07-1.11 1.06-.61 0-1.1-.47-1.11-1.05 0-.56.5-1.06 1.09-1.08.62-.01 1.12.46 1.13 1.07M151.37 32.98c0 .6-.47 1.04-1.1 1.04s-1.14-.49-1.12-1.08c.01-.57.53-1.06 1.12-1.05.63 0 1.11.48 1.1 1.09M160.25 32.98c0 .6-.47 1.04-1.1 1.04s-1.14-.48-1.12-1.07c.01-.57.53-1.06 1.12-1.06.63 0 1.11.48 1.1 1.09M178 32.96c0 .62-.47 1.07-1.11 1.06-.61 0-1.1-.47-1.11-1.05 0-.57.5-1.06 1.1-1.08.62-.01 1.12.46 1.13 1.07ZM194.65 34.02c-.62 0-1.1-.46-1.11-1.05-.01-.58.52-1.09 1.13-1.08.63 0 1.1.48 1.09 1.1 0 .6-.48 1.04-1.11 1.03M189.1 73.35c0 .61-.48 1.08-1.12 1.07-.61 0-1.1-.47-1.11-1.05 0-.57.49-1.06 1.09-1.07.64-.01 1.13.45 1.13 1.05ZM180.23 73.35c0 .61-.48 1.08-1.11 1.07-.61 0-1.1-.47-1.11-1.05 0-.57.48-1.06 1.09-1.07.64-.01 1.13.44 1.14 1.05ZM186.88 7.45c0 .61-.46 1.05-1.08 1.05-.63 0-1.14-.47-1.14-1.06 0-.57.51-1.06 1.11-1.07.62 0 1.12.47 1.11 1.08M178 7.47c0 .6-.47 1.04-1.1 1.04s-1.14-.49-1.12-1.08c.01-.57.53-1.06 1.12-1.05.63 0 1.11.48 1.1 1.09M189.1 13.81c0 .61-.48 1.08-1.11 1.08-.61 0-1.1-.47-1.12-1.05-.01-.59.5-1.08 1.12-1.08s1.1.45 1.1 1.05ZM180.23 13.82c0 .61-.48 1.08-1.12 1.07-.61 0-1.1-.47-1.11-1.05 0-.57.49-1.06 1.09-1.07.64-.01 1.13.45 1.13 1.05ZM160.25 24.47c0 .61-.46 1.05-1.09 1.05s-1.14-.47-1.13-1.07c0-.57.52-1.06 1.11-1.06.63 0 1.11.47 1.11 1.08M150.28 25.52c-.63 0-1.14-.47-1.13-1.07 0-.57.52-1.06 1.11-1.06.63 0 1.11.47 1.11 1.08s-.46 1.05-1.09 1.05M204.63 67c0 .6-.47 1.04-1.1 1.04s-1.14-.49-1.12-1.08c.02-.57.53-1.06 1.12-1.05.63 0 1.11.48 1.1 1.09M195.75 66.98c0 .61-.45 1.05-1.08 1.06-.64 0-1.14-.46-1.14-1.06 0-.57.51-1.06 1.1-1.07.62-.01 1.12.47 1.12 1.07M186.88 66.98c0 .62-.47 1.07-1.12 1.06-.61 0-1.1-.47-1.1-1.06 0-.57.5-1.06 1.1-1.08.62-.01 1.12.46 1.12 1.07ZM178 66.98c0 .62-.47 1.07-1.11 1.06-.61 0-1.1-.47-1.11-1.05 0-.57.5-1.06 1.1-1.08.62-.01 1.12.46 1.12 1.07M160.25 66.97c0 .62-.46 1.07-1.11 1.07-.62 0-1.1-.46-1.11-1.05 0-.58.53-1.09 1.13-1.08.62.01 1.09.47 1.09 1.06M133.62 66.98c0 .61-.46 1.05-1.08 1.05-.63 0-1.14-.47-1.14-1.06 0-.57.51-1.06 1.1-1.07.62 0 1.12.47 1.12 1.08M153.6 39.34c0 .59-.47 1.05-1.09 1.06-.63 0-1.13-.47-1.13-1.07 0-.58.5-1.05 1.1-1.06.64 0 1.12.46 1.12 1.06ZM162.47 39.35c0 .59-.48 1.05-1.1 1.05-.63 0-1.13-.48-1.13-1.07 0-.58.5-1.05 1.11-1.05.64 0 1.12.46 1.12 1.07M206.86 64.85c0 .61-.49 1.08-1.12 1.07-.61 0-1.1-.47-1.11-1.06 0-.58.49-1.06 1.09-1.07.64-.01 1.13.45 1.13 1.05ZM180.23 39.33c0 .61-.48 1.08-1.12 1.07-.61 0-1.1-.47-1.11-1.05 0-.57.49-1.06 1.09-1.07.64-.01 1.13.45 1.13 1.05ZM197.98 64.84c0 .61-.47 1.08-1.11 1.08-.61 0-1.1-.46-1.12-1.04-.01-.59.5-1.08 1.12-1.08s1.1.45 1.11 1.04M189.1 39.32c0 .61-.47 1.08-1.11 1.08-.61 0-1.1-.46-1.12-1.04-.01-.59.5-1.08 1.12-1.08s1.1.45 1.11 1.04M189.1 64.86c0 .59-.47 1.05-1.09 1.06-.63 0-1.13-.47-1.13-1.07 0-.58.5-1.05 1.1-1.06.64 0 1.12.46 1.12 1.07M197.98 39.33c0 .61-.49 1.08-1.12 1.07-.61 0-1.1-.47-1.11-1.06 0-.58.49-1.06 1.09-1.07.64-.01 1.13.45 1.13 1.05ZM180.23 64.86c0 .59-.48 1.05-1.09 1.06-.63 0-1.13-.47-1.13-1.07 0-.58.5-1.05 1.11-1.06.64 0 1.12.46 1.12 1.07ZM171.35 64.85c0 .61-.49 1.08-1.12 1.07-.61 0-1.1-.47-1.11-1.06 0-.58.49-1.06 1.09-1.07.64-.01 1.13.45 1.13 1.05ZM162.47 64.85c0 .6-.47 1.06-1.08 1.07-.63.01-1.14-.46-1.14-1.06 0-.58.49-1.06 1.09-1.07.64 0 1.13.45 1.13 1.06M144.72 64.86c0 .6-.47 1.05-1.09 1.06-.63 0-1.13-.47-1.14-1.06 0-.58.49-1.05 1.1-1.06.64 0 1.12.45 1.12 1.06ZM135.85 64.87c0 .59-.48 1.05-1.1 1.05-.63 0-1.13-.48-1.13-1.07 0-.58.5-1.05 1.11-1.05.64 0 1.12.46 1.11 1.07ZM151.37 41.46c0 .63-.46 1.07-1.11 1.07-.62 0-1.1-.46-1.11-1.05-.01-.58.52-1.09 1.13-1.08.62 0 1.09.47 1.09 1.06M171.35 13.82c0 .61-.48 1.08-1.12 1.07-.61 0-1.1-.47-1.11-1.05 0-.57.49-1.06 1.09-1.07.64-.01 1.13.45 1.13 1.05ZM160.25 41.48c0 .6-.47 1.04-1.1 1.04s-1.14-.48-1.12-1.07c.01-.57.53-1.06 1.12-1.06.63 0 1.11.48 1.1 1.09M178 41.49c0 .6-.47 1.04-1.1 1.04s-1.14-.49-1.12-1.08c.01-.57.53-1.06 1.12-1.05.63 0 1.11.48 1.1 1.09M186.88 41.47c0 .61-.45 1.05-1.08 1.06-.64 0-1.14-.46-1.14-1.06 0-.57.51-1.06 1.1-1.07.62 0 1.12.47 1.12 1.07M195.75 41.49c0 .6-.47 1.04-1.1 1.04s-1.14-.49-1.12-1.08c.02-.57.53-1.06 1.12-1.05.63 0 1.11.48 1.1 1.09M180.23 5.33c0 .59-.48 1.05-1.1 1.05-.63 0-1.13-.48-1.13-1.07 0-.58.5-1.05 1.11-1.05.64 0 1.12.46 1.11 1.07ZM195.75 58.48c0 .61-.46 1.05-1.08 1.05-.63 0-1.14-.47-1.14-1.06 0-.57.51-1.06 1.11-1.07.62 0 1.12.47 1.12 1.08ZM186.88 58.46c0 .63-.46 1.08-1.1 1.07-.62 0-1.1-.46-1.12-1.04-.01-.58.52-1.09 1.12-1.09.62 0 1.09.47 1.1 1.06M178 58.49c0 .61-.46 1.05-1.09 1.05s-1.14-.48-1.13-1.07c0-.57.52-1.06 1.11-1.06.63 0 1.11.47 1.11 1.08M169.13 58.5c0 .6-.47 1.04-1.1 1.04s-1.14-.49-1.12-1.08c.02-.57.54-1.06 1.12-1.05.63 0 1.1.48 1.1 1.09M160.25 58.49c0 .61-.46 1.05-1.09 1.05s-1.14-.47-1.13-1.07c0-.57.52-1.06 1.11-1.06.63 0 1.11.47 1.11 1.08M151.37 58.5c0 .6-.47 1.04-1.1 1.04s-1.14-.49-1.12-1.08c.01-.57.53-1.06 1.12-1.05.63 0 1.11.48 1.1 1.09M142.5 58.48c0 .61-.45 1.05-1.08 1.06-.64 0-1.14-.46-1.14-1.06 0-.57.51-1.06 1.1-1.07.62-.01 1.12.47 1.12 1.07M133.62 58.49c0 .61-.46 1.05-1.09 1.05s-1.14-.47-1.13-1.07c0-.57.52-1.06 1.11-1.06.63 0 1.11.47 1.11 1.08M197.98 56.36c0 .59-.48 1.05-1.09 1.06-.63 0-1.13-.47-1.13-1.07 0-.58.5-1.05 1.11-1.06.64 0 1.12.46 1.12 1.07ZM189.1 56.36c0 .59-.48 1.05-1.1 1.05-.63 0-1.13-.48-1.12-1.07 0-.58.51-1.05 1.11-1.05.64 0 1.12.46 1.11 1.07M180.23 56.36c0 .59-.48 1.05-1.1 1.05-.63 0-1.13-.48-1.13-1.07 0-.58.5-1.05 1.11-1.05.64 0 1.12.46 1.11 1.07ZM171.35 56.35c0 .61-.49 1.08-1.12 1.07-.61 0-1.1-.48-1.1-1.06s.49-1.06 1.09-1.07c.64 0 1.13.45 1.13 1.06M162.47 56.37c0 .59-.49 1.05-1.1 1.05-.63 0-1.13-.49-1.12-1.08 0-.58.51-1.05 1.12-1.05.64 0 1.11.47 1.11 1.08ZM153.6 56.34c0 .61-.49 1.08-1.12 1.07-.61 0-1.1-.47-1.11-1.06 0-.58.49-1.06 1.09-1.07.64-.01 1.13.45 1.13 1.05ZM144.72 56.35c0 .61-.49 1.08-1.12 1.07-.61 0-1.1-.48-1.1-1.06s.49-1.06 1.09-1.07c.64-.01 1.13.45 1.13 1.06M197.98 22.33c0 .6-.47 1.05-1.09 1.06-.63 0-1.14-.47-1.14-1.06 0-.58.49-1.06 1.1-1.06.64 0 1.13.45 1.13 1.06M126.97 56.35c0 .6-.47 1.05-1.09 1.06-.63 0-1.13-.47-1.14-1.06 0-.58.49-1.05 1.1-1.06.64 0 1.12.45 1.12 1.06ZM171.35 22.33c0 .6-.47 1.05-1.09 1.06-.63 0-1.14-.47-1.14-1.06 0-.58.49-1.06 1.1-1.06.64 0 1.13.45 1.13 1.06M135.85 47.86c0 .59-.48 1.05-1.1 1.05-.63 0-1.13-.48-1.12-1.07 0-.58.51-1.05 1.11-1.05.64 0 1.12.46 1.11 1.07M144.72 47.85c0 .6-.47 1.05-1.08 1.06-.63 0-1.14-.47-1.14-1.06 0-.58.49-1.06 1.1-1.06.64 0 1.13.45 1.13 1.06Z" class="cls-7"/><path d="M153.6 47.83c0 .61-.47 1.08-1.11 1.08-.61 0-1.1-.46-1.12-1.04-.01-.59.5-1.08 1.12-1.08s1.1.45 1.11 1.04" class="cls-9"/><path d="M162.47 47.84c0 .6-.47 1.06-1.08 1.07-.63.01-1.14-.46-1.14-1.06 0-.58.49-1.06 1.1-1.06.64 0 1.13.45 1.13 1.06ZM171.35 47.85c0 .59-.47 1.05-1.09 1.06-.63 0-1.13-.47-1.13-1.07 0-.58.5-1.05 1.1-1.06.64 0 1.12.46 1.12 1.07M180.23 47.86c0 .59-.49 1.05-1.1 1.05-.63 0-1.13-.49-1.12-1.08 0-.58.51-1.05 1.12-1.05.64 0 1.11.47 1.11 1.08ZM189.1 47.84c0 .61-.48 1.08-1.11 1.07-.61 0-1.1-.47-1.11-1.05 0-.57.48-1.06 1.09-1.07.64-.01 1.13.44 1.14 1.05ZM197.98 47.84c0 .6-.47 1.06-1.08 1.06-.63 0-1.14-.47-1.14-1.06 0-.58.49-1.06 1.1-1.06.64 0 1.13.45 1.13 1.06ZM153.6 22.35c0 .59-.48 1.05-1.1 1.05-.63 0-1.13-.48-1.12-1.08 0-.58.51-1.05 1.11-1.05.64 0 1.12.46 1.11 1.08M162.47 22.34c0 .59-.48 1.05-1.09 1.06-.63 0-1.13-.47-1.13-1.07 0-.58.5-1.05 1.11-1.06.64 0 1.12.46 1.12 1.07ZM195.75 49.99c0 .6-.47 1.04-1.1 1.04s-1.14-.48-1.12-1.07c.01-.57.53-1.06 1.12-1.06.63 0 1.11.48 1.1 1.09M132.54 51.03c-.64 0-1.14-.46-1.14-1.06 0-.57.51-1.06 1.1-1.07.61 0 1.11.45 1.12 1.04.01.63-.44 1.09-1.08 1.09M186.88 50.02c-.01.6-.49 1.02-1.13 1.01-.61-.01-1.1-.49-1.1-1.06 0-.58.55-1.09 1.15-1.07.63.02 1.09.5 1.07 1.12ZM142.5 49.99c0 .6-.47 1.04-1.1 1.04s-1.14-.48-1.13-1.07c.01-.57.53-1.06 1.12-1.06.63 0 1.11.48 1.1 1.09ZM178 49.96c0 .63-.46 1.07-1.11 1.07-.62 0-1.1-.46-1.11-1.05-.01-.58.52-1.09 1.13-1.08.62 0 1.09.47 1.09 1.06M151.37 49.97c0 .61-.45 1.05-1.08 1.06-.64 0-1.14-.46-1.14-1.06 0-.57.51-1.06 1.1-1.07.62-.01 1.12.47 1.12 1.07M169.13 49.98c0 .61-.46 1.05-1.08 1.05-.63 0-1.14-.47-1.14-1.06 0-.57.51-1.06 1.1-1.07.62 0 1.12.47 1.12 1.08" class="cls-7"/><path d="M163.6 51.03c-.64 0-1.13-.46-1.12-1.07 0-.58.51-1.06 1.1-1.06.62 0 1.13.49 1.12 1.08 0 .59-.48 1.05-1.1 1.05" class="cls-4"/><path d="M154.72 51.03c-.64 0-1.12-.47-1.12-1.07 0-.58.51-1.06 1.11-1.06s1.11.47 1.12 1.05c.01.61-.47 1.08-1.11 1.08" class="cls-9"/><path d="M172.45 51.03c-.62 0-1.1-.46-1.1-1.05s.52-1.09 1.12-1.08c.61.01 1.1.49 1.1 1.07 0 .61-.49 1.07-1.12 1.06M145.83 51.03c-.64 0-1.12-.47-1.11-1.08.01-.58.52-1.06 1.12-1.05.61 0 1.1.48 1.11 1.06 0 .61-.48 1.07-1.12 1.07M181.34 51.03c-.64 0-1.12-.47-1.11-1.08 0-.58.52-1.06 1.11-1.05.61 0 1.1.48 1.11 1.06 0 .61-.48 1.08-1.11 1.08ZM136.94 51.03c-.62 0-1.09-.47-1.09-1.06s.52-1.09 1.13-1.07 1.1.49 1.09 1.07c0 .61-.49 1.07-1.13 1.06M190.21 51.03c-.62 0-1.1-.46-1.1-1.05s.51-1.09 1.12-1.08 1.1.48 1.1 1.06c0 .61-.48 1.07-1.12 1.07M199.08 51.03c-.62 0-1.09-.46-1.1-1.06 0-.59.52-1.09 1.13-1.07s1.1.49 1.1 1.07c0 .61-.49 1.07-1.13 1.06M172.47 17.01c-.64 0-1.13-.46-1.12-1.07 0-.58.51-1.06 1.1-1.06.62 0 1.13.49 1.12 1.08 0 .59-.48 1.04-1.1 1.05M181.33 17.01c-.62 0-1.1-.46-1.1-1.05s.51-1.09 1.12-1.08 1.1.49 1.1 1.06c0 .61-.49 1.07-1.12 1.07M190.22 17.01c-.64 0-1.12-.47-1.11-1.08 0-.58.52-1.06 1.11-1.05.61 0 1.1.48 1.11 1.06 0 .61-.48 1.08-1.11 1.07M199.1 17.01c-.64 0-1.13-.46-1.12-1.07 0-.58.5-1.06 1.1-1.06.62 0 1.13.49 1.12 1.08 0 .59-.48 1.05-1.1 1.05M181.32 76.54c-.62 0-1.09-.46-1.1-1.06 0-.59.52-1.09 1.13-1.07s1.1.49 1.09 1.07c0 .61-.49 1.07-1.13 1.06ZM154.72 34.02c-.64 0-1.13-.46-1.12-1.07 0-.58.5-1.06 1.1-1.06.62 0 1.13.49 1.12 1.08 0 .59-.48 1.05-1.1 1.05M172.48 34.02c-.64 0-1.13-.45-1.13-1.06 0-.58.49-1.06 1.09-1.07.62 0 1.13.48 1.13 1.07s-.48 1.05-1.09 1.06M190.22 34.02c-.64 0-1.12-.47-1.11-1.08 0-.58.52-1.06 1.11-1.05.61 0 1.1.48 1.11 1.06 0 .61-.48 1.08-1.11 1.08ZM181.33 8.51c-.62 0-1.1-.46-1.1-1.05s.52-1.09 1.13-1.08c.61.02 1.1.49 1.1 1.07 0 .61-.49 1.07-1.13 1.06M172.46 8.51c-.64 0-1.12-.47-1.11-1.08.01-.58.52-1.06 1.12-1.05.61 0 1.1.48 1.11 1.06 0 .61-.48 1.07-1.12 1.07M154.72 25.52c-.64 0-1.13-.46-1.12-1.07 0-.58.5-1.06 1.1-1.06.62 0 1.13.49 1.12 1.08 0 .59-.48 1.05-1.1 1.05M206.86 66.97c0-.58.5-1.06 1.1-1.06.62 0 1.13.49 1.12 1.08 0 .61-.5 1.06-1.14 1.05-.62-.01-1.09-.48-1.08-1.07M199.08 68.04c-.62 0-1.1-.46-1.1-1.05s.51-1.09 1.12-1.08 1.1.48 1.1 1.06c0 .61-.48 1.07-1.12 1.07M145.84 25.52c-.64 0-1.13-.46-1.12-1.07 0-.58.51-1.06 1.1-1.06.62 0 1.13.49 1.12 1.08 0 .59-.48 1.04-1.1 1.05M190.22 68.04c-.64 0-1.12-.47-1.11-1.08 0-.58.52-1.06 1.11-1.05.61 0 1.1.48 1.11 1.05 0 .61-.48 1.08-1.11 1.08M181.36 68.04c-.64 0-1.13-.46-1.13-1.06 0-.58.5-1.06 1.1-1.07.62 0 1.13.48 1.13 1.08 0 .59-.48 1.05-1.1 1.05M163.58 68.04c-.64 0-1.12-.47-1.11-1.08.01-.58.52-1.06 1.12-1.05.61 0 1.1.48 1.11 1.06 0 .61-.48 1.07-1.12 1.07M136.96 59.53c-.64 0-1.12-.47-1.11-1.08 0-.58.52-1.06 1.11-1.05.61 0 1.1.48 1.11 1.05 0 .61-.48 1.08-1.11 1.08M145.83 59.53c-.64 0-1.12-.48-1.11-1.08.01-.58.52-1.06 1.12-1.05.61 0 1.1.48 1.11 1.06 0 .61-.48 1.07-1.12 1.07M154.72 59.53c-.64 0-1.13-.46-1.12-1.07 0-.58.5-1.06 1.1-1.06.62 0 1.13.49 1.12 1.08 0 .59-.48 1.05-1.1 1.05M163.59 59.53c-.64 0-1.12-.47-1.11-1.08 0-.58.52-1.06 1.11-1.05.61 0 1.1.48 1.11 1.06 0 .61-.48 1.08-1.11 1.07M172.48 59.53c-.64 0-1.13-.45-1.13-1.06 0-.58.49-1.06 1.09-1.07.62 0 1.13.48 1.13 1.07s-.48 1.05-1.09 1.06M181.35 59.53c-.64 0-1.12-.47-1.12-1.07 0-.58.51-1.06 1.11-1.06s1.11.47 1.12 1.05c.01.61-.47 1.08-1.11 1.08M190.23 59.53c-.64 0-1.13-.46-1.12-1.07 0-.58.51-1.06 1.1-1.06.62 0 1.13.49 1.12 1.08 0 .59-.48 1.05-1.1 1.05M199.09 59.53c-.64 0-1.12-.48-1.11-1.08.01-.58.52-1.06 1.12-1.05.61 0 1.1.48 1.11 1.06 0 .61-.48 1.07-1.12 1.07M145.84 42.53c-.64 0-1.12-.47-1.12-1.07 0-.58.51-1.06 1.11-1.06s1.11.47 1.12 1.05c.01.61-.47 1.08-1.11 1.08M154.7 42.53c-.62 0-1.1-.46-1.1-1.05s.51-1.09 1.12-1.08 1.1.48 1.1 1.06c0 .61-.48 1.07-1.12 1.07M163.58 42.53c-.62 0-1.1-.46-1.1-1.05 0-.6.51-1.09 1.12-1.08s1.1.48 1.1 1.06c0 .61-.48 1.07-1.12 1.07M172.45 42.53c-.62 0-1.09-.46-1.1-1.05 0-.59.52-1.09 1.13-1.08.61.02 1.1.49 1.1 1.07 0 .61-.49 1.07-1.13 1.06M181.34 42.53c-.64 0-1.12-.47-1.11-1.08 0-.58.52-1.06 1.11-1.05.61 0 1.1.48 1.11 1.05 0 .61-.48 1.08-1.11 1.08M190.22 42.53c-.64 0-1.12-.47-1.12-1.07 0-.58.51-1.06 1.11-1.06s1.11.47 1.12 1.05c.01.61-.47 1.08-1.11 1.08" class="cls-4"/><path d="M202.41 60.62c0 .6-.48 1.05-1.1 1.05-.63 0-1.12-.47-1.11-1.08 0-.58.51-1.06 1.11-1.06.63 0 1.11.48 1.11 1.09ZM193.54 60.6c0 .61-.48 1.07-1.12 1.06-.61 0-1.09-.48-1.09-1.06s.49-1.06 1.09-1.07c.63 0 1.12.47 1.12 1.07M184.66 60.59c0 .62-.47 1.08-1.11 1.07-.61 0-1.09-.46-1.1-1.05 0-.6.5-1.09 1.12-1.08.61 0 1.09.47 1.09 1.06M175.79 60.61c0 .61-.49 1.07-1.12 1.06-.61 0-1.09-.48-1.09-1.07 0-.58.49-1.06 1.09-1.07.63 0 1.12.47 1.12 1.07ZM158.03 26.59c0 .61-.49 1.07-1.13 1.06-.61-.01-1.09-.48-1.09-1.07 0-.58.5-1.06 1.1-1.07.63 0 1.12.47 1.12 1.08M166.91 60.59c0 .62-.47 1.08-1.11 1.08-.61 0-1.1-.46-1.1-1.05 0-.6.5-1.09 1.11-1.08.61 0 1.09.47 1.1 1.06ZM193.54 18.07c0 .62-.48 1.08-1.11 1.07-.61 0-1.09-.47-1.1-1.05 0-.6.5-1.09 1.12-1.08.61 0 1.09.47 1.09 1.06M158.03 60.59c0 .62-.47 1.08-1.1 1.08-.62 0-1.1-.46-1.11-1.05 0-.6.5-1.09 1.11-1.09s1.09.47 1.1 1.05ZM149.16 60.58c0 .62-.46 1.08-1.1 1.08-.62 0-1.1-.45-1.11-1.04-.01-.6.49-1.09 1.11-1.09.61 0 1.1.46 1.1 1.05M184.66 18.07c0 .62-.47 1.08-1.11 1.08-.61 0-1.1-.46-1.1-1.05 0-.6.5-1.09 1.11-1.09s1.09.47 1.1 1.06M140.28 60.59c0 .62-.47 1.08-1.11 1.07-.61 0-1.09-.46-1.1-1.05 0-.6.5-1.09 1.12-1.08.61 0 1.09.47 1.09 1.06M175.78 18.07c0 .62-.47 1.08-1.11 1.08-.61 0-1.1-.46-1.1-1.05 0-.6.5-1.09 1.11-1.09s1.09.47 1.1 1.06M131.4 60.6c0 .61-.48 1.07-1.12 1.06-.61 0-1.09-.48-1.09-1.06s.49-1.06 1.09-1.07c.63 0 1.12.46 1.12 1.07M149.16 43.61c0 .6-.48 1.05-1.1 1.05-.63 0-1.12-.47-1.11-1.08 0-.58.5-1.06 1.1-1.06.63 0 1.11.48 1.11 1.09M158.03 43.59c0 .61-.48 1.07-1.12 1.06-.61 0-1.09-.48-1.09-1.06s.49-1.06 1.09-1.07c.63 0 1.12.46 1.12 1.07M149.16 18.1c0 .6-.48 1.05-1.1 1.05-.63 0-1.12-.48-1.11-1.08 0-.58.51-1.06 1.11-1.06.63 0 1.11.48 1.11 1.09ZM193.54 26.61c-.01.6-.49 1.04-1.11 1.04-.63 0-1.12-.48-1.11-1.09.01-.58.51-1.05 1.11-1.05.63 0 1.11.48 1.1 1.09ZM166.91 43.57c0 .62-.46 1.08-1.1 1.08-.62 0-1.1-.45-1.11-1.04-.01-.6.49-1.09 1.11-1.09.61 0 1.1.46 1.1 1.05M175.78 43.61c0 .6-.48 1.05-1.1 1.05-.63 0-1.12-.47-1.12-1.08 0-.58.5-1.06 1.1-1.06.63 0 1.11.48 1.11 1.08ZM184.66 43.59c0 .62-.48 1.08-1.11 1.07-.61 0-1.09-.47-1.1-1.05 0-.6.51-1.09 1.12-1.08.61 0 1.09.47 1.09 1.06M202.41 9.59c0 .6-.48 1.05-1.1 1.05-.63 0-1.12-.47-1.11-1.08 0-.58.51-1.06 1.11-1.06.63 0 1.11.48 1.11 1.09ZM131.4 52.08c0 .62-.47 1.08-1.1 1.08-.62 0-1.1-.46-1.11-1.04-.01-.6.49-1.09 1.11-1.09.61 0 1.1.46 1.1 1.05M140.28 52.11c0 .61-.49 1.07-1.13 1.06-.61-.01-1.09-.48-1.08-1.07 0-.58.5-1.06 1.1-1.06.63 0 1.12.47 1.12 1.08ZM184.66 9.58c0 .61-.49 1.07-1.13 1.06-.61-.01-1.09-.48-1.09-1.07 0-.58.5-1.06 1.1-1.07.63 0 1.12.47 1.12 1.08M149.16 52.11c0 .6-.48 1.05-1.09 1.05-.63 0-1.12-.47-1.12-1.07 0-.58.5-1.06 1.1-1.06.63 0 1.12.47 1.11 1.08M175.79 9.57c0 .62-.48 1.08-1.11 1.07-.61 0-1.09-.47-1.1-1.06 0-.6.51-1.09 1.12-1.08.61 0 1.09.47 1.09 1.06ZM193.54 43.59c0 .61-.48 1.07-1.12 1.06-.61 0-1.09-.48-1.09-1.06s.49-1.06 1.09-1.07c.63 0 1.12.47 1.12 1.07M158.03 52.08c0 .62-.47 1.08-1.1 1.08-.62 0-1.1-.46-1.11-1.05 0-.6.5-1.09 1.11-1.09s1.09.47 1.1 1.05ZM166.91 52.09c0 .62-.48 1.08-1.11 1.07-.61 0-1.09-.47-1.1-1.05 0-.6.5-1.09 1.12-1.08.61 0 1.09.47 1.09 1.06M175.79 52.09c0 .62-.47 1.08-1.11 1.08-.61 0-1.1-.46-1.1-1.05 0-.6.5-1.09 1.12-1.08.61 0 1.09.47 1.1 1.06ZM184.66 52.1c0 .61-.48 1.07-1.12 1.06-.61 0-1.09-.48-1.09-1.06s.49-1.06 1.09-1.07c.63 0 1.12.47 1.12 1.07M149.16 26.58c0 .61-.48 1.08-1.12 1.07-.61 0-1.09-.47-1.1-1.06 0-.58.48-1.06 1.09-1.08.63-.01 1.13.46 1.13 1.07M193.54 52.09c0 .62-.48 1.08-1.11 1.07-.61 0-1.09-.46-1.1-1.05 0-.6.5-1.09 1.12-1.08.61 0 1.09.47 1.09 1.06M184.66 69.09c0 .62-.47 1.08-1.11 1.08-.61 0-1.1-.46-1.11-1.05 0-.6.5-1.09 1.11-1.09s1.09.47 1.1 1.06ZM193.54 69.12c0 .6-.47 1.05-1.09 1.05-.63 0-1.12-.47-1.12-1.07 0-.58.5-1.06 1.1-1.06.63 0 1.12.47 1.11 1.08M202.41 69.11c0 .61-.49 1.07-1.13 1.06-.61-.01-1.09-.48-1.08-1.07 0-.58.5-1.06 1.1-1.06.63 0 1.12.47 1.11 1.08ZM193.54 35.08c0 .62-.47 1.08-1.11 1.07-.61 0-1.09-.46-1.1-1.05 0-.6.5-1.09 1.12-1.08.61 0 1.09.47 1.09 1.06M175.79 35.08c0 .62-.47 1.08-1.11 1.08-.61 0-1.1-.46-1.1-1.05 0-.6.5-1.09 1.11-1.08.61 0 1.09.47 1.1 1.06ZM175.78 1.1c-.01.6-.49 1.04-1.12 1.03-.63 0-1.11-.49-1.09-1.1.02-.58.52-1.05 1.12-1.04.63.01 1.1.49 1.09 1.1ZM158.03 35.07c0 .62-.47 1.08-1.1 1.08-.62 0-1.1-.45-1.11-1.04-.01-.6.49-1.09 1.11-1.09.61 0 1.1.46 1.1 1.05M149.16 35.07c0 .62-.47 1.08-1.11 1.08-.61 0-1.1-.46-1.11-1.05 0-.6.5-1.09 1.11-1.09s1.09.47 1.1 1.06Z" class="cls-7"/><path d="M184.66 73.37c0 .6-.47 1.05-1.09 1.06-.63 0-1.12-.47-1.12-1.07 0-.59.49-1.05 1.1-1.05.64 0 1.12.45 1.11 1.07ZM175.78 22.32c0 .62-.47 1.08-1.1 1.08-.61 0-1.1-.46-1.11-1.05-.01-.58.46-1.06 1.07-1.08.64-.02 1.13.44 1.14 1.04ZM140.28 47.83c0 .62-.47 1.08-1.11 1.08-.62 0-1.1-.46-1.11-1.05-.01-.58.47-1.06 1.08-1.08.64-.01 1.13.44 1.14 1.05M149.16 47.86c0 .6-.47 1.05-1.09 1.05-.63 0-1.12-.47-1.12-1.07 0-.59.49-1.05 1.1-1.05.64 0 1.12.46 1.11 1.07M193.54 22.35c0 .6-.47 1.05-1.1 1.05s-1.12-.47-1.12-1.08c0-.59.49-1.05 1.11-1.05.64 0 1.11.46 1.11 1.08M131.4 56.33c0 .62-.46 1.08-1.1 1.08-.61 0-1.1-.45-1.11-1.04-.01-.58.46-1.06 1.07-1.08.64-.02 1.13.43 1.14 1.04" class="cls-4"/><path d="M158.03 47.85c0 .6-.47 1.05-1.09 1.05-.63 0-1.12-.47-1.12-1.07 0-.59.49-1.05 1.1-1.05.64 0 1.12.46 1.11 1.07" class="cls-9"/><path d="M166.91 47.84c0 .62-.47 1.08-1.11 1.07-.62 0-1.09-.46-1.1-1.05 0-.58.47-1.06 1.08-1.07.64-.01 1.13.44 1.13 1.05M193.54 30.82c0 .62-.47 1.08-1.1 1.08-.61 0-1.1-.46-1.11-1.05-.01-.58.46-1.06 1.07-1.08.64-.02 1.13.43 1.14 1.04ZM193.54 13.81c0 .62-.47 1.08-1.1 1.08-.61 0-1.1-.46-1.11-1.05-.01-.58.46-1.06 1.07-1.08.64-.02 1.13.43 1.14 1.04ZM140.28 56.34c0 .62-.47 1.08-1.11 1.08-.62 0-1.1-.46-1.11-1.05-.01-.58.47-1.06 1.08-1.08.64-.01 1.13.44 1.14 1.05M184.66 13.83c0 .6-.46 1.05-1.08 1.06-.63 0-1.13-.46-1.13-1.06 0-.58.48-1.06 1.09-1.06.64 0 1.12.45 1.12 1.06M158.03 30.85c0 .6-.47 1.05-1.09 1.05-.63 0-1.12-.47-1.12-1.07 0-.59.49-1.05 1.1-1.05.64 0 1.12.46 1.11 1.07M149.16 56.36c0 .6-.47 1.05-1.09 1.06-.63 0-1.12-.47-1.12-1.07 0-.59.49-1.05 1.1-1.05.64 0 1.12.46 1.11 1.07ZM149.16 30.85c0 .6-.47 1.05-1.09 1.06-.63 0-1.12-.47-1.12-1.07 0-.58.49-1.05 1.1-1.05.64 0 1.12.46 1.11 1.07ZM158.03 56.37c0 .6-.48 1.05-1.1 1.05-.63 0-1.12-.47-1.12-1.08 0-.59.5-1.05 1.11-1.05.64 0 1.11.46 1.11 1.08M166.91 56.34c0 .62-.47 1.08-1.11 1.08-.62 0-1.1-.46-1.1-1.05 0-.58.47-1.06 1.08-1.07.64-.01 1.13.44 1.13 1.05ZM175.78 56.35c0 .61-.48 1.08-1.12 1.07-.61 0-1.09-.47-1.1-1.06 0-.58.48-1.06 1.09-1.07.64 0 1.13.44 1.13 1.06M184.66 56.34c0 .62-.47 1.08-1.11 1.08-.62 0-1.1-.46-1.11-1.05-.01-.58.47-1.06 1.08-1.08.64-.01 1.13.44 1.14 1.05M193.54 56.35c0 .6-.46 1.05-1.08 1.06-.63 0-1.13-.46-1.13-1.07 0-.58.48-1.05 1.09-1.06.64 0 1.12.45 1.12 1.06ZM202.41 56.34c0 .61-.48 1.08-1.11 1.07-.61 0-1.09-.47-1.1-1.06 0-.58.47-1.06 1.08-1.07.64-.01 1.13.44 1.13 1.05ZM175.78 47.83c0 .62-.47 1.08-1.11 1.08-.62 0-1.1-.46-1.1-1.05 0-.58.47-1.06 1.08-1.07.64-.01 1.13.44 1.13 1.05ZM184.66 47.83c0 .62-.47 1.08-1.1 1.08-.61 0-1.1-.46-1.11-1.05-.01-.58.46-1.06 1.07-1.08.64-.02 1.13.44 1.14 1.04ZM193.54 47.83c0 .62-.47 1.08-1.1 1.08-.61 0-1.1-.46-1.11-1.05-.01-.58.46-1.06 1.07-1.08.64-.02 1.13.44 1.14 1.04ZM149.16 39.34c0 .6-.46 1.05-1.08 1.06-.63 0-1.13-.46-1.13-1.06 0-.58.48-1.06 1.09-1.06.64 0 1.12.45 1.12 1.06M158.03 39.35c0 .6-.47 1.05-1.09 1.06-.63 0-1.13-.46-1.13-1.07 0-.58.49-1.05 1.1-1.06.64 0 1.12.45 1.12 1.07M211.29 64.87c0 .6-.48 1.05-1.1 1.05-.63 0-1.12-.47-1.11-1.08 0-.59.5-1.05 1.11-1.05.64 0 1.11.46 1.11 1.08ZM175.78 39.33c0 .62-.47 1.08-1.11 1.08-.62 0-1.1-.46-1.1-1.05 0-.58.47-1.06 1.08-1.07.64-.01 1.13.44 1.13 1.05ZM202.41 64.88c0 .6-.48 1.05-1.1 1.04-.63 0-1.12-.48-1.11-1.08 0-.59.5-1.05 1.11-1.04.64 0 1.11.47 1.1 1.08M184.66 39.33c0 .62-.47 1.08-1.11 1.08-.62 0-1.1-.46-1.11-1.05 0-.58.47-1.06 1.08-1.08.64-.01 1.13.44 1.14 1.05M193.54 64.87c0 .6-.47 1.05-1.09 1.05-.63 0-1.12-.47-1.12-1.07 0-.59.49-1.05 1.1-1.05.64 0 1.12.46 1.11 1.07M193.54 39.33c0 .62-.47 1.08-1.11 1.07-.62 0-1.09-.46-1.1-1.05 0-.58.47-1.06 1.08-1.07.64-.01 1.13.44 1.13 1.05M184.66 64.86c0 .6-.46 1.05-1.08 1.06-.63 0-1.13-.46-1.13-1.06 0-.58.48-1.06 1.09-1.06.64 0 1.12.45 1.12 1.06M175.78 64.84c0 .62-.47 1.08-1.11 1.08-.62 0-1.1-.46-1.11-1.05-.01-.58.47-1.06 1.08-1.08.64-.01 1.13.44 1.14 1.05M149.16 22.33c0 .61-.48 1.08-1.12 1.07-.61 0-1.09-.47-1.1-1.06 0-.58.48-1.06 1.09-1.07.64 0 1.12.44 1.13 1.06M166.91 64.85c0 .61-.48 1.08-1.12 1.07-.61 0-1.09-.47-1.1-1.06 0-.58.48-1.06 1.09-1.07.64 0 1.13.44 1.13 1.06M158.03 64.84c0 .62-.47 1.08-1.11 1.08-.62 0-1.1-.46-1.11-1.05 0-.58.47-1.06 1.08-1.08.64-.01 1.13.44 1.14 1.05M149.16 64.85c0 .62-.48 1.08-1.11 1.07-.61 0-1.09-.47-1.1-1.06 0-.58.47-1.06 1.08-1.07.64-.01 1.13.44 1.13 1.05ZM158.03 22.35c0 .6-.48 1.05-1.1 1.05-.63 0-1.12-.47-1.11-1.08 0-.59.5-1.05 1.11-1.05.64 0 1.11.46 1.11 1.08ZM140.28 64.84c0 .62-.47 1.08-1.11 1.07-.62 0-1.09-.46-1.1-1.05 0-.58.47-1.06 1.08-1.07.64-.01 1.13.44 1.13 1.05M131.4 64.87c0 .6-.48 1.05-1.1 1.05-.63 0-1.12-.48-1.11-1.08 0-.59.5-1.05 1.11-1.05.64 0 1.11.46 1.11 1.08ZM175.78 5.31c0 .62-.47 1.08-1.11 1.07-.62 0-1.09-.46-1.1-1.05 0-.58.47-1.06 1.08-1.07.64-.01 1.13.44 1.13 1.05M175.78 13.82c0 .62-.48 1.08-1.11 1.07-.61 0-1.09-.47-1.1-1.06 0-.58.47-1.06 1.08-1.07.64-.01 1.13.44 1.13 1.05ZM184.66 5.32c0 .62-.48 1.08-1.11 1.07-.61 0-1.09-.47-1.1-1.05 0-.58.47-1.06 1.08-1.07.64-.01 1.13.44 1.13 1.05" class="cls-4"/><path d="M128.2 7.62a.67.67 0 0 0-.66.41c-.4-.11-1.06-.22-1.83-.3.43-.65.76-1.22.93-1.61.27.09.57 0 .73-.25.2-.29.13-.7-.16-.9s-.7-.13-.9.16a.63.63 0 0 0 .03.77c-.3.29-.72.81-1.18 1.43-.35-.69-.68-1.27-.93-1.6.21-.19.28-.49.15-.76-.15-.32-.54-.46-.86-.31s-.46.54-.31.86c.13.27.41.41.68.36.11.4.34 1.03.65 1.74-.77-.04-1.44-.04-1.85 0a.65.65 0 0 0-1.28.08c-.03.35.24.67.59.7.29.02.55-.15.66-.41.4.11 1.06.22 1.83.3-.43.65-.76 1.22-.93 1.61-.27-.09-.57 0-.73.25-.2.29-.13.7.16.9s.7.13.9-.16a.63.63 0 0 0-.03-.77c.3-.29.72-.81 1.18-1.43.35.69.68 1.27.93 1.6-.21.19-.28.49-.15.76.15.32.54.46.86.31s.46-.54.31-.86a.63.63 0 0 0-.68-.36c-.11-.4-.34-1.03-.65-1.74.77.04 1.44.04 1.85 0a.65.65 0 0 0 1.28-.08.655.655 0 0 0-.59-.7M326.82 41.98a.67.67 0 0 0-.66.41c-.4-.11-1.06-.22-1.83-.3.43-.65.76-1.22.93-1.61.27.09.57 0 .73-.25.2-.29.13-.7-.16-.9s-.7-.13-.9.16a.63.63 0 0 0 .03.77c-.3.29-.72.81-1.18 1.43-.35-.69-.68-1.27-.93-1.6.21-.19.28-.49.15-.76-.15-.32-.54-.46-.86-.31s-.46.54-.31.86c.13.27.41.41.68.36.11.4.34 1.03.65 1.74-.77-.04-1.44-.04-1.85 0a.65.65 0 0 0-1.28.08c-.03.35.24.67.59.7.29.02.55-.15.66-.41.4.11 1.06.22 1.83.3-.43.65-.76 1.22-.93 1.61-.27-.09-.57 0-.73.25-.2.29-.13.7.16.9s.7.13.9-.16a.63.63 0 0 0-.03-.77c.3-.29.72-.81 1.18-1.43.35.69.68 1.27.93 1.6-.21.19-.28.49-.15.76.15.32.54.46.86.31s.46-.54.31-.86a.63.63 0 0 0-.68-.36c-.11-.4-.34-1.03-.65-1.74.77.04 1.44.04 1.85 0a.65.65 0 0 0 1.28-.08.655.655 0 0 0-.59-.7M279.39 68.71a.67.67 0 0 0-.66.41c-.4-.11-1.06-.22-1.83-.3.43-.65.76-1.22.93-1.61.27.09.57 0 .73-.25.2-.29.13-.7-.16-.9s-.7-.13-.9.16a.63.63 0 0 0 .03.77c-.3.29-.72.81-1.18 1.43-.35-.69-.68-1.27-.93-1.6.21-.19.28-.49.15-.76-.15-.32-.54-.46-.86-.31s-.46.54-.31.86c.13.27.41.41.68.36.11.4.34 1.03.65 1.74-.77-.04-1.44-.04-1.85 0a.65.65 0 0 0-1.28.08c-.03.35.24.67.59.7.29.02.55-.15.66-.41.4.11 1.06.22 1.83.3-.43.65-.76 1.22-.93 1.61-.27-.09-.57 0-.73.25-.2.29-.13.7.16.9s.7.13.9-.16a.63.63 0 0 0-.03-.77c.3-.29.72-.81 1.18-1.43.35.69.68 1.27.93 1.6-.21.19-.28.49-.15.76.15.32.54.46.86.31s.46-.54.31-.86a.63.63 0 0 0-.68-.36c-.11-.4-.34-1.03-.65-1.74.77.04 1.44.04 1.85 0a.65.65 0 0 0 1.28-.08.655.655 0 0 0-.59-.7M270.46 28.32a.67.67 0 0 0-.66.41c-.4-.11-1.06-.22-1.83-.3.43-.65.76-1.22.93-1.61.27.09.57 0 .73-.25.2-.29.13-.7-.16-.9s-.7-.13-.9.16a.63.63 0 0 0 .03.77c-.3.29-.72.81-1.18 1.43-.35-.69-.68-1.27-.93-1.6.21-.19.28-.49.15-.76-.15-.32-.54-.46-.86-.31s-.46.54-.31.86c.13.27.41.41.68.36.11.4.34 1.03.65 1.74-.77-.04-1.44-.04-1.85 0a.65.65 0 0 0-1.28.08c-.03.35.24.67.59.7.29.02.55-.15.66-.41.4.11 1.06.22 1.83.3-.43.65-.76 1.22-.93 1.61-.27-.09-.57 0-.73.25-.2.29-.13.7.16.9s.7.13.9-.16a.63.63 0 0 0-.03-.77c.3-.29.72-.81 1.18-1.43.35.69.68 1.27.93 1.6-.21.19-.28.49-.15.76.15.32.54.46.86.31s.46-.54.31-.86a.63.63 0 0 0-.68-.36c-.11-.4-.34-1.03-.65-1.74.77.04 1.44.04 1.85 0a.65.65 0 0 0 1.28-.08.655.655 0 0 0-.59-.7" class="cls-5"/><path d="M.38 71h105.11l45.88-21.03" style="fill:none;stroke:#004829;stroke-linecap:round;stroke-linejoin:round;stroke-width:.76px"/><path d="M202.51 69.19h43.12v.61h-43.12z" class="cls-5"/><path d="M209.73 29.89h28.69v39.6h-28.69z" class="cls-8"/><path d="M238.74 69.8h-29.32V29.59h29.32zm-28.7-.61h28.06V30.2h-28.06v39Z" class="cls-5"/><path d="M236.95 69.8H211.2V31.31h25.75zm-25.12-.61h24.48V31.91h-24.48z" class="cls-5"/><path d="M211.52 69.5V31.61l18.16-4.84v47.56z" class="cls-8"/><path d="m230 74.73-18.79-5.01V31.38L230 26.37zm-18.17-5.46 17.53 4.67V27.17l-17.53 4.67z" class="cls-5"/><path d="M222.77 51.24v-1.37l4.55-.17v1.71z" class="cls-5"/><path d="M231.66 46.49h7.92v8.53h-7.92z" class="cls-8"/><path d="M231.66 53.79h7.92v8.19h-7.92z" class="cls-8"/><path d="m236.57 50.07.66 1.51c-1.14.23-2.03 1.32-1.41 2.48.41.75 1.22 1.13 2.18.66.79-.38 1.2-1.27.95-2.02l1.65.81c.04 1.14-.7 2.4-2.11 2.96-1.24.51-3.16.31-4.16-1.65-.91-1.76-.22-3.83 2.23-4.75ZM247.03 50.45c.49 1.34 0 2.85-1.32 3.33-1.61.58-2.9-.07-3.46-1.66-.45-1.13-.08-2.72 1.71-3.32 1.83-.61 2.77.86 3.07 1.66Zm-2.66-.36c-.33.04-1.08.45-.79 1.42.24.79.76 1.15 1.39.97.53-.16.78-.75.59-1.41-.22-.77-.65-1.04-1.19-.97ZM256.43 47.74c.29.98.51 1.94.65 3.09l-1.64.34c-.15-.83-.2-1.17-.45-2.21-.09-.36-.29-1.09-1.02-.89-.45.12-.56.58-.48 1.13.2 1.25.37 1.7.46 2.21l-1.67.36c-.18-1.03-.23-1.44-.46-2.16-.1-.31-.28-.97-.91-.77-.18.05-.57.28-.43 1.09.12.64.19.94.45 2.18l-1.42.3s-.78-3.97-1-4.91l1.51-.32.12.75c.16-.43.7-.92 1.31-1 .69-.07 1.13.25 1.39.73.07-.38.54-1.1 1.38-1.28 1.25-.27 1.98.54 2.22 1.38ZM258.38 49.08c-.63-1.49.02-3.32 1.73-3.63 1.04-.2 2.05.08 2.57.64-.37.67-.41.66-2.12 3.2 1.23.32 2.04-.71 2.1-1.92l.97.54c-.04 1.42-.84 2.48-2.23 2.71-1.2.21-2.5-.32-3.03-1.54Zm1.25-.49 1.5-1.86c-.38-.29-1.07-.2-1.44.14-.41.38-.61 1.21-.06 1.72M270.63 46.33s-.53-.13-1-.2v-1.12l1.25.04.06-1.37 1.43.14-.09 1.28 1.22.04-.04 1.09s-.93.06-1.34.03c-.12 1.95-.17 2.28.34 2.38.52.1.88-.45 1-.79l.77 1.05c-.49.79-1.19 1.31-2.14 1.15-1.75-.28-1.54-2.29-1.46-3.75ZM281.52 48.18c-.1 1.42-1.16 2.6-2.56 2.5-1.71-.13-2.62-1.25-2.48-2.94.05-1.21 1.04-2.52 2.92-2.33 1.91.19 2.18 1.92 2.12 2.77m-2.28-1.42c-.32-.1-1.17-.03-1.3.97-.11.82.22 1.36.87 1.45.55.07 1.01-.37 1.12-1.05.12-.79-.17-1.21-.69-1.38ZM291.51 47.59l-1.01 4.8s-.88-.11-1.62-.29c0 0 1.18-4.34 1.28-4.83 0 0-1.41-.46-1.88-.6l.31-1.31s3.9.92 5.18 1.27l-.45 1.37s-1.47-.3-1.8-.41ZM297.01 50.62c-.05.12-.07.28.08.46.41.47 1.71.89 1.62 2.02-.05.81-.71 1.69-2.04 1.49-1.39-.22-2.04-1.36-1.97-2.31l1.11-.28c.01.64.25 1.11.77 1.28.33.11.66-.05.76-.29.07-.18.06-.47-.3-.7-1.07-.7-1.38-1.08-1.35-1.73.04-.93.92-1.57 2.06-1.32 1.1.25 1.79 1.12 1.68 2.06l-1.13.14c.06-.45-.26-.89-.61-1.02-.29-.12-.58-.04-.69.18ZM302.16 51.01l1.39.61c-.68 1.34-1.81 3.07-.56 3.52.41.2 1.45-.03 2.31-2.75l1.4.55s-1.78 4.36-1.9 4.6l-1.26-.54s.41-.68.45-.78c0 0-.89.61-1.9.19-1.22-.5-1.88-1.82.06-5.4ZM312.65 56l-.85 1.52c-.28-.41-.54-.71-1.01-.92-.51-.22-.99-.31-1.46.25 0 0-.95 2.09-1.05 2.33l-1.52-.76s1.91-3.62 2.35-4.52l1.35.67-.72 1.13c.71-.7 1.71-.79 2.9.29ZM314.77 57.09l1.27.83c-.88 1.21-2.28 2.74-1.12 3.38.38.26 1.44.21 2.73-2.35l1.29.77s-2.46 4.02-2.61 4.23l-1.16-.73s.52-.61.57-.7c0 0-.97.46-1.9-.12-1.12-.69-1.56-2.1.93-5.31M321.11 62.41s-.42-.35-.82-.61l.48-1.01 1.12.59.65-1.21 1.22.75-.64 1.12 1.08.57-.51.97s-.86-.35-1.22-.56c-.96 1.71-1.14 1.98-.73 2.29.42.32.99-.01 1.24-.28l.23 1.28c-.79.5-1.64.66-2.42.11-1.45-1.01-.39-2.74.32-4.01M331.89 70.48c-.65.3-1.96.39-2.63-.93-.92.5-3.87-.06-3.59-2.76.17-1.63 1.86-2.78 3.41-2.14.68.29 1.06.71 1.2 1.05l.2-.67 1.67.66c-1.45 2.71-1.91 4.04-.26 4.8Zm-2.48-3.06c.14-.42.05-.95-.54-1.27-.62-.36-1.35-.01-1.55.73-.1.34 0 1.04.75 1.25.45.13 1.12.03 1.34-.71M342.09 68.27l-.77 4.84s-.89-.07-1.64-.21c0 0 .97-4.39 1.04-4.89 0 0-1.43-.39-1.91-.51l.25-1.33s3.94.73 5.24 1.02l-.39 1.39s-1.48-.23-1.82-.32ZM350.93 71.71c-.05 1.42-1.07 2.64-2.47 2.58-1.71-.07-2.66-1.16-2.58-2.85.01-1.21.95-2.55 2.84-2.43 1.92.13 2.24 1.84 2.21 2.7m-2.32-1.33c-.32-.09-1.17.01-1.27 1.02-.08.82.27 1.35.92 1.42.55.05 1-.4 1.08-1.08.09-.79-.21-1.21-.73-1.35ZM359.54 69.01l1.42.58s-1.53 3.55-2.43 4.78c0 0-.9-.69-1.73-2 0 0-.74 1.22-1.64 2.16 0 0-2.55-4.5-2.61-4.66l1.21-.64 1.79 3.37s.54-1.48 1.18-2.83c0 0 .98 1.49 1.49 2.48 0 0 .79-1.82 1.32-3.22ZM366.62 72.89s-.32-1.97-.52-2.37c-.19-.37-.55-.67-1.15-.52-.54.14-.88.61-.69 1.7.07.43.15.88.3 1.58l-1.62.34s-.82-4.12-.99-4.86l1.52-.3.11.96c.23-.74.94-1.15 1.67-1.23 2.03-.24 2.55 1.58 2.9 4.39l-1.53.32ZM371.29 69.42s-.91-2.25-1.64-4.3l1.38-.38s.8 3.05 1.18 4.29c-.22.12-.53.24-.92.39m.43 1.93-.3-1.19 1.13-.34.47 1c-.43.26-.69.37-1.29.53ZM4.58 47c.08.03.09.04.08.11-.08.41-.2.89-.36 1.24-.03.07-.03.07-.12.04l-.3-.13c-.09-.04-.09-.06-.05-.13l.05-.11H2.27v.29c0 .07 0 .07-.07.07h-.45c-.07 0-.07 0-.07-.07 0-.04.01-.18.01-.62v-1.91l-.2.2c-.07.07-.12.09-.15.09s-.05-.03-.07-.08a1 1 0 0 0-.22-.42c.62-.5 1-1.07 1.22-1.87h-.4v.51c0 .07 0 .08-.07.08h-.43c-.07 0-.07 0-.07-.08 0-.05.01-.11.01-.55v-.15c0-.16-.01-.24-.01-.29 0-.07 0-.07.07-.07.04 0 .24.01.79.01h.24l.04-.21a3 3 0 0 0 .05-.57c.24.02.41.05.57.07.08.02.12.04.12.09s-.02.07-.05.12c-.03.04-.05.13-.09.32l-.03.18h.29c.56 0 .74-.01.79-.01.07 0 .07 0 .07.07 0 .04-.01.13-.01.24v.18c0 .42.01.49.01.54 0 .07 0 .07-.07.07h-.43c-.07 0-.07 0-.07-.07v-.47h-.7c-.09.36-.23.7-.42 1.03h.41c.06-.1.1-.2.14-.28s.07-.19.09-.33c.16.04.39.1.51.12.06.01.08.04.08.07s-.02.05-.05.07c-.04.03-.07.06-.09.11l-.11.23h.03c.41 0 .53-.01.57-.01.07 0 .07 0 .07.08v.36c0 .07 0 .07-.07.07-.04 0-.16-.01-.57-.01h-.09v.43c.36 0 .49-.01.53-.01.07 0 .07 0 .07.07v.35c0 .07 0 .07-.07.07-.03 0-.17 0-.53-.01v.42c.37 0 .5-.01.53-.01.07 0 .07 0 .07.07v.36c0 .07 0 .07-.07.07-.03 0-.17 0-.53-.01v.49c.43 0 .57-.01.66-.01.05-.18.09-.35.13-.53.01-.07.03-.07.11-.05l.28.08Zm-1.73-1.35v-.43h-.57v.43zm0 .9v-.42h-.57v.42zm0 .96v-.49h-.57v.49zm2.41-.82c-.51 0-.76.01-.8.01-.07 0-.07 0-.07-.08 0-.04.01-.28.01-.82v-1.95c0-.53-.01-.76-.01-.8 0-.07 0-.07.07-.07.03 0 .19.01.62.01.05-.1.09-.18.11-.26.05-.13.07-.22.09-.38.23.03.45.05.62.08.06.01.12.04.12.08s-.02.07-.07.11c-.04.03-.05.07-.09.15l-.1.22h.34c.53 0 .71-.01.75-.01.07 0 .07 0 .07.07 0 .05-.01.18-.01.55v.85c0 .37.01.52.01.56 0 .07 0 .07-.07.07-.04 0-.22-.01-.75-.01H5.01v.29h1.41c.66 0 .89-.01.93-.01.07 0 .07 0 .07.08v.37c0 .07 0 .08-.07.08-.04 0-.26-.01-.93-.01H5.01v.3h1.52c.49 0 .64-.01.68-.01.06 0 .07.01.07.08l-.03.41c-.03.61-.09 1.12-.18 1.36-.12.41-.36.53-.82.53h-.34c-.11 0-.13-.02-.14-.18-.02-.2-.06-.34-.11-.43.19.02.3.03.49.03s.3-.03.34-.17c.05-.13.1-.46.13-1.11H5.25Zm-.34 1.5c-.08.02-.09.01-.09-.06 0-.37-.02-.72-.08-1.05-.01-.07 0-.09.07-.1l.26-.05c.07-.01.08-.01.09.06.05.32.09.68.09 1.02 0 .07 0 .09-.07.11l-.28.07Zm.09-4.7v.32h1.28v-.32zm1.28.77H5.01v.34h1.28zm-.65 2.6c.05-.01.07-.01.09.05.08.26.15.55.18.8 0 .07 0 .08-.06.1l-.24.09c-.09.03-.1.01-.11-.07-.03-.28-.09-.57-.16-.82-.01-.07 0-.08.08-.1l.22-.06Zm.49-.04c.06-.02.07-.01.11.05.07.15.17.37.21.55.02.07.01.09-.07.12l-.19.07c-.07.03-.08.03-.09-.05-.04-.19-.11-.42-.18-.59-.02-.07 0-.08.05-.1l.17-.05ZM8.82 48.45c-.07 0-.07 0-.07-.07 0-.05.01-.45.01-2.41v-1.3c0-1.3-.01-1.72-.01-1.77 0-.07 0-.07.07-.07.05 0 .28.01.92.01h3.41c.64 0 .87-.01.92-.01.07 0 .07 0 .07.07 0 .05-.01.46-.01 1.57v1.5c0 1.95.01 2.36.01 2.4 0 .07 0 .08-.07.08h-.58c-.07 0-.07 0-.07-.08V48H9.49v.38c0 .07 0 .07-.07.07h-.58Zm.66-3.37h1.59v-1.6H9.48zm1.59 2.28v-1.64H9.48v1.64zm.69-3.88v1.6h1.65v-1.6zm1.65 3.88v-1.64h-1.65v1.64zM18.88 45.45c0 1.62.01 1.92.01 1.96 0 .07 0 .07-.07.07h-.51c-.07 0-.07 0-.07-.07v-.29h-1.75v.5c0 .07 0 .07-.07.07h-.52c-.07 0-.07 0-.07-.07 0-.05.01-.37.01-2.06v-1.2c0-1.2-.01-1.55-.01-1.59 0-.07 0-.07.07-.07.05 0 .24.01.82.01h1.27c.58 0 .78-.01.82-.01.07 0 .07 0 .07.07 0 .04-.01.39-.01 1.59v1.09Zm-2.39-.87h.55v-1.27h-.55zm.54 1.94v-1.34h-.55v1.34zm.64-3.21v1.27h.57v-1.27zm.57 3.21v-1.34h-.57v1.34zM20 44.19c-.59 0-.79.01-.83.01-.07 0-.08 0-.08-.08v-.56c0-.07 0-.07.08-.07.04 0 .24.01.83.01h.84c.59 0 .79-.01.83-.01.07 0 .08 0 .08.07v.56c0 .07 0 .08-.08.08-.04 0-.24-.01-.76-.01v2.44c0 .4.02.78.02 1.07 0 .34-.05.52-.23.68-.16.13-.35.18-.95.18q-.2 0-.25-.22c-.05-.21-.13-.39-.2-.52.19.02.41.03.61.03.24 0 .3-.05.3-.26V44.2H20ZM24.15 46.49c.22-.09.43-.19.66-.31-.01.12-.01.28 0 .42.01.22.01.21-.18.31-.42.21-.9.41-1.35.57-.11.05-.2.08-.22.11-.03.03-.07.05-.11.05s-.07-.02-.1-.08c-.07-.18-.12-.37-.18-.6.22-.04.43-.09.67-.17l.16-.05v-1.92h-.05c-.44 0-.57.01-.62.01-.07 0-.07 0-.07-.07v-.51c0-.07 0-.07.07-.07.04 0 .18.01.62.01h.05v-.63c0-.45 0-.72-.05-.99.26 0 .47.02.7.05.07 0 .11.04.11.08 0 .05-.02.08-.04.13-.03.08-.04.25-.04.64v.72c.39 0 .51-.01.55-.01.06 0 .07 0 .07.07v.51c0 .07 0 .07-.07.07-.04 0-.17-.01-.55-.01v1.67Zm1.71.94c0 .18.03.26.13.3.09.05.3.07.97.07.73 0 .95-.03 1.09-.14.11-.1.14-.23.16-.77.14.08.29.16.49.22q.17.05.15.22c-.06.59-.14.77-.37.91-.23.15-.55.22-1.6.22-.92 0-1.26-.08-1.43-.19-.16-.1-.26-.3-.26-.67v-2.11c-.34.12-.49.18-.54.2-.07.02-.07.01-.09-.05l-.09-.53c-.01-.07 0-.07.05-.09.05-.01.23-.05.66-.2v-.74c0-.37 0-.69-.04-.96.23 0 .45.02.65.04.09.01.14.04.14.08 0 .05-.01.08-.04.14-.03.07-.04.22-.04.64v.58l.65-.22v-.98c0-.41-.01-.62-.05-.96.26 0 .47.02.69.05.07 0 .11.04.11.07 0 .05-.02.08-.04.14-.03.08-.04.25-.04.61v.85l.52-.18c.64-.21.84-.3.89-.3s.07.01.07.07l-.02.87c-.01.68-.07 1.18-.16 1.53-.1.39-.29.51-.58.51-.08 0-.16 0-.25-.01q-.15-.01-.18-.22c-.02-.15-.07-.35-.14-.49.14.03.26.05.36.05.11 0 .16-.03.2-.25.05-.26.07-.52.08-1.18l-.78.27v1.18c0 .68.01 1.01.01 1.05 0 .07 0 .07-.07.07h-.54c-.07 0-.07 0-.07-.07 0-.05.01-.37.01-1.05v-.95l-.65.22v2.14ZM31.21 46.56c.2-.07.39-.16.59-.26-.01.12-.02.26-.02.42q0 .22-.2.31c-.05.03-.11.05-.16.07.27 0 .46-.03.7-.08.49-.1 1.09-.24 1.71-.47-.02.13-.04.27-.05.41 0 .22 0 .23-.2.29-.48.17-1.03.31-1.54.43-.12.04-.2.06-.24.08-.05.03-.09.05-.14.05-.04 0-.07-.03-.1-.1-.05-.18-.1-.37-.14-.61-.33.14-.7.27-1.05.39-.11.04-.17.07-.2.1s-.07.05-.11.05c-.03 0-.07-.02-.09-.09-.05-.18-.1-.38-.14-.61.22-.03.38-.06.59-.12l.15-.04v-1.97h-.01c-.42 0-.55.01-.59.01-.06 0-.07 0-.07-.07v-.51c0-.07 0-.08.07-.08.05 0 .18.01.6.01v-.62c0-.48 0-.69-.05-1.03.25 0 .46.02.7.05.06 0 .1.04.1.08 0 .05-.01.09-.03.14-.03.08-.05.25-.05.75v.64c.34 0 .46-.01.5-.01.07 0 .07 0 .07.08v.51c0 .07 0 .07-.07.07-.04 0-.16 0-.5-.01v1.74Zm3.35-2.45c.03.73.09 1.38.18 1.91.11-.23.2-.47.28-.74.05-.2.12-.48.13-.69.2.05.41.13.58.2.08.04.11.06.11.12 0 .05-.03.08-.07.13-.05.05-.07.14-.15.37-.18.58-.4 1.06-.67 1.49.19.62.36.85.42.85.11 0 .16-.29.19-.87.09.1.24.19.34.25q.18.09.16.28c-.09.9-.29 1.15-.69 1.15-.28 0-.6-.29-.89-1.04-.34.38-.76.72-1.28 1.03-.09.05-.14.08-.18.08s-.07-.04-.14-.13a1.3 1.3 0 0 0-.39-.35c.76-.37 1.33-.82 1.75-1.35-.19-.72-.3-1.68-.35-2.68h-1.2c-.66 0-.88.01-.92.01-.07 0-.07 0-.07-.08v-.49c0-.07 0-.07.07-.07.04 0 .26.01.92.01h1.18v-.08c0-.45-.01-.64-.05-.97.24 0 .44.02.68.05.07 0 .11.04.11.08 0 .05-.01.09-.03.13-.03.07-.05.14-.05.47v.32h.39c.66 0 .89-.01.93-.01.07 0 .07 0 .07.07v.49c0 .07 0 .08-.07.08-.04 0-.27-.01-.93-.01h-.37Zm-1.48.5c.37 0 .47-.01.51-.01.07 0 .08 0 .08.07 0 .04-.01.18-.01.52v.61c0 .35.01.49.01.53 0 .07 0 .07-.08.07-.04 0-.15-.01-.51-.01h-.53c-.36 0-.47.01-.52.01-.07 0-.07 0-.07-.07 0-.05.01-.18.01-.53v-.61c0-.34-.01-.48-.01-.52 0-.07 0-.07.07-.07.05 0 .16.01.52.01zm.04.52h-.62v.72h.62zm2.09-2.61c.08-.03.08-.02.13.03.15.17.29.38.39.55.03.06.02.08-.07.12l-.29.13c-.09.05-.1.04-.13-.03-.1-.2-.22-.39-.37-.57-.05-.05-.03-.07.05-.11l.3-.13ZM37.36 44.26c.05-.07.07-.07.14-.03.33.18.66.41.96.69.03.03.04.04.04.05 0 .02-.01.04-.04.08l-.3.43s-.03.05-.05.05c-.01 0-.03-.01-.06-.04-.29-.28-.62-.53-.95-.74-.03-.02-.05-.03-.05-.05s.01-.05.04-.08l.28-.37Zm.07 3.31c.19-.37.43-.9.68-1.55.09.11.24.24.36.35.11.08.15.11.15.17 0 .04-.02.09-.05.16-.2.52-.43 1.04-.66 1.49-.05.1-.1.19-.11.26-.01.05-.04.09-.09.09-.03 0-.07-.02-.12-.05-.16-.1-.33-.21-.52-.37.14-.18.24-.31.36-.54Zm.2-5.03c.05-.06.07-.06.13-.03.34.19.65.43.94.7.03.02.04.04.04.06s-.01.04-.04.08l-.3.43s-.05.05-.06.05c-.02 0-.03-.01-.06-.03-.3-.29-.63-.57-.95-.76-.03-.02-.05-.03-.05-.05s.01-.04.05-.08l.31-.37Zm2.11 2.59c-.67 0-.9.01-.94.01-.07 0-.07 0-.07-.07v-.54c0-.06 0-.07.07-.07.04 0 .27.01.94.01h.79v-.88q-.585.09-1.17.15c-.22.02-.22.01-.28-.17-.05-.19-.12-.35-.19-.45 1.1-.07 2.29-.26 2.98-.48.18-.06.3-.11.44-.19.17.13.32.3.45.43.04.05.06.08.06.13 0 .04-.03.08-.09.09-.08 0-.18.01-.37.07-.32.11-.7.2-1.1.28v1.01h.89c.66 0 .89-.01.93-.01.06 0 .07 0 .07.07v.54c0 .07 0 .07-.07.07-.04 0-.27-.01-.93-.01h-.89v.87h.49c.62 0 .83-.01.88-.01.07 0 .07 0 .07.07 0 .04-.01.23-.01.68v.61c0 .93.01 1.11.01 1.15 0 .06 0 .07-.07.07h-.57c-.07 0-.07 0-.07-.07v-.23h-2.11v.26c0 .06 0 .07-.07.07h-.55c-.07 0-.08 0-.08-.07 0-.05.01-.22.01-1.16v-.53c0-.54-.01-.72-.01-.77 0-.07 0-.07.08-.07.04 0 .26.01.88.01h.41v-.87h-.79Zm.12 2.53h2.11v-1.05h-2.11zM44.74 43.89c.09.02.1.03.09.11-.03.55-.08 1.06-.22 1.48-.02.07-.03.05-.11.03l-.34-.13c-.09-.03-.09-.07-.07-.13.11-.37.19-.83.22-1.37 0-.07.01-.06.11-.04l.32.07Zm.27-.47c0-.48 0-.7-.05-1.02.26 0 .49.02.71.05.07 0 .11.04.11.07 0 .05-.01.08-.03.13-.03.09-.05.26-.05.75v3.93c0 .76.01 1.15.01 1.18 0 .07 0 .08-.07.08h-.56c-.07 0-.07 0-.07-.08 0-.03.01-.42.01-1.18v-3.91Zm1.05.12c.07-.03.09-.02.12.04.09.26.2.55.26.83.14-.37.26-.75.32-1.1.02-.12.04-.28.05-.49a5 5 0 0 1 .65.17c.09.03.11.06.11.09 0 .05-.01.06-.04.09a.44.44 0 0 0-.08.21q-.045.24-.12.51h.62v-.49c0-.48-.01-.69-.05-1.02.26 0 .51.02.74.05.07 0 .11.03.11.07 0 .05-.02.09-.03.14-.03.1-.05.26-.05.75v.51h.57c.6 0 .8-.01.84-.01.07 0 .07 0 .07.07v.52c0 .07 0 .07-.07.07-.04 0-.24-.01-.84-.01h-.57v1.18h.36c.61 0 .82-.01.86-.01.07 0 .07 0 .07.07v.53c0 .07 0 .07-.07.07-.04 0-.25-.01-.86-.01h-.36v1.33h.68c.66 0 .89-.01.93-.01.07 0 .07 0 .07.07v.52c0 .07 0 .08-.07.08-.04 0-.26-.01-.93-.01h-2.24c-.66 0-.89.01-.93.01-.07 0-.07 0-.07-.08v-.52c0-.07 0-.07.07-.07.03 0 .26.01.93.01h.85v-1.33h-.41c-.61 0-.81.01-.86.01-.07 0-.07 0-.07-.07v-.53c0-.07 0-.07.07-.07.05 0 .25.01.86.01h.41v-1.18h-.83c-.09.27-.21.54-.32.78-.05.1-.08.14-.12.14-.03 0-.07-.03-.13-.07-.16-.1-.34-.18-.49-.22.11-.18.22-.39.32-.62l-.28.1c-.09.03-.11.03-.12-.04-.05-.31-.14-.62-.24-.88-.03-.07-.02-.09.07-.12l.26-.09ZM52.36 45.96c0-.26 0-.57.01-.87-.2.26-.41.51-.6.7-.07.06-.11.1-.15.1s-.07-.05-.1-.15c-.05-.18-.16-.4-.26-.55.72-.64 1.22-1.37 1.56-2.28.06-.16.11-.32.14-.47.26.07.44.13.66.22.09.03.11.05.11.1s-.02.08-.06.12c-.05.04-.09.12-.17.29-.12.29-.26.59-.43.87v3.46c0 .65.01.99.01 1.03 0 .06 0 .07-.07.07h-.59c-.07 0-.08 0-.08-.07 0-.05.01-.37.01-1.03v-1.53Zm2.58 1.38c0 .24.04.33.19.39.12.04.3.05.67.05.34 0 .55-.04.7-.17.12-.09.18-.38.2-1.03.14.11.34.21.52.28.17.06.16.06.15.24-.05.66-.16.95-.39 1.12-.22.15-.63.23-1.22.23-.64 0-.96-.03-1.18-.14s-.36-.28-.36-.74V43.3c0-.38 0-.57-.04-.78.27 0 .49.02.72.05.09 0 .13.03.13.09s-.02.09-.04.13c-.03.06-.05.17-.05.46v1.69c.43-.27.83-.59 1.25-.99.14-.12.29-.3.4-.46.18.13.38.3.53.45.05.05.07.09.07.13s-.05.09-.11.11c-.07.03-.2.12-.35.26-.5.45-1.1.9-1.78 1.31v1.6ZM59.51 44.07c-.61 0-.82.01-.86.01-.07 0-.07 0-.07-.07v-.54c0-.07 0-.08.07-.08.04 0 .25.01.86.01h1.62v-.11c0-.38 0-.55-.05-.87.24 0 .53.02.77.05.06 0 .11.04.11.07 0 .05-.03.09-.05.14-.02.07-.04.18-.04.54v.18h1.72c.61 0 .82-.01.86-.01.07 0 .07 0 .07.08v.54c0 .07 0 .07-.07.07-.04 0-.25-.01-.86-.01h-1.72v.84h.99c.1 0 .16-.01.2-.03.03-.01.06-.03.09-.03.05 0 .1.04.27.21.16.15.21.23.21.29 0 .05-.03.08-.09.12-.06.05-.1.08-.16.18-.36.57-.77 1.05-1.24 1.44.68.38 1.5.61 2.51.76-.11.14-.22.35-.29.54-.05.14-.07.18-.14.18-.03 0-.08 0-.15-.02-1.04-.24-1.88-.55-2.56-1-.68.43-1.48.74-2.45.99q-.105.03-.15.03c-.07 0-.09-.05-.14-.18-.07-.19-.18-.37-.28-.48.99-.2 1.79-.45 2.44-.81-.45-.42-.81-.93-1.09-1.56-.46 0-.64.01-.67.01-.07 0-.07 0-.07-.07v-.52c0-.07 0-.07.07-.07.04 0 .26.01.92.01h1.05v-.84h-1.62Zm1.1 1.48c.26.47.57.84.93 1.15a4.3 4.3 0 0 0 1-1.15zM67.07 46.38c0 .65.02 1.01.02 1.34 0 .37-.05.55-.21.67-.15.12-.36.15-.78.15-.21 0-.22 0-.26-.2-.03-.21-.11-.38-.16-.49.15.02.26.02.58.02.09 0 .14-.04.14-.19v-1.34l-.26.08a.9.9 0 0 0-.24.12c-.03.03-.07.04-.11.04s-.07-.03-.09-.08c-.04-.18-.08-.4-.12-.64.2-.03.39-.06.63-.13l.19-.05v-1.31h-.12c-.42 0-.55.01-.58.01-.07 0-.07 0-.07-.07v-.49c0-.07 0-.07.07-.07.03 0 .16.01.58.01h.12v-.36c0-.43-.01-.65-.05-.96.24 0 .46.02.68.05.07 0 .11.05.11.07 0 .05-.03.1-.05.14-.04.08-.04.22-.04.68v.37c.34 0 .46-.01.51-.01.07 0 .07 0 .07.07v.49c0 .07 0 .07-.07.07-.05 0-.16-.01-.51-.01v1.08c.17-.06.34-.13.53-.21-.02.12-.03.32-.03.49s-.02.18-.14.24c-.11.05-.23.1-.35.15v.28Zm3.59-.25c.07 0 .11-.01.14-.03.03-.01.05-.02.09-.02.05 0 .11.04.24.18.12.13.17.2.17.26 0 .04-.03.07-.07.1-.05.03-.09.07-.18.2-.2.29-.41.54-.66.77.4.19.88.32 1.45.43-.08.1-.15.25-.21.42q-.07.2-.28.15c-.55-.14-1.03-.33-1.45-.59-.36.25-.78.45-1.28.61-.07.03-.12.04-.16.04-.06 0-.07-.05-.13-.16-.08-.16-.17-.27-.25-.36.52-.12.95-.29 1.31-.51-.21-.19-.41-.4-.58-.64a4.2 4.2 0 0 1-1.09 1.42c-.07.06-.11.1-.15.1s-.07-.04-.13-.12c-.11-.15-.2-.23-.32-.32.74-.55 1.23-1.34 1.46-2.3-.49 0-.69.01-.72.01-.07 0-.07 0-.07-.08v-.44c0-.07 0-.08.07-.08.04 0 .25.01.83.01l.03-.36c-.55 0-.76.01-.8.01-.07 0-.07 0-.07-.08v-.38c0-.07 0-.07.07-.07.04 0 .26.01.88.01h1.45c.15-.25.27-.5.37-.74.04-.12.08-.24.1-.37.23.05.43.1.6.16.05.02.09.06.09.1s-.03.07-.06.1c-.05.03-.07.07-.11.13-.11.21-.19.38-.32.61.44 0 .62-.01.66-.01.07 0 .07 0 .07.07v.38c0 .07 0 .08-.07.08-.05 0-.26-.01-.89-.01h-1.31c-.01.13-.03.25-.05.36h1.46c.64 0 .86-.01.9-.01.06 0 .07 0 .07.08v.44c0 .07 0 .08-.07.08-.04 0-.26-.01-.9-.01h-1.56c-.03.13-.06.25-.09.37h1.53Zm.81-3.37s.07.07.07.12-.05.08-.14.08c-.07 0-.18.02-.3.04-.84.16-1.95.28-2.87.35-.22.01-.24.02-.3-.18-.05-.13-.13-.28-.2-.37 1.07 0 2.08-.1 2.9-.27.16-.03.28-.08.38-.13.16.1.36.28.45.37Zm-2.96.62c.09-.03.1-.03.14.03.14.19.22.37.31.57.03.07.02.08-.07.12l-.37.15c-.09.04-.11.04-.13-.04-.07-.22-.16-.39-.28-.58-.05-.06-.04-.07.05-.1l.36-.14Zm.67 3.23c.2.27.42.49.68.67.22-.2.41-.42.56-.67zm.5-2.41c-.09.04-.11.04-.14-.04-.07-.23-.18-.45-.29-.65-.03-.05 0-.07.09-.1l.3-.12c.09-.04.12-.03.15.03.14.21.23.4.31.62.02.06.01.08-.07.12l-.36.15ZM74.72 44.09c0-.54-.01-.81-.09-1.19.34.03.66.07.87.13.09.02.13.06.13.12 0 .03-.01.07-.04.11-.07.14-.09.29-.09.6v.7l1.76-.41c.3-.07.36-.1.48-.2a.14.14 0 0 1 .09-.04c.03 0 .06.01.09.04.14.09.36.28.5.44q.06.06.06.12c0 .05-.03.09-.09.13-.09.07-.15.17-.21.26-.34.58-.68 1.07-1.07 1.46-.06.06-.11.1-.18.1-.04 0-.08-.01-.13-.05-.2-.12-.37-.2-.56-.26.47-.41.8-.86 1.1-1.35l-1.86.47v1.53c0 .36.12.47.85.47.55 0 1.18-.07 1.64-.15.09-.01.1.03.11.13.03.18.06.38.06.57 0 .07-.04.1-.14.1-.41.05-.87.08-1.62.08-1.29 0-1.69-.28-1.69-1.19v-1.37l-.43.12c-.37.09-.74.2-.95.29-.03.01-.06.03-.08.03-.05 0-.07-.03-.11-.11-.09-.18-.2-.47-.27-.69.43-.05.81-.12 1.27-.24l.57-.14v-.65ZM81.03 43.33s.06-.05.09-.05.05.01.09.03c.34.18.91.6 1.29.96q.06.06.06.09c0 .03-.01.05-.04.09-.1.13-.32.41-.42.51-.03.03-.05.05-.08.05s-.05-.02-.09-.05c-.41-.42-.89-.8-1.38-1.1.15-.18.34-.39.47-.53Zm.59 3.56c.82-.43 1.26-.71 1.95-1.26.82-.67 1.28-1.1 1.85-1.84.04.34.1.57.19.79.02.05.03.09.03.13 0 .06-.03.12-.11.2-.36.42-.94.96-1.55 1.43-.56.44-1.13.82-2.04 1.32-.3.18-.39.25-.45.31-.04.04-.08.07-.12.07-.03 0-.07-.03-.11-.07-.17-.19-.38-.47-.54-.75.34-.1.55-.16.91-.34ZM91.46 43.57c.2 0 .28-.05.37-.1.05-.03.08-.05.11-.05s.07.02.12.05c.15.09.34.27.46.41.04.04.05.08.05.12s-.02.08-.07.13a.7.7 0 0 0-.2.26c-.29.58-.61 1.13-.99 1.64.28.22.53.46.73.68.03.03.04.06.04.09s-.01.06-.04.09c-.09.12-.3.33-.42.43-.03.02-.05.03-.08.03-.02 0-.05-.01-.07-.04-.16-.19-.43-.46-.66-.66-.69.74-1.39 1.27-2.16 1.69-.06.03-.11.06-.17.06-.04 0-.08-.02-.13-.06-.22-.18-.41-.26-.64-.34 1.05-.54 1.72-1.02 2.49-1.83-.26-.21-.56-.42-.97-.64.15-.16.29-.34.45-.48.03-.03.05-.05.09-.05.02 0 .04.01.07.03.24.12.54.31.87.54.32-.42.57-.86.79-1.34l-1.68.03c-.55.71-.99 1.18-1.45 1.52-.05.03-.09.06-.14.06-.03 0-.07-.01-.11-.05-.17-.12-.34-.22-.57-.31.95-.75 1.45-1.37 1.91-2.12.22-.37.3-.55.37-.83.23.08.58.2.79.33.05.03.07.07.07.11 0 .05-.03.1-.08.13-.06.04-.11.1-.14.14-.05.09-.09.16-.21.34l1.19-.03ZM95.93 45.98c-.67 0-.93.08-.99.08-.08 0-.14-.04-.16-.14-.03-.15-.07-.47-.1-.82.44.07.78.08 1.46.08h2.18c.51 0 1.03-.01 1.55-.02.1 0 .12.01.12.09.01.2.01.43 0 .63 0 .08-.03.11-.12.1-.51 0-1.01-.01-1.51-.01h-2.43Z" class="cls-3"/><path id="_パス_7943" d="M.76 53.49h4.17c.38.02.67.35.65.73.02.38-.27.71-.65.74H3.52v6.43c.02.38-.27.71-.65.73a.7.7 0 0 1-.66-.73v-6.43H.76a.71.71 0 0 1-.65-.74c-.02-.38.27-.71.65-.73" class="cls-6" data-name="パス_7943"/><path id="_パス_7944" d="M11.05 62.12c-.37 0-.73-.17-.97-.45l-.48-.54c-.25-.31-.39-.69-.4-1.09v-.52c-.02-.38.27-.71.65-.73a.7.7 0 0 1 .66.73l-.01.16c.01.46.05.44.36.79.11.09.23.15.37.18h1.37c.14 0 .27-.06.36-.17q.12-.105.21-.24c.1-.11.16-.26.15-.4v-.47c0-.39-.19-.48-.47-.58l-2.74-1.01c-.55-.16-.9-.7-.82-1.27v-.95c0-.4.14-.79.4-1.09l.5-.53c.25-.28.61-.45.98-.45h1.56c.39 0 .75.17 1.01.45l.47.53c.27.3.42.69.4 1.09v.41c.04.36-.22.69-.58.73a.66.66 0 0 1-.73-.58v-.34c0-.15-.06-.29-.15-.4l-.21-.24a.48.48 0 0 0-.37-.17c-.35 0-.93-.01-1.3-.01-.14 0-.27.05-.35.17-.04.07-.11.12-.21.25-.1.11-.15.27-.13.42v.4c0 .14.08.26.21.32l3.08 1.17c.43.2.72.62.75 1.09v1.29c0 .4-.14.79-.4 1.09l-.48.54c-.24.28-.59.44-.96.45h-1.74Z" class="cls-6" data-name="パス_7944"/><path id="_パス_7945" d="M20.37 62.12c-.38 0-.73-.16-.97-.45l-.48-.53c-.26-.3-.4-.69-.4-1.09v-5.83c-.02-.38.28-.71.67-.73.38.02.67.35.65.73v5.63c0 .15.05.29.15.4l.21.24c.09.11.22.17.36.17h1.51c.14 0 .27-.06.36-.17l.21-.24c.1-.11.15-.26.15-.4v-5.63a.7.7 0 0 1 .66-.73c.38.02.67.35.65.73v5.83c0 .4-.14.78-.4 1.09l-.48.53c-.24.29-.6.45-.97.45h-1.87Z" class="cls-6" data-name="パス_7945"/><path id="_パス_7946" d="M39.32 62.12c-.38 0-.73-.16-.97-.45l-.48-.53c-.26-.3-.4-.69-.4-1.09v-5.83a.7.7 0 0 1 .66-.73c.38.02.67.35.65.73v5.63c0 .15.05.29.15.4l.21.24c.09.11.22.17.36.17h1.51c.14 0 .27-.06.36-.17l.21-.24c.1-.11.15-.26.15-.4v-5.63c-.04-.36.22-.69.59-.73.36-.04.69.22.73.59v5.97c0 .4-.14.79-.4 1.09l-.48.53c-.24.29-.6.45-.97.45h-1.87Z" class="cls-6" data-name="パス_7946"/><path id="_パス_7947" d="M47.56 53.49h4.17c.38.02.67.35.65.73.02.38-.27.71-.65.74h-1.42v6.43c.02.38-.27.71-.65.73a.7.7 0 0 1-.66-.73v-6.43h-1.44a.71.71 0 0 1-.65-.74c-.02-.38.27-.71.65-.73" class="cls-6" data-name="パス_7947"/><path id="_パス_7948" d="m59.04 54.15 2.24 6.96c.13.37-.04.78-.39.95a.65.65 0 0 1-.83-.4c0-.02-.01-.03-.02-.05l-.33-1.06h-2.97l-.37 1.08c-.08.34-.43.55-.78.47-.02 0-.04-.01-.06-.02a.755.755 0 0 1-.4-.93l2.24-6.99a.91.91 0 0 1 .84-.66c.39.02.73.28.83.66Zm.22 4.93-1.03-3.24-1.01 3.24h2.05Z" class="cls-6" data-name="パス_7948"/><path id="_パス_7949" d="M70.32 62.12c-.59-.04-1.03-.54-1-1.12v-6.77c-.05-.36.21-.69.57-.74s.69.21.74.57v6.6h2.35c.4.04.7.41.65.81-.04.34-.31.61-.65.65h-2.65Z" class="cls-6" data-name="パス_7949"/><path id="_パス_7950" d="m81.41 54.15 2.24 6.96c.13.37-.04.78-.39.95a.65.65 0 0 1-.83-.4c0-.02-.01-.03-.02-.05l-.33-1.06h-2.97l-.37 1.08c-.08.34-.43.55-.78.47-.02 0-.04-.01-.06-.02a.755.755 0 0 1-.4-.93l2.24-6.99a.92.92 0 0 1 .84-.66c.39.02.73.28.84.66Zm.21 4.99-1.03-3.3-1.01 3.3h2.05Z" class="cls-6" data-name="パス_7950"/><path id="_パス_7951" d="M102.3 60.05c0 .4-.14.79-.4 1.09l-.47.53c-.24.28-.6.45-.97.45h-1.88c-.38 0-.73-.16-.97-.45l-.47-.53c-.26-.3-.4-.69-.4-1.09v-4.5c0-.4.14-.79.4-1.09l.47-.53c.24-.28.6-.45.97-.45h1.88c.38 0 .73.16.97.45l.47.53c.26.3.4.69.4 1.09zm-1.31-4.28c0-.15-.05-.3-.15-.42l-.21-.24a.53.53 0 0 0-.36-.17h-1.52c-.14 0-.27.07-.36.17l-.21.24q-.15.18-.15.42v4.07c0 .15.05.3.15.42l.21.24c.09.1.22.16.36.17h1.52c.14 0 .27-.07.36-.17l.21-.24q.15-.18.15-.42z" class="cls-6" data-name="パス_7951"/><path id="_パス_7952" d="m33.68 60.98-1.19-2.47.69-.66c.26-.3.4-.69.4-1.09v-1.2c0-.4-.14-.79-.4-1.09l-.47-.54c-.24-.29-.6-.45-.97-.44h-2.66c-.59.03-1.04.53-1.01 1.12v6.74c-.02.34.2.65.53.75.37.06.72-.19.78-.56 0-.05.01-.11 0-.16v-6.45h2.17c.14 0 .27.06.36.17l.2.23c.1.12.16.27.16.42v.79c0 .15-.05.29-.15.4l-.21.24a.46.46 0 0 1-.36.17h-.82c-.38.02-.67.35-.65.73-.02.38.27.71.65.73h.44l1.37 2.86a.622.622 0 0 0 .89.29c.32-.22.43-.65.26-1Z" class="cls-6" data-name="パス_7952"/><path id="_パス_7953" d="m92.36 57.89-.3-.25s.14-.14.29-.26c.22-.2.34-.48.34-.77v-1.38c.01-.38-.18-.74-.49-.95l-.89-.57a1.25 1.25 0 0 0-.7-.21h-2.02c-.56 0-1 .51-1 1.34v6.38c.06.51.49.9 1 .91h2.21c.27 0 .52-.09.74-.24l.79-.55c.31-.22.5-.58.49-.97v-1.45c0-.39-.17-.77-.46-1.02Zm-.85 2.04c0 .15-.06.29-.18.37l-.38.27c-.09.06-.19.09-.29.09h-1.77v-5.72h1.62c.1 0 .2.03.28.09l.41.28c.11.08.18.22.18.36v.46c0 .15-.06.29-.17.39l-.37.34c-.09.08-.21.13-.33.14h-.28c-.38.02-.67.35-.65.73-.02.38.27.71.65.73h.43c.12 0 .23.05.32.12l.35.29c.11.1.17.24.17.38v.68Z" class="cls-6" data-name="パス_7953"/><path id="_パス_7943-2" d="M.76 53.49h4.17c.38.02.67.35.65.73.02.38-.27.71-.65.74H3.52v6.43c.02.38-.27.71-.65.73a.7.7 0 0 1-.66-.73v-6.43H.76a.71.71 0 0 1-.65-.74c-.02-.38.27-.71.65-.73" class="cls-3" data-name="パス_7943"/><path id="_パス_7944-2" d="M11.05 62.12c-.37 0-.73-.17-.97-.45l-.48-.54c-.25-.31-.39-.69-.4-1.09v-.52c-.02-.38.27-.71.65-.73a.7.7 0 0 1 .66.73l-.01.16c.01.46.05.44.36.79.11.09.23.15.37.18h1.37c.14 0 .27-.06.36-.17q.12-.105.21-.24c.1-.11.16-.26.15-.4v-.47c0-.39-.19-.48-.47-.58l-2.74-1.01c-.55-.16-.9-.7-.82-1.27v-.95c0-.4.14-.79.4-1.09l.5-.53c.25-.28.61-.45.98-.45h1.56c.39 0 .75.17 1.01.45l.47.53c.27.3.42.69.4 1.09v.41c.04.36-.22.69-.58.73a.66.66 0 0 1-.73-.58v-.34c0-.15-.06-.29-.15-.4l-.21-.24a.48.48 0 0 0-.37-.17c-.35 0-.93-.01-1.3-.01-.14 0-.27.05-.35.17-.04.07-.11.12-.21.25-.1.11-.15.27-.13.42v.4c0 .14.08.26.21.32l3.08 1.17c.43.2.72.62.75 1.09v1.29c0 .4-.14.79-.4 1.09l-.48.54c-.24.28-.59.44-.96.45h-1.74Z" class="cls-3" data-name="パス_7944"/><path id="_パス_7945-2" d="M20.37 62.12c-.38 0-.73-.16-.97-.45l-.48-.53c-.26-.3-.4-.69-.4-1.09v-5.83c-.02-.38.28-.71.67-.73.38.02.67.35.65.73v5.63c0 .15.05.29.15.4l.21.24c.09.11.22.17.36.17h1.51c.14 0 .27-.06.36-.17l.21-.24c.1-.11.15-.26.15-.4v-5.63a.7.7 0 0 1 .66-.73c.38.02.67.35.65.73v5.83c0 .4-.14.78-.4 1.09l-.48.53c-.24.29-.6.45-.97.45h-1.87Z" class="cls-3" data-name="パス_7945"/><path id="_パス_7946-2" d="M39.32 62.12c-.38 0-.73-.16-.97-.45l-.48-.53c-.26-.3-.4-.69-.4-1.09v-5.83a.7.7 0 0 1 .66-.73c.38.02.67.35.65.73v5.63c0 .15.05.29.15.4l.21.24c.09.11.22.17.36.17h1.51c.14 0 .27-.06.36-.17l.21-.24c.1-.11.15-.26.15-.4v-5.63c-.04-.36.22-.69.59-.73.36-.04.69.22.73.59v5.97c0 .4-.14.79-.4 1.09l-.48.53c-.24.29-.6.45-.97.45h-1.87Z" class="cls-3" data-name="パス_7946"/><path id="_パス_7947-2" d="M47.56 53.49h4.17c.38.02.67.35.65.73.02.38-.27.71-.65.74h-1.42v6.43c.02.38-.27.71-.65.73a.7.7 0 0 1-.66-.73v-6.43h-1.44a.71.71 0 0 1-.65-.74c-.02-.38.27-.71.65-.73" class="cls-3" data-name="パス_7947"/><path id="_パス_7948-2" d="m59.04 54.15 2.24 6.96c.13.37-.04.78-.39.95a.65.65 0 0 1-.83-.4c0-.02-.01-.03-.02-.05l-.33-1.06h-2.97l-.37 1.08c-.08.34-.43.55-.78.47-.02 0-.04-.01-.06-.02a.755.755 0 0 1-.4-.93l2.24-6.99a.91.91 0 0 1 .84-.66c.39.02.73.28.83.66Zm.22 4.93-1.03-3.24-1.01 3.24h2.05Z" class="cls-3" data-name="パス_7948"/><path id="_パス_7949-2" d="M70.32 62.12c-.59-.04-1.03-.54-1-1.12v-6.77c-.05-.36.21-.69.57-.74s.69.21.74.57v6.6h2.35c.4.04.7.41.65.81-.04.34-.31.61-.65.65h-2.65Z" class="cls-3" data-name="パス_7949"/><path id="_パス_7950-2" d="m81.41 54.15 2.24 6.96c.13.37-.04.78-.39.95a.65.65 0 0 1-.83-.4c0-.02-.01-.03-.02-.05l-.33-1.06h-2.97l-.37 1.08c-.08.34-.43.55-.78.47-.02 0-.04-.01-.06-.02a.755.755 0 0 1-.4-.93l2.24-6.99a.92.92 0 0 1 .84-.66c.39.02.73.28.84.66Zm.21 4.99-1.03-3.3-1.01 3.3h2.05Z" class="cls-3" data-name="パス_7950"/><path id="_パス_7951-2" d="M102.3 60.05c0 .4-.14.79-.4 1.09l-.47.53c-.24.28-.6.45-.97.45h-1.88c-.38 0-.73-.16-.97-.45l-.47-.53c-.26-.3-.4-.69-.4-1.09v-4.5c0-.4.14-.79.4-1.09l.47-.53c.24-.28.6-.45.97-.45h1.88c.38 0 .73.16.97.45l.47.53c.26.3.4.69.4 1.09zm-1.31-4.28c0-.15-.05-.3-.15-.42l-.21-.24a.53.53 0 0 0-.36-.17h-1.52c-.14 0-.27.07-.36.17l-.21.24q-.15.18-.15.42v4.07c0 .15.05.3.15.42l.21.24c.09.1.22.16.36.17h1.52c.14 0 .27-.07.36-.17l.21-.24q.15-.18.15-.42z" class="cls-3" data-name="パス_7951"/><path id="_パス_7952-2" d="m33.68 60.98-1.19-2.47.69-.66c.26-.3.4-.69.4-1.09v-1.2c0-.4-.14-.79-.4-1.09l-.47-.54c-.24-.29-.6-.45-.97-.44h-2.66c-.59.03-1.04.53-1.01 1.12v6.74c-.02.34.2.65.53.75.37.06.72-.19.78-.56 0-.05.01-.11 0-.16v-6.45h2.17c.14 0 .27.06.36.17l.2.23c.1.12.16.27.16.42v.79c0 .15-.05.29-.15.4l-.21.24a.46.46 0 0 1-.36.17h-.82c-.38.02-.67.35-.65.73-.02.38.27.71.65.73h.44l1.37 2.86a.622.622 0 0 0 .89.29c.32-.22.43-.65.26-1Z" class="cls-3" data-name="パス_7952"/><path id="_パス_7953-2" d="m92.36 57.89-.3-.25s.14-.14.29-.26c.22-.2.34-.48.34-.77v-1.38c.01-.38-.18-.74-.49-.95l-.89-.57a1.25 1.25 0 0 0-.7-.21h-2.02c-.56 0-1 .51-1 1.34v6.38c.06.51.49.9 1 .91h2.21c.27 0 .52-.09.74-.24l.79-.55c.31-.22.5-.58.49-.97v-1.45c0-.39-.17-.77-.46-1.02Zm-.85 2.04c0 .15-.06.29-.18.37l-.38.27c-.09.06-.19.09-.29.09h-1.77v-5.72h1.62c.1 0 .2.03.28.09l.41.28c.11.08.18.22.18.36v.46c0 .15-.06.29-.17.39l-.37.34c-.09.08-.21.13-.33.14h-.28c-.38.02-.67.35-.65.73-.02.38.27.71.65.73h.43c.12 0 .23.05.32.12l.35.29c.11.1.17.24.17.38v.68Z" class="cls-3" data-name="パス_7953"/></g></svg>