<svg xmlns="http://www.w3.org/2000/svg" xmlns:xlink="http://www.w3.org/1999/xlink" width="71.31" height="38.383" viewBox="0 0 71.31 38.383"><defs><clipPath id="a"><rect width="71.31" height="38.383" fill="#fff"/></clipPath></defs><g transform="translate(0)"><g transform="translate(0)" clip-path="url(#a)"><path d="M14.093,33.07l2.47-2.69.294-.318A112.3,112.3,0,0,1,5.33,27.99l.183.441,3.845,9.257a.255.255,0,0,0,.425.072l4.31-4.692Z" transform="translate(49.123 0)" fill="#407b3e"/><path d="M27.183,30.183,29.826,27.9l.451-.389c-3.857-.974-7.656-2.143-11.43-3.5l.192.68,2.772,9.661a.255.255,0,0,0,.412.122l4.96-4.292Z" transform="translate(22.186 0)" fill="#fff"/><path d="M40.045,25.436l2.709-1.853s.19-.131.5-.339q-2.778-1.047-5.543-2.222-2.713-1.154-5.344-2.4l.1.586,1.654,9.849a.255.255,0,0,0,.293.21.258.258,0,0,0,.1-.042Z" transform="translate(-4.303 0)" fill="#407b3e"/><path d="M51.871,19.694,55.1,17.981l.614-.326c-3.594-1.771-7.072-3.687-10.449-5.778l.032.573.548,10.039a.255.255,0,0,0,.374.212l5.655-3.007Z" transform="translate(-29.665 0)" fill="#fff"/><path d="M65.612,11.536l1.533-.6.423-.164a112.251,112.251,0,0,1-9.478-6.828c-.015.252-.022.4-.022.4l-.6,10.007a.256.256,0,0,0,.236.272.261.261,0,0,0,.111-.016Z" transform="translate(-53.724 0)" fill="#407b3e"/><path d="M32.092,19.318c.083.493.165.479.248.972s.132.486.216.981-.008.509.075,1,.394.442.477.936-.264.551-.181,1.043.1.493.18.988-.036.515.048,1.011.643.4.727.9-.3.558-.228,1.057a5.255,5.255,0,0,0,.352,1.143c.207.445.586.4,1.031.192.06-.028.072-.057.124-.1.148-.091.385-.037.525-.134.422-.291.408-.311.831-.6s.533-.135.958-.426.439-.272.865-.564.369-.376.8-.669.265-.529.692-.822.521-.18.959-.481.4-.351.844-.652.579-.1,1.019-.4.506-.206.946-.508a.909.909,0,0,0,.23-1.1c-.185-.24-.667-.143-.988.076-.45.309-.4.38-.851.688s-.567.137-1.016.445-.327.485-.776.793-.677-.026-1.125.282-.25.6-.7.91-.537.183-.989.493-.6.09-1.056.4-.175.714-.628,1.024c-.343.235-.36.216-.708.444-.121.059-.037-.115-.135-.024.172.109.073.488.271.535a2.92,2.92,0,0,0-.152-.314c-.054-.314.111-.343.059-.657-.083-.5-.2-.481-.285-.981s.083-.531,0-1.034-.162-.491-.247-1-.264-.474-.349-.98-.033-.514-.118-1.019-.2-.481-.287-.983-.023-.513-.108-1.015.391-.584.306-1.088-.389-.452-.474-.956a.684.684,0,0,0-.7-.592.655.655,0,0,0-.575.734c-.018.08-.1.042-.1.042" transform="translate(-4.706 0)" fill="#0d4b08"/><path d="M18.611,24.9c.138.482-.092.548.046,1.031s.3.438.438.921.283.442.421.925.238.456.377.939-.1.551.035,1.033-.132.562.007,1.046.3.438.441.923.476.39.615.876-.208.584-.077,1.072c.077.348.4.615.528.948.215.434.581.475,1.016.26.067-.033.156.024.212-.025.138-.11.262-.235.395-.351.388-.335.347-.383.735-.718s.58-.118.97-.455.249-.5.64-.84.425-.3.817-.638.407-.321.8-.66c.406-.351.228-.556.633-.907s.559-.174.964-.525.242-.543.649-.9.707,0,1.118-.35a.86.86,0,0,0,.084-1.031.723.723,0,0,0-.942-.1c-.378.313-.432.251-.8.572s-.166.561-.538.883-.6.055-.973.376-.362.332-.733.653-.45.229-.82.55,0,.751-.374,1.074-.635.02-1.008.342-.287.425-.661.748-.215.508-.589.832c-.333.289-.322.3-.653.59-.072.069-.337-.2-.421-.143.156.011.139-.057.295-.065.334.005.275.442.254.261a1.447,1.447,0,0,0-.035-.209c-.1-.346-.2-.318-.3-.664-.165-.572-.44-.493-.6-1.065s-.025-.613-.19-1.185c-.149-.521-.206-.5-.355-1.025s.085-.59-.064-1.113-.039-.555-.188-1.079-.047-.555-.2-1.081-.472-.433-.623-.958c-.17-.6-.238-.573-.423-1.164-.128-.313-.325-.544-.639-.42s-.283.422-.165.736c.012.022-.115.076-.115.076" transform="translate(22.095 0)" fill="#0d4b08"/><path d="M5.326,28.653c.192.462.409.371.6.833s-.057.567.136,1.03.064.515.256.978.39.379.582.841.065.515.256.976.55.315.743.779.05.524.242.988.313.416.507.882-.136.6.044,1.071c.119.394.516.633.73.984.314.38.7.5,1.076.19.05-.041-.095-.25-.055-.3.116-.122.582.071.7-.054.345-.377.268-.447.614-.824s.265-.455.613-.834.147-.563.5-.943.686-.071,1.035-.452.393-.34.742-.72c.364-.4.232-.517.6-.913s.308-.449.672-.845.542-.236.907-.634.251-.5.608-.909c.207-.266.067-.565-.195-.776s-.4-.106-.611.153c-.324.362-.515.191-.844.549s-.537.168-.867.527-.2.474-.533.832-.071.595-.4.953-.6.108-.929.466-.157.518-.487.878-.252.432-.583.792-.4.294-.735.655-.327.366-.659.727c-.28.305-.229.356-.516.655-.1.083-.419.145-.495.255.2.057.485-.079.689-.088,0-.038-.055,0-.066-.032-.122-.294-.1-.3-.223-.6-.2-.474-.448-.37-.644-.844s.019-.566-.179-1.042-.431-.381-.629-.858.232-.657.034-1.135-.276-.447-.474-.925-.24-.449-.435-.917-.109-.5-.3-.972-.487-.349-.682-.818.13-.605-.066-1.075a.866.866,0,0,0-.994-.392c-.285.114-.687.648-.535,1.014l.133-.381c.009,0,.132.272.132.272" transform="translate(48.76 0)" fill="#0d4b08"/><path d="M55.447,17.233c-.433.231-.207.654-.64.884s-.529.053-.964.284-.388.315-.822.546-.377.336-.81.566-.6-.08-1.03.15-.273.536-.708.767-.651-.172-1.086.059-.255.574-.692.806-.648-.164-1.085.068c-.39.207-.328.323-.719.529-.07.032-.119.117-.185.157-.169.121-.094.011.11.214.1.119.422-.193.534-.084-.015-.084-.082.043-.083-.042-.018-.361-.439-.339-.458-.7-.033-.594.167-.6.135-1.2s.166-.6.134-1.2c-.03-.541-.127-.535-.157-1.076s.222-.557.192-1.1-.338-.527-.368-1.071.185-.558.154-1.1-.492-.521-.522-1.066c-.034-.619.225-.633.18-1.251-.046-.33-.293-.313-.625-.279s-.612.1-.576.433c.034.5-.111.509-.084,1.01s.242.491.269.994-.111.509-.084,1.011.414.482.441.985-.128.508-.1,1.009.157.5.184,1-.343.524-.316,1.028.3.491.323,1-.1.513-.081,1.019c0,.355.267.661.313,1.013.1.472.305,1,.776.9.077-.016.147-.151.216-.187.159-.076.263-.266.418-.35.453-.241.325-.481.778-.722s.67.162,1.126-.081.484-.19.94-.432.374-.4.831-.645.422-.31.879-.553c.473-.252.586-.041,1.058-.292s.4-.4.869-.652.4-.385.879-.638.426-.354.9-.6c.306-.135.578-.287.461-.6s-.613-.736-.927-.612l.228.22c-.046-.09-.209-.117-.21-.117" transform="translate(-30.342 0)" fill="#0d4b08"/><path d="M67.583,10.513c-.452.178-.491.079-.943.256s-.57-.117-1.024.062-.3.562-.755.739-.6-.187-1.049-.009-.472.126-.924.3-.318.524-.772.7-.528-.006-.983.173-.358.429-.814.608-.407.307-.863.485c-.385.151-.388.145-.774.3-.1.038-.579-.135-.657-.062.135.154.545.019.723.122.01-.048.152.13.148.081.016-.318-.083-.322-.064-.64.031-.512.233-.5.264-1.012s0-.516.033-1.031-.124-.524-.094-1.04-.2-.531-.169-1.047.346-.5.377-1.015-.449-.535-.418-1.04.232-.494.262-1-.065-.514-.035-1.022-.094-.518-.058-1.026c.037-.333.105-.674-.226-.726s-.365.274-.413.608c-.04.5-.486.465-.516.964s.356.524.326,1.024-.479.473-.509.972.1.508.069,1.008.022.5-.008,1-.154.493-.184.994.452.53.422,1.032-.487.475-.517.978.4.536.358,1.038a5.88,5.88,0,0,0-.256,1.2c.091.482.515.938,1,.846.067-.012.121-.13.183-.158.159-.057.407.111.564.05.476-.186.363-.474.839-.661s.557.012,1.036-.176.31-.62.789-.808.572.043,1.053-.146.394-.408.875-.6c.5-.2.6.055,1.1-.142s.552-.068,1.053-.265.424-.4.927-.594.553-.07,1.056-.267c.369-.145.121-.455,0-.74s-.017-.5-.385-.352c-.057.054-.049.033-.049.033" transform="translate(-54.333 0)" fill="#0d4b08"/><path d="M.246.917C.5,1.142.395,1.78.653,2s.53.43.789.65.753.162,1.015.38.631.3.895.516.213.817.478,1.03.7.21.97.421.525.432.794.64.568.375.839.581.652.262.925.465.216.853.491,1.054.629.294.9.492.5.473.778.669.639.277.919.47.717.156,1,.347.625.285.909.473.348.7.632.882.487.492.772.674.727.114,1.014.293.573.357.86.533.683.176.972.35.536.416.826.588.477.521.769.69.739.068,1.032.235.533.426.828.591.538.42.834.583.442.6.739.762.79-.046,1.089.112.416.661.716.816.578.359.879.511.771-.028,1.073.122.523.479.829.628.729.057,1.036.2.671.17.979.315.612.293.921.436.424.709.734.85.792-.1,1.1.035.449.668.761.8.666.178.979.312.549.454.863.586.641.236.955.366.69.113,1.006.241.718.038,1.034.163.52.542.837.665.807-.2,1.125-.084.565.429.884.547.663.142.979.257.671.115.988.227.518.555.836.664.746-.108,1.065,0,.493.647.813.751.758-.16,1.078-.058.507.631.828.73.682.075,1,.171.66.142.983.237.612.307.936.4.776-.283,1.1-.194.529.618.854.7.756-.235,1.082-.151.6.36.927.441.606.355.933.433.685.062,1.017.138.61.4.943.471.731-.158,1.064-.088.625.35.958.417.757-.323,1.091-.259.622.37.957.431.71-.111,1.046-.053.625.379.961.434.652.245.988.3.7-.111,1.042-.062.655.232.992.278.724-.3,1.062-.252.655.237.993.277.689-.052,1.027-.015.639.439.977.473c.317.031.658-.206.974-.178s.619.19.934.216c.385.031.324-.245.371-.544s.2-.769-.2-.8c-.337-.027-.682.048-1.02.018s-.684.049-1.021.015-.7.2-1.04.165-.622-.529-.958-.568-.664-.14-1-.183-.694.091-1.03.045-.681-.018-1.016-.066-.633-.336-.968-.388-.694.06-1.028.005-.693.037-1.027-.021-.686-.015-1.019-.076-.621-.369-.954-.433-.608-.405-.94-.472-.7.032-1.027-.038-.737.2-1.067.129-.57-.507-.895-.582-.7.078-1.027,0-.675-.054-1-.134-.624-.258-.947-.341-.648-.161-.97-.247-.662-.113-.983-.2-.565-.459-.885-.55-.7.025-1.022-.069-.625-.238-.944-.335-.631-.217-.95-.316-.719.06-1.037-.042-.563-.428-.88-.533-.714.029-1.03-.078-.48-.657-.795-.767-.656-.141-.97-.254-.651-.18-.968-.3-.6-.319-.916-.436-.743.059-1.058-.061-.5-.569-.818-.691-.632-.231-.946-.356-.58-.361-.892-.487-.84.272-1.151.143-.469-.628-.78-.759-.673-.14-.983-.273-.716-.043-1.025-.179-.626-.256-.934-.393-.54-.446-.847-.586-.624-.257-.93-.4-.531-.456-.836-.6-.6-.311-.9-.457-.646-.2-.946-.343-.727-.037-1.026-.185-.533-.43-.831-.581-.623-.25-.919-.4-.48-.525-.774-.681-.535-.415-.829-.573-.534-.411-.826-.572-.746-.03-1.037-.193-.625-.253-.915-.418-.475-.513-.763-.68-.686-.152-.973-.322-.366-.688-.651-.861-.755-.044-1.039-.218-.487-.481-.77-.658-.421-.581-.7-.76-.832.046-1.115-.139-.546-.4-.827-.586-.638-.264-.917-.454-.275-.792-.552-.984-.737-.123-1.012-.318-.456-.523-.729-.72-.616-.3-.888-.5-.442-.537-.712-.739S7.27,5.413,7,5.209s-.647-.266-.914-.473-.5-.457-.764-.666-.6-.328-.867-.539-.486-.475-.746-.689-.213-.8-.471-1.016-.714-.2-.971-.416C2.027,1.2,1.842.931,1.6.723S1.11.32.871.109c-.3-.263-.565,0-.754.249s-.161.3.129.559" transform="translate(0 0)" fill="#0d4b08"/></g></g></svg>