<svg xmlns="http://www.w3.org/2000/svg" width="135.378" height="99.361"><defs><clipPath id="a"><path fill="none" d="M.007 0h135.378v99.361H.007z"/></clipPath></defs><g clip-path="url(#a)" transform="translate(-.007)"><path fill="#fefffd" d="M101.59 69.822a248 248 0 0 0 3.268 5.291l-.429.213a29 29 0 0 1-3.976 1.821l-1.15.412v-9.394h1.337c.169.328.515.926.951 1.658"/><path fill="#fefffd" d="M124.5 87.168a10 10 0 0 0 1-1.075l.209-.215c.436-2.149 1-5.381 1.6-8.932l-6.063.59a37 37 0 0 1-5.362-.252 30.6 30.6 0 0 1-6.562-1.8 39 39 0 0 1-1.112-.446c-.831.477-1.516.861-1.967 1.1a.66.66 0 0 1-.864-.217c-.139-.211-.322-.5-.535-.83a29 29 0 0 1-5.544 2.453v12.735h2.354c5.555-.221 15.892-.681 19.248-1.306a7.55 7.55 0 0 0 3.6-1.807M112.508 39.791a21.7 21.7 0 0 1 8.207-4.008 10.6 10.6 0 0 1-3.5-1.6q-.15-.1-.3-.214l-.229-.148c-1.592.645-3.383 1.422-4.523 2.023l-.229 1.168.241 1.268Z"/><path fill="#407b3e" d="M109.322 75.483a39 39 0 0 1-1.112-.446c-.831.477-1.516.861-1.967 1.1a.66.66 0 0 1-.864-.217c-.987-1.5-4.22-6.706-4.769-7.823 3.329-1.747 5.647-3.13 8.7-5.047a2.9 2.9 0 0 0 .9-.918l-.519-1.119a45 45 0 0 1-1.439-7.926 12.6 12.6 0 0 1 .117-2.23 29.6 29.6 0 0 1 1.63-6.19 23.3 23.3 0 0 1 2.108-4.506c2.583-2.523 7.381-4.3 10.851-4.87l1.731 2.576 1.1 1.642c2.244 3.533 2.98 7.36 2 13.044-.218 1.266-1.276 5.8-1.063 7.67a88 88 0 0 0 1.487 8.884l.226.958c-.373 2.293-.759 4.65-1.132 6.88l-6.063.59a37 37 0 0 1-5.361-.252 30.6 30.6 0 0 1-6.561-1.8"/><path fill="#0d4b08" d="M121.343 34.671c-.343.078-.612.465-.95.557s-.74-.016-1.075.09-.523.638-.853.757-.824-.188-1.149-.055-.7.179-1.018.325-.52.554-.833.713-.746.1-1.053.277c-.333.186-.6.517-.915.728s-.464.658-.764.893-.724.326-1.005.585c-.224.262-.208.689-.386.983s-.559.472-.687.792c-.142.278-.244.573-.373.857s-.4.505-.525.793c-.139.322.116.8-.013 1.13s-.463.572-.581.9-.274.649-.38.983-.1.7-.2 1.039-.062.7-.146 1.045-.195.669-.267 1.012-.36.643-.421.989c-.065.363.226.768.189 1.134s-.41.7-.419 1.072.2.731.218 1.1.022.733.07 1.1-.208.777-.153 1.142.576.627.634.976-.175.748-.112 1.1.318.661.389 1.008c.073.419-.265.934-.161 1.346s.773.657.908 1.06c.14.383.226.447.537.372.327-.078.768-.276.62-.682-.1-.306-.413-.541-.5-.849s.21-.712.136-1.023-.685-.505-.748-.819.18-.687.129-1-.124-.629-.163-.947c-.063-.308-.425-.571-.472-.882s.132-.659.1-.972-.045-.63-.06-.944.042-.63.043-.945-.207-.647-.19-.961c.042-.338.225-.669.279-1.006s-.044-.707.023-1.041.6-.566.684-.9.085-.675.177-1 .138-.665.242-.99-.03-.731.085-1.052.3-.619.427-.936c.129-.357.283-.707.43-1.058s.629-.545.793-.888.053-.816.233-1.151a6 6 0 0 1 .569-.781 4 4 0 0 1 .551-.575c.2-.164.4-.332.611-.483s.488-.2.708-.335c.28-.172.59-.276.877-.436s.551-.343.844-.491.508-.449.807-.585.608-.245.912-.368.606-.254.914-.365.582-.337.9-.434.7.054 1.015-.03.669 0 .989-.07c.414-.1.432-.73.339-1.049a.625.625 0 0 0-.738-.517c-.127-.046-.072-.232-.073-.232"/><path fill="#0d4b08" d="M118.681 68.009c-.277.2-.622.291-.9.485s-.709.169-.99.36-.606.315-.888.5-.626.282-.91.468-.458.54-.745.723-.4.646-.683.826-.765.058-1.055.236-.389.669-.68.844-.825-.058-1.118.114-.534.43-.829.6-.542.42-.838.587c-.333.195-.776.2-1.111.392s-.475.725-.811.915c-.255.144-.65.043-.906.185-.1.063-.145.213-.252.262-.084.033-.232.238-.292.15-.21-.3-.276-.711-.476-1.022s-.185-.757-.379-1.072-.3-.686-.488-1-.849-.348-1.042-.662c-.16-.262-.11-.654-.273-.915s-.541-.391-.7-.654-.253-.575-.411-.84.111-.775-.038-1.045-.8-.549-.933-.825c-.238.4.034.575.093 1.036.328-.172.595-.295.922-.47s.685-.294 1.01-.472.691-.286 1.014-.467.468-.677.789-.862.692-.282 1.011-.471c.249-.146.564-.182.811-.33s.6-.125.848-.275.332-.567.577-.719c.262-.136.63-.1.88-.251s.247-.685.486-.857.769 0 .995-.187a9 9 0 0 0 .791-.917c.2-.328.141-.821.293-1.175s.523-.656.622-1.028a8.4 8.4 0 0 0 .079-1.185c.066-.328-.143-.7-.082-1.032s.323-.62.381-.949-.147-.7-.092-1.033.367-.616.42-.946.072-.666.124-1 .27-.634.323-.964-.312-.734-.263-1.069.323-.637.373-.972.147-.662.2-1 0-.687.066-1.02.009-.693.084-1.024c.091-.4-.027-.5-.336-.6s-.715-.143-.81.274c-.076.34.193.746.129 1.087s-.467.621-.522.964.094.715.043 1.059-.147.68-.2 1.025c-.047.32-.4.593-.453.913s.372.711.321 1.031-.4.592-.447.911.083.67.029.989-.541.562-.6.88.452.728.393 1.046c-.04.376-.222.741-.3 1.11s-.462.661-.574 1.022-.02.793-.168 1.141-.637.481-.819.813c-.261.305-.152.954-.47 1.195s-.839.2-1.2.369c-.247.153-.483.332-.731.485s-.337.568-.586.719-.614.111-.864.26c-.285.17-.576.329-.862.5s-.606.276-.894.439-.471.516-.76.677-.646.2-.936.362-.507.459-.8.615-.814-.107-1.107.046a1.08 1.08 0 0 0-.26 1.191c.154.311.366.6.537.9s.569.471.75.769.308.627.492.922.354.6.535.893c.167.272.026.733.193 1s.6.379.77.65.252.6.421.866.389.51.56.779.354.53.528.8a1.62 1.62 0 0 0 1.185.913 2.43 2.43 0 0 0 1.183-.329c.3-.165.572-.36.869-.528s.5-.493.8-.664.575-.308.856-.472.555-.342.836-.508.5-.442.775-.609.689-.119.968-.288.644-.2.922-.366.391-.611.668-.782c.307-.19.651-.319.958-.51s.466-.613.771-.806.765-.143 1.067-.34.483-.578.782-.779.743-.192 1.038-.4.507-.536.8-.749c.3-.189.2-.4.027-.716s-.445-.592-.758-.409c-.05.123.25.253.247.255M123.773 48.238c-.021.325.31.677.285 1s-.055.651-.084.976.055.663.022.987-.431.61-.468.934.3.694.26 1.018-.113.645-.158.969-.226.628-.273.951-.037.654-.087.976c-.049.365.046.755-.013 1.118s-.243.711-.312 1.072-.4.669-.482 1.028-.241.695-.331 1.052-.29.677-.39 1.031-.008.76-.118 1.111c-.091.3.117.711 0 1s-.571.433-.712.713.025.736-.139 1-.731.26-.918.511-.294.544-.5.779a.79.79 0 0 0 .1 1.03c.23.237.825.464 1.116.152.213-.252.116-.763.311-1.028s.614-.38.791-.658.253-.623.412-.912.038-.711.177-1.01.42-.525.539-.832.465-.538.564-.853.291-.617.369-.938-.388-.759-.331-1.084.379-.583.443-.9-.12-.677-.06-.994.2-.615.257-.932.592-.553.644-.871.1-.64.146-.959-.271-.691-.228-1.01.212-.621.252-.941.144-.632.179-.952c.046-.375.172-.742.213-1.117s-.278-.787-.242-1.162.171-.741.2-1.117.188-.743.211-1.12c.027-.428-.376-.914-.71-.906s-.611.514-.637.925c-.078.106-.293-.045-.293-.043M124.884 85.511a8 8 0 0 1-.571.875c-.252.244-.631.308-.914.513a7 7 0 0 1-.8.655c-.309.164-.531.537-.861.656a8 8 0 0 1-1.075.072c-.538.109-.892.314-1.407.374-.329.038-.687-.181-1.017-.148s-.639.294-.97.324-.69-.02-1.032.008-.694-.088-1.036-.062-.691-.064-1.034-.04-.66.4-1 .421l-1.028.061c-.342.02-.679.157-1.021.177s-.7-.326-1.048-.308-.665.415-1.008.433-.687 0-1.029.021-.692-.1-1.035-.088-.708.093-1.064.11-.705.183-1.061.2-.717-.089-1.073-.074-.723-.233-1.078-.219-.715-.05-1.071-.036a1.15 1.15 0 0 0-.928.855c-.006.331.513.765.94.749.344-.014.675-.36 1.02-.374s.7.328 1.048.313.673-.4 1.018-.411.709.442 1.054.427.684-.132 1.029-.149.684-.127 1.029-.144.7.184 1.044.167.668-.428 1.013-.446.7.243 1.048.224.682-.15 1.026-.17.646-.323.975-.339.666.137 1 .117.675.208 1.005.185.668.055 1 .027.609-.6.937-.631.68.183 1.009.148.625-.322.953-.362.663 0 .99-.038.728.394 1.054.346a9 9 0 0 0 1.024-.258c.324-.1.522-.571.83-.71a8 8 0 0 0 .956-.359 9 9 0 0 0 .881-.527 9 9 0 0 0 .83-.623c.239-.238.2-.732.409-1 .258-.313.256-.549.04-.783s-.616-.418-.891-.083"/><path fill="#0d4b08" d="M128.577 68.993c-.077-.361-.1-.735-.175-1.1s.113-.776.043-1.138-.241-.705-.307-1.068.159-.776.1-1.139-.087-.73-.144-1.1-.434-.677-.486-1.043c-.072-.38-.3-.746-.341-1.129s.214-.8.2-1.185-.158-.774-.148-1.161c.029-.344.03-.7.072-1.041s-.089-.718-.035-1.06.456-.625.522-.964.052-.728.122-1.083.371-.668.434-1.024-.033-.741.023-1.1.3-.689.352-1.047-.036-.737.006-1.1-.169-.744-.134-1.1c.027-.343.268-.67.276-1.012s-.167-.684-.18-1.027.22-.7.187-1.045-.307-.654-.36-.993-.039-.688-.112-1.023-.019-.706-.112-1.037-.093-.709-.205-1.033c-.139-.34-.614-.545-.769-.878s-.313-.659-.484-.984-.448-.583-.634-.9-.071-.82-.272-1.127-.725-.394-.942-.691c-.229-.344-.339-.318-.621-.162s-.516.3-.276.66c.225.309.5.592.705.911s.546.572.74.9.28.731.458 1.07.11.8.272 1.143c.122.306.155.63.257.942s.085.645.167.963.351.581.413.9.444.6.486.924-.279.691-.258 1.019.4.647.4.976-.48.643-.5.971c-.026.354.044.709.009 1.062s.02.712-.023 1.064-.307.669-.359 1.02.279.76.219 1.109-.4.646-.47.994-.034.715-.111 1.06c-.067.361.161.773.1 1.134s-.286.694-.337 1.057-.344.7-.381 1.065-.145.736-.143 1.1.561.7.591 1.055-.175.736-.117 1.092.346.691.4 1.054.022.735.08 1.1-.366.8-.3 1.166.129.725.2 1.086.5.653.566 1.014.016.744.089 1.1.083.733.159 1.092a.855.855 0 0 0 .951.593c.307-.094.239-.512.152-.915M108.045 75.659c.341.145.593.517.939.652s.876-.231 1.225-.107.6.53.952.643.64.458 1 .561.718.23 1.077.322c.325.074.708-.077 1.035-.013s.653.156.982.208.646.229.976.271.717-.419 1.049-.388.652.109.985.13.651.3.984.308.668-.091 1-.093.676.285 1.009.272a1.17 1.17 0 0 0 .888-.923c-.013-.342-.555-.547-.9-.561-.324.014-.647.188-.971.191s-.649-.293-.973-.3-.655.114-.979.094-.653-.01-.976-.041-.673.114-.994.072-.6-.43-.918-.482-.657-.011-.975-.074-.58-.363-.9-.436c-.35-.092-.735-.034-1.082-.135s-.631-.394-.975-.506-.724-.1-1.064-.222-.768-.013-1.105-.144-.593-.477-.926-.618c-.347-.091-.631.206-.728.551s-.021.824.32.927c0 0 .039-.159.042-.158M108.316 58.753a3.2 3.2 0 0 1-.572 1.025c-.195.21-.261.543-.457.752s-.454.361-.651.57c-.391.419-.306.5-.7.916s-.379.432-.771.852-.546.276-.938.7c-.284.3.044.53.27.762s.227.346.518.035c.31-.332.483-.171.793-.5s.493-.162.8-.5-.074-.693.237-1.027.526-.133.846-.459c.28-.255.731-.366.978-.653a10 10 0 0 0 .729-.912 10 10 0 0 0 .39-1.117.81.81 0 0 0-.491-.914c-.348-.087-.886.049-.989.392-.063.063 0 .077 0 .08"/><path fill="#0d4b08" d="M113.666 48a9 9 0 0 1 .251-1.116 6.3 6.3 0 0 1 .842-2.13c.19-.32.833-.328 1.065-.622s.237-.766.507-1.027c.258-.231.654-.225.956-.384s.486-.641.82-.722.719.225 1.065.227c.405-.015.828-.26 1.223-.18s.646.564 1.014.735c.324.142.748.062 1.01.288a3.5 3.5 0 0 1 .63.829 3.3 3.3 0 0 1 .29.955.9.9 0 0 0 .826.7c.36 0 .55-.364.553-.724a4 4 0 0 0-.152-.935 4 4 0 0 0-.551-.779 4.4 4.4 0 0 0-.629-.693c-.234-.218-.356-.576-.628-.752s-.7-.018-1-.147a6 6 0 0 0-.864-.336c-.315-.084-.572-.371-.888-.4s-.664-.308-.99-.3-.587.574-.908.642-.7-.134-1.008-.012-.734.063-1.015.236a8 8 0 0 0-.976.737c-.287.267-.4.729-.646 1.038a7.6 7.6 0 0 0-.683.969c-.156.273-.421.505-.552.79s.215.763.11 1.058-.242.559-.321.863-.4.547-.452.857a.66.66 0 0 0 .516.749.914.914 0 0 0 1.007-.464c-.029-.1-.426.051-.425.046"/><path fill="#fefffd" d="M107.7 16.01q-1.11-.836-2.147-1.762a11.9 11.9 0 0 0-.371 3.709c-.051 1.7-.116 4.063-1.673 4.907a1.6 1.6 0 0 0-.723.726c-.373.847.357 1.227.809 1.715a2.6 2.6 0 0 1 .591 1.1 16 16 0 0 0 .345 2.453 6.8 6.8 0 0 0 .554 1.645 3.25 3.25 0 0 0 1.788 1.651 7.83 7.83 0 0 0 4.193.332.566.566 0 0 1 .668.334 13 13 0 0 1 .685 1.75l.329.981c1.269-.622 3.015-1.361 4.486-1.945a4.35 4.35 0 0 0 1.055-3.06 13.6 13.6 0 0 0-1.127-4.1 4.22 4.22 0 0 0 2.718-3.843 2.37 2.37 0 0 0-.779-1.963 1.62 1.62 0 0 0-1.372-.214 2 2 0 0 0-.327.115l-.974-.043a5.9 5.9 0 0 1-2.054-.589 33.2 33.2 0 0 1-6.674-3.9"/><path fill="#0d4b08" d="M112.251 38.017a3 3 0 0 1-.074-1.266c.136-.327.653-.239.948-.381.381-.188.567-.791.954-.966s.795-.311 1.186-.479c.354-.152.826-.027 1.182-.175s.708-.3 1.066-.443.711-.292 1.072-.428.76-.154 1.124-.281c.387-.135.172-.649.1-.961s-.142-.746-.549-.6c-.334.116-.561.526-.892.65s-.668.226-1 .355-.633.313-.96.448-.652.27-.977.409-.859-.206-1.183-.065c-.275.12-.425.528-.7.65s-.648.038-.919.167-.367.611-.631.753c-.246.125-.676.028-.849.235s-.068.585-.147.849c-.047.26-.454.5-.454.76s.321.523.368.783a.72.72 0 0 0 .665.677c.337.013.84-.241.8-.673 0-.024-.129-.013-.129-.014"/><path fill="#0d4b08" d="M113.162 34.362a14 14 0 0 0-.731-1.362 2.7 2.7 0 0 0-.273-.877 1.57 1.57 0 0 0-1.307-.455c-.422.089-.808.389-1.239.386a7 7 0 0 1-.888-.234c-.3-.037-.676.28-.969.2a8 8 0 0 1-.85-.412c-.362-.181-.417-.729-.673-1.032a2.5 2.5 0 0 1-.6-.926c-.1-.312-.179-.62-.257-.939s-.55-.563-.6-.889.4-.7.372-1.03a3.7 3.7 0 0 0-.609-1.3c-.215-.375-.677-.5-1-.786-.139-.131-.029-.493-.019-.7a1.22 1.22 0 0 1 .532-.886 3.3 3.3 0 0 0 .679-.878c.218-.324.755-.493.862-.874a7 7 0 0 0 .038-1.023c.055-.328.423-.633.445-.965s-.011-.68-.006-1.014-.054-.666-.048-1 .088-.651.11-.982-.136-.665-.08-.993a.86.86 0 0 0-.494-.937c-.347-.09-.534.278-.631.623-.045.346-.443.637-.472.985s-.02.7-.033 1.053.307.7.311 1.05c0 .386-.372.757-.409 1.141s-.139.747-.211 1.126c-.045.339.062.7-.1 1a3 3 0 0 1-.581.878 3.3 3.3 0 0 0-1.125.732 1.8 1.8 0 0 0-.227 1.362 2.4 2.4 0 0 0 .476 1.141c.28.277.956.294 1.116.661a4.8 4.8 0 0 1 .152 1.226c.034.269-.226.568-.182.836s.1.538.163.8a6 6 0 0 0 .287 1.013 6.3 6.3 0 0 0 .347 1.013c.173.3.757.29.982.555.3.3.4.83.771 1.03s.868.056 1.287.141a8 8 0 0 0 1.058.235 14 14 0 0 0 2.139-.055c.093-.013.271.492.364.474.053-.01.048-.329.1-.341.118-.024.221-.2.142-.193-.065-.068.121.289.122.292.105.237-.121.61-.029.852s.442.393.521.639c.109.345.459.835.8.725.327-.1.417-.708.338-1.042 0-.059.127-.038.125-.044"/><path fill="#407b3e" d="M117.5 6.22q-.782-.06-1.644-.048a14.2 14.2 0 0 0-4.019.752 10.62 10.62 0 0 0-5.917 5.428 10 10 0 0 0-.606 1.681l.3.269a33.2 33.2 0 0 0 8.761 5.6 5.9 5.9 0 0 0 2.054.589l.974.043a2 2 0 0 1 .327-.115 1.62 1.62 0 0 1 1.372.214 2.38 2.38 0 0 1 .779 1.963 4.22 4.22 0 0 1-2.718 3.843 13.6 13.6 0 0 1 1.127 4.1 4.06 4.06 0 0 1-1.435 3.38 10.75 10.75 0 0 0 9.269 1.817 3.79 3.79 0 0 0 2.644-2.981 11.6 11.6 0 0 0-.069-3.225 17.6 17.6 0 0 1 .1-7.473 17.8 17.8 0 0 0 .431-4.222 11.43 11.43 0 0 0-2.453-6.415c-2.442-2.932-4.958-4.876-9.276-5.207"/><path fill="#0d4b08" d="M117.118 21.522c.214-.23.61-.172.928-.249s.838-.432 1.082-.125c.176.276-.178.791-.131 1.107a1.9 1.9 0 0 1-.025.878c-.068.316.1.71-.043.992s-.555.383-.766.621a3.4 3.4 0 0 1-.7.576c-.262.176-.373.671-.679.777-.339.1-.589.275-.508.621a.765.765 0 0 0 .826.571c.354-.125.61-.472.925-.664a5.6 5.6 0 0 0 1-.53 5.7 5.7 0 0 0 .822-.8c.21-.3.168-.766.313-1.112a4.7 4.7 0 0 0 .429-.928c.05-.328-.312-.668-.333-1a3.4 3.4 0 0 0-.061-.953c-.115-.32.044-.842-.182-1.087a2.8 2.8 0 0 0-.96-.55 3 3 0 0 0-1.084-.144c-.339.026-.558.511-.861.666s-.87-.01-1.1.254c-.283.305 0 .873.222 1.1s.406.149.7-.164c.011-.014.184.144.187.141M106.779 20.314c-.1.258.1.751.207 1.141.094.351.218.816.642.9.372.031.5-.385.694-.577.21-.21.574-.34.6-.65a1.7 1.7 0 0 0-.269-.881c-.225-.464-.853-.895-1.317-.67-.24.117-.023.631-.1.887"/><path fill="#0d4b08" d="M105.271 17.4c0-.331.37-.652.4-.98s.154-.629.21-.954-.17-.706-.085-1.024.2-.634.314-.944.268-.607.409-.9.6-.416.763-.7.251-.592.443-.861a10 10 0 0 1 .554-.88c.237-.258.349-.647.611-.876a10 10 0 0 1 .783-.73c.286-.2.844.043 1.15-.125s.51-.505.833-.64a10 10 0 0 1 .94-.482c.323-.1.686-.047 1.013-.122s.665-.069 1-.116.641-.383.976-.4.677.434 1.013.441.66-.081.995-.045.638.162.969.224.777-.371 1.1-.281.631.29.948.407.669.185.975.327.5.522.791.689.489.47.769.661.793.063 1.056.276.516.474.764.709.441.542.669.8.2.721.407.991.4.531.591.817.591.437.755.738.117.7.257 1.009c.133.342.6.571.7.922s-.127.789-.06 1.148.245.7.278 1.067-.235.733-.236 1.1.523.76.488 1.125-.606.652-.675 1.012-.114.711-.177 1.063.171.752.122 1.106-.374.677-.409 1.033-.089.717-.11 1.074.361.729.354 1.087-.184.71-.176 1.067c.056.341-.017.7.028 1.041s.289.661.323 1.005-.121.7-.1 1.047-.062.689-.051 1.034.278.686.278 1.032a3.2 3.2 0 0 1-.4.9c-.126.3.011.8-.2 1.045a3.6 3.6 0 0 1-.874.577c-.31.169-.78-.071-1.117.03a4.7 4.7 0 0 1-.976.268 10 10 0 0 1-.98.063c-.332.01-.673.418-1 .4s-.6-.544-.929-.6-.695.135-1.015.048-.734.071-1.045-.046-.443-.652-.742-.8c-.282-.144-.714-.017-.983-.184s-.589-.259-.843-.448c-.312-.18-.711-.372-.9-.062s.09.761.4.949c.281.207.4.686.695.866s.648.32.961.471.677.242 1 .365.655.306.991.4.733-.014 1.076.048.69.164 1.038.194.7-.29 1.054-.292c.311 0 .64.353.956.329s.637-.1.946-.15.536-.443.834-.538.725.112 1-.032a5 5 0 0 0 .848-.493c.239-.194.321-.584.521-.839a4 4 0 0 0 .459-.991 5 5 0 0 0 .473-1 7 7 0 0 0 .057-1.109c.006-.367.229-.758.2-1.127s-.543-.684-.595-1.046-.074-.743-.129-1.1c-.041-.312.223-.661.2-.975s-.049-.623-.057-.938-.019-.625-.011-.94.144-.615.169-.93-.423-.68-.382-.992.458-.568.516-.878c.071-.337-.168-.729-.109-1.068s.136-.667.183-1.007.031-.681.066-1.022.063-.67.086-1.012c.005-.339.521-.686.5-1.022s-.373-.649-.424-.982.11-.717.032-1.045-.543-.549-.648-.87.106-.759-.026-1.07-.529-.5-.685-.8 0-.793-.178-1.079c-.21-.309-.677-.446-.908-.739s-.419-.624-.669-.9-.422-.636-.69-.9c-.227-.235-.535-.394-.777-.61s-.608-.285-.867-.483-.472-.452-.745-.629-.607-.243-.893-.4-.575-.281-.872-.416-.516-.451-.822-.562c-.331-.112-.755.118-1.092.032s-.652-.189-.994-.251-.645-.344-.991-.381-.685-.31-1.033-.321-.692.517-1.04.531-.709-.263-1.055-.224-.733-.151-1.076-.086-.7.1-1.035.184-.613.407-.935.521-.663.217-.973.36-.691.2-.987.367-.315.777-.6.975-.566.354-.827.577-.686.259-.926.5-.389.57-.606.837-.661.375-.852.661-.409.58-.574.882-.024.761-.16 1.077-.1.682-.2 1.01-.475.572-.552.909 0 .695-.046 1.038-.055.667-.083 1 .138.658.134.995c.02.361.045.7.406.682a.653.653 0 0 0 .579-.653c-.063-.1-.2-.026-.2-.031"/><path fill="#0d4b08" d="M116.692 26.773c.152.318.015.75.134 1.079s.386.605.472.946.337.655.389 1 .192.711.21 1.063c0 .326-.582.573-.671.878a2.8 2.8 0 0 1-.3.837c-.176.265-.241.591-.494.8-.344.228-.132.538.024.82s.375.688.734.448a5 5 0 0 0 .821-.638c.218-.252.167-.709.323-1a4.7 4.7 0 0 0 .556-1.867c0-.323.335-.671.307-.991s-.171-.651-.228-.967-.261-.615-.346-.925-.374-.553-.488-.854-.325-.563-.465-.853c-.1-.34-.327-.9-.673-.815-.345.1-.539.768-.448 1.115.022.039.143-.075.144-.074M105.075 14.848c.272.241.62.4.9.629s.7.287.983.511.624.364.917.578.424.648.724.853.677.285.983.481.5.57.811.756.544.5.858.67.661.293.98.454.751.1 1.076.25c.327.179.548.607.894.744a10 10 0 0 0 1.128.184 9 9 0 0 0 1.117.029c.43.028.363-.135.354-.469s.072-.948-.338-.975a7 7 0 0 1-.932-.121 8 8 0 0 1-.969-.16c-.3-.127-.719-.03-1-.194-.309-.148-.446-.622-.75-.779s-.557-.4-.856-.561-.744-.074-1.037-.249-.569-.365-.852-.547-.549-.392-.827-.582-.348-.666-.619-.865-.593-.318-.858-.525-.607-.312-.866-.527-.645-.282-.9-.5c-.309-.273-.461-.126-.694.095s-.712.614-.39.9c.031.047.164-.075.165-.074"/><path fill="#fefffd" d="M117.379 26.643a1.22 1.22 0 0 0-1.262 1.174v.036a1.2 1.2 0 0 0 1.233 1.161.5.5 0 0 0 .1-.007 1.186 1.186 0 0 0 1.261-1.1v-.129a1.22 1.22 0 0 0-1.3-1.134h-.043"/><path fill="#0d4b08" d="M117.374 25.727c-.415 0-.708.533-1.03.763s-.854.361-.99.753a2.3 2.3 0 0 0-.017 1.285c.13.359.759.351 1.093.574a1.66 1.66 0 0 0 1.912.082c.342-.2.9-.21 1.053-.556a2.2 2.2 0 0 0 .031-1.231 2.1 2.1 0 0 0-.456-.784 2 2 0 0 0-.781-.386c-.262-.113-.508.024-.808.039-.361 0-.846.013-.846.374s.477.721.838.721v.189c.065 0 .142-.469.206-.463.138.007-.145.062-.012.095.035.009.038-.006.073 0 .056.014.121-.029.176-.019-.152-.029-.232.343-.165.377.029.015.259-.326.287-.309s.009.086.032.1c.071.041-.362.18-.277.261.039.038.052.083.089.122.081.085.1-.284.139-.214.013.023.116-.012.13.009s-.2.188-.19.211c.074.124-.093-.167-.059-.056.016.051.01.092.023.145s.283.041.275-.138c0 .033-.309.071-.308.106 0 .057.289.109.289.166a.106.106 0 0 0 .205 0c-.011.035-.232 0-.242.036s-.276.115-.226 0 .132.1.114.129.267.215.254.236c.086-.147-.285-.347-.32-.309s-.007.158-.048.2c.12-.126.1-.056.047-.02-.027.017.035.121.008.137s-.219-.266-.247-.251c-.05.026.068.416.209.389-.054.012-.2-.384-.252-.371-.034.009.029.43 0 .438-.118.026.116-.188-.016-.177-.063 0-.126.176-.19.176s-.233-.376-.013-.331c-.057-.011-.186.276-.242.261-.032-.009-.06.062-.092.052-.164-.053.225-.275.125-.326-.047-.025-.182.107-.227.077-.017-.011.031-.14.014-.151.146.076.26-.087.208-.133-.033-.033-.377.275-.414.244-.059-.054.019.145-.045.047-.017-.026.288-.249.273-.276s.083-.15.066-.174c.08.117-.027.231-.045.176s-.4 0-.415-.053c-.015-.07-.058-.193-.067-.021 0-.022.359-.037.353-.059 0-.065-.194-.12-.189-.189 0 .183.177.151.2.093.01-.035-.1-.113-.091-.148.006-.019.226.059.23.04-.047.107-.423-.05-.395-.111.014-.028.2.062.213.034s.191.08.208.053-.131-.124-.118-.141c-.068.085-.2.017-.164-.022s0-.2.047-.236.239.084.109.141a1 1 0 0 0 .071-.05c.024-.015.222.257.246.243.131-.077-.312-.318-.2-.361.068-.025.209.2.279.18.024 0 .026-.121.05-.126-.2.048-.04-.2.019-.206.361 0 .348-.077.348-.438s.016-.626-.346-.626l-.17-.028c0-.131.168-.263.168-.263M104.1 74.762c-.307.17-.723.124-1.036.282s-.6.342-.923.489-.571.433-.895.567-.553.552-.882.674c-.348.1-.763.235-.667.583a.94.94 0 0 0 .982.575c.355-.131.758-.181 1.108-.326s.529-.69.873-.847.843 0 1.181-.167.711-.3 1.043-.486c.312-.185.046-.653-.136-.966s-.225-.371-.54-.193zM104.329 28.222a5.3 5.3 0 0 0 1.248.1c.387-.08.611-.675.968-.851.312-.185.364-.335.181-.649s-.569-.731-.882-.558c-.078.042 0 .384-.08.418.078-.032.2-.182.121-.152-.283.114-.6-.031-.9.007-.087.01.258-.092.171-.084-.281.035-.536.626-.819.62-.361 0-.82.017-.82.379a1.07 1.07 0 0 0 .82.907v-.252"/><path fill="#fefffd" d="M18.506 31.212a54 54 0 0 0-4.514-1.915l.248-.772c.078-.247.164-.586.235-.916l.184.042a76.5 76.5 0 0 1 10.272 3.93.56.56 0 0 1 .258.211.45.45 0 0 1 .025.321c-.161.594-.162.584-.337 1.284l1.623 1.355a7.6 7.6 0 0 1 .111 1.5l.03 3.7a95 95 0 0 0-1.413-3.2 10 10 0 0 0-1.928-2.573 20.1 20.1 0 0 0-4.789-2.971M43.108 37.622a1.9 1.9 0 0 1-.373.452 3.1 3.1 0 0 1-1.215.469 5.3 5.3 0 0 0-2.513 1.26 3.05 3.05 0 0 0-.724 2.574l-1.168 1.3c1.04.969 2.473 2.338 3.511 3.318 1.263-.264 2.513-.561 3.757-.869a1.9 1.9 0 0 0 1.061-.51 6.8 6.8 0 0 0 1.222-1.407c.111-.158.292-.429.5-.752l.183-.065c1-.356 2.693-.991 4.146-1.353a2.7 2.7 0 0 0 .539-.229.96.96 0 0 0 .469-.9c-.055-.556-.412-.709-1.109-.768a6.5 6.5 0 0 0-2.41.221l-.215.056a.7.7 0 0 0-.278-.55 1.09 1.09 0 0 0-1.1.141q-.288.215-.52.393l-1.509-1.549a8.6 8.6 0 0 0 1-1.728 2.1 2.1 0 0 0 .225-.977c-.027-.364-.111-.567-.4-.654a1.5 1.5 0 0 0-1.075.114 5.5 5.5 0 0 0-1.878 1.818q-.06.099-.123.194M49.466 59.007a1.28 1.28 0 0 0 .81-.413.99.99 0 0 0 .067-.975.83.83 0 0 0-.627-.479l-.327-.059.039-.065a1.12 1.12 0 0 0 .081-.724.98.98 0 0 0-.866-.758c-2.29-.4-4.765-.7-7.08-1.075a6.3 6.3 0 0 0 1.6-2.276.88.88 0 0 0-.047-.9.76.76 0 0 0-.6-.31 1.73 1.73 0 0 0-.916.232c-1.245.716-3.513 1.984-4.262 2.486a4.1 4.1 0 0 0-1.185 1.141h-.89l.014.017a.44.44 0 0 1 .093.26c.175 2.576.131 4.886.086 7.414a16.6 16.6 0 0 0 5.378.38c.538-.035 4.321-.388 5.888-.6.558-.077 1.214-.207.985-1.332.431-.056.833-.113 1.182-.166a.6.6 0 0 0 .5-.667.94.94 0 0 0-.451-.736l-.479-.26.937-.117a1 1 0 0 0 .074-.011"/><path fill="#407b3e" d="M38.472 44.953c-.93-.88-1.812-1.709-2.3-2.142a.69.69 0 0 0-.888-.021c-.2.164-.463.372-.758.611a393 393 0 0 0-4.652 3.816l-.533.491a34.6 34.6 0 0 1 1.06 5.763l.075 1.234h.085l.593.012.474.009q.31-.002.62.006h1.531c.366 0 .736-.013 1.114-.025a1 1 0 0 1 .1 0h.029a1 1 0 0 1 .065.013l.029.01a1 1 0 0 1 .061.026l.022.012a.4.4 0 0 1 .07.057h.891a4.1 4.1 0 0 1 1.182-1.132c.192-.129.485-.308.834-.516V52.2c1.136-1.305 2.082-2.495 3.117-3.8a.665.665 0 0 0-.106-.883c-.687-.643-1.728-1.635-2.715-2.569"/><path fill="#0d4b08" d="M36.577 55.061a4.7 4.7 0 0 1 .833-.7 4.7 4.7 0 0 1 .821-.71c.365-.219.711-.457 1.079-.669s.855-.22 1.224-.43c.536-.305.691-.034 1.226-.339.194-.111.42-.542.652-.371.208.153-.193.593-.285.755a5.7 5.7 0 0 1-1.01 1.1.94.94 0 0 0 .159 1.125.75.75 0 0 0 .944-.025 6 6 0 0 0 .622-.826c.21-.274.587-.451.748-.756a6.5 6.5 0 0 0 .486-.953c.08-.271-.439-.54-.511-.8a.95.95 0 0 0-.3-.574c-.219-.172-.326-.35-.593-.4s-.551-.276-.817-.194a4.9 4.9 0 0 0-1.212.363c-.543.32-.3.739-.847 1.051-.35.2-.712.381-1.063.583s-.917.026-1.263.235c-.268.136-.434.472-.675.648a5.6 5.6 0 0 0-.652.632c-.209.214-.6.336-.768.583a1.24 1.24 0 0 0 .363 1.275c.3.15.653-.319.836-.6"/><path fill="#0d4b08" d="M41.528 55.244c.309.049.635.005.944.052s.633-.008.942.037.6.221.909.265.588.3.9.343.623.054.932.1c.38.056.825-.307 1.207-.25s.8.007 1.173.087c.2.042.019.42.061.641.038.2.293.206.145.239a7.4 7.4 0 0 1-1.376.041c-.293.005-.584.2-.877.2s-.587-.508-.88-.508c-.348 0-.7.236-1.044.233s-.695-.133-1.044-.137-.7.124-1.048.12c-.361.02-.492.377-.472.738.019.333.14.6.474.619s.652-.16.977-.156.649.125.974.129.651-.156.976-.154.647-.03.973-.033.651.227.977.219.647.293.972.279a2.5 2.5 0 0 0 .857-.152c.25-.078.479-.367.686-.536a2 2 0 0 0 .526-.84 2 2 0 0 0-.26-.945 1.8 1.8 0 0 0-.567-.682 1.7 1.7 0 0 0-.825-.241c-.343-.063-.653-.339-1-.394s-.68-.178-1.025-.229c-.319-.048-.716.44-1.035.394s-.631-.134-.95-.18-.621-.217-.939-.263-.6-.341-.92-.389-.593-.288-.912-.339c-.345-.082-.574.47-.678.809s.031.517.376.615c.056.041-.131.268-.128.269"/><path fill="#0d4b08" d="M49.576 57.56c.077.009-.09.448-.036.5-.021-.021.434-.376.433-.406.025.075.076.245.092.322.025.216-.432.305-.627.353-.343.063-.683.132-1.029.17s-.688.147-1.036.158c-.309.026-.609.126-.917.15s-.646-.36-.955-.338-.6.208-.912.23-.6.259-.908.283-.637-.2-.945-.175a.91.91 0 0 0-.75.791.705.705 0 0 0 .764.669c.34-.029.672-.158 1.012-.183s.689.081 1.03.057.695.162 1.035.137.68-.087 1.02-.115.645-.474.984-.505.662-.183 1-.221c.285-.033.7.5 1 .429s.5-.5.726-.679a1.23 1.23 0 0 0 .468-.727 1.4 1.4 0 0 0-.332-1.107c-.21-.356-.3-1.028-.731-1.139-.4-.1-.826.433-.916.744a.874.874 0 0 0 .54.989c.1-.025-.009-.391-.007-.391"/><path fill="#0d4b08" d="M48.724 59.771c.081.049.015.514.03.543.038-.038.22.034.19.065s-.236-.005-.184-.051c-.077.045.018.028.06.019-.1.017-.267-.423-.367-.408-.289.043-.569.125-.859.163s-.516.6-.806.632-.656-.323-.961-.289-.583.318-.888.349-.639-.237-.944-.21-.6.2-.9.223a.684.684 0 0 0-.678.646c0 .359.323.811.684.814.383-.029.745-.4 1.129-.439s.762-.1 1.145-.143.764-.087 1.147-.133.827.4 1.209.348.7-.673 1.078-.731a.84.84 0 0 0 .646-.269c.268-.316.614-.508.583-.89a1.5 1.5 0 0 0-.541-1.017c-.072-.06-.192-.04-.273-.086-.361-.224-.517-.043-.679.244s-.3.83.051 1.05c.111.007.131-.431.132-.43"/><path fill="#0d4b08" d="M47.165 61.525a1.85 1.85 0 0 1-1.031.408c-.4.048-.827-.13-1.221-.087-.293.031-.592.012-.886.042s-.573.207-.867.235-.567.251-.861.278c-.381.044-.807-.407-1.19-.379s-.752.214-1.135.225-.763-.105-1.147-.111-.763 0-1.146-.02a7 7 0 0 1-1.057-.061c-.352-.065-.806.193-1.145.075s-.554-.563-.871-.731-.538.1-.706.417c-.158.3-.325.675-.041.858.309.188.805-.03 1.145.1a7 7 0 0 0 .975.411 10 10 0 0 0 1.057.147c.359.041.689.529 1.05.543s.742-.026 1.1-.031.716-.545 1.068-.561c.311-.013.641.365.951.343s.6-.3.909-.328.648.239.958.207.6-.212.912-.246.622-.036.931-.069c.481-.052.971.032 1.451-.029.308 0 .54-.379.827-.479a2.2 2.2 0 0 0 .71-.428c.292-.3.2-.377-.027-.609s-.685-.633-.98-.328c-.017.024.268.207.267.208M30.34 47.688c.239-.2.512-.358.751-.557s.592-.26.833-.458.215-.719.456-.917.764-.048 1-.245.416-.464.654-.658.2-.727.442-.921c.312-.25.317-.245.628-.495.084-.068.483.109.59.118.08.007.116.141.175.195.18.164.379.3.557.47.22.2.722.109.941.315s.083.787.3.995.467.393.688.6.619.234.84.443.336.532.557.741l.667.628c.284.267.305.023.065.326-.3.375-.777.607-1.078.981-.21.26-.411.523-.624.781s-.02.855-.236 1.11-.632.341-.851.594a.85.85 0 0 0-.078 1.048.8.8 0 0 0 1.086-.051c.219-.252.318-.608.534-.863s.312-.608.524-.866.6-.375.806-.636c.3-.373.638-.713.937-1.089a1.92 1.92 0 0 0 .469-1.222c0-.381-.292-.5-.518-.765s-.151-.826-.4-1.061c-.381-.362-.5-.239-.878-.6s-.3-.447-.681-.808c-.225-.213-.464-.411-.687-.626s-.481-.4-.706-.61-.7-.158-.927-.367-.243-.654-.479-.855c-.307-.3-.722-.187-1.145-.135-.362.082-.816-.05-1.079.212-.239.192-.212.7-.45.892s-.548.3-.785.488-.481.43-.731.633-.793.048-1.043.252-.471.442-.72.647-.161.817-.409 1.022-.749.107-1 .315c-.332.278-.079.609.167.839s.593.526.9.264c0 0-.081-.1-.078-.107M38.9 42.211a2.4 2.4 0 0 1 .141-1.034 2.3 2.3 0 0 1 .6-.808 2.2 2.2 0 0 1 .739-.69 6 6 0 0 1 1.042-.574c.379-.1.842.042 1.19-.111a2.5 2.5 0 0 0 1-.692c.144-.219.288-.433.445-.642s.425-.319.6-.517a2.08 2.08 0 0 1 1.107-.743c.059-.008.155-.434.2-.459.075.025.247.041.173 0-.054-.1-.529.078-.49.2-.007.245.509.569.424.8-.13.3-.74.375-.9.659a8 8 0 0 1-.4.9c-.18.313.035.645.345.829s.758.243.946-.062c.172-.236.28-.556.458-.84.166-.266.484-.482.614-.772s-.062-.7-.011-1.008a2.14 2.14 0 0 0 .073-.925 1.15 1.15 0 0 0-.674-.811 1.93 1.93 0 0 0-1.091-.11 3.4 3.4 0 0 0-1.123.284c-.231.156-.195.659-.4.846s-.725.082-.905.3-.28.518-.431.746c-.12.253-.04.79-.275.944-.268.1-.582.2-.855.279s-.695-.34-.972-.272a6 6 0 0 0-.876.4 6 6 0 0 0-.786.539c-.256.214-.18.737-.366 1s-.8.343-.91.652a4.3 4.3 0 0 0-.186 1.043c-.025.324.249.678.312 1.005.1.348.518.712.867.618a1.02 1.02 0 0 0 .572-1.022c-.005-.015-.187.066-.188.062"/><path fill="#0d4b08" d="M41.426 43.254c.09-.068-.059-.582.045-.626-.078.031-.075.07-.152.105a2.3 2.3 0 0 1 .43-.1c-.087.011-.066.207-.152.223.142-.018.329-.191.472-.173-.087-.013-.128.29-.215.282a2 2 0 0 1 .364.055c.348.1.5-.212.6-.56.047-.17.142-.228.053-.38a.54.54 0 0 0-.314-.283c-.18-.058-.31-.464-.5-.482-.133-.016-.286.4-.419.418-.354.028-.843-.179-1.135.025-.142.092-.054.447-.1.609a.51.51 0 0 0 .108.424c.087.147.178.129.343.175a.77.77 0 0 0 .529-.158c.1.031.051.449.052.449"/><path fill="#0d4b08" d="M42.159 45.055c.1-.287.235-.537.353-.816s.034-.643.171-.913.253-.554.409-.814.41-.455.585-.7.142-.635.331-.859c.02-.023.1-.193.048-.149s.224.118.251.1a.8.8 0 0 1 .015.252c-.067.007.082-.305.086-.305-.071-.026-.008.086.007.095-.078-.044.088.037-.016 0-.014 0 .071-.064.081-.054l-.059.325c-.015 0-.166-.286-.127-.241 0-.046-.136-.049-.116.02s-.071-.128-.066-.134c-.007.085.205.178.206.264-.012.3.157.609.137.909s.006.613-.031.9c-.006.05.107.06.1.11.009-.073-.035-.027-.035.015-.012.081-.344.128-.356.209-.029.2.079.417.046.615a.64.64 0 0 0 .4.8c.349.093 1.015-.056 1.113-.4.059-.353.078-.739.125-1.094s-.05-.736-.024-1.093a9 9 0 0 0 .026-1.138c-.022-.381-.036-.948-.339-1.215-.363-.322-1.043-.183-1.509-.047-.357.121-.853.183-1.07.492-.243.305-.554.578-.772.9s-.405.695-.6 1.034c-.139.255-.267.536-.391.8s-.062.617-.171.887-.38.5-.473.777c-.083.352.373.689.725.773a.61.61 0 0 0 .788-.331c.069-.066.148.023.15.018"/><path fill="#0d4b08" d="M45.679 42.424c.226-.278.311-.71.566-.96a10 10 0 0 1 .845-.708 9 9 0 0 1 .53-.375c.089-.066.334.145.443.122.036-.006.2-.125.089-.145.037.006-.08.314-.061.314a.5.5 0 0 0 .027-.265c.037.12-.315.132-.326.28 0 .068.416-.1.356.014-.021.041.09.149.069.19-.057.112-.309.121-.371.23-.153.27-.218.594-.381.859s-.45.46-.62.724-.479.434-.651.7c-.156.233-.152.573-.319.8-.116.156-.4.167-.531.317-.072.082-.164.123-.241.2-.042.04.088.167.045.2-.064.056-.116.19-.033.129-.305.189-.633.723-.459 1.038a1.19 1.19 0 0 0 1.254.289 8 8 0 0 0 .772-1.068c.274-.319.266-.823.484-1.185.2-.3.505-.542.7-.849s.323-.667.513-.977c.207-.27.723-.357.862-.666a4.6 4.6 0 0 0 .221-1.016 1.7 1.7 0 0 0-.041-.943 1.85 1.85 0 0 0-.734-.685c-.253-.078-.6.118-.855.156a1.7 1.7 0 0 0-.706.309 10 10 0 0 0-.912.532c-.272.221-.357.641-.6.888s-.784.227-1 .5c-.246.259-.054.811.191 1.07s.463.112.719-.141c.015-.018.158.126.16.124"/><path fill="#0d4b08" d="M45.072 45.236c-.026.033-.2-.264-.236-.235.052-.034.105.215.04.258s-.181-.087-.24-.059c.087-.04-.118.035-.142.042-.065.02-.085.2-.152.215-.38.1-.8.028-1.183.12s-.774.247-1.169.338-.788.195-1.185.28c-.348.1-.426.519-.33.867s.414.807.762.711l-.008.025c.283-.06.465-.583.748-.647s.675.347.957.28.49-.474.771-.542a4 4 0 0 0 1.158-.238c.37-.149.551-.513.864-.766.247-.26.253-.3.007-.556s-.293-.321-.55-.07c-.027.054-.111-.024-.112-.023M49.225 41.276c.389-.108.7-.7 1.1-.736.225-.015.468.261.694.271.092 0 .207-.292.3-.285s.067.236.155.242c.022 0 0 .257.02.26.085.013.134.029.218.044.064.023.015.067-.03.047s-.056 0 0 .028.125-.144.056-.2c.025.021.074-.022.1 0-.053-.07-.052-.113-.014-.051-.031-.079.179-.1.2-.022.008.144-.295-.049-.284.095 0 .079.278.032.282-.03-.009.044-.218.134-.234.177.017-.049.154.235.132.255s-.251-.129-.3-.112a5.5 5.5 0 0 1-.967.35c-.43.123-.926.037-1.35.178-.368.123-.734.265-1.1.4s-.747.2-1.112.329c-.341.1-.544.708-.461 1.054s.489.378.837.285c.338-.121.77.043 1.107-.077s.671-.249 1.011-.364c.395-.133.724-.471 1.123-.59.353-.106.68-.306 1.026-.43.4-.119 1.049.049 1.315-.268.261-.339.137-.952.075-1.375s-.113-.9-.393-1.1-.8.1-1.177.06a7 7 0 0 0-.906-.132 8 8 0 0 0-.9.2c-.307.045-.649-.146-.95-.064-.345.109-.373.429-.264.774.1.327.2.722.531.643a.36.36 0 0 1 .154.14M47.845 38.751a9 9 0 0 0 1.174-.223 9 9 0 0 0 1.14-.223c.345-.1.517-.284.427-.631s-.417-.7-.763-.613c-.244.055-.422.5-.67.529-.087.012.195-.543.108-.532a8 8 0 0 1-1.4.047c-.36 0-.392.553-.4.913s-.037.926.321.933c.039.01.056-.2.059-.2M47.391 49.386c.181.283.672.368.853.651s.054.764.236 1.047.811.277.993.56.111.728.293 1.011.507.472.69.754.219.659.4.941.529.458.712.739.4.542.584.823.3.608.483.889.192.678.377.958.707.34.892.621-.059.843.126 1.124.361.567.547.847.81.27 1 .55-.087.865.1 1.144c.228.344.738-.011 1.021-.167s.615-.312.376-.67c-.185-.28-.623-.394-.808-.674s-.181-.686-.367-.967-.152-.7-.337-.985-.373-.558-.558-.839-.781-.291-.965-.572.112-.877-.072-1.159-.713-.336-.9-.618-.313-.6-.5-.88-.355-.571-.538-.852-.492-.483-.675-.765-.117-.725-.3-1.007-.313-.6-.495-.881-.536-.454-.718-.736-.547-.448-.729-.73-.146-.706-.327-.989a.63.63 0 0 0-.887-.167c-.289.162-.742.639-.512 1"/><path fill="#407b3e" d="M8.527 46.35a28.5 28.5 0 0 1 .386-5.859 22.4 22.4 0 0 1 3.821-10.086l.1-.088a9.5 9.5 0 0 0 .693-1.184c1.1.363 7.4 2.78 9.771 5.051a10.1 10.1 0 0 1 1.936 2.568c2.408 5.178 4.681 11.24 5.168 16.719l.077 1.235c1.45.037 2.873.047 4.416 0a.41.41 0 0 1 .476.336.4.4 0 0 1 .006.067c.2 2.883.117 5.43.071 8.326a.5.5 0 0 1-.393.461c-1.775.172-3.413.3-5.027.373a57 57 0 0 1-.814 9.612c-.687 4.518-2.7 7.252-4.989 8.75-2.623 1.717-9.454 1.724-13.716.949l-1.1-.2c-.628-3.32-1.439-8.2-2.221-12.98l.373-2.2c.527-3.549 1.145-7.681 1.243-9.13a54 54 0 0 0 .118-6.77c-.162-2.3-.341-4.156-.4-5.954"/><path fill="#fefffd" d="M35.108 75.362v-2.78c-1.878-.718-3.221-1.189-5.436-2.077a101 101 0 0 1-.465 3.376c-.687 4.518-2.7 7.254-4.989 8.75-2.623 1.717-9.454 1.725-13.717.95l-1.094-.2c.131.687.252 1.308.365 1.846 1.338 1.426 3.2 2.192 6.139 2.5 5.482.63 12.485.933 19.2 1.243V75.362"/><path fill="#0d4b08" d="M25.976 34.912c.054.406.086.824.1 1.234s-.113.823-.134 1.233c0 .642-.246.644-.24 1.287s-.013.646 0 1.288c.02.361.611.539.972.519a.49.49 0 0 0 .515-.527c0-.3.222-.592.22-.889s-.141-.593-.143-.89.319-.589.316-.887c.012-.3-.353-.6-.36-.9s.343-.629.318-.928-.586-.524-.63-.822c-.1-.347-.255-.671-.6-.579a.64.64 0 0 0-.356.829c.027.046.023.035.023.037"/><path fill="#407b3e" d="M27.012 1.874a11.16 11.16 0 0 1 5.623 5.158 9.3 9.3 0 0 1 .862 3.813 4.96 4.96 0 0 0-3.212-.732 12.54 12.54 0 0 0-6.664 3.3 13.7 13.7 0 0 0-1.974 2.83 2.36 2.36 0 0 0-1.23-1.034 1.66 1.66 0 0 0-1.417.124 2.44 2.44 0 0 0-.932 1.956 4.23 4.23 0 0 0 .94 2.872l-.062.146a12 12 0 0 1-4.822 4.8 24.5 24.5 0 0 0-2.227-2.8 13.72 13.72 0 0 1-3.048-9.846 13.53 13.53 0 0 1 2.708-6.742c3.426-4.382 7-4.938 9.186-5.064a13.64 13.64 0 0 1 6.115 1.153l.155.067"/><path fill="#fefffd" d="M35.494 19.474a1.63 1.63 0 0 0-.69-.793c-1.535-.969-1.439-3.39-1.374-5.136a13 13 0 0 0 .039-2.722 5 5 0 0 0-3.182-.71 12.54 12.54 0 0 0-6.664 3.3 13.7 13.7 0 0 0-1.974 2.83 4 4 0 0 0-.418-.523 1.9 1.9 0 0 0-.812-.512 1.66 1.66 0 0 0-1.419.124 2.44 2.44 0 0 0-.932 1.956 4.23 4.23 0 0 0 .94 2.872l-.062.146a12 12 0 0 1-4.822 4.8 3.2 3.2 0 0 1 .5 1.493 5.4 5.4 0 0 1-.144.976q.121.046.239.094A82 82 0 0 1 24.5 31.36l.39-1.011a18 18 0 0 0 .813-2.044.58.58 0 0 1 .707-.294 8.04 8.04 0 0 0 4.314-.052 3.33 3.33 0 0 0 1.942-1.565 7 7 0 0 0 .68-1.645 16.5 16.5 0 0 0 .52-2.489 2.7 2.7 0 0 1 .681-1.09c.494-.468 1.267-.807.943-1.7"/><path fill="#0d4b08" d="M25.535 30.721c.115-.241.135-.525.239-.771s.373-.431.466-.682c.066-.18.222-.335.282-.517.013-.036-.163-.136-.152-.172.068-.208-.009.127-.039.02.039.142.985.126 1.093.139.256.03.492.387.75.392s.522-.11.779-.129a7 7 0 0 0 .946.068 8 8 0 0 0 .945-.145c.291-.087.428-.61.707-.737.286-.16.811-.007 1.053-.223a5 5 0 0 0 .59-.847 4.7 4.7 0 0 0 .506-.878c.144-.341-.18-.854-.065-1.206s.625-.586.711-.947-.08-.766-.026-1.132a2.4 2.4 0 0 1 .451-1.171 10 10 0 0 1 .862-.74c.23-.219.562-.408.645-.693s-.174-.618-.246-.916.038-.716-.182-.947l-.12.114.081-.069c-.268-.306-.788-.343-1.06-.639a2.5 2.5 0 0 1-.425-.989A6 6 0 0 1 34.1 15.9a9 9 0 0 1-.167-1.033c0-.345.147-.69.166-1.038s-.035-.7-.017-1.04-.23-.691-.227-1.034.321-.692.286-1.033c-.009-.357-.321-.53-.679-.539s-.46.172-.464.532c.033.317-.035.64-.03.957s-.007.641-.019.958-.155.629-.171.946-.279.629-.284.946-.017.652 0 .969.422.6.47.92a4.3 4.3 0 0 0 .305 1.132 4.7 4.7 0 0 0 .4 1.158 6.6 6.6 0 0 0 .977.655c.2.176.139.267-.039.512-.23.241-.208.7-.476.9-.2.187-.674.192-.817.423s.224.7.146.966c-.1.4-.417.76-.5 1.169-.057.282.041.6-.032.878s-.325.506-.415.779c-.077.29-.013.646-.155.906a4 4 0 0 1-.511.772 4 4 0 0 1-.761.533c-.273.125-.626.031-.914.11s-.518.534-.815.567-.626-.469-.925-.484a5.6 5.6 0 0 1-1.368-.136c-.269-.062-.586.385-.829.372s-.638-.458-.888-.283c-.279.23-.067.838-.147 1.192-.091.266-.455.451-.562.711s.055.645-.064.9c-.177.369-.22.567.051.738s.828.33 1.015-.059c.026-.035-.1-.094-.1-.1"/><path fill="#0d4b08" d="M34.226 11.323c.009-.343-.184-.678-.209-1.018s.068-.693.009-1.029-.418-.593-.509-.923.138-.755.014-1.074a10 10 0 0 0-.467-.92c-.155-.278-.579-.378-.758-.64s-.252-.582-.453-.828-.368-.509-.59-.737-.252-.666-.493-.874c-.256-.219-.647-.278-.916-.478s-.511-.448-.793-.628-.683-.158-.978-.317-.472-.556-.777-.7-.668-.151-.983-.268-.657-.138-.979-.232-.631-.216-.959-.287-.639-.237-.972-.285-.686.142-1.021.115-.658-.07-.992-.071-.671-.144-1.007-.121-.622.367-.955.414-.639.069-.959.149-.726-.14-1.039-.036-.507.519-.812.647-.736-.026-1.031.124-.538.4-.821.572-.664.207-.933.4-.6.332-.854.545-.374.591-.611.823-.313.61-.532.859-.413.5-.612.768-.667.34-.847.619-.284.635-.453.929-.472.534-.619.839-.358.608-.482.924.177.79.076 1.114-.611.545-.687.876-.024.706-.076 1.041-.109.685-.136 1.024.443.695.441 1.035-.42.687-.4 1.026.3.653.343.99.08.668.153 1 .132.662.23.988.019.714.141 1.033c.132.338.53.561.685.888s.048.79.225 1.1.51.544.708.846.322.663.541.951.6.443.836.716a11 11 0 0 1 .666.868 11 11 0 0 1 .661.865 11 11 0 0 1 .65.9 3.8 3.8 0 0 1-.008 1.282 3.6 3.6 0 0 1-.238 1.231c-.124.4.176.384.5.468s.628.271.751-.127a6 6 0 0 0 .174-1.16 5.8 5.8 0 0 0 .009-1.136 4.7 4.7 0 0 0-.15-.881 5 5 0 0 0-.385-.827 5 5 0 0 0-.436-.825c-.206-.235-.216-.633-.416-.873s-.383-.485-.577-.73-.684-.259-.871-.51-.385-.5-.565-.751-.169-.638-.343-.9c-.179-.3-.46-.541-.611-.852s.01-.755-.115-1.078-.582-.531-.68-.864.176-.753.106-1.093-.651-.6-.692-.945.232-.725.22-1.073-.179-.7-.163-1.048.221-.682.266-1.027-.086-.725-.012-1.065.125-.7.226-1.034.3-.644.425-.969.461-.555.616-.868-.03-.816.15-1.116.8-.307 1-.591.415-.532.642-.8.079-.878.328-1.124.875-.071 1.144-.3.218-.854.506-1.056.734-.159 1.038-.338c.28-.165.431-.589.723-.732s.692-.071.994-.191.681.021.992-.075c.347-.084.671-.152 1.022-.206s.653-.584 1.007-.609.728.538 1.083.542.725-.388 1.079-.355.7.147 1.055.209.7.154 1.042.245.736.056 1.072.176.556.528.881.674.6.357.914.53.715.18 1.012.378a12 12 0 0 1 1.056.511c.293.242.406.7.671.971a11 11 0 0 1 .787.825c.233.3.252.733.452 1.057a9 9 0 0 1 .42.831 8 8 0 0 1 .254.9 9 9 0 0 1 .377.874c.058.313.339.6.362.921s-.271.649-.282.969a.92.92 0 0 0 .839.746c.333-.018.5-.42.522-.753"/><path fill="#0d4b08" d="M31.546 15.878c.086.271-.274.663-.408 1.055-.121.353-.106.455-.546.512-.383.006-.675.2-.858-.009a1.42 1.42 0 0 1-.191-.905 1.6 1.6 0 0 1 .2-.863 1 1 0 0 1 1.3-.488 1.08 1.08 0 0 1 .383.734M33.639 22.738c-.177-.009-.329-.076-.5-.1-.04.079.254-.1.167-.108a4 4 0 0 1-.955-.432c-.078-.031-.062.4.019.429-.141-.06-.388.019-.518-.062-.312-.178-.613-.33-.8-.021a.64.64 0 0 0 .319.844c.353.2.62.671 1.009.775s.856-.166 1.262-.162c.36 0 .885-.212.888-.573s-.516-.543-.873-.55c-.03 0-.016-.042-.017-.042M18.326 19.952a6.3 6.3 0 0 1-.638 1.271c-.039.052-.089.1-.128.153.065-.083.007.1 0 .119-.094.116-.217.212-.315.325-.194.225-.53.318-.736.529a11 11 0 0 1-.687.9 11 11 0 0 1-.986.555 11 11 0 0 1-1.047.406c-.312.182-.149.775.033 1.087s.307.222.619.04l.082.133c.271-.149.479-.371.737-.539s.756 0 1-.185.321-.586.549-.793.475-.391.686-.616a10 10 0 0 0 .885-.729c.241-.29.624-.508.829-.825a10 10 0 0 0 .379-1.108c.171-.314-.15-.514-.452-.7s-.612-.338-.8-.025c-.018.021-.007 0-.009 0"/><path fill="#0d4b08" d="M22.13 15.32c-.19-.247-.609-.326-.864-.489s-.52-.474-.819-.543a3.3 3.3 0 0 0-1.011-.1c-.3.056-.437.609-.685.762a2.1 2.1 0 0 0-.614.543c-.176.232-.535.372-.618.662a5.3 5.3 0 0 0-.3.915c-.03.31.225.637.255.943a5 5 0 0 0 .115.92 5 5 0 0 0 .266.908c.144.271.535.381.733.623.185.22.241.557.455.747a6 6 0 0 0 .746.442 6 6 0 0 0 .711.485.62.62 0 0 0 .826-.317.517.517 0 0 0-.178-.779c-.313-.126-.505-.445-.771-.641s-.626-.3-.835-.559a4 4 0 0 1-.388-.926c-.138-.3-.038-.637-.1-.969-.082-.35-.515-.677-.44-1.019a3 3 0 0 1 .355-1.126 1.37 1.37 0 0 1 1.239-.133 2.35 2.35 0 0 1 .948.6c.256.253.632.547.889.3s.047-.8-.2-1.058c-.008-.141.284-.177.282-.18"/><path fill="#0d4b08" d="M30.257 9.257c-.338.046-.6.531-.928.6s-.624.22-.949.321-.82-.281-1.136-.153-.537.485-.841.639-.506.473-.8.652-.55.379-.825.582c-.244.162-.426.384-.655.567s-.551.236-.764.437-.663.194-.858.413c-.185.247-.426.479-.6.733s-.158.642-.322.9-.48.431-.632.7a1.12 1.12 0 0 0 .3 1.258c.281.16.668-.206.89-.559.2-.347.412-.685.626-1.021s.65-.518.882-.841a8 8 0 0 1 .889-.742c.293-.261.437-.695.764-.915.29-.219.627-.368.935-.557a11 11 0 0 1 1-.427c.327-.158.558-.544.9-.669s.748-.048 1.1-.138.687-.265 1.047-.32a.67.67 0 0 0 .691-.61c0-.36-.328-.549-.688-.551M33.734 10.521a4 4 0 0 0-.675-.774c-.246-.19-.4-.506-.69-.629-.072-.047-.135-.318-.221-.322a1 1 0 0 0-.366.056c-.347.1-.487.687-.394 1.034l-.054.014a.68.68 0 0 0 .362.367c.29.124.719.091.968.284.065.051-.393.1-.328.148a3.6 3.6 0 0 1 .574.671 1 1 0 0 0 .56.273c.174 0 .132-.442.256-.564s.133-.065.133-.238c-.005-.088.026-.061.009-.147-.031-.109.2-.051.119-.131a.37.37 0 0 1-.253-.042M18.217 19.905a6 6 0 0 1-.621 1.248c-.039.052-.127.042-.166.1.065-.083-.12.024-.132.04-.093.116.074.445-.024.558-.194.224-.63.226-.836.437-.256.274-.228.848-.512 1.092a11 11 0 0 1-1.026.52c-.308.211-.5.638-.831.815-.312.182-.669.408-.487.72s.592.166.9-.016l.213.377c.271-.148.423-.511.68-.679s.6-.232.842-.42.23-.678.458-.885.507-.347.718-.572c.275-.259.673-.4.914-.688s.672-.465.876-.782a10 10 0 0 0 .537-1.025c.17-.314-.147-.819-.449-1.008a.69.69 0 0 0-.935.189c-.071.05-.119-.03-.121-.025M12.208 30.1c-.192.274-.178.676-.357.958s-.467.489-.632.78-.414.532-.566.83-.165.657-.3.962-.232.618-.356.929-.515.519-.624.835-.152.656-.246.977-.162.649-.241.974c-.089.349-.462.636-.54.987s.148.769.082 1.123-.4.667-.45 1.023-.058.726-.1 1.084.042.733.01 1.091-.142.716-.162 1.076.073.727.065 1.087.215.725.222 1.088-.353.738-.337 1.1.376.708.4 1.07-.271.746-.244 1.108.486.691.515 1.053-.155.74-.129 1.1.317.708.339 1.069-.374.738-.362 1.1.366.709.369 1.068-.43.715-.435 1.073.218.72.2 1.078-.178.707-.2 1.065.333.745.3 1.1-.163.709-.2 1.065c-.038.339-.27.655-.312.993s-.326.644-.371.982-.054.679-.1 1.016.141.708.092 1.046-.154.666-.2 1-.031.684-.082 1.021.142.711.091 1.048-.414.625-.463.963a.85.85 0 0 0 .479.933.95.95 0 0 0 .995-.546c.053-.359-.344-.795-.291-1.153s.135-.713.188-1.071.135-.712.187-1.071.132-.712.184-1.071.513-.66.563-1.019-.34-.769-.289-1.124.029-.725.075-1.085c.041-.336.6-.613.638-.95s-.167-.7-.139-1.036-.129-.687-.108-1.025.018-.674.032-1.012-.048-.675-.041-1.014.181-.671.181-1.01.327-.682.32-1.021c-.006-.363.042-.736.025-1.1s-.264-.717-.288-1.079.134-.74.1-1.1-.007-.728-.036-1.091-.528-.688-.554-1.051-.036-.728-.055-1.091.226-.737.216-1.1.11-.7.115-1.052-.239-.71-.222-1.062.107-.7.136-1.051.165-.689.2-1.039-.177-.735-.126-1.083.3-.666.365-1.013.03-.712.1-1.057c.063-.32.209-.621.287-.938s.031-.669.124-.981.223-.618.33-.926.392-.548.513-.851.087-.67.221-.968.42-.52.568-.811.471-.476.632-.76-.054-.787.12-1.063.219-.649.4-.918c.248-.354.252-.389-.045-.548-.281-.152-.406-.135-.64.2"/><path fill="#0d4b08" d="M13.491 30.711a11 11 0 0 0 .591-1.211c-.391-.08-.53-.1-.815.179.321.11.718.325 1.035.444s.531.5.845.623.752-.048 1.063.087.6.32.908.463c.3.125.6.267.894.4s.65.164.941.312.562.344.847.5.638.214.917.384.471.486.744.667.4.552.668.744a8 8 0 0 1 .75.654c.242.24.655.318.868.584s.209.674.391.963c.161.281.354.533.5.821s.655.4.791.7.067.685.191.984.46.514.572.818c.138.32.141.692.273 1.014s.165.686.291 1.01.385.6.505.928.273.645.388.973-.051.755.058 1.085.275.642.379.975.223.659.321.993-.094.748 0 1.083.461.567.538.891-.117.706-.049 1.032.176.639.235.967.232.633.282.963.008.668.048 1 .179.648.209.98.275.65.3.982c.025.411.2.855.522.863s.552-.417.525-.845c-.029-.354.257-.737.22-1.09s-.509-.654-.555-1.006.115-.731.061-1.081-.372-.654-.435-1 .278-.773.207-1.121-.483-.621-.562-.967.26-.792.173-1.136-.4-.63-.5-.972-.054-.724-.157-1.064-.576-.561-.686-.9-.135-.7-.253-1.033-.059-.733-.185-1.065-.032-.754-.166-1.083-.308-.644-.45-.969c-.123-.3-.467-.511-.59-.815s-.2-.628-.324-.93-.324-.575-.461-.872-.5-.48-.649-.77-.03-.727-.2-1.007-.3-.6-.486-.865-.376-.556-.594-.8-.759-.146-1.005-.368-.485-.427-.751-.625-.512-.408-.787-.594-.532-.382-.817-.554-.366-.7-.659-.856-.784.075-1.084-.069-.625-.218-.932-.348c-.312-.151-.408-.78-.724-.924s-.73-.072-1.05-.209-.707-.1-1.03-.23-.649-.234-.975-.355-.663-.166-.992-.279c-.285-.078-.417-.167-.568.088-.207.408-.719.63-.974 1.011a1.09 1.09 0 0 0 .286 1.245.98.98 0 0 0 1.077-.414c.043-.039.052.02.053.019"/><path fill="#0d4b08" d="M25.623 33.539c.11-.44.186-.909.261-1.356a.96.96 0 0 0-.27-.845c-.191-.211-.582-.124-.87-.266-.354-.177-.695-.357-1.056-.519s-.592-.619-.958-.771-.785-.171-1.153-.316c-.318-.125-.523-.547-.843-.668s-.737.018-1.059-.1-.633-.258-.956-.372-.677-.133-1-.244-.608-.336-.932-.444-.683-.113-1.008-.219-.554-.507-.879-.612c-.406-.133-.48.411-.562.733s-.181.406.213.535c.353.114.6.558.952.674s.71.219 1.062.338.753.1 1.105.216.65.391 1 .516.734.155 1.083.284c.3.11.5.479.8.593s.716-.078 1.012.04.575.287.869.412c.4.172.8.361 1.2.548a6 6 0 0 1 1.155.468c.166 0-.209.045-.288-.1.037-.133.269-.1.227.05-.027.1-.184.057-.211.157s-.255.055-.286.171c-.06.224-.107.455-.163.679-.084.352.339.693.691.776.334.079.806.047.91-.28.03-.044-.046-.076-.046-.077M10.3 84.349c.361.064.785-.262 1.148-.21s.709.189 1.074.229.716.178 1.082.207.736-.081 1.1-.064.721.445 1.088.451.737.033 1.1.027c.346.007.687-.4 1.032-.412s.727.423 1.076.393.679-.245 1.022-.291.722.067 1.062 0 .6-.526.934-.608.723.017 1.054-.082a8 8 0 0 0 .9-.519 8 8 0 0 0 .954-.4 9 9 0 0 0 .83-.617 10 10 0 0 0 .687-.769c.233-.247.423-.535.631-.805s.178-.691.362-.979.359-.553.52-.854.6-.458.739-.769.137-.681.253-1 .53-.551.626-.876-.08-.735 0-1.064.17-.665.225-1 .024-.7.079-1.047.229-.67.278-1.016-.013-.7.029-1.05.39-.659.427-1.006-.444-.743-.414-1.09.132-.685.156-1.032.39-.675.408-1.023.017-.7.029-1.048-.131-.7-.126-1.049c-.02-.361-.3-.757-.66-.737a.785.785 0 0 0-.628.735c-.005.335-.288.66-.3.995s.305.679.288 1.013-.086.666-.109 1-.06.666-.089 1 .066.679.031 1.012-.119.661-.16.993.044.682 0 1.013-.258.639-.311.969c-.033.318-.305.6-.357.912s-.1.618-.174.929.1.68.005.986-.417.531-.526.831-.178.605-.306.9.1.757-.046 1.041-.5.465-.661.741-.161.684-.354.935a9 9 0 0 1-.746.648 9 9 0 0 1-.781.574 9 9 0 0 1-.7.682 9 9 0 0 1-.845.513c-.354.128-.816-.032-1.176.07s-.708.251-1.076.327-.733.159-1.105.208-.764-.211-1.139-.189-.732.335-1.107.331c-.332.014-.667-.251-1-.247s-.656.049-.988.042-.663.1-.995.089-.653-.123-.984-.149-.667.048-1 .011-.688.14-1.016.093-.591-.464-.918-.52c-.346-.083-.632.369-.735.709s-.125.832.219.931c.059.046.085-.021.091-.02"/><path fill="#0d4b08" d="M34.825 71.5c-.307-.116-.734.088-1.041-.027s-.618-.222-.925-.337-.64-.167-.946-.284-.486-.566-.792-.684-.625-.234-.93-.356a1.045 1.045 0 0 0-1.041.59.985.985 0 0 0 .593.981c.305.121.746-.123 1.052 0s.578.322.885.438.577.33.884.445.661.108.968.224.479.625.786.741a1.18 1.18 0 0 0 1.129-.614c.085-.346-.487-.68-.828-.782-.077-.107.207-.33.206-.331M9.45 85.555c.22.227.274.624.518.822a8 8 0 0 0 .851.432c.267.168.391.617.675.753a9 9 0 0 0 .944.244c.348.119.754.056 1.11.144s.753-.032 1.116.024c.426.1.8.69 1.238.71a10 10 0 0 1 1.034.034c.351.037.709.022 1.06.055s.734-.276 1.086-.245.709-.034 1.061-.006.681.339 1.033.365.709-.031 1.062-.007.682.386 1.034.409.726-.3 1.078-.274.7.031 1.058.052.708-.03 1.06-.011.686.393 1.038.411.72.029 1.079.048l1.078.053c.359.018.721-.013 1.08 0s.736-.354 1.1-.337.714.126 1.073.142.714.137 1.073.153c.427.02.451-.252.445-.584s-.022-.887-.436-.906c-.331-.015-.661-.059-.992-.074s-.68.375-1.011.36-.641-.485-.972-.5-.67.147-1 .131-.652-.205-.983-.221-.682.363-1.013.346-.651-.231-.982-.248-.669.1-1 .08-.654-.167-.985-.187-.66-.048-.991-.068-.666.04-1 .018-.674 0-1.01-.027-.691.217-1.027.192-.671-.07-1.006-.1-.644-.383-.979-.413-.682.078-1.017.045c-.368-.02-.706-.368-1.073-.4s-.762.192-1.127.14-.726-.138-1.088-.206-.746-.047-1.106-.13a7 7 0 0 1-.917-.411 7 7 0 0 1-.947-.326c-.289-.161-.389-.6-.653-.8s-.857-.036-1.091-.272c-.293-.308-.306-.278-.535-.042s-.511.58-.226.883c.091.035.183-.258.184-.257M13.84 38.952c.256-.268.745-.188 1.059-.371s.43-.875.785-.967.8.442 1.174.451a4.7 4.7 0 0 1 1.057-.184c.357.05.818-.195 1.154-.065a5.3 5.3 0 0 1 .972.6c.269.209.165.783.372 1.041s.754.29.908.588a7 7 0 0 1 .479.915c.108.314-.267.77-.191 1.1s.261.619.312.948.507.615.544.941-.033.689 0 1.01-.343.676-.309.993.324.607.359.923.078.633.115.949-.063.65-.024.967-.089.655-.047.971.607.562.65.877.071.647.117.962c.014.373-.306.8-.2 1.156a4.6 4.6 0 0 0 .6.962 3.6 3.6 0 0 0 .943.655 3.3 3.3 0 0 0 .992.48 3.4 3.4 0 0 0 1.1.216c.383.015.767.136 1.15.151s.771-.1 1.155-.087.754.427 1.137.438.771-.08 1.154-.073.778-.328 1.165-.327.771.334 1.159.329a6 6 0 0 0 1.065-.078c.878-.177.36-.15.384-.215-.06-.1-.426.266-.533.211-.043-.021.236-.194.232-.146-.022.237-.232.484-.182.717.016.315.358.609.368.924s-.427.641-.421.957.271.626.272.941-.235.629-.237.945.49.635.486.95c-.005.4-.391.8-.4 1.2s-.052.8-.052 1.2a2.3 2.3 0 0 0-.052.418 5 5 0 0 1 .317-.477c-.176 0-.388.347-.564.364-.4.037-.832-.335-1.226-.305-.328.029-.643.191-.972.215s-.645.208-.973.227-.671-.263-1-.249-.638.621-.967.63-.67-.584-1-.58-.655.5-.985.5-.656-.262-.985-.268-.662.131-.992.119-.641-.358-.97-.375c-.349-.019-.711.092-1.071.071s-.719.131-1.075.1-.736.13-1.089.085-.618-.633-.966-.7-.693-.071-1.033-.171a9 9 0 0 1-1-.3c-.327-.14-.8 0-1.108-.186a8 8 0 0 1-.962-.6c-.275-.239-.347-.712-.585-.989a7.5 7.5 0 0 1-.722-.836c-.168-.316-.015-.781-.156-1.109s-.585-.532-.7-.871-.226-.684-.313-1.031-.228-.689-.287-1.042c-.068-.328.217-.721.156-1.05s-.127-.654-.181-.985-.105-.657-.152-.989-.14-.653-.181-.986-.464-.623-.5-.956.028-.679 0-1.013.054-.677.034-1.012-.168-.665-.18-1 .4-.683.389-1.018c-.013-.376.006-.75 0-1.125s-.42-.741-.425-1.118c-.02-.361-.2-.952-.563-.932-.333.018-.714.59-.732.924 0 .328-.172.665-.167.993s.408.65.418.979-.174.664-.159.992.167.65.187.978-.087.665-.062.992.044.658.074.985.144.647.179.974.114.648.154.974.347.615.392.94.075.648.125.973c.05.305-.22.664-.16.967s.259.577.329.879-.167.681-.088.98.428.526.517.822.156.6.255.893a8 8 0 0 0 .473.884 8 8 0 0 0 .39.929 8 8 0 0 0 .687.736c.217.254.232.715.48.941s.813.04 1.072.235a8 8 0 0 0 .745.587c.281.164.41.617.709.747a9 9 0 0 0 .934.329c.306.087.654.02.963.091s.592.286.905.34.645 0 .96.036.61.341.927.362c.35.031.727-.27 1.077-.245s.7.1 1.05.116.7.047 1.055.06.706-.106 1.058-.1.7.057 1.053.058.7-.132 1.052-.137.706.149 1.058.137.714.206 1.065.188.706-.049 1.057-.073c.414-.027.81-.313 1.224-.347s.849.169 1.262.13a6.4 6.4 0 0 0 1.136-.192c.357-.1.355-.5.484-.929a4.4 4.4 0 0 0 .286-1.133c.008-.44-.218-.885-.21-1.325 0-.286.149-.57.152-.856s.109-.572.11-.858-.142-.572-.144-.858c0-.421-.045-.838-.055-1.26s.269-.851.249-1.271a8 8 0 0 0-.14-1.16 1.04 1.04 0 0 0-.711-.853c-.339-.073-.7-.386-1.049-.344-.444.009-.869.317-1.313.318-.4 0-.791-.275-1.188-.28s-.791.034-1.188.024-.806.1-1.213.087-.813-.114-1.214-.13a10 10 0 0 1-1.06.1 11 11 0 0 1-1.1.09c-.492-.155-.709-.729-1.031-1.132-.189-.286-.595-.468-.621-.811-.06-.36.2-.765.148-1.127s-.533-.663-.581-1.026.117-.753.073-1.116-.349-.7-.39-1.059.33-.773.291-1.137-.422-.69-.46-1.052c-.035-.327.362-.7.326-1.038s-.3-.634-.347-.965.052-.683-.006-1.01-.5-.571-.579-.893-.076-.652-.185-.964a9 9 0 0 0-.2-.989c-.146-.3-.112-.727-.3-1a7 7 0 0 0-.679-.785c-.252-.267-.707-.335-1.008-.532a5.3 5.3 0 0 0-.946-.548 6 6 0 0 0-1.068-.229c-.355-.066-.72.145-1.084.139s-.729-.3-1.087-.251a7 7 0 0 0-1.091.166 7 7 0 0 0-1.045.374c-.285.136-.292.679-.532.88a3.2 3.2 0 0 0-.614.615c-.249.354-.176.336.121.5.281.151.374.246.608-.087.014-.025.144.063.149.058M55.8 62.391c.521 0 .521-.285 1.043-.285s.52-.028 1.041-.028.521.075 1.042.075.522-.039 1.044-.039.52.022 1.039.022.519.038 1.038.038.52.27 1.04.27.522-.484 1.045-.484.521.2 1.042.2.521.011 1.042.011.523-.018 1.046-.018.522.368 1.043.368.523-.6 1.046-.6.52.587 1.041.587.523-.206 1.046-.206.524-.356 1.048-.356.526.075 1.051.075.53.49 1.055.482c.361-.02.47-.6.45-.963-.019-.333-.124-.36-.457-.379-.522-.007-.518-.483-1.04-.483s-.52.13-1.041.13-.521.415-1.042.415-.522-.107-1.044-.107-.52-.411-1.039-.411-.519.257-1.038.257-.52.006-1.04.006-.522-.14-1.045-.14-.521-.17-1.042-.17-.521.528-1.042.528-.523-.019-1.046-.019-.522-.388-1.043-.388-.523.154-1.046.154-.52.19-1.041.19-.523.006-1.046.006-.524-.062-1.048-.062-.526-.1-1.051-.1-.523.122-1.048.13c-.362.02-.862.162-.842.523a1 1 0 0 0 .832.728"/><path fill="#0d4b08" d="M35.62 95.412c.007-.5.2-.5.2-1.006s.126-.5.126-1.008-.2-.5-.2-1.008.278-.5.278-1.009-.287-.5-.287-1.01.166-.506.166-1.012-.312-.505-.312-1.01.289-.5.289-1.009-.339-.5-.339-1.01.472-.505.472-1.011-.127-.506-.127-1.011.042-.506.042-1.011-.285-.5-.285-1.011-.029-.506-.029-1.011.075-.5.075-1.009-.039-.5-.039-1.007.023-.5.023-1.008.038-.507.038-1.013.27-.506.27-1.011-.484-.506-.484-1.011.2-.507.2-1.014.011-.507.011-1.013-.018-.507-.018-1.014.368-.505.368-1.01-.6-.507-.6-1.015.587-.508.587-1.016-.206-.51-.206-1.02-.349-.5-.356-1.015c-.02-.361-.043-.442-.4-.422-.333.019-.892.081-.911.414-.007.5.447.508.447 1.012s.084.5.084 1.008-.484.5-.484 1.008.13.5.13 1.009.415.505.415 1.01-.107.506-.107 1.012-.411.5-.411 1.01.258.5.258 1.009.005.505.005 1.01-.139.5-.139 1.011-.17.506-.17 1.011.528.505.528 1.011-.019.505-.019 1.011-.389.506-.389 1.011.155.5.155 1.008.19.5.19 1.007.006.5.006 1.009-.062.507-.062 1.013-.105.506-.105 1.011.13.506.13 1.011-.4.507-.4 1.014.1.507.1 1.013.339.507.339 1.014-.335.5-.335 1.01.056.507.056 1.015-.218.508-.218 1.016.56.51.56 1.02-.18.508-.172 1.017c.02.362.228.757.589.737.334-.018.452-.4.47-.737M98.6 67.1c0 .5.031.5.031 1.008s.119.5.119 1.008-.311.5-.311 1.008.365.5.365 1.009-.093.505-.093 1.01-.057.506-.057 1.012-.041.5-.041 1.01-.158.5-.158 1.009.232.505.232 1.01-.236.5-.236 1.011.4.506.4 1.011-.5.506-.5 1.011.443.505.443 1.011-.2.506-.2 1.011-.126.5-.126 1.009.2.5.2 1.007-.278.5-.278 1.008.286.507.286 1.013-.166.506-.166 1.011.313.506.313 1.011-.289.507-.289 1.014.338.507.338 1.013-.471.507-.471 1.014.127.5.127 1.01-.042.507-.042 1.015.285.508.285 1.016.028.51.028 1.02-.082.508-.075 1.018a.514.514 0 0 0 .616.512.5.5 0 0 0 .539-.512c.007-.5.038-.5.038-1.007s.271-.5.271-1.008-.484-.5-.484-1.008.2-.5.2-1.009.011-.5.011-1.01-.019-.506-.019-1.012.369-.505.369-1.01-.6-.5-.6-1.009.587-.5.587-1.01-.206-.505-.206-1.011-.356-.506-.356-1.011.075-.506.075-1.011.482-.5.482-1.011-.446-.506-.446-1.011-.084-.5-.084-1.009.483-.5.483-1.007-.13-.5-.13-1.008-.415-.507-.415-1.013.107-.506.107-1.011.411-.506.411-1.011-.257-.507-.257-1.014-.006-.507-.006-1.013.14-.507.14-1.014.17-.505.17-1.01-.528-.507-.528-1.015.019-.508.019-1.016.388-.51.388-1.02-.147-.509-.154-1.019c-.02-.361-.3-.428-.658-.408-.334.019-.395.087-.414.42"/><path fill="#fefffd" d="M32.521 63.822h69.367v4.342H32.521z"/><path fill="#0d4b08" d="M101.11 63.822c0 .541-.107.541-.107 1.083s.266.542.266 1.084.143.544.143 1.088-.473.548-.02.848c.386.256.855-.089.623-.489-.259-.447-.644.141-1.16.141s-.517.015-1.033.015-.517.17-1.033.17-.517-.014-1.033-.014-.517-.093-1.033-.093-.517-.216-1.033-.216-.517.021-1.034.021-.517-.02-1.034-.02-.517.36-1.034.36-.518-.181-1.036-.181-.517.007-1.035.007-.517.036-1.034.036-.517-.084-1.034-.084-.517-.133-1.034-.133-.517-.213-1.034-.213-.517.045-1.034.045-.517.348-1.034.348-.517.124-1.034.124-.517-.354-1.035-.354-.518.4-1.036.4-.514-.13-1.028-.13-.515.15-1.029.15-.515-.388-1.03-.388-.516.127-1.031.127-.516.123-1.032.123-.517-.067-1.034-.067-.518-.288-1.036-.288-.518.069-1.036.069-.517-.084-1.034-.084-.517.509-1.033.509-.516-.263-1.033-.263-.516-.157-1.032-.157-.516.29-1.032.29-.516-.279-1.032-.279-.516-.007-1.033-.007-.517.313-1.034.313-.518-.066-1.035-.066-.519-.161-1.038-.161-.518.161-1.036.161-.517-.318-1.035-.318-.517-.119-1.034-.119-.517.189-1.034.189-.518.237-1.035.237-.519-.075-1.037-.075-.519-.346-1.038-.346-.518.252-1.036.252-.518.041-1.036.041-.518-.166-1.036-.166-.519.047-1.038.047-.519.067-1.038.067-.518.031-1.036.031-.519.119-1.038.119-.519-.311-1.038-.311-.518.365-1.035.365-.516-.093-1.033-.093-.518-.057-1.035-.057-.52-.042-1.04-.042-.518-.157-1.037-.157-.518.232-1.037.232-.521-.236-1.041-.236-.519.4-1.039.4-.52-.5-1.04-.5-.518.443-1.036.443-.521-.2-1.042-.2-.521-.126-1.043-.126-.523.2-1.046.2-1.006-.6-1.275-.149c-.237.4.485 1.027.872.774.453-.3.157-.524.157-1.066s-.313-.542-.313-1.084.289-.544.289-1.088.212-.606-.241-.907c-.386-.255-.988.2-.756.6.259.447.738 0 1.254 0s.517.042 1.033.042.517-.285 1.033-.285.517-.028 1.033-.028.517.075 1.033.075.517-.039 1.033-.039.517.022 1.034.022.517.038 1.034.038.517.27 1.034.27.518-.483 1.036-.483.517.2 1.035.2.517.012 1.034.012.517-.019 1.034-.019.517.369 1.034.369.517-.6 1.034-.6.517.587 1.034.587.517-.206 1.034-.206.517-.356 1.034-.356.517.075 1.035.075.518.482 1.036.482.514-.446 1.028-.446.515-.084 1.029-.084.515.483 1.03.483.516-.13 1.031-.13.516-.415 1.032-.415.517.107 1.034.107.518.411 1.036.411.518-.257 1.036-.257.517-.006 1.034-.006.517.14 1.033.14.516.17 1.033.17.516-.528 1.032-.528.516.019 1.032.019.516.388 1.032.388.516-.154 1.033-.154.517-.191 1.034-.191h1.035c.517 0 .519.062 1.038.062s.518.105 1.036.105.517-.13 1.035-.13.517.4 1.034.4.517-.1 1.034-.1.518-.339 1.035-.339.519.334 1.037.334.519-.055 1.038-.055.518.218 1.036.218.518-.56 1.036-.56.518.172 1.036.172.519.225 1.038.225.519-.33 1.038-.33.518.445 1.036.445.519-.262 1.038-.262.519.236 1.038.236.518-.494 1.035-.494.516.375 1.033.375.518.036 1.035.036.52.117 1.04.117.518-.032 1.037-.032.518-.319 1.037-.319.52.407 1.041.407.519-.136 1.039-.136.52-.163 1.04-.163.518.3 1.036.3.521-.6 1.042-.6.521.6 1.043.6.523-.494 1.046-.494.524.265 1.047.257a.65.65 0 0 0 .534-.749c-.018-.333-.2-.855-.532-.873-.516-.007-.52.129-1.036.129s-.517.175-1.033.175-.517.2-1.033.2-.517-.541-1.033-.541-.517.078-1.033.078-.517.051-1.033.051-.517.343-1.034.343-.517.1-1.034.1-.517-.283-1.034-.283-.518.083-1.036.083-.517-.339-1.035-.339-.517.341-1.034.341-.517.01-1.034.01-.517.07-1.034.07-.517-.356-1.034-.356-.517.009-1.034.009h-1.034c-.517 0-.517.049-1.034.049s-.517.388-1.035.388-.518-.093-1.036-.093-.514-.1-1.028-.1-.515.132-1.029.132-.515-.417-1.03-.417-.516-.029-1.031-.029-.516.406-1.032.406-.517-.454-1.034-.454-.518.178-1.036.178-.518-.173-1.036-.173-.517.4-1.034.4-.517-.2-1.033-.2-.516.136-1.033.136-.516-.131-1.032-.131-.516-.008-1.032-.008-.516.082-1.032.082-.516.042-1.033.042-.517.266-1.034.266-.518-.018-1.035-.018-.519-.328-1.038-.328-.518.138-1.036.138-.517-.32-1.035-.32-.517.275-1.034.275-.517-.028-1.034-.028-.518.1-1.035.1-.519-.123-1.037-.123-.519.109-1.038.109-.518-.309-1.036-.309-.518.516-1.036.516-.518-.076-1.036-.076-.519-.345-1.038-.345-.519.014-1.038.014-.518.151-1.036.151-.519-.156-1.038-.156-.519.1-1.038.1-.518-.276-1.035-.276-.516.331-1.033.331-.518-.05-1.035-.05-.52-.011-1.04-.011-.518.128-1.037.128-.518-.047-1.037-.047-.521.13-1.041.13-.519-.163-1.039-.163-.52-.232-1.04-.232-.518.01-1.036.01-.521.256-1.042.256-.521-.24-1.043-.24-.523.049-1.046.049-.522.4-1.045.4c-.359.006-.6.024-.607.383 0 .542.234.541.234 1.083s-.141.542-.141 1.084-.1.544-.1 1.088.141.543.143 1.086c.006.359.116.434.475.439.516 0 .516.3 1.032.3s.517-.063 1.033-.063.517-.02 1.033-.02.517.3 1.033.3.517-.3 1.033-.3.517.273 1.033.273.517-.046 1.034-.046.517-.123 1.034-.123.509.067 1.03.067.518-.106 1.036-.106.517-.22 1.035-.22.517.372 1.034.372.517-.339 1.034-.339.517.32 1.034.32.517-.432 1.034-.432.517.212 1.034.212.517-.264 1.034-.264.517.413 1.034.413.517-.347 1.035-.347.518.433 1.036.433.514-.233 1.028-.233.515.145 1.029.145.515-.385 1.03-.385.516.1 1.031.1.516.194 1.032.194.517.243 1.034.243.518-.037 1.036-.037.518-.24 1.036-.24.517.055 1.034.055.517-.07 1.033-.07.516-.247 1.033-.247.516.316 1.032.316.516.07 1.032.07.516.037 1.032.037.516-.457 1.033-.457.517.028 1.034.028.518.029 1.035.029.519.027 1.038.027.518.415 1.036.415.517-.433 1.035-.433.517-.066 1.034-.066.517.527 1.034.527.518-.233 1.035-.233.519-.181 1.037-.181.519-.02 1.038-.02.518-.073 1.036-.073.518.171 1.036.171.518.33 1.036.33.519.061 1.038.061.519-.226 1.038-.226.518.186 1.036.186.519.05 1.038.05.519-.473 1.038-.473.518.013 1.035.013.516.26 1.033.26.518.117 1.035.117.52-.255 1.04-.255.518.067 1.037.067.518.1 1.037.1.52-.266 1.041-.266.519.195 1.039.195.52-.1 1.04-.1.518.077 1.036.077.521-.136 1.042-.136.521.032 1.043.032.523.185 1.046.185.523-.172 1.046-.174c.359-.005.752-.235.757-.594 0-.541.2-.541.2-1.083s-.445-.551-.445-1.09-.167-.544-.167-1.088.162-.542.156-1.086c-.014-.361-.157-.409-.519-.4-.342.014-.818.045-.831.386M10.889 93.87l-.2.894c-.1.446.115.5.012.944s-.245.416-.348.865.015.475-.094.922a.58.58 0 0 0 .453.733c.349.1.843 0 .939-.353.109-.445.072-.456.175-.9s.207-.423.311-.87-.155-.509-.052-.957-.04-.484.069-.931c.1-.349-.012-.391-.361-.487s-.743-.264-.839.085c-.058.066-.059.054-.06.057"/><path fill="#0d4b08" d="M10.54 86.8c-.09-.323-.163-.66-.241-.987s.159-.726.09-1.055.022-.686-.04-1.016-.468-.6-.527-.927-.043-.676-.1-1.007-.242-.638-.3-.967c-.062-.349-.19-.688-.252-1.037s.3-.772.235-1.121-.41-.65-.469-1 .157-.747.1-1.1-.247-.678-.3-1.028-.3-.67-.353-1.02-.235-.68-.293-1.03-.139-.7-.2-1.047.1-.736.045-1.086-.221-.689-.278-1.041-.223-.689-.28-1.041.463-.8.406-1.153-.215-.689-.272-1.042-.567-.632-.625-.985.335-.778.278-1.131-.192-.693-.249-1.046-.274-.68-.331-1.033-.08-.711-.137-1.064-.3-.682-.359-1.038-.167-.7-.222-1.061-.069-.718-.127-1.075.333-.788.271-1.144-.077-.725-.147-1.079-.307-.68-.386-1.031a10 10 0 0 0-.215-.925 7 7 0 0 0-.38-.877c-.14-.282-.478-.449-.667-.693s-.492-.333-.742-.52a2.6 2.6 0 0 0-.76-.426c-.277-.113-.5-.325-.787-.331s-.68-.256-.956-.158-.457.489-.684.682a1.65 1.65 0 0 0-.249 1.29c.038.3.149.581.2.876s.072.593.117.888c.053.344-.028.707.023 1.051s-.079.713-.028 1.057.679.6.728.947-.057.71-.008 1.054-.22.733-.172 1.077.1.688.144 1.032.317.657.364 1-.05.707 0 1.052.206.673.253 1.017.137.682.183 1.027-.133.718-.088 1.062.123.685.168 1.029-.016.7.029 1.047.353.655.4 1 .227.643.27.973.194.647.236.977-.345.716-.3 1.046.3.633.339.964.1.658.143.988.254.639.3.969.071.662.115.992-.006.673.038 1-.127.688-.083 1.018.109.658.153.988.07.663.115.993.447.61.493.94-.087.684-.041 1.014.1.632.142.948.127.627.174.944.011.644.06.96-.033.653.018.968-.107.66-.053.975a10 10 0 0 0 .237 1.091c.082.356.52.616.641.96a10 10 0 0 0 .524.947c.158.328.02.815.213 1.126.2.292.722.3.955.54a6.3 6.3 0 0 0 .658.758 6.6 6.6 0 0 0 .919.413c.3.164.438.653.759.778a10 10 0 0 0 1.021.2c.33.089.684.042 1.024.1s.659.175 1 .214.662.355 1.005.376.7-.034 1.039-.026.695.1 1.034.1c.523 0 .523-.509 1.047-.509s.524.263 1.048.263.522.157 1.044.157.521-.29 1.042-.29.523.279 1.045.279.524.007 1.049.007.523-.313 1.047-.313.523.066 1.046.066.526.161 1.051.161.524-.161 1.048-.161.525.318 1.05.318.523.119 1.046.119.525-.189 1.051-.189.526-.237 1.052-.237.528.074 1.056.074.532.354 1.06.347c.361-.02.676-.625.656-.987a.694.694 0 0 0-.66-.616c-.5-.007-.5-.166-1.005-.166s-.5.047-1.006.047-.505.067-1.01.067-.5.031-1.008.031-.5.119-1.009.119-.505-.311-1.011-.311-.505.365-1.01.365-.506-.094-1.011-.094-.5-.056-1.008-.056-.506-.042-1.012-.042-.507-.157-1.014-.157-.508.232-1.017.232-.508-.236-1.016-.236c-.349 0-.7.407-1.046.411s-.706-.494-1.057-.49-.7.451-1.047.452-.7-.2-1.05-.209-.693-.143-1.043-.16-.71.158-1.058.126c-.386-.019-.721-.336-1.1-.4s-.808.12-1.174 0a9 9 0 0 1-1.007-.573c-.347-.164-.84-.08-1.166-.289-.279-.2-.344-.641-.565-.883s-.7-.321-.872-.606.1-.793-.031-1.1a9 9 0 0 1-.442-.883c-.093-.318-.128-.643-.2-.971s-.408-.6-.462-.932-.13-.661-.177-.988-.02-.677-.069-1c-.052-.346-.142-.686-.193-1.032s-.079-.7-.128-1.042-.061-.7-.11-1.044.172-.73.125-1.076-.574-.628-.62-.975.105-.72.059-1.067-.08-.695-.126-1.042-.108-.691-.152-1.038.275-.741.231-1.088-.684-.618-.729-.964.493-.769.449-1.116c-.043-.331-.291-.636-.334-.968s-.438-.617-.481-.949-.012-.672-.055-1 .392-.725.349-1.057-.529-.605-.573-.936-.17-.652-.213-.983.392-.726.348-1.058-.217-.646-.261-.977-.5-.607-.545-.939.017-.676-.028-1.008.318-.718.272-1.049-.346-.627-.392-.958-.1-.662-.144-.993.046-.681 0-1.012c-.056-.4.055-.816 0-1.212s-.638-.715-.7-1.11-.1-.793-.158-1.188c-.043-.286.3-.63.254-.916s-.24-.549-.284-.835c-.04-.256-.284-.492-.308-.75a1 1 0 0 1 .02-.41c-.011.036.122-.021.086-.012.078-.021.189.051.269.038.188-.029.408-.162.6-.14.283.036.389.494.616.666a3 3 0 0 1 .669.65c.172.281.615.465.7.787.088.3-.155.7-.082 1s.192.6.25.914-.108.656-.065.97c.063.368.679.646.741 1.014s-.046.765.014 1.133-.1.773-.04 1.141c.054.33.434.608.488.938s-.332.733-.278 1.063.366.619.42.949-.127.7-.073 1.03.6.582.648.912-.263.721-.21 1.052.072.667.126 1-.008.68.045 1.011.139.656.193.986c.057.351.428.649.485 1s-.286.766-.229 1.116.249.678.306 1.028.276.674.334 1.023-.179.749-.12 1.1.7.6.763.951-.473.8-.413 1.15.606.616.666.966-.133.743-.073 1.093c.057.322.256.62.312.943s-.217.7-.16 1.027.241.624.3.946.29.614.35.936.315.606.378.928-.4.751-.332 1.072.213.628.286.948c.068.3.192.6.274.9.109.345.578.318.923.209.327-.1.4-.052.324-.386-.1-.082-.083-.145-.083-.146M125.9 88.143c.086-.309.02-.656.1-.969s.527-.541.593-.855.057-.648.117-.963-.032-.66.024-.976-.088-.669-.033-.985.271-.6.327-.918c.06-.336-.064-.7-.005-1.038s.3-.639.358-.974.023-.687.08-1.023.377-.626.434-.962-.018-.693.038-1.029-.012-.692.044-1.028.288-.642.343-.978.252-.649.308-.984-.017-.693.038-1.029.292-.663.349-1.008.055-.7.112-1.048-.05-.718.006-1.064-.245-.75-.188-1.1.336-.656.392-1 .4-.645.456-.991-.045-.717.011-1.063.075-.7.131-1.044.156-.685.211-1.031c.059-.362.032-.737.09-1.1s.055-.733.113-1.1-.1-.758-.035-1.119.429-.671.49-1.033.355-.681.418-1.042-.358-.808-.292-1.168.671-.65.773-1.049-.307-.971-.13-1.319.713-.492 1.031-.733a1.38 1.38 0 0 1 .836-.19 1.6 1.6 0 0 1 .452.071c.047.009.242-.3.238-.3-.121-.019.3.074.26.152-.028.143-.4.114-.409.221-.03.294.008.6-.037.9s-.257.546-.3.832-.014.583-.057.869c-.05.335-.291.642-.34.978s.4.743.353 1.078-.324.638-.372.973-.179.659-.226.995.25.719.2 1.054-.106.669-.152 1.005-.407.627-.453.963-.248.65-.293.986.258.718.213 1.054-.163.662-.208 1 .04.688-.005 1.024-.021.68-.065 1.016-.509.617-.552.953.2.71.16 1.046-.366.646-.41.987.042.7 0 1.041.091.705.047 1.046.031.7-.013 1.039-.065.686-.109 1.027-.308.654-.352 1 .017.7-.028 1.037.018.7-.027 1.038-.672.605-.717.946.008.694-.038 1.035.361.744.314 1.085-.545.619-.593.959c-.043.307-.009.624-.053.931s.071.636.026.943-.124.608-.172.914.1.643.046.948-.043.615-.1.92a10 10 0 0 1-.212 1.017c-.074.332-.6.534-.714.855a9 9 0 0 1-.42.9 9 9 0 0 1-.326.952 4.5 4.5 0 0 1-.7.752 5 5 0 0 1-.808.638c-.3.183-.521.518-.852.65a9 9 0 0 1-.978.481c-.339.087-.712.136-1.064.191s-.729-.07-1.082-.04-.721-.263-1.073-.25-.7.271-1.05.274-.717.033-1.059.033c-.505 0-.505.067-1.009.067s-.5-.024-1.01-.024-.5-.135-1.006-.135-.5-.184-1-.184-.5.584-1.006.584-.506-.159-1.012-.159-.5-.321-1.008-.321h-1.009c-.506 0-.506.223-1.013.223s-.5-.145-1.01-.145-.506.115-1.012.115-.5.046-1.008.046-.506-.227-1.013-.227-.507.033-1.014.033-.509-.107-1.018-.107-.508.259-1.017.266c-.361.02-.461.285-.441.646.019.333.111.322.445.341.518.007.514.433 1.032.433s.518-.213 1.037-.213.521-.016 1.042-.016.52-.17 1.04-.17.52.015 1.04.015.521.092 1.043.092.521.216 1.042.216.521-.021 1.043-.021.519.02 1.038.02.522-.36 1.044-.36.523.182 1.046.182.524-.008 1.048-.008.526-.041 1.05-.036c.358.015.715.109 1.073.116s.714.142 1.072.141.721.209 1.079.2.719-.064 1.076-.08.7-.382 1.054-.4.7-.173 1.058-.2c.329-.027.7.282 1.019.222s.541-.525.856-.618a9 9 0 0 0 .952-.2 10 10 0 0 0 .805-.547c.289-.156.763.01 1.036-.176a6 6 0 0 0 .651-.741 6 6 0 0 0 .516-.813 7 7 0 0 0 .553-.779c.149-.287.544-.47.66-.774s.153-.644.242-.958.249-.615.318-.934-.372-.73-.316-1.05.364-.594.413-.914.252-.619.3-.938-.188-.705-.139-1.036.373-.623.421-.955.1-.663.147-.994-.218-.707-.172-1.039.156-.654.2-.986.248-.643.292-.975-.072-.685-.028-1.018.4-.623.446-.955.205-.649.248-.982-.1-.689-.06-1.021-.149-.695-.106-1.027.16-.655.2-.987.432-.639.476-.981-.162-.715-.118-1.057.048-.688.092-1.029.254-.662.3-1 .043-.689.087-1.031.024-.691.069-1.033.059-.687.1-1.028-.026-.7.019-1.04.4-.641.446-.982-.269-.732-.222-1.073.186-.67.233-1.011.151-.674.2-1.015.136-.676.185-1.017.253-.66.3-1c.056-.394-.116-.82-.058-1.214s.349-.751.408-1.144-.282-.847-.223-1.24c.045-.3.592-.511.64-.806s-.344-.662-.309-.958a1.6 1.6 0 0 0-.08-1.28 2.8 2.8 0 0 0-.739-.574c-.277-.1-.632.042-.925.049s-.675-.2-.952-.084c-.382.14-.624.612-.928.874a3.6 3.6 0 0 0-.9.851c-.18.352-.053.84-.189 1.21s-.526.663-.618 1.047.174.831.129 1.224c-.061.347-.587.621-.647.969s.008.717-.05 1.065-.157.69-.214 1.038.171.714.115 1.049-.081.673-.136 1.007-.183.656-.238.991-.07.675-.124 1.009-.13.665-.184 1-.145.662-.2 1-.375.625-.429.959.37.746.316 1.08-.305.637-.359.971-.118.652-.171.979-.088.657-.142.983-.47.594-.523.921.484.751.43 1.078-.687.557-.741.884.1.687.041 1.014.242.712.188 1.038-.184.641-.239.968-.587.572-.642.9.328.729.272 1.055-.034.691-.092 1.029-.592.594-.651.932.01.7-.051 1.036.287.751.224 1.089-.233.657-.3.994-.537.591-.608.927.109.725.033 1.06c-.071.317-.141.637-.228.952a.69.69 0 0 0 .414.857c.334.079.926-.1 1.029-.422.007-.016-.2-.091-.2-.092"/><path fill="#0d4b08" d="M123.151 95.289c.1.446.16.433.263.879s.2.424.3.871.065.457.168.9.221.416.33.863c.1.345.2.8.549.712s.354-.6.27-.948c-.1-.445.065-.485-.038-.931s-.249-.413-.352-.86.277-.536.174-.984-.171-.436-.28-.883a.91.91 0 0 0-1.006-.455c-.341.1-.388.435-.3.781.013.03-.078.05-.078.05"/></g></svg>