<svg xmlns="http://www.w3.org/2000/svg" xmlns:xlink="http://www.w3.org/1999/xlink" width="109.706" height="122.93" viewBox="0 0 109.706 122.93"><defs><clipPath id="a"><rect width="109.706" height="122.93" transform="translate(0.138 0.268)" fill="none"/></clipPath></defs><g transform="translate(-0.138 -0.268)"><g clip-path="url(#a)"><path d="M1.134,111.345c.511.008.515-.291,1.026-.291s.51-.105,1.021-.105.511.132,1.022.132.511-.092,1.022-.092.511-.08,1.021-.08.511.267,1.022.267.511.125,1.022.125.511.087,1.022.087.512-.126,1.023-.126.511-.435,1.023-.435.511.48,1.023.48.511.017,1.023.017.512-.248,1.024-.248.512.226,1.025.226.512-.339,1.025-.339.512.313,1.025.313.513.082,1.026.082.513-.53,1.026-.53.513.011,1.025.011.513.136,1.025.136.512.385,1.024.385.512-.231,1.024-.231.512.281,1.024.281.512-.086,1.023-.086.512-.355,1.024-.355.511.007,1.023.007.512.179,1.023.179.512-.247,1.024-.247.512-.049,1.023-.049.512.16,1.024.16.512.151,1.025.151.512.177,1.024.177S34.4,111,34.916,111s.512-.09,1.025-.09.514.251,1.027.251.513-.025,1.026-.025.513-.2,1.026-.2.513.332,1.025.332.513.008,1.025.008.512-.371,1.025-.371.512.305,1.024.305.512-.334,1.025-.334.512.036,1.024.036.512.152,1.025.152.512.14,1.025.14.513-.184,1.025-.184.513-.189,1.026-.189.514.169,1.027.169.514-.121,1.027-.121.513.224,1.026.224.513-.175,1.026-.175.512.416,1.025.416.513-.251,1.025-.251.513.12,1.026.12.512.084,1.025.084.513-.216,1.026-.216.513.149,1.026.149.514.171,1.028.171.51.005,1.02.005.51-.451,1.021-.451.51.332,1.021.332.511-.446,1.023-.446.511.435,1.023.435.513-.067,1.026-.067.513-.285,1.027-.285.513.066,1.027.066.513.365,1.026.365.512.02,1.025.02.512,0,1.024,0,.512-.412,1.023-.412.512.277,1.024.277.512.133,1.023.133.513-.534,1.025-.534.513.219,1.026.219.513.351,1.027.351.514-.386,1.029-.386.514.116,1.027.116.514-.317,1.027-.317.513.469,1.025.469.513-.275,1.026-.275.514.247,1.027.247.514.053,1.028.053.515-.394,1.03-.394.513.217,1.027.217.514.037,1.028.037.513-.089,1.027-.089.515.285,1.03.285.514-.051,1.029-.051.514-.4,1.028-.4.515.243,1.029.243.515.1,1.03.1.513.059,1.026.059.513-.411,1.025-.411.513.146,1.026.146.516.313,1.031.313.515-.527,1.029-.527.515.036,1.029.036.516.2,1.032.2.515-.189,1.031-.189.516.006,1.032.006.513.029,1.027.029.517.188,1.033.188.517.042,1.035.042.518.207,1.037.207.517-.467,1.036-.472c.285-.012.55.088.729-.107s.126-.461.113-.747c-.023-.536-.3-1.006-.84-1.03-.511-.008-.511.322-1.022.322s-.511-.207-1.022-.207-.511-.138-1.022-.138-.511.285-1.021.285-.511-.416-1.022-.416-.511.38-1.022.38-.511.029-1.022.029-.511-.011-1.022-.011-.511-.489-1.023-.489-.511.382-1.022.382-.512-.033-1.023-.033-.512-.149-1.024-.149-.512.1-1.024.1-.512-.044-1.024-.044-.513-.165-1.025-.165-.513.176-1.026.176-.513.056-1.026.056-.513-.014-1.026-.014-.512-.2-1.025-.2-.512-.038-1.025-.038-.512.43-1.024.43-.512.071-1.024.071-.512-.491-1.023-.491-.512.334-1.024.334-.512-.107-1.023-.107-.512-.309-1.024-.309-.511.264-1.023.264-.512-.1-1.023-.1-.512.372-1.024.372-.512-.343-1.024-.343-.512-.116-1.024-.116-.513.342-1.025.342-.513-.152-1.025-.152-.513-.285-1.026-.285-.513.1-1.027.1-.513-.015-1.026-.015-.513.3-1.026.3-.512.026-1.025.026-.512-.371-1.025-.371-.512-.034-1.024-.034-.513.2-1.025.2-.512-.106-1.024-.106-.513.2-1.025.2-.512.109-1.024.109-.513.086-1.026.086-.512-.411-1.025-.411-.513.015-1.026.015-.514.354-1.027.354-.513.046-1.027.046-.513-.123-1.026-.123-.513.038-1.025.038-.513-.14-1.026-.14-.512.153-1.025.153-.513.131-1.025.131-.513-.023-1.026-.023-.513-.366-1.026-.366-.513.1-1.026.1-.514.238-1.027.238-.51-.5-1.021-.5-.51.181-1.02.181-.511.4-1.022.4S45.853,109,45.342,109s-.512.245-1.024.245-.513.03-1.025.03-.514-.448-1.027-.448-.514.172-1.028.172-.513.349-1.026.349-.512-.268-1.024-.268-.512.031-1.024.031-.512-.063-1.024-.063-.512.291-1.023.291-.512-.29-1.024-.29-.512.139-1.025.139-.512-.135-1.025-.135-.514-.141-1.028-.141-.514.307-1.029.307-.513-.444-1.027-.444-.513.548-1.026.548-.513-.04-1.026-.04-.513-.1-1.026-.1-.513-.126-1.027-.126-.514.046-1.028.046-.515-.174-1.029-.174-.514.072-1.028.072-.514.02-1.027.02-.514.215-1.028.215-.515-.471-1.029-.471-.515.5-1.029.5-.515-.41-1.029-.41H16.6c-.515,0-.515.208-1.03.208s-.513.227-1.026.227-.512.025-1.025.025-.513-.388-1.026-.388-.515.1-1.031.1-.514.3-1.029.3-.514-.177-1.029-.177-.516-.381-1.032-.381-.515-.014-1.03-.014-.516.118-1.032.118-.514-.074-1.028-.074-.516.155-1.033.155-.517-.086-1.034-.086-.519.076-1.038.076-.521-.151-1.04-.146c-.285.012-.327.567-.506.762s-.641.274-.629.559a1.418,1.418,0,0,0,1.134,1.224" fill="#0d4b08"/><path d="M46.1,61.973c3.02,5.364,7.443,12.714,9.707,16.522H56.4c3.361-5.642,11.435-18.96,12.738-22.239a50.5,50.5,0,0,1,9.705,3.6l9.468,5.388a99.984,99.984,0,0,1,9.666,21.766c1.181,3.979,1.532,8.484-.607,12.041s-6.8,5.117-10.886,4.341-7.585-3.525-10.1-6.835v17.667H24.154c-5.253-1.458-10.328-4.2-11.6-9.9-2.111-9.477,2.748-23.692,7.813-31.585,5.516-8.6,13.077-12.593,22.889-16.142.5,1.133,1.542,3.071,2.841,5.376" fill="#fefffd"/><path d="M56.4,78.5c3.361-5.642,11.435-18.959,12.738-22.239a54.77,54.77,0,0,1,5.491,1.756,12.105,12.105,0,0,0-.4,1.711,9.438,9.438,0,0,0,.762,6.134,4.3,4.3,0,0,0,.274.431L73.736,68.01c.635,2.56,1.258,5.169,1.834,7.582v6.756H31.023v-20.1A63.74,63.74,0,0,1,43.26,56.6c1.658,3.771,9.3,16.454,12.543,21.9" fill="#c6c6c6"/><path d="M72.888,29.531A2.78,2.78,0,0,1,74.9,28.8a2.582,2.582,0,0,1,2.319,1.288,7.714,7.714,0,0,1,.226,5.443,8.4,8.4,0,0,1-2.467,4,3.062,3.062,0,0,1-2.364.682l-.163-.027c-.28.817-.63,1.543-.748,1.9a23.865,23.865,0,0,1-6.132,8.2v2.036c-1.713,1.365-6.232,4.715-8.727,6.755H55.42c-3.619-2.287-6.64-4.562-8.6-6.037V51.441A18.224,18.224,0,0,1,42.2,47.4a20.907,20.907,0,0,1-3.888-7.211,3.028,3.028,0,0,1-2.5-.656,8.4,8.4,0,0,1-2.467-4,7.714,7.714,0,0,1,.226-5.443A2.582,2.582,0,0,1,35.892,28.8a2.78,2.78,0,0,1,2.011.736s-2.065-16.4,17.492-16.4,17.493,16.4,17.493,16.4" fill="#fefffd"/><path d="M42.13,55.322a10.092,10.092,0,0,0,1.551-.624,5.113,5.113,0,0,0,2.974-3.2s.009-.048.023-.137A18.437,18.437,0,0,1,42.2,47.4a20.9,20.9,0,0,1-3.889-7.213,3.023,3.023,0,0,1-2.5-.654,5.943,5.943,0,0,1-.448-.406,8.836,8.836,0,0,0-1.23,3.583q-.039.313-.063.651c-.032.423-.045.873-.038,1.354.027,1.591.429,3.22.506,4.811s-.338,3.146-1.849,3.656c-.06.02-.074.215-.071.265a.7.7,0,0,0,.121.339,2.33,2.33,0,0,0,.776.678,10.755,10.755,0,0,0,7.023,1.229,11,11,0,0,0,1.6-.366Z" fill="#407b3e"/><path d="M34.384,39.3c-.138.289-.508.463-.622.761s-.507.516-.6.822.1.7.036,1.01.068.653.028.97-.521.6-.536.92.589.641.6.961-.209.641-.172.959c.028.3.143.591.183.892s-.2.64-.157.94.064.6.1.9.128.595.147.9c.062.4.313.819.246,1.212a4.089,4.089,0,0,1-.42,1.183c-.172.237-.6.188-.868.3-.307.12-.409.538-.551.812a1.175,1.175,0,0,0-.122.866,1.976,1.976,0,0,0,.454.951,3.731,3.731,0,0,0,.888.6c.318.195.492.691.8.829s.63.235.937.34.71-.078,1.024,0,.648.044.968.1.619.227.942.256.648-.047.973-.044.635-.086.96-.109.669.208.991.159a9.761,9.761,0,0,0,1.1-.046,10.064,10.064,0,0,0,1.091-.213,9.76,9.76,0,0,0,.977-.534c.325-.155.426-.706.731-.9s.873-.006,1.155-.232a9.7,9.7,0,0,0,.832-.726c.253-.255.311-.7.535-.981.141-.247.385-.563.318-.818s-.492-.315-.737-.46-.5-.455-.756-.388a1.484,1.484,0,0,0-.8.5c-.209.3-.063.919-.341,1.163a6.294,6.294,0,0,1-.94.662,8.326,8.326,0,0,1-1.076.375c-.34.137-.806-.114-1.16-.019s-.659.4-1.015.453c-.374.06-.757-.182-1.109-.162a10.188,10.188,0,0,1-1.113.1c-.38-.018-.791.3-1.167.237a10.989,10.989,0,0,1-1.129-.249,8.224,8.224,0,0,1-1.3-.67c-.224-.109-.564-.013-.778-.142-.075-.041-.195-.058-.265-.107-.371-.282.26-.291-.031.132-.277.274-.491.066-.73.373.347-.128.844-.046,1.109-.232.295-.206.317-.71.523-.975a3.577,3.577,0,0,0,.415-.9c.129-.314.457-.562.521-.906a7.472,7.472,0,0,0,.088-1.035c.014-.342-.193-.679-.214-1.024s.274-.722.23-1.059-.077-.655-.118-.985-.447-.616-.48-.945.245-.686.227-1.016-.361-.659-.358-.989.058-.679.09-1.007a9.859,9.859,0,0,1,.3-.971,8.221,8.221,0,0,1,.4-.916,7.28,7.28,0,0,1,.213-.986c.191-.377-.016-.552-.195-.833-.194-.307-.312-.556-.657-.58s-.415.134-.614.531" fill="#0d4b08"/><path d="M55.806,78.5C52.917,73.637,46.518,63.013,43.993,58.1c.224-.562,1.517-3.793,1.9-4.8a.6.6,0,0,1,.769-.357.592.592,0,0,1,.156.085c1.961,1.475,4.983,3.75,8.6,6.037h1.422c2.5-2.041,7.014-5.39,8.727-6.755a.6.6,0,0,1,.951.3c.329,1.09.671,2.143,1.2,3.948l1.133.359C66.92,61.048,59.569,73.176,56.4,78.492" fill="#fefffd"/><path d="M37.838,29.673a2.746,2.746,0,0,0-1.984-.726,3.589,3.589,0,0,0-.576.065c-.3-1.062-.765-3.077-.765-3.077a25.8,25.8,0,0,1-.02-8.682C36.364,8.072,45.6.786,55.283,1.324a19.187,19.187,0,0,1,8.46,1.5A21.165,21.165,0,0,1,74.611,12.985a18.309,18.309,0,0,1,.929,2.289c.1.3.189.6.273.908.095.354.182.714.253,1.074.588,2.831,1.308,8.391.032,11.942a3.1,3.1,0,0,0-1.159-.248,2.744,2.744,0,0,0-1.983.726l-2.237-1.031a22.321,22.321,0,0,1-5.86-6.113,43.236,43.236,0,0,1-2.737-5.466C55.591,22.3,49.263,27.533,38.468,29.2l-.629.478Z" fill="#407b3e"/><path d="M36.088,28.8c-.111-.36-.255-.721-.349-1.085s-.132-.752-.211-1.119-.039-.765-.1-1.136-.061-.754-.107-1.127-.006-.755-.036-1.13c-.029-.35-.3-.688-.311-1.038s-.085-.711-.078-1.06.08-.709.1-1.058.363-.672.4-1.019.209-.669.268-1.014-.3-.772-.228-1.114.561-.577.654-.915c.109-.329-.259-.827-.133-1.148s.64-.488.782-.8-.032-.791.126-1.1.519-.515.693-.813.462-.527.651-.815.263-.661.467-.939.377-.592.6-.859.547-.447.779-.7.645-.332.891-.575.272-.714.53-.944.6-.357.874-.574.382-.647.663-.85.667-.263.957-.451.5-.527.8-.7.64-.293.948-.45.721-.1,1.037-.244.525-.555.848-.679.746.016,1.075-.091.738.088,1.073,0,.6-.439.935-.512.649-.32.992-.375c.4-.049.837.366,1.234.339s.773-.65,1.172-.657.805.239,1.2.253c.312-.009.624-.091.934-.087s.611.3.921.318.612.059.921.089.619,0,.927.045.658-.163.963-.107c.341.074.686.168,1.019.259s.576.494.9.6.739-.012,1.062.113.638.282.954.424.613.329.922.487.659.246.958.42.4.669.69.858.577.36.859.563.729.179,1,.4.606.365.865.6.424.568.67.812.554.433.788.69.526.471.746.74.222.707.429.987.3.628.489.918.291.615.468.914c.174.317.444.566.6.89s.705.476.845.808-.173.846-.05,1.185.218.676.324,1.021.44.621.528.971-.056.747.014,1.1.462.651.514,1.009-.216.753-.184,1.112,0,.716.033,1.075.592.67.616,1.028.031.726.039,1.085-.125.727-.132,1.084-.411.693-.441,1.049.159.732.1,1.085-.4.637-.482.985a10.291,10.291,0,0,1-.216,1.036c-.076.275.293.556.425.786a.794.794,0,0,0,.542.43c.275.076.546.2.777.07s.2-.446.271-.722l-.045-.016c.1-.332.338-.617.416-.953s.3-.644.36-.984.291-.663.334-1.006-.271-.725-.246-1.07-.048-.686-.043-1.031.257-.689.245-1.034-.057-.691-.087-1.036-.268-.667-.316-1.01c-.025-.354.274-.742.236-1.095s-.076-.712-.129-1.063-.477-.637-.544-.986.158-.757.077-1.1-.493-.6-.588-.945-.159-.684-.269-1.021-.079-.718-.2-1.051-.123-.717-.259-1.045-.466-.546-.627-.853-.488-.513-.664-.811-.207-.676-.4-.967-.481-.5-.681-.784-.231-.689-.444-.961-.568-.424-.8-.685-.155-.8-.4-1.049-.666-.322-.917-.561-.429-.562-.69-.789-.481-.517-.754-.731-.682-.252-.964-.454-.487-.52-.778-.708-.507-.521-.806-.695-.614-.352-.922-.512-.82.092-1.134-.053-.5-.589-.823-.719-.8.165-1.129.049c-.345-.123-.554-.649-.9-.753S61.291.8,60.937.715s-.769.12-1.128.055-.7-.184-1.065-.23S58.052.095,57.688.069,56.946.008,56.581,0s-.743,0-1.108.015c-.344.01-.683.414-1.027.408S53.754.137,53.41.152,52.711.063,52.374.1s-.61.607-.945.657S50.728.645,50.4.712,49.646.512,49.317.6s-.56.545-.884.644-.683.094-1,.208-.518.529-.833.658-.81-.164-1.118-.02-.482.534-.778.687-.708.1-.994.263-.608.3-.888.477-.337.692-.609.883-.665.214-.928.418-.546.386-.8.6-.444.5-.687.73-.685.259-.917.5-.43.523-.652.771-.135.76-.345,1.018-.6.369-.8.636-.475.485-.66.761-.419.531-.593.816.016.777-.144,1.069-.44.514-.588.813-.574.477-.707.783.25.827.14,1.151-.245.631-.34.96-.378.6-.459.937.033.7-.032,1.04-.128.665-.178,1-.12.667-.154,1.008-.249.665-.268,1.007-.073.685-.076,1.028-.207.695-.195,1.038.5.659.529,1-.167.7-.125,1.043.252.652.311.991-.056.707.017,1.042.467.589.556.921c.071.29-.059.632.015.921s.017.614.1.9c.087.272.436.266.671.387s.47.537.742.45.238-.531.363-.75.2-.221.135-.484c-.076-.062-.047-.109-.047-.11" fill="#0d4b08"/><path d="M71.14,27.9c-.294-.2-.485-.546-.765-.761s-.56-.431-.826-.662-.669-.326-.922-.572-.222-.77-.461-1.03-.418-.558-.643-.83-.445-.535-.657-.817-.555-.464-.754-.755-.586-.465-.772-.765-.4-.591-.578-.9-.3-.65-.461-.963-.22-.685-.371-1-.244-.666-.384-.989-.2-.679-.33-1c-.083-.27-.421-.3-.65-.432s-.351-.089-.625-.021-.386.109-.517.339-.449.448-.375.723c.126.317.148.688.282,1s.673.448.816.758-.083.8.07,1.1.766.369.928.669-.029.8.143,1.09.659.394.842.682.188.686.381.967.292.631.5.9.534.448.75.712.477.484.7.738.362.59.6.834.316.661.566.893.723.216.985.435.448.53.721.736.7.176.989.367c.369.248.57.354.846.171s.277-.5.295-.868c.017-.333.091-.479-.26-.715-.088-.017-.063-.034-.064-.034" fill="#0d4b08"/><path d="M61.193,16.184c-.27.216-.282.754-.552.969s-.626.324-.9.538-.735.182-1.008.394-.5.478-.777.688-.247.819-.523,1.027-.876-.021-1.155.183-.248.839-.529,1.039-.778.1-1.062.294-.471.537-.759.728-.542.439-.833.625-.762.085-1.056.265-.483.537-.782.71-.532.467-.835.634-.69.178-1,.336-.612.322-.923.472-.542.482-.858.623-.784-.076-1.1.055-.657.2-.981.319-.638.245-.966.355c-.352.117-.648.4-1,.5s-.649.432-1.006.529-.713.228-1.073.315-.739.117-1.1.194-.751.037-1.115.1-.74.071-1.106.127a1.117,1.117,0,0,0-.687.444c-.13.23.063.495.137.77s.213.315.442.445A.7.7,0,0,0,38.7,30c.349-.054.755.188,1.1.125s.721-.015,1.066-.088.594-.577.937-.659.787.233,1.127.142.539-.684.878-.784.793.185,1.129.076.549-.568.881-.686.734-.039,1.063-.166.7-.145,1.028-.281.588-.417.91-.562.614-.344.932-.5c.3-.152.66-.189.958-.347s.715-.1,1.011-.266.431-.612.723-.781.648-.231.937-.406.431-.584.716-.765.658-.221.94-.407.457-.525.735-.717.582-.338.856-.536.679-.215.949-.417.353-.65.619-.858c.3-.228.765-.242,1.063-.473s.783-.225,1.079-.458.419-.687.714-.922.473-.616.767-.852.885-.125,1.179-.361c.2-.2-.205-.689-.205-.953s.162-.482-.038-.685a.869.869,0,0,0-.685-.195c-.263,0-.529-.189-.734.006-.12,0-.144-.046-.145-.045" fill="#0d4b08"/><path d="M52.09,44.233c.27.14.484.422.768.527a8,8,0,0,0,.859.385c.3.069.676-.357.979-.326s.579.443.883.437c.318.013.6-.46.913-.5s.669.214.972.124.471-.475.756-.615.682-.048.94-.233a.958.958,0,0,0,.188-.739c0-.265.2-.726,0-.928s-.659.051-.922.051a.906.906,0,0,0-.668.275c.321-.25-.012-.285-.093-.232s-.078.187-.151.225c-.1.05-.287.311.005.233-.1.026-.241-.089-.334-.057a5.632,5.632,0,0,1-.841.127c.154-.025.079.232-.02.24-.081.008-.179-.172-.26-.167-.194.013-.394.159-.589.157-.175,0-.368.073-.542.061-.08-.006-.147-.193-.227-.2-.037,0-.46-.349-.208-.3-.258-.043-.424.263-.677.193-.108-.032-.177-.2-.283-.237-.251-.086.314-.192.087-.3-.133-.062-.278-.057-.4-.125-.246-.144-.554.291-.81.358s-.772-.179-.916.068.314.578.382.834-.088.63.158.774l-.046-.11c.009-.02.1,0,.106,0" fill="#0d4b08"/><path d="M54.906,36.11c.079.286.092.583.156.873s.16.609.208.9c.069.12-.223-.157-.241-.294.011.079.468.143.461.223.021-.138-.039-.148-.02-.286-.006.037.154.169.142.2.051-.123-.052-.168,0-.292-.011.024.055.171.04.192.082-.1.058-.126.138-.231a1.045,1.045,0,0,1-.123.081c.1-.08-.035-.261.067-.345-.044.027-.046.17-.094.191.124-.049.158.038.282-.011-.074.032-.243-.217-.323-.2.138-.017.157.127.294.108a1.244,1.244,0,0,1-.244.012c.138.019.154-.1.292-.08-.082-.012-.226.222-.308.21-.133-.043-.246-.514-.382-.483a1.173,1.173,0,0,0-.481.143c-.247.144-.278.586-.345.842a1.024,1.024,0,0,0,.1.782c.133.236.414.125.677.192.2.027.33.607.537.616a2.426,2.426,0,0,0,1.009-.249c.359-.166.438-.719.537-1.1a1.908,1.908,0,0,0-.081-.868c-.047-.28-.1-.557-.16-.834s-.023-.576-.1-.851-.15-.616-.381-.746a1.442,1.442,0,0,0-.916-.228c-.272.08-.217.617-.347.846s-.544.381-.474.655c0,.047.076.029.077.032" fill="#0d4b08"/><path d="M45.764,31.073a3.617,3.617,0,0,0-.056,1.1,3.648,3.648,0,0,0,.138,1.1,2.61,2.61,0,0,0,.63.99,2.432,2.432,0,0,0,1.141.283,2.566,2.566,0,0,0,1.057-.257,2.066,2.066,0,0,0,.851-.686,2.688,2.688,0,0,0,.324-1.04c.043-.344-.393-.655-.46-.989-.072-.36.227-.838.053-1.107a2.109,2.109,0,0,0-.807-.646,2.379,2.379,0,0,0-1.007-.4,2.4,2.4,0,0,0-1,.444,2.064,2.064,0,0,0-.94,1.077c-.053.074.073.121.073.121" fill="#0d4b08"/><path d="M64.959,31.093a3.2,3.2,0,0,1,.217,1.087c-.019.34-.409.644-.541.971s-.166.739-.443.961a1.958,1.958,0,0,1-1.024.29,2.047,2.047,0,0,1-.934-.352,1.545,1.545,0,0,1-.737-.586,2.138,2.138,0,0,1-.218-.94,2.78,2.78,0,0,1,.1-.95,2.709,2.709,0,0,1,.2-.953,1.484,1.484,0,0,1,1.559-.763,1.6,1.6,0,0,1,.863.257c.393.257,1.012.414,1.126.87.025.049-.17.108-.17.108" fill="#0d4b08"/><path d="M71.717,38.426c-.063.307-.2.589-.28.892s-.169.593-.268.891.14.72.024,1.011-.562.422-.695.706c.072-.184.239,0,.182.121-.035.075.037.2,0,.278-.083.173-.338.263-.428.432-.219.414-.669.692-.915,1.092-.176.3.067.862-.124,1.151s-.569.459-.773.739-.5.487-.72.758-.509.471-.738.731-.253.71-.5.958-.5.486-.756.723-.446.553-.711.777-.716.154-.988.338-.45.526-.741.677a8.729,8.729,0,0,1-.949.3,8.6,8.6,0,0,1-.973.143,1.172,1.172,0,0,0-.8.862,1.545,1.545,0,0,0,.249,1.172,1.488,1.488,0,0,0,1.211.416,9.35,9.35,0,0,0,.961-.455,9.8,9.8,0,0,0,.94-.442c.307-.151.644-.271.937-.451s.567-.4.844-.6.276-.745.538-.966.819-.107,1.067-.343.453-.527.687-.774.611-.384.833-.64.349-.568.556-.82.517-.434.714-.693.369-.552.555-.82.348-.563.523-.838.149-.678.313-.959.434-.508.586-.8.386-.539.527-.833c.165-.321.058-.771.2-1.1s.406-.615.524-.955.235-.687.328-1.035.058-.728.125-1.081c.066-.274-.172-.427-.3-.655s-.068-.752-.337-.836a1.57,1.57,0,0,0-.971.109c-.229.131-.283.565-.361.839-.026.04-.1-.021-.1-.02" fill="#0d4b08"/><path d="M36.844,38.94c.074.32.465.555.553.87s.071.656.173.967-.2.772-.089,1.079.512.509.642.811.245.61.387.906.215.631.37.92.4.531.568.813.219.642.4.916.431.507.624.773.339.573.544.83.417.516.632.765.709.239.936.477.2.721.44.948.629.286.878.5.572.326.831.527.41.543.68.728.419.578.7.747.812-.113,1.1.035.489.48.791.607.572.348.883.451.61.286.93.363.7-.143,1.028-.094a.866.866,0,0,0,.7-.084c.229-.13.256-.309.339-.579s.337-.55.207-.78-.468-.266-.742-.344c-.355-.07-.68-.264-1.026-.362s-.636-.356-.974-.481-.684-.206-1.012-.357-.594-.395-.909-.571-.571-.411-.871-.612-.675-.272-.959-.495-.575-.424-.841-.67-.472-.535-.717-.8-.5-.514-.72-.8-.8-.295-1.019-.581-.063-.853-.267-1.152-.446-.565-.634-.874-.2-.709-.369-1.027-.427-.581-.581-.909-.173-.7-.309-1.035-.286-.648-.4-.991-.249-.665-.348-1.014-.411-.634-.49-.987a1.056,1.056,0,0,0-.693-.85,1.558,1.558,0,0,0-1.177.252,1.322,1.322,0,0,0-.191,1.163" fill="#0d4b08"/><path d="M38.782,28.646c-.239-.214-.712-.119-.986-.268a3.857,3.857,0,0,0-.843-.36,3.965,3.965,0,0,0-.9-.228,4.29,4.29,0,0,0-.969-.071,4.324,4.324,0,0,0-.918.333c-.349.181-.424.7-.7.972s-.646.419-.831.76-.652.613-.73,1c-.074.336.029.718-.011,1.056s.346.7.341,1.042-.444.694-.414,1.034.273.659.337,1,.34.606.438.933,0,.71.133,1.027.515.493.678.795.03.766.223,1.051.67.38.915.653a6.28,6.28,0,0,0,.687.813c.287.229.372.81.7.969s.8.016,1.164.08a3.533,3.533,0,0,0,1.091.047.918.918,0,0,0,1.054-1.061,1.342,1.342,0,0,0-.207-.85,1.116,1.116,0,0,0-.863-.279,1.959,1.959,0,0,1-.944-.151,2.366,2.366,0,0,1-.823-.478c-.255-.215-.756-.224-.962-.5s-.086-.767-.245-1.059c-.183-.327-.541-.567-.679-.914a8.766,8.766,0,0,1-.463-1.048,9.168,9.168,0,0,1-.017-1.15c-.065-.384.163-.758.183-1.142s-.41-.85-.306-1.222a5.855,5.855,0,0,1,.646-1.022c.066-.092.036-.113-.031-.021.032-.037.247.084.282.049s.051-.417-.019-.371a1.933,1.933,0,0,1,.671-.274,2.261,2.261,0,0,1,.962-.118c.289.065.44.5.673.693a1.025,1.025,0,0,0,1.046.054,1.133,1.133,0,0,0,.8-.626.928.928,0,0,0-.136-1.041c-.04-.1-.013-.094-.016-.1" fill="#0d4b08"/><path d="M73.716,30.373c.222-.188.346-.584.621-.652s.585.18.87.242a1.771,1.771,0,0,1,.743.148c-.092-.065-.071.3-.051.322.047.047.11.012.153.062-.067-.089-.105-.068-.038.021.186.343.621.566.726.936a5.436,5.436,0,0,1,.136,1.169,5.728,5.728,0,0,1,.16,1.2,8.941,8.941,0,0,1-.28,1.114,8.93,8.93,0,0,1-.487,1.041,9,9,0,0,1-.348,1.1,7.806,7.806,0,0,1-.513.922c-.2.277-.791.21-1.046.425s-.376.694-.7.8a2.476,2.476,0,0,1-1.06.076.913.913,0,0,0-.7.2c-.187.186-.454.43-.455.715a1.31,1.31,0,0,0,.368.8c.187.186.541-.047.824-.04.339.045.633.253.944.214.33-.041.758.2,1.056.081a4.885,4.885,0,0,0,.815-.636c.263-.184.235-.7.468-.934s.772-.175.97-.438.215-.647.383-.928.137-.656.278-.948.471-.5.587-.8c.124-.314-.027-.7.065-1s.516-.526.581-.864c.061-.318-.21-.682-.18-1.019a9,9,0,0,0,.153-.967c0-.333.412-.707.368-1.034s-.4-.62-.493-.934a5.376,5.376,0,0,0-.342-.936,4.328,4.328,0,0,0-.486-.888,3.785,3.785,0,0,0-.816-.6,4.423,4.423,0,0,0-.906-.57,4.249,4.249,0,0,0-3.148.293c-.3.156-.376.652-.638.888-.33.3-.67.551-.564.866s.565.5.911.607a1.074,1.074,0,0,0,1.074-.053" fill="#0d4b08"/><path d="M32.072,82.349c0-.5.025-.5.025-1.009s-.045-.5-.045-1.008.13-.5.13-1.008-.315-.5-.315-1.008.447-.505.447-1.009-.433-.5-.433-1.006.363-.5.363-1-.335-.5-.335-1.006.136-.5.136-1.011.1-.5.1-1.008.056-.5.056-1.008-.306-.506-.306-1.012.261-.5.261-1.01-.145-.5-.145-1.011.278-.5.278-1.007-.4-.506-.4-1.013.38-.507.38-1.013-.323-.509-.323-1.017.063-.508.058-1.016c-.012-.286-.276-.333-.472-.512s-.26-.287-.546-.274c-.535.023-.915.25-.939.786-.007.5.156.5.156,1.008s.058.5.058,1.008-.485.5-.485,1.008.352.5.352,1.008-.022.505-.022,1.009-.095.5-.095,1.006-.157.5-.157,1,.026.5.026,1.006.383.5.383,1.011-.207.5-.207,1.008-.348.5-.348,1.008.166.506.166,1.012.409.5.409,1.01-.451.5-.451,1.011.2.5.2,1.007.2.506.2,1.013-.219.507-.219,1.013.27.509.27,1.017-.36.509-.355,1.018c.012.285.376.346.571.525s.277.33.562.317c.536-.023,1.268-.294,1.292-.83" fill="#0d4b08"/><path d="M61.795,63.361c-.222-.289-.5-.535-.719-.824s-.385-.624-.608-.913-.469-.561-.695-.847-.759-.324-.99-.606-.032-.923-.269-1.2-.505-.325-.75-.594c-.147.716-.356.71-.21,1.426.256-.208.47-.5.727-.7s.435-.515.694-.719.587-.323.847-.525.541-.381.8-.582.484-.455.746-.655.711-.155.974-.354.278-.724.541-.924.7-.172.96-.372c.233-.178.376-.474.608-.652s.361-.489.593-.667c.213-.165.646-.041.858-.207.108-.068.151-.222.242-.311.033-.03.224.033.194.065a.661.661,0,0,1-.772-.06c-.022-.022-.141-.264-.157-.29-.058.1.319.776.357.9.121.392.1.4.218.79s.279.757.4,1.142.108.809.223,1.194c.087.273.482.279.718.4s.508.568.78.481.232-.588.357-.807.5-.447.441-.71c-.084-.287-.492-.484-.578-.771s-.042-.613-.129-.9-.079-.6-.167-.881a5.5,5.5,0,0,0-.25-1.107c-.138-.344-.571-.52-.779-.83-.3-.316-.475-.665-.791-.7a2.038,2.038,0,0,0-1.019.379c-.31.158-.776.151-1.056.373-.306.241-.34.805-.582.991-.273.209-.777.115-1.05.323s-.352.672-.625.88-.582.369-.856.577-.408.6-.681.805-.592.355-.865.564-.632.305-.9.515-.445.545-.715.757-.5.47-.77.684-.848.06-1.114.277c-.2.2-.015.626-.015.889a.817.817,0,0,0,.243.651c.226.248.379.565.6.819s.312.611.525.87.442.5.651.764.716.291.922.556.247.658.451.924.124.733.328,1c.15.239.581.349.835.416s.417-.327.665-.462.706-.08.773-.336-.155-.572-.3-.819c-.008-.067.146-.086.145-.087" fill="#0d4b08"/><path d="M52.149,64.541c.209-.273.34-.607.55-.881s.511-.476.722-.748.3-.644.512-.915.465-.516.683-.782.417-.558.641-.819.6-.4.829-.655c.2-.208.548-.42.543-.688s-.3-.529-.506-.73c-.056-.054.039-.347-.027-.387-.3-.188-.748-.128-1.042-.319s-.518-.486-.81-.68-.632-.314-.922-.511-.655-.285-.943-.485-.619-.339-.905-.541-.449-.579-.734-.783-.441-.584-.724-.791-.672-.267-.953-.476-.48-.5-.761-.714c-.223-.23-.63-.226-.908-.376s-.527-.563-.842-.622a2.326,2.326,0,0,0-1.223.374c-.294.218-.276.772-.384,1.141-.117.294-.115.639-.231.934s-.363.536-.478.83-.43.51-.547.8c-.143.357-.22.74-.362,1.1s-.357.693-.5,1.05a1.323,1.323,0,0,0,.133.886c.131.23.519.085.794.163s.621.541.85.411.085-.659.166-.93c.147-.367.495-.661.641-1.028s.183-.776.329-1.143c.112-.282.1-.612.213-.894s.323-.524.435-.805c.084-.215.2-.418.28-.633.026-.066.35-.108.343-.178-.049.179-.337.085-.523.086-.18-.051-.015-.034.084.028a2.485,2.485,0,0,0,.552.746c.274.205.636.29.911.493.333.248.766.358,1.1.6s.461.782.8,1.025c.268.191.592.3.862.495s.611.276.883.463.506.427.779.612.377.625.652.808.668.187.944.366.6.356.881.533c.108-.395-.095-.416-.148-.822s.209-.516.01-.874c-.216.237-.4.662-.6.9s-.758.2-.962.447-.071.769-.271,1.019-.683.277-.88.53-.128.712-.324.966-.5.426-.692.681-.471.452-.666.706a1.306,1.306,0,0,0-.172.87c.067.256.451.31.7.456s.474.4.728.334.416-.331.565-.571c.007-.071-.071-.079-.07-.08" fill="#0d4b08"/><path d="M68.645,56.963c.336.084.634.3.969.394s.723,0,1.055.1.616.37.946.475.681.157,1.008.27.649.253.974.372.645.263.967.389.655.237.975.37.681.18,1,.32.587.391.9.538.7.158,1.016.311a.634.634,0,0,0,.59.115c.255-.066.308-.136.457-.377s.32-.364.253-.619-.055-.67-.3-.816c-.3-.147-.684-.127-.984-.269s-.481-.546-.783-.681-.726,0-1.03-.13-.565-.371-.872-.5-.65-.16-.96-.278-.666-.107-.977-.219-.647-.148-.961-.254-.562-.409-.878-.509-.572-.4-.89-.5-.688-.01-1.008-.1-.613-.288-.934-.369c-.279-.065-.565.222-.791.361s-.675.252-.74.53a1.588,1.588,0,0,0,.119.936c.125.22.621.045.879.127" fill="#0d4b08"/><path d="M68.429,55.836c-.03.084-.206.12-.242.2-.089.24.275-.121.154.135-.1.216-.411.335-.511.55-.137.281-.4.5-.538.778s-.44.472-.587.748c-.16.3.126.84-.037,1.139s-.612.44-.777.737.022.793-.145,1.089-.406.553-.574.849-.463.519-.632.814-.325.586-.492.876-.548.457-.716.746-.017.765-.186,1.054-.5.483-.671.771-.368.561-.538.85-.294.6-.465.891-.189.667-.359.955-.459.506-.63.794-.179.673-.35.961-.494.485-.666.772-.29.607-.462.894-.365.562-.537.849c-.189.317-.4.624-.586.94s-.36.645-.55.962-.293.685-.483,1-.479.574-.668.891-.24.711-.429,1.027a.587.587,0,0,0-.095.579c.077.254.15.3.4.44s.353.31.6.245.646-.034.791-.264c.173-.29.187-.678.36-.968s.6-.429.77-.719.1-.731.269-1.02.454-.516.628-.805.27-.626.445-.915.233-.648.407-.938.284-.618.458-.907.53-.47.7-.76.532-.468.706-.758.191-.673.364-.963.449-.52.622-.81.13-.708.3-1,.616-.421.787-.713.357-.575.528-.866.034-.762.2-1.055.226-.648.4-.941.458-.516.625-.809.52-.483.686-.777.27-.623.435-.918.394-.555.557-.85.3-.605.465-.9-.02-.784.141-1.081c.16-.277.811-.288.961-.571s-.133-.787.007-1.076.466-.487.594-.78.14-.629.257-.927c.073-.275-.078-.408-.208-.638s-.179-.4-.452-.483a.855.855,0,0,0-.7.067.657.657,0,0,0-.385.481.913.913,0,0,0,.051.124" fill="#0d4b08"/><path d="M56.435,78.131c-.171-.288-.046-.756-.218-1.044s-.228-.644-.4-.931-.744-.336-.916-.623-.168-.68-.341-.968-.144-.694-.316-.982-.7-.363-.87-.65,0-.784-.168-1.072-.665-.383-.837-.67-.064-.743-.235-1.03-.344-.576-.515-.864-.437-.52-.607-.808-.5-.483-.672-.771-.162-.683-.331-.972-.264-.622-.432-.912-.535-.465-.7-.755-.221-.646-.388-.937-.244-.632-.409-.924-.6-.432-.762-.724-.2-.658-.361-.95-.5-.492-.659-.786-.119-.7-.279-.993-.2-.652-.363-.947c-.173-.323-.193-.726-.362-1.051s-.79-.424-.953-.752c-.121-.245.054-.631-.057-.881-.024-.053-.413.065-.438.012-.087-.183.152.167.087,0-.038-.1.055-.257.02-.357a.89.89,0,0,0-.457-.557c-.229-.13-.5-.4-.771-.335s-.261.512-.391.741-.338.391-.264.666c.132.342.241.692.39,1.027s.352.643.517.971.491.565.671.885c.16.3.2.668.364.967s.493.507.657.805.176.681.342.979.387.564.554.861.315.6.484.9.315.595.482.886.354.572.522.863.423.533.592.824.236.639.406.93.477.5.646.79.305.6.475.891.372.561.543.851.181.673.353.963.106.718.278,1.008.5.483.675.772.093.727.265,1.016.6.428.769.717c.191.32.276.7.466,1.023s.46.593.65.913.5.572.688.892.446.6.637.921.2.749.391,1.069c.153.242.359.622.618.68s.626-.167.868-.32a1.325,1.325,0,0,0,.591-.619c.064-.245-.15-.495-.279-.735a.274.274,0,0,0-.248.1" fill="#0d4b08"/><path d="M72.63,68.313c.078.315.3.6.377.911s0,.67.073.986.163.63.239.945.53.541.606.857.191.623.267.939-.1.693-.026,1.009.284.6.36.917.268.6.343.915c.076.275-.059.607.171.738a1.281,1.281,0,0,0,.855.231c.275-.076.2-.57.326-.8s.344-.346.268-.621l.226-.057c-.075-.316-.551-.537-.626-.853s.245-.727.169-1.043-.515-.545-.591-.861.164-.708.088-1.024l-.231-.948c-.077-.315-.261-.605-.338-.921s-.337-.587-.414-.9.044-.681-.034-1a1.144,1.144,0,0,0-.445-.7c-.231-.131-.517.038-.792.114s-.524.126-.654.356a1.122,1.122,0,0,0-.195.806" fill="#0d4b08"/><path d="M24.435,113.214c-.319-.089-.6-.3-.925-.4s-.749.13-1.066.018-.491-.593-.8-.718-.759.071-1.063-.067-.622-.277-.918-.43-.6-.331-.883-.5-.64-.273-.915-.462-.327-.7-.587-.9-.773-.146-1.015-.376-.108-.83-.329-1.081-.679-.306-.874-.578a9.8,9.8,0,0,1-.632-.8,11.871,11.871,0,0,1-.832-1.877c-.091-.329.176-.753.1-1.085s-.547-.591-.6-.927.169-.721.128-1.059.189-.7.164-1.037-.179-.664-.186-1.005-.4-.686-.387-1.027.367-.669.393-1.01c.017-.321-.15-.655-.125-.976s-.117-.66-.085-.98.432-.6.472-.92-.24-.684-.193-1,.442-.582.5-.9-.033-.659.029-.974.287-.6.356-.911.133-.627.21-.939c.08-.342-.213-.777-.127-1.118s.14-.7.232-1.035.44-.609.539-.947.07-.715.175-1.05.1-.712.209-1.045.554-.556.672-.887.362-.614.485-.943-.185-.826-.056-1.153.452-.578.587-.9.488-.555.629-.877-.091-.812.056-1.131.665-.465.818-.782-.027-.8.131-1.112.609-.477.774-.788.329-.619.5-.927.236-.657.408-.954.193-.692.375-.984.544-.472.735-.758.456-.52.656-.8.22-.694.429-.967.525-.466.741-.733.515-.465.74-.726.226-.723.459-.976.58-.4.821-.65.35-.63.6-.869.662-.307.917-.538.6-.357.862-.58.632-.306.9-.521.23-.827.506-1.034.739-.132,1.016-.324.335-.718.617-.9.617-.3.905-.478.654-.228.946-.4.581-.347.877-.51.709-.107,1.008-.264.431-.639.733-.79.691-.129,1-.274.624-.257.932-.4.594-.325.9-.46.552-.431.863-.562.678-.133.99-.26.559-.428.873-.551.695-.08,1.011-.2.611-.295.928-.412.644-.209.961-.323.646-.209.964-.321a.833.833,0,0,0,.531-.449c.13-.229.065-.375,0-.65s-.088-.446-.318-.576-.369-.01-.643.063c-.322.1-.645.166-.964.275s-.623.251-.941.364-.695.053-1.011.171-.73-.017-1.044.106-.559.422-.871.55-.738-.01-1.048.123-.5.538-.811.676-.666.166-.972.308-.573.369-.876.516-.546.417-.847.568-.565.372-.863.529-.695.127-.992.288-.7.137-.991.3-.5.492-.789.662-.644.241-.932.416-.445.564-.731.743-.756.133-1.039.335-.579.4-.855.609-.335.706-.605.924-.453.537-.716.763-.615.349-.872.583-.657.317-.907.558-.45.539-.692.788-.538.452-.774.708-.45.535-.678.8-.15.779-.369,1.048-.878.192-1.09.468-.035.843-.239,1.125-.576.441-.771.729-.287.642-.474.935-.253.655-.431.954-.435.531-.6.828-.358.578-.52.877-.262.63-.42.932-.586.466-.737.771.066.789-.081,1.1-.548.494-.689.8-.143.681-.278.993-.113.688-.244,1-.593.493-.718.81-.159.669-.278.988-.119.679-.233,1-.286.619-.394.942-.508.553-.61.877,0,.714-.1,1.041-.215.648-.3.976-.136.669-.222,1-.3.621-.376.949.147.726.072,1.055-.585.562-.654.892.289.746.226,1.078-.479.6-.535.933.224.718.177,1.052-.226.65-.266.985-.173.662-.2,1-.112.672-.133,1.009.27.688.26,1.025-.275.671-.274,1.008.154.673.167,1.01-.244.694-.218,1.031.459.634.5.97-.291.722-.237,1.056.431.609.5.939.085.636.175.945.405.529.519.83.162.61.3.9.154.634.315.913.458.459.641.724.409.473.612.723.05.81.273,1.043.7.2.939.42.48.427.738.625.461.464.728.649.456.5.732.668.574.316.859.474.745-.033,1.037.11.492.464.791.593.475.574.78.688.673.066.983.164.723-.19,1.025-.1.478.615.783.7c.278.065.575-.175.8-.315s.181-.386.247-.664.232-.46.108-.68-.419-.132-.677-.214c-.01,0,.121-.293.12-.293" fill="#0d4b08"/><path d="M87.372,65.8c.171.293.451.524.619.819s.432.537.6.834.042.752.205,1.05.454.525.615.824.173.676.331.977.722.39.877.692.111.707.264,1.01.306.607.457.911.441.541.589.847-.076.788.069,1.1.616.462.758.77.3.613.436.922-.1.791.035,1.1c.148.326.295.649.438.977s.7.479.838.809-.14.83-.008,1.162.752.476.879.81-.285.868-.163,1.2.654.527.77.865.178.7.289,1.037-.132.791-.026,1.133.7.536.8.879-.081.768.013,1.113.071.719.16,1.065c.077.323.494.579.557.913s-.265.724-.219,1.06.437.628.465.964.061.683.068,1.02-.006.687-.022,1.022.057.7.015,1.034-.472.613-.543.941.208.765.1,1.084-.707.452-.846.758-.007.748-.183,1.037a8.24,8.24,0,0,1-.516.9,12.043,12.043,0,0,1-1.613,1.484c-.291.21-.791.1-1.1.277s-.455.709-.784.85-.774,0-1.117.108-.736-.07-1.088-.005a9.483,9.483,0,0,1-1.024.272c-.355.026-.713.421-1.072.407s-.69-.386-1.046-.44c-.337-.044-.7.082-1.033.008s-.717,0-1.038-.1-.522-.564-.835-.692-.76.026-1.062-.125-.436-.621-.727-.794-.652-.228-.932-.419-.453-.52-.72-.727-.528-.411-.783-.633-.769-.169-1.012-.4-.518-.46-.748-.706-.266-.681-.483-.938-.547-.448-.751-.714c-.15-.239-.308-.209-.562-.276s-.478-.372-.726-.237-.559.368-.626.624.377.425.519.672c.2.278.226.655.437.921s.254.679.48.934.758.219,1,.461.2.769.454,1,.752.165,1.016.38.333.678.609.878.56.4.846.58.636.269.931.438.679.163.983.317.519.482.831.618.6.345.916.465.711.013,1.037.116.631.3.968.363.67.218,1.011.254.7-.247,1.047-.239.681.15,1.024.129.654-.249,1-.3.711.116,1.047.038.706-.044,1.035-.15.725-.071,1.044-.2.415-.74.721-.9.761-.047,1.053-.232.333-.706.609-.916a8.616,8.616,0,0,0,.794-.592,9.3,9.3,0,0,0,.78-.644,9.359,9.359,0,0,0,.586-.821c.186-.285.57-.458.727-.759s-.039-.762.089-1.077.416-.561.516-.886.219-.643.293-.975.083-.673.133-1.01-.089-.684-.063-1.023.177-.662.181-1-.192-.665-.208-1,.132-.681.1-1.017c-.046-.354-.158-.692-.216-1.043s-.1-.7-.166-1.052-.124-.7-.206-1.045-.189-.683-.283-1.027-.286-.652-.391-.993-.1-.71-.221-1.047-.37-.617-.482-.95-.187-.676-.3-1.008-.268-.647-.388-.977-.069-.723-.193-1.051,0-.756-.125-1.083-.433-.585-.566-.911,0-.762-.138-1.085-.546-.532-.686-.854-.169-.694-.312-1.014-.369-.605-.515-.924-.415-.582-.563-.9-.367-.6-.518-.919-.113-.725-.267-1.04-.118-.727-.275-1.041-.478-.547-.638-.859-.216-.681-.379-.992-.547-.506-.713-.815-.055-.77-.224-1.078-.324-.626-.5-.932-.653-.439-.827-.744-.459-.541-.636-.845c-.151-.242-.217-.439-.475-.5s-.594-.212-.837-.061a1.245,1.245,0,0,0-.447.716,1.159,1.159,0,0,0,.111.805" fill="#0d4b08"/><path d="M56.979,50.212c-.025-.349.323-.606.451-.885a1.483,1.483,0,0,1,.581-.637c.242-.169.426-.449.769-.539a4.224,4.224,0,0,1,.954-.207,4.16,4.16,0,0,1,1.153.21,2.11,2.11,0,0,1,1.016.492,1.52,1.52,0,0,1,.584.994,2.744,2.744,0,0,1-.1.989c-.127.292-.579.374-.8.591s-.39.5-.685.613a2.426,2.426,0,0,1-.919,0c-.02,0-.025.457-.044.456-.329.021-.668-.219-.954-.268a3.007,3.007,0,0,1-.9-.3,2.464,2.464,0,0,1-.849-.531c-.175-.249.087-.684.066-1.006" fill="#0d4b08"/><path d="M72.867,40.1c-.154.317-.289.63-.461.936s.022.838-.168,1.134-.589.46-.8.744-.637.388-.861.66-.231.725-.471.982-.507.491-.761.734-.439.57-.707.8-.667.3-.948.507c-.308.213-.524.576-.847.765s-.8.094-1.134.258-.678.283-1.026.422-.631.432-.989.544c-.3.084-.589.233-.9.3s-.636.014-.945.067-.616.1-.927.139-.612.193-.925.214-.626.145-.939.151c-.427.016-.853-.009-1.005.287a1.336,1.336,0,0,0,.117,1.1,1.036,1.036,0,0,0,.887.659c.351-.006.677-.478,1.026-.5s.711.167,1.059.126.691-.092,1.037-.151.652-.28.994-.356.783.237,1.121.143c.321-.1.525-.548.839-.665s.609-.253.915-.389.79.1,1.088-.06.6-.326.889-.5.322-.732.6-.922c.284-.208.832-.069,1.1-.292s.194-.849.453-1.086.909-.068,1.156-.318.169-.809.4-1.072.5-.49.717-.765.726-.337.931-.624-.026-.865.164-1.162.615-.443.789-.749.443-.561.6-.877c.208-.376-.142-.69-.32-.97-.193-.3-.348-.8-.7-.819-.331-.02-.565.441-.777.823-.075.06-.285-.223-.286-.221" fill="#0d4b08"/><path d="M58.44,50.193c-.006-.1.024-.191.024-.3,0-.216-.574.2-.523-.008.009-.037.166-.039.176-.075.014-.055.1-.089.114-.143a.116.116,0,0,0-.213-.089c.066-.088.333.018.38-.082-.091.192-.325-.037-.261-.1.04-.04.093-.1.134-.135.031-.022.351.338.377.31-.06.042-.279-.263-.337-.218.032-.024.274.259.309.238.087-.057.117-.181.208-.233.137-.074-.09-.025-.109-.052.088-.052.077-.293.1-.3.113-.036.313.224.43.2.072-.023.119-.155.2-.158-.025,0-.228.2-.025.185.311-.028.625-.51.936-.49.053,0,.13.223.181.235-.23-.092-.1.1-.021.116.113.022.309-.228.419-.194.041.013-.02.363.022.375.214.065-.216-.136-.026-.031.091.05.187.106.279.152.11.055.041-.408.164-.269.022.025-.069.158-.045.183s.042.209.077.245c-.1.019-.37-.186-.312-.064.021.045.1.09.132.131.072.1,0-.185.047-.308.02.1-.068.448-.033.542-.088-.151.338-.383.34-.24,0,.042-.229.086-.229.129s.038.068.038.1c0,.211.083-.205.158-.248a3.948,3.948,0,0,0-.063.462c-.01.034-.108.064-.119.1-.056.181.307-.109.189.1-.042.074-.505-.106-.551-.034-.074.113-.07.036.094-.077-.028.028.141.3.118.335-.069.076-.315-.02-.389.05-.159.151.33.041.139.158-.056.034-.179-.044-.236-.011s-.123.01-.172.038c-.109.061-.109.089.063.084a2,2,0,0,0-.321.167c-.05.012-.139-.12-.189-.11s-.016.13-.055.137c-.116.019-.068,0,.07-.017-.15.037-.354.249-.506.228A2.546,2.546,0,0,1,59,51.16c-.047-.041.3.007.242-.017s-.039.021-.112.008-.111-.211-.181-.231-.127.007-.183-.012c-.033-.011-.021-.144-.056-.156-.1-.042-.194.274-.048.333a5.5,5.5,0,0,0-.093-.643c-.132-.077-.224.158-.17.284-.017-.041-.2.055-.236.02s.092-.272.054-.29c.079.037.057.217-.047.05-.021-.044.22-.235.194-.275-.035-.072-.057,0,.008.149-.014-.036.02-.065.009-.1s-.2-.021-.211-.059c-.068-.282-.243.178-.258-.011,0-.286.166-.6-.021-.786s-.491-.5-.777-.5-.509.394-.7.58a.938.938,0,0,0-.3.694l.232-.008c.018.354-.1.679.044,1s.16.761.415,1.008.795.046,1.111.2.54.439.889.49a4.03,4.03,0,0,0,1.124.11,4.227,4.227,0,0,0,1.145-.126c.359-.131.511-.6.822-.826s.907-.14,1.147-.447a3.2,3.2,0,0,0,.423-.9c.093-.3-.3-.653-.308-.963s.17-.612.06-.906-.044-.725-.246-.971c-.241-.28-.741-.291-1.066-.449a3.669,3.669,0,0,0-1.014-.344,5.46,5.46,0,0,0-1.074.05,7.761,7.761,0,0,0-1.09-.076,3.039,3.039,0,0,0-.985.52c-.331.181-.82.188-1.061.471a3.449,3.449,0,0,0-.617,1.009,3.462,3.462,0,0,0-.006,1.168.994.994,0,0,0,.358.69,1.048,1.048,0,0,0,.689.406,1.146,1.146,0,0,0,.771-.322,1.056,1.056,0,0,0,.194-.769l.067-.188c.145,0,.295.177.295.175" fill="#0d4b08"/><path d="M75.121,40.857c-2.545,0-4.475-2.364-4.475-6.544s2.332-6.262,4.476-6.262c2.181,0,5.084,1.72,5.084,6.262,0,3.95-2.246,6.544-5.086,6.544Z" fill="#fefffd"/><path d="M75.121,40.04a3.248,3.248,0,0,1-1.183-.162c-.336-.141-.432-.71-.691-.977a4.975,4.975,0,0,1-.463-.838c-.17-.282-.7-.385-.815-.695s.068-.708.011-1.035a9.735,9.735,0,0,1-.261-.968,9.679,9.679,0,0,1-.078-1,8.987,8.987,0,0,1-.02-1.011,7.669,7.669,0,0,1,.2-.992,6.547,6.547,0,0,1,.209-1.006c.133-.31.612-.427.8-.7a3.867,3.867,0,0,1,.657-.691c.255-.235.376-.646.694-.768s.682.1,1.028.107c.088,0,.181-.3.269-.3.037,0,.325.129.082.088.185.031.321.255.5.307.367.091.839-.04,1.146.179a4.874,4.874,0,0,1,1.057.75c.26.315.28.843.444,1.221.118.3-.05.674.028.983s.6.537.632.854-.456.659-.46.979a6.99,6.99,0,0,1-.092.921c-.026.3.439.687.368.98a6.258,6.258,0,0,1-.437.834,5.837,5.837,0,0,1-.474.78c-.157.257-.507.351-.7.583-.221.251-.264.669-.54.845a2.395,2.395,0,0,1-1.9.735.616.616,0,0,0-.531.29c-.179.195-.594.287-.581.572a1.4,1.4,0,0,0,1.105,1.237,6.994,6.994,0,0,0,1.068-.25,6.57,6.57,0,0,0,.987-.4c.324-.133.512-.51.807-.692s.752-.147,1.013-.376a6.442,6.442,0,0,0,.643-.843c.22-.268.572-.467.746-.771s-.12-.807,0-1.137.6-.534.66-.881c.078-.316.068-.66.116-.993s-.209-.672-.193-1.006.368-.652.353-.984a9.791,9.791,0,0,0-.114-1,9.017,9.017,0,0,0-.21-.979c-.086-.322-.488-.523-.612-.829a6.827,6.827,0,0,0-.279-.941,5.915,5.915,0,0,0-.545-.813c-.209-.254-.239-.7-.494-.916a5.653,5.653,0,0,0-.809-.566c-.271-.174-.683-.086-.976-.206a13.518,13.518,0,0,0-1.829-.3c-.318-.01-.635-.221-.952-.174a5.36,5.36,0,0,0-.923.26c-.3.1-.478.421-.762.578a5.146,5.146,0,0,0-.816.508,5.583,5.583,0,0,0-.729.657c-.206.261-.194.635-.357.926s-.748.376-.869.688.162.751.078,1.074a9.551,9.551,0,0,0-.273.947c-.049.33-.318.638-.336.97s.188.672.2,1-.1.677-.065,1a8.48,8.48,0,0,0,.085,1,7.692,7.692,0,0,0,.766,1.841,8.387,8.387,0,0,0,.345.946,8.562,8.562,0,0,0,.68.738,4.817,4.817,0,0,0,.754.676,4.863,4.863,0,0,0,.949.349,16.836,16.836,0,0,0,1.892.452.669.669,0,0,0,.562-.288c.179-.195.409-.312.4-.6a.923.923,0,0,0-.93-.92c-.1.035-.024.143-.026.143" fill="#0d4b08"/><path d="M75.837,55.438c1.279-2.546,1.406-9.186,1.091-11.787a1.66,1.66,0,0,1,1.135-2.016c.97-.292,1.6.356,1.824,1.226C79.028,39.968,78.5,39,78.451,37.115a1.553,1.553,0,0,1,.814-1.239c.026-1.229-.076-2.121,1.062-2.853a2.569,2.569,0,0,1,1.693-.274c1.214.3,1.559.976,1.969,2.168.465,1.36,1.934,6.7,2.146,8.058.3,1.906.561,3.812.711,5.739a29.08,29.08,0,0,1-.093,6.4,12.032,12.032,0,0,1-.782,2.384c-.9,2.031-.858,3.452-.716,6.034a2.055,2.055,0,0,1-1.081,2.01c-2.031.708-3.893,1.149-6.177,1.717a2.524,2.524,0,0,1-3-1.4,9.439,9.439,0,0,1-.761-6.134,11.368,11.368,0,0,1,1.6-4.288" fill="#fefffd"/><path d="M74.7,54.778c-.156.266-.113.646-.252.921s-.16.6-.283.888-.424.5-.53.785-.011.647-.1.942c-.094.354-.1.719-.166,1.078s-.044.719-.08,1.084-.393.706-.4,1.073.326.72.349,1.085c.026.34-.424.765-.36,1.129.061.346.622.592.722.939s-.235.857-.092,1.182.772.4.968.7.048.927.31,1.163.816.1,1.147.247a3.19,3.19,0,0,0,1,.122,6,6,0,0,0,1.054.1,6.035,6.035,0,0,0,1.023-.323c.4-.1.861.02,1.26-.081s.741-.421,1.138-.526c.353-.1.758,0,1.109-.1s.76.025,1.109-.086a4.262,4.262,0,0,0,1.015-.572,4.068,4.068,0,0,0,.942-.645c.234-.279.07-.731.183-1.034a3.226,3.226,0,0,0,.165-.922,7.815,7.815,0,0,0,.127-.983c-.011-.337.3-.689.294-1.028a9.058,9.058,0,0,1,.051-1.176c.03-.4-.3-.85-.218-1.24a9.664,9.664,0,0,1,.26-1.2c.131-.351.677-.547.819-.9s.4-.673.512-1.032c.108-.375-.225-.86-.157-1.244s.395-.734.422-1.124c.022-.351-.066-.709-.055-1.06s0-.7,0-1.055-.074-.7-.082-1.052,0-.7-.017-1.053-.16-.693-.189-1.043c-.024-.423.015-.889-.282-1.043a1.612,1.612,0,0,0-1.22-.054c-.3.147-.34.637-.315,1.08.018.319-.251.656-.233.978s.345.626.36.948-.072.649-.066.971-.165.64-.173.962.3.661.271.981.089.677.039,1-.373.6-.452.909-.428.52-.539.825c-.15.339.147.852.02,1.2s-.731.544-.834.9-.225.742-.3,1.1c-.038.3.449.668.427.968s-.191.587-.2.888-.074.6-.065.9-.2.638-.177.938c.093.447.293.906.054,1.294a3.242,3.242,0,0,1-1.291.681c-.327.1-.658.2-.987.291s-.651.222-.981.31-.757-.194-1.088-.11-.708.039-1.039.121a4.563,4.563,0,0,1-.762.317,4.476,4.476,0,0,1-.8.162c-.325-.039-.771-.028-.972-.286-.012-.012-.159-.313-.032-.141-.044-.06,0-.187-.038-.25-.114-.179-.055-.441-.147-.631-.131-.281-.691-.408-.781-.7s.232-.7.184-1.008c-.048-.342-.155-.671-.171-1.015s-.3-.7-.286-1.045.4-.661.452-1,.1-.675.183-1.009c.1-.373.2-.737.335-1.1s-.009-.849.156-1.2.5-.623.693-.955a.822.822,0,0,0-.01-.927c-.193-.305-.454-.764-.8-.786a1.084,1.084,0,0,0-.962.583c-.121.068-.163,0-.164,0" fill="#0d4b08"/><path d="M76.472,55.848c.134-.3.579-.464.688-.771s.07-.662.155-.977.036-.65.1-.971.393-.6.428-.922.048-.629.084-.942-.09-.643-.062-.957-.058-.633-.038-.947.514-.606.527-.921-.45-.645-.445-.96.019-.621.018-.933,0-.62-.013-.932-.021-.62-.041-.932.078-.629.048-.941c-.052-.489-.076-1.141.566-1.182.139-.009.04.134.129.252a1.881,1.881,0,0,1,.234.858c.05.319.085.649.136.969s.242.616.295.935-.127.677-.075,1,.589.559.641.878-.084.67-.033.989-.224.706-.174,1.026c.077.274.5.487.732.617a1.083,1.083,0,0,0,.8-.012c.271-.082.624-.135.754-.364s-.008-.564-.077-.838c-.049-.316-.172-.622-.222-.938s-.17-.619-.222-.934.23-.685.179-1-.424-.578-.476-.893.39-.711.339-1.027-.59-.56-.64-.876c-.022-.3.38-.728.275-1.007s-.708-.311-.891-.551-.056-.844-.3-1.024c-.311-.176-.827.095-1.167.059a9.151,9.151,0,0,0-1.863.567,2,2,0,0,0-.57.9,3.213,3.213,0,0,0-.435,1.038c-.017.372.23.744.262,1.125s-.128.784-.115,1.149c.01.327-.223.657-.22.985s.205.652.2.98-.046.653-.059.981.339.676.318,1-.016.662-.044.989c-.024.291-.164.578-.2.868s-.4.535-.449.823-.133.562-.189.849c-.076.374.214.84.106,1.2-.051.172-.042.383-.1.552-.029.079-.2.112-.237.189.069-.161-.388-.126-.409-.078-.137.248.234.607.3.862s.006.623.247.772a1.172,1.172,0,0,0,.841.014,1.007,1.007,0,0,0,.614-.475c-.041-.136-.241-.121-.24-.123" fill="#0d4b08"/><path d="M80.1,41.173c-.059-.325-.414-.6-.461-.93s-.259-.641-.3-.97.525-.713.5-1.042-.56-.633-.573-.964c0-.256.193-.449.587-.162.354.338,1.036.505,1.15.981.109.343.213.681.316,1.026s.2.7.295,1.044.08.728.171,1.076-.048.756.036,1.105.289.672.367,1.024.087.718.159,1.07-.145.76-.078,1.114.708.59.767.945c.079.274-.05.613.18.744a1.1,1.1,0,0,0,.8-.03c.271-.081.338-.288.468-.518s.438-.431.368-.706c-.061-.335-.156-.661-.221-.995s-.286-.636-.355-.968-.249-.641-.323-.972.316-.772.238-1.1-.617-.549-.7-.879-.161-.658-.249-.987-.172-.655-.264-.983-.18-.652-.278-.978a10.249,10.249,0,0,0-.222-1,5.97,5.97,0,0,0-.443-.922,3.854,3.854,0,0,0-.538-.911,2.871,2.871,0,0,0-.935-.54,2.7,2.7,0,0,0-.983-.125,2.607,2.607,0,0,0-.888.4c-.276.144-.708.194-.912.436s.071.741-.027,1.05c-.092.292-.307.524-.283.829.022.37-.282.768-.25,1.137s.289.722.331,1.09.211.721.263,1.088-.088.772-.025,1.137c.077.275.426.408.656.538a.866.866,0,0,0,.716.024c.27-.082.343-.234.473-.463s.477-.361.409-.635c.03-.084.053-.073.053-.074" fill="#0d4b08"/><path d="M80.09,35.348a1.89,1.89,0,0,1,.5-1.456,1.594,1.594,0,0,1,1.578-.039,1.019,1.019,0,0,1,.459.308,3.669,3.669,0,0,1,.453.84c.137.386-.156.9-.041,1.3.095.314.7.477.791.791s-.087.709,0,1.024.057.664.146.98.224.617.308.934.443.565.52.883.079.658.151.978.246.622.311.943-.169.7-.115,1.021.047.654.094.978.484.6.525.92-.24.689-.206,1.015.277.632.3.958-.253.672-.232,1c.007.283.392.439.578.625s.352.1.635.1.75.389.936.2-.126-.646-.125-.931c-.024-.353.417-.736.386-1.089s-.6-.653-.635-1.005-.076-.7-.122-1.05-.086-.7-.136-1.048.009-.715-.049-1.064.111-.738.047-1.087c-.061-.313-.252-.6-.324-.911s-.08-.637-.158-.947.12-.694.037-1-.735-.464-.817-.771.172-.711.087-1.023-.309-.583-.4-.894-.293-.586-.387-.9.092-.7-.007-1.011a9.443,9.443,0,0,0-.436-1.057,4.826,4.826,0,0,0-.708-.891,2.953,2.953,0,0,0-.864-.647c-.3-.188-.483-.773-.884-.856-.368-.075-.771.376-1.133.42a3.213,3.213,0,0,0-1.856.868,3.277,3.277,0,0,0-.521.765,3.525,3.525,0,0,0-.425.859,3.669,3.669,0,0,0-.078.966c.011.285.009.643.205.822a1.317,1.317,0,0,0,.844.306,1.361,1.361,0,0,0,1.128-1.18c-.038-.1-.366.054-.366.052" fill="#0d4b08"/><path d="M21.625,78.018c.133,8.85.493,32.016.632,40.752a3.441,3.441,0,0,0,3.445,3.389c11.263-.006,47.312-.006,58.575,0a3.441,3.441,0,0,0,3.446-3.389c.14-8.736.5-31.9.631-40.753a3.444,3.444,0,0,0-3.386-3.5h-59.9a3.442,3.442,0,0,0-3.444,3.442v.058Z" fill="#fefffd"/><path d="M20.4,78.023c0,.336.477.662.482,1s-.094.673-.089,1.008-.447.678-.442,1.014.274.667.28,1-.068.672-.063,1.008-.139.674-.134,1.009.238.668.243,1,.074.67.079,1.006.04.671.045,1.006-.248.675-.243,1.011.383.666.388,1-.341.677-.336,1.013.151.669.156,1,.041.671.046,1.007-.272.675-.267,1.011.587.662.592,1-.245.675-.24,1.011-.015.672-.009,1.007-.121.673-.116,1.009-.052.672-.046,1.008.17.669.175,1,.077.671.083,1.006-.344.677-.338,1.013,0,.677.009,1.016l.015,1.017c0,.339.455.671.46,1.01s.1.676.1,1.015-.124.68-.119,1.019-.365.683-.36,1.022.21.675.215,1.014-.01.678,0,1.017.416.671.422,1.01-.153.681-.148,1.019,0,.678,0,1.017-.339.684-.334,1.022c0,.309.343.613.348.922s.054.617.059.926-.222.622-.217.931.121.616.126.925-.232.614-.227.923c-.019.336.482.644.521.976s-.2.7-.1,1.024.508.483.658.784a4.294,4.294,0,0,0,.505.974,4.309,4.309,0,0,0,.907.633c.324.2.551.618.92.729.384.087.817-.145,1.209-.115s.777.479,1.17.451c.516-.009.511-.512,1.027-.512s.514.373,1.027.373.517-.2,1.033-.2.517-.016,1.034-.016.519.195,1.037.195.519-.327,1.037-.327c.5,0,.5.349,1,.349s.5-.4,1-.4.5.082,1,.082.5.417,1,.417.5-.258,1-.258.5-.044,1-.044.5.162,1,.162.5-.091,1-.091.5-.085,1-.085.5.234,1,.234.5-.308,1.005-.308.513.442,1.027.442.513-.021,1.027-.021.513-.2,1.025-.2.513.075,1.026.075.512-.257,1.025-.257.514.066,1.027.066.514.058,1.027.058.514-.291,1.027-.291.513.107,1.026.107.514.206,1.028.206.512.143,1.024.143.512.111,1.023.111.512-.516,1.024-.516.515.244,1.029.244.514-.215,1.027-.215.513.042,1.027.042.515.144,1.03.144.514-.055,1.028-.055.515-.055,1.03-.055.513.431,1.025.431.516-.532,1.031-.532.516.282,1.033.282.517.127,1.035.127.518-.053,1.035-.053.52-.287,1.04-.287.52.078,1.04.078.521-.1,1.043-.1.52.292,1.041.292.522.059,1.043.059.519-.394,1.038-.394.522.322,1.044.322.523-.211,1.046-.211.524.308,1.048.308.524-.305,1.048-.305c.5,0,.5-.169.992-.169s.5.594.993.594.5-.516,1-.516.5.463.993.469c.348.017.687-.514,1.034-.528s.659-.04,1-.085A3.914,3.914,0,0,0,86.1,122.5a4.2,4.2,0,0,0,.975-.5c.29-.246.713-.365.934-.681a3.935,3.935,0,0,0,.379-.987,5.273,5.273,0,0,0,.324-.994c.054-.343.374-.683.387-1.036s-.575-.71-.577-1.059.344-.706.35-1.049-.132-.7-.127-1.047-.111-.7-.105-1.047.3-.692.307-1.04-.023-.7-.017-1.045-.146-.7-.141-1.048-.1-.71-.093-1.064.49-.7.5-1.056-.461-.715-.455-1.07.018-.708.024-1.062.016-.709.021-1.063.017-.709.022-1.063.135-.707.141-1.061.029-.708.035-1.062.185-.706.191-1.061.011-.708.016-1.062.029-.709.034-1.063-.13-.711-.124-1.065.246-.7.251-1.051-.479-.71-.474-1.062.2-.7.208-1.051.343-.7.348-1.05-.208-.706-.2-1.058-.112-.705-.106-1.056.212-.7.217-1.052-.192-.706-.187-1.057-.063-.7-.057-1.056-.06-.7-.055-1.055.347-.7.353-1.05-.314-.708-.309-1.059.51-.678.515-1.021-.482-.693-.477-1.036.5-.678.5-1.021-.509-.693-.5-1.036.537-.678.543-1.02c0-.367-.406-.742-.4-1.109s-.13-.724-.145-1.087a7.66,7.66,0,0,0,.042-1.086,4.58,4.58,0,0,0-.386-1c-.142-.324-.125-.74-.367-1.04-.195-.238-.56-.286-.8-.477s-.373-.517-.643-.657-.494-.485-.789-.568a5.175,5.175,0,0,0-.966.038c-.292-.023-.592-.058-.887-.056s-.589.379-.881.379c-.513,0-.513.03-1.027.03s-.513-.111-1.027-.111-.511-.333-1.021-.333-.51-.038-1.021-.038-.511.391-1.022.391-.511.072-1.023.072-.512-.426-1.024-.426-.513-.126-1.026-.126-.513.434-1.027.434-.514-.282-1.028-.282-.513.106-1.026.106-.513.021-1.026.021-.512.072-1.024.072-.512-.025-1.024-.025-.512.118-1.024.118-.512-.367-1.024-.367-.513-.037-1.025-.037-.513.293-1.026.293-.514-.289-1.028-.289-.515.308-1.029.308-.514-.1-1.028-.1-.514-.171-1.027-.171-.513.321-1.026.321-.513.156-1.026.156-.514-.262-1.027-.262-.515-.276-1.029-.276-.515.467-1.03.467-.514-.513-1.028-.513-.514-.024-1.028-.024-.514.522-1.028.522-.515-.155-1.03-.155-.515-.068-1.029-.068-.515-.229-1.029-.229-.515.294-1.029.294-.516.168-1.031.168H46.5c-.513,0-.513.039-1.026.039s-.513-.379-1.026-.379-.516-.135-1.032-.135-.515.1-1.029.1-.515.088-1.029.088-.517.25-1.033.25-.516-.3-1.031-.3-.516.122-1.032.122-.514-.179-1.028-.179-.517.479-1.034.479-.517-.4-1.035-.4-.519.076-1.038.076-.519.29-1.038.29c-.333,0-.667-.351-1-.352s-.668.015-1,.013-.668.005-1,0-.67.315-1,.313-.667-.168-1-.168-.668-.017-1-.016-.671-.287-1.005-.283-.669.058-1,.064-.649.315-.971.392a4.154,4.154,0,0,0-.879.421,4.156,4.156,0,0,0-.812.513c-.262.212-.647.278-.856.542a4.605,4.605,0,0,0-.5.875c-.144.3-.037.665-.113,1a4.091,4.091,0,0,0-.187.945.832.832,0,0,0,.228.667c.2.179.4.048.682.036.536-.024,1.185-.159,1.208-.695,0-.3-.346-.662-.248-.934a2.774,2.774,0,0,1,.534-.766c.187-.221.556-.227.818-.372.315-.134.58-.426.916-.475a4.193,4.193,0,0,1,1.031.12c.513.015.514.048,1.027.048s.512-.076,1.025-.076.512-.083,1.025-.083.512.149,1.024.149.513-.124,1.025-.124.513-.007,1.025-.007.513-.179,1.025-.179.513-.055,1.026-.055.514.093,1.027.093.51-.023,1.02-.023.51.183,1.02.183.51-.041,1.021-.041.511.13,1.022.13.511.214,1.023.214.512-.021,1.024-.021.514-.161,1.027-.161.513-.343,1.027-.343.513.275,1.025.275.512-.114,1.024-.114.512.3,1.024.3.511-.373,1.023-.373.511.367,1.023.367.511-.186,1.023-.186.512-.251,1.024-.251.512.3,1.025.3.513.176,1.027.176.514-.294,1.028-.294.514.007,1.027.007.513-.233,1.026-.233.512.2,1.025.2.513.246,1.025.246.513-.465,1.026-.465.514.213,1.028.213.514.03,1.029.03.513.116,1.027.116.513-.347,1.027-.347.513.48,1.027.48.514-.026,1.029-.026.514-.441,1.028-.441.514.236,1.028.236.514.277,1.028.277.515-.294,1.03-.294.513.028,1.025.028.512-.118,1.024-.118.513.2,1.026.2.516-.19,1.031-.19.514.309,1.028.309.514.029,1.028.029.516-.182,1.032-.182.515-.075,1.03-.075.516.118,1.031.118.514,0,1.027,0,.516-.127,1.033-.127.517-.111,1.034-.111.518.329,1.036.329.519-.146,1.037-.146c.274,0,.553.158.829.155s.567-.462.841-.448c.3.02.594.323.857.442a2.556,2.556,0,0,1,.737.511c.2.2.537.416.659.688.109.35-.216.805-.185,1.169s.382.722.334,1.086c-.024.551.006.547,0,1.1s-.426.545-.434,1.1c-.006.342-.008.683-.013,1.024s.443.69.438,1.031-.457.676-.462,1.017.514.691.509,1.032-.582.674-.588,1.015.428.689.423,1.03-.066.682-.072,1.023-.377.677-.383,1.019.5.69.5,1.031-.3.678-.306,1.02-.13.68-.135,1.022.344.694.339,1.039-.4.683-.4,1.027.345.695.34,1.039,0,.689,0,1.034-.021.689-.026,1.033.092.691.087,1.035-.389.683-.394,1.028.372.695.366,1.039-.526.681-.532,1.026.314.694.308,1.038.087.691.082,1.035-.015.689-.02,1.034.008.689,0,1.034-.373.683-.378,1.028.4.695.4,1.04-.291.684-.3,1.029-.274.685-.279,1.029.129.691.123,1.036.379.695.374,1.04-.351.683-.357,1.028.178.692.173,1.036.16.692.155,1.037-.377.683-.383,1.027.337.736.343,1.126-.344.751-.382,1.12a3.751,3.751,0,0,1-.122,1.116c-.148.336-.476.521-.793.767a2.1,2.1,0,0,1-.8.39c-.3.08-.571.5-.893.514s-.656.045-.967.033c-.327-.012-.634-.29-.931-.29-.5,0-.5.137-1,.137s-.5.122-1.008.122-.5-.347-1.006-.347-.5-.134-1.007-.134-.5.466-1,.466-.5-.205-1.009-.205-.505-.233-1.01-.233-.506.412-1.013.412-.506-.407-1.013-.407-.512.375-1.024.375-.511-.325-1.023-.325H69.946c-.511,0-.511.11-1.023.11s-.512.188-1.024.188-.512-.207-1.024-.207-.512-.086-1.024-.086-.512.229-1.024.229-.512-.131-1.025-.131-.51-.1-1.021-.1-.51.306-1.02.306-.51-.149-1.021-.149-.513.195-1.026.195-.512-.233-1.024-.233-.512-.132-1.024-.132-.513-.172-1.027-.172-.513.508-1.026.508-.513-.324-1.027-.324-.511.4-1.022.4-.514-.081-1.028-.081-.515-.144-1.03-.144-.516.011-1.032.011-.516-.246-1.033-.246c-.347,0-.7.369-1.043.369s-.7-.19-1.044-.19-.695-.033-1.043-.033-.7.052-1.044.052-.695.176-1.043.176-.7-.136-1.044-.136-.695.19-1.043.19-.7-.176-1.044-.176-.695.061-1.043.061-.7-.025-1.044-.025-.695-.021-1.043-.021-.7.021-1.044.021-.695.1-1.043.1-.7-.117-1.044-.117-.695.16-1.043.16-.7-.041-1.044-.041-.695.035-1.043.035-.7-.185-1.044-.185-.7-.274-1.043-.274-.7.187-1.044.187c-.45,0-.45-.292-.9-.292s-.45.283-.9.3a5.535,5.535,0,0,1-.963-.113,5.3,5.3,0,0,1-.96-.071,2.561,2.561,0,0,1-1.114-.651,2.752,2.752,0,0,1-.61-1.2c-.029-.323.163-.671.156-1s.21-.644.223-.968c0-.354-.192-.711-.2-1.064s.108-.709.1-1.062-.259-.7-.265-1.057.305-.712.3-1.066.006-.707,0-1.061-.365-.7-.37-1.055-.14-.7-.146-1.059.13-.71.125-1.064.2-.711.2-1.065-.081-.706-.087-1.06c0-.339.064-.679.058-1.018s-.037-.677-.042-1.015-.4-.672-.408-1.011.553-.686.548-1.025-.491-.67-.5-1.008.2-.681.2-1.02-.129-.676-.134-1.014-.143-.676-.148-1.015.1-.679.091-1.017.02-.678.014-1.017-.077-.677-.083-1.015.3-.683.293-1.021-.419-.672-.424-1.01.274-.682.269-1.021-.16-.675-.165-1.014-.178-.675-.183-1.014.352-.683.347-1.021-.1-.677-.11-1.015-.133-.676-.138-1.015.056-.678.051-1.017.3-.682.293-1.021-.221-.674-.227-1.013.015-.678.009-1.017-.055-.676-.06-1.015.119-.688.114-1.031-.325-.681-.33-1.024.437-.693.432-1.035-.443-.677-.448-1.02c-.013-.286.162-.683-.033-.862s-.58,0-.866.015a.913.913,0,0,0-.985.846c-.034.088-.2,0-.2,0" fill="#0d4b08"/><path d="M51.719,96.435c0,.283.552.607.552.952,0,.306-.156.629-.156.953s-.257.645-.257.955c0,.339-.029.663-.029.953a1.112,1.112,0,0,0,1.133.953c.3,0,.642.09,1.011.09.326,0,.67.046,1.014.046s.688-.143,1.013-.143c.37,0,.715.208,1.011.208.534,0,.7-.623.7-1.157,0-.29.107-.612.108-.951,0-.31.458-.632.458-.954s-.264-.647-.265-.954c0-.344.075-.668.073-.951a1.3,1.3,0,0,0-1.07-1.217c-.507,0-.507.228-1.014.228s-.508.064-1.016.064-.509.029-1.019.029-.509-.257-1.019-.258c-.534,0-.783.62-.784,1.154" fill="#0d4b08"/></g></g></svg>