<svg xmlns="http://www.w3.org/2000/svg" id="_レイヤー_2" data-name="レイヤー 2" viewBox="0 0 661.61 102.72"><defs><clipPath id="clippath"><path d="M506.25 0h30.5v30.53h-30.5z" class="cls-1"/></clipPath><clipPath id="clippath-1"><path d="M408.82 84h18.71v18.72h-18.71z" class="cls-1"/></clipPath><clipPath id="clippath-2"><path d="M414.38 13.57h13.14v13.15h-13.14z" class="cls-1"/></clipPath><clipPath id="clippath-3"><path d="M507.89 87h9.35v9.36h-9.35z" class="cls-1"/></clipPath><style>.cls-1{fill:none}.cls-3{fill:#0f4a27}</style></defs><g id="_レイヤー_1-2" data-name="レイヤー 1"><g id="_グループ_441" data-name="グループ 441"><g id="_グループ_440" data-name="グループ 440"><path id="_パス_8033" d="M5.51 57.64V37.49h8.65v-4H1v24.15zm15.73-.46c.54.05 1.08.14 1.61.28 2.18.5 4.4.87 6.62 1.1-.15 1.33-.23 2.66-.23 4 0 3.77 1.01 6.44 3.13 8.33 2.21 1.93 5.34 2.9 9.34 2.9 3.56.16 7.08-.88 9.98-2.94 2.63-1.97 4.19-5.04 4.23-8.33-.05-2.39-.76-4.72-2.07-6.72q-.945-1.485-2.16-2.76c-1.5.6-3.08.96-4.69 1.06 2.81 2.48 4.23 5.15 4.23 7.87 0 4.6-3.68 7.45-9.57 7.45-2.67 0-4.65-.6-6.03-1.84-1.29-1.1-1.89-2.66-1.89-5.01 0-.97.05-1.89.18-3.73 1.93.09 2.48.09 3.36.09 2.24 0 4.49-.13 6.72-.37.44-.08.89-.12 1.33-.14l.14-4.37c-2.84.59-5.74.87-8.65.83-.69 0-1.15 0-2.58-.05.23-1.98.32-2.9.97-7.22 2.3.05 2.9.05 3.5.05 1.38 0 2.94-.09 5.8-.32 1.15-.09 1.38-.14 1.93-.18l.18-4.51c-2.94.66-5.95.97-8.97.92-.37 0-1.01 0-1.79-.05.18-.97.23-1.43.41-2.48q.32-2.21.41-2.62c.14-1.05.38-2.08.74-3.08l-5.11-.46v.69c-.19 2.61-.53 5.2-1.01 7.77-2.82-.23-5.61-.81-8.28-1.75l-.46 4.28c.69.14.87.18 1.52.32 2.21.52 4.46.91 6.72 1.15-.32 2.07-.78 5.43-.97 7.22-2.25-.32-3.5-.51-3.68-.55-1.53-.22-3.03-.64-4.46-1.24l-.46 4.42ZM70.09 57a27.2 27.2 0 0 1 5.2-1.61c3.94-1.05 7.98-1.65 12.05-1.79 5.24 0 7.96 2.02 7.96 5.98.01 1.71-.57 3.37-1.65 4.69a13.38 13.38 0 0 1-6.35 4.1c-3.08.91-6.27 1.41-9.48 1.47h-.69c.84 1.35 1.41 2.85 1.66 4.42 6.07-.74 7.04-.92 9.8-1.79 7.04-2.25 11.22-7.04 11.22-12.79.05-1.99-.49-3.94-1.56-5.61-2.02-3.08-5.38-4.55-10.49-4.55-3.82 0-7.31.51-13.94 1.93-1.54.46-3.13.77-4.74.92l1.01 4.64Zm42.55-10.17h.51c.64 0 1.43 0 2.12.05.64.05 1.01.05 1.33.05.97 0 3.31-.05 3.73-.05-1.79 9.06-5.15 19.09-8.42 25.02l4.83 1.93c2.01-4.82 3.75-9.75 5.2-14.77 1.2-4.19 2.44-9.25 2.99-12.37 2.56-.17 5.12-.51 7.64-1.01q1.01-.18 1.38-.23l-.23-4.42c-2.61.77-5.29 1.26-8 1.47.23-1.2.28-1.66.51-3.04.17-1.48.46-2.94.87-4.37l-5.11-.46c.03.21.05.43.05.64-.14 2.49-.46 4.96-.97 7.41-1.01.05-1.7.05-2.71.05-1.9.06-3.79-.08-5.66-.41l-.05 4.51Zm35.74 1.52c-2.71-.05-3.45-.05-4.74-.05-4.4-.02-8.78.47-13.06 1.47l.37 4.28c3.88-.95 7.87-1.41 11.87-1.38 1.89-.02 3.78.07 5.66.28l-.09-4.6Zm-17.52 9.8c-2.48 3.31-3.31 5.15-3.31 7.36a6.31 6.31 0 0 0 3.22 5.57c2.11 1.2 4.97 1.75 8.88 1.75 2.81 0 5.61-.27 8.37-.78 1.15-.18 1.43-.18 2.16-.32l-.37-4.78c-3.33 1.08-6.8 1.64-10.3 1.66-4.78 0-7.36-1.33-7.36-3.73.03-.85.23-1.68.6-2.44q.765-1.455 1.89-2.67l-3.78-1.61Zm28.66-19.14c.11.93.15 1.87.14 2.81.23 11.18.87 17.3 2.39 21.99 1.61 4.92 4.37 7.87 7.41 7.87 3.68 0 6.07-3.45 8.42-12.05-1.43-1-2.71-2.19-3.82-3.54-.47 2.8-1.27 5.53-2.39 8.14-.64 1.38-1.33 2.12-2.07 2.12-1.61 0-3.22-3.04-4.14-7.82a88 88 0 0 1-.97-13.39c-.05-2.05.07-4.09.37-6.12h-5.34Zm23.23 4.19c2.75 3.25 4.94 6.93 6.49 10.9 1.65 4.13 2.68 8.49 3.04 12.93l4.74-1.84c-1.43-9.89-4.46-17.02-10.26-23.97l-4 1.98Zm31.87-8.69c-.23 2.79-.74 5.55-1.52 8.23-.6.05-1.43.05-2.76.05-1.95.05-3.91-.07-5.84-.37v4.42h1.66q1.84.05 3.13.05c1.33 0 1.75 0 2.71-.05a71 71 0 0 1-4.46 11.18 36.6 36.6 0 0 1-4.46 7.36l4.42 2.53c.18-.41.51-.97.87-1.61 1.79-3.17 2.21-3.96 3.27-6.21 2.03-4.32 3.73-8.8 5.06-13.39 2.99-.23 5.7-.55 7.41-.87.51-.12 1.04-.19 1.56-.23l-.18-4.46c-2.5.74-5.08 1.2-7.68 1.38.51-2.02.74-2.99 1.06-4.46.16-1.02.4-2.02.74-2.99l-4.97-.55Zm28.48 12.23c-3.99-2.47-8.23-4.5-12.65-6.07l-2.3 3.63c4.54 1.55 8.86 3.7 12.83 6.39l2.12-3.96Zm-.05 20.61c-.25-.17-.49-.37-.69-.6-.41-.32-.41-.37-1.43-1.15a31 31 0 0 0-7.59-4.42 57 57 0 0 1-.46-6.67c-.03-1.49.17-2.98.6-4.42l-4.46-.32c-.27 1.44-.39 2.9-.37 4.37 0 1.79.09 3.54.28 5.89q-2.295-.48-4.65-.51c-5.61 0-9.57 3.13-9.57 7.64s3.73 7.13 9.61 7.13c3.31 0 6.03-1.01 7.5-2.71a8.27 8.27 0 0 0 1.66-4.83c0-.32 0-.65-.05-.97a26.1 26.1 0 0 1 7.41 5.89l2.2-4.32Zm-13.94-3.13s.09 1.24.09 1.75c0 2.81-1.66 4.23-5.06 4.23-3.17 0-5.01-1.2-5.01-3.27s2.12-3.5 5.43-3.5c1.55 0 3.09.27 4.55.79Zm22.4-25.21c.11.93.15 1.87.14 2.81.23 11.18.87 17.3 2.39 21.99 1.61 4.92 4.37 7.87 7.4 7.87 3.68 0 6.07-3.45 8.42-12.05-1.43-1-2.71-2.19-3.82-3.54-.47 2.8-1.27 5.53-2.39 8.14-.64 1.38-1.33 2.12-2.07 2.12-1.61 0-3.22-3.04-4.14-7.82a88 88 0 0 1-.97-13.39c-.05-2.05.07-4.09.37-6.12h-5.33Zm23.23 4.19c2.75 3.25 4.94 6.93 6.49 10.9 1.65 4.13 2.68 8.49 3.04 12.93l4.74-1.84c-1.43-9.89-4.46-17.02-10.26-23.97l-4 1.98Zm27.97 8.92v20.15h-8.65v4h13.16V52.12zm38.36 3.5c1.4-.36 4-.83 6.8-1.22-.91 3.67-2.15 7.25-3.7 10.69a37 37 0 0 1-3.74 6.66l3.49 1.98c1.3-2.63 2.12-4.21 2.38-4.79 2.25-4.74 3.97-9.71 5.11-14.83.76-.1 1.53-.14 2.3-.14 2.99 0 3.96 1.12 3.96 4.46.04 2.85-.27 5.69-.94 8.46-.58 2.02-1.22 2.81-2.38 2.81-1.84-.17-3.62-.7-5.26-1.55.14.82.23 1.65.25 2.48 0 .32-.04.79-.07 1.37 1.74.73 3.59 1.14 5.48 1.22 1.47.15 2.91-.46 3.82-1.62 1.62-2.02 2.63-6.88 2.63-12.85 0-3.17-.47-4.86-1.73-6.16a6.76 6.76 0 0 0-5.08-1.73c-.79 0-1.37.04-2.34.11.11-.5.11-.58.25-1.4q.5-2.7.61-3.49.11-.58.25-1.26c.07-.47.14-.72.25-1.19l-3.96-.4c.03.21.04.43.04.65-.16 2.47-.48 4.92-.97 7.34-3.06.43-6.52.83-7.81.83l.36 3.56Zm21.18-5.51c1.66 1.76 3.07 3.75 4.18 5.9 1.33 2.47 2.33 5.11 2.95 7.85l3.38-1.76a34.1 34.1 0 0 0-7.49-13.5l-3.02 1.52Zm22.64-3.67c4.29 1.99 8.8 3.48 13.43 4.43l1.26-3.42c-3.89-.61-10.58-2.66-12.92-4l-1.76 2.99Zm-2.92 3.49c-.07.76-.11 1.19-.25 2.02-.68 4.43-1.15 7.63-1.51 10.26-.18 1.33-.18 1.51-.29 2.12l3.85.11c1.91-2.52 6.48-4.32 10.94-4.32 4.03 0 6.44 1.58 6.44 4.18 0 3.31-3.71 5.58-9.04 5.58a27.6 27.6 0 0 1-9.47-1.8c.31 1.27.44 2.58.39 3.88 2.97.86 6.05 1.29 9.15 1.3 3.92 0 6.88-.76 9.25-2.38a8.19 8.19 0 0 0 3.56-6.66c0-4.43-3.89-7.31-9.9-7.31-4.5 0-9.07 1.51-11.3 3.74.12-.41.2-.83.25-1.26.61-4.28 1.15-7.27 1.66-9.25l-3.75-.22Zm58.13-16.77v-3.64c-.04-1.41.05-2.81.28-4.2h-5.77c.19 1.39.28 2.8.28 4.2v3.64h-11.54c-2.17.04-4.35-.09-6.5-.39v5.49c2.16-.27 4.33-.38 6.5-.34h11.54v8.74h-14.73c-2.15.03-4.31-.1-6.44-.39v5.54c2.16-.24 4.33-.35 6.5-.34h12.26a52.3 52.3 0 0 1-20.5 17.64c1.28 1.41 2.39 2.97 3.3 4.65 4.32-2.44 8.31-5.41 11.88-8.85 3.09-2.85 5.75-6.14 7.9-9.74-.11 2.41-.17 3.75-.17 5.54v10.25c.03 1.95-.1 3.9-.39 5.82h5.99c-.29-1.93-.42-3.88-.39-5.82V60.54c0-1.18-.06-2.41-.17-5.54 2.28 3.97 5.22 7.53 8.68 10.53 3.66 3.37 7.75 6.25 12.15 8.57.9-1.76 1.99-3.41 3.25-4.93a52.7 52.7 0 0 1-13.67-8.62 45.3 45.3 0 0 1-7.9-9.07H456c2.19-.03 4.38.09 6.55.34v-5.55c-2.17.31-4.36.44-6.55.39h-15.9v-8.73h12.71c2.17-.06 4.35.05 6.5.34v-5.49c-2.17.33-4.36.46-6.55.39H440.1Zm56.06 16.13V36.13h13.89c2.08-.03 4.15.08 6.22.34v-5.32c-2.13.33-4.29.46-6.44.39h-13.66v-1.68c-.04-1.5.05-3 .28-4.48h-5.71c.21 1.48.31 2.98.28 4.48v1.68h-12.71c-2.13.03-4.27-.1-6.38-.39v5.32c2.04-.24 4.1-.35 6.16-.34h12.94v13.16h-15.51c-2.11.03-4.23-.09-6.33-.34v5.38c2.12-.23 4.25-.35 6.38-.34h12.54a43.3 43.3 0 0 1-5.21 6.1A51 51 0 0 1 468.45 70c1.32 1.35 2.42 2.9 3.25 4.6 3.47-1.81 6.74-3.99 9.74-6.5 3.9-3.08 7.21-6.86 9.74-11.14-.17 3.02-.17 3.86-.17 5.54v8.74c.03 1.87-.1 3.75-.39 5.6h5.93c-.29-1.85-.42-3.73-.39-5.6v-8.79c0-1.18-.06-2.74-.22-5.6 2.13 3.31 4.7 6.32 7.62 8.96 3.97 3.56 8.42 6.56 13.22 8.9.86-1.77 1.93-3.42 3.19-4.93-9.13-3.75-15.57-8.62-20.89-15.79h13.5c2.17-.02 4.34.09 6.5.34v-5.38c-2.1.28-4.21.39-6.33.34h-6.83c2.1-3.22 3.9-6.64 5.38-10.19l-4.87-1.68c-1.43 4.21-3.43 8.2-5.94 11.87h-4.32Zm-19.77-10.14c2.04 3.14 3.68 6.53 4.87 10.08l4.54-2.13a65 65 0 0 0-5.04-9.97zm57.07 8.23c-2.35.07-4.7-.08-7.02-.43l-.07 3.42c.18-.03.36-.04.54-.04h.22c.5 0 1.19.04 2.09.07l3.49.04h.61c-1.04 1.73-1.8 2.95-2.23 3.64a30.4 30.4 0 0 1-5.8 6.55l2.77 2.77c.82-1.2 1.81-2.27 2.95-3.17 2.84-2.45 5.51-3.74 7.67-3.74 1.24-.11 2.33.8 2.44 2.03 0 .09.01.18 0 .27-6.23 2.66-9.22 5.54-9.22 8.89-.04 1.83.93 3.53 2.52 4.43 1.76 1.01 4.14 1.44 7.78 1.44 3 0 6-.22 8.97-.64.52-.1 1.05-.16 1.58-.18l-.36-3.89a30.7 30.7 0 0 1-9.97 1.48c-5.04 0-6.91-.79-6.91-2.95 0-1.91 1.62-3.35 6.05-5.36v.87c.01 1.56-.06 3.13-.22 4.68l3.49-.07c-.08-.58-.11-1.17-.11-1.76 0-.25 0-.65.04-1.26v-1.7q0-.65-.04-1.94a59 59 0 0 1 9.47-2.99l-1.48-3.46c-.8.47-1.66.83-2.56 1.04-.97.32-2.92 1.04-5.83 2.12a4.35 4.35 0 0 0-1.48-2.74 5.38 5.38 0 0 0-3.49-1.15c-1.98 0-3.9.66-5.47 1.87-.26.18-.52.37-.76.58l-.04-.07a21.6 21.6 0 0 0 3.89-5.62c3.53-.07 8.17-.4 10.69-.72q2.02-.25 2.81-.32l-.22-3.42c-3.14.75-6.35 1.16-9.58 1.22-.97.07-1.62.11-1.8.11h-.18c-.09.03-.19.04-.29.04.07-.14.18-.4.29-.61l1.12-2.63c.11-.29.25-.57.43-.83l-3.96-.5a15 15 0 0 1-1.55 4.64h-1.3Zm28.23 7.7c.89-.42 1.82-.74 2.77-.97 5.98-1.73 10.66-2.56 14.44-2.56 4.75 0 7.52 2.27 7.52 6.16s-2.92 7.06-7.96 8.72c-3.15.95-6.43 1.42-9.72 1.4.73 1.2 1.25 2.51 1.55 3.89 6.12-.61 9.07-1.3 12.35-2.92 5-2.45 7.78-6.41 7.78-11.16 0-5.87-4.43-9.65-11.34-9.65-3.52.03-7.02.45-10.44 1.26q-6.84 1.51-7.85 1.58zm54.61-12.24c-1.37 2.09-5.51 5.9-10.8 9.97-1.12.74-2.17 1.58-3.13 2.52-.7.72-1.1 1.69-1.12 2.7 0 1.48.61 2.38 2.84 4.1 3.2 2.38 6.28 4.91 9.22 7.6 1.73 1.49 3.3 3.15 4.68 4.97l3.1-3.13c-.4-.36-.58-.5-1.01-.94-3.61-3.42-7.43-6.61-11.45-9.54-3.1-2.38-3.2-2.48-3.2-3.06 0-.43.29-.76 1.44-1.66 2.94-2.14 5.76-4.44 8.46-6.88 3.31-3.1 3.89-3.6 4.46-4.03l-3.5-2.63Zm20.77 5.69q.9-.15 1.8-.18c5.47-.22 9.32-.47 10.62-.65l.04.04-.61.61c-4.68 4.79-13.14 11.74-16.38 13.46l2.09 3.2c4.08-3.8 9.41-5.96 14.98-6.08 4.57 0 7.38 1.91 7.38 5.08 0 1.7-.82 3.3-2.2 4.28-.82.58-1.73 1.02-2.7 1.3-.34-1.2-.91-2.32-1.66-3.31a7.51 7.51 0 0 0-6.12-2.99c-3.31 0-5.8 2.02-5.8 4.75 0 1.63.81 3.15 2.16 4.07 1.37.97 3.78 1.51 6.66 1.51 2.94.07 5.85-.61 8.46-1.98a8.58 8.58 0 0 0 4.82-7.74c0-4.79-3.92-7.88-9.97-7.88-2.81-.02-5.59.63-8.1 1.91l-.07-.11c2.48-1.48 6.41-4.72 11.41-9.47.53-.58 1.15-1.08 1.84-1.48l-1.94-2.7c-.62.32-1.32.47-2.02.43-3.53.29-7.78.47-11.05.47-1.28.04-2.55-.03-3.82-.22l.19 3.67Zm11.74 21.92c-.68.11-1.37.16-2.05.14-3.02 0-4.86-.97-4.86-2.56 0-1.15.94-1.87 2.41-1.87 2.27 0 3.78 1.44 4.5 4.28Z" data-name="パス 8033" style="fill:none;stroke:#0f4a27;stroke-dasharray:2;stroke-linecap:round;stroke-width:2px"/><g id="_グループ_439" data-name="グループ 439"><g style="clip-path:url(#clippath)"><g id="_グループ_399" data-name="グループ 399"><path id="_パス_8024" d="M508.07 16.65c3.83-.68 7.74-1.24 10.75-3.93 3.25-2.9 3.84-7.18 4.2-11.28h-2.88c.44 3.88.89 7.87 3.76 10.81 2.93 3 7.08 3.73 11.04 4.4v-2.78c-3.92.68-8 1.37-10.95 4.3s-3.46 6.98-3.81 10.91h2.89c-.46-4.06-.96-8.26-4.15-11.19-3-2.76-6.98-3.37-10.85-4.02-.77-.19-1.55.25-1.78 1.01-.21.77.24 1.56 1.01 1.78 3.19.54 6.84.89 9.37 3.1 2.74 2.39 3.12 5.92 3.51 9.33a1.44 1.44 0 0 0 2.88 0c.29-3.24.66-6.69 3.16-9.05 2.53-2.38 6.2-2.8 9.48-3.37a1.45 1.45 0 0 0 0-2.78c-3.32-.56-7.04-1.01-9.57-3.47-2.43-2.36-2.74-5.78-3.1-8.96 0-.8-.65-1.44-1.44-1.44s-1.44.65-1.44 1.44c-.31 3.45-.74 7.05-3.56 9.42-2.55 2.14-6.12 2.45-9.27 3.01-.77.22-1.22 1.01-1.01 1.78.23.76 1.01 1.2 1.78 1.01" class="cls-3" data-name="パス 8024"/></g></g><g style="clip-path:url(#clippath-1)"><g id="_グループ_399-2" data-name="グループ 399-2"><path id="_パス_8024-2" d="M409.94 94.21c2.35-.41 4.75-.76 6.59-2.41 1.99-1.78 2.35-4.4 2.58-6.92h-1.77c.27 2.38.55 4.83 2.31 6.63 1.8 1.84 4.34 2.29 6.77 2.7V92.5c-2.41.42-4.91.84-6.71 2.64s-2.12 4.28-2.34 6.69h1.77c-.28-2.49-.59-5.07-2.55-6.86-1.84-1.69-4.28-2.06-6.65-2.47a.91.91 0 0 0-1.09.62c-.13.47.15.96.62 1.09 1.95.33 4.19.55 5.75 1.9 1.68 1.47 1.91 3.63 2.15 5.72a.9.9 0 0 0 .92.86c.47-.02.84-.39.86-.86.18-1.99.4-4.11 1.94-5.55 1.55-1.46 3.8-1.72 5.81-2.07.47-.14.74-.64.59-1.12a.9.9 0 0 0-.59-.59c-2.04-.35-4.32-.62-5.87-2.13-1.49-1.45-1.68-3.54-1.9-5.5a.9.9 0 0 0-.92-.86c-.47.02-.84.39-.86.86-.2 2.12-.46 4.33-2.19 5.78-1.56 1.31-3.76 1.51-5.69 1.85a.89.89 0 0 0-.62 1.09c.14.46.62.73 1.09.62" class="cls-3" data-name="パス 8024-2"/></g></g><g style="clip-path:url(#clippath-2)"><g id="_グループ_399-3" data-name="グループ 399-3"><path id="_パス_8024-3" d="M415.17 20.75c1.65-.29 3.33-.54 4.63-1.69 1.4-1.25 1.65-3.09 1.81-4.86h-1.24c.19 1.67.38 3.39 1.62 4.66 1.26 1.29 3.05 1.61 4.76 1.9v-1.2c-1.69.3-3.45.59-4.72 1.86-1.27 1.26-1.49 3.01-1.64 4.7h1.24c-.2-1.75-.41-3.56-1.79-4.82-1.29-1.19-3.01-1.45-4.68-1.74a.65.65 0 0 0-.77.43c-.09.33.1.67.44.77 1.37.23 2.94.38 4.04 1.34 1.18 1.03 1.34 2.55 1.51 4.02 0 .34.28.62.62.62s.62-.28.62-.62c.12-1.4.28-2.88 1.36-3.9s2.67-1.21 4.09-1.45a.628.628 0 0 0 0-1.2c-1.43-.24-3.03-.43-4.12-1.49-1.05-1.02-1.19-2.49-1.34-3.86 0-.34-.28-.62-.62-.62s-.62.28-.62.62c-.13 1.49-.32 3.04-1.53 4.06-1.1.92-2.64 1.06-4 1.3-.33.09-.52.43-.44.77.1.33.44.52.76.43" class="cls-3" data-name="パス 8024-3"/></g></g><g style="clip-path:url(#clippath-3)"><g id="_グループ_399-4" data-name="グループ 399-4"><path id="_パス_8024-4" d="M508.45 92.11c1.19-.08 2.34-.5 3.3-1.21a4.95 4.95 0 0 0 1.29-3.46h-.89c0 1.2.4 2.37 1.15 3.31.95.8 2.14 1.27 3.39 1.35v-.86c-1.23.08-2.4.54-3.36 1.32a5.1 5.1 0 0 0-1.17 3.35h.89c.01-1.26-.44-2.48-1.27-3.43a6.1 6.1 0 0 0-3.33-1.23.463.463 0 0 0-.55.31c-.06.24.08.48.31.55 1.03.05 2.02.38 2.88.95.71.78 1.1 1.8 1.08 2.86 0 .24.2.44.44.44s.44-.2.44-.44c-.03-1.01.31-2 .97-2.78.85-.62 1.86-.98 2.91-1.04.24-.07.37-.32.3-.56a.45.45 0 0 0-.3-.3 5.3 5.3 0 0 1-2.94-1.06 4.24 4.24 0 0 1-.95-2.75c0-.24-.2-.44-.44-.44s-.44.2-.44.44c.04 1.07-.35 2.11-1.09 2.89-.85.55-1.83.87-2.84.92a.45.45 0 0 0-.31.55c.07.23.31.37.54.31" class="cls-3" data-name="パス 8024-4"/></g></g></g></g></g></g></svg>