<svg xmlns="http://www.w3.org/2000/svg" width="129.079" height="97.5"><defs><clipPath id="a"><path fill="none" d="M0 0h129.079v97.5H0z"/></clipPath></defs><g clip-path="url(#a)"><path fill="#fff" d="M38.712 35.136c.28.094.557.181.814.27.3.1.376.053.6.144-.254.215-.235.488-.5.686s-.645.232-.922.412-.574.315-.863.477-.573.313-.872.457-.6.247-.91.371-.525.485-.84.589-.666.091-.987.174-.593.4-.919.468-.667.111-1 .153-.691-.229-1.023-.208-.656-.048-.988-.048a9 9 0 0 1-1.047-.123c-.376-.041-.771.2-1.1.123a7 7 0 0 1-1.028-.345 6.4 6.4 0 0 1-.922-.561c-.32-.195-.757-.228-1.015-.452-.284-.247-.225-.8-.442-1.066-.243-.294-.793-.346-.962-.632-.206-.348.02-.866-.1-1.154-.242-.6-.577-.349-.324-.816a2.75 2.75 0 0 0 1.041-1.1c.164-.412-.107-.965-.05-1.4.049-.351.111-.691.136-1.044s.247-.76.249-1.114c-.357-.379-.6-.082-1.027-.38-.222-.195-.272-.6-.481-.807s-.421-.4-.619-.624-.511-.338-.695-.569a12 12 0 0 1-.873-1.043c-.079-.135.14-.386.043-.549a3.9 3.9 0 0 1-.988.156 3.2 3.2 0 0 1-.868-.29 4.4 4.4 0 0 1-.735-.494c-.238-.193-.61-.248-.806-.484a5 5 0 0 1-.429-.825c-.157-.272-.476-.491-.575-.785s.2-.686.162-1a5 5 0 0 1-.139-.931 5 5 0 0 1-.524-.814c-.118-.282-.449-.516-.542-.826s-.124-.637-.193-.945.071-.673.018-.975c-.059-.331-.332-.616-.374-.906-.053-.363.082-.708.046-.958a11 11 0 0 1-.234-1.128 11 11 0 0 1 .021-1.152c.026-.377.229-.743.293-1.116s.081-.726.162-1.07.1-.731.21-1.067.4-.622.547-.949a10 10 0 0 1 .472-.962 9 9 0 0 1 .57-.912 11 11 0 0 1 .737-.783c.157-.168.046-.283.217-.437.4-.362.611-.119 1.029-.465s.156-.661.572-1.009c.274-.237.826-.112 1.117-.322s.518-.5.827-.68.592-.4.916-.559.566-.522.9-.649.761-.005 1.108-.1.7-.114 1.057-.18.7-.1 1.06-.135.706-.025 1.067-.027c.342-.009.683-.421 1.015-.41s.648.488.978.519.667.022.995.074.691-.045 1.014.03.588.382.906.48.759-.134 1.068-.011.622.286.921.433.485.516.771.687.526.4.8.6.531.385.786.6.784.151 1.02.39c.241.26.41.606.628.884s.371.616.565.911.2.7.369 1.012.435.566.579.89.444.591.56.926.067.725.156 1.069.268.685.331 1.039-.014.735.03 1.093-.094.728-.069 1.087.457.7.462 1.065-.459.716-.473 1.076-.01.711-.043 1.07.149.737.1 1.1c-.008.313.113.626.107.936s.081.625.076.933-.2.618-.2.923-.316.615-.322.919c-.007.328.455.675.432 1s-.394.62-.437.939.024.665-.042.979-.149.639-.243.946-.422.53-.548.826a8 8 0 0 1-.444.834c-.162.282-.046.738-.244 1a7 7 0 0 1-.647.745 10 10 0 0 1-.91.693 9 9 0 0 1-.915.675 10 10 0 0 1-.937.687 7.5 7.5 0 0 1-.989.235c-.11.6.156.563.2 1.175-.006.4-.172.912.13 1.153a3.8 3.8 0 0 0 1.121.382c.3.133.753.138 1.19.291.371.129.695.41 1.084.541.057.045-.007.083-.006.083"/><path fill="#fff" d="M23.962 33.733c.12.293-.084.748.058 1.077.128.3.561.477.7.8.133.3.311.589.456.906.137.3.283.6.429.916s.227.633.374.944.345.58.493.889.174.664.323.971.16.67.309.974.354.58.5.884.589.466.739.77.159.68.309.984.382.571.534.873.2.663.352.964.072.729.223 1.029.649.438.8.735.188.673.339.968c.158.311.286.627.436.921.16.313.175.687.324.977.162.316.568.488.715.774.166.322.353.608.5.886.173.335.369.613.5.874.109.206.259.537.466.428.118-.062.094-.333.115-.465.047-.3.317-.611.375-1 .049-.318-.233-.715-.178-1.082.05-.328.052-.681.106-1.041.05-.332.064-.683.117-1.038.05-.336.209-.665.261-1.018s.046-.691.1-1.041.339-.651.39-1 .163-.678.213-1.024-.043-.711.005-1.056-.037-.712.011-1.057.119-.692.166-1.035.123-.693.169-1.034.4-.659.439-1q.069-.535.131-1.041c.044-.361.125-.706.163-1.038.042-.366-.269-.753-.235-1.077.039-.379.122-.721.148-1.032.035-.419.109-.755.114-1.023-.5-.144-.526.174-1.049.158s-.517-.291-1.042-.307-.519-.179-1.043-.2-.538.437-1.062.421-.52-.213-1.046-.229-.519-.2-1.044-.219-.538.386-1.064.37-.521-.1-1.044-.121-.518-.28-1.044-.3-.529.051-1.056.034-.535.184-1.064.168-.516-.247-1.043-.292c-.062-.005.106.06.106.06"/><path fill="#201614" d="M34.469 32.692a1.8 1.8 0 0 0 .151.933 1.9 1.9 0 0 0 .685.687c.26.164.42.57.709.674.041.016.321-.295.2-.34.094.035.207.056.3.094.122.051.189.229.312.276.373.141.759.234 1.137.361s.732.322 1.109.45.743.29 1.114.436a.76.76 0 0 0 .909-.5c.094-.375-.221-.591-.592-.7-.333-.131-.679-.223-1.018-.34s-.532-.659-.871-.772-.681-.2-1.018-.326c-.219-.078-.48-.031-.7-.117-.192-.075.119.074-.057 0-.086-.037-.252.13-.34.1-.052-.02-.021-.256-.072-.278.106.044-.006-.068-.025-.078-.116-.056-.268-.03-.378-.1-.013-.009-.081-.191-.027-.148s-.281.162-.292.151.09-.359.164-.254c-.025-.035-.082-.038-.106-.075-.033-.066-.089-.049-.068-.006s-.118.056-.142-.015c0-.153-.127.083-.13-.095-.008-.452-.128-.68-.479-.683a.68.68 0 0 0-.732.679l.035.048a.7.7 0 0 0 .221-.058"/><path fill="#201614" d="M34.114 32.71c.016.348.443.557.618.846s.12.831.421 1.006c.259.164.719-.083 1.007.021.041.016.089.359-.034.313.094.036.214-.006.307.032.122.051.257.064.381.111.372.141.666.515 1.044.642s.824.046 1.2.174.713.38 1.084.526a.83.83 0 0 0 .887-.632.836.836 0 0 0-.423-1c-.333-.131-.671-.248-1.009-.364s-.764.026-1.1-.087-.561-.562-.9-.683c-.219-.079-.558.167-.774.081-.192-.075.141.008-.035-.068-.087-.037-.149-.126-.237-.16-.052-.02-.095-.065-.147-.087.106.044-.118.154-.137.145-.116-.057-.1-.363-.209-.432-.013-.009-.3.1-.25.14s-.065-.1-.076-.111.046-.32.12-.215c-.025-.035-.339.1-.364.065-.033-.067.138-.179.159-.136s.172 0 .147-.068c0-.153-.21.11-.213-.068-.008-.452-.283-.911-.634-.913s-.465.45-.458.907l-.255-.207c-.066 0-.119.219-.119.22"/><path fill="#fff" d="M48.627 42.367c-.192-.36-.523-.635-.726-.985-.172-.3-.326-.58-.512-.849s-.306-.609-.516-.861-.553-.4-.785-.631-.472-.455-.725-.67-.435-.516-.7-.711-.513-.431-.8-.6-.632-.232-.929-.39-.617-.236-.922-.38-.558-.368-.869-.5-.5-.549-.813-.67-.712 0-1.03-.118-.546-.45-.863-.559-.727.056-1.046-.054-.589-.245-.909-.357c0 .242-.145.533-.177.96-.023.3.236.663.2 1.035-.031.313-.116.646-.157 1-.036.319-.234.637-.276.986-.039.325-.129.653-.173 1-.041.327-.139.656-.184 1s-.078.664-.123 1-.083.668-.129 1.006.065.687.018 1.024-.068.674-.115 1.01-.093.674-.141 1.009-.222.656-.271.988.1.7.047 1.035-.3.647-.35.976c-.051.344-.12.677-.169 1-.052.345.073.706.025 1.029-.054.352-.194.674-.243.991-.055.36-.077.7-.124 1.006-.058.384-.09.726-.134 1.01-.1.629.3.987-.2 1.054s-.2-.393-.5-.978c-.134-.258-.21-.609-.391-.958-.145-.281-.389-.543-.56-.874-.149-.29-.208-.649-.374-.972-.152-.3-.437-.538-.6-.857-.153-.3-.232-.646-.394-.963-.153-.3-.487-.519-.646-.834s-.315-.609-.473-.922-.321-.607-.478-.919-.249-.642-.4-.951-.035-.751-.189-1.061-.284-.631-.437-.942-.59-.481-.742-.79-.077-.735-.228-1.045-.6-.481-.748-.791.041-.791-.106-1.1-.392-.585-.538-.894-.359-.6-.5-.91c-.15-.322-.116-.718-.256-1.025-.149-.326-.371-.6-.507-.909-.146-.33-.478-.561-.607-.862-.144-.336-.2-.723-.32-1.02-.3.135-.664.192-.967.326s-.622.2-.924.323-.553.369-.856.5-.511.471-.814.6-.754-.085-1.054.047-.453.594-.75.733-.758-.054-1.052.091-.558.365-.847.519-.561.356-.843.523c-.308.181-.425.661-.722.858s-.733.189-1.016.406-.524.487-.791.723-.688.323-.934.58-.27.715-.493 1-.587.454-.783.757-.151.729-.317 1.051c-.149.29-.288.574-.411.88s-.36.559-.459.875 0 .673-.079.994-.557.55-.617.875.168.695.123 1.022-.206.636-.238.964.043.662.023.989.127.662.115.989-.41.652-.414.979.109.662.111.985.325.656.331.979c.007.352-.274.712-.263 1.065s-.127.711-.112 1.065.1.7.119 1.055-.035.711-.013 1.063.233.694.259 1.046-.026.711 0 1.063.178.692.212 1.044-.045.715-.007 1.065.013.711.054 1.061.381.665.426 1.015-.048.718 0 1.067c.051.392-.023.346.036.844.336-.047.772.015 1.117-.033l1.022-.144c.338-.049.634-.415.979-.464s.728.259 1.073.211.638-.391.982-.438.7.049 1.044 0 .652-.3 1-.349.7.02 1.041-.027.679-.11 1.023-.157.669-.187 1.012-.234.7.039 1.044-.009.662-.208 1-.255.667-.178 1.009-.225.731.282 1.073.235.654-.281 1-.327.686-.051 1.028-.1.645-.358.987-.405.686-.064 1.028-.11.736.3 1.079.251.66-.254 1-.3.709.1 1.052.054.639-.41.982-.457.7.024 1.039-.023.676-.139 1.017-.186.69-.039 1.033-.085.675-.15 1.017-.2.7.019 1.042-.027.644-.376.986-.423.7.018 1.041-.03.713.114 1.055.067.681-.125 1.024-.172.684-.107 1.027-.155.7.022 1.045-.024.647-.385.99-.431.678-.165 1.021-.212.731.221 1.074.174.667-.248 1.01-.294.656-.33 1-.375.7-.033 1.039-.081.743.311 1.086.264.645-.41.988-.457.72.147 1.063.1.644-.4.987-.449.68-.143 1.022-.19.686-.118 1.029-.165.728.2 1.07.157.672-.2 1.014-.246.674-.171 1.014-.218.69-.061 1.031-.107.63-.1.969-.148c.18-.305.264-.6.435-.9s.66-.426.827-.724.362-.6.526-.9.05-.764.212-1.069.638-.447.8-.753.087-.73.244-1.038.428-.554.584-.865.04-.751.195-1.065.409-.525.564-.842c-.255-.182-.547-.295-.849-.5-.269-.187-.414-.585-.708-.787-.276-.189-.741-.119-1.031-.314s-.52-.452-.806-.645-.619-.32-.9-.509-.564-.408-.844-.591c-.3-.2-.456-.588-.731-.765-.311-.2-.555-.468-.821-.636-.337-.211-.7-.091-.935-.232-.152.218-.4.374-.66.738-.191.269-.2.709-.432 1.026-.2.286-.472.547-.691.85s-.765.352-.979.646-.063.875-.269 1.159c-.234.32-.708.434-.9.7-.279.379-.359.8-.5.986-.12.156-.116.055-.313.055-.18 0-.052.024-.139-.134-.159-.287-.282-.6-.435-.89s-.312-.582-.459-.879-.386-.545-.527-.845-.157-.655-.3-.956-.585-.458-.722-.76.042-.747-.1-1.048-.449-.524-.59-.824-.311-.584-.455-.883-.2-.638-.349-.933-.442-.5-.6-.8a1 1 0 0 1 .145-.09"/><path fill="#0d4b08" d="M53.8 51.5q.329-.435.655-.872c.326-.437.691-.393.907-.686s.472-.558.687-.853.363-.637.576-.933.335-.656.545-.953.291-.686.5-.984.607-.624.815-.923c-.5-.03-.469.273-.889.542.294.175.43.336.722.516s.567.384.857.568.614.31.9.5.55.411.836.6.741.126 1.026.319.5.49.78.685.416.606.7.8.713.178.994.375.547.428.826.626c.017-.5-.147-.45-.41-.874-.152.311-.217.5-.371.811s-.093.728-.248 1.038-.338.606-.5.914-.32.615-.48.922-.534.5-.7.808-.031.77-.2 1.074-.569.478-.738.781-.454.537-.626.837-.091.749-.267 1.047a.5.5 0 0 0 .192.8.53.53 0 0 0 .826-.2c.177-.3.449-.54.622-.84s.15-.71.319-1.012.583-.468.748-.772.164-.7.327-1 .238-.656.4-.963.293-.626.45-.934.4-.571.558-.88.321-.613.475-.923.578-.483.731-.794a1.11 1.11 0 0 0-.3-1.227c-.279-.2-.554-.394-.835-.592s-.763-.106-1.045-.3-.531-.436-.814-.63-.593-.348-.878-.54-.485-.509-.771-.7-.715-.16-1-.347-.433-.6-.723-.779-.677-.21-.969-.39-.45-.585-.744-.761a.84.84 0 0 0-1.035.34c-.207.3-.222.732-.431 1.03s-.758.357-.969.654-.455.568-.668.864-.206.75-.42 1.044-.361.64-.577.933-.693.393-.911.685-.242.725-.462 1.015a.806.806 0 0 0 .158 1.061.94.94 0 0 0 1.118-.315l-.115-.015a.8.8 0 0 1-.154-.197"/><path fill="#fff" d="M70.777 43.46c-.216.265-.8.245-1.077.523-.254.251-.525.485-.813.733s-.526.514-.82.74-.551.512-.85.715c-.325.22-.716.28-1.018.451a9 9 0 0 1-.95.585 5.1 5.1 0 0 1-.731 1.066c-.3.261-.648.684-1.08.762-.178.032-.582-.233-1.03-.361-.287-.082-.6-.214-.94-.348-.3-.122-.615-.262-.919-.418s-.738-.128-1.008-.313c-.3-.2-.331-.706-.539-.935a1.28 1.28 0 0 1-.384-.789c.041-.164-.011-.335.047-.536.1-.341.371-.688.454-1.055.093-.41-.232-.838-.265-1.142-.043-.385.271-.705.243-.989s-.187-.556-.225-.941a3.7 3.7 0 0 1 .066-.86 3.8 3.8 0 0 1 .1-.88 4.5 4.5 0 0 1 .433-.732 4.6 4.6 0 0 1 .5-.7c.247-.228.362-.562.579-.772.235-.228.681-.217.907-.432s.5-.369.749-.58c.23-.2.371-.516.641-.715A1.95 1.95 0 0 1 64 35.212a1.26 1.26 0 0 1 1.131.481c.187.451-.38.946-.667 1.357-.154.22-.454.624-.189.576.365-.066.129-.464.409-.708.224-.194.728-.114.989-.34.237-.2.373-.548.628-.767s.5-.411.754-.624.426-.521.672-.727.46-.5.7-.693c.274-.224.711-.207.941-.387.341-.266.55-.656.805-.665a1.28 1.28 0 0 1 .929.518c.065-.05.04.078.085.048.318-.234.285-.519.68-.545.23-.015.414.356.638.584a.95.95 0 0 1 .136 1.1c-.011.023.053.053.077.048a1.17 1.17 0 0 1 .966.085c.381.3.077.988-.007 1.2-.181.461-.11.839-.466 1.182a.766.766 0 0 1 1.167-.114 1 1 0 0 1 .109.106 1.54 1.54 0 0 1 .1 1.45c-.185.3-.36.612-.555.9s-.538.485-.745.771-.458.534-.674.812-.182.761-.409 1.031-.713.317-.949.578-.515.476-.76.729"/><path fill="#0d4b08" d="M64.239 38.719c.156-.223.3-.5.493-.759a8 8 0 0 0 .475-.747c.157-.267.5-.448.562-.729s-.175-.553-.278-.85a1.29 1.29 0 0 0-.6-.833 2.36 2.36 0 0 0-1.08-.458 2.9 2.9 0 0 0-1.142.355c-.263.138-.428.452-.671.64a9 9 0 0 0-.655.612c-.22.207-.539.313-.749.524s-.518.339-.729.541a11 11 0 0 0-.837.84c-.247.3-.158.831-.334 1.175a3.7 3.7 0 0 0-.386 1.048 4.4 4.4 0 0 0-.081 1.1c.025.376-.092.765-.05 1.14s.293.746.274 1.125a6.4 6.4 0 0 1-.3 1.347c-.139.49-.542.968-.4 1.478a2.7 2.7 0 0 0 .482 1.087 5.8 5.8 0 0 0 .937.7 10 10 0 0 0 1.038.709 10 10 0 0 0 1.184.408 5 5 0 0 0 .962.327 5 5 0 0 0 1.019.161c.357-.023.56-.481.855-.647a3.3 3.3 0 0 0 .756-.594c.245-.245.553-.241.761-.5-.144-.109-.419 0-.3.135.345-.144.728-.409 1.058-.583s.725-.242 1.038-.446.686-.34.979-.571c.249-.18.236-.692.473-.886s.71-.114.936-.322.417-.461.631-.681.159-.676.359-.908c.28-.337.275-.5.041-.752-.247-.268-.538-.436-.836-.076-.254.3-.485.623-.762.9s-.569.545-.867.8-.535.6-.852.829c-.243.181-.608.2-.861.362s-.449.435-.711.587c-.376.215-.944.328-1.228.647a6 6 0 0 1-.925.955c-.111.083-.342-.053-.469 0-.059.024-.323.307-.171.3.135-.008-.309 0-.153.032a8.4 8.4 0 0 1-1.163-.375 8 8 0 0 1-1.07-.574 6 6 0 0 1-1.173-.791 1.38 1.38 0 0 1-.6-.848.283.283 0 0 0-.039.461c.08-.306.15-.688.237-.992s.324-.574.385-.885a6 6 0 0 0-.094-.921 5.6 5.6 0 0 0-.181-.87c-.053-.312.194-.664.175-.979s-.234-.642-.217-.958a3.6 3.6 0 0 1 .4-.883 3.5 3.5 0 0 1 .421-.855c.246-.269.629-.41.89-.664s.547-.478.823-.717c.231-.22.271-.709.535-.947s.736-.187 1.032-.319c.229-.112.482-.366.73-.3.23.089.158.415.065.6-.172.289-.291.623-.481.9s-.543.441-.751.705a.773.773 0 0 0 .193 1.086.855.855 0 0 0 1.01-.384l.165-.187c-.028-.016-.178.186-.177.184"/><path fill="#0d4b08" d="M73.433 34.662c.14-.345-.08-.665-.155-1.014s-.062-.67-.331-.927a1.8 1.8 0 0 0-.81-.526c-.315-.041-.6.21-.9.351a5.4 5.4 0 0 0-.746.365c-.228.165-.572.2-.773.4-.252.217-.356.6-.605.82s-.474.467-.721.691-.686.236-.932.461-.348.606-.592.832-.616.316-.86.542c-.345.321-.656.682-1 1.006-.281.268-.034.639.164.908s.366.426.7.187c.022-.016.32.123.339.105a1.05 1.05 0 0 0-.022-1.257c-.084-.082-.29-.09-.4-.123-.249-.061-.238-.113-.487-.171a1.03 1.03 0 0 0-1.092.575c-.1.343.293.578.741.684.249.059.2.563.249.31.106-.6-.007-.544-.087-1.149-.012-.088.214-.331.276-.268.5.5.029.981.577 1.416.245-.233.678-.535.924-.769s.566-.389.813-.621.46-.5.709-.731.488-.469.74-.7.545-.4.8-.629.511-.441.769-.66.315-.683.578-.9c.151-.123-.042-.032.006-.064s.138.062.171.039c.081-.058.151-.188.241-.23-.113.049.115-.065.067-.057.067-.019.148.189.206.226.165.129.127.325.058.493-.1.376.072 1.01.447 1.115a1.17 1.17 0 0 0 1.115-.681l-.395.049.215-.1"/><path fill="#0d4b08" d="M67.037 40.093c.27-.216.585-.37.849-.595s.667-.289.925-.52.332-.664.586-.9.437-.547.69-.784.673-.295.925-.531.34-.653.6-.886c.234-.215.532-.373.776-.577.017-.014.1.046.117.032-.125.1.032-.076.065-.1.111-.074.312.169.444.15.2-.014.12-.166.135-.025.008.08-.06.131-.071.211.019-.126.259.064.247.095a3 3 0 0 1-.222.4 4.2 4.2 0 0 1-.694.764c-.211.2-.544.278-.759.48s-.285.556-.5.755c-.275.254-.614.44-.89.693s-.562.495-.839.747-.467.6-.743.852-.532.528-.807.782c-.339.313-.275.473-.017.721s.587.473.916.169q.406-.378.816-.755c.41-.377.613-.428.887-.678s.522-.528.8-.778.326-.741.6-.993c.247-.227.805-.12 1.05-.35s.438-.522.676-.759a5.4 5.4 0 0 0 .655-1.056 2.35 2.35 0 0 0 .236-1.156 1.5 1.5 0 0 0-.211-1.159 1.57 1.57 0 0 0-1.081-.544c-.034 0-.067-.148-.1-.149a2.7 2.7 0 0 0-.961.275 2.7 2.7 0 0 0-.758.614c-.265.235-.455.552-.716.791s-.775.205-1.035.446-.4.608-.662.847c-.234.216-.3.616-.533.833s-.616.272-.853.486-.594.287-.835.5-.491.417-.74.616c-.273.276-.07.831.2 1.107a.558.558 0 0 0 .855-.038l.048.127a.3.3 0 0 1-.061-.161M65.2 37.439c.229-.2.467-.387.7-.585s.522-.324.751-.521.533-.31.763-.507.341-.534.573-.729.594-.2.818-.382.288-.563.515-.745c.194-.17.634.017.856-.115.033-.018 0-.065.035-.079s.137.012.166-.011c-.057.006-.21-.216-.16-.217s.052.014-.011.014c-.02 0-.051-.158-.071-.155a2 2 0 0 0 .3.086c.28.267.666.516.945.25a.87.87 0 0 0-.068-1.119 1.7 1.7 0 0 0-1.132-.434 2.16 2.16 0 0 0-1.161.221c-.283.194-.307.732-.575.953s-.7.24-.967.46-.46.538-.727.763-.557.423-.821.65-.583.394-.847.622-.575.41-.839.639c-.272.277-.08.692.192.969s.71.489.989.221l-.074-.133a.6.6 0 0 0-.15-.116"/><path fill="#0d4b08" d="M73.532 37.23c.092-.043.3.089.4.118-.022-.006-.011.19-.054.129-.027-.038.177.07.175-.009 0 .068-.1.138-.1.206-.009.132.115-.116.066.1-.01.046-.167.055-.18.1 0 .012.128.262.179.164s-.372-.1-.383-.086c-.1.167-.1.4-.2.559-.2.306-.353.64-.565.939s-.549.492-.771.779-.269.712-.5.991-.542.49-.785.76-.567.46-.819.721a1.045 1.045 0 0 0-.009 1.254c.249.254.656.044.973-.288.261-.271.784-.3 1.034-.578s.3-.738.539-1.027.464-.586.694-.883.365-.659.584-.964.453-.591.662-.9a5.7 5.7 0 0 0 .579-.952c.14-.345.585-.678.527-1.1a2 2 0 0 0-.72-1.165 1.9 1.9 0 0 0-1.311-.235c-.106.016-.18.2-.281.233a.71.71 0 0 0-.522.836c.106.374.477.468.852.368l-.111.184c-.042-.1.06-.253.062-.254M69.464 42.171a3.1 3.1 0 0 0-.477-.975 6 6 0 0 0-.778-.7c-.251-.238-.622-.343-.864-.556-.224-.2-.333-.532-.562-.726s-.476-.367-.709-.557-.671-.14-.9-.327c-.28-.266-.479-.354-.759-.087s-.511.8-.239 1.078c.225.179.584.214.807.4s.325.506.544.692.509.286.725.475c.311.273.525.635.818.927.151.15.29.283.427.446-.094-.112.324-.209.341-.182.035.05-.028.17 0 .223.02.035.174.01.191.045.03.064-.086.127-.11.081s.145-.086.169-.02c.012.038-.305.183-.3.222a.89.89 0 0 0 1 .539.715.715 0 0 0 .374-.918l.1-.028.206-.047M20.848 34.3c-.324.137-.663.24-.989.38s-.638.3-.962.447-.618.344-.939.5-.8-.017-1.113.143-.491.587-.8.759-.619.336-.92.521-.677.257-.968.458-.707.249-.985.469-.454.577-.716.815-.332.665-.574.924-.415.551-.635.831-.473.506-.667.807-.6.434-.755.733-.152.68-.282.992-.166.653-.271.975-.216.633-.3.962-.424.6-.489.932.057.7.008 1.035-.2.66-.237.995c-.031.353.122.72.1 1.073s-.02.7-.035 1.059.088.707.08 1.061-.4.7-.4 1.055.1.709.112 1.063.3.7.31 1.05-.121.713-.1 1.066-.1.716-.083 1.07.3.692.324 1.046-.352.736-.325 1.09.366.682.4 1.035-.22.734-.185 1.086.469.665.507 1.018-.119.726-.077 1.078-.017.717.028 1.069.231.681.28 1.033c.1.374.387.4.763.3s.577-.277.484-.652c-.046-.337-.028-.686-.071-1.023s-.12-.67-.16-1.008.086-.692.05-1.03.012-.683-.02-1.021-.06-.674-.089-1.013-.2-.664-.223-1 .089-.685.067-1.025-.408-.655-.426-.994.292-.71.275-1.056-.37-.678-.382-1.024.184-.7.178-1.045.136-.692.136-1.038.036-.689.042-1.035-.23-.7-.218-1.043.129-.687.146-1.033c.02-.32-.162-.658-.131-.98s.381-.6.426-.921.015-.643.075-.96.079-.638.159-.949-.022-.683.079-.988.513-.493.641-.789.087-.666.241-.949.172-.676.356-.945.7-.291.91-.543.429-.471.655-.706.3-.621.543-.837.514-.4.775-.6.586-.293.863-.466.441-.552.727-.721.669-.168.961-.324.5-.486.8-.633.7-.066 1-.205.47-.575.774-.709.691-.079 1-.209l.917-.385a.715.715 0 0 0 .276-.964c-.2-.328-.755-.63-1.094-.444l.257.142c.03.07-.088.2-.091.2M37.152 35.047c.321.11.611.318.935.429s.783-.17 1.106-.055.518.576.838.7.739 0 1.054.131.625.3.933.444.458.6.758.766.761.054 1.048.24.463.534.735.743a10 10 0 0 1 .818.667c.257.245.615.4.846.664s.534.5.743.782.31.656.5.956.492.539.664.848.08.762.24 1.078.422.581.573.9.383.607.53.928.181.694.327 1.012c.138.3.446.523.584.824s-.007.73.132 1.03.321.581.462.88.149.664.294.961.63.423.781.717.229.623.388.913a.623.623 0 0 0 .893.318c.3-.18.318-.511.1-.906-.16-.292-.272-.615-.425-.911s-.315-.59-.462-.889-.065-.709-.207-1.01-.5-.5-.641-.8-.354-.571-.492-.873-.227-.629-.365-.931-.235-.624-.376-.925-.382-.553-.527-.853.086-.785-.065-1.082-.281-.61-.439-.9-.463-.509-.629-.8c-.183-.317-.547-.514-.753-.809s-.364-.629-.595-.907-.418-.6-.672-.859-.624-.39-.9-.626-.548-.46-.841-.675-.48-.579-.789-.772-.764-.117-1.085-.289-.514-.582-.846-.734c-.309-.141-.739.008-1.052-.122s-.59-.337-.906-.457-.6-.315-.922-.43-.551-.478-.871-.589-.649-.2-.969-.308a.88.88 0 0 0-1.012.611c-.084.337.223.587.643.731l.035.215c-.011.032-.119.03-.119.03"/><path fill="#3e783d" d="M19.223 1.53c-.309.13-.7.089-.991.259a8 8 0 0 0-.917.476c-.262.208-.229.749-.461.992-.235.228-.63.3-.834.553a8 8 0 0 0-.5.842 8 8 0 0 0-.469.851 9 9 0 0 0-.243.943c-.1.307-.434.55-.5.87a7 7 0 0 0-.265.957c-.022.319.436.639.461.96s-.241.679-.166.989.374.549.508.838a3.9 3.9 0 0 0 .482.806c.005.008-.268.043-.27.052-.064.374.129.784.1 1.161a11 11 0 0 0 .066 1.125 11 11 0 0 0 .149 1.108c.042.29 0 .687.064 1.124.052.343.24.69.314 1.077.07.361.066.739.162 1.1s-.037.807.092 1.146c.141.369.434.559.621.854.08-.227-.191-.171-.119-.37.1-.272.626-.27.841-.448s.362-.4.648-.447a1.72 1.72 0 0 1 1.289.1c.441-.032.338-.346.752-.5s.471 0 .886-.156.351-.342.768-.489c.335-.1.806.189 1.134.071s.506-.613.826-.75.776.023 1.088-.132.623-.335.925-.512.661-.277.955-.468.586-.4.869-.607.309-.761.585-.981.7-.26.963-.493.459-.541.713-.788.627-.377.868-.635c.245-.275.335-.685.572-.966s.628-.438.857-.726.26-.728.481-1.022.512-.662.725-.962c.308.183.542.685.844.878s.664.287.959.49.613.372.9.585.546.464.826.687.629.362.9.6.574.436.839.677.481.537.737.787.555.461.8.72.289.707.527.974.619.506.849.782c.017-.319-.027-.724-.025-1.043s.045-.638.032-.957-.163-.626-.191-.943.051-.645.008-.961-.141-.622-.2-.936-.136-.619-.209-.93c-.088-.343-.286-.642-.4-.976s-.01-.753-.153-1.076-.369-.611-.538-.921-.47-.537-.665-.833-.092-.81-.311-1.089-.523-.508-.764-.768c-.236-.239-.488-.487-.744-.7s-.681-.224-.955-.421-.4-.618-.692-.791-.757-.01-1.061-.159-.467-.6-.782-.722-.753.134-1.077.033-.559-.474-.89-.55-.71.18-1.046.127-.626-.3-.964-.335-.662-.147-1-.158-.672-.031-1.014-.023c-.3.006-.591.075-.885.1s-.619-.134-.911-.09-.528.266-.817.328a3 3 0 0 0-.933-.434c-.314-.132-.6-.485-.952-.546a7 7 0 0 0-1.084.061c-.354 0-.684.268-1.027.312a7 7 0 0 0-1 .214c-.322.086-.789-.128-1.1 0-.043.037.139.214.139.214"/><path fill="#0d4b08" d="M17.314 5.606c-.223.253-.238.669-.437.938s-.655.367-.832.651-.266.632-.419.93-.3.608-.425.918-.135.666-.237.986-.126.654-.2.981 0 .667-.046 1-.354.63-.373.966.043.67.052 1.007c.012.313-.155.64-.129.953s.466.58.505.892.022.621.075.93-.062.647 0 .953.113.611.186.917.068.632.165.929a8 8 0 0 0 .4.854 6 6 0 0 0 .366.881c.248.367.745.247 1.049.081s.612-.532.352-.917A5 5 0 0 1 17 19.422a8 8 0 0 1-.5-1c-.092-.366-.189-.729-.258-1.092s.043-.728-.012-1.081-.174-.688-.211-1.044-.291-.693-.309-1.049c-.01-.337.263-.669.282-1.008s.1-.65.153-.985-.351-.754-.273-1.084.208-.664.315-.985.221-.661.359-.97.434-.554.6-.847a10 10 0 0 1 .449-.934 9 9 0 0 1 .731-.731.683.683 0 0 0 .069-.97.794.794 0 0 0-1.106-.065l.166.019c-.037-.033-.139.009-.139.009M20.228 4.778c.277-.233.831-.1 1.126-.308s.484-.565.8-.743.669-.264 1-.413.581-.491.921-.61.723-.12 1.073-.207.715-.089 1.072-.144c.335-.048.674.007 1.011-.018s.666-.265 1-.266.667.246 1 .268.669.019 1 .064.675.03 1.007.1.663.124.99.215c.357.1.729.149 1.074.28s.6.451.934.614.777.116 1.091.309.528.539.822.762.626.4.9.648c.25.241.527.461.753.723s.246.683.447.964.506.486.682.784.462.542.61.855.4.6.517.925.074.716.164 1.051 0 .7.069 1.032.039.677.088 1.014.433.634.463.973 0 .69.007 1.03-.054.685-.062 1.025.092.692.065 1.032-.022.677-.068 1.015c0 .389.127.541.516.543s.876-.156.885-.542c.041-.328-.129-.674-.1-1.008s.294-.655.3-.989-.019-.676-.026-1.01 0-.677-.029-1.01-.456-.625-.5-.955-.034-.661-.1-.988.06-.693-.019-1.016-.369-.587-.469-.9-.279-.6-.4-.906-.151-.648-.294-.948 0-.759-.162-1.048-.471-.506-.66-.78-.266-.65-.478-.908-.677-.3-.912-.535c-.251-.255-.609-.375-.879-.605s-.314-.753-.6-.958-.754-.15-1.06-.332-.644-.276-.964-.432-.585-.411-.916-.542-.6-.429-.945-.535-.695-.183-1.042-.264-.698-.134-1.05-.191-.7-.211-1.054-.244S29.1.6 28.748.593s-.726-.072-1.082-.058-.694.352-1.047.389c-.332.037-.663.044-.99.1s-.667.069-.988.154-.693.036-1.008.145-.555.427-.861.558-.726.04-1.022.194-.4.642-.687.818-.673.187-.943.383-.4.561-.659.777c-.362.3-.215.438.053.686.253.233.506.468.845.191l.13-.087c-.071-.085-.261-.069-.261-.069M30.126 20.547c.055-.31.336-.875.113-1.279-.195-.353-.681-.38-1.183-.37a.86.86 0 0 0-.71.465 1.14 1.14 0 0 0-.312.847c.04.362-.077.861.122 1.1.175.209.621.175.915.208a1.1 1.1 0 0 0 .858-.123c.183-.158.106-.51.2-.848M38.567 19.8a2 2 0 0 0-.244-1.11c-.18-.369-.349-.8-.821-.79a1.2 1.2 0 0 0-.875.55 1.64 1.64 0 0 0-.111 1.008 1.84 1.84 0 0 0 .416.882c.242.317.661.66 1.06.525.3-.1.445-.523.575-1.065M33.47 22.117c.116.161.32.263.43.428.128.173-.122.657-.026.851.063.066.03-.2-.006-.286.014.035.262.012.267.05-.012-.094-.192-.07-.2-.164 0 .014.083.029.082.043.013-.094.109-.081.121-.175 0 .02-.24-.018-.248 0 .036-.085.256.007.291-.078-.006.013-.079.021-.088.032.055-.071-.13-.214-.076-.285-.033.04.074.2.034.23.071-.054-.058-.218.013-.274-.038.029.087.326.044.344.084-.035-.068-.359.014-.4-.078.025-.065.216-.146.229a.856.856 0 0 0-.617.928.9.9 0 0 0 1.017.527c.068-.016.189.122.256.1.2-.063.225-.466.371-.61.118-.114.466-.115.519-.27a1.4 1.4 0 0 0 .037-.581c-.034-.153-.477-.144-.563-.275-.182-.306-.4-.579-.6-.868-.1-.155-.09-.284-.265-.338s-.357-.161-.522-.067a.8.8 0 0 0-.362.428.75.75 0 0 0 .113.562v-.008a1 1 0 0 1 .113-.074M20.527 26.275c.186.3.511.5.72.78s.345.617.575.881.337.65.586.895a7.3 7.3 0 0 0 1.266.811c.353.235.361.224.72.449a.666.666 0 0 0 .925-.26c.188-.338.028-.62-.3-.822-.345-.22-.188-.459-.528-.686a.8.8 0 0 0-.169-.132c.107.081 0 .127-.079.06-.05-.044-.051-.042-.1-.086-.066-.06-.281.041-.344-.019-.119-.112.04-.508-.076-.624-.231-.235-.536-.388-.752-.638-.1-.112-.319-.119-.413-.233-.05-.058-.086-.465.112-.2a11 11 0 0 1-.82-.949.9.9 0 0 0-1.086-.376.9.9 0 0 0-.2 1.13l.008-.06c-.033.02-.042.081-.042.081"/><path fill="#0d4b08" d="M27.18 31.541c.316.112.549.482.872.577s.715-.067 1.043.007.618.355.95.407.683 0 1.017.032.674.141 1.011.142.67-.175 1-.205.7.124 1.034.062a10 10 0 0 0 1-.224 10 10 0 0 0 .932-.439 9 9 0 0 0 .867-.533c.286-.156.68-.156.948-.339s.375-.593.62-.8.352-.553.576-.788a10 10 0 0 0 .737-.629 9 9 0 0 0 .647-.734c.161-.289.374-.56.508-.86s.243-.623.351-.934.222-.631.3-.951.263-.635.314-.961.092-.669.115-1c.035-.362-.3-.751-.283-1.114s.108-.72.117-1.083-.14-.727-.138-1.09.361-.723.364-1.087-.151-.727-.145-1.09.111-.723.127-1.085a.7.7 0 0 0-.775-.674c-.35.006-.836.217-.854.665-.016.362.15.732.141 1.095s-.28.721-.284 1.084-.013.726-.019 1.089.248.729.241 1.092.016.727 0 1.089-.208.738-.246 1.11.264.807.189 1.175-.4.686-.506 1.045-.333.672-.479 1.018a7 7 0 0 1-.6.865 7 7 0 0 1-.6.857c-.237.266-.267.754-.54.985a9 9 0 0 1-.928.578 9 9 0 0 1-.981.456 9 9 0 0 1-.949.541 9 9 0 0 1-1.088.116 9 9 0 0 1-1.052.336c-.354.014-.727 0-1.08-.011s-.681-.384-1.032-.428-.689-.1-1.036-.169-.675-.172-1.014-.272-.766.065-1.1-.063c-.438-.155-.818-.021-.905.33s.232.557.648.7l.038.248c.018-.052-.076-.142-.075-.142M19.63 18.883a2.6 2.6 0 0 0-1.03-.293 2.9 2.9 0 0 0-1.132-.063c-.337.119-.5.573-.768.828-.28.315-.789.527-.9.922s.139.865.208 1.28a6.3 6.3 0 0 0-.01 1.157 6.6 6.6 0 0 0 .445 1.062 6 6 0 0 0 .578 1 5.4 5.4 0 0 0 .887.746c.291.236.754.177 1.1.331.326.151.559.615.907.662s.714-.246 1.064-.3a3.3 3.3 0 0 0 .982-.3c.4-.227.661-.691.481-1a.98.98 0 0 0-1.2-.228 1.63 1.63 0 0 1-1.073.159c.059.007-.148-.125-.182-.131-.091-.019-.237.2-.326.175-.039-.012-.3-.087-.115 0-.107-.05-.183-.174-.284-.234a4.3 4.3 0 0 1-.991-.692 4.3 4.3 0 0 1-.494-1.1 4 4 0 0 1-.21-1.244 3 3 0 0 1-.011-.568c.021-.175-.274-.387-.232-.558.013-.082-.08.092.018-.069.037-.061.174-.061.216-.119-.1.128.168.04.193.019.061-.053.115-.226.074-.188.044-.03-.043.013 0-.012.344-.2.653-.041 1.006.137.395.216.765-.224.945-.524s.3-.726-.1-.945l-.12.019c-.006.012.072.068.072.068"/><path fill="#0d4b08" d="M33.893 25.628c-.044.027.114.406.067.43-.029.016-.206-.227-.234-.21-.074.045.164-.04.081-.009-.118.044-.178.271-.3.3s-.3-.149-.432-.129c-.022 0-.09.305.019.289s-.023-.152-.048-.152c-.07.007-.15-.171-.22-.168a3 3 0 0 1-.354 0c-.037 0-.092.244-.129.24s-.13-.042-.015-.027-.049-.084-.083-.091a7 7 0 0 1-.912-.139c-.376-.1-.909-.086-1.014.289s.341.761.711.873a6 6 0 0 0 .861.431 4.3 4.3 0 0 0 1 .2c.324-.009.614-.336.924-.422a4 4 0 0 0 .91-.3.733.733 0 0 0 .293-.976.793.793 0 0 0-1.03-.284l.083.017a.6.6 0 0 0-.177-.167M32.673 9.082c-.207.278-.2.719-.408.993s-.527.471-.742.741-.463.516-.685.78-.348.619-.579.875-.529.459-.772.7-.548.43-.8.664-.662.28-.931.5-.486.476-.762.677-.525.435-.811.621-.672.2-.968.367-.536.423-.841.577-.624.258-.937.4-.509.559-.829.679-.668.175-.994.278c-.425.136-.761.512-.675.85a.765.765 0 0 0 1.006.372c.305-.092.584-.248.883-.355s.647-.082.941-.2.638-.137.926-.272.629-.189.91-.338.421-.592.7-.763.485-.448.756-.631.58-.3.844-.5.475-.447.73-.653.643-.241.883-.455.336-.586.566-.813.523-.389.743-.625.358-.544.57-.788.5-.421.7-.671.415-.495.614-.75.533-.4.728-.663.1-.716.3-.977c.194-.337.323-.758-.012-.957a.8.8 0 0 0-.986.387l.084-.186c-.013-.01-.151.141-.151.141"/><path fill="#0d4b08" d="M32.944 10.144c.31.179.733.177 1.035.368s.37.737.664.94.639.324.925.539.525.48.8.707.624.364.892.6c.254.21.4.539.644.759s.513.4.749.634.567.36.793.6.354.564.571.812.685.285.892.542.269.63.465.894c.254.358.614.255.918.092.321-.171.453-.337.182-.719-.207-.282-.381-.58-.6-.853s-.175-.767-.4-1.031-.8-.218-1.042-.473-.388-.589-.637-.834-.39-.6-.649-.839-.471-.526-.739-.751c-.238-.211-.654-.213-.9-.416s-.54-.336-.791-.531-.418-.5-.676-.683-.472-.435-.736-.613-.614-.22-.883-.389-.563-.285-.838-.445c-.4-.221-.774-.246-.954.055s.025.616.424.839l-.166.121c-.009.014.056.074.056.074"/><path fill="#201614" d="M23.922 29.871c-.012.347-.222.673-.255 1.018-.007.077.1.162.09.239 0 .047-.02.256 0 .11-.028.2-.1.385-.147.583s.1.429.036.616c-.016.046-.208.036-.223.082-.035.111.376.091.329.171s-.439-.1-.482-.035c-.008.013.235.346.286.284s-.022.057-.031.067c-.057.063-.217.044-.279.1s-.234 0-.3.062c-.09.07.127.018.031.086-.049.035-.194-.089-.243-.055-.337.2-.236.686-.039 1.023s.587.676.924.479a4.8 4.8 0 0 0 1.1-1 3.6 3.6 0 0 0 .482-1.31 13 13 0 0 0 .176-1.257c.047-.417-.159-.846-.154-1.267 0-.388-.164-.839-.552-.842s-.518.46-.526.846l-.16-.216c-.019 0-.057.209-.057.21"/><path fill="#0d4b08" d="M25.107.9a4.8 4.8 0 0 0-1.012-.29 5.5 5.5 0 0 0-.993-.3A7 7 0 0 0 22.059.2c-.355 0-.74-.244-1.094-.192S20.34.5 20 .6s-.78-.075-1.1.059a8 8 0 0 0-.884.624 9 9 0 0 0-.956.55 9 9 0 0 0-.722.837c-.262.258-.755.314-.983.6a10 10 0 0 0-.515 1 10 10 0 0 0-.69.9 10 10 0 0 0-.428 1.045c-.112.348.173.807.1 1.17a6 6 0 0 0-.1.9 6 6 0 0 0 .048.9c.023.308-.238.65-.173.953a7 7 0 0 0 .421.844 7 7 0 0 0 .315.868.77.77 0 0 0 1.008.351.93.93 0 0 0 .338-1.136c-.178-.311-.666-.491-.765-.82s.159-.755.133-1.1-.258-.7-.218-1.055.388-.633.483-.973-.035-.753.107-1.074.513-.523.694-.821a9 9 0 0 1 .484-.934 9 9 0 0 1 .578-.909c.23-.227.608-.3.866-.493a7 7 0 0 1 .832-.485 7 7 0 0 1 .852-.461 7 7 0 0 1 .947-.2 7 7 0 0 1 .948-.142 6 6 0 0 1 .959-.066c.325.022.592.27.9.356s.759-.133 1.033.035c.391.238.47.1.646-.208s.25-.445-.136-.68V.8c-.009.016.084.094.083.094"/><path fill="#0d4b08" d="M18.364 6.688c.258-.279.575-.494.855-.751s.434-.67.734-.9c.071-.055.079.246.009.3.087-.067.115-.207.2-.272a.85.85 0 0 0 .382-.407 1 1 0 0 0 .025-.65c-.093-.159-.419-.116-.6-.166a.56.56 0 0 0-.492.049c-.251.183-.567.278-.806.476s-.467.413-.693.626-.259.618-.471.845c-.28.27-.4.531-.126.811a.582.582 0 0 0 .89-.014c.005-.006.144.121.149.116l-.064-.063M22.97 34.047c.129.313.585.49.718.8s.3.607.432.916.014.734.154 1.042.537.5.679.805.112.694.257 1 .34.587.487.892.182.663.33.968.421.547.569.851.44.537.588.841c.157.32.272.66.429.98s.384.605.542.924.125.734.284 1.053.176.71.336 1.028.284.656.445.974.444.574.605.892.221.688.383 1.005.5.546.662.863.351.621.515.938c.134.261.318.5.452.758s.219.548.354.809.174.588.334.85.455.263.751.359a.85.85 0 0 0 .992-.133c.223-.255.557-.477.568-.817.04-.261-.046-.533-.006-.8s.2-.5.242-.764c.049-.324-.121-.682-.072-1.006s.16-.639.208-.963 0-.663.051-.987.435-.6.483-.924-.267-.7-.22-1.026.38-.608.426-.932.174-.638.22-.963-.038-.668.007-.993-.1-.676-.053-1 .434-.6.479-.93-.13-.681-.086-1.007-.02-.665.021-.991.005-.662.045-.988.024-.658.062-.984c.042-.359.369-.686.41-1.046s.1-.72.127-1.081-.133-.731-.124-1.093c.01-.457-.235-.928-.59-.925a1.02 1.02 0 0 0-.819.925c-.008.359.084.72.06 1.079s-.176.7-.212 1.061.195.745.152 1.1-.145.708-.193 1.064-.179.7-.229 1.058-.279.686-.326 1.04.247.761.2 1.118-.385.675-.435 1.032-.186.7-.237 1.058-.042.722-.093 1.079.009.73-.043 1.086.1.743.044 1.1-.306.683-.359 1.04.071.739.018 1.1-.07.723-.125 1.082-.072.724-.126 1.082-.207.706-.263 1.064c-.014.049-.2.084-.2.136.031.144-.074.18.207.054.049-.023.568.023.544.082a3 3 0 0 0-.146-.337c-.1-.2-.311-.341-.413-.538-.125-.242-.29-.464-.415-.706s-.217-.5-.341-.743c-.152-.3-.522-.48-.674-.776s-.24-.624-.391-.921-.1-.7-.248-.993-.215-.636-.365-.933-.612-.436-.761-.733-.125-.682-.274-.979-.482-.5-.631-.8-.132-.678-.28-.976-.109-.687-.256-.985c-.158-.321-.457-.572-.616-.894s-.49-.557-.648-.879-.425-.592-.582-.915.015-.8-.14-1.128-.338-.634-.49-.958-.381-.616-.53-.943-.2-.7-.348-1.024-.494-.568-.635-.9-.243-.682-.378-1.012a.736.736 0 0 0-.822-.573.915.915 0 0 0-.631.966l.237.17c-.1.04-.283-.131-.283-.13M39.833 39.5c-.056.347.164.74.107 1.087s-.294.665-.352 1.012-.145.69-.205 1.037.045.722-.015 1.069-.253.67-.314 1.017-.2.679-.264 1.026.1.736.038 1.083c-.093.375.051.564.42.676s.784.063.89-.312c.062-.346-.158-.746-.1-1.093s.089-.7.15-1.046.476-.631.536-.978-.181-.745-.121-1.092.216-.677.275-1.024-.027-.718.03-1.065.359-.654.414-1a.713.713 0 0 0-.507-.847.813.813 0 0 0-.985.437l.128.006a.4.4 0 0 0-.128.009M18.6 41.041c.2.279.19.7.384.979s.676.363.869.644.265.646.456.928.332.6.522.882.284.63.473.914.566.443.754.727.169.707.357.991.4.555.587.839.314.611.5.9.6.422.786.706.335.6.524.88.209.682.4.965.639.391.831.673.251.655.445.936a.767.767 0 0 0 1.022.123c.318-.173.657-.587.392-.971-.193-.281-.322-.6-.514-.886s-.626-.4-.816-.683-.406-.55-.6-.833-.362-.579-.551-.862-.267-.642-.455-.927-.435-.53-.624-.814-.492-.492-.681-.776-.129-.733-.318-1.017-.544-.457-.734-.741-.371-.572-.561-.855-.249-.655-.44-.937-.347-.591-.539-.872-.46-.513-.654-.793-.3-.621-.5-.9c-.253-.359-.808-.254-1.112-.091a.552.552 0 0 0-.211.877"/><path fill="#3e783d" d="M35.587 36.459a8 8 0 0 1-1.081.364 10 10 0 0 1-1.131.12c-.374.051-.745.278-1.116.291s-.763-.275-1.13-.293c-.387-.019-.773.068-1.129.022s-.644-.32-.964-.384c-.346-.071-.657-.168-.967-.258-.342-.1-.8.189-1.1.07-.337-.134-.448-.69-.719-.841a5.7 5.7 0 0 1-.868-.456 1.73 1.73 0 0 1-.594-.851 4 4 0 0 1-.068-1.068 6.3 6.3 0 0 1-.064-1.092c.05-.337.276-.661.37-1.042.032-.13-.163-.493-.031-.477.535.064.4.6.9.792.313.115.728-.051 1.046.047s.635.19.958.271.663.061.989.125.593.5.923.546.683-.021 1.015.008c.4.029.783-.187 1.137-.187.383 0 .751.135 1.124.116s.733.086 1.129.065c.348-.019.7-.338 1.114-.348a1.46 1.46 0 0 1 1.008.392 2.8 2.8 0 0 1 .441 1.055 2.8 2.8 0 0 1 .144 1.146c-.047.217-.265.506-.364.819-.086.274-.168.618-.452.767-.172.091-.554-.022-.734.053-.035.049.212.228.211.228"/><path fill="#0d4b08" d="M35.4 35.777a9 9 0 0 1-.951.422c-.325.089-.72-.087-1.055-.033s-.665.114-1 .135-.671-.1-1.01-.107-.68.1-1.016.061-.646-.225-.977-.291-.633-.207-.957-.3-.779.189-1.092.07c-.332-.126-.552-.657-.906-.868-.371-.219-.832-.293-.974-.631a2.9 2.9 0 0 1-.107-1.1 6 6 0 0 1 .256-1.07c.072-.379-.037-.811.046-1.148-.49.1-.478.191-.8.574.343.132.6.283.942.4s.719.172 1.07.277.661.387 1.016.476.807-.255 1.167-.187.652.57 1.017.615.749-.029 1.117-.009.741.128 1.111.121c.321-.006.635-.309.956-.327s.658.267.98.249c.257-.013.572-.226.875-.224.32 0 .623-.006.78.272a2.3 2.3 0 0 1 .115.765 2.3 2.3 0 0 1 .006.767c-.015.206-.265.313-.337.505-.127.259-.172.554-.422.662-.334.2-.645.593-.451.93a1.07 1.07 0 0 0 1.188.364 2.5 2.5 0 0 0 .786-.421 2.7 2.7 0 0 0 .577-.731c.159-.4-.151-.94-.113-1.372a3.7 3.7 0 0 0 .142-.911 3.2 3.2 0 0 0-.275-.867c-.116-.3-.013-.74-.23-.964a2.1 2.1 0 0 0-.9-.4c-.3-.09-.622.084-.947.095s-.639.061-.942.078-.6-.119-.9-.1-.591.219-.888.224-.628-.118-.937-.132-.634.05-.942.018-.579-.36-.885-.41-.6-.134-.9-.2-.628.03-.918-.051-.564-.221-.85-.312-.488-.422-.771-.524-.709.21-.989.1c-.375-.1-.731-.079-.836.3-.08.322.091.708.024 1.05s-.382.626-.412.965.245.669.275 1.006-.308.756-.191 1.078a3 3 0 0 0 .719.878 4 4 0 0 0 .945.538 8 8 0 0 0 .884.641c.317.137.7.105 1.034.217s.576.518.919.6.722-.015 1.069.043.686.171 1.035.2.7.091 1.054.093.684-.349 1.032-.376.755.382 1.1.323.591-.573.925-.667a9 9 0 0 0 .978-.337c.368-.113.814-.319.723-.694a.83.83 0 0 0-1-.424c-.051.033.027.083.025.084"/><path fill="#3e783d" d="M25.183 35.448c.1-.072.225-.111.326-.193a2.95 2.95 0 0 0 .753-.977 3.3 3.3 0 0 0 .547-1.177c0-.057.026-.052.03-.108a3.4 3.4 0 0 0-.144-.96 3.4 3.4 0 0 0-.309-.914 3.5 3.5 0 0 0-.558-.807c-.317-.293-.843-.323-1.227-.509a4.2 4.2 0 0 0-1.2-.373c-.336-.04-.7.054-1.029 0s-.667-.151-1-.216-.644-.257-.974-.327-.658-.163-.986-.233-.669-.1-1-.163c-.1 0-.145-.008-.149.088-.019.433-.11.859-.1 1.251a2.5 2.5 0 0 0 .278 1.236c.258.4.254.49 1.054.991-.262.113-.428.22-.695.323s-.6.027-.869.118-.5.291-.78.371c-.34.1-.3.385-.191.724.017.057-.27.236-.238.286a5.2 5.2 0 0 0 .667.848 7 7 0 0 0 .866.635 8 8 0 0 0 .96.462 8 8 0 0 0 .925.555c.35.116.76-.053 1.089-.008a5.3 5.3 0 0 0 1.034-.007c.354-.013.752.29 1.1.21s.62-.41.943-.554a5.3 5.3 0 0 0 .909-.5c.035-.045-.036-.07-.036-.07"/><path fill="#0d4b08" d="M19.622 31.4a1.8 1.8 0 0 1-.805-.955 3 3 0 0 1 0-.8 2.5 2.5 0 0 1 .136-.8c-.179-.009-.317-.121-.393.042-.019.042.407.183.365.2-.162.078-.259-.109-.4 0-.036.025.14.058.1.056-.187-.011-.558-.268-.584-.082.366.073.989-.038 1.354.04s.72.2 1.084.275.667.467 1.034.536c.3.057.652-.121.967-.081s.59.258.893.324.722-.152 1-.016a3.2 3.2 0 0 1 .717.582 3 3 0 0 1 .562.7c.152.245-.011.6.06.889a2.6 2.6 0 0 1 .2 1.088 2.6 2.6 0 0 1-.6.931c-.215.271-.234.759-.522.947a4.5 4.5 0 0 1-1.02.31 5.4 5.4 0 0 1-.989.379 6 6 0 0 1-1.05-.127 5 5 0 0 1-1.023-.153 7.2 7.2 0 0 1-1.266-.279c-.375-.186-.549-.721-.884-.975-.317-.239-.864-.256-1.12-.559-.05-.06-.011-.505 0-.376 0 .018 0-.053-.021-.062.064.035.256-.184.346-.213.283-.09.637.04.915-.058s.627-.054.9-.168c.258-.122.491-.287.754-.4s.533-.155.8-.25a3.8 3.8 0 0 1 1.109-.168c.4 0 .809-.235 1.193-.127a.627.627 0 0 0 .827-.43c.1-.343.029-.963-.415-1.073-.368-.1-.814.246-1.19.22a5.6 5.6 0 0 0-1.113-.084c-.374.048-.828-.152-1.189-.03s-.545.659-.886.81-.768.1-1.119.223c-.317.112-.678.248-1.038.366a2 2 0 0 0-.867.6.93.93 0 0 0-.234.81 1.52 1.52 0 0 0 .187.887 4.4 4.4 0 0 0 .578.805 9 9 0 0 0 .761.638c.253.19.432.527.706.682a8 8 0 0 0 .93.3 8 8 0 0 0 .884.4 8 8 0 0 0 .958.146c.328.042.682-.158 1.021-.169a6.6 6.6 0 0 0 1-.024 6.6 6.6 0 0 0 .977-.247c.32-.111.533-.427.824-.588s.738-.106.991-.321a4.7 4.7 0 0 0 .789-.691 4.4 4.4 0 0 0 .34-1 4 4 0 0 0 .138-1 4 4 0 0 0 .09-1.005 4 4 0 0 0-.284-.972 4 4 0 0 0-.428-.929c-.2-.267-.611-.325-.879-.538a5.3 5.3 0 0 0-.757-.647 5.7 5.7 0 0 0-.882-.544c-.337-.075-.676-.209-1.016-.266s-.7 0-1.045-.035c-.3-.055-.651.208-.946.148s-.526-.425-.819-.488-.616 0-.91-.06a2.44 2.44 0 0 0-1.2 0c-.489.141-.826.412-.847.855-.017.379.073.778.094 1.162a3.6 3.6 0 0 0 .124 1.192c.131.286.548.408.757.64s.247.7.519.864c.386.255.851-.162 1.026-.476s.093-.559-.279-.8l-.028-.206c-.041.08.041.223.041.223M.972 67.574c.329-.049.655-.119.984-.167s.652-.144.981-.192.628-.308.958-.356.693.148 1.023.1.624-.335.954-.382.665-.05.994-.1.67-.016 1-.062.643-.205.973-.252.708.259 1.038.213.654-.126.984-.173.652-.136.982-.183.682.068 1.011.022.633-.28.963-.326.644-.195.974-.241.681.063 1.011.017.642-.263.975-.309.706.192 1.039.146.649-.218.982-.264.668-.078 1-.125.644-.25.977-.3.651-.207.984-.253.669-.07 1-.116.694.106 1.027.06.662-.127.995-.173.668-.075 1-.121.694.109 1.027.063.609-.5.943-.55.7.152 1.033.106.626-.386.959-.432.691.092 1.024.046.669-.079 1-.125.651-.2.984-.249.674-.038 1.007-.084.649-.219.982-.265.713.246 1.046.2.692 0 1.032-.042.649-.312.988-.359.7.066 1.041.019.678-.1 1.018-.144.676-.113 1.016-.159.683-.062 1.023-.108l1.019-.14c.339-.047.668-.169 1.008-.215s.68-.084 1.02-.131.664-.2 1-.247.7.092 1.044.045.638-.393.977-.439.7.082 1.043.035.653-.283.993-.329.678-.1 1.017-.148.695.018 1.034-.028.66-.232 1-.279.722.219 1.061.172.633-.432.973-.478.692.005 1.032-.042.674-.127 1.014-.173.715.222 1.051.176.652-.246.988-.292.7.132 1.04.086.663-.156 1-.2.644-.3.98-.346.682-.023 1.018-.068.694.058 1.03.013.625-.439.961-.485.7.074 1.032.028.7.132 1.039.086.645-.293.982-.339.647-.28.983-.326.708.166 1.044.12.634-.373.97-.419.683-.02 1.019-.066.721.263 1.057.217l1.009-.139c.336-.046.644-.3.981-.344s.669-.112 1.006-.158.677-.112 1.018-.159.658-.256 1-.3.7.039 1.039-.008.663-.219 1-.266.721.2 1.061.152.691-.014 1.032-.062.647-.334.987-.381.71.123 1.051.076.644-.351.984-.4.685-.065 1.025-.113.721.2 1.061.15.633-.434.973-.482.716.161 1.056.113c.518-.073.466-.388.981-.48.374-.1.653-.315.553-.691s-.557-.766-.931-.673c-.343.049-.651.27-.993.319s-.718-.133-1.061-.085-.623.537-.966.585-.707-.058-1.05-.01-.67.207-1.013.255-.7.019-1.039.066-.714-.112-1.057-.064-.661.269-1 .316-.724-.185-1.067-.138-.677.161-1.019.208-.666.242-1.009.289-.688.077-1.031.124-.717-.079-1.063-.032-.638.5-.985.545-.7.044-1.046.092-.692.1-1.039.149-.709-.021-1.055.027-.721-.108-1.067-.061-.645.452-.991.5-.74-.247-1.087-.2-.656.36-1 .407-.695.077-1.042.124-.679.2-1.025.246-.749-.313-1.1-.266-.648.426-.994.474-.683.171-1.029.219-.707-.006-1.054.041-.691.1-1.038.151-.731-.185-1.078-.138-.7.052-1.045.1-.617.533-.955.579-.7-.079-1.039-.033-.709-.138-1.047-.092-.643.344-.981.39-.687.018-1.026.065-.689 0-1.027.05-.667.166-1.006.212-.656.242-.994.288-.687.019-1.026.066-.663.191-1 .237-.673.121-1.011.167-.724-.249-1.062-.2-.645.327-.983.373-.657.245-.995.292-.7-.061-1.036-.015-.672.13-1.011.177-.683.046-1.021.092-.7-.053-1.035-.006-.68.073-1.018.12-.66.22-1 .266-.7-.078-1.039-.031-.688.01-1.026.056-.623.491-.961.538-.724-.25-1.062-.2-.635.4-.973.445-.687.023-1.025.07-.66.215-1 .262-.7-.1-1.041-.051-.651.282-.989.329-.68.07-1.019.117-.681.057-1.019.1-.713-.167-1.051-.12-.631.425-.969.472-.724-.247-1.062-.2-.683.049-1.022.1-.657.23-1 .277-.693-.031-1.032.016-.653.264-.991.311-.7-.066-1.037-.019-.658.226-1 .273-.7-.042-1.034 0-.669.278-1.016.327-.68.191-1.027.239-.742-.251-1.089-.2-.654.379-1 .428-.678.206-1.025.254-.7.023-1.051.072-.7.036-1.049.085-.709-.013-1.055.036-.685.164-1.031.213-.673.245-1.02.294-.7.077-1.043.126-.729-.155-1.076-.1-.675.226-1.021.275-.7.037-1.049.086-.708 0-1.055.05c-.466.068-.943.144-1.41.213a.97.97 0 0 0-.512 1.059c.112.37.508.329.883.236l-.049.254c0 .025.116.034.116.034"/><path fill="#fff" d="M75.453 61.382c-.145-.278-.18-.673-.369-1.03-.158-.3-.355-.608-.534-.946-.164-.309-.646-.465-.82-.794s-.343-.634-.514-.957-.087-.779-.255-1.1-.528-.555-.694-.87c-.176-.334-.231-.718-.391-1.025-.18-.346-.541-.571-.692-.865a.85.85 0 0 1 .292-.924c.028-.014.184.286.214.277.263-.079.515-.384.864-.491.289-.088.577-.266.9-.367.3-.092.693.075 1.011-.023s.56-.387.872-.483.607-.26.912-.354c.323-.1.632-.211.928-.3.336-.1.635-.25.917-.337.378-.117.71-.17.941-.242a.8.8 0 0 1 .77.33c.118.219.316.51.519.888.144.27 0 .737.183 1.069.152.283.384.548.555.867.156.289.4.548.57.86.159.3.528.487.695.8s-.046.8.12 1.106.55.482.714.785.183.688.347.99.272.644.435.944.626.452.787.747c.17.312.088.751.247 1.043.173.315.631.457.787.741.178.324.011.809.162 1.081.139.249.073.266-.177.4-.02.011.128.364.106.373-.351.136-.8.016-1.153.151s-.7.273-1.053.408-.725.207-1.076.341-.714.242-1.067.377-.7.283-1.056.418"/><path fill="#0d4b08" d="M75.81 61.158c-.168-.322-.28-.672-.449-.993s-.013-.813-.182-1.134-.354-.633-.524-.953-.592-.507-.762-.828-.223-.7-.392-1.022-.3-.663-.467-.984-.394-.612-.562-.934c-.119-.23-.371-.4-.49-.625-.025-.064-.1-.039-.137-.1-.029-.014 0 .142.029.175a1.7 1.7 0 0 0 .326-.119c.247-.075.493-.144.739-.22s.47-.226.716-.3c.289-.089.53-.332.819-.421s.558-.242.847-.331.614-.06.9-.15.544-.286.833-.376c.374-.115.5.284.872.168s.263-.485.639-.594c.177-.039.414.107.581.038a.5.5 0 0 0 .089-.046c.119-.117-.251.144-.216.1.029.064.092-.066.13-.007.189.353.432.677.621 1.03s.542.618.732.971c.161.3-.023.784.139 1.083s.45.529.611.828.413.549.575.848.1.718.262 1.017l.488.9c.162.3.627.433.789.731s.117.71.279 1.009c.152.279.572.412.724.691s.213.607.366.886c.141.256 0 .67.136.926.068.124.5.287.628.342.024.011.014.328.008.186s.081 0-.164.073c-.216.065-.384.247-.593.329-.478.184-1.111-.032-1.589.151-.321.123-.53.539-.851.661s-.614.319-.935.442-.741-.023-1.062.1a.98.98 0 0 0-.626 1.007.96.96 0 0 0 1.058.53c.321-.122.585-.408.906-.53s.6-.362.919-.485.8.179 1.125.056c.425-.163.8-.442 1.226-.606a8 8 0 0 0 1.307-.734 1.21 1.21 0 0 0 .657-.953c-.031-.356-.378-.58-.583-.872-.132-.238-.181-.537-.313-.776s-.161-.532-.291-.771c-.161-.293-.427-.529-.587-.823s-.273-.613-.433-.906-.077-.72-.237-1.014-.611-.429-.77-.723-.132-.689-.291-.983-.438-.524-.6-.818-.226-.638-.385-.932-.24-.63-.4-.925-.546-.443-.7-.728-.027-.722-.181-1.007-.662-.381-.815-.666a1.9 1.9 0 0 0-.5-.635c-.219-.179-.377-.692-.729-.657a8 8 0 0 0-1.353.609c-.316.1-.582.356-.9.454s-.7-.019-1.015.079-.6.291-.92.389-.624.223-.941.321c-.3.092-.668-.047-.967.045s-.481.562-.78.654c-.316.1-.693.025-.976.181s-.358.382-.444.76a1.5 1.5 0 0 0 .224 1.066c.189.387.384.782.55 1.1.19.364.392.72.584 1.084s.46.684.652 1.047c.146.275.231.582.378.857s.365.512.511.787.286.554.432.83.184.608.329.884.3.545.447.822c.213.409.4.287.706.1s.754-.434.547-.831l-.226-.078c-.094.05-.107.253-.107.252"/><path fill="#fff" d="M75.96 61.467c-.276.108-.488.138-.583.419-.149.46-.089.458-.268 1.031a8 8 0 0 0-.784-.881 1.6 1.6 0 0 0-1.038-.17 1.37 1.37 0 0 0-.9.374 1.5 1.5 0 0 0-.454.541c-.1.239-.339.449-.33.715a4.1 4.1 0 0 0 .373.989c.117.313.07.727.209 1.048.153.353.446.635.548.908a1.29 1.29 0 0 0-.6.943 2.55 2.55 0 0 0 .358 1.428c-.38.228-.509.628-.807.956a1.33 1.33 0 0 0-.415 1.114 2 2 0 0 0 .375.827c.207.277.331.624.556.886s.622.364.865.609.312.677.572.9.745.176 1.019.385.493.48.782.67.538.434.84.6.6.345.909.492c.274-.194.436-.549.713-.739s.762-.075 1.041-.262.444-.544.725-.728.616-.284.9-.464.605-.3.89-.474.479-.5.767-.677.457-.4.747-.575c.051-.317.455-.534.458-.852s-.426-.618-.471-.934a6 6 0 0 0-.189-.912c-.091-.306.046-.7-.09-.986-.149-.311-.486-.526-.652-.827s-.04-.78-.223-1.072-.7-.369-.894-.65-.486-.493-.7-.763c-.316-.423 0-.661-.309-1.087s-.336-.41-.649-.838-.285-.448-.6-.875a8 8 0 0 0-.715-.783 2.6 2.6 0 0 0-.927-.5 1.33 1.33 0 0 0-1.072.03.12.12 0 0 0 .015.171"/><path fill="#0d4b08" d="M83.524 72.866a6.3 6.3 0 0 0 .284-.978 7 7 0 0 0 .172-1.037 7 7 0 0 0-.073-1.059c-.083-.334-.539-.555-.664-.878s.077-.79-.079-1.1-.457-.546-.635-.844-.284-.644-.476-.931-.634-.4-.833-.683-.416-.553-.618-.828c-.247-.337-.426-.724-.673-1.061s-.3-.809-.551-1.146c-.188-.289-.536-.466-.766-.721a7 7 0 0 0-.638-.852 2.7 2.7 0 0 0-.968-.342 2.4 2.4 0 0 0-.993.016 2 2 0 0 0-.831.493c-.235.2-.273.484-.4.812-.1.375-.1.858.273.963s.684-.314.794-.685c.1-.261.732-.321.94-.251a2.7 2.7 0 0 1 .944 1.112c.194.257.3.584.49.843s.541.4.731.661.516.422.705.683.051.759.24 1.019.749.306.946.594.418.562.6.857.21.687.364.994a9 9 0 0 1 .537.911c.117.326-.191.765-.13 1.1s.327.643.319.99-.31.62-.4.964c-.108.437.434.705.77.8s.842.107.951-.338l-.171.15c-.105-.025-.167-.231-.167-.232"/><path fill="#0d4b08" d="M77.52 65.127c-.206-.315-.585-.513-.8-.824s-.375-.651-.6-.955-.186-.81-.423-1.1-.614-.409-.869-.621a2.5 2.5 0 0 0-.886-.512 2.4 2.4 0 0 0-1.064-.277c-.4.074-.59.642-.891.885a2.1 2.1 0 0 0-.751.807 2.3 2.3 0 0 0-.251 1.122 4.4 4.4 0 0 0 .131 1.064c.118.33.367.617.514.939s.307.668.43.99c.3-.313.4-.375.432-.8a2.3 2.3 0 0 0-.691.706 2.04 2.04 0 0 0-.381.857 3.8 3.8 0 0 0 .4 1.684c.251-.431.666-.364.669-.863-.25.167-.744.342-.977.538a3.8 3.8 0 0 0-.737.583c-.17.245-.09.617-.154.929a1.8 1.8 0 0 0-.018.869 2.8 2.8 0 0 0 .386.805c.166.249.489.376.68.611.234.286.292.718.545.986s.633.4.9.654.451.6.74.831.588.448.893.657.73.215 1.049.4c.392.232.654.223.832-.082a.6.6 0 0 0-.276-.871c-.308-.181-.569-.444-.862-.646s-.543-.464-.821-.689-.559-.441-.819-.686-.629-.387-.87-.651-.368-.606-.583-.878a2.6 2.6 0 0 1-.455-.754.92.92 0 0 1 .174-.921c.23-.233.7-.227.9-.367a.81.81 0 0 0 .155-1.05 3.6 3.6 0 0 1-.256-.738.49.49 0 0 1 .232-.6c.272-.166.2-.554.12-.862-.149-.389 0-.9-.162-1.281a11 11 0 0 1-.494-1.127 1.12 1.12 0 0 1 .077-.889c.138-.288.236-.708.668-.707a1.42 1.42 0 0 1 .9.512c.23.245.3.65.47.874s.5.372.671.614.188.594.355.839.572.335.735.583c.243.373.412.356.717.187s.379-.266.125-.653l.324.034a2 2 0 0 1-.132-.159"/><path fill="#fff" d="M95.709 33.293c.036-.336.444-.611.511-.941s-.22-.752-.12-1.073.386-.588.513-.9.469-.514.625-.813.053-.74.236-1.024a8 8 0 0 1 .626-.8c.188-.223.438-.461.709-.729.221-.218.455-.472.733-.706.243-.2.608-.282.895-.488.262-.188.472-.48.772-.663.278-.17.516-.449.827-.609.291-.149.652-.189.972-.325.3-.129.643-.19.973-.3.312-.107.586-.383.922-.473s.714.023 1.048-.048.695.041 1.033-.008.66-.153 1-.18.67-.37 1.012-.374.681.3 1.023.313.671.076 1.012.117.661.122 1 .185c.314.063.627.186.985.28.316.083.73-.115 1.074 0 .312.107.575.381.9.525.3.133.665.175.98.346.292.158.682.2.98.393.279.183.311.73.593.949.262.2.715.193.978.433.247.225.61.363.855.622.23.243.263.684.49.959.213.258.5.471.71.758s.273.639.467.939c.182.283.445.527.623.837s.3.636.449.952.135.7.264 1.025.6.531.707.865.059.72.142 1.061.042.706.1 1.052.079.69.115 1.04.171.686.184 1.038-.052.7-.063 1.049-.2.655-.238.983.282.725.223 1.05-.112.682-.193 1-.31.624-.413.938-.076.7-.2 1.009-.263.639-.406.936-.535.492-.7.779-.245.648-.424.924-.277.646-.471.908c-.207.28-.581.42-.788.667-.226.27-.272.687-.49.918-.246.261-.76.223-.986.434s-.474.407-.739.634c-.24.208-.257.695-.509.918s-.483.437-.718.668-.7.263-.9.511a5.7 5.7 0 0 0-.579.832 3.2 3.2 0 0 0-.286.981 7 7 0 0 0 .169.963c-.4-.012-.884-.023-1.258 0s-.748.066-1.13.129-.774-.043-1.165.046c-.358.081-.677.382-1.073.483-.354.09-.688.161-1.007.256-.35.1-.719.078-1.033.189a17 17 0 0 0-.975.379c-.33.138-.659.249-.964.4s-.713.151-1.015.319-.448.606-.748.789-.808.406-1.109.6c-.335-.422-.208-.574-.385-1.083s.181-.634.006-1.143c-.128-.38-.295-.756-.448-1.126s-.673-.589-.851-.948c-.1-.318-.2-.558-.526-.5a5.3 5.3 0 0 1-1 .158 9 9 0 0 1-1.014-.051c-.327-.038-.661-.143-.99-.214s-.569-.447-.883-.548-.725.019-1.017-.113a4 4 0 0 1-.887-.456 4 4 0 0 1-.629-.776 4 4 0 0 1-.3-.934 8 8 0 0 1-.464-.918 8 8 0 0 1-.189-1.007c-.046-.321.059-.656.03-.978s-.193-.633-.206-.957-.085-.638-.081-.962a2.8 2.8 0 0 0-.653-1.239 10 10 0 0 1-.767-.961c-.195-.319.072-.647.323-1.118.208-.356.247-.921.629-1.075a2.4 2.4 0 0 0 .838-.53c.24-.251.691-.373.857-.7a6.4 6.4 0 0 0 .344-1.033 10 10 0 0 0 .267-1.042c.067-.351.2-.7.241-1.047.047-.365-.268-.756-.233-1.09.008-.361.31-.7.344-1.059s-.182-.753-.122-1.109.475-.649.561-1a2.1 2.1 0 0 1-.184.726c-.036.076-.343-.1-.343-.1"/><path fill="#3e783d" d="M105.9 23.62c-.306.066-.64-.029-.937.051-.233.062-.446.159-.667.23-.344.11-.673.211-.989.339-.336.135-.678.22-.983.371-.325.16-.578.417-.868.589-.314.185-.6.368-.875.56-.3.212-.5.5-.759.712-.29.24-.855.135-1.086.36-.282.275-.522.559-.717.789a6.5 6.5 0 0 0-.628.869c-.187.289-.019.78-.176 1.085s-.421.55-.549.868-.177.656-.274.986a9 9 0 0 0-.254.88 8 8 0 0 1 .949.15c.345.075.623.381.953.492s.788-.071 1.106.072.583.434.886.606.529.483.816.679.617.347.889.563.637.348.892.581.5.515.738.763.388.61.609.868c.235.275.6.438.807.7a9 9 0 0 1 .581.842c.153.3-.163.786-.039 1.1.109.281.434.5.561.839.1.278.266.476.4.82a2.3 2.3 0 0 1 .653-.56 3 3 0 0 1 .893-.4 2.3 2.3 0 0 1 .917.009c.269.075.4.48.615.667s.206.452.316.726.44.454.467.741a3.3 3.3 0 0 1-.2.843c-.055.392.1.845-.05 1.208a5 5 0 0 1-.652 1.011 4.9 4.9 0 0 1-.661.968c.023.114-.155-.051-.135.038a7 7 0 0 0 .472.913 9 9 0 0 0 .3.989c.158.294.336.59.526.887s.421.542.626.822.461.514.682.774.363.611.6.846a7.4 7.4 0 0 0 .878.547c.4.306.393.309.789.615s.281.456.677.763.5.136.927.4c.059.036-.276.144-.279.075a4 4 0 0 1 .13-.6 3.2 3.2 0 0 1 .178-1.027 6 6 0 0 1 .644-.8c.205-.247.5-.448.735-.683s.473-.47.719-.687.544-.4.785-.6c.265-.228.52-.439.74-.646s.6-.316.851-.578c.218-.232.418-.516.644-.786.207-.248.363-.561.57-.841.194-.262.2-.662.389-.952s.622-.4.791-.7.187-.656.336-.964.368-.568.495-.886-.077-.731.029-1.057.211-.616.3-.948.283-.609.344-.946.435-.616.474-.958 0-.685.017-1.028-.389-.7-.4-1.052-.019-.688-.055-1.037.112-.717.051-1.062-.086-.7-.17-1.042 0-.739-.1-1.074-.29-.655-.419-.982-.357-.619-.508-.936-.564-.491-.737-.8-.134-.734-.316-1.016c-.193-.3-.34-.622-.537-.892-.21-.289-.39-.6-.6-.855-.228-.276-.559-.453-.79-.7-.246-.26-.621-.363-.869-.589-.264-.241-.28-.759-.544-.965-.281-.219-.806-.08-1.085-.262-.3-.2-.525-.473-.818-.631-.316-.171-.57-.436-.874-.569-.33-.143-.683-.188-1-.3-.343-.117-.7-.114-1.012-.2-.356-.093-.64-.389-.951-.451-.342-.065-.714.055-1.059.014s-.682-.14-1.029-.158-.7-.227-1.045-.221-.678.362-1.025.391-.687.031-1.031.085-.858-.135-1.2-.059c-.083.091.207.385.205.385"/><path fill="#0d4b08" d="M97.7 33.3c.327.113.509.584.824.723s.64.228.942.392.733.113 1.022.3.461.542.733.754.706.239.959.473.235.745.468 1c.214.209.447.387.642.613s.292.508.467.75.612.307.766.564c.137.281.108.643.232.931s.509.471.622.763-.072.691.028.988a.97.97 0 0 0 1.011.6c.374-.106.428-.59.327-.966-.111-.33-.155-.674-.28-1s.018-.762-.119-1.081-.4-.6-.551-.908c-.175-.3-.585-.447-.785-.727s-.446-.507-.67-.769-.433-.521-.679-.762c-.225-.243-.484-.437-.725-.662s-.374-.562-.63-.769-.432-.526-.7-.715-.652-.207-.935-.377-.544-.368-.839-.517-.505-.49-.81-.617-.665-.127-.978-.233c-.439-.139-.611.214-.7.56s-.055.516.372.652l-.07.18a1 1 0 0 1 .056-.14"/><path fill="#0d4b08" d="M106.959 41.62c.287-.243.784-.112 1.167-.137a.765.765 0 0 1 .858.365 1.64 1.64 0 0 1 .2 1.057 3.9 3.9 0 0 1-.238 1.112c-.124.38.047.873-.164 1.177s-.741.335-1.039.574a4.5 4.5 0 0 1-.917.593c-.338.162-.585.562-.96.667a.54.54 0 0 0-.4.761c.093.341.3.6.741.476a9 9 0 0 0 1.039-.157 7.5 7.5 0 0 0 .937-.466 6.3 6.3 0 0 0 .778-.7 5.5 5.5 0 0 0 .753-.713c.208-.265.127-.706.281-1.02.14-.268.439-.452.532-.738a6 6 0 0 0 .367-.853c.044-.3-.325-.61-.332-.913-.019-.329.358-.737.255-1.059a3.3 3.3 0 0 0-.6-.866 2.3 2.3 0 0 0-.8-.617 2.8 2.8 0 0 0-.855-.324 3 3 0 0 0-.942-.08 3.6 3.6 0 0 0-.915.28c-.266.135-.28.645-.513.843-.272.277-.548.7-.275.982s.716-.01 1-.277l.236.056c-.045-.053-.19-.02-.189-.021M96.718 38.686c-.1.2-.468.4-.476.723a1.74 1.74 0 0 0 .3.818.9.9 0 0 0 .63.467.95.95 0 0 0 .881-.292 1.4 1.4 0 0 0 .565-.812 1.74 1.74 0 0 0-.282-.963c-.106-.262-.072-.663-.344-.78-.255-.11-.533.081-.822.226-.215.107-.269.3-.451.613"/><path fill="#0d4b08" d="M103.483 55.894c-.093-.281-.3-.513-.4-.789s.085-.674-.035-.945c-.068-.151-.3-.226-.375-.375-.028-.059-.194-.042-.225-.1-.134-.252.549.207.317-.291a1.67 1.67 0 0 0-.852-.844c-.316-.1-.756.1-1.124.124a8 8 0 0 1-1.049-.031 9 9 0 0 1-1.042-.015 9 9 0 0 1-.985-.339 9 9 0 0 1-.927-.442c-.282-.134-.695-.046-.926-.247a3.8 3.8 0 0 1-.711-.664 3.8 3.8 0 0 1-.363-.906c-.089-.293.2-.683.131-.981s-.326-.553-.37-.856 0-.611-.02-.916.075-.6.077-.906a4.7 4.7 0 0 0-.285-1.5c-.1-.264-.452-.4-.6-.64s-.16-.579-.358-.782c-.207-.224-.366-.383-.27-.719.133-.463.573-.558.927-.79.255-.182.259-.634.468-.862a4 4 0 0 0 .572-.684 4 4 0 0 0 .317-.838c.12-.31.51-.527.59-.846s.278-.629.33-.955-.25-.7-.216-1.031.308-.633.336-.962-.19-.681-.157-1.009.411-.611.461-.936-.289-.731-.21-1.052c.107-.437.044-.737-.293-.833a.71.71 0 0 0-.9.5c-.085.348-.276.682-.33 1.034s.15.741.114 1.1-.176.7-.208 1.054-.262.685-.3 1.038-.069.694-.135 1.044.091.743-.013 1.086c-.116.384-.48.653-.694 1s-.326.734-.693.936a3.6 3.6 0 0 0-1.347.811 2.3 2.3 0 0 0-.374.883 2.3 2.3 0 0 0-.011.966 2.9 2.9 0 0 0 .585.858c.207.247.517.408.7.665s.517.5.553.842c.051.49-.382 1.031-.347 1.524.024.355.164.709.21 1.062s.42.658.487 1.007c.042.364-.115.762 0 1.1s.519.535.7.841.078.836.324 1.1a5.4 5.4 0 0 0 .862.7 5.5 5.5 0 0 0 1.058.325 5 5 0 0 0 1.037.24 9 9 0 0 0 .885.362 9 9 0 0 0 .93.2c.314.028.631-.245.946-.251s.634.189.947.15c.053-.012 0 .011.058.006-.065-.028-.23-.12-.091.189.052.117.165.212.22.328.13.275.638.387.751.669s-.152.705-.056.993a1.04 1.04 0 0 0 1.077.607.794.794 0 0 0 .41-1.024l.038.037a.2.2 0 0 1-.117-.013"/><path fill="#0d4b08" d="M96.382 33.29c.042-.343.466-.624.541-.959s-.223-.781-.115-1.108.5-.555.641-.87.179-.684.35-.984.427-.55.627-.831c.1-.141.029.219.146.073.035-.046.035-.119.072-.165.084-.1.054-.3.142-.4.23-.259.579-.4.832-.638a12 12 0 0 1 1.006-.755c.337-.256.553-.682.915-.9.284-.169.512-.459.805-.608s.714-.04 1.017-.169.625-.2.936-.3.593-.3.911-.382.629-.2.951-.267.669.028 1-.017.622-.409.951-.432.67-.016 1-.017.651.3.98.325.634.159.961.2.693-.194 1.017-.129.576.4.895.489.711-.09 1.024.018c.338.118.721.157 1.044.307s.679.282.988.462.459.618.752.825.549.445.824.675.64.354.9.6.631.4.867.67.242.732.458 1.017.63.436.825.735.085.786.258 1.1.3.638.448.96.5.558.629.89.291.669.4 1.013-.065.761.015 1.113.424.65.478 1.007.115.72.141 1.081.1.728.1 1.089-.38.706-.408 1.067.217.746.163 1.1-.213.677-.3 1.017-.15.688-.256 1.022-.437.582-.567.908-.26.637-.412.953-.092.739-.267 1.044-.353.61-.55.9c-.178.268-.244.625-.439.873s-.64.3-.851.537-.432.46-.655.685-.541.344-.773.562-.381.517-.618.731-.545.339-.784.552-.264.61-.483.824-.585.3-.782.527-.067.7-.228.955-.6.364-.714.65a3.6 3.6 0 0 0-.147 1.076 7 7 0 0 0-.127 1.087c.038.36.312.691.365 1.027a.83.83 0 0 0 .9.617.85.85 0 0 0 .463-.991 11 11 0 0 1 0-1.461c-.045-.376-.295-.856-.108-1.186.166-.324.723-.391.961-.672s.212-.81.481-1.058.617-.426.888-.66.641-.347.9-.588.667-.345.916-.6.392-.619.627-.886.29-.684.511-.963.365-.6.571-.893.652-.407.829-.705.45-.563.608-.873.063-.748.2-1.067.182-.672.3-1 .567-.557.66-.893-.211-.771-.14-1.112.409-.635.457-.98.206-.691.231-1.038-.043-.712-.041-1.061.073-.712.052-1.06-.2-.692-.244-1.038-.108-.694-.175-1.036-.16-.683-.249-1.021-.489-.573-.6-.9-.041-.7-.17-1.013-.227-.638-.374-.944-.467-.515-.632-.812-.179-.676-.361-.962-.241-.661-.441-.936-.538-.447-.753-.708-.37-.582-.6-.829-.527-.437-.775-.668-.484-.48-.747-.694-.681-.214-.959-.409-.449-.538-.74-.712-.658-.194-.962-.346-.616-.244-.931-.371-.56-.461-.889-.567-.7-.047-1.036-.129-.625-.376-.966-.435-.676-.218-1.02-.254-.7-.051-1.047-.064-.7-.006-1.048 0-.677.307-1.022.337-.695-.022-1.036.029-.642.3-.98.372-.735-.111-1.068-.018-.565.49-.891.6-.685.114-1 .249-.567.394-.875.549-.7.1-.987.27-.537.4-.81.592-.653.252-.911.464-.426.536-.666.767-.345.586-.566.837-.387.525-.585.8-.347.547-.519.834-.552.448-.7.751-.493.528-.61.844.193.761.107 1.087c-.076.308-.164.6-.221.913s-.494.585-.531.9c0 .389.546.566.935.568s.866-.166.876-.552l-.175.047a.5.5 0 0 1-.2-.078M95.913 45.818a7 7 0 0 1-1.043.433c-.094.015.246-.266.152-.252-.336.048-.684.388-1.022.349-.094-.008.138-.4.232-.385-.083-.011-.148-.005-.23-.021-.376-.1-.8.27-.9.646a.67.67 0 0 0 .5.831 5.4 5.4 0 0 0 .906.17c.306 0 .589-.215.891-.266a5 5 0 0 0 .881-.194c.376-.1.846-.452.743-.828a1.12 1.12 0 0 0-1.138-.618l.051.246.147-.1c-.008-.026-.163-.006-.163-.006"/><path fill="#0d4b08" d="M107.865 46.8c.079.293.273.534.378.819s.237.535.368.81.234.538.389.8.218.569.4.815c.177.279.321.578.519.841s.269.638.487.887.511.435.748.665.372.578.627.788a1.03 1.03 0 0 0 1.208-.1.76.76 0 0 0-.087-1.033c-.233-.191-.5-.346-.716-.552s-.222-.618-.422-.841-.46-.383-.642-.622-.469-.4-.632-.654-.248-.565-.4-.83-.316-.523-.452-.8a6 6 0 0 1-.585-1.32.59.59 0 0 0-.781-.444c-.376.1-.709.452-.606.827l.117.05c.055-.016.088-.107.088-.106"/><path fill="#3e783d" d="M104.543 56.284c-.365.189-.6.577-.949.8s-.719.373-1.043.626a2.2 2.2 0 0 0-.627.611c-.14.255-.435.471-.554.745-.136.311-.121.666-.215.889-.1.242.1.4-.108.563-.464.368-.573.211-1.1.471-.325.159-.69.224-.988.391-.314.177-.469.59-.754.78s-.649.3-.919.513a10 10 0 0 0-.732.747c-.248.245-.681.327-.9.6s-.43.562-.628.859-.458.551-.631.868c-.163.3-.022.767-.173 1.1-.132.291-.476.514-.606.844-.119.3-.194.641-.311.971-.109.311-.247.625-.353.957-.1.315.07.724-.03 1.056s-.576.533-.67.864.027.709-.063 1.041-.3.622-.389.954-.133.665-.216 1-.151.665-.231 1-.267.641-.345.973.091.725.014 1.056-.118.675-.194 1-.275.636-.349.962-.115.627-.189.952c-.221-.279-.248-.654-.467-.934s-.449-.549-.666-.83-.524-.491-.74-.774-.428-.566-.641-.85-.423-.569-.635-.854-.428-.566-.639-.853-.446-.552-.654-.84-.278-.673-.484-.962-.441-.557-.645-.847-.618-.267-.819-.559c-.307.176-.684-.044-.989.136s-.51.529-.813.713-.657.282-.958.47-.607.366-.9.557-.477.565-.772.76-.5.521-.794.719-.648.3-.939.5-.669.278-.957.484a1.27 1.27 0 0 0-.06 1.037c.075.278.188.608.3.95.1.3.256.6.373.919s.357.581.472.878c.13.332.354.605.463.877a4.5 4.5 0 0 1 .181.992c.131.32.365.6.5.914s.388.581.535.893.128.707.285 1.015.284.634.45.938.435.551.608.85.293.631.474.926c.166.271.427.5.606.788.17.273.434.5.615.782s.3.582.488.861.366.545.558.817.375.541.576.806.509.436.719.692.317.6.539.839.446.489.682.718.3.678.547.887.8.049 1.068.233a8 8 0 0 0 .8.555 7 7 0 0 0 .853.485 9 9 0 0 0 1.075.178 9 9 0 0 0 1.066.181 10 10 0 0 0 1.092.234 10 10 0 0 0 1.106-.086 10 10 0 0 0 1.039-.4 9 9 0 0 0 1.075-.25 9 9 0 0 0 .966-.533c.31-.079.59-.344.935-.432.315-.08.659-.1 1-.186.318-.081.693.02 1.031-.066.32-.082.613-.306.949-.392s.677-.059 1.012-.145.677-.061 1.012-.146l.984-.253c.326-.083.652-.176.984-.261s.563-.523.894-.608.733.16 1.063.076.6-.39.926-.474.625-.284.954-.368.766.267 1.095.183.638-.248.968-.332.6-.381.933-.465.7 0 1.029-.087.686-.068 1.014-.151.569-.531.9-.615.766.243 1.093.16.587-.462.913-.545.7-.017 1.026-.1.627-.306.949-.388.628-.313.951-.395.736.107 1.058.025c.338-.086.588-.479.909-.561.34-.087.714 0 1.032-.08.341-.087.729.055 1.043-.025.347-.088.578-.556.887-.634.355-.091.76.123 1.059.046.38-.1.633-.488.91-.559.626-.159.541.087 1.029-.037a1.14 1.14 0 0 0 .613-.265c.015-.334.34-.567.353-.915s-.446-.694-.436-1.041.161-.677.169-1.023.335-.677.339-1.022-.319-.688-.315-1.031-.095-.687-.093-1.03.067-.688.067-1.031-.065-.69-.067-1.032.068-.692.065-1.033.237-.7.231-1.035-.349-.687-.356-1.023.265-.7.256-1.033c-.01-.354-.288-.689-.3-1.02-.012-.358.093-.706.079-1.033-.017-.363.05-.709.031-1.027-.021-.376.181-.736.155-1.041a7 7 0 0 0-.308-1c-.044-.372-.206-.727-.267-1.1s.17-.8.092-1.166-.481-.659-.577-1.022-.241-.7-.353-1.062-.076-.764-.2-1.116c-.126-.318-.223-.642-.364-.935s-.275-.622-.44-.9-.382-.559-.571-.826-.591-.378-.8-.63-.222-.695-.458-.929-.658-.258-.912-.475-.34-.627-.609-.828-.582-.324-.863-.511-.5-.445-.789-.621-.537-.391-.832-.558-.771.035-1.07-.125-.4-.585-.7-.741c-.159-.273-.313-.521-.492-.774s-.566-.369-.763-.6c-.214-.251-.187-.725-.4-.925a4.8 4.8 0 0 0-.817-.539 1.75 1.75 0 0 0-.959-.193 8 8 0 0 0-.962.046c-.283.041-.629-.042-.974.018-.3.052-.534.545-.862.609-.306.059-.646-.006-.966.062s-.614.182-.927.254-.653.039-.96.116-.7-.071-.995.011-.561.387-.864.495-.51.452-.807.576-.647.113-.937.253-.7.056-.987.211l.1.173"/><path fill="#0d4b08" d="M115.573 56.08c-.327.029-.638.242-.964.276s-.629.27-.954.31-.66 0-.985.044-.662.006-.986.056-.617.283-.94.338-.694-.154-1.016-.094-.652.093-.974.158-.591.374-.912.444-.684-.05-1 .026-.668.02-.979.109-.609.238-.918.335-.507.529-.813.633-.624.162-.927.274-.753-.152-1.053-.032-.567.336-.864.464-.468.541-.762.676-.718-.006-1.009.137c-.418.2-.364.756-.172 1.063a.7.7 0 0 0 .94.269c.317-.155.657-.259.978-.4s.722-.1 1.047-.232.479-.7.808-.826.7-.15 1.033-.267.686-.181 1.022-.288.752.063 1.091-.034.673-.183 1.014-.27.68-.175 1.025-.251.6-.567.95-.637.705-.1 1.052-.165.693-.164 1.042-.221.772.37 1.122.319.673-.281 1.023-.326.673-.341 1.024-.379.735.308 1.087.276c.386-.011.545-.507.555-.892s-.176-.734-.565-.737l.083.026a.34.34 0 0 0-.1-.178"/><path fill="#0d4b08" d="M118.649 55.982c-.193-.311-.705-.432-.939-.755s-.222-.8-.485-1.082a6 6 0 0 0-.856-.8 4.2 4.2 0 0 0-1.016-.657 3.5 3.5 0 0 0-1.5.161c-.339.045-.661.188-1 .244s-.641.29-.976.354c-.313.053-.7-.288-1.012-.226s-.622.146-.931.217-.642.069-.95.148-.561.369-.866.457-.68-.035-.983.061-.545.352-.834.467-.585.228-.869.356-.558.286-.836.428-.48.422-.75.577-.49.392-.753.56c-.283.157-.753.063-1 .273s-.34.59-.537.847c-.207.344-.258.763-.43 1.126s-.28.725-.415 1.1c-.1.376-.027.544.348.649s.528-.026.639-.4c.105-.274.605-.39.727-.657s.181-.546.321-.8a2.2 2.2 0 0 1 .879-.8c.281-.185.4-.647.689-.817s.6-.33.9-.483.705-.09 1.012-.227.6-.295.917-.414c.338-.118.679-.217 1.021-.322s.628-.409.974-.5.72-.084 1.069-.161.666-.308 1.017-.373c.362-.088.779.088 1.144.017s.732-.117 1.1-.168.738-.079 1.108-.112c.151-.023.407-.272.541-.2.263.129.3.611.514.812a9 9 0 0 1 .938.851c.267.33.7.557.919.923.237.382.418.362.722.189s.513-.373.271-.763l.01-.129c.053-.032.16.023.16.023M119.224 57.9c.295.164.559.386.849.559s.659.228.942.413.319.723.591.922.558.36.816.577.588.341.83.578.627.341.847.6.466.482.65.746.119.7.279.977.328.552.465.845.2.61.317.912.166.617.263.925.317.577.4.89.119.634.185.95.092.654.149.98.421.6.471.932c.025.163.028.331.052.495s-.271-.132-.249.052c.017.142-.008.285.006.429.033.339.4.654.425.994s-.051.689-.035 1.029-.166.686-.152 1.025-.118.681-.107 1.019.062.675.07 1.013.258.673.264 1.011-.334.682-.33 1.021.091.676.094 1.014-.044.646-.043.969.414.646.413.969-.186.645-.188.968-.231.644-.235.967.023.645.018.968.25.651.242.974-.213.641-.222.963-.139.641-.151.964c-.018.459.563.534.921.529s.457-.081.473-.53c.013-.347.511-.677.522-1.024s-.112-.7-.1-1.046-.047-.695-.04-1.043.154-.692.159-1.039-.07-.7-.067-1.043-.245-.7-.245-1.043-.013-.693-.015-1.041-.063-.692-.068-1.039.055-.695.049-1.042.092-.7.083-1.043-.08-.692-.091-1.039-.119-.69-.132-1.036.183-.7.167-1.049.2-.7.176-1.045-.463-.655-.493-1 .244-.716.2-1.059-.206-.671-.257-1.012.093-.72.028-1.059-.132-.688-.212-1.023-.379-.619-.476-.95-.209-.658-.325-.982-.089-.713-.226-1.029-.491-.534-.651-.839-.245-.654-.43-.945-.24-.686-.45-.962-.7-.321-.928-.574-.478-.48-.727-.715-.387-.6-.652-.813-.622-.315-.9-.518-.555-.394-.842-.583-.628-.28-.923-.457-.437-.612-.736-.779a.92.92 0 0 0-1.139.279.88.88 0 0 0 .329 1.114l.236.018c.024-.044-.143-.189-.142-.189M90.377 79.678c-.205-.261-.479-.47-.682-.732s-.089-.77-.291-1.033-.408-.522-.609-.786-.555-.412-.754-.677-.491-.462-.688-.729-.338-.576-.534-.843-.32-.588-.514-.857-.251-.636-.443-.906-.537-.432-.728-.7-.381-.542-.57-.814a.645.645 0 0 0-.923-.132c-.282.162-.694.1-.974.264s-.548.353-.826.521-.456.5-.732.672-.533.371-.808.546-.626.227-.9.4-.5.427-.767.607-.6.276-.867.46c-.229.156-.359.457-.587.614s-.451.322-.673.487c-.251.172-.484.348-.486.652.014.423.337.762.479 1.16.086.288-.072.657.025.942s.169.579.274.86.4.492.507.772.19.57.3.848c.136.338.052.765.192 1.1s.584.54.73.873.3.658.452.988.177.718.342 1.042c.147.284.343.541.5.822s.136.656.294.934.227.611.39.887.652.353.82.626.34.538.513.807.15.665.328.931c.192.3.458.562.663.859s.277.694.495.982.705.36.935.639.141.833.383 1.1.533.5.786.758.667.3.93.521.352.692.637.883.831-.052 1.135.108a10 10 0 0 0 .884.495 9 9 0 0 0 .957.324 10 10 0 0 0 1 .288 11 11 0 0 0 1.037.257c.35.007.682-.371 1.031-.4a10 10 0 0 0 1.039-.013c.343-.066.758.134 1.094.03.312-.095.653-.161.955-.283s.522-.454.811-.6.456-.5.731-.675.621-.228.88-.425.511-.4.753-.617.547-.374.768-.614a10 10 0 0 0 .52-.837c.195-.263.433-.492.6-.769s.548-.446.7-.734-.111-.784.028-1.079.494-.488.625-.786.034-.694.162-.993.566-.458.7-.756c.184-.338-.164-.628-.49-.832s-.661-.279-.859.055c-.129.294-.181.624-.306.923s-.4.533-.528.832-.139.646-.274.94-.455.494-.6.78-.363.52-.535.794a9 9 0 0 1-.484.82c-.2.248-.232.628-.451.855s-.578.3-.818.506-.463.412-.722.592-.358.628-.634.782-.732-.05-1.022.077c-.352.156-.587.647-.955.755s-.824-.123-1.2-.064a9 9 0 0 1-1.136.029 8.5 8.5 0 0 1-1.123-.078c-.372-.047-.785.164-1.144.063s-.63-.44-.97-.593-.778-.123-1.093-.326a8 8 0 0 1-.832-.765c-.244-.218-.418-.506-.651-.736s-.473-.447-.694-.689-.343-.559-.552-.812-.539-.4-.734-.665-.555-.412-.736-.685-.125-.731-.313-1.013-.643-.388-.825-.673-.322-.6-.5-.889-.37-.57-.542-.861-.275-.626-.441-.92-.186-.669-.343-.969-.568-.471-.719-.774-.065-.723-.209-1.029-.3-.607-.436-.916-.513-.518-.644-.83-.251-.634-.375-.948.063-.75-.054-1.068-.315-.6-.426-.925c-.1-.265-.164-.54-.248-.81s-.385-.483-.455-.758c-.025-.109 0-.244-.018-.356.03.206.128-.016.159-.055s-.071.176-.036.087c-.029.1-.026.347-.094.421a.7.7 0 0 0 .2-.077 7.5 7.5 0 0 0 .759-.68c.281-.193.573-.361.856-.552s.48-.509.765-.7.714-.148 1-.331.373-.686.662-.866.549-.413.841-.59.789-.008 1.083-.181.478-.473.774-.643c-.422-.266-.452-.392-.951-.374.2.283.416.643.614.924s.419.546.619.826.262.658.463.937.525.469.728.746.528.464.733.741.148.747.355 1.022.7.335.9.608.07.812.28 1.084.419.547.63.818.741.278.954.548c.276.274.474.289.75.015s.244-.483-.022-.763l-.011-.308c-.045.035.055.252.054.251"/><path fill="#0d4b08" d="M99.664 60.544c-.326.153-.781.056-1.093.234s-.578.444-.876.646-.536.483-.817.708-.6.408-.86.654-.557.472-.788.747-.211.738-.416 1.034-.773.365-.951.678-.124.755-.273 1.084c-.143.308-.353.589-.484.9s-.174.663-.292.982-.03.706-.139 1.029-.358.6-.458.92-.241.636-.334.964-.322.617-.409.946.007.706-.076 1.035-.431.6-.512.926.243.76.163 1.088c-.075.309-.2.6-.273.915s-.558.522-.63.832-.019.649-.09.959.1.675.024.985-.177.611-.248.921-.195.608-.266.918a.667.667 0 0 0 .488.828c.344.1.537-.057.64-.506.08-.35.235-.683.315-1.034s.132-.707.211-1.057.444-.636.524-.986.166-.7.249-1.048.174-.7.258-1.046.016-.735.1-1.084.142-.706.232-1.053.412-.633.507-.98-.211-.805-.112-1.151c.093-.326.391-.6.489-.929s.211-.651.316-.978.1-.693.212-1.016.337-.608.468-.924.2-.669.347-.975.51-.5.685-.8.35-.576.552-.853a9 9 0 0 1 .618-.806c.263-.273.524-.537.811-.784s.414-.712.722-.931.638-.447.966-.636.849-.019 1.194-.177c.416-.205.2-.665.011-.972s-.4-.606-.8-.41l-.18.112c.042.089.275.084.274.085"/></g></svg>