<svg xmlns="http://www.w3.org/2000/svg" width="96.251" height="108.635"><defs><clipPath id="a"><path fill="none" d="M0 0h96.252v108.635H0z"/></clipPath></defs><g clip-path="url(#a)"><path fill="#407b3e" d="M12.877 4.948c0 4.091-.029 9.833-.029 15.106 0 2.966-2.572 3.972-4.762 5.222a12.5 12.5 0 0 0-5.468 5.405C.977 34.209 1.4 38.361 1.4 42.147v57.58a7.59 7.59 0 0 0 7.591 7.591h16.524a7.59 7.59 0 0 0 7.591-7.591v-57.58c0-3.789.416-7.938-1.224-11.463a12.5 12.5 0 0 0-5.468-5.41c-2.19-1.249-4.762-2.256-4.762-5.222 0-5.271-.029-11.015-.029-15.106"/><path fill="#fefffd" d="M1.398 50.9h31.707v31.769H1.398z"/><path fill="#0d4b08" d="M11.619 4.945c0 .513.64 1.032.64 1.545s-.5 1.028-.5 1.541.572 1.029.57 1.544-.8 1.025-.8 1.54.5 1.029.5 1.544.039 1.028.037 1.543c0 .424.2.85.2 1.276s-.092.85-.092 1.276.094.852.094 1.278-.524.859-.526 1.285c.053.652.535 1.422.348 2.048-.182.444-.857.674-1.21 1a13 13 0 0 1-1.518.732c-.473.3-.584 1.253-1.095 1.491-.412.221-1.2-.221-1.591.029s-.748.6-1.124.881-.315 1.09-.67 1.394a11 11 0 0 0-1.074 1c-.332.384-1.017.488-1.3.909s-.233 1.032-.461 1.486a12 12 0 0 0-.714 1.329c-.168.477-.761.857-.871 1.357a13 13 0 0 0-.234 1.554c-.037.465.628.984.6 1.45s-.144.923-.165 1.39-.574.906-.585 1.377S0 39.683 0 40.15s.483.935.488 1.4-.014.932 0 1.4-.022.935 0 1.4c.01.714.409.714.409 1.43s-.637.714-.637 1.43.58.714.58 1.429-.307.718-.307 1.434-.187.714-.187 1.429-.071.716-.071 1.43.6.716.6 1.433-.731.716-.731 1.433.405.719.405 1.437.2.717.2 1.434-.472.717-.472 1.433.18.716.18 1.433.205.716.205 1.432.1.717.1 1.433-.511.719-.511 1.436.349.717.349 1.437.108.717.108 1.436.19.717.19 1.433-.639.717-.639 1.431-.2.719-.2 1.437.509.719.509 1.437-.474.726-.474 1.44.448.717.448 1.436-.132.72-.132 1.439-.1.716-.1 1.433.175.714.175 1.43-.165.715-.165 1.432.325.72.325 1.44.078.717.078 1.436-.54.719-.54 1.437.187.72.187 1.44.252.72.252 1.44.144.72.144 1.44-.122.717-.122 1.434.093.721.093 1.443-.019.723-.019 1.444-.531.724-.531 1.448.434.727.426 1.451a10.5 10.5 0 0 0-.113 1.563 11 11 0 0 0-.017 1.629c.136.5.774.846.988 1.325.229.463.7.714 1.006 1.122s.271 1.092.644 1.44.6.966 1.029 1.243 1.089.214 1.565.411a8.7 8.7 0 0 0 1.475.454c.448.067.935-.283 1.384-.247s.874.358 1.326.365.909.443 1.361.418c.674-.01.669-.319 1.343-.319s.676.008 1.353.008.676.08 1.35.08.677.112 1.353.112.674-.638 1.347-.638.677.345 1.354.345.678-.38 1.355-.38.681.566 1.361.566.68-.2 1.359-.194c.462.028.928.209 1.39.2s.906-.336 1.366-.381.892-.155 1.347-.239c.5-.125 1.082.043 1.54-.165s.648-.884 1.064-1.169 1.253-.076 1.612-.433a9.3 9.3 0 0 0 .855-1.325 9.4 9.4 0 0 0 .981-1.243c.205-.458.053-1.075.169-1.551a12 12 0 0 0 .491-1.444c.051-.49-.244-1.013-.234-1.509s.4-.992.39-1.486-.069-.986-.069-1.476c0-.719-.527-.719-.527-1.436s-.075-.719-.075-1.436-.112-.719-.112-1.437.191-.719.191-1.437.587-.719.587-1.439-.182-.72-.182-1.441-.126-.721-.126-1.443.175-.721.175-1.441-.633-.72-.633-1.44.562-.72.562-1.44-.219-.719-.219-1.439-.011-.72-.011-1.44.393-.721.393-1.443-.325-.721-.325-1.444-.4-.721-.4-1.441.072-.721.072-1.441.588-.721.588-1.441-.143-.723-.143-1.444-.255-.723-.255-1.444-.211-.721-.211-1.443.017-.721.017-1.443-.007-.723-.007-1.445.336-.72.336-1.44.241-.719.241-1.437-.6-.72-.6-1.44-.028-.723-.028-1.447-.022-.721-.022-1.443.644-.721.644-1.444-.024-.723-.024-1.447-.011-.723-.011-1.447-.613-.723-.613-1.447.011-.721.011-1.441.756-.726.756-1.45.012-.726.012-1.451-.461-.728-.461-1.455.408-.724.416-1.452c.022-.467.031-.931.044-1.4s.049-.942.053-1.411-.315-.941-.32-1.408.189-.943.175-1.412-.591-.913-.615-1.38.588-.974.556-1.441-.462-.9-.5-1.371a13 13 0 0 0-.04-1.518 13 13 0 0 0-.279-1.515c-.178-.469-.834-.731-1.068-1.174a13 13 0 0 0-.548-1.418 13 13 0 0 0-.734-1.372c-.334-.369-.979-.458-1.361-.787-.358-.3-.964-.244-1.341-.515s-.608-.723-1-.967-.739-.552-1.15-.77a11.5 11.5 0 0 1-1.4-.932c-.466-.309-1.224-.343-1.64-.719a5 5 0 0 1-.644-1.765 4.4 4.4 0 0 1 .158-1.749c0-.424.228-.86.226-1.286s-.248-.85-.248-1.276.215-.852.214-1.278-.684-.849-.685-1.273c0-.5.044-1 .043-1.5s.026-1 .025-1.5.452-1 .451-1.5-.426-.978-.426-1.477-.069-1-.069-1.5.361-1 .361-1.494-.458-.746-.97-.746-.653.234-.655.746.153 1.017.153 1.525-.473 1.018-.472 1.527.344 1.015.345 1.525.094 1.017.1 1.526-.638 1.02-.637 1.527.119 1.017.121 1.526c0 .418.365.835.366 1.253s-.047.835-.047 1.253-.334.836-.334 1.254.25.839.251 1.257c-.044.451.252.85.308 1.294s-.3.964-.15 1.387a7 7 0 0 0 .365 1.394c.3.405 1.154.32 1.531.642s.588.841 1.013 1.108.8.609 1.239.852 1.047.176 1.476.424.626.878 1.024 1.167a10 10 0 0 1 1.043.766 10 10 0 0 1 .856.97 11 11 0 0 1 .856.972 11 11 0 0 1 .77 1.289 11 11 0 0 1 .334 1.469c.137.484.63.895.7 1.4s-.4 1.075-.361 1.587.287 1 .3 1.516.2 1.028.182 1.543c-.006.551-.2 1.1-.2 1.648s.187 1.1.182 1.652-.375 1.1-.375 1.651c0 .717-.075.717-.075 1.434s.305.716.305 1.433.168.716.168 1.433-.2.716-.2 1.433-.157.716-.157 1.433-.058.717-.058 1.433.272.719.272 1.436.228.72.228 1.439-.447.72-.447 1.441-.176.719-.176 1.437.748.719.748 1.437-.222.717-.222 1.436.2.719.2 1.436-.678.719-.678 1.437.58.72.58 1.44-.017.72-.017 1.441.123.719.123 1.439-.272.719-.272 1.437-.042.72-.042 1.439.237.721.237 1.441-.276.72-.276 1.44.191.72.191 1.44-.433.72-.433 1.44-.033.721-.033 1.443-.067.719-.067 1.436.107.717.107 1.434.115.719.115 1.437.243.721.243 1.443.164.721.164 1.441-.369.72-.369 1.44.207.723.207 1.444.035.721.035 1.443-.015.723-.015 1.445-.472.719-.472 1.439.279.723.279 1.445.366.724.366 1.448.09.726.09 1.452-.243.724-.23 1.45c.033.576-.477 1.115-.541 1.685a10 10 0 0 1-.061 1.7 6.5 6.5 0 0 1-.688 1.125 6.3 6.3 0 0 1-.9.936c-.307.33-.449.771-.816 1.033s-.542.893-.954 1.079a7.6 7.6 0 0 1-1.34.5c-.413.062-.917-.5-1.332-.469s-.816.1-1.233.1-.835.271-1.251.241c-.752-.011-.75.108-1.5.108s-.75.185-1.5.185-.752-.265-1.5-.265-.749-.412-1.5-.412-.753.408-1.505.408-.755-.219-1.508-.219-.756.394-1.512.394-.755-.257-1.511-.244c-.424.029-.848-.15-1.273-.155s-.836-.031-1.26-.071-.8-.218-1.218-.293c-.445-.114-1.119.387-1.525.19s-.612-.823-.97-1.1a7 7 0 0 1-.891-1.02c-.294-.344-1.01-.437-1.232-.836s.046-1.035-.092-1.473a23 23 0 0 1-.112-3.214c.012-.7-.6-.709-.6-1.412s.621-.7.621-1.405-.516-.7-.516-1.4.547-.7.547-1.4-.074-.7-.074-1.4-.286-.7-.286-1.405.369-.7.369-1.4.051-.7.051-1.408-.38-.7-.38-1.408.336-.706.336-1.412-.329-.7-.329-1.409-.32-.7-.32-1.407.62-.7.62-1.408-.391-.7-.391-1.407-.332-.7-.332-1.408.251-.7.251-1.411.261-.706.261-1.411-.261-.706-.261-1.411-.19-.7-.19-1.408-.044-.7-.044-1.409.511-.706.511-1.412-.517-.706-.517-1.412.11-.7.11-1.409.282-.706.282-1.412-.075-.706-.075-1.412-.022-.7-.022-1.407-.16-.7-.16-1.407-.012-.7-.012-1.407.2-.707.2-1.415.391-.706.391-1.411-.578-.706-.578-1.411.128-.709.128-1.416-.291-.714-.291-1.423.357-.707.357-1.415.42-.7.42-1.409-.067-.709-.067-1.418-.567-.709-.567-1.419.234-.712.234-1.423.33-.714.319-1.426c-.029-.454-.42-.9-.438-1.353s.111-.911.105-1.366-.286-.91-.28-1.364.343-.9.361-1.355-.436-.936-.405-1.389.34-.891.381-1.343.627-.834.68-1.285c.08-.486-.311-1.053-.166-1.52a11 11 0 0 1 .7-1.312 11 11 0 0 1 .766-1.234 10 10 0 0 1 .8-1.054c.3-.333.28-1.015.617-1.308s1.185.076 1.556-.173c.4-.276.5-1.009.934-1.253s.77-.631 1.2-.868 1.025-.182 1.433-.447a9.3 9.3 0 0 0 1.1-.97 6 6 0 0 0 .78-1.183c.228-.4.855-.608.992-1.045a7 7 0 0 0 .215-1.4 7 7 0 0 0 .137-1.407c0-.418.026-.818.026-1.237s-.53-.835-.529-1.253.322-.835.323-1.253-.347-.836-.345-1.254c0-.492-.061-.986-.06-1.48s.035-.985.036-1.479.047-.986.049-1.479.461-.986.462-1.479-.332-.988-.332-1.482-.257-.986-.257-1.479c0-.512-.031-.678-.542-.678s-.727.166-.727.678l-.2.043a2 2 0 0 1-.343-.051"/><path fill="#0d4b08" d="M33.108 50.368c-.719 0-.719-.562-1.439-.562s-.719.433-1.437.433-.719.042-1.439.042-.72-.406-1.44-.406-.72-.187-1.44-.187-.72.531-1.439.531-.72-.415-1.44-.415-.721-.039-1.441-.039-.719.15-1.436.15-.717-.277-1.434-.277-.719.64-1.436.64-.721-.494-1.443-.494-.72.574-1.44.574-.72-.8-1.44-.8-.723.506-1.444.506-.721.042-1.443.042-.721.2-1.444.2-.719-.09-1.437-.09-.723.1-1.445.1-.722-.532-1.448-.532-.726.573-1.451.573-.727-.44-1.452-.44c-.512 0-1.3.474-1.3.986s.785.515 1.3.516c.72 0 .719.777 1.439.777s.719-.093 1.437-.093.719-.677 1.439-.677.72.071 1.44.071.72.484 1.44.484.719-.348 1.434-.348.72.136 1.44.136.721.467 1.443.467.717-.011 1.434-.011.717-.7 1.434-.7.719.092 1.437.092.721.54 1.443.54.72.055 1.439.055.72-.484 1.44-.484.723.029 1.444.029.721.055 1.443.055.721-.409 1.444-.409.719.637 1.437.637.723-.58 1.445-.58.724.308 1.448.308.726.187 1.452.187.726.071 1.451.071c.512 0 .527-.613.526-1.125s-.015-.531-.526-.533M1.4 83.484c.719 0 .719.4 1.439.4s.719.111 1.437.111.719-.541 1.439-.541.72-.176 1.44-.176.72.085 1.44.085.72.007 1.439.007.72.247 1.44.247.721-.254 1.441-.254.719-.1 1.436-.1.717-.058 1.434-.058.719.562 1.436.562.721-.433 1.444-.433.719-.042 1.439-.042.72.406 1.44.406.723.187 1.444.187.721-.53 1.443-.53.721.413 1.444.413.719.039 1.437.039.723-.15 1.445-.15.724.279 1.448.279.726-.641 1.451-.641.727.5 1.452.494c.512 0 .544-.608.544-1.119s-.033-1.343-.544-1.343c-.719 0-.719.5-1.439.5s-.719.042-1.437.042-.719.2-1.439.2-.72-.092-1.44-.092-.72.1-1.44.1-.72-.522-1.439-.522-.72.572-1.44.572-.721-.438-1.441-.438-.719-.314-1.436-.314-.717.78-1.434.78-.719-.778-1.436-.778-.723.093-1.444.093-.719.677-1.439.677-.72-.069-1.44-.069-.723-.486-1.444-.486-.721.348-1.443.348-.72-.139-1.443-.139-.719-.467-1.437-.467-.723.011-1.445.011-.724.7-1.448.7-.726-.092-1.452-.092-.726-.54-1.451-.54A1.66 1.66 0 0 0 .09 82.671c0 .51.8.812 1.31.813"/><path fill="#407b3e" d="M22.552 10.706V6.992h.594a.74.74 0 0 0 .742-.737v-1.55a.743.743 0 0 0-.742-.742h-.594V2.79a1.484 1.484 0 0 0-1.484-1.484h-7.63a1.484 1.484 0 0 0-1.484 1.484v1.174h-.6a.745.745 0 0 0-.742.742v1.545a.743.743 0 0 0 .742.742h.6V16.1a2.97 2.97 0 0 0 2.967 2.964h4.662a2.97 2.97 0 0 0 2.967-2.967v-5.391Z"/><path fill="#0d4b08" d="M23.273 10.708c0-.744.277-.744.277-1.486s.6-1.153-.039-1.537c-.56-.338-.641.4-.942.985a3.2 3.2 0 0 0 1.2-.344 1.23 1.23 0 0 0 .859-.767c.137-.566.57-1.129.509-1.709a5.6 5.6 0 0 0-.14-1.821c-.18-.48-.85-.5-1.229-.652a3.3 3.3 0 0 0-1.214-.338 1.52 1.52 0 0 0 .921.941c0-.452-.225-.906-.266-1.355-.044-.517.185-1.165-.137-1.543s-.956-.4-1.461-.523a10 10 0 0 0-1.14.014c-.388-.014-.774-.367-1.161-.335-.488 0-.967-.231-1.457-.238s-.986.646-1.476.641-.977-.254-1.466-.25-.978-.104-1.47-.091a2.73 2.73 0 0 0-1.572.446c-.411.315-.3.971-.448 1.5a10.4 10.4 0 0 0-.264 2.128c.621-.209.13-.931.426-1.516-.461 0-.508.348-.9.513s-.866.3-1.029.807a6 6 0 0 0-.173 1.72 4.8 4.8 0 0 0 .1 1.909c.208.438.836.449 1.2.583a3.4 3.4 0 0 0 1.162.29c-.31-.586-.427-.461-1.01-.759 0 .465-.062.744-.065 1.208s-.107.928-.11 1.393-.039.929-.04 1.394.234.931.234 1.4.481.927.486 1.391-.563.934-.555 1.4c.007.531.541.923.744 1.391a3.3 3.3 0 0 0 .85 1.135c.366.355.583.818 1.076 1.014a6 6 0 0 0 1.2.028c.405.044.785.626 1.193.592.726-.014.72.1 1.447.1s.728-.537 1.454-.523c.469.039.964.315 1.421.226a5.7 5.7 0 0 0 1.409-.388 4.5 4.5 0 0 0 1-1.117 4.3 4.3 0 0 0 .781-1.247 4.4 4.4 0 0 0 .233-1.469c-.007-.64-.033-.638-.033-1.278s-.574-.641-.574-1.282.244-.642.244-1.286.569-.642.569-1.285c0-.512-.828-.544-1.34-.544s-.979.033-.979.544c0 .757.079.757.079 1.515s-.247.76-.247 1.519 0 .767.029 1.527c.067.405.59.9.487 1.289s-.87.429-1.126.749a1.99 1.99 0 0 1-1.709.594c-.656-.028-.667.243-1.322.243s-.655.051-1.311.064a14 14 0 0 1-1.816.033c-.506-.074-.721-.624-1.038-.988a1.5 1.5 0 0 1-.327-1.164c-.008-.43-.551-.857-.551-1.29s-.173-.866-.171-1.3.089-.861.089-1.292c0-.745.007-.745.007-1.49s.248-.748.248-1.494-.252-.746-.255-1.494c-.007-.508-.2-.584-.707-.592a.9.9 0 0 0-.4.04c-.147.075-.033-.448-.135-.308.046-.062-.128-.237-.128-.318 0-.671-.042-.671-.042-1.341 0-.08.436-.466.384-.529s-.026-.233-.216-.151c-.105.046 0 .08.079.118.178.031.305.436.483.405a1.294 1.294 0 0 0 1.126-1.095c0-.594-.441-1.606.377-1.67.64-.046 1.294.277 1.938.277.463 0 .925-.641 1.389-.642s.928.491 1.391.49.925-.576 1.389-.576.921.8 1.384.809c.906.01.76.658.76 1.31a.77.77 0 0 0 .846.8c.176.028.261-.157.436-.185.121-.055-.305.133-.232.021-.046.069.529.458.529.544 0 .71-.522.71-.522 1.422a3.4 3.4 0 0 0-.105.656c-.064-.093.566-.394.437-.461-.176-.029-.393-.344-.569-.315-.509.008-.491.789-.5 1.3 0 .741-.777.739-.777 1.482s.092.741.093 1.483c0 .512.691.524 1.2.524s.619.112.619-.4c-.04-.1.1-.125.1-.126"/><path fill="#0d4b08" d="M14.233 7.134c.785 0 .785-.451 1.57-.451s.787.3 1.572.3.789-.615 1.577-.615.789.017 1.577.017c.512 0 1.174-.021 1.174-.533s-.662-.544-1.174-.544c-.785 0-.785-.175-1.57-.175s-.786-.278-1.571-.278-.789.01-1.577.01-.789.076-1.577.076c-.512 0-.756.4-.756.91a.774.774 0 0 0 .8.863c.147.1-.044.42-.044.42M11.502 79.265a1.146 1.146 0 0 0 1.228-1.135c-.021-.651-.577-1.57-1.228-1.593-.683.022-1.2.993-1.176 1.676a1.1 1.1 0 0 0 1.176 1.052M17.252 79.121c.683-.022 1.384-.309 1.361-.992-.021-.649-.71-.918-1.361-.941-.683.022-.85.334-.828 1.017.022.651.178.893.828.916M23.002 79.064c.683-.022.97-.237.947-.92-.022-.651-.3-1.1-.947-1.121-.683.024-1.419.519-1.4 1.2.021.651.745.817 1.4.839"/><path fill="#407b3e" d="M17.251 59.66a2.18 2.18 0 0 0-2.22 2.145v.067a2.147 2.147 0 0 0 2.035 2.251h.185a2.123 2.123 0 0 0 2.221-2.021 2 2 0 0 0 0-.232 2.18 2.18 0 0 0-2.15-2.211h-.069M12.288 59.66a2.18 2.18 0 0 0-2.22 2.145v.067a2.147 2.147 0 0 0 2.036 2.251h.184a2.123 2.123 0 0 0 2.222-2.02 2 2 0 0 0 0-.232 2.18 2.18 0 0 0-2.15-2.211zM22.216 59.66a2.18 2.18 0 0 0-2.22 2.145v.067a2.147 2.147 0 0 0 2.035 2.251h.184a2.12 2.12 0 0 0 2.221-2.021 2 2 0 0 0 0-.232 2.18 2.18 0 0 0-2.15-2.211h-.069M19.88 64.388a2.18 2.18 0 0 0-2.22 2.145v.067a2.147 2.147 0 0 0 2.035 2.251h.185a2.123 2.123 0 0 0 2.221-2.021 2 2 0 0 0 0-.232 2.18 2.18 0 0 0-2.15-2.211h-.069M14.618 64.388a2.18 2.18 0 0 0-2.22 2.145v.067a2.147 2.147 0 0 0 2.035 2.251h.185a2.12 2.12 0 0 0 2.221-2.021 2 2 0 0 0 0-.232 2.18 2.18 0 0 0-2.15-2.211h-.069M17.251 68.968a2.18 2.18 0 0 0-2.22 2.145v.067a2.146 2.146 0 0 0 2.035 2.251h.185a2.123 2.123 0 0 0 2.221-2.021 2 2 0 0 0 0-.232 2.18 2.18 0 0 0-2.15-2.211h-.069"/><path fill="#0d4b08" d="M17.257 59.052c-.456 0-1.033-.52-1.432-.341a3.8 3.8 0 0 0-1.138.9 3.9 3.9 0 0 0-.822 1.211c-.129.415.445.936.484 1.351s-.394 1.027-.194 1.4.836.463 1.172.739.6.843 1.006.952.909-.369 1.335-.422a2.95 2.95 0 0 0 1.143-.365 3.1 3.1 0 0 0 1.007-.735 2.54 2.54 0 0 0 .465-2.432 3.55 3.55 0 0 0-.329-1.477 3.5 3.5 0 0 0-1.293-.795 3.6 3.6 0 0 0-1.415-.627 1.44 1.44 0 0 0-1.131 1.246 1.32 1.32 0 0 0 1.128 1.142v.075c.065 0 .121.075.186.082.218 0-.212-.351-.007-.3.1.024.2.017.3.049a3 3 0 0 0 .19.074c-.028.026-.208-.271-.021-.176a3 3 0 0 0 .444.2c-.024-.057-.222 0-.272-.036.029.024-.257.383-.229.409s.379-.307.418-.266c.018.019.031.2.053.2-.078-.012-.25-.1-.165.036.055.087.332.04.383.13s-.175.078-.173-.044a1.4 1.4 0 0 0 .111.25c.011.094-.1.393-.072.483-.079-.128.486-.388.488-.258 0 .05.018.1.018.151s-.136.411-.105.455c.033-.057-.168-.2-.154-.262 0 .039-.4 0-.405.04-.012.065.251.18.233.244s-.114.058-.129.108c-.008.026-.187-.047-.2-.022-.036.093.2.176.258.036-.054.046-.394-.053-.433.01-.024.036.5.409.484.448-.06.1-.3-.556-.423-.427-.08.065.105.628.037.707a.85.85 0 0 0 .345-.068c.036-.037-.186-.042-.23-.012s-.19-.2-.234-.171-.151-.057-.2-.031c-.162.09.255.1.137.126s-.23-.1-.33-.078c-.057.012.019.386-.037.4-.1.017-.143-.254 0-.275.057-.022-.008.334-.069.338-.1.007-.205-.394-.307-.4a.7.7 0 0 0-.175-.044c.018-.008.3-.133.14-.171-.1-.025-.3.336-.4.3-.043-.021-.157.1-.2.087.136.06.208-.022.119-.064-.037-.018.115-.309.079-.327-.085-.046-.369.289-.455.25.162.075-.072.2-.129.144s.254-.4.218-.44-.033-.112-.067-.14c-.09-.078-.184.438-.283.283-.06-.093-.1-.212-.151-.3-.1-.172.4.043.337-.147-.011-.036-.363.039-.375 0s.211-.43.172-.458c.014.01.019.287.011.115 0-.062.164-.132.161-.194s-.352-.092-.352-.143c0-.029-.144-.082-.144-.111.01-.1.243-.026.23.123.036-.11.262-.212.279-.326a3 3 0 0 0 .057-.312c.008.083-.049.383.033.226.04-.075.072-.011.087-.092-.06.019-.105-.222-.143-.172.024-.029.078-.026.1-.054s-.148-.322-.107-.359c.021-.019.172.148.193.13.075-.064-.185-.3-.3-.211a1.4 1.4 0 0 0 .193-.107c.049-.031.191 0 .243-.025.2-.1.072.3.053.283a3 3 0 0 0 .441.029c.031-.006-.065-.49-.035-.5.1-.017.135.1-.008.119.085-.017.173-.1.259-.094.512 0 .559-.168.559-.678s-.047-.785-.559-.785l-.036-.139c.018.164.071.319.06.319"/><path fill="#0d4b08" d="M12.29 58.947a2.7 2.7 0 0 0-1.156.372 2.56 2.56 0 0 0-1.536 1.722c-.129.415-.452.737-.413 1.153a3.1 3.1 0 0 0 .458 1.143c.2.369.147 1.006.483 1.282.351.262.947.119 1.355.226a3.1 3.1 0 0 0 1.206-.143 2.7 2.7 0 0 0 1.081-.361c.373-.233 1.1-.071 1.343-.418a3.7 3.7 0 0 0 .361-1.322 3.9 3.9 0 0 0 .291-1.368c-.092-.494-.677-.867-.963-1.247s-.843-.358-1.279-.574a2.5 2.5 0 0 0-1.23-.405c-.512 0-.875.143-.877.655s.362.713.873.713v.477c.065 0 .136-.545.2-.538.218 0-.111-.183.094-.133.1.024.119.394.215.426a1 1 0 0 1-.123-.118c-.028.026.042.076.229.171.065.033-.166.375-.1.381-.024-.057.076.135.026.1.029.024.463-.445.491-.419s-.146.229-.105.269c.018.019.158-.241.18-.237-.078-.012-.246.232-.161.368.055.087.139.153.19.243s.026.028.028-.094c.017.075-.187.208-.154.277.011.094.522-.216.552-.126-.079-.128.141.166.143.3 0 .05-.118.1-.118.153s-.441.2-.411.248c.033-.055-.168-.064-.155-.128 0 .039-.051.072-.058.11-.012.065-.011.105-.029.169s.193.146.178.2c-.008.026-.093-.01-.1.017-.036.092-.19.121-.133-.019-.054.046.218.172.179.234-.024.036-.208-.015-.229.024-.06.1.588.2.461.332-.08.065-.418-.121-.486-.042.067 0 .312.182.358.133s-.391-.351-.436-.323.228.462.182.49-.334-.351-.379-.325c-.162.09.2-.06.08-.031s-.228-.1-.327-.078c-.057.012 0 .276-.055.286-.1.017-.214-.343-.067-.363.057-.021.092.513.032.519-.1.006-.216-.1-.319-.105-.058-.011-.125.031-.185.033.018-.008.305-.3.15-.341-.1-.025-.376.52-.476.487-.043-.019.178-.626.133-.638.136.06-.087.556-.176.515-.036-.018.24-.551.2-.569-.085-.046-.491.53-.577.491.162.075.114-.049.057-.105s-.154-.014-.19-.053-.08.011-.114-.017c-.09-.078.409-.115.311-.271-.06-.093-.511.042-.563-.05-.1-.172.476-.015.409-.205-.011-.036-.107-.043-.118-.079s-.208-.026-.247-.054c.012.01-.2-.043-.212-.215 0-.062.51-.143.508-.205s-.061-.1-.061-.148c0-.029.39-.029.39-.058.01-.1-.774.1-.787.247.036-.11.037-.524.054-.638.025-.051.554-.105.566-.161.008.083-.591.071-.509-.086.04-.075.431-.351.447-.431-.06.019-.179.208-.218.258.024-.029.619.416.644.388s-.3-.436-.261-.473c.021-.019.161.141.183.123.075-.064-.226-.354-.338-.265a1.4 1.4 0 0 0 .153-.143c.049-.031.44.486.491.459.2-.1.035-.483.015-.5.011.011.211.5.252.488s-.1-.628-.067-.634c.1-.017.126-.132-.017-.117.086-.015.172.243.258.25.512 0 1.26-.32 1.261-.832s-.748-.742-1.26-.744l.176-.205c.012.11-.153.236-.161.236M22.22 59.132a2.5 2.5 0 0 0-1.147.208 2.7 2.7 0 0 0-1.065.584c-.29.325-.8.537-.943.971a3.9 3.9 0 0 0-.327 1.333c.04.423.694.7.893 1.076s.078 1.052.413 1.328a3.9 3.9 0 0 0 1.294.487 3.6 3.6 0 0 0 1.312-.14 3.2 3.2 0 0 0 1.163-.441c.373-.233 1.083-.2 1.325-.547s-.057-1.018.032-1.439a3.15 3.15 0 0 0 .186-1.257 3.2 3.2 0 0 0-.612-1.321c-.294-.39-.545-.978-.981-1.194a3.7 3.7 0 0 0-1.545-.031.84.84 0 0 0-.832.91c0 .512.319.663.831.664.065 0 .121.645.186.652.218 0-.1-.825.1-.775.1.024-.032.8.064.835-.008 0 .452-.1.454-.105-.028.026-.375-.375-.187-.28.065.033-.1.352-.025.359-.024-.058.008.154-.04.117.029.024.1-.069.126-.043s.441-.365.48-.325c.018.019-.139.434-.117.438-.078-.012-.162-.225-.078-.089.055.087.287.069.338.16s.187.244.189.122c.017.075-.2 0-.164.068.011.094-.1.262-.065.352-.079-.128-.072-.222-.071-.092 0 .05-.183.1-.183.147s.547.438.577.483c.032-.057-.573-.3-.56-.361 0 .039.383.154.376.191-.012.065-.441.024-.459.087s-.079.054-.094.1c-.01.026.055.036.046.061-.036.093.486.18.542.042-.054.046-.007.369-.046.431-.024.036-.219-.046-.24-.007-.06.1-.279-.563-.406-.434-.082.067.135.658.067.737.067 0 .333.014.379-.035s-.121.079-.165.108-.19-.189-.234-.161-.029.173-.074.2c-.162.09.011-.388-.107-.359s-.166.175-.266.2c-.057.012-.118-.318-.176-.308-.1.017-.112.083.035.062.057-.021.051.416-.008.422-.1.006-.24.085-.343.079-.058-.012-.094-.237-.154-.233.018-.008.3-.226.14-.264-.1-.025-.151-.085-.251-.118-.042-.019-.3.463-.343.451.136.06.108.179.019.137-.036-.018.058-.218.022-.237-.083-.046-.162-.107-.248-.146.162.075-.058.223-.115.166s.061-.219.025-.258.122-.258.089-.286c-.09-.078.269.153.171 0-.06-.093.021-.244-.032-.336-.1-.172.035.3-.032.107-.011-.036-.381.051-.393.015s-.146-.13-.185-.158c.012.01.4.04.391-.132 0-.062-.458-.105-.461-.168s.49-.111.49-.162c0-.029-.092-.044-.092-.074.01-.1-.386.017-.4.166.036-.11.649-.229.666-.343.025-.051-.48-.115-.467-.171.008.083-.23-.062-.148-.219.04-.075.352-.323.368-.4-.06.019-.168.153-.205.2.024-.029.251.092.276.064s-.089-.268-.047-.305c.021-.019.179.155.2.137.075-.062.284.189.173.276.049-.028-.241-.448-.2-.486s.068-.189.119-.215c.2-.1-.031.556-.05.538.011.011.43-.664.472-.674s.094.283.125.279c.1-.017.089.18-.054.2.085-.015.169.118.255.123.512 0 .83-.706.83-1.218s-.312-.6-.824-.6l.336-.352c.014.2-.311.423-.319.423"/><path fill="#0d4b08" d="M19.881 63.42a3.1 3.1 0 0 0-1.247.419c-.406.183-.594.545-.889.878s-.713.523-.85.957a3.5 3.5 0 0 0-.32 1.265 3.6 3.6 0 0 0 .4 1.264c.2.369.706.49 1.04.766.351.262.56.845.968.953s.91-.144 1.336-.2a3.7 3.7 0 0 0 1.323-.18 3.5 3.5 0 0 0 .831-1.054c.247-.352.8-.676.893-1.1s-.2-.949-.287-1.38a3.2 3.2 0 0 0-.724-1.269c-.294-.388-.488-1.024-.924-1.24s-1.046.011-1.548.014-.567.361-.569.873.054 1.226.566 1.228v-.694c.065 0 .137.043.2.05.218 0-.255.474-.05.524.1.024.379-.512.474-.48-.008 0-.247.194-.246.193a.4.4 0 0 1 .327-.007c.065.033-.211.538-.14.545-.024-.058.079.083.029.047.029.024.23-.19.258-.164s.3-.223.344-.183c.018.019-.1-.035-.079-.031-.078-.012-.519.458-.434.594.055.087.333.026.384.117s-.08-.079-.079-.2c.017.075.287.194.32.264.011.094-.194.411-.164.5-.079-.128-.072-.373-.071-.243 0 .05-.171.1-.171.147a6 6 0 0 0 .509.383c.033-.055-.4-.2-.384-.261 0 .039.107.1.1.139-.012.065.153.166.135.232s-.409-.04-.424.01c-.008.025.208.094.2.119-.036.093-.293.11-.236-.031-.054.046.62.38.581.443-.024.036-.114.017-.135.054-.06.1.114-.094-.014.035-.082.065-.373-.309-.44-.23.065 0-.033.1.011.05s.135.24.09.269-.123-.094-.168-.067-.108.026-.153.053c-.162.09.221.137.1.166s-.229-.069-.329-.046c-.057.012-.039.107-.1.118-.1.017-.122-.162.025-.183.057-.021-.015.341-.076.345-.1.006-.2-.523-.3-.529a.7.7 0 0 0-.173-.039c.018-.008.18.387.025.35-.1-.025-.215-.033-.315-.067-.043-.019-.255.275-.3.262.136.06.284-.171.2-.212-.036-.018.085-.257.049-.276-.085-.046-.383.334-.469.3.162.075.189-.157.132-.214s.246-.38.209-.419-.54.44-.573.412c-.09-.078.57-.226.472-.381-.06-.093-.046-.209-.1-.3-.1-.172-.054.3-.121.112-.011-.036-.448.064-.459.028s.42-.644.381-.671c.012.01-.359.486-.368.314 0-.062.112-.126.11-.189s.343-.105.343-.157c0-.029-.207-.057-.207-.086.01-.1.244-.248.232-.1.036-.11.1.029.119-.085.025-.051-.326-.155-.314-.212.008.083-.393-.044-.311-.2.04-.075.544.062.559-.018-.06.018-.208-.14-.247-.089.024-.029-.087-.2-.062-.23s.311.118.352.08c.021-.018-.079-.137-.058-.155.075-.062.277.2.165.284.05-.028-.214-.456-.171-.494s.166-.061.218-.087c.2-.1.05.494.031.476.011.011.465-.107.506-.117s.058.183.089.178c.1-.017.021-.128-.122-.112.085-.015.168.072.255.079a1.415 1.415 0 0 0 1.114-1.237c0-.512-.6-.878-1.108-.88l-.094-.108c.012-.019.117.022.108.022"/><path fill="#0d4b08" d="M14.623 63.469c-.456 0-1.049-.252-1.447-.074a3.9 3.9 0 0 0-1.193.873c-.291.325-.282.949-.42 1.384-.128.415-.487.891-.448 1.305s.752.683.952 1.058a3 3 0 0 0 .606 1.063c.351.262.785.2 1.193.309a2.7 2.7 0 0 0 1.146-.032 2.7 2.7 0 0 0 1.139-.2 2.6 2.6 0 0 0 .746-.882 2.75 2.75 0 0 0 .613-1 2.9 2.9 0 0 0 .085-1.211c-.09-.494-.452-.752-.739-1.132s-.4-.9-.837-1.114a3.04 3.04 0 0 0-1.4-.3c-.512 0-1.341.365-1.343.877s.828 1.121 1.34 1.122v-.294c.065 0 .137-.221.2-.214.218 0-.222.3-.017.354.1.024.243-.094.338-.062a1 1 0 0 1-.107-.044.26.26 0 0 0 .089.355c.065.033.09.1.161.1-.024-.058.1-.033.046-.069.029.024.28-.2.308-.178s-.4.488-.363.529c.018.019.427-.487.449-.483-.078-.012-.272.222-.187.358.055.087 0 .228.054.318a.9.9 0 0 1-.122-.309c.017.075.483.233.516.3.011.094-.248.422-.218.512-.079-.128.461-.375.462-.244 0 .05-.136.1-.136.151s-.158.3-.128.344c.032-.057.282-.036.294-.1 0 .039-.261.025-.268.062-.012.065.273.223.255.287s-.336.007-.351.057c-.008.026.3.15.291.176-.036.092-.158-.08-.1-.219a2.6 2.6 0 0 0-.189.359c-.024.036.053.118.032.155-.06.1-.279-.483-.406-.354-.08.065-.042.054-.108.133.065 0-.086.04-.04-.008s.047.076 0 .1.2.422.154.449-.234-.175-.279-.148c-.162.09.032-.5-.086-.467s-.191.035-.291.058c-.057.012-.018.148-.075.16-.1.017.053.5.2.479.057-.021-.148-.34-.208-.336-.1.007-.226.415-.329.409-.06-.012-.061-.513-.121-.509.018-.008.162.424.007.387-.1-.025-.162-.209-.262-.243-.042-.019 0-.208-.042-.221.136.06-.036.461-.125.419-.037-.018.212-.5.176-.523-.085-.046-.49.54-.576.5.162.075.244-.228.187-.284s.172-.311.136-.35-.517.423-.551.4c-.09-.078.646-.28.548-.436-.06-.093-.655.137-.706.046-.1-.172.284.068.218-.122-.011-.036.3-.175.29-.211a4 4 0 0 0-.4-.16c.012.01-.107.143-.115-.029 0-.062.323-.137.32-.2s.117-.094.117-.146c0-.029-.368-.068-.368-.1.01-.1 0 0-.017.151.036-.11-.107-.368-.09-.481.025-.051.117.132.128.076.008.083.35.122.431-.035.04-.075-.078-.409-.062-.49-.06.019-.208-.006-.246.044.024-.029.071-.067.1-.094s.456.3.5.264c.021-.019-.051-.093-.031-.111.075-.062-.143-.273-.255-.186.05-.028.19.044.233.008s.021-.193.072-.219c.2-.1-.128.347-.147.329.011.011.49-.351.531-.361s.064.182.094.176c.1-.017.053-.32-.09-.305a1 1 0 0 1 .261-.054c.51 0 1.186-.229 1.186-.741s-.674-.9-1.186-.9l-.093.162a.7.7 0 0 0 .107-.182"/><path fill="#0d4b08" d="M17.253 67.983c-.456 0-.773.43-1.171.608a2.6 2.6 0 0 0-.959.713c-.291.325-.723.516-.86.95a3 3 0 0 0 .114 1.226 2.6 2.6 0 0 0 .455 1.045c.2.369-.111 1.168.225 1.444a4 4 0 0 0 1.3.523c.415.11.868-.443 1.294-.5a2.8 2.8 0 0 0 1.158-.216c.373-.233.9-.29 1.142-.635a3.4 3.4 0 0 0 .456-1.24c.089-.412-.234-.812-.319-1.242a2.6 2.6 0 0 0-.534-1.208c-.294-.388-.433-.918-.87-1.135s-.928-.649-1.43-.646-.581.785-.583 1.3.069.885.58.886v-.065c.065 0 .133-.053.2-.046.218 0-.228.185-.022.234.1.024.171.09.266.122-.008 0 .326.1.327.1-.028.026-.467-.078-.28.017a3 3 0 0 0 .5-.06c-.024-.057.028-.24-.022-.277.029.024-.036.2-.008.229s.148-.065.189-.025c.018.019-.169.735-.147.739-.078-.012-.323-.413-.239-.277.055.087.179.118.23.208a.65.65 0 0 1-.141-.3c.017.075.276.293.309.362.011.094.35-.137.379-.047-.079-.128-.01.128-.008.258 0 .05-.018.1-.018.15s-.569.083-.538.128c.032-.057-.019.044-.007-.019 0 .039.279.135.272.172-.012.065.311.222.293.286s-.173.055-.189.105c-.008.026-.028.026-.037.051-.036.093.135.025.191-.115a3 3 0 0 0-.279.319c-.024.036-.551-.222-.572-.185-.06.1.531.049.4.178-.08.065-.179-.011-.247.069.067 0-.141-.1-.1-.146s-.025-.067-.068-.037.337.633.291.66-.394-.455-.438-.429c-.162.09.318.329.2.358s-.271-.257-.37-.233c-.057.012-.008.247-.065.258-.1.017-.118-.144.029-.165.057-.022-.057-.2-.118-.193-.1.006-.173.161-.276.154-.058-.011-.157.3-.216.307.018-.008.287-.3.132-.34-.1-.025-.343.379-.443.345-.042-.021.1-.477.055-.49.136.058.058.269-.031.228-.037-.018-.1.089-.132.069-.085-.046-.078-.28-.164-.319.162.075-.133.358-.19.3s-.114-.058-.15-.1.33-.454.3-.481c-.09-.078-.243.484-.341.329-.06-.093-.025-.254-.078-.345-.1-.172.287.09.221-.1-.011-.036-.057-.06-.068-.1a1.2 1.2 0 0 0-.112-.3c.012.01-.169.205-.178.033 0-.062-.158-.114-.161-.176s.341-.118.341-.169c0-.029-.136-.072-.136-.1.01-.1.427-.221.415-.071.036-.11-.173-.058-.157-.172.026-.051.237-.28.25-.336.008.083.021.512.1.355.04-.075-.136-.293-.121-.373-.06.019.157.13.119.18.024-.029-.3-.337-.276-.365s.28.118.322.08c.021-.019.046.014.067 0 .075-.064.189.072.076.161.05-.028-.141-.308-.1-.344s.276.277.327.251c.2-.1.079-.6.06-.62.011.011.074.24.115.23s.085.307.114.3c.1-.017.015-.119-.128-.1.086-.015.175-.327.261-.32.512 0 .63-.363.631-.874s-.118-.52-.63-.52l-.226-.5c.012-.029.248.04.24.04"/><path fill="#407b3e" d="M17.431 59.132a.59.59 0 0 1-.388-.674 3.654 3.654 0 0 1 5.016-2.9.59.59 0 0 1 .388.674 3.654 3.654 0 0 1-5.016 2.9M16.32 59.078a.45.45 0 0 0 .3-.517 2.806 2.806 0 0 0-3.848-2.22.45.45 0 0 0-.3.517 2.806 2.806 0 0 0 3.848 2.22"/><path fill="#0d4b08" d="M17.701 58.017c.129.032.114.377.153.5.028.111-.169.228-.118.006.042-.176-.018-.415.042-.587.022-.064.62-.107.534.079.042-.089-.412-.43-.366-.516s.8.229.852.144c.026-.043-.225-.255-.2-.3.012-.019-.247-.481-.32-.386-.06.074.107-.157.136-.187.074-.079.409.082.491.01.042-.036.028-.151.071-.186-.128.1.191.312.216.3.115-.074-.062-.635.06-.706.017-.008.53.558.443.6s-.036-.287-.018-.294c.115-.04.186-.233.3-.261.05-.011.376.208.2.232a3 3 0 0 1 .4 0c.1 0 .175.165.272.173.055 0 .15-.753.205-.75.139.007-.129.2.01.232.216.042.326.462.538.524.044.019.178-.268.226-.258-.064-.012-.272.157-.32.112-.082-.089.244-.325.265-.444 0-.119-.623-.112-.633-.069-.015.064.01.065-.006.129-.025.1-.026.178-.057.275s.556.38.526.469c-.015.043-.15.158-.064-.018-.021.044-.262-.021-.283.029a4 4 0 0 1-.207.581c-.029.043-.144.025-.175.067.105-.139.01-.044-.014-.012-.072.079-.314-.028-.393.047s.018.326-.067.394c.139-.107-.076.232-.115.255-.061.036.021.209-.043.241-.1.053-.218.189-.08.13-.128.053-.545-.641-.678-.608-.067.017.047.48-.019.5-.014 0-.28.182-.085.154-.129.017-.289.194-.419.2s-.283-.025-.409-.036c-.082-.007-.047-.394-.129-.4.139.012.118-.323.033-.34-.236-.043-.588.456-.814.381-.494-.132-.584.086-.724.577-.123.492-.082.509.405.653.431.151.727 1.035 1.174 1.063s.907-.512 1.348-.609 1.017.074 1.419-.143a5.4 5.4 0 0 0 .878-.956 5 5 0 0 0 .791-.979 5 5 0 0 0 .343-1.208 1.96 1.96 0 0 0-.049-1 1.26 1.26 0 0 0-.655-.873c-.587-.277-1.161-.823-1.81-.818a4.8 4.8 0 0 0-1.4.472 4.4 4.4 0 0 0-1.243.649 4.5 4.5 0 0 0-1.1.895 5.2 5.2 0 0 0-.476 1.791 1.5 1.5 0 0 0-.071.988c.154.49.246.934.734 1.1.494.135.735-.2.873-.692.121-.492-.16-.606-.644-.755-.1-.078.254-.56.266-.559"/><path fill="#0d4b08" d="M16.504 59.786c.35-.114.947-.044 1.128-.365a2.26 2.26 0 0 0 .246-1.361c-.105-.436-.664-.749-.9-1.131a4 4 0 0 0-1.113-1.4c-.491-.291-1.192.036-1.778 0a3.6 3.6 0 0 0-1.341.189c-.383.086-.745.025-.939.332a1.47 1.47 0 0 0-.307 1.065c.094.486.592.782.85 1.194s.192 1.158.588 1.458a4.4 4.4 0 0 0 1.221.393 4.2 4.2 0 0 0 1.23.223c.4-.011.7-.558 1.086-.694.492-.136 1.186-.449 1.05-.943s-.895-.463-1.387-.327a4 4 0 0 1-.48.06c-.06.012-.115-.275-.175-.264-.139.026.1.254.1.247-.083.015-.179-.426-.264-.429s-.18.311-.266.311c-.069 0-.082.186-.151.182-.183-.012.079-.275.087-.275a1.6 1.6 0 0 0-.29-.029c-.046-.012.01-.322-.039-.337s-.166-.062-.047-.006-.136.218-.162.2c-.05-.026-.24.319-.29.293a2 2 0 0 1-.28-.323c.036.076.56-.252.479-.325-.047-.042-.422.379-.467.337-.068-.062.3-.535.236-.6-.15-.172-.239.419-.368.232-.044-.064-.119-.114-.158-.182s0-.169-.022-.219c-.017-.033.165-.166.148-.2-.09-.179-.5.436-.567.25-.044-.125.351-.4.316-.529-.018-.064.308-.233.289-.3-.026-.09-.641.247-.641.239 0 .137-.069-.021-.166.076-.046.043-.123.756-.183.748.036-.008.408-.067.443-.082.064-.019.043-.266.108-.283s.128-.205.207-.219c.015 0 .051.32.067.319.082-.012.042-.341-.04-.329s-.065.11.015.1c.032 0 .012-.361.044-.362a4 4 0 0 1 .57 0c.139.01-.017.418-.049.384.032.011-.019.379.015.38.1.022.226-.19.325-.157.049.012-.029.2.015.216-.176-.094.166-.418.2-.394.083.046-.078.466 0 .516.035.028.362-.327.4-.305-.017 0-.429.141-.3.254.069.062.369-.122.434-.055.032.033-.2.248-.172.282s-.114.148-.085.183c.044.053.171-.1.092-.2.054.069.615-.193.659-.115s-.037.243 0 .319c.017.033-.189.179-.173.212.072.148.047-.182.083-.075.051.151.307.258.345.413.012.049.008.064.019.112.06.325.117.842.44.781a.97.97 0 0 0 .559-.963c-.06-.323-.492-.481-.816-.422-.3.055-.3.233-.277.537 0-.229-.143-.422.078-.48-.229.072-.146.4-.275.6-.258.441-.129.581.314.839.215.126.148.369.39.3.058-.085.08-.094.086-.1"/><path fill="#407b3e" d="M73.439 55.171a6.074 6.074 0 0 0-6.193 5.953v.2a5.966 5.966 0 0 0 5.647 6.267q.273.014.545 0a5.91 5.91 0 0 0 6.193-6.27 6.066 6.066 0 0 0-5.978-6.154h-.215M59.626 55.171a6.074 6.074 0 0 0-6.193 5.953v.2a5.966 5.966 0 0 0 5.647 6.267q.273.014.545 0a5.91 5.91 0 0 0 6.193-6.27 6.066 6.066 0 0 0-5.978-6.154h-.215M87.251 55.171a6.074 6.074 0 0 0-6.193 5.953v.2a5.966 5.966 0 0 0 5.647 6.267q.273.014.545 0a5.91 5.91 0 0 0 6.193-6.27 6.066 6.066 0 0 0-5.978-6.154h-.215M80.754 68.329a6.074 6.074 0 0 0-6.193 5.953v.2a5.966 5.966 0 0 0 5.65 6.269q.272.013.545 0a5.91 5.91 0 0 0 6.193-6.27 6.066 6.066 0 0 0-5.978-6.154h-.215M66.126 68.329a6.074 6.074 0 0 0-6.2 5.953v.2a5.966 5.966 0 0 0 5.647 6.267q.273.013.545 0a5.91 5.91 0 0 0 6.193-6.27 6.066 6.066 0 0 0-5.978-6.154h-.215M73.439 81.065a6.074 6.074 0 0 0-6.193 5.953v.2a5.966 5.966 0 0 0 5.647 6.268q.273.014.545 0a5.91 5.91 0 0 0 6.193-6.27 6.066 6.066 0 0 0-5.978-6.154h-.215"/><path fill="#0d4b08" d="M73.44 52.658a8.6 8.6 0 0 0-1.343.314c-.461.072-.968-.128-1.405.015a9 9 0 0 0-1.268.574 9 9 0 0 0-1.3.57 6.5 6.5 0 0 0-2.071 1.952c-.269.373-.135 1.009-.344 1.426a9 9 0 0 0-.7 1.206 9 9 0 0 0-.029 1.527c-.067.506-.563.986-.544 1.49s.72.914.824 1.408-.322 1.128-.136 1.6a10 10 0 0 0 .476 1.508c.261.43 1.165.406 1.5.791s.418.975.813 1.3c.361.271.907.207 1.3.418a9 9 0 0 0 1.1.739c.42.155.737.734 1.172.827s.963-.32 1.407-.29a9 9 0 0 0 1.31-.139c.444-.033.939.311 1.376.214s.782-.5 1.2-.658a9 9 0 0 0 1.129-.664c.383-.24 1.09-.033 1.427-.322s.16-1.106.449-1.443 1.05-.329 1.286-.706-.072-1.043.105-1.452.731-.674.846-1.107a9 9 0 0 0 .322-1.325 9.5 9.5 0 0 0-.211-1.355 8.6 8.6 0 0 0-.155-1.321c-.082-.449.277-1.038.132-1.458s-.975-.57-1.185-.964a8 8 0 0 0-.691-1.11c-.272-.359-.362-.855-.685-1.167a9 9 0 0 0-.914-1.035c-.366-.259-1.027-.014-1.43-.214s-.64-.763-1.071-.9a9.5 9.5 0 0 0-1.294-.541c-.44-.065-.936.458-1.393.461s-.7.266-1.075.486-1.165.046-1.391.437a3.06 3.06 0 0 0-.083 1.423c0 .47-.189 1.074.032 1.454s.96.338 1.351.565.7.823 1.165.823c.18 0 .358-.189.538-.185.6.014-.631.055-.058.194.277.065.707-.443.977-.355a6 6 0 0 0 .333.551c-.076.072-.706-.319-.186-.049.183.094.368.537.563.558-.071-.158.058-.107-.083-.208.08.067.161.114.237.182s-.026.291.047.37a3 3 0 0 0 .542.316c-.216-.036.076-.9.311-.522.153.246-.273.831-.132 1.082s.426.137.43-.2a1.5 1.5 0 0 0 .183.429c.029.268-.251.713-.166.968-.218-.354.207-.6.209-.233 0 .139.168.276.169.415a4.4 4.4 0 0 0-.029 1.027c.089-.158-.125-.337-.1-.516-.017.107-.483.135-.5.24-.036.18.427.481.376.659-.036.123-.2.218-.244.34-.026.069.082.114.055.183-.1.254-.229.107-.074-.28-.15.128-.115.6-.225.767-.064.1-.577-.06-.637.044-.166.289.945-.065.592.3-.226.183-.695.151-.884.372.184-.006.044-.286.19-.4-.079.058.121.513.039.567s-.338-.155-.423-.107c-.129.076-.13.376-.261.449-.452.25.419.01.089.09-.277.068-.669-.344-.947-.279-.1.025-.135.413-.239.438-.277.046-.268-.261.144-.32-.112.012-.222-.055-.334-.047-.286.019-.523-.2-.81-.208-.162-.036-.4.512-.565.52.051-.025.73-.333.294-.437-.277-.068-.483-.25-.759-.341-.117-.055-.388.294-.513.258.379.165.554-.037.307-.154-.068-.033-.387.409-.449.373-.234-.128-.168-.895-.409-1 .451.207.169.6.008.448-.105-.1-.129-.286-.233-.393-.083-.086-.4.068-.491-.012-.25-.216.784.176.508-.254-.164-.257-.448-.42-.6-.685-.268-.479.259.576.09.049-.032-.1-.534-.051-.566-.151-.049-.155.358-1.224.252-1.3.036.026-.379.941-.4.463-.008-.173.039-.354.035-.527 0-.139.291-.28.291-.426 0-.082-.255-.18-.241-.262.028-.284-.123-.082-.176.336a8 8 0 0 0 .5-1.056 3.5 3.5 0 0 0 .325-.558c.021.233-.312.634-.086.2a4.7 4.7 0 0 0 .411-.878c-.166.053-.384-.031-.487.111.067-.08.169-.183.236-.259.107-.115.538.078.653-.029.058-.054-.2-.352-.143-.4.208-.173.2-.065-.111.179.139-.076.634.282.756.179.139-.085-.028-.635.111-.71.555-.289.408-.04.352-.1a3.2 3.2 0 0 0 .669-.064c.083-.017.078-.053.162-.067.277-.047.24.028-.155.085.236-.042.472.18.712.2.47 0 .72-.694 1.1-.913s.977-.176 1.2-.567.706-.856.706-1.326a4.62 4.62 0 0 0-1.515-2.575c-.379-.221-1.017.411-1.487.411l-.284-.286c.017.039.318-.055.307-.055"/><path fill="#0d4b08" d="M59.622 52.352c-.469 0-.873.613-1.326.685a8 8 0 0 0-1.273.383c-.443.144-.979-.031-1.39.18a7.6 7.6 0 0 0-2.229 1.618c-.326.327-.347.875-.619 1.253s-.838.54-1.047.957a9 9 0 0 0-.388 1.333 9 9 0 0 0-.323 1.462 8.7 8.7 0 0 0 .129 1.488c.019.506-.572 1.095-.469 1.588a10 10 0 0 0 .691 1.415c.186.469.852.674 1.115 1.108s-.069 1.292.265 1.677 1.057.377 1.452.7a9 9 0 0 0 1.164.6c.4.215.653.688 1.07.842a9.4 9.4 0 0 0 1.293.368c.437.094.861.534 1.305.563s.891-.792 1.336-.827.913.283 1.35.186.762-.477 1.182-.637.97.006 1.364-.212a10 10 0 0 0 1.183-.7c.343-.294.257-1 .548-1.34a8.4 8.4 0 0 0 .849-.988c.239-.38 1.009-.5 1.187-.9s-.173-1.028-.058-1.461a9 9 0 0 0 .228-1.3c.047-.443.635-.892.617-1.341a10 10 0 0 0-.4-1.348 9 9 0 0 0-.283-1.359 9.5 9.5 0 0 0-.454-1.328 9.6 9.6 0 0 0-.929-1.057 10 10 0 0 0-.764-1.182c-.323-.314-.953-.3-1.321-.56s-.874-.234-1.279-.436-.587-.941-1.018-1.076-1.013.43-1.462.363-.832-.48-1.289-.477-.793.33-1.172.549a2.15 2.15 0 0 0-.848.864c-.219.38-.732.7-.732 1.165a2.77 2.77 0 0 0 .5 1.3c.226.391.739.412 1.131.638s.648.813 1.118.813c.18 0 .365-.448.545-.444.6.014-.66.494-.087.633.277.065.567-.029.836.058a2 2 0 0 1 .08-.38c-.076.072-.422.361.1.631a5 5 0 0 0 1.029.162c-.071-.16.055-.424-.086-.526.08.067.193.166.269.234s.169.171.243.25c.051.053-.115 1.036-.051 1.047-.216-.036-.108-.961.126-.585.153.246.476.4.617.646s-.225.393-.221.053c.047.207.262.268.354.459.031.268-.291.712-.205.967-.218-.354-.183-.578-.18-.215 0 .139-.13.28-.129.419a5.4 5.4 0 0 0 .565.975c.089-.158-.631-.369-.608-.549-.017.107.506.291.486.4-.036.18-.237.326-.289.5-.036.123-.225.189-.268.311-.025.069.314.2.287.266-.1.255-.531.121-.376-.266-.15.128.069.494-.04.666-.064.1.037.3-.022.408-.166.289.361-.472.008-.111-.225.183-.562-.054-.75.166.185-.006.243.315.388.2-.079.058-.072.264-.154.318s-.32-.126-.405-.078c-.129.076-.233.194-.363.268-.452.25.466 0 .136.076-.277.068-.658-.3-.936-.237-.1.025-.2.006-.308.031-.277.046-.1.716.314.656-.112.012-.294-.533-.406-.524a7 7 0 0 1-.828.032c-.162-.036-.358.183-.524.191.051-.025.583.325.147.221-.277-.068-.486-.431-.762-.523a2.3 2.3 0 0 0-.376-.1c.379.165.529.014.282-.1-.068-.033-.083-.146-.146-.182-.234-.128-.714.183-.956.074.451.207.352.123.191-.032-.105-.1-.079-.34-.183-.447-.083-.086-.359.028-.451-.053-.25-.216.713.228.437-.2-.164-.257-.873-.189-1.021-.454-.268-.479.714.315.545-.212-.032-.1.161-.271.129-.37-.049-.155-.7-.467-.807-.544.036.026.275.381.25-.1-.008-.173-.373-.34-.377-.513 0-.139.218-.282.218-.427 0-.082.466-.123.48-.205.028-.284-.222-.305-.275.112.1-.305-.194-.634-.148-.952.072-.141.248-.139.283-.293.021.233-.214.333.012-.1.111-.209.648-.262.692-.487-.166.051-.454-.305-.556-.165.067-.08.129-.215.2-.291.107-.115.659.205.774.1.057-.053-.332-.492-.272-.544.208-.175.312.051 0 .3.14-.076.438.04.56-.062.139-.085.137-.379.276-.454.555-.289.01.182-.047.125a7 7 0 0 0 1.106.061c.083-.017-.051-.7.033-.72.277-.047.3.506-.094.563.236-.043.454-.33.694-.312a2.9 2.9 0 0 0 1.393-.158c.391-.228.316-.9.542-1.3s.734-.648.734-1.118a3.2 3.2 0 0 0-.153-1.454c-.226-.391-.953-.351-1.344-.578s-.7-.114-1.172-.114l.265-.408c.011-.118-.244-.258-.254-.258M87.247 52.376c-.469 0-.861.667-1.314.739s-1-.315-1.443-.172-.7.691-1.108.9a9 9 0 0 0-1.265.529 9 9 0 0 0-1.039.895c-.325.327-.966.418-1.236.795s-.2.982-.412 1.4a9 9 0 0 0-.354 1.332 8.4 8.4 0 0 0-.236 1.455c-.067.506-.619.981-.6 1.484s.436.975.538 1.469a10.2 10.2 0 0 0 1.824 4.106c.327.379.961.409 1.357.734.362.271.474.873.863 1.083s.914.133 1.332.287a9 9 0 0 0 1.278.269 9 9 0 0 0 1.272.35c.445.031.914.537 1.359.5a10 10 0 0 0 1.347-.345c.433-.1.781-.534 1.2-.694a9.5 9.5 0 0 0 1.1-.73c.383-.24 1-.133 1.337-.422a9 9 0 0 0 .867-1.054 9 9 0 0 0 .826-1.066c.239-.379-.011-.988.166-1.4s.852-.628.966-1.061a9.5 9.5 0 0 0 .375-1.325c.047-.443-.555-.9-.574-1.354a8.4 8.4 0 0 0 .064-1.322 8.3 8.3 0 0 0-.379-1.272c-.15-.429-.522-.709-.732-1.1s.178-1.178-.093-1.536a9.4 9.4 0 0 0-.934-1.046 9.5 9.5 0 0 0-1.2-.719 9 9 0 0 0-1.215-.621 9 9 0 0 0-1.261-.49 6.04 6.04 0 0 0-2.665-.112 1.96 1.96 0 0 0-1.078.441c-.391.226-.928.187-1.154.578s-.075.818-.075 1.289-.391 1.052-.172 1.43a3.06 3.06 0 0 0 1.139.889 2.7 2.7 0 0 0 1.34.09c.18 0 .358.2.538.2.6.014-.547-.257.026-.118.277.065.42.534.689.621a3 3 0 0 1 .218-.4c-.076.072-.522.268 0 .538a5 5 0 0 0 1.031.154c-.069-.158-.051-.275-.193-.376.08.067.252.072.329.14s-.129.444-.055.523c.051.053.369-.132.433-.121-.216-.036-.191-.155.043.221.153.246.008.662.15.913s.155.147.16-.193c.046.207.38.258.472.449.031.268-.2.491-.111.748-.218-.354-.463-.336-.461.028 0 .139.7.272.706.411s-.771.572-.689.694c.089-.158.329-.022.352-.2-.017.107.2.259.176.365-.036.18-.255.333-.307.511-.036.123-.153.223-.2.345-.025.069.122.128.1.2-.1.254-.635.119-.479-.268-.15.128.343.6.233.773-.064.1-.391.047-.451.151-.166.289.318-.645-.035-.284-.225.183-.248.455-.437.676.185-.006-.058-.25.087-.362-.079.058.061.4-.021.452s-.083.25-.168.3c-.129.076-.3.082-.429.155-.452.25.355-.437.025-.357-.277.068-.479.447-.757.512-.1.025-.178.23-.282.255-.277.046-.271-.272.141-.332-.112.012-.2.211-.316.219-.286.019-.556-.34-.842-.354-.164-.035-.405.529-.572.537.051-.025.588.19.153.086-.277-.068-.483-.487-.759-.578-.117-.057-.211-.168-.336-.2.38.164.42.24.173.123-.068-.033-.305.228-.368.191-.234-.128-.283-.637-.524-.746.451.207.269.334.108.179-.105-.1-.218-.2-.322-.311-.083-.086-.282-.042-.373-.122-.25-.216.859.117.583-.314-.164-.257-.526-.373-.674-.638-.268-.479-.29.746-.459.219-.032-.1.669-.433.637-.533a3.3 3.3 0 0 0-.656-.714c.036.026-.132.555-.157.078-.008-.173.3-.359.3-.533 0-.139-.007-.276-.007-.422 0-.082.375-.117.388-.2.028-.284-.033-.419-.086 0 .1-.305-.214-.469-.169-.787.072-.141.379-.452.413-.608.021.233-.379.692-.153.255a6 6 0 0 0 .345-1.057c-.165.051.23.554.128.694.067-.08-.3-.512-.236-.588.107-.115.658.223.773.117.058-.054-.3-.452-.241-.5.208-.175.352.075.042.319.139-.076.411.067.531-.036.139-.085.117-.344.255-.419.555-.289.135-.293.079-.35a3.3 3.3 0 0 0 .846.261c.085-.017.037-.229.122-.243.277-.047.164-.576-.232-.519.236-.043.512.282.75.3.47 0 .75-.365 1.129-.585s1.139-.125 1.365-.516-.3-.971-.3-1.44.258-.911.039-1.29-.67-.515-1.063-.741a2.5 2.5 0 0 0-1.275-.323c-.1-.043.123-.431.114-.431"/><path fill="#0d4b08" d="M80.763 66.176c-.469 0-.971-.585-1.425-.513a9 9 0 0 0-1.315.53 10 10 0 0 0-1.4.3c-.412.212-.6.8-.978 1.075s-.954.318-1.28.646a9 9 0 0 0-.95 1.061 9 9 0 0 0-.6 1.289c-.205.409-.667.763-.81 1.211-.151.488.351 1.132.284 1.629a8.6 8.6 0 0 0-.094 1.473 9 9 0 0 0 .037 1.5c.1.5-.172 1.135.012 1.605s.784.773 1.047 1.207a9 9 0 0 0 .86 1.247c.327.379.461 1.028.856 1.353.361.271.993.175 1.382.387a9 9 0 0 0 1.26.424 9 9 0 0 0 1.3.193 9 9 0 0 0 1.265.312c.445.029.882.309 1.328.275a10 10 0 0 0 1.4.09c.433-.1.764-.624 1.185-.784a7.9 7.9 0 0 0 2.329-1.29 9 9 0 0 0 .885-1.009c.294-.34.319-.842.556-1.219a8.4 8.4 0 0 0 .52-1.178c.178-.409.963-.6 1.078-1.031s-.358-.971-.309-1.418a9 9 0 0 0 .229-1.3 9 9 0 0 0-.29-1.29c-.082-.449.445-1.068.3-1.488s-.972-.572-1.183-.966.032-1.092-.239-1.45-.771-.556-1.093-.87-.467-.9-.835-1.162-.988-.162-1.393-.363a7.1 7.1 0 0 0-2.55-.932 9 9 0 0 0-1.366.1c-.47 0-.769.312-1.149.531a2.1 2.1 0 0 0-.867.825c-.219.38-.9.694-.9 1.162a3.2 3.2 0 0 0 .448 1.427c.226.391.843.487 1.235.713s.766.818 1.236.818c.18 0 .35.031.53.035.6.014-.52-.713.053-.574.277.065.491.338.76.426a8 8 0 0 0 .486.244c-.076.072-.681-.486-.161-.215a5 5 0 0 0 .9.509c-.069-.16-.461.234-.6.135.08.067.6-.408.671-.34s.044.279.118.358c.051.053.123.5.187.512-.216-.036-.347-.483-.112-.107.153.246.229.524.37.775s.239.166.243-.173c.046.208-.216.37-.125.562a4.2 4.2 0 0 0 .272.8c-.218-.354-.015-.527-.012-.164 0 .139-.366.28-.365.419a7 7 0 0 0 .71 1.039c.087-.158-.078-.345-.054-.524-.017.107-.232.19-.252.3-.036.18-.221.323-.272.5-.036.123.405.416.362.538-.026.069-.369-.055-.4.014-.1.254-.022.171.135-.216a3.7 3.7 0 0 0-.38.7c-.064.1-.343.08-.4.185-.166.289.517-.459.165-.1-.225.183-.4.118-.591.338.185-.006.125.16.271.047-.079.058-.257-.042-.338.012s-.042.293-.126.341c-.129.076-.129.377-.259.451-.452.25.433.05.1.13-.277.068-.616-.119-.895-.054-.1.025-.287-.345-.391-.32q-.414.068.205-.024c-.112.012-.16.577-.272.585-.286.019-.567-.465-.855-.477-.164-.035-.413.581-.58.59.051-.025.717-.376.282-.48-.277-.068-.7.258-.974.166-.117-.055-.076-.5-.2-.531.379.164.352.377.105.261-.068-.033.064-.449 0-.486-.234-.128-.59-.092-.831-.2.451.207.164.479 0 .323-.105-.1-.283-.148-.387-.257-.083-.086.211-.58.119-.66-.25-.216.1.781-.175.351-.164-.257-.24-.565-.388-.83-.268-.479.191.563.022.036-.032-.1.022-.228-.01-.327a2.3 2.3 0 0 0-.494-.635c.036.026.354.368.329-.11-.008-.173-.315-.337-.319-.511 0-.139-.1-.28-.1-.426 0-.082.171-.178.185-.259.028-.284-.212-.054-.265.363.1-.305.762-.706.806-1.024.072-.143-.043-.4-.01-.552.021.233-.535.4-.309-.036.111-.209.646-.612.691-.836-.166.053-.09.28-.194.42.067-.08.233-.08.3-.157.107-.115-.13-.594-.015-.7.058-.053.436.365.5.315.208-.175-.117-.431-.429-.187.14-.076.247-.268.368-.37.139-.085.423 0 .562-.072.555-.289-.036.293-.092.236.031.031.892-.787 1.009-.812.083-.017.226.72.311.7.277-.047.135-.713-.261-.656.237-.043.5.4.744.42a2.74 2.74 0 0 0 1.311-.438 2.65 2.65 0 0 0 .942-.966 2.55 2.55 0 0 0 .247-1.3 2.25 2.25 0 0 0-.5-1.153c-.226-.391-.53-.487-.921-.713s-.6-.71-1.075-.71c-.155.157.039.433.028.433"/><path fill="#0d4b08" d="M66.125 65.886c-.469 0-.966-.3-1.419-.226a9.5 9.5 0 0 0-1.418.216c-.443.144-.77.633-1.181.843s-.559.795-.934 1.068-1.121.089-1.448.419-.3.957-.567 1.336-.771.6-.981 1.017-.662.766-.8 1.212a9.7 9.7 0 0 0-.105 1.576c-.068.5.265 1.022.283 1.526s-.437 1.082-.334 1.576a10 10 0 0 0 .58 1.452 9.5 9.5 0 0 0 .83 1.3 9 9 0 0 0 1.035 1.106 8.6 8.6 0 0 0 1.14.932c.361.269.423.978.813 1.189s1.027-.1 1.443.05a9 9 0 0 0 1.251.326c.437.093.807.509 1.253.54a9.5 9.5 0 0 0 1.328-.182 9 9 0 0 0 1.283-.276c.433-.1 1.063.4 1.483.24a10 10 0 0 0 1.218-.7c.384-.24.418-.971.753-1.26s1.1-.179 1.39-.516a10 10 0 0 0 .889-1.085c.239-.38-.142-1.1.037-1.512s.591-.724.706-1.157a9.5 9.5 0 0 0 .445-1.3c.047-.443-.524-.9-.542-1.353a8.6 8.6 0 0 0 .068-1.323c-.082-.449.251-1.022.105-1.443s-.946-.574-1.157-.968a5.4 5.4 0 0 0-1.609-2.018c-.323-.312-.273-1.057-.642-1.316a9 9 0 0 0-1.207-.664c-.4-.2-.942-.064-1.375-.2a8 8 0 0 0-1.31-.166c-.44-.067-.846-.8-1.3-.8s-.827.677-1.207.9-.486.591-.712.984-.875.638-.875 1.108.7.7.923 1.079.218.882.609 1.108a2.5 2.5 0 0 0 1.264.372c.18 0 .354.28.534.284.6.014-.662.007-.089.146.277.065.771-.674 1.04-.587a4 4 0 0 0 .2.54c-.076.072-.659-.115-.139.155a4.6 4.6 0 0 0 .961.307c-.069-.16-.15-.147-.291-.248.08.067.269.028.345.1s-.187.487-.114.566a2.1 2.1 0 0 0 .494.178c-.216-.036-.223-.515.011-.139.153.246.271.511.412.762s.237.329.241-.011c.047.208-.269.273-.179.466.031.266.286.282.372.537-.218-.354-.578-.233-.576.13 0 .139.284.276.286.415s-.239.608-.157.73c.087-.16.4-.044.42-.225-.017.107.037.239.017.344-.036.18-.6.23-.646.408-.036.123-.151.2-.194.32-.026.069-.01.067-.036.136-.1.255-.132.311.025-.076-.15.128.286.574.176.746-.064.1-.014.266-.074.37-.166.289.1-.71-.25-.35a3.6 3.6 0 0 0-.559.5c.185-.006.33.3.476.187-.079.058-.316-.086-.4-.032s-.1.214-.189.262c-.129.076-.508-.3-.638-.223-.452.25.677.379.347.459-.277.068-.549.158-.828.223-.1.025-.25-.125-.354-.1-.277.046-.2.157.215.1-.112.012-.219.246-.332.254a9 9 0 0 1-.92-.017 2.2 2.2 0 0 0-.522.047c.051-.025.745-.491.309-.6-.277-.068-.615.075-.891-.017-.117-.055-.351.119-.476.083.38.165.5.09.252-.026-.068-.033.021-.377-.042-.413-.234-.128-.651.061-.892-.049.451.207.5 0 .34-.16-.105-.1 0-.4-.108-.512-.083-.086-.6.255-.687.175-.25-.216.334.473.058.043-.164-.257-.19-.6-.338-.863-.268-.479.608.423.438-.1-.032-.1-.455-.075-.487-.175-.049-.155-.085-.886-.19-.963.036.026.43.651.405.173-.008-.173-.447-.323-.451-.5 0-.139-.133-.277-.133-.423 0-.082-.175-.2-.161-.286.028-.284.565-.261.512.157a4 4 0 0 0 .08-.837c.072-.141-.232-.1-.2-.257.021.233.022.252.248-.185.111-.209.511-.513.555-.738-.166.053-.139.09-.241.232.067-.08.114-.186.18-.262.107-.115.033-.436.148-.542.058-.053.007-.128.067-.179.208-.173.257 0-.054.247a3 3 0 0 0 .396-.344c.139-.085.4-.022.541-.1.555-.289-.1.337-.157.28a10 10 0 0 0 1.23-.065c.085-.018-.05-.7.035-.719.277-.047.251-.051-.144.006.237-.043.5.289.742.307.47 0 1.118.182 1.5-.037s.52-.9.746-1.3a2.66 2.66 0 0 0 .436-1.294 2.8 2.8 0 0 0-.326-1.359 2.76 2.76 0 0 0-1.093-.824 2.4 2.4 0 0 0-1.26-.112l.246-.344c.018.075-.211.205-.222.205"/><path fill="#0d4b08" d="M73.44 78.559c-.469 0-.97-.272-1.423-.2a10 10 0 0 0-1.44.168c-.443.144-.588 1.017-1 1.228a8 8 0 0 0-1.194.621c-.373.273-.978.272-1.3.6s-.864.54-1.136.918.033 1.118-.175 1.536-.713.7-.856 1.146c-.151.488.169 1.067.1 1.563s-.669.984-.649 1.487.638.943.742 1.437-.205 1.111-.021 1.581a9.5 9.5 0 0 0 .75 1.351c.261.43.917.558 1.25.943s.368 1.042.763 1.368a9.4 9.4 0 0 0 1.23.572 9 9 0 0 0 1.225.508 9 9 0 0 0 1.257.424 9 9 0 0 0 1.314.254 9 9 0 0 0 1.335-.058c.444-.035.961.262 1.4.165a10 10 0 0 0 1.31-.447 10 10 0 0 0 1.171-.728 9 9 0 0 0 1.107-.794 10 10 0 0 0 1.02-.917c.291-.34.34-.873.578-1.251a9 9 0 0 0 .759-1.115 10 10 0 0 0 .652-1.224 10.6 10.6 0 0 0 .218-2.736c-.018-.443-.645-.812-.731-1.255s.137-.945-.01-1.365 0-1.017-.207-1.411a9 9 0 0 0-.868-1.1c-.272-.359-1.035-.265-1.357-.577s-.311-1-.68-1.26a9 9 0 0 0-1.2-.638 9 9 0 0 0-1.218-.635 9 9 0 0 0-1.343-.307 9 9 0 0 0-1.372-.1 3 3 0 0 0-1.412.314c-.391.228-.547.793-.773 1.185a2.64 2.64 0 0 0-.52 1.261 2.64 2.64 0 0 0 .544 1.249 2.4 2.4 0 0 0 .923.9c.38.219.769.719 1.239.719.18 0 .35.119.53.123.6.014-.53-.664.043-.526.277.065.452.445.721.533-.021-.007.648.226.655.221-.076.072-.669-.867-.148-.6.183.094.784.649.979.67-.069-.16-.312-.178-.452-.279.079.067.011.345.087.413s.394-.09.467-.011c.053.053.037.344.1.355-.216-.036-.147-.355.087.021.153.246.466.406.608.658s-.393.381-.387.042a2.6 2.6 0 0 0 .277.551 3.6 3.6 0 0 0 .092.766c-.218-.354.219-.429.222-.065 0 .139-.6.282-.6.42s-.137.535-.055.658c.089-.158.712.05.735-.129-.017.107-.044.234-.065.34-.036.18-.037.4-.089.58-.036.123-.433.144-.476.266-.026.069-.333-.05-.361.019-.1.255-.093.29.065-.1-.151.128.216.59.107.762-.064.1-.658-.105-.717 0-.166.289.535-.551.183-.19-.225.183-.186.537-.376.757.184-.006.391.316.537.2-.079.058-.418-.226-.5-.172s-.255-.051-.34 0c-.128.076-.007.588-.137.662-.452.25.219-.785-.111-.7-.277.068-.513.29-.792.355-.1.025-.171.179-.275.2-.276.046-.211.031.2-.029-.112.012-.178.474-.29.483a9 9 0 0 1-.9-.107 1.9 1.9 0 0 0-.5-.085c.051-.026.7-.207.269-.311-.277-.068-.5-.233-.774-.325-.117-.057-.351.2-.476.162.38.165.264.572.017.455-.068-.033.143-.631.08-.667-.234-.128-.458-.358-.7-.467.451.207.3.418.143.262-.105-.1-.007-.4-.111-.508-.083-.085-.336-.042-.427-.122-.25-.216.086.763-.19.333-.164-.257.14-.784-.008-1.049-.268-.479.078.674-.092.147-.032-.1-.232-.147-.264-.247a3 3 0 0 0-.333-.8c.036.026-.151.531-.176.054-.008-.173.541-.362.537-.535 0-.139-.554-.275-.554-.42a2 2 0 0 1-.019-.283c.028-.284.325-.169.272.248a6 6 0 0 0 .1-.984c.071-.141.463-.388.5-.544.021.233-.043.813.183.376a8 8 0 0 0 .032-1.282c-.166.053.2.585.094.726.067-.08.189-.076.255-.153.107-.115.243-.15.358-.257.058-.053-.393-.556-.333-.608.208-.173.287.018-.024.262.139-.076.441.06.563-.043.139-.085-.025-.669.114-.744.555-.289.1.441.049.384a8 8 0 0 0 1.117-.032c.085-.017-.043-.678.04-.694.279-.047.311.581-.085.638.237-.043.461-.752.7-.734.472 0 1.007.452 1.387.232a3 3 0 0 0 .979-1.045c.219-.379.037-.9.037-1.372a2.15 2.15 0 0 0-.437-1.142c-.226-.391-.089-1.221-.481-1.447s-1.024.173-1.5.173l.337-.3c.017.044-.3.219-.315.219"/><path fill="#407b3e" d="M73.935 53.704a1.634 1.634 0 0 1-1.082-1.876A10.172 10.172 0 0 1 86.81 43.77a1.634 1.634 0 0 1 1.082 1.876 10.96 10.96 0 0 1-4.994 7.462 10.96 10.96 0 0 1-8.963.6M70.838 53.551a1.25 1.25 0 0 0 .832-1.439 8.4 8.4 0 0 0-3.833-5.725 8.4 8.4 0 0 0-6.874-.458 1.25 1.25 0 0 0-.832 1.439 7.8 7.8 0 0 0 10.707 6.183"/><path fill="#0d4b08" d="M74.672 50.975c.359.089.5.633.6.986.078.307.4.92.548.3a13 13 0 0 1 .258-1.457c.062-.178.058-.931-.183-.418.117-.248.6-.3.727-.544s.105-.56.252-.8c.075-.121-.34-.563-.261-.68.036-.054.9-.155.692.108-.165.205.09-.48.171-.566.2-.219.157-.727.381-.925.114-.1.451.037.57-.055-.354.277-.019.026.051-.019.32-.2.626-.436.963-.612.046-.024.646-.047.4.062s.147-.35.2-.369c.319-.112.623-.369.95-.447.139-.032.928-.11.448-.047a11 11 0 0 1 1.239-.255c.277 0 .553.32.827.338.154.01.309-.039.462-.031.4.019-.415.118-.025.2.6.117 1.286-.061 1.874.115.125.053.108.7.241.73a2 2 0 0 1-.7-.286 1.75 1.75 0 0 1-.185-1.211c0-.333.509.1.483.209s-.221.2-.25.319c-.071.277-.187.548-.273.814-.079.25-.24.472-.326.717-.043.121-.293.394-.055-.094-.06.122.107.352.049.473-.24.5-.923.75-1.236 1.214-.08.118.089.408 0 .524.293-.4.141-.017.076.06-.2.221-.592.25-.806.458s-.161.752-.4.942c.375-.3-.818-.315-.932-.254s.089.753-.028.81c-.29.14-.664.4-.282.24a10 10 0 0 1-1.246.241c-.122.032-.3-.141-.418-.115-.037.008-.838.115-.293.039a9 9 0 0 1-1.071-.024c-.351 0-.68-.135-1.031-.165-.153-.012-.289-.141-.441-.155.37.036.042.728-.191.685a15 15 0 0 1-2-.431c-.452-.122-.82-.577-1.243-.466a3.16 3.16 0 0 0-1.354.524c-.312.307-.352.914-.48 1.365a2.86 2.86 0 0 0-.105 1.369c.118.434.562.716.875 1.038a2.36 2.36 0 0 0 1.144.486c.447.157.767.744 1.224.852a14 14 0 0 0 1.391.37c.469.062.981-.406 1.451-.394a14 14 0 0 0 1.386-.082c.469-.037 1 .394 1.462.308a14 14 0 0 0 1.415-.273c.449-.132.689-.867 1.126-1.046a14 14 0 0 0 1.369-.369c.422-.259 1.009-.287 1.4-.588a15 15 0 0 0 1.255-.859c.354-.344.137-1.218.449-1.6a13 13 0 0 0 .934-1.1c.268-.412.855-.637 1.076-1.076s.684-.807.856-1.271-.293-1.14-.172-1.62c.158-.458.609-.859.646-1.339s-.416-.914-.5-1.391c-.136-.567.133-1.326-.208-1.785s-1.135-.434-1.638-.728c-.408-.191-.633-.792-1.057-.936a12 12 0 0 0-1.335-.3c-.438-.1-.945.284-1.393.237s-.859-.516-1.31-.512a12 12 0 0 0-1.477.221 12 12 0 0 0-1.448.258 12 12 0 0 0-1.434.334 12 12 0 0 0-1.4.494 13 13 0 0 0-1.267.769c-.415.265-1.047.268-1.429.583a13 13 0 0 0-1.076 1.075 13 13 0 0 0-.843 1.258c-.255.348-.515.706-.737 1.074s-.5.727-.688 1.113-.108.9-.261 1.3-.431.759-.547 1.175a6.2 6.2 0 0 0-.569 1.6 6.3 6.3 0 0 0 .179 1.712 5 5 0 0 0 .681 1.315c.273.383 1 .3 1.375.577s.583.763 1.033.911c.454.123.993.484 1.418.373a3.25 3.25 0 0 0 1.219-.85c.312-.307-.008-.957.117-1.409s.619-.828.5-1.249a2.84 2.84 0 0 0-.732-1.156 2.55 2.55 0 0 0-1.038-.788c-.094-.093-.078-.129-.074-.128"/><path fill="#0d4b08" d="M71.455 55.804a3.36 3.36 0 0 0 2.192-1.74c.24-.488.97-.886 1.011-1.418a5 5 0 0 0-.186-1.737c-.1-.4-.332-.789-.47-1.179s-.7-.615-.881-.988.018-.966-.2-1.319c-.244-.393-.9-.5-1.189-.855s-.388-.9-.726-1.212a11 11 0 0 0-1.052-.934c-.377-.261-.972-.173-1.382-.381s-.676-.781-1.111-.931-.995.132-1.447.042a10 10 0 0 0-1.336-.348 11 11 0 0 0-1.362.006c-.451.026-.961-.228-1.407-.147s-.806.6-1.24.731a3.7 3.7 0 0 0-1.289.759 3.8 3.8 0 0 0-1.158.949 4.3 4.3 0 0 0-.81 1.373 4.4 4.4 0 0 0-.036 1.636 12 12 0 0 0 .314 1.359 12 12 0 0 0 .732 1.2 11 11 0 0 0 .613 1.234 11 11 0 0 0 .921 1.022 12.3 12.3 0 0 0 2.079 1.708 10 10 0 0 0 1.26.612c.431.215.644.942 1.1 1.095a11 11 0 0 0 1.416.412 12 12 0 0 0 1.482-.087c.477.028.928-.405 1.407-.44s1.013.448 1.484.348a11 11 0 0 0 1.464-.171c.455-.119.634-.821.945-1.131a2.24 2.24 0 0 0 .541-1.113 2.06 2.06 0 0 0-.119-1.174 2.03 2.03 0 0 0-.487-1.068c-.318-.322-.455-1.007-.891-1.126a3.26 3.26 0 0 0-1.509-.13c-.021.006.144.662.122.667a13 13 0 0 1-1.319.135c-.111.022-.161.38-.272.4-.4.074.1-.4.1-.4-.233.043-.474.35-.712.341-.241.008-.481-.436-.724-.443-.123 0-.248.114-.372.105-.509-.035.18-.394.205-.359-.244-.079-.635.61-.891.578-.126-.035-.055-.83-.18-.871-.074-.025-.714.143-.384.3s-.14.061-.214.022-.011-.405-.1-.458c-.139-.083-.466-.153-.537-.3.1.211.252.237.026.033-.087-.078-.294-.019-.38-.1a8 8 0 0 1-.452-.628c-.416-.479.49.226.13-.291-.125-.179-.348-.262-.458-.448-.092-.161-.415-.191-.5-.358-.047-.093-.325-.068-.373-.157-.25-.5.837.3.653-.216-.123-.35-.975-.466-1.071-.827-.049-.179-.094-.352-.146-.53-.075-.251.266.23.266.208a1.06 1.06 0 0 1-.424.852c-.126.121-.287.494-.451.472.1-.021.1-.254.194-.3.179-.054.406-.011.588-.055.218-.053.5.223.723.183.042-.007-.05-.551-.007-.558.226-.035.322.576.094.61s-.252-.118-.025-.153c.087-.01.105.314.194.307a9 9 0 0 1 1.4-.141c.376.028.024-.171-.064-.282.09.031.078.416.172.422.284.06.569-.046.845.047.128.036.121.237.241.293-.491-.265.148-.613.248-.556.232.129.358.441.58.585.094.076.481-.13.587-.068-.046 0-.812-.043-.455.279.194.173.508.221.688.409.06.061.141.105.2.169s.122.125.173.19c.122.148-.144.251-.359-.026.154.191.685.148.807.363s-.248.687-.14.9c.047.093.7-.114.748-.025.2.416-.424-.264-.323.035.139.416.369.823.479 1.253.022.09-.148.23-.126.326.085.451.523.58.874.821a1.12 1.12 0 0 0 1.02.18c.451-.085.556-.246.8-.6s.488-.534.4-.985-.34-.594-.692-.834-.581-.462-1.033-.377a1.41 1.41 0 0 0-.949.541 1.6 1.6 0 0 0-.48 1.061 1.436 1.436 0 0 1 1.122-1.323 2.7 2.7 0 0 0-1.409 1.264c-.237.405-.792.745-.793 1.183a3 3 0 0 0 .58 1.31 2.56 2.56 0 0 0 1.04.81 2.73 2.73 0 0 0 2 .494c.1-.071-.15-.345-.146-.347"/></g></svg>