<svg xmlns="http://www.w3.org/2000/svg" xmlns:xlink="http://www.w3.org/1999/xlink" width="181.618" height="133.239" viewBox="0 0 181.618 133.239"><defs><clipPath id="a"><rect width="181.618" height="133.239" transform="translate(0 0.105)" fill="none"/></clipPath></defs><g transform="translate(0 -0.105)"><g clip-path="url(#a)"><path d="M65.073,41.376a1.51,1.51,0,0,0-.888-.812,28.952,28.952,0,0,0-3.636-.807,2.829,2.829,0,0,0-2.142.519L55.5,41.438a.169.169,0,0,1,0,.055c-.034.9-.11,2.39-.157,3.569a.6.6,0,0,1-.025.151l2.848-.1c.2.654,1.18,1.048,2.348.947a1.927,1.927,0,0,0,1.36-1.244,2.863,2.863,0,0,0-.062-2.111c.886.032,1.373.025,2.425-.006a.879.879,0,0,0,.915-.762,1.13,1.13,0,0,0-.079-.557Z" fill="#fefffd"/><path d="M76.832,131.766l.514.3,101.845-58.8-76.383-44.1L.963,87.963l75.869,43.8Z" fill="#fefffd"/><path d="M76.437,132.755c.256.152.311.054.568.2.3.174.431.265.735.091.445-.258.616.039,1.062-.218s.32-.475.765-.731.541-.089.986-.345.457-.234.9-.49.264-.569.708-.826.63.064,1.074-.193.392-.35.838-.607.392-.349.838-.606.488-.184.933-.441.492-.175.937-.432.26-.577.705-.834.723.223,1.169-.034.291-.525.737-.782.5-.171.94-.428.392-.351.838-.608.313-.487.759-.744.541-.09.985-.346.474-.2.918-.46.534-.1.979-.358.33-.459.777-.717.615.037,1.061-.22.185-.707.631-.965.479-.2.926-.461.71.2,1.156-.058.365-.4.811-.655.293-.521.738-.778.471-.218.919-.476.483-.2.931-.458.461-.24.91-.5.329-.47.778-.729.493-.172.937-.429.427-.286.871-.543.625.058,1.069-.2.447-.251.891-.508.45-.246.895-.5.345-.427.79-.684.423-.295.868-.552.593,0,1.038-.257.186-.708.632-.966.578-.029,1.025-.287.457-.241.9-.5.37-.393.818-.651.512-.145.959-.4.393-.35.839-.607.586-.015,1.032-.273.44-.266.886-.523.426-.292.872-.549.438-.271.884-.528.266-.569.713-.826.438-.273.885-.53.691.164,1.138-.1.23-.636.678-.895.581-.027,1.029-.285.565-.054,1.012-.312.245-.607.691-.865.393-.351.84-.609.7.175,1.145-.083.443-.266.891-.524.327-.469.775-.728.375-.385.823-.643.49-.183.938-.441.5-.164.949-.423.554-.077,1-.335.331-.462.779-.72.448-.26.9-.518.355-.42.8-.678.611.023,1.059-.236.432-.285.879-.543.327-.464.773-.722.427-.293.874-.551.539-.1.988-.362.4-.35.844-.609.512-.147.96-.4.34-.45.789-.71.446-.264.895-.524.534-.11.982-.369.288-.535.736-.794.614.024,1.064-.235.471-.227.921-.487.33-.473.782-.734.473-.224.925-.485.594,0,1.038-.256.241-.611.687-.869.444-.261.89-.519.54-.1.987-.354.413-.315.859-.572.568-.046,1.013-.3.512-.142.958-.4.209-.667.655-.924.442-.262.888-.52.594,0,1.041-.26.4-.345.844-.6.554-.07,1-.327.235-.623.681-.88.715.207,1.161-.051.414-.315.861-.573.289-.532.736-.79.649.093,1.1-.165.142-.786.589-1.044.5-.169.945-.427.447-.255.893-.512.509-.145.954-.4.557-.065,1-.322.219-.656.666-.914.529-.116.976-.374.63.06,1.077-.2.48-.2.928-.462.316-.486.764-.745.306-.5.753-.76.541-.094.988-.352.453-.25.9-.509.516-.144.966-.4.37-.4.821-.659.5-.181.945-.444c.463-.281.873-1.051.592-1.514-.081-.134-.589.137-.724.055-.442-.257-.289-.52-.732-.776s-.6.008-1.037-.247-.23-.624-.673-.879-.667.133-1.11-.122-.3-.51-.738-.765-.493-.169-.936-.424-.34-.434-.783-.69-.523-.117-.966-.373-.318-.472-.761-.728-.4-.331-.844-.587-.49-.176-.934-.432-.582-.015-1.025-.271-.323-.463-.765-.719-.46-.224-.9-.479-.646.1-1.088-.156-.2-.671-.642-.926-.678.157-1.119-.1-.238-.606-.679-.861-.4-.331-.837-.586-.421-.288-.862-.543-.622.058-1.063-.2-.3-.5-.741-.755-.589,0-1.03-.255-.374-.373-.816-.628-.385-.355-.828-.611-.457-.231-.9-.487-.372-.382-.816-.638-.55-.074-.994-.33-.574-.031-1.017-.287-.25-.591-.693-.847-.644.094-1.087-.162-.412-.308-.854-.563-.456-.234-.9-.489-.394-.34-.837-.6-.345-.425-.788-.68-.622.054-1.066-.2-.281-.538-.725-.794-.455-.24-.9-.5-.607.026-1.051-.23-.438-.267-.881-.524-.238-.613-.681-.869-.5-.16-.943-.416-.426-.286-.87-.543-.588-.007-1.033-.264-.254-.587-.7-.844-.505-.151-.95-.408-.462-.224-.906-.48-.338-.441-.783-.7-.417-.305-.862-.562-.521-.124-.966-.381-.429-.285-.873-.541-.543-.088-.988-.344-.279-.544-.724-.8-.681.154-1.125-.1-.482-.188-.925-.444-.2-.687-.639-.943-.58-.025-1.026-.282-.366-.393-.811-.649-.517-.132-.962-.389-.463-.228-.909-.485-.34-.442-.785-.7-.539-.1-.984-.352-.539-.094-.983-.35-.243-.611-.69-.869-.669.125-1.116-.133-.177-.73-.626-.989-.447-.262-.9-.521-.7.19-1.148-.068-.427-.289-.872-.546-.463-.226-.908-.483-.186-.706-.631-.963-.653.1-1.1-.154-.406-.322-.85-.578-.536-.1-.979-.352-.181-.713-.625-.97-.476-.2-.923-.461-.525-.119-.97-.376-.576-.03-1.021-.287-.483-.194-.93-.452-.268-.567-.713-.824-.461-.23-.907-.488-.4-.325-.85-.582-.413-.317-.86-.576-.534-.108-.982-.367-.428-.3-.877-.555-.426-.3-.875-.559c-.3-.175-.606.165-.909.339-.44.254-.453.23-.893.484s-.6-.019-1.038.235-.466.21-.907.465-.226.627-.667.882-.5.156-.941.412-.566.041-1.008.3-.531.1-.973.356-.414.3-.855.556-.289.516-.73.771-.655-.117-1.1.137-.388.344-.829.6-.47.2-.911.457-.183.7-.624.955-.557.055-1,.31-.583.011-1.026.266-.423.29-.866.546-.278.539-.72.794-.565.043-1.006.3-.515.127-.957.382-.2.678-.639.933-.387.35-.829.6-.746-.27-1.189-.015-.36.4-.8.655-.4.324-.846.579-.53.1-.972.357-.394.339-.837.595-.287.524-.73.78-.435.27-.878.525-.406.319-.849.575-.483.187-.925.442-.51.142-.953.4-.4.321-.845.576-.381.358-.822.612-.574.027-1.016.282-.588.006-1.032.263-.183.7-.626.961-.635-.078-1.078.178-.367.389-.812.646-.571.034-1.015.29-.446.25-.89.506-.307.49-.749.746-.441.263-.886.52-.551.074-1,.331-.307.5-.753.758-.511.148-.957.406-.551.058-.989.311-.223.626-.661.879-.427.274-.866.527-.552.061-.991.314-.352.408-.793.662-.44.254-.881.508-.376.366-.816.62-.63-.078-1.069.176-.476.19-.915.444-.4.325-.836.579-.513.124-.952.378-.259.564-.7.817-.57.029-1.009.283-.359.393-.8.647-.416.3-.856.551-.443.252-.884.507-.576.019-1.017.274-.447.241-.887.5-.4.323-.84.577-.462.216-.9.47-.243.595-.684.849-.608-.036-1.049.219-.215.646-.656.9-.633-.079-1.074.176-.454.23-.9.485-.512.13-.953.384-.325.455-.767.71-.383.356-.824.61-.332.444-.772.7-.694-.183-1.135.072-.431.274-.872.529-.49.168-.93.422-.305.485-.745.739-.581.01-1.021.264-.349.416-.792.671-.448.242-.889.5-.427.279-.869.534-.349.417-.792.672-.386.351-.828.607-.659-.122-1.1.133-.322.461-.763.715-.348.421-.791.677-.42.3-.864.553-.465.222-.91.479-.425.291-.871.548-.7-.192-1.151.065-.4.337-.848.6-.463.232-.91.49-.241.614-.688.872-.45.251-.9.508-.591.007-1.038.265-.425.3-.873.554-.454.245-.9.5-.313.49-.759.748-.507.154-.954.412-.346.434-.794.692-.609-.025-1.055.233-.454.242-.9.5-.455.241-.9.5-.259.586-.707.845-.682-.149-1.129.109-.384.368-.831.626-.308.5-.757.762-.468.223-.916.481-.5.171-.945.429-.43.288-.877.546-.629-.053-1.078.206-.336.456-.786.715-.327.477-.778.737-.5.167-.953.431a.838.838,0,0,0-.372,1.207c.082.135.3.039.432.12.447.26.278.552.726.81s.427.293.875.552.6-.006,1.047.252.323.475.771.733.353.421.8.679.485.195.932.454.667-.119,1.115.139.415.315.864.574.194.7.643.958.509.153.958.412.641-.075,1.089.184.255.593.7.852.545.088.991.346.461.234.907.491.415.313.861.571.318.478.764.736.736-.246,1.182.011.38.371.826.629.414.311.86.569.27.562.716.82.444.262.89.519.456.241.9.5.713-.2,1.16.055.425.3.873.556.473.215.921.474.145.785.594,1.044.565.059,1.014.319.609-.018,1.057.24.21.672.658.93.651-.093,1.1.166.34.445.787.7.416.313.863.572.577.034,1.025.292.465.229.913.487.387.364.836.623.526.126.975.385.441.276.891.535.409.328.858.588.32.483.768.742.642-.075,1.09.184.306.5.754.764.4.341.851.6.454.251.9.511.61-.019,1.06.241.361.414.81.673.384.371.834.63.506.161.955.42.586.024,1.036.284.392.36.842.62.353.427.8.687.339.451.789.711.541.1.991.363.528.122.976.381.409.327.857.585.379.379.828.638.621-.034,1.072.226.37.4.82.657.495.181.945.44.286.546.737.807.454.254.9.514.392.361.842.621.659-.1,1.108.157.308.51.76.77.481.212.933.473.435.295.889.557.631-.046,1.085.216c.438.253.187.686.625.939s.573.019,1.011.272.353.4.791.65.459.213.9.465.446.24.884.493.369.369.805.621.594-.022,1.03.23.46.212.9.464.359.39.8.643.435.257.873.51.321.454.759.707.449.236.888.489.511.129.949.382.437.256.875.509.435.255.873.508.444.246.883.5.463.216.9.47.336.438.778.693.463.221.907.472c.473.255.96-.259,1.215-.732.243-.449.467-1.135.035-1.408s-.573-.049-1.02-.308-.385-.367-.832-.626-.44-.272-.887-.53-.583-.025-1.03-.283-.547-.088-.994-.346-.376-.384-.824-.642-.35-.428-.8-.687-.365-.4-.814-.661-.454-.25-.9-.509-.476-.212-.924-.471-.53-.118-.978-.377-.515-.143-.963-.4-.316-.483-.763-.741-.513-.142-.96-.4-.517-.134-.964-.391-.325-.466-.771-.723-.423-.3-.869-.555-.518-.133-.963-.39-.405-.329-.851-.586-.51-.146-.956-.4-.512-.145-.958-.4-.408-.324-.854-.582-.446-.26-.893-.518-.441-.269-.889-.528-.533-.111-.981-.37-.361-.412-.81-.671-.444-.269-.893-.529-.265-.576-.714-.835-.733.236-1.181-.022-.407-.33-.854-.589-.381-.373-.829-.632-.51-.149-.957-.408-.428-.293-.875-.551-.315-.489-.763-.747-.433-.285-.882-.544-.553-.079-1-.338-.376-.388-.826-.647-.484-.2-.933-.459-.565-.057-1.014-.316-.407-.331-.855-.59-.329-.465-.778-.724-.539-.1-.988-.362-.381-.378-.83-.638-.383-.377-.833-.637l-.9-.517c-.449-.259-.455-.249-.9-.508s-.679.138-1.128-.122-.24-.622-.69-.882-.594-.011-1.044-.271-.524-.13-.974-.389-.17-.744-.62-1-.5-.171-.952-.431-.585-.022-1.034-.281-.341-.443-.789-.7-.384-.372-.833-.631-.684.144-1.135-.117-.185-.718-.634-.977-.639.066-1.088-.193-.353-.431-.805-.691-.538-.108-.989-.368-.542-.1-.992-.36-.272-.568-.721-.828-.65.083-1.1-.177-.342-.454-.794-.715-.308-.515-.762-.776-.7.165-1.154-.1c-.438-.253-.246-.585-.684-.837s-.635.089-1.073-.164-.3-.488-.739-.741-.507-.129-.944-.381-.212-.644-.65-.9-.73.256-1.166,0-.347-.407-.783-.659-.236-.6-.673-.85-.644.1-1.083-.151-.5-.143-.938-.4-.4-.323-.835-.576-.479-.184-.919-.438-.393-.331-.831-.584-.286-.518-.724-.771-.648.113-1.085-.139-.264-.559-.7-.812-.606.033-1.047-.221-.367-.383-.809-.638-.353-.779-.831-.6c-.393.147-.282.42-.282.84s-.12.719.272.866c.475.179.4-.376.836-.63s.631.077,1.071-.177.238-.605.679-.86.412-.3.853-.559.546-.077.988-.332.468-.209.911-.465.465-.214.906-.469.422-.287.864-.542.286-.522.727-.776.625.065,1.066-.189.273-.544.714-.8.607.035,1.048-.22.391-.34.832-.6.5-.148.945-.4.48-.189.922-.444.189-.695.632-.951.65.1,1.093-.151.442-.254.884-.509.294-.51.735-.765.658.121,1.1-.134.4-.334.838-.59.368-.384.811-.64.476-.2.919-.455.527-.109.969-.364.167-.732.609-.987.525-.112.967-.368.414-.307.857-.563.512-.136.955-.392.593,0,1.035-.251.317-.474.76-.73.289-.522.732-.778.538-.088.979-.343.606.03,1.047-.225.251-.586.693-.841.374-.376.818-.632.428-.281.871-.537.464-.22.907-.475.517-.131.961-.387.476-.2.92-.456.557-.059,1-.315.391-.344.834-.6.551-.074,1-.33.36-.4.806-.662.368-.393.815-.651.41-.322.856-.58.614.051,1.052-.2.376-.36.815-.613.351-.406.79-.66.5-.145.942-.4.427-.277.867-.532.382-.357.822-.611.441-.252.881-.506.543-.074.983-.327.427-.275.866-.528.423-.281.862-.534.324-.452.763-.706.581-.006,1.02-.259.229-.619.668-.872.481-.184.92-.437.647.1,1.088-.152.339-.432.78-.686.422-.287.862-.542.5-.155.937-.409.32-.462.76-.716.46-.219.9-.473.647.1,1.087-.149.42-.292.861-.546.359-.4.8-.653.5-.154.939-.408.218-.641.658-.9.672.145,1.112-.109.188-.695.629-.949.618.051,1.06-.2.357-.4.8-.653.491-.168.933-.422.541-.082.982-.337.411-.305.851-.559.344-.418.784-.672.534-.092.974-.346.487-.176.929-.432.3-.5.738-.759.352-.41.793-.665.615.044,1.058-.212.476-.195.918-.45.384-.355.825-.61.418-.294.859-.548.538-.092.981-.348.236-.616.68-.872.457-.236.9-.493.629.061,1.074-.2.514-.14.96-.4.263-.575.71-.833.617.035,1.064-.223.27-.565.717-.823.378-.375.825-.632.417-.31.863-.568.626.052,1.074-.206.467-.224.914-.482.351-.424.8-.682.341-.442.788-.7.628.054,1.075-.205.289-.529.735-.786.661.116,1.107-.141.47-.215.916-.472.3-.509.752-.768.424-.3.871-.557.618.038,1.065-.22.273-.562.722-.821.436-.28.884-.538.412-.321.859-.579.675.138,1.122-.12.27-.569.719-.829.5-.167.953-.427.433-.291.884-.551,1.247-.02,1.17-.535c-.072-.484-1.388-.489-1.477-.007-.093.5.72.243,1.163.5s.448.246.891.5.541.086.983.341.251.588.693.843.439.263.881.519.358.4.8.658.518.126.96.382.374.376.817.632.615-.042,1.058.214.312.485.755.741.683-.158,1.127.1.227.63.67.886.486.18.928.436.34.432.781.687.578.019,1.02.274.36.4.8.65.518.121.959.376.362.391.8.646.662-.129,1.1.125.179.708.62.962.687-.171,1.128.084.384.353.825.608.347.419.789.674.313.478.755.733.532.1.975.356.584.012,1.027.268.5.169.939.425.246.6.69.856.375.376.818.632.612-.037,1.055.219.5.163.939.419.216.647.659.9.691-.176,1.134.08.265.562.708.818.368.385.811.641.494.167.938.423.394.343.838.6.535.1.98.356.449.248.894.5.452.241.895.5.64-.084,1.083.172.321.468.765.724.418.3.862.558.561.053,1.006.31.331.454.776.711.343.432.787.689.546.081.99.337.384.361.828.617.491.177.936.434.426.291.871.548.6-.016,1.046.241.324.466.768.723.544.086.99.343.47.209.914.465.3.5.743.76.541.087.985.343.3.505.749.762.375.377.82.634.451.246.9.5.452.246.9.5.62-.045,1.065.212.387.357.833.615.563.051,1.007.307.277.553.723.811.64-.074,1.087.184.368.4.817.658.53.119.978.378.3.516.742.773.481.195.926.452.332.452.777.709.527.116.972.373.551.074,1,.332.469.211.913.468.462.223.906.479.284.534.728.79.3.509.747.766.713-.207,1.158.05.43.284.875.541.2.681.649.939.683-.153,1.129.1.247.6.693.858.582.02,1.026.276.482.2.929.457.517.138.965.4.242.619.691.878.453.489.942.315c.394-.14-.255-.34-.255-.759s.755-.915.36-1.055c-.488-.174-.676.216-1.125.475s-.317.488-.765.747-.5.179-.943.438-.381.373-.829.631-.508.151-.955.409-.5.159-.95.416-.257.586-.7.844-.383.368-.829.626-.482.194-.928.452-.681-.149-1.127.109-.316.484-.762.742-.5.174-.942.431-.513.144-.96.4-.391.356-.838.615-.291.53-.739.788-.578.035-1.027.294-.548.088-1,.348-.386.369-.835.629-.238.625-.687.884-.481.2-.929.462-.41.324-.858.583-.64-.075-1.088.184-.532.113-.979.372-.233.632-.681.89-.6-.007-1.05.252-.294.527-.743.786-.661-.108-1.111.152-.194.7-.644.964-.606-.012-1.055.248l-.9.517c-.449.259-.527.124-.976.383s-.295.526-.744.785-.519.139-.968.4-.574.045-1.023.305-.437.284-.888.544-.3.522-.747.782-.6,0-1.052.254-.335.459-.785.718-.556.077-1.006.337-.433.291-.883.551-.481.205-.931.465-.409.332-.859.592-.382.378-.833.638-.325.474-.774.733-.7-.172-1.145.087-.384.373-.833.632-.251.608-.7.868-.6,0-1.051.259-.272.568-.722.828-.705-.177-1.157.083-.432.293-.883.553-.313.5-.764.758-.413.323-.863.583-.537.114-.989.375-.495.189-.947.451-.278.569-.732.831-.589.027-1.044.289-.379.38-.827.639-.668-.12-1.118.14-.415.321-.865.58-.187.716-.637.976-.695-.165-1.145.094-.475.215-.924.474-.309.5-.758.76-.435.282-.883.541-.325.475-.773.734-.65-.09-1.1.169-.367.4-.816.661-.431.292-.88.552-.4.348-.85.608-.538.109-.989.369-.32.486-.77.746-.656-.1-1.106.163-.309.5-.759.761-.445.267-.9.526-.662-.107-1.112.152-.425.3-.876.565-.486.2-.937.46-.464.236-.914.5-.215.669-.665.928-.679-.136-1.13.124-.439.28-.89.541-.269.576-.72.836-.443.273-.894.533-.479.212-.93.472-.571.054-1.022.314-.453.255-.9.514-.377.385-.826.645-.481.205-.931.465-.261.591-.713.852-.579.038-1.03.3-.553.083-1,.343-.209.683-.661.944-.729-.219-1.181.041-.361.417-.812.677-.42.313-.871.574-.486.2-.939.464-.525.139-.978.4-.479.221-.934.484-.193.716-.648.978-.7-.166-1.158.1-.214.68-.67.943-.662-.09-1.12.174-.28.57-.736.834-.69-.139-1.146.125-.419.333-.877.6-.292.551-.75.815-.573.062-1.03.326-.294.545-.75.809-.693-.14-1.151.125-.43.317-.89.582-.522.16-.982.426-.72.255-.662.784c.054.487.522.373.934.107.25-.161-.436-.036-.695-.182-.473-.255-1.065-.358-1.32.114a1.324,1.324,0,0,0,.421,1.523c.09.02.129-.332.131-.331" fill="#0d4b08"/><path d="M80.813,67.751l9.38,5.416a.543.543,0,0,1,0,1.028l-3.524,2.034a1.966,1.966,0,0,1-1.78,0l-9.38-5.416a.543.543,0,0,1,0-1.028l3.523-2.034a1.968,1.968,0,0,1,1.781,0" fill="#407b3e"/><path d="M102.933,34.062l11.183,6.457a.461.461,0,0,1,0,.873l-4.284,2.473a1.671,1.671,0,0,1-1.512,0L97.137,37.408a.461.461,0,0,1,0-.873l4.284-2.473a1.671,1.671,0,0,1,1.512,0" fill="#407b3e"/><path d="M62.705,54.035c.441.254.369.378.809.633s.59,0,1.031.251.308.487.75.742.436.263.878.518.342.425.782.679.581.011,1.022.266.3.505.736.759.52.117.961.372.493.165.934.42.559.053,1,.308.495.162.937.416.182.7.623.958.691-.178,1.133.076.386.351.828.606.208.661.65.916.452.236.894.491.582.012,1.024.267.374.374.816.629.488.171.929.426.368.378.808.632.642-.1,1.083.16.236.613.679.869.581.013,1.023.268.508.14.95.4.18.711.623.967.617-.047,1.06.209.45.242.892.5.529.1.971.358.463.223.906.479.262.573.706.83.509.147.955.4.408.323.854.58.347.395.779.644.627-.086,1.06.164.489.153.921.4.251.564.683.813.455.209.886.458.534.076.967.327.49.154.924.4.383.343.819.594.36.99.829.809c.391-.151-.155-.559-.155-.978s.525-.773.135-.926c-.466-.182-.527.233-.96.483s-.251.561-.683.81-.615-.071-1.046.178-.378.342-.81.591-.38.342-.814.592-.475.176-.907.426-.48.168-.913.418-.248.571-.682.822-.711-.231-1.145.019-.278.518-.711.768-.482.163-.914.412-.381.344-.815.595-.3.481-.738.732-.533.085-.969.337-.985-.093-.88.4.964.517,1.062.036c.1-.5-.618-.192-1.057-.446s-.27-.547-.709-.8-.7.2-1.14-.058-.408-.309-.848-.563-.175-.71-.614-.964-.519-.113-.958-.367-.591.011-1.03-.243-.416-.293-.855-.547-.406-.314-.846-.568-.428-.274-.869-.528-.56-.044-1-.3-.391-.338-.83-.591-.457-.224-.9-.478-.259-.568-.7-.822-.438-.259-.878-.513-.434-.264-.874-.518-.539-.083-.979-.338-.463-.216-.9-.47-.291-.51-.73-.763-.7.2-1.137-.056-.307-.482-.746-.735-.431-.272-.872-.527-.518-.12-.958-.374-.375-.367-.815-.621-.5-.163-.936-.418-.3-.5-.742-.751-.445-.246-.886-.5-.46-.22-.9-.474-.45-.242-.892-.5-.622.055-1.065-.2-.453-.242-.9-.5-.2-.678-.644-.935-.655.126-1.093-.127-.305-.484-.743-.738-.32-.457-.758-.71-.64.1-1.077-.156-.491-.159-.928-.412-.189-.687-.628-.941-.444-.246-.884-.5-.563-.045-1-.3-.509-.133-.953-.382a.81.81,0,0,0-1.195.305.975.975,0,0,0,.257,1.293c.435.26.335.435.773.688s.557.052,1,.305l.881.508c.439.254.532.093.971.347s.277.535.716.788.454.227.892.48.558.047,1,.3.46.218.9.472.349.411.789.665.493.162.933.416.375.366.815.62.549.063.988.317.443.248.883.5.354.4.795.656.6-.022,1.04.232.275.538.715.792.421.288.861.542.563.042,1,.3.418.29.857.543.289.511.728.764.643-.1,1.082.153.443.251.884.505.347.416.787.67.473.2.913.451.319.466.761.721.374.37.815.625.676-.155,1.117.1.443.249.882.5.295.511.737.766.493.168.935.424.336.444.78.7.654-.109,1.1.148.17.718.608.971.472.2.911.449.6-.02,1.035.234.236.6.675.856.742-.275,1.18-.023.388.343.828.6.439.257.88.512.377.366.819.621.33.448.772.7c.3.175.6-.222.9-.4.433-.25.515-.108.948-.358s.615.069,1.046-.18.463-.194.894-.442.3-.477.731-.726.293-.494.727-.744.527-.087.959-.337.438-.24.87-.49.5-.136.935-.386.353-.389.786-.639.477-.174.91-.424.585.015,1.017-.235.15-.743.585-.994.588.014,1.023-.237.285-.516.721-.768.651.119,1.086-.136c.463-.281.286-.883.006-1.346-.082-.136.051-.406-.085-.488-.44-.255-.491-.167-.931-.421s-.338-.433-.779-.688-.522-.116-.964-.372-.317-.47-.758-.725-.4-.329-.838-.584-.487-.174-.927-.428-.58-.014-1.02-.268-.321-.462-.762-.716-.459-.225-.9-.48-.646.1-1.088-.156-.2-.671-.642-.926-.679.157-1.12-.1-.238-.607-.679-.861-.4-.333-.84-.588-.422-.289-.864-.544-.622.058-1.064-.2-.3-.5-.742-.755-.589,0-1.032-.255-.372-.373-.812-.627-.383-.353-.823-.607-.455-.231-.9-.485-.37-.381-.813-.636-.547-.073-.989-.328-.572-.03-1.014-.285-.249-.591-.693-.847-.644.094-1.086-.161-.412-.308-.854-.564-.454-.232-.9-.487-.395-.341-.839-.6-.347-.426-.791-.682-.625.053-1.071-.2-.283-.539-.728-.8-.442-.232-.874-.481-.6.033-1.029-.217-.426-.26-.859-.51-.226-.606-.658-.856-.487-.152-.918-.4-.416-.281-.85-.531-.578,0-1.013-.252-.244-.581-.68-.833-.494-.15-.932-.4a1,1,0,0,0-1.335.426,1.193,1.193,0,0,0,.235,1.47c.017.01.112-.222.114-.221" fill="#0d4b08"/><path d="M138.813,68.908c.293.169.482.507.775.676s.515.459.808.628.726.094,1.018.263.549.4.841.571.658.213.95.382.361.728.653.9.716.111,1.009.28.45.573.742.742.732.084,1.025.253.558.386.85.555.517.457.81.626.7.135.994.3.514.462.807.631.734.081,1.026.25.452.57.744.739.581.346.874.515.486.508.779.677.726.095,1.018.264.441.589.733.758.665.2.957.37.637.249.93.418.7.136.994.305c.442.256.5.162.938.418s.183.7.624.957.694-.176,1.137.08.389.352.833.609.212.663.657.92.456.244.9.5c.473.255,1.178-.159,1.433-.632a1.072,1.072,0,0,0-.259-1.378c-.3-.173-.649-.265-.949-.438s-.528-.471-.827-.644-.8,0-1.1-.17-.393-.705-.693-.878-.739-.1-1.039-.277-.666-.231-.965-.4-.337-.8-.637-.975-.774-.044-1.073-.217-.608-.333-.907-.506-.688-.194-.987-.367-.619-.313-.919-.487-.416-.662-.716-.835-.663-.237-.963-.41-.562-.411-.861-.584-.516-.492-.815-.665-.794-.011-1.093-.184-.656-.249-.956-.422-.418-.66-.717-.834-.623-.305-.923-.479-.7-.173-1-.346-.655-.25-.954-.423-.547-.438-.847-.611c-.482-.278-.311-.575-.794-.853s-.61-.062-1.1-.342-.388-.449-.874-.729-.475-.3-.962-.584-.661.026-1.152-.248c-.476-.249-1.06-.334-1.309.142-.231.443.106.921.524,1.195" fill="#0d4b08"/><path d="M110.477,69.7c.437-.245.431-.257.865-.507s.51-.12.945-.371.445-.237.882-.489.394-.323.829-.575.411-.294.847-.545.267-.546.7-.8.569-.022,1.006-.274.357-.388.793-.64.534-.079.97-.33.507-.131.945-.384.3-.5.736-.749.476-.19.916-.443.369-.37.805-.631c.452-.289.909-.908.62-1.36a1.3,1.3,0,0,0-1.531-.2c-.437.245-.57.016-1,.266s-.288.505-.723.756-.464.2-.9.456-.5.132-.94.384-.319.453-.754.705-.509.128-.946.38-.288.51-.724.762-.57.02-1.006.271-.44.244-.875.495-.536.082-.974.334-.3.5-.736.749-.584,0-1.023.257-.366.385-.8.646a1.127,1.127,0,0,0-.251,1.476,1.047,1.047,0,0,0,1.326.362" fill="#0d4b08"/><path d="M71.416,48.259c.443.257.4.336.841.591s.465.219.909.475.638-.075,1.084.183.539.093.984.349.281.542.726.8.606-.02,1.053.237.24.614.685.871.613-.033,1.059.224.335.445.78.7.538.1.985.357.484.2.931.455.386.369.834.628.306.508.754.767.519.144.971.4.305.513.756.774.523.137.974.4.5.184.948.445.371.4.821.657.518.142.967.4.618-.03,1.068.23.427.306.88.567.449.265.9.526.418.318.869.579.338.461.791.723.657-.093,1.109.168.29.541.742.8.5.171.954.431.378.393.831.655.455.26.91.522.339.464.8.727.575.054,1.031.317.456.245.9.5.452.253.9.512.373.391.822.65.44.274.888.533.49.187.939.446.474.216.923.475.617-.035,1.064.223.314.488.761.746.527.122.974.38.351.432.8.692.379.38.827.639.59.016,1.038.275.413.324.863.584.522.135.971.395.224.649.673.908.579.033,1.027.292.315.5.766.755.6.007,1.049.267.425.31.878.571.383.381.836.642.556.051,1,.305.367.377.806.631.588,0,1.026.249.305.485.744.739.435.261.874.515.339.423.776.676.578.009,1.015.262.293.5.731.756.519.116.959.37.49.165.929.418.556.051,1,.305.494.16.934.415.181.7.621.956.689-.18,1.128.074.383.349.822.6.207.66.647.914.453.236.894.491.583.013,1.026.268.374.375.817.63.485.17.921.422.365.376.8.628.639-.1,1.076.155.232.612.671.865.577.011,1.015.263.505.138.943.391.176.709.616.963.613-.049,1.052.2.446.24.884.493.526.1.963.353.459.221.9.475.258.571.7.825.506.146.947.4.4.319.847.574c.534.309.448.462.985.765.474.251.99-.19,1.241-.664.237-.447.1-.651-.321-.924s-.257-.567-.7-.823-.467-.217-.911-.473-.545-.085-.991-.342-.5-.161-.945-.418-.392-.349-.837-.606-.274-.554-.721-.812-.571-.04-1.016-.3-.348-.426-.793-.683-.431-.28-.876-.536-.627.054-1.073-.205-.263-.578-.71-.837-.5-.166-.951-.426-.5-.167-.951-.427-.408-.334-.86-.6-.4-.342-.855-.6-.637.06-1.088-.2-.174-.741-.626-1-.605.008-1.055-.252-.4-.347-.849-.606-.5-.167-.955-.427-.585-.032-1.037-.293-.355-.428-.806-.689-.422-.313-.873-.574-.363-.417-.816-.678-.568-.061-1.02-.322-.282-.555-.734-.816-.711.19-1.162-.071-.422-.317-.875-.579-.191-.719-.645-.981-.536-.124-.991-.387-.608,0-1.063-.262-.425-.3-.873-.558-.415-.318-.864-.578-.437-.279-.886-.538-.569-.049-1.018-.308-.4-.343-.848-.6-.467-.229-.916-.488-.266-.573-.713-.831-.445-.262-.891-.52-.442-.269-.89-.527-.548-.089-1-.349-.47-.221-.919-.48-.3-.515-.749-.774-.711.19-1.161-.07-.317-.487-.767-.747-.439-.276-.888-.535-.526-.125-.974-.384-.385-.374-.836-.634-.5-.168-.956-.429-.313-.5-.765-.765-.458-.252-.91-.514-.459-.219-.9-.472-.447-.241-.886-.494-.618.057-1.057-.2-.447-.239-.886-.492-.195-.676-.634-.93-.656.125-1.094-.127-.3-.484-.74-.736-.32-.458-.758-.71-.641.1-1.081-.159-.493-.16-.932-.414-.188-.687-.627-.941-.445-.246-.885-.5-.561-.043-1-.3-.513-.128-.952-.381-.4-.329-.833-.582-.386-.349-.827-.6-.337-.436-.778-.691-.56-.053-1-.309l-.885-.511c-.437-.252-.53-.091-.967-.343s-.273-.534-.709-.786-.453-.226-.89-.478-.558-.047-1-.3-.458-.217-.9-.47-.347-.41-.785-.663-.493-.162-.932-.416-.374-.365-.813-.618-.548-.063-.987-.316-.44-.247-.878-.5-.354-.4-.794-.656-.6.022-1.041-.232-.278-.539-.72-.794-.422-.289-.864-.544c-.534-.309-.657-.1-1.191-.4a.712.712,0,0,0-1.11.259c-.272.465-.35,1.172.114,1.444" fill="#0d4b08"/><path d="M124.213,77.864c.453-.262.37-.406.822-.668s.694.154,1.149-.108.456-.258.909-.52.238-.634.69-.9.561-.071,1.014-.332.519-.145.972-.406.53-.132.984-.394.25-.615.7-.877.619.025,1.073-.236.5-.184.955-.446.433-.3.888-.562.261-.6.716-.857.359-.426.812-.687.619.022,1.076-.241.295-.542.752-.805.663.092,1.122-.172.291-.546.744-.817c.452-.29.692-.691.4-1.143-.274-.426-.726-.409-1.172-.172-.457.257-.416.323-.869.585s-.517.152-.972.414-.6.013-1.051.275-.386.377-.839.638-.6.009-1.048.269-.383.385-.834.646-.411.339-.866.6-.532.125-.987.387-.386.378-.84.64-.287.553-.742.816-.48.218-.935.48-.457.258-.91.52-.486.2-.941.465-.57.063-1.027.326-.251.618-.708.882-.618-.017-1.076.248-.41.346-.863.617a.982.982,0,0,0-.4,1.324,1.112,1.112,0,0,0,1.376.359" fill="#0d4b08"/><path d="M121.013,40.386c-.453.25-.474.21-.923.469s-.526.123-.975.383-.385.37-.835.629-.421.308-.871.568-.323.478-.772.737-.643-.077-1.092.182-.4.344-.849.6-.478.21-.928.47-.381.378-.831.638-.611-.021-1.06.238-.406.336-.855.6-.425.3-.874.564-.454.249-.9.508-.349.428-.8.687-.365.4-.814.662-.69-.155-1.141.1-.452.255-.9.515-.234.633-.684.892-.561.07-1.012.331-.517.144-.967.4-.526.129-.976.389-.246.611-.695.871-.617-.026-1.068.234-.5.182-.951.443-.432.3-.885.561-.262.595-.715.857c-.414.238-.32.4-.733.641s-.578-.046-.991.192-.253.516-.665.754-.621-.117-1.036.122-.248.531-.663.77-.526.052-.942.293-.327.39-.739.637c-.452.29-.46.584-.171,1.036.273.426.538.594.985.357.451-.254.59-.01,1.038-.268s.382-.376.83-.635.6-.007,1.045-.266.378-.383.828-.643.4-.336.854-.595.528-.122.977-.381.381-.377.83-.636.282-.55.732-.809.475-.216.925-.475.452-.255.9-.515.483-.2.933-.461.565-.06,1.015-.32.243-.613.692-.872.609.022,1.057-.237.4-.348.845-.607.526-.13.977-.39.448-.262.9-.521.566-.059,1.015-.319.331-.469.782-.729.442-.274.893-.534.446-.266.9-.525.525-.128.974-.388.461-.245.912-.506.411-.333.863-.594.429-.305.882-.567.284-.555.738-.817c.414-.239.546-.009.96-.248s.334-.375.748-.614.512-.066.925-.3.485-.117.9-.357.274-.484.69-.723.454-.177.871-.417.347-.352.757-.6c.444-.3.881-.933.578-1.376-.273-.4-1-.3-1.431-.086" fill="#0d4b08"/><path d="M154.623,83.063c-.461.267-.624-.015-1.086.251s-.3.547-.762.814-.451.288-.914.556-.706-.153-1.169.115c-.506.292-.425.433-.93.725s-.6.145-1.094.453a1.231,1.231,0,0,1-1.33.268c-.379-.21-.785-.375-1.161-.591-.2-.113-.563-.477-.792-.486-.011,0-.246-.141-.255-.138a1.636,1.636,0,0,1-.052.283c-.082.292.026.231.135.127.007,0,.185.2.191.2.048,0,.1-.148.138-.175.376-.219.258-.423.634-.641.458-.264.555-.1,1.012-.36s.453-.276.913-.541.635.037,1.1-.229.428-.324.89-.59.443-.307.894-.591c.219-.189.464-.1.739-.134s.455-.147.713-.016c.421.234,1.04.116,1.457.357.191.11.17.581.359.694.041.03.184-.135.23-.115.266.079.085-.838-.139-.691-.33.221-.045.733-.029,1.046.017.341-.177.844.1,1.022s.568-.185.915-.417a1.15,1.15,0,0,0,.686-.75c.122-.38.5-.827.3-1.21-.107-.207-.494-.218-.68-.359a8.936,8.936,0,0,0-1.063-.657c-.275-.159-.517-.369-.787-.517s-.5-.438-.788-.545a3.616,3.616,0,0,0-.954-.092,3,3,0,0,0-.914.128c-.338.117-.542.477-.859.639s-.805,0-1.1.209c-.476.289-.432.363-.914.642s-.513.23-1,.509-.416.4-.9.678c-.313.18-.79.074-1.1.251s-.583.436-.889.628a1.782,1.782,0,0,0-.764,2.227c.147.226.475.307.678.479s.509.165.756.272c.3.234.375.854.707,1.031a6.964,6.964,0,0,0,1.073.461c.358.117.8-.218,1.178-.164.288-.026.565.142.841.065a5.443,5.443,0,0,0,1.7-.51c.415-.254.212-.592.633-.835s.587.044,1.008-.2.469-.165.892-.41.4-.282.826-.526.233-.578.658-.824.33-.4.751-.651c.452-.29.758-.635.469-1.087-.273-.426-.585-.4-1.032-.164-.075.121-.107.08-.11.082" fill="#0d4b08"/><path d="M145.271,83.85c-.415-.241-.464-.158-.88-.4s-.412-.25-.829-.49-.42-.235-.837-.475c-.379-.219-.761-.43-1.138-.651-.438-.256-1.159-.494-1.189-.855a1.238,1.238,0,0,1,.323-.777,3.358,3.358,0,0,1,.984-.769,6.624,6.624,0,0,1,.945-.166,6.566,6.566,0,0,1,.918-.265c.305-.027.626.394.934.413.287,0,.591-.215.872-.164s.471.4.742.5.581.037.834.172c.271.152.5.37.771.526.482.278.684-.072,1.165.206s.377.463.859.742.351.512.836.786A1.174,1.174,0,0,0,152,81.613a1,1,0,0,0-.325-1.309c-.471-.28-.382-.436-.857-.71s-.725.155-1.2-.12-.314-.557-.79-.832c-.359-.207-.861-.143-1.232-.33a7.243,7.243,0,0,0-1.045-.387c-.37-.116-.629-.672-1.011-.732a8.448,8.448,0,0,0-1.184.068,8.56,8.56,0,0,0-1.122-.1,9.694,9.694,0,0,0-1.063.4,6.927,6.927,0,0,0-1.022.4,5.128,5.128,0,0,0-.964.5c-.308.21-.8.238-1.039.521a3.821,3.821,0,0,0-.642,1c-.109.331.355.749.374,1.086s-.176.7-.033,1.015a2.766,2.766,0,0,0,.652.78c.215.2.575.194.817.365s.375.477.64.612c.406.228.411.223.814.455s.228.536.632.77.438.176.843.41.436.182.843.412a1.356,1.356,0,0,0,1.624-.346,1.3,1.3,0,0,0-.464-1.489c-.069-.131.026-.185.024-.186" fill="#0d4b08"/><path d="M102.356,35.05c.447.258.428.293.874.552s.4.331.85.589.735-.244,1.181.014.154.767.6,1.026.6-.01,1.048.248.364.4.811.659.622-.048,1.068.209.3.519.746.778.6,0,1.048.258.269.575.718.835.468.231.917.491c.493.284.65.013,1.139.3.085.062.029.445.124.487.164.045-.112-.039-.151-.281-.013-.257.406-.253.419-.511.038-.232-.027-.121-.189-.075-.078.034-.2-.028-.272.022-.467.274-.288.582-.756.853-.545.314-.707.031-1.251.345s-.652.126-1.2.44c-.362.209-.646.588-1.1.461-.223-.09-.449-.044-.645-.184-.444-.268-.455-.256-.9-.516s-.6.005-1.055-.256-.368-.4-.819-.664-.482-.2-.931-.463-.313-.5-.763-.756-.493-.188-.945-.449-.484-.206-.935-.467-.552-.092-1.006-.354-.417-.325-.871-.587-.464-.235-.913-.495-.4-.345-.852-.6c-.174-.1-.295-.32-.475-.407-.255-.13-.253,0-.225.173.011.255.128.251.118.506-.025.162-.144.331.117.2.182-.093.387-.175.563-.278.411-.237.211-.584.62-.821s.651.18,1.061-.057c.371-.214.324-.3.694-.51s.376-.205.747-.419c.294-.169.432-.434.791-.26a1.362,1.362,0,0,0,1.154-.063c.291-.183.234-.683.259-1s-.036-.463-.414-.646a2.53,2.53,0,0,0-.933-.158,2.631,2.631,0,0,0-.957-.052,2.754,2.754,0,0,0-.831.506c-.365.224-.588-.151-.961.064s-.249.431-.622.646-.52-.042-.893.174c-.271.155-.458.457-.731.611s-.581.25-.842.419c-.354.193-.268.7-.373,1.06s-.283.651-.09,1c.146.265.217.686.489.818.293.182.686.185.98.363s.58.377.876.552.5.51.8.682.845-.087,1.144.083.439.624.739.794.761.057,1.061.227.614.317.916.487.361.761.66.932.679.2.978.372c.333.193.586.522.919.719s.774.21,1.109.4.7.322,1.043.5a2.367,2.367,0,0,0,.9.3c.334.036.707.3,1.029.219a5.122,5.122,0,0,0,.994-.328c.294-.147.33-.774.615-.947s.715-.112,1-.274c.345-.2.651-.469,1-.667s.577-.606.918-.812c.3-.154.619-.174.815-.45a1.229,1.229,0,0,0,.115-1.013c-.1-.358-.1-.912-.45-1.11-.015-.009-.056.045-.072.036-.28-.18-.6-.3-.893-.466s-.49-.493-.781-.655-.651-.2-.937-.362c-.428-.248-.638.116-1.067-.131s-.217-.613-.645-.86-.536-.061-.966-.309-.273-.519-.7-.767-.688.2-1.118-.043-.195-.649-.623-.9-.657.146-1.087-.1-.414-.279-.844-.527-.214-.625-.647-.875-.58.009-1.012-.241a.829.829,0,0,0-1.213.312.889.889,0,0,0,.3,1.271c.058.064-.109.17-.109.17" fill="#0d4b08"/><path d="M80.456,68.368c.462.27.247.638.71.905s.538.137,1,.4.442.308.907.576.448.3.914.567.609.022,1.076.292.411.365.878.635c.4.229.307.385.7.614s.418.194.815.424.477.095.875.325.43.176.829.406c.148.085.333.778.508.793.2.017.23-.909.03-.889-.038,0-.2-.226-.239-.212-.238.116-.273.624-.492.774-.455.271-.631-.03-1.089.234s-.456.28-.905.56a3.922,3.922,0,0,1-1.009.735c-.331.058-.674-.205-1.028-.407s-.621-.558-.881-.708c-.439-.254-.612.047-1.051-.207s-.4-.314-.842-.567-.338-.426-.776-.679-.615.056-1.053-.2-.421-.286-.86-.54-.473-.2-.914-.451-.458-.225-.9-.48-.221-.636-.663-.891a2.484,2.484,0,0,0-.922-.145c-.127.019-.093-1.065-.093.064,0,.655-.051.389.128.371s.511-.315.669-.406c.525-.3.635-.11,1.16-.413s.463-.41.988-.712a5.733,5.733,0,0,1,.7-.348c.251-.1.3-.07.571.066.356.177.682-.377.947-.544.289-.182.943-.247.966-.571s-.425-.643-.8-.829a3.385,3.385,0,0,0-.943-.467c-.336-.046-.663.313-1,.38s-.741-.1-1.037.08c-.313.175-.473.614-.783.794s-.8.046-1.111.225c-.247.143-.481.31-.731.451s-.347.553-.588.705c-.376.195-.908.319-1.027.693s.239.778.433,1.154c.144.278.095.8.373.948.308.2.77.138,1.084.329s.569.479.886.664.814.055,1.133.236.479.645.8.824.537.547.857.725.617.4.937.581.713.226,1.029.409c.3.17.591.339.885.513s.742.085,1.038.256.511.483.812.643a2.922,2.922,0,0,0,.929.253c.32.055.672.329.993.278a3.375,3.375,0,0,0,.948-.4c.238-.124.446-.316.678-.454s.365-.446.6-.579.592-.234.933-.417c.288-.155.573-.347.858-.536a4.417,4.417,0,0,0,.842-.566,1.726,1.726,0,0,0,.559-.9,1.671,1.671,0,0,0-.393-1.018,3.335,3.335,0,0,0-1.08-.651c-.371-.2-.278-.362-.642-.572s-.345-.247-.709-.457c-.466-.269-.667.079-1.133-.19s-.224-.685-.689-.954-.513-.186-.979-.455-.458-.277-.922-.545-.47-.263-.936-.532-.47-.265-.936-.534-.643.031-1.111-.239-.468-.267-.939-.532-.759-.093-1.01.382c-.237.446-.307.76.119,1.033.129.011.1-.108.11-.105" fill="#0d4b08"/><path d="M63.416,59c.453.259.661-.1,1.113.159s.457.257.911.519.254.612.709.875.477.228.933.491.537.125.993.388c.593.343.689.178,1.281.521.1.06.357.606.48.586.012,0,.051-.431-.044-.443-.075-.01-.183.075-.247.112-.341.2-.5-.072-.838.125s-.255.347-.6.544-.364.178-.714.38-.5-.035-.84.177c-.216.162-.286.742-.551.8-.286.027-.519-.534-.815-.707s-.624-.295-.851-.427c-.487-.28-.582-.116-1.068-.4s-.412-.412-.9-.693-.514-.236-1-.517c-.645-.372-.532-.56-1.172-.942-.254-.176-.743.08-1.022-.053-.026-.01.075-.469.047-.473-.237-.039-.13.733-.177.739.1-.038.247,0,.328-.066.355-.212.461-.033.819-.24s.168-.538.526-.745c.387-.223.566.088.953-.135s.422-.161.808-.384c.334-.193.653-.613,1.054-.414.356.177.706.3.97.136.29-.183.745-.568.768-.892s-.5-.5-.874-.687c-.283-.146-.488-.541-.794-.588a3.292,3.292,0,0,0-1-.057c-.306.052-.55.4-.831.555-.384.2-.927.135-1.3.352-.419.242-.235.561-.654.8s-.319.428-.744.661c-.39.19-.993.064-1.334.332a1.7,1.7,0,0,0-.378,1.168,1.569,1.569,0,0,0,.377,1.112,1.625,1.625,0,0,0,.41.349c.231.147.62.028.857.165.4.231.343.327.742.557s.31.387.709.618.422.2.822.428.479.1.879.328c.267.153.564.256.828.412s.3.711.563.864.711-.006.981.139c.361.2.71.617,1.112.649s.77-.43,1.158-.568c.392-.169.921-.066,1.28-.3.311-.18.6-.381.919-.558s.539-.513.851-.693.684-.257.988-.449a1.8,1.8,0,0,0,.909-.87c.123-.364-.215-.776-.4-1.148a1.329,1.329,0,0,0-.228-.429c-.243-.2-.4-.535-.68-.675-.425-.237-.6.066-1.019-.177s-.4-.275-.823-.518-.453-.186-.873-.428-.439-.215-.861-.458-.2-.626-.626-.87-.618.091-1.042-.154-.293-.472-.72-.712a1.079,1.079,0,0,0-1.415.361,1.109,1.109,0,0,0,.369,1.382.043.043,0,0,1-.014.076" fill="#0d4b08"/><path d="M177.489,72.83c.276-.163.412-.578.683-.766s.544-.362.8-.57.568-.358.8-.589.116-.758.316-1.013.66-.321.823-.6a6.093,6.093,0,0,0,.265-.948c.115-.3.512-.539.57-.862a5.584,5.584,0,0,0,.18-1.012c-.006-.375-.506-.7-.586-1.043s.053-.784-.1-1.114-.513-.545-.721-.846a7.814,7.814,0,0,0-.53-.974,9.785,9.785,0,0,0-.767-.8c-.277-.237-.819-.126-1.115-.335s-.592-.39-.9-.572-.6-.524-.906-.349c-.446.258-.426.293-.872.551s-.366.4-.813.654-.352.424-.8.682-.582.026-1.029.284-.329.462-.775.72-.483.194-.929.452-.6-.011-1.052.248-.363.409-.812.668-.464.237-.914.5-.591.025-1.037.292c-.452.29-.245,1,.045,1.451.273.426.739.895,1.186.658.449-.253.4-.345.845-.6s.352-.422.8-.68.523-.129.971-.388.421-.3.868-.562.561-.059,1.008-.317.213-.662.659-.92.673.131,1.121-.128.216-.663.665-.923.5-.167.955-.427,1.122.08,1.044-.434c-.074-.484-.516.168-.989.3a7.321,7.321,0,0,1,.829.379,8.7,8.7,0,0,1,.819.757c.277.258.707.379.926.679a4.254,4.254,0,0,1,.363,1.08c.128.345-.015.682-.009,1.071,0,.333.427.689.343.993s-.5.485-.667.765a4.7,4.7,0,0,1-.593.717c-.209.241-.247.643-.491.855s-.7.13-.962.313-.336.667-.6.825c-.464.27-.426.681-.155,1.146s.643.92,1.107.649c.149,0,.147.089.147.089" fill="#0d4b08"/><path d="M89.157,38.6c.45.26.445.269.9.529s.724-.213,1.175.047.382.38.834.64.462.242.913.5.265.583.716.843.566.061,1.017.322.379.385.831.646.662-.109,1.112.151.358.417.807.676.349.435.8.695.344.448.8.709.59.021,1.041.281.438.283.889.543.4.351.854.612.67-.118,1.122.143.28.558.731.818.537.112.987.373.294.538.747.8.4.347.858.609.684-.134,1.139.129.318.5.776.76a1.116,1.116,0,0,0,1.09-1.867c-.447-.266-.43-.3-.88-.559s-.66.1-1.11-.158-.455-.255-.906-.516-.25-.61-.7-.87-.471-.225-.922-.485-.531-.122-.982-.382-.547-.1-1-.357-.316-.492-.765-.752-.568-.055-1.017-.314-.413-.324-.863-.583-.3-.531-.749-.792-.537-.111-.988-.371-.438-.284-.889-.544-.32-.492-.772-.753-.707.181-1.159-.08-.221-.66-.672-.921-.5-.174-.951-.434-.549-.1-1-.359-.378-.392-.832-.654-.482-.217-.937-.479-.34-.469-.8-.726c-.474-.252-1.01.254-1.261.728-.237.447-.405,1.111.021,1.384" fill="#0d4b08"/><path d="M142.637,58.713a5.872,5.872,0,0,1-3.338-1.624c-1.755.262-3.714.342-4.953-.27A15.647,15.647,0,0,0,132,59.2a2.327,2.327,0,0,0-.159,2.078,2.255,2.255,0,0,0,1.574,1.137,5.2,5.2,0,0,0,2-.043,13.362,13.362,0,0,0,2.9-.834l.28-.113a1.43,1.43,0,0,0-.042.159,3.031,3.031,0,0,0,.092,1.4,2.134,2.134,0,0,0,1.3,1.228,4.105,4.105,0,0,0,2.283.079,12.3,12.3,0,0,0,3.226-1.226A3.768,3.768,0,0,0,147.18,61.7a2.8,2.8,0,0,0,.336-2.1,3.125,3.125,0,0,0-.529-1.159,5.392,5.392,0,0,1-1.051.225,13.958,13.958,0,0,1-3.3.038Z" fill="#fefffd"/><path d="M133.617,55.762c-.257.233-.428.576-.685.809s-.257.749-.505.992a4.642,4.642,0,0,0-.771.907c-.239.338-.6.573-.754.962a2.776,2.776,0,0,0-.076,1.1c.017.38-.265.869-.106,1.216s.676.475.959.741a2.678,2.678,0,0,0,2.081.7,3.7,3.7,0,0,0,1.09-.028c.316-.038.717.433,1.03.375s.65-.1.959-.176.55-.427.853-.526.521-.447.816-.566c.507-.156.607-.4.481-.92-.146-.515-.317-.6-.833-.466-.357.153-.742.231-1.11.349s-.752.279-1.13.361-.84-.285-1.224-.239c-.314.036-.624.287-.937.251.063.01-.171-.114-.182-.117-.035-.009-.338-.236-.191-.173-.117-.054-.132-.216-.239-.286s-.266.2-.193.249c-.048-.041-.192-.052-.236-.1-.075-.086-.032-.136.023-.064-.036-.052.221-.294.19-.35-.05-.1-.171-.213-.137-.142-.021-.065-.261.1-.276.032-.023-.118-.011-.058.007.031,0-.068.374-.223.374-.287.011-.12-.511-.137-.521-.05.011-.068.016-.2.033-.266.031-.189.261-.4.371-.553.036-.057.442-.056.257.158.043-.051.115-.072.16-.124.134-.153.1-.452.244-.6.278-.282.664-.448.956-.715s.3-.841.592-1.106c.386-.373.517-.682.144-1.067a.948.948,0,0,0-1.341-.167c-.008.008.259-.126.251-.118-.1-.116-.42-.037-.424-.034" fill="#0d4b08"/><path d="M138.91,58.871c-.286.231-.229.786-.437,1.076a3.725,3.725,0,0,0-.515.9c-.124.339-.424.633-.454.995s.277.675.345,1.036a2.762,2.762,0,0,0,.439.855,3.03,3.03,0,0,0,.564.818c.274.217.427.692.759.813s.744-.106,1.1-.094c.319.006.652.3.968.271s.589-.4.9-.464a8.786,8.786,0,0,0,.875-.347c.3-.092.792.316,1.085.192s.486-.491.765-.645c.349-.166.775-.2,1.1-.388s.433-.729.719-.973.856-.268,1.066-.594c.2-.306-.057-.826.042-1.224a3.364,3.364,0,0,0,.075-.9c-.006-.32.484-.722.4-1.036a4.311,4.311,0,0,0-.451-.932,3.474,3.474,0,0,0-.632-.818,3.162,3.162,0,0,0-.872-.644,1.439,1.439,0,0,0-1.443.925c-.131.515.376.872.885,1.025-.176-.067.173.1.228.168a2.444,2.444,0,0,0-.041.338,2.215,2.215,0,0,1,.323.618c.053.26-.336.5-.391.75s.164.612.008.827a4.252,4.252,0,0,1-.685.572c-.241.158-.445.444-.717.546-.328.171-.67.335-1.011.478s-.873-.22-1.226-.106a4.816,4.816,0,0,1-.908.179c-.321.047-.6.326-.928.314a2.014,2.014,0,0,1-1.327-.365,1.811,1.811,0,0,1-.3-.59,3.434,3.434,0,0,1-.039-.35,1.771,1.771,0,0,1,.077-.319,3.05,3.05,0,0,1,.328-.889c.158-.24.7-.183.935-.359a1.037,1.037,0,0,0-.173-1.406.888.888,0,0,0-1.287-.043c-.1.039-.152-.206-.154-.2" fill="#0d4b08"/><path d="M142.211,38.711q-.264.018-.534.033a66.569,66.569,0,0,1-8.485-.219v.151c.089,4.373.53,14.315.728,17.885,1.178.885,3.4.82,5.375.526,2.024,1.925,4.254,1.815,6.641,1.586a4.333,4.333,0,0,0,1.679-.511c.059-4.772.007-15.535-.287-20.213a34.325,34.325,0,0,1-5.122.762Z" fill="#407b3e"/><path d="M135.165,16.578a15.947,15.947,0,0,0-4.988,4.209,16.852,16.852,0,0,0-2.762,6.023,6.066,6.066,0,0,0,.14,3.718,4.469,4.469,0,0,0,1.432,1.656,2.455,2.455,0,0,0,2.7.533c.248,2.166.064,3.825.208,5.7a74.737,74.737,0,0,0,9.788.324,33.38,33.38,0,0,0,5.126-.681,1.721,1.721,0,0,0,1.372-1.683V29.72a6.74,6.74,0,0,0,2.2-7.34,10.12,10.12,0,0,0-1.134-2.4,7.949,7.949,0,0,0-1.288-1.441,9.361,9.361,0,0,0-3.351-1.755l-9.442-.2Z" fill="#fefffd"/><path d="M147.962,10.844a7.286,7.286,0,0,0-2.638-8.181,8.326,8.326,0,0,0-11.042,1.1,9.01,9.01,0,0,0,.044,11.535,7.618,7.618,0,0,0,10.75.735q.09-.078.177-.159" fill="#fefffd"/><path d="M147.993,6.371a7.123,7.123,0,0,0-2.67-3.708,8.325,8.325,0,0,0-11.041,1.1A8.325,8.325,0,0,0,132.44,7.45a14.674,14.674,0,0,0,6.2-.7.413.413,0,0,1,.33.029c.242.136-.05.664-.187.906a7.244,7.244,0,0,0,3.872-.653,3.91,3.91,0,0,0,2.078,2.448l3.226,1.369a7.313,7.313,0,0,0,.031-4.472Z" fill="#fefffd"/><path d="M138.769,39.529c0,.336.321.672.321,1.008s-.256.671-.256,1.007-.148.672-.148,1.008-.045.672-.045,1.008.111.672.111,1.008.272.671.272,1.007.01.672.011,1.008-.254.672-.253,1.008.07.672.071,1.008.206.671.207,1.007-.43.673-.429,1.009.428.67.429,1.006-.031.672-.029,1.008-.226.673-.224,1.009.3.669.3,1.005.053.671.056,1.007-.133.673-.129,1.009-.337.678-.333,1.014c.017.537.672.854,1.209.837.512-.017,1.132-.327,1.148-.839,0-.336-.343-.673-.347-1.009s-.132-.671-.135-1.007.545-.677.542-1.012-.251-.67-.253-1.006.154-.673.152-1.009-.4-.669-.4-1,.4-.674.4-1.01-.45-.67-.451-1.006-.025-.672-.026-1.008.54-.673.539-1.009S141,46.919,141,46.583s0-.672,0-1.008.087-.672.087-1.008-.143-.671-.143-1.007-.377-.672-.377-1.008-.04-.672-.04-1.008.212-.671.212-1.007-.088-.669-.088-1c-.017-.537-.341-1.222-.877-1.205-.512.017-.823.693-.839,1.205" fill="#0d4b08"/><path d="M131.935,38.685c.007.349.39.688.4,1.036s-.136.7-.125,1.051.153.693.165,1.042.016.7.028,1.046.035.7.048,1.045-.31.71-.3,1.059.176.691.191,1.04.316.685.33,1.034-.115.7-.1,1.051c.013.332-.133.67-.119,1s.388.647.4.978-.2.673-.188,1,.113.659.129.99-.172.672-.156,1,.091.682.108,1.024.354.682.371,1.025c-.019.306-.271.613-.244.918a6.755,6.755,0,0,0,.008.955,1.923,1.923,0,0,0,.83.883,4.921,4.921,0,0,0,1.115.263c.4.088.825-.131,1.122-.1s.591.025.893.029.606.252.908.237.6-.108.9-.142.552-.275.85-.327c.514-.146,1.085-.544.946-1.061-.155-.507-.86-.551-1.375-.424-.3.043-.636.056-.963.092-.309.035-.648-.168-.968-.157s-.658.3-.97.268a5.081,5.081,0,0,1-.992-.148c-.3-.1-.383-.534-.642-.717.154.458-.13.674.2,1.026-.02-.351.015-.839,0-1.19s.266-.717.247-1.067-.371-.684-.389-1.034-.162-.695-.179-1.046.516-.728.5-1.078-.279-.69-.3-1.04.127-.708.112-1.059-.425-.684-.44-1.035.376-.718.362-1.069-.475-.684-.489-1.034-.05-.7-.063-1.052.516-.721.5-1.072-.1-.7-.114-1.049-.022-.7-.033-1.052.068-.7.059-1.055-.161-.7-.169-1.048-.394-.692-.4-1.043c-.018-.536-.24-.706-.777-.688-.512.016-.892.193-.909.706-.073.124-.328-.019-.328-.018" fill="#0d4b08"/><path d="M140.1,59c.269.136.626.068.908.172a7.92,7.92,0,0,0,.83.342c.292.072.557.349.855.388s.626-.179.927-.174c.373.018.739-.08,1.111-.094s.779.31,1.149.261.745-.154,1.109-.237c.454-.091.806-.51,1.183-.78.441-.364.17-.828.174-1.341,0-.389.279-.778.281-1.167s-.061-.782-.06-1.173c0-.347.121-.693.121-1.04s-.358-.694-.358-1.041.059-.694.058-1.041.051-.693.049-1.04.267-.7.265-1.043.186-.7.183-1.043-.382-.69-.386-1.037.146-.7.141-1.042-.143-.692-.148-1.039-.005-.694-.011-1.041-.023-.693-.031-1.04c-.008-.37.321-.748.312-1.118s-.167-.735-.178-1.106-.31-.73-.324-1.1.116-.745.1-1.113.123-.748.1-1.119c-.023-.4-.479-.465-.757-.61-.3-.157-.588-.37-.88-.226a.793.793,0,0,0-.379.841c.019.334-.167.68-.15,1.015s.091.666.106,1,.349.656.361.992-.231.679-.221,1.014-.128.675-.119,1.01-.028.67-.021,1.005.124.668.13,1,.281.667.286,1,.018.671.021,1.007-.249.673-.246,1.008.072.671.074,1.006.206.67.207,1.006-.431.672-.431,1.007.425.67.425,1.006-.036.671-.036,1.005-.231.67-.231,1.005.295.648.294.969.046.647.044.97-.143.645-.146.967.014.787.009,1.109c.328-.354.1-.542.233-1.007a4.547,4.547,0,0,1-.821.143c-.3.08-.531.463-.836.493a5.736,5.736,0,0,1-.925.137c-.38.033-.739-.518-1.115-.55s-.766.147-1.133.049a6.458,6.458,0,0,1-.989-.528c-.355-.183-.69.209-.955.375-.288.182-.805.334-.826.66s.486.467.856.659c.038.034-.192.261-.19.262" fill="#0d4b08"/><path d="M144.355,17.69a7.338,7.338,0,0,1,1.066.275c.335.143.556.506.863.7a6.948,6.948,0,0,1,.783.725,6.693,6.693,0,0,1,.742.745,6.584,6.584,0,0,1,.582.872,6.686,6.686,0,0,1,.565.893,6.2,6.2,0,0,1,.542.935,5.916,5.916,0,0,1,.035,1.074,5.721,5.721,0,0,1-.1,1.041A5.793,5.793,0,0,1,149.382,26a6.333,6.333,0,0,1-.2,1.08,6.289,6.289,0,0,1-.642.884.966.966,0,1,0,1.629.948,7.988,7.988,0,0,0,.472-.938c.167-.311.643-.488.767-.817a8.5,8.5,0,0,0,.279-1.047c.079-.342-.111-.737-.078-1.089a8.334,8.334,0,0,0-.195-1.013c-.024-.345.2-.708.137-1.047a8.253,8.253,0,0,0-.325-.983,8.33,8.33,0,0,0-.276-1.005c-.137-.316-.6-.449-.774-.743a8.376,8.376,0,0,0-.495-.867,8.676,8.676,0,0,0-.6-.806c-.233-.25-.29-.679-.549-.9s-.433-.6-.716-.787-.778-.051-1.082-.21a9.211,9.211,0,0,0-.869-.564,9.57,9.57,0,0,0-1.015-.189.909.909,0,0,0-.486,1.751c.015,0-.012.031-.01.031" fill="#0d4b08"/><path d="M134.815,15.985c-.294.163-.821-.064-1.1.115s-.38.642-.654.836-.8.058-1.065.267-.446.532-.7.755-.579.382-.818.619-.213.727-.438.977c-.223.272-.384.578-.589.863s-.6.442-.784.738-.18.708-.35,1.015-.5.531-.647.848-.329.627-.461.952-.2.676-.317,1.009c-.109.317-.123.672-.215,1.009s-.207.652-.271.991A9.72,9.72,0,0,0,126.349,28c-.027.345-.253.687-.233,1.028a6.293,6.293,0,0,0,.031,1.066,5.252,5.252,0,0,0,.355,1.018,5.382,5.382,0,0,0,.518.925,6.3,6.3,0,0,0,.775.713,6.041,6.041,0,0,0,.927.476,5.265,5.265,0,0,0,.855.587,4.232,4.232,0,0,0,1.017.319,3.493,3.493,0,0,0,1.049-.242.986.986,0,0,0,.508-1.287.871.871,0,0,0-1.05-.665c-.351.025-.623-.242-.939-.374s-.707-.123-.935-.391a3.185,3.185,0,0,1-.779-.77c-.178-.307.04-.742-.02-1.1a8.86,8.86,0,0,1-.054-.96c.012-.332-.209-.679-.161-1.007a10.071,10.071,0,0,1,.01-1.029c.082-.321.446-.568.562-.879a9.442,9.442,0,0,1,.338-.938c.126-.305.369-.554.515-.849s-.01-.762.156-1.047.4-.547.587-.82.429-.519.633-.779.621-.339.842-.584c.23-.23.588-.3.83-.522s.243-.71.5-.913.606-.277.87-.467.459-.481.733-.656.557-.336.841-.5a.873.873,0,0,0,.276-1.26,1.281,1.281,0,0,0-1.462-.514c-.076.123.377.394.375.395" fill="#0d4b08"/><path d="M130.916,33.741c.018.312-.257.634-.25.945s.062.621.064.932.39.62.393.932-.418.63-.408.942.33.611.351.922a.767.767,0,0,0,.833.826c.348.039.715-.061,1.064-.028s.683.2,1.032.231.687.225,1.037.245.712-.237,1.062-.223.7-.014,1.048-.006.7.109,1.047.11.7,0,1.048-.007.7-.058,1.047-.069.722.478,1.072.46.7-.13,1.049-.153.691-.184,1.041-.214.661-.389,1.01-.425c.311-.043.7.377,1.034.328s.591-.428.911-.5.781.237,1.078.117a3.763,3.763,0,0,0,.84-.627,2.767,2.767,0,0,0,.756-.75c.137-.267-.1-.7-.055-1.066.027-.425-.016-.843-.012-1.269s.232-.85.213-1.275c-.007-.5-.218-.5-.218-.992s.187-.5.187-.995.042-.5.036-1a1.066,1.066,0,0,0-1.083-.965.939.939,0,0,0-.872.967c0,.337-.041.672-.042,1.009s.081.674.08,1.011-.222.674-.222,1.011-.123.675-.122,1.012,0,.69,0,1.027c.045.3.013.348-.223.543a2.474,2.474,0,0,1-1.023.346c-.5.094-.987.363-1.5.433-.351.044-.717-.067-1.068-.032s-.707-.029-1.059,0-.692.2-1.045.213-.7.232-1.054.238-.708-.075-1.062-.079-.7-.236-1.053-.249c-.334-.008-.675.221-1.008.208s-.673.069-1.006.051-.644-.4-.977-.419-.667-.008-1-.032-.684.2-1.016.174-.45-.258-.782-.286c.385.569.186.737.75,1.129-.022-.311-.072-.637-.082-.948s.1-.626.1-.937-.362-.621-.364-.933.055-.62.048-.931.035-.619.018-.93c-.022-.4-.018-.767-.3-.912a1.575,1.575,0,0,0-1.148-.195c-.279.138-.235.669-.211,1.086" fill="#0d4b08"/><path d="M148.957,11.123a8.261,8.261,0,0,0,.248-.973,9.216,9.216,0,0,0,.331-.982,8.845,8.845,0,0,0-.139-1.021c-.018-.333-.309-.634-.366-.96a8.2,8.2,0,0,0-.26-.944,8.3,8.3,0,0,0-.245-.955,8.558,8.558,0,0,0-.32-.955,8.639,8.639,0,0,0-.649-.767c-.2-.263-.275-.647-.508-.887a8.77,8.77,0,0,0-.74-.7c-.26-.2-.714-.131-.99-.3s-.474-.488-.767-.631a9.909,9.909,0,0,0-.862-.507c-.308-.113-.706.056-1.022-.024s-.586-.425-.91-.473-.67-.027-1-.041-.643.376-.97.4S139.1.03,138.774.084s-.576.423-.894.51a9.348,9.348,0,0,0-.914.308,8.585,8.585,0,0,0-.809.543,8.994,8.994,0,0,0-.9.391,9.74,9.74,0,0,0-.882.471c-.249.218-.284.637-.507.88a8.541,8.541,0,0,0-.582.767,8.919,8.919,0,0,0-.611.752,8.876,8.876,0,0,0-.44.864,8.659,8.659,0,0,0-.305.918c-.1.313-.672.506-.74.831s-.029.683-.062,1.014a10.229,10.229,0,0,0,.059,1.035c-.006.342.332.658.361.995s-.383.736-.318,1.068.469.586.568.91-.181.8-.048,1.109.407.581.572.879a10.336,10.336,0,0,0,.461.939c.194.277.689.331.913.587a9.431,9.431,0,0,0,.743.68c.248.23.357.626.631.831.295.2.709.2,1.021.36s.56.477.89.6a8.783,8.783,0,0,0,1.013.348,6.753,6.753,0,0,0,2.127.095,8.662,8.662,0,0,0,1.057-.033,8.819,8.819,0,0,0,1.02-.281,9.368,9.368,0,0,0,1.079-.117,9.284,9.284,0,0,0,1.034-.345,9.211,9.211,0,0,0,.928-.575,9.213,9.213,0,0,0,.884-.651,1.313,1.313,0,0,0,.251-1.185c-.1-.312-.557-.527-.879-.629a1.073,1.073,0,0,0-1.046.114,6.373,6.373,0,0,1-.83.52,6.569,6.569,0,0,1-.784.608c-.306.142-.549.452-.871.546a6.971,6.971,0,0,1-1.011.13c-.333.045-.669-.158-1.006-.163s-.679.207-1.012.152a7.1,7.1,0,0,1-1.015-.143c-.316-.1-.482-.558-.786-.709a7.177,7.177,0,0,1-.856-.513c-.276-.209-.694-.24-.936-.481s-.629-.395-.837-.668-.178-.725-.346-1.025a7.4,7.4,0,0,1-.5-.9,7.553,7.553,0,0,1-.2-1.017c-.08-.332-.493-.627-.527-.971a8.052,8.052,0,0,1,.028-1.062,7.758,7.758,0,0,1,.126-1.111c.051-.364.394-.669.5-1.017s.4-.6.555-.927,0-.819.2-1.123a7.693,7.693,0,0,1,.79-.772,7.525,7.525,0,0,1,.7-.852,7.511,7.511,0,0,1,.9-.632,7.645,7.645,0,0,1,1-.47c.344-.129.776.1,1.131.02a7.406,7.406,0,0,1,1.037-.294c.365-.024.736-.307,1.1-.278a8.05,8.05,0,0,1,1.074.313,7.8,7.8,0,0,1,.991.474c.338.132.828-.032,1.148.151.287.162.44.544.692.743a6.515,6.515,0,0,1,.776.6c.223.238.264.616.445.883a6.053,6.053,0,0,1,.528.8c.14.293.561.493.654.8s-.081.7-.035,1.022a6.54,6.54,0,0,1-.086.968,6.043,6.043,0,0,1-.128.937,6.112,6.112,0,0,1-.121.95c-.126.395.2.612.434.821a.78.78,0,0,0,.786.194c.306-.065.683-.059.8-.439.013-.027-.009-.008-.008-.01" fill="#0d4b08"/><path d="M147.178,11.715c.218.016-.229.31-.035.362.069.019.213-.211.276-.189.045.015.073.094.116.111-.049-.021-.17.163-.211.128.043-.007.339-.22.38-.2s.06.139.1.167c-.041-.034-.081.034-.116-.006.06.039.013.179.057.235s.417-.052.458.007c-.1-.209-.34.125-.308.178s.4-.052.42.017c-.051-.123-.519.072-.48.173.011.033-.028.048-.015.082.026.067.312.068.315.14.027-.234.23-.044.23.026s-.1.163-.106.237c-.008.218.048-.109-.008.085-.02.073-.16.114-.181.186-.009.027-.253.248-.2.12s.124.184.111.212c-.036.068-.068.153-.11.218-.015.024-.12.27-.042.167s-.229-.027-.25-.007c-.052.057-.306-.107-.363-.055-.019.018.149.6.244.529s-.44-.391-.463-.376c-.067.045.025.325-.05.366s-.179.014-.254.051c-.027.013-.212.213-.1.171s-.222-.208-.248-.2c-.08.027-.073.307-.155.329-.162.045-.368-.138-.532-.1-.073.012.032-.022.14-.037-.062-.012-.082.509-.144.515-.093.008-.212-.165-.307-.162-.536,0-1.153.339-1.153.876a1.418,1.418,0,0,0,1.152,1.254l0-.111a5.067,5.067,0,0,0,.989-.074c.315-.058.541-.444.835-.563a4.476,4.476,0,0,0,.741-.555c.267-.176.675-.139.9-.365s.653-.326.83-.594.142-.68.263-.98a3.16,3.16,0,0,0,.184-.92,3.6,3.6,0,0,0,.1-.983,3.6,3.6,0,0,0-.522-.838c-.181-.27-.584-.336-.832-.534a2.823,2.823,0,0,0-.806-.423,2.889,2.889,0,0,0-.873-.291.977.977,0,0,0-1.041.895,1.022,1.022,0,0,0,1.028.935c.115-.048.043-.211.048-.21" fill="#0d4b08"/><path d="M137.553,10.765c-.021.364-.474.689-.769.9a.981.981,0,0,1-.7.16,1.317,1.317,0,0,1-.932-.524,1.622,1.622,0,0,1-.063-.877c.054-.25.391-.392.591-.571a.9.9,0,0,1,1.27.026c.233.232.568.394.535.72.082.113.069.16.069.163" fill="#0d4b08"/><path d="M141.943,11.706c-.022.364-.054.911-.35,1.125a1.449,1.449,0,0,1-.875.1,1.482,1.482,0,0,1-.929-.661c-.109-.246.3-.556.354-.806s-.084-.574.115-.753a1,1,0,0,1,1.344.136c.233.232.64.558.608.884l-.267-.024" fill="#0d4b08"/><path d="M141.55,7.423A10.815,10.815,0,0,0,142,8.528a6.005,6.005,0,0,0,.6.92c.2.226.723.126.961.3s.3.665.574.789a1.652,1.652,0,0,0,.941.167c.517-.143.486-.9.343-1.42-.065-.245.124-.706-.1-.832a3.755,3.755,0,0,1-.694-.445c-.1-.073.3.291.211.2-.222-.174-.591-.216-.762-.44-.079-.1.16.344.089.24a6.037,6.037,0,0,1-.775-1.233c-.044-.119.338.011.38.13.02.057-.006-.065-.027-.121-.076-.24-.374-.38-.586-.515a1.13,1.13,0,0,0-.769-.229,1.38,1.38,0,0,0-.752.437c-.137.224.026.616.1.869-.035.1-.189.072-.188.074" fill="#0d4b08"/><path d="M142.164,6.121c-.267.12-.463.456-.743.539s-.628-.085-.917-.039a6.021,6.021,0,0,1-.822.125,1.037,1.037,0,0,1-.443-.056c.2.744-.267.989.162,1.628.172-.306.86-.768.912-1.123s-.382-.689-.668-.989a1.137,1.137,0,0,0-.986-.445c-.372.041-.692.433-1.055.534-.3.08-.633.11-.939.17s-.675-.247-.985-.207-.58.553-.892.572-.644-.43-.956-.431-.611-.1-.924-.125a1.224,1.224,0,0,0-1,.618c-.145.292.214.648.37.951.144.278.23.431.628.454.351.02.694.061,1.046.059s.716.283,1.067.259.727.05,1.077,0c.5-.068.984-.338,1.484-.456.227-.054.451-.134.675-.2.141-.041.288-.073.427-.118.056-.018.07-.168.125-.188.145-.044.191-.19-.02-.146-.236-.076-.149-.17-.368-.287-.034-.018.22.183.2.148-.113-.221-.524-.01-.636-.232-.138-.338-.028-.473-.1-.372-.056.085-.154.182-.2.271-.134.236.364.58.431.822s-.131.708.1.842a1.684,1.684,0,0,0,.264.135,6.325,6.325,0,0,0,1.237.078,6.376,6.376,0,0,0,1.175-.373,7.506,7.506,0,0,0,1.137-.343,7.382,7.382,0,0,0,1.052-.518c.367-.194.484-.33.464-.642s-.035-.777-.322-.958a1.1,1.1,0,0,0-1.029.11c-.03.01-.034-.073-.036-.072" fill="#0d4b08"/><path d="M142.908,38.729,154.945,9.7c.342-.818-.21-1.5-.86-2.1a7.281,7.281,0,0,0-3.553-1.488c-.883-.081-1.758.043-2.1.86l-19.767,47.48a1.722,1.722,0,0,0-.132.733l.021,7.917a.321.321,0,0,0,.536.225c1.765-1.6,3.791-3.827,5.564-5.452a2.279,2.279,0,0,0,.569-.8Z" fill="#fefffd"/><path d="M149.532,6.139a1.388,1.388,0,0,0-1.1.832L128.812,54.1l6.515,2.729,7.581-18.1L154.944,9.695c.343-.818-.21-1.5-.86-2.1a7.278,7.278,0,0,0-3.552-1.488,3.641,3.641,0,0,0-1,.028Z" fill="#407b3e"/><path d="M128.829,62.48c0-.264-.423-.589-.424-.932,0-.311.356-.637.355-.943,0-.357-.229-.6-.23-.853a3.234,3.234,0,0,1,1.07.207c.5.21.5.205,1.006.415a2.046,2.046,0,0,1,.907.6c-.272.274-.37.634-.638.9s-.719.371-.989.63-.543.554-.816.8c-.131.119-.463.269-.583.138-.051-.056.288-.111.285-.186.2-.288.057-.466.057-.778" fill="#0d4b08"/><path d="M131.6,60.05c-.445-.186-.408-.273-.853-.459s-.383-.336-.829-.523-.383-.357-.833-.532c-.253-.069-.543.382-.768.515a.844.844,0,0,0-.436,1.184l-.118.092c.076.1.408-.171.489-.076a.531.531,0,0,0,.308.193c.448.177.386.339.83.525s.49.081.935.268.416.248.866.422c.253.069.328-.058.554-.191.463-.271,1-.768.726-1.231l-.355.227c-.076-.1.207-.33.126-.426a1.431,1.431,0,0,0-.568-.195" fill="#0d4b08"/><path d="M143.786,38.966c.188-.459.326-.4.517-.861s.332-.4.522-.858.15-.477.34-.937,0-.538.19-1,.137-.481.327-.94.386-.377.576-.835-.034-.554.157-1.015.538-.317.729-.778.085-.507.276-.97-.04-.559.151-1.021c.2-.479.067-.534.265-1.013s.554-.333.753-.812.042-.543.24-1.02.477-.362.675-.839.031-.548.229-1.026-.138-.619.061-1.1.631-.3.83-.779.077-.529.276-1.008.176-.49.376-.971-.093-.6.106-1.081.665-.287.865-.768-.052-.582.146-1.061.027-.552.226-1.033.365-.414.565-.9,0-.565.2-1.048.207-.481.407-.964c.216-.519.337-.469.553-.989s.548-.382.764-.9.181-.536.4-1.058-.109-.657.107-1.179a2.477,2.477,0,0,0,.211-.987,2.55,2.55,0,0,0-.042-1.052,3.46,3.46,0,0,0-.573-.912c-.228-.26-.351-.711-.647-.93s-.856.019-1.179-.148-.464-.739-.8-.859-.837.3-1.18.222a7.29,7.29,0,0,0-1.014-.282,4.041,4.041,0,0,0-1.026.111c-.344.067-.809-.207-1.049-.047-.267.178-.31.641-.489.9a5.1,5.1,0,0,0-.362.859c-.125.283-.267.563-.388.853-.216.521-.167.541-.384,1.061s-.342.47-.558.991-.441.429-.658.952.156.678-.061,1.2c-.2.467-.632.285-.827.752s-.143.487-.337.953.244.648.05,1.113-.326.411-.52.877-.1.507-.3.975-.127.495-.322.962-.287.428-.482.9-.185.473-.38.941-.568.312-.763.78.246.652.051,1.121-.3.421-.5.888-.229.455-.425.924-.53.33-.726.8.209.64.013,1.111-.565.317-.761.788-.192.467-.385.933.234.644.041,1.111-.633.284-.827.75.171.617-.022,1.082-.56.311-.753.776.161.612-.032,1.077-.281.431-.476.9-.343.4-.536.87-.35.4-.544.868.228.643.034,1.111-.351.4-.545.869-.333.41-.527.877.209.633.016,1.1-.218.459-.412.927-.347.406-.541.874-.09.514-.286.984-.245.45-.441.92c-.2.491-.1.537-.3,1.028s-.713.279-.917.769.186.653-.018,1.143-.536.355-.741.847-.088.54-.292,1.031,0,.578-.2,1.07-.2.492-.4.982-.4.414-.6.906.022.588-.183,1.081-.429.4-.635.9-.169.509-.388,1a6.834,6.834,0,0,0-.265,1.237c-.124.4-.671.736-.718,1.156-.008.327-.049.671-.053,1s.4.658.4.985-.116.655-.113.983.257.652.261.98-.038.656-.034.983-.355.659-.352.986.49.653.491.98-.476.666-.46.994a1.722,1.722,0,0,0,.38,1.087,1.751,1.751,0,0,0,1.1.371c.321-.005.481-.469.718-.686.271-.226.571-.413.832-.652s.532-.456.784-.7.711-.288.958-.54.571-.432.815-.686.355-.638.6-.891.477-.518.727-.767.511-.483.768-.723a5.174,5.174,0,0,0,.572-.882c.2-.282.6-.46.757-.774s.355-.619.488-.941.294-.64.417-.961-.152-.814-.022-1.125c.2-.474.555-.324.754-.8s.243-.453.441-.925-.329-.692-.131-1.164.632-.291.829-.763.222-.465.421-.939.171-.485.369-.959-.016-.563.182-1.037.13-.5.329-.979.123-.506.321-.98.276-.443.475-.918.426-.378.624-.851.053-.536.253-1.011.324-.424.524-.9.31-.432.51-.909-.015-.567.185-1.045c.218-.518,0-.6.191-1.127.142-.519.031-.79-.488-.933-.515-.127-.788.073-.944.58-.191.5-.634.325-.842.821s.063.609-.144,1.1-.288.463-.5.959.073.611-.134,1.1-.456.393-.664.889-.182.508-.39,1.006-.06.561-.269,1.059-.238.487-.447.986c-.19.453-.408.361-.6.815s-.134.476-.323.928.061.558-.128,1.01-.53.312-.72.766.045.552-.145,1.005-.394.367-.583.82,0,.532-.19.984-.1.494-.286.948-.537.311-.727.766-.131.482-.322.938-.16.468-.361.921c-.161.314-.531.441-.758.709s-.292.661-.575.873c-.268.26-.717.345-.982.608s-.45.609-.713.875-.552.5-.815.769c-.184.186-.235.505-.42.689s-.138.607-.325.791-.458.307-.653.492c-.107.1-.1.107-.209.207s-.194.007-.3.1c-.092.077-.146-.049-.059-.107a3.08,3.08,0,0,1,.526-.023.423.423,0,0,1,.107.029c.178.171-.043.388.127.567.063.086.154.273.172.028.008-.106.294-.217.294-.323,0-.591-.04-.591-.041-1.182,0-.549.052-.549.05-1.1s-.288-.55-.29-1.1.072-.551.07-1.1c0-.439-.086-.439-.087-.879s.243-.441.241-.882-.262-.44-.27-.881c-.02-.3.224-.532.323-.817.128-.325.286-.63.418-.953s-.2-.839-.069-1.161.435-.575.571-.9.528-.534.663-.855.365-.6.5-.927c.194-.467.092-.51.287-.977s.2-.463.4-.93-.091-.585.1-1.051.06-.524.255-.992.462-.356.656-.823.443-.364.638-.832-.013-.552.181-1.018.2-.467.392-.936.382-.391.578-.859.059-.528.255-1-.041-.569.155-1.039.166-.5.366-.975.292-.444.493-.925.339-.426.54-.91.1-.525.3-1.008.381-.407.582-.89.219-.477.42-.961-.093-.606.108-1.089.368-.415.569-.9.32-.432.52-.914-.056-.592.146-1.077.466-.375.668-.86.155-.507.357-.993-.155-.636.048-1.122.591-.313.79-.789-.084-.6.115-1.075.195-.48.394-.957.073-.53.272-1.008.331-.424.53-.9.361-.412.56-.89-.054-.585.145-1.064.163-.492.361-.969.29-.442.489-.922.2-.481.4-.961.159-.5.36-.98.665-.288.866-.77c.188-.453.1-.488.292-.94s.065-.5.253-.955-.114-.577.074-1.029.615-.272.8-.723-.118-.581.071-1.034.582-.289.771-.743.071-.5.26-.959.291-.413.48-.868c.157-.378-.171-.514-.015-.892.022-.062,0-.155.026-.214.007-.013.091,0,.1-.012-.061.091.014-.093.072-.126a3.132,3.132,0,0,1,1.115.04,2.848,2.848,0,0,1,1.022.292,5.218,5.218,0,0,1,1.038.358,5.306,5.306,0,0,1,.968.545c.339.318.681.686.509,1.166-.024.068.021.168-.006.233-.132.323-.468.563-.6.885s-.378.6-.512.921-.269.644-.4.967-.312.625-.447.948-.187.678-.322,1-.1.715-.233,1.037-.408.586-.542.909-.354.609-.488.931c-.195.472-.055.53-.251,1s-.005.551-.2,1.023-.273.443-.47.918-.4.388-.6.861.026.566-.171,1.039-.1.513-.3.989-.53.335-.727.81-.163.489-.36.964.036.569-.16,1.042-.021.548-.218,1.024-.45.371-.647.848-.138.5-.336.98-.308.432-.506.909c-.19.459.141.6-.05,1.056s-.247.438-.438.9-.24.439-.431.9-.441.356-.631.816-.368.385-.558.844.155.6-.036,1.067-.335.4-.526.865-.07.514-.263.978-.2.46-.391.924a4.387,4.387,0,0,0-.168.429c-.139.517.033,1.294.548,1.439a1.408,1.408,0,0,0,1.388-.921c.006-.033-.187-.039-.186-.042" fill="#0d4b08"/><path d="M129.222,54.982c.5.211.441.36.944.571s.563.062,1.064.272.482.262.986.473.336.615.84.827.493.242,1,.453.581.037,1.1.228a.93.93,0,0,0,1.138-.7,1.021,1.021,0,0,0-.587-1.259c-.51-.194-.441-.352-.945-.562s-.518-.169-1.019-.379-.584-.02-1.088-.231-.526-.159-1.031-.37-.424-.407-.93-.619-.587-.007-1.1-.2c-.517-.142-1.281,0-1.424.513a1.422,1.422,0,0,0,.9,1.416" fill="#0d4b08"/><path d="M149.926,30.216a3.892,3.892,0,0,0,1.654-2.927c.191-1.313-.033-2.984-1.944-3.462a2.718,2.718,0,0,0-1.989.372,3.728,3.728,0,0,0-1.832,3.617,2.987,2.987,0,0,0,3.142,2.757,2.5,2.5,0,0,0,.969-.357" fill="#fefffd"/><path d="M150.506,31.2a5.978,5.978,0,0,0,.889-.608c.234-.248.019-.85.2-1.136a4.713,4.713,0,0,0,.42-.87,4.782,4.782,0,0,0,.273-.928,4.979,4.979,0,0,0,.177-.975,3.3,3.3,0,0,0-.238-1.005c-.079-.354.064-.744-.113-1.056a3.623,3.623,0,0,0-.628-.874c-.259-.243-.694-.157-1.024-.319a3.458,3.458,0,0,0-.917-.313c-.351-.043-.7-.433-1.041-.384s-.549.57-.871.709a3.512,3.512,0,0,0-.9.42,3.628,3.628,0,0,0-.634.77c-.223.27-.617.4-.77.7a4.651,4.651,0,0,0-.393.956,5.057,5.057,0,0,0-.307,1.025c-.006.343.42.65.49.989s-.143.758,0,1.076c.133.3.654.338.852.584s.086.83.343,1.018.691.12.99.237.571.44.893.475.636-.32.958-.371a3.373,3.373,0,0,0,.89-.245c.1-.045.147-.146.245-.2.452-.29.483-.568.193-1.02-.273-.426-.671-.807-1.118-.57a1.234,1.234,0,0,1-1.32.159c.157.061-.049.022-.087,0a2.107,2.107,0,0,1-.181-.143c-.063-.042-.311.212-.362.175.118.088.126-.2.109-.219-.116-.112.03-.453-.076-.574-.016-.018-.256.006-.181.12-.054-.079-.186-.11-.234-.194a1.82,1.82,0,0,1-.319-.656c-.014-.061,0-.131-.012-.194.023.178.294-.059.294-.1-.011-.178-.479-.357-.468-.535a1.922,1.922,0,0,1,.046-.207c-.026.183.33.039.339-.006.028-.132-.276-.361-.234-.489.019-.056.163-.075.186-.13-.066.169-.166-.119-.144-.16.078-.145.69.024.777-.116.015-.025-.349-.466-.449-.339.037-.048.5.259.537.214.1-.116.021-.391.136-.5a2.39,2.39,0,0,1,.669-.4c.159-.082-.188.1.107.011.066-.021.071-.251.14-.268-.023.006.326.064.192.086s.171.064.155.065c.118-.006.242-.32.359-.32-.208-.007-.086.215-.024.228.092.024.286-.281.377-.252.04.013.084.511-.074.442.054.024.31-.345.361-.317s.1.118.145.149c.087.061.191.207.074.117s-.188.391-.187.392c.037.035.217-.079.254-.044.122.116.073-.029.048-.064.043.06-.039.2,0,.266s-.08.177-.051.231.465.034.4-.175c.034.1-.1.267-.073.374.016.066-.015.411-.043.15.013.122-.049.24-.046.363s.244.267.238.4c0,.068-.43.453-.387.169a6.115,6.115,0,0,1-.1.96c-.083.278.016.638-.151.869a3.063,3.063,0,0,1-.558.746c-.453.278-.863.738-.6,1.2a1.111,1.111,0,0,0,1.452.254c.1-.018.1.181.11.175" fill="#0d4b08"/><path d="M136.677,27.69a3.062,3.062,0,0,1,2.62,5.515c-.952.579-2.7.751-3.5-.205" fill="#fefffd"/><path d="M136.888,28.465c.112-.034.284.142.4.118.067-.014.044-.127.112-.14.033-.006,0-.234.033-.24.086-.013.156.426.068.44-.032.005-.128-.343-.095-.344.064,0,.073.188.137.183s.074.316.138.314c.1,0,.2-.063.3-.063.05,0,.1-.521.15-.522.136,0-.278.37-.077.412.085.018.225-.2.309-.178s.041.4.121.428c.035.017.157-.122.193-.112-.224-.028-.106-.135,0-.086.149.074.332.077.473.16.109.064-.279-.034-.142.1.025.024.271-.194.3-.171.073.065-.234.52-.167.592.039.042.267-.049.284.009-.028-.1-.255-.049-.2.045.023.037.369-.125.392-.088.043.067-.093.24-.056.31.021.039.145.023.166.062.1.187-.1-.106-.068-.015.052.161-.036.346,0,.511.008.037.174.092.152.119.014-.018.282-.213.289-.026,0,.053-.2.113-.2.167,0,.081.187.163.187.244,0,.045-.371.09-.371.135,0,.13-.009-.306-.055-.117s.386.5.325.679c-.03.09-.172.112-.07-.015-.019.034-.119-.042-.132-.006-.044.088-.161.145-.213.229s-.026.2-.072.274c-.068.115.193-.12.051.036-.043.048-.285-.084-.329-.04-.06.066-.006.245-.071.3-.041.038-.269.368-.059.214-.083.062-.267-.015-.356.037-.046.026-.178-.125-.226-.1-.029.014.068.218.039.231-.1.043-.1-.087.031-.143a1.048,1.048,0,0,1-.313.234c-.126.035-.207.305-.334.331-.018,0-.071-.264-.089-.261-.109.017-.1-.029.042-.05-.071.018-.142-.117-.214-.124-.119.006-.227-.107-.346-.113-.016,0-.3.5-.129.525s-.1-.046-.13-.054c-.056-.013-.129-.013-.184-.029-.033-.009.138-.536.106-.547-.1-.037-.244.3-.115.353-.1-.009-.118-.2-.2-.254-.169-.1-.052.221-.107.124-.05-.061.124-.32.065-.371a1.237,1.237,0,0,0-1.57.088c-.364.386-.11.849.254,1.235a2.948,2.948,0,0,0,.723.495c.285.153.417.666.73.736a3.9,3.9,0,0,0,.987-.1c.317-.016.724.263,1.034.161.373-.1.673-.483,1-.677a4.309,4.309,0,0,0,.856-.77c.263-.273.644-.5.828-.837a4.687,4.687,0,0,0,.492-.942c.08-.328-.415-.727-.419-1.057a4.332,4.332,0,0,0-.473-1.8,3.668,3.668,0,0,0-.477-.829c-.224-.238-.544-.281-.832-.463-.264-.156-.388-.514-.674-.609a4.286,4.286,0,0,0-.873-.24c-.3-.034-.575.288-.878.319a3.821,3.821,0,0,0-.852.105c-.517.142-1.041.49-.9,1.007s.67.535,1.187.392c.072-.046.1.086.107.085" fill="#0d4b08"/><path d="M30.748,69.255c1.392-.006,2.838-.109,4.377-.232a35.414,35.414,0,0,0,3.769-.518l-1.11,9.548.854.774a16.544,16.544,0,0,1,2.345,2.366,2.185,2.185,0,0,1,.151,1.951,2.12,2.12,0,0,1-1.479,1.068,4.874,4.874,0,0,1-1.876-.04,12.562,12.562,0,0,1-2.727-.783l-.263-.106c.016.049.029.1.04.149a2.851,2.851,0,0,1-.086,1.317A2,2,0,0,1,33.518,85.9a1.744,1.744,0,0,1-.481.132c-1.911.235-3.559-.641-5.159-1.445a2.713,2.713,0,0,1-1.212-1.157,2.934,2.934,0,0,1,.02-2.711q.252-5.863.5-11.725a20.915,20.915,0,0,0,3.561.26Z" fill="#fefffd"/><path d="M37.828,69.24c-.039.339.188.709.149,1.048s-.209.663-.248,1-.088.677-.128,1.016-.338.648-.377.987.1.7.057,1.037.107.7.068,1.039-.132.671-.172,1.01-.292.654-.331.993.035.691,0,1.03.152.682.112,1.021c0,.535.135.81.67.814.53-.015.748-.309.763-.839.039-.339.274-.667.313-1.006s.4-.641.437-.98.016-.685.055-1.024-.451-.74-.412-1.079.5-.629.536-.968-.159-.706-.119-1.045.451-.634.49-.973-.281-.72-.241-1.059.186-.666.226-1-.03-.683.01-1.022a.956.956,0,0,0-.875-1.034c-.53.015-.7.515-.714,1.045" fill="#0d4b08"/><path d="M32.3,70.31c-.042.5-.157.488-.2.985s.02.5-.022,1-.2.486-.244.985.161.515.12,1.013-.218.484-.26.983-.183.485-.224.982.145.515.1,1.015.226.522.184,1.022-.173.491-.215.993-.067.495-.093,1c0,.535.317,1.1.852,1.106a1.1,1.1,0,0,0,.935-1.114c.031-.5-.145-.514-.1-1.011s.1-.493.137-.991.256-.481.3-.98-.073-.508-.031-1.006-.188-.518-.147-1.017.2-.484.238-.981-.022-.5.019-1,.237-.484.279-.984.362-.475.4-.976-.005-.514.022-1.016c-.005-.535-.678-.689-1.212-.694-.532.011-1.092.147-1.1.678" fill="#0d4b08"/><path d="M26.213,69.285c-.022.515-.086.512-.108,1.027s.086.518.064,1.032-.244.5-.267,1.018,0,.516-.02,1.032.092.519.07,1.034.141.522.119,1.037-.138.508-.16,1.021.04.519.017,1.035-.182.509-.2,1.026.181.527.159,1.045-.2.51-.221,1.028a1.116,1.116,0,0,0,.43,1.008,1.365,1.365,0,0,0,1.066-.182c.277-.143.225-.434.243-.835.022-.514.153-.509.175-1.024s.031-.513.053-1.027.283-.5.305-1.016-.154-.523-.132-1.038-.165-.523-.143-1.037.076-.513.1-1.029.237-.5.259-1.017-.093-.52-.071-1.036-.209-.527-.186-1.043.176-.512.2-1.03-.042-.52-.02-1.038c.017-.414.019-.669-.26-.808s-.807-.427-1.108-.272c-.278.144-.34.689-.357,1.089" fill="#0d4b08"/><path d="M37.954,79.511c.275.25.4.66.678.91s.894.146,1.155.41c.135.136.207.351.331.495.023.026.058.188.09.2-.093-.122-.39.044-.332.122.02.027.212-.074.229-.046a1.854,1.854,0,0,1,.154.241c-.061-.141.14.175.151.211.015.063-.335.185-.325.249-.014-.1.045-.105.055.014,0,.064.444.254.444.318.019-.1-.305-.24-.327-.124-.014.062.214.291.194.351.038-.081-.006-.151-.055-.054-.03.052-.073.145-.108.194.062-.079-.267-.366-.341-.281-.041.043.179.387.134.426.081-.058.128,0,.037.062s-.447-.345-.555-.294c.174-.078-.028.385-.066.4s-.325-.3-.2-.314a3.6,3.6,0,0,1-.834.059c-.123-.016-.188.335-.114.352-.111-.013-.113-.032-.223-.049-.146-.024-.28-.125-.426-.153-.273-.053-.473-.389-.742-.46s-.594.065-.858-.025-.546-.13-.8-.235a1.1,1.1,0,0,0-1.342.613,1.149,1.149,0,0,0,.836,1.229c.31.126.661.126.979.228s.544.552.87.63.752-.3,1.082-.242a4.215,4.215,0,0,0,1.078.1c.378,0,.824.446,1.19.351s.641-.507.975-.69a2.893,2.893,0,0,0,.853-.746,2.839,2.839,0,0,0,.336-1.077,3.035,3.035,0,0,0,.214-1.148,4.261,4.261,0,0,0-.489-1.171,4.2,4.2,0,0,0-.876-.891c-.266-.27-.652-.41-.93-.665s-.484-.591-.764-.845a.892.892,0,0,0-1.305.066.985.985,0,0,0-.115,1.354c.006,0,.058-.075.061-.072" fill="#0d4b08"/><path d="M33.018,82.4a2.3,2.3,0,0,1,.609,1.127c.078.3.413.572.353.875-.048.161-.273.268-.409.367.1-.087-.177-.022-.2-.007-.1.06-.07.425-.174.468-.447.12-.933-.3-1.387-.393-.361-.072-.8.195-1.152.086A10.382,10.382,0,0,1,29.62,84.5a10.662,10.662,0,0,1-1.055-.346c-.427-.164-.627-.731-.908-1.091-.249-.376-.685-.857-.6-1.3.127-.515.119-.984-.389-1.14a1.121,1.121,0,0,0-1.333.652c-.073.317.137.67.148.986a2.657,2.657,0,0,0,.5,1.789c.166.27.191.692.427.916.235.191.686.094.944.252a6.632,6.632,0,0,0,.741.515c.282.141.552.307.84.434s.5.452.791.565c.3.129.755-.243,1.066-.163a5.886,5.886,0,0,0,.9.255c.321.03.634.357.956.337a6.644,6.644,0,0,0,1-.066c.36-.1.638-.461.931-.671a3.06,3.06,0,0,0,.788-.759,3.012,3.012,0,0,0,.28-1.044,3.482,3.482,0,0,0-.089-.969c-.032-.34.312-.762.193-1.079a4.351,4.351,0,0,0-.416-1c-.2-.273-.623-.4-.891-.619a1.292,1.292,0,0,0-1.584-.121c-.374.381-.089,1.053.285,1.434a1.5,1.5,0,0,1-.127.125" fill="#0d4b08"/><path d="M30.433,40.16a10.41,10.41,0,0,0-3.73,1.952,8.859,8.859,0,0,0-1.433,1.6,11.308,11.308,0,0,0-1.262,2.675,7.952,7.952,0,0,0,1.058,7.082,4.753,4.753,0,0,0,2.312,1.78C26.409,58.7,25.164,62.91,24.445,67a1.407,1.407,0,0,0,.986,1.589c3.067.889,6.128.712,9.693.427a27.571,27.571,0,0,0,6.886-1.38c.734-.684-.148-9.034-.711-12.4,0,0-.047-.277-.093-.553l.1-.448c.166-.709.776-3.468,1.014-4.156a14.887,14.887,0,0,0,.64-2.439s1.618-1.4,2.29-1.435c3.33-.149,5.661-.233,9.467-.519a.687.687,0,0,0,.619-.639c.047-1.179.124-2.671.157-3.569a.717.717,0,0,0-.6-.737c-2.251-.358-7.816-1.15-11.845-1.825Z" fill="#407b3e"/><path d="M40.08,25.5a8.565,8.565,0,0,0-9.4.388,7.365,7.365,0,0,0-2.55,8.6,2.055,2.055,0,0,0-1.195,1.51,2.828,2.828,0,0,0,1.075,2.521,4.457,4.457,0,0,0,2.963.927,7.71,7.71,0,0,0,10.83-.784,9.111,9.111,0,0,0,.043-11.666,7.915,7.915,0,0,0-1.769-1.5Z" fill="#fefffd"/><path d="M28,29.583a7.2,7.2,0,0,1,2.684-3.7A8.42,8.42,0,0,1,41.849,27q.22.25.417.517l-1.6,1.66a7.321,7.321,0,0,1-3.56,1.812c.06-.274.183-.872-.092-.931a.415.415,0,0,0-.327.072,14.674,14.674,0,0,1-5.328,2.444l-2.526,1.745a1.909,1.909,0,0,0-.7.174,7.377,7.377,0,0,1-.135-4.9Z" fill="#fefffd"/><path d="M28.678,33.988c-.1-.317.327-.768.272-1.09s-.491-.616-.5-.944.3-.648.344-.974a6.6,6.6,0,0,1,.078-.989,6.512,6.512,0,0,1,.406-.9,6.9,6.9,0,0,1,.336-.96,6.829,6.829,0,0,1,.572-.85c.224-.239.728-.187.991-.393s.336-.7.619-.861a8.374,8.374,0,0,1,.943-.369,8.313,8.313,0,0,1,.939-.37,7.946,7.946,0,0,1,1-.167,8.245,8.245,0,0,1,1.006.091c.327,0,.628.263.954.3a7.745,7.745,0,0,1,.987-.005c.315.081.551.365.859.487s.757-.025,1.036.144A7.474,7.474,0,0,1,40.9,27.6c.222.248.7.308.884.584s-.037.792.109,1.09.613.458.723.774a8.207,8.207,0,0,1,.249.982,9.555,9.555,0,0,1,.319.984c.031.332-.3.69-.309,1.023s.331.708.285,1.038-.412.614-.5.936a8.058,8.058,0,0,1-.438.9c-.125.308-.051.713-.217,1a7.344,7.344,0,0,1-.615.8,7.068,7.068,0,0,1-.653.766c-.236.228-.644.245-.918.441s-.4.661-.7.81a7.03,7.03,0,0,1-1,.281,7.013,7.013,0,0,1-1,.206c-.335.055-.679-.136-1.017-.131s-.715.482-1.052.437a7.4,7.4,0,0,1-1.01-.312c-.326-.094-.536-.515-.847-.658A6.539,6.539,0,0,1,32.362,39c-.28-.184-.671-.211-.927-.44A.951.951,0,0,0,30.5,38.3a1.043,1.043,0,0,0-.573.75c-.1.3.008.414.311.7.258.234.251.784.53.984a9.823,9.823,0,0,0,.844.657c.3.167.732.12,1.051.25a9.71,9.71,0,0,0,.941.5c.335.092.76-.225,1.1-.172s.654.42,1,.433a9.221,9.221,0,0,0,1.062.06,9.884,9.884,0,0,0,1.035-.255c.336-.068.573-.509.9-.616a8.378,8.378,0,0,0,.9-.446c.305-.162.7-.109.983-.3s.782-.122,1.042-.34a10.267,10.267,0,0,0,.73-.761c.237-.247.2-.742.407-1.011a9.224,9.224,0,0,0,.59-.823,9.611,9.611,0,0,0,.556-.855c.15-.308.547-.524.663-.844a10.281,10.281,0,0,0,.086-1.06c.082-.331.088-.678.137-1.016a10.211,10.211,0,0,0,.272-1.011c.012-.34-.16-.686-.183-1.028a10.216,10.216,0,0,0-.245-.994c-.06-.333.224-.756.129-1.086s-.633-.5-.763-.822a9.366,9.366,0,0,0-.452-.894c-.159-.3.1-.849-.087-1.127s-.624-.39-.841-.647a9.878,9.878,0,0,0-.641-.785,9.693,9.693,0,0,0-.83-.583c-.262-.207-.418-.589-.7-.77a10.078,10.078,0,0,0-.915-.424,9.931,9.931,0,0,0-.973-.239,9.93,9.93,0,0,0-.992-.088,9.852,9.852,0,0,0-.951-.259,9.515,9.515,0,0,0-.984.015c-.328,0-.667-.139-.994-.1s-.618.288-.939.357a9.982,9.982,0,0,0-1,.085c-.312.1-.682.092-.984.225s-.518.453-.806.618c-.3.174-.432.581-.706.786a8.7,8.7,0,0,0-.857.558,8.036,8.036,0,0,0-.7.747c-.218.27-.632.4-.814.7a9.066,9.066,0,0,0-.341,1,8.532,8.532,0,0,0-.2,1.019,8.088,8.088,0,0,0-.3.968c-.064.338-.321.647-.342.993a8.154,8.154,0,0,0,.111,1.036c.019.343.287.636.351.979a7.86,7.86,0,0,0,.092,1.016c.122.382.3.427.61.491.332.07.646.169.889-.05a1.33,1.33,0,0,0,.423-1.154c-.112-.087-.457.328-.458.326" fill="#0d4b08"/><path d="M28.819,33.081a3.617,3.617,0,0,0-.985.28,3.506,3.506,0,0,0-.847.542c-.248.2-.243.631-.425.9a2.7,2.7,0,0,0-.313.821,2.772,2.772,0,0,0-.159.869c.013.31-.288.7-.18,1.005a5.455,5.455,0,0,0,.423.927,5.233,5.233,0,0,0,.684.75c.227.229.643.263.91.44s.653.073.952.194.455.707.774.766.674-.314,1-.319c.535-.005.679-.265.684-.8-.011-.532-.152-.884-.684-.894-.279-.01-.524-.242-.793-.315s-.635.077-.882-.056c-.146-.081-.122-.447-.257-.545.167.119.057-.066.022-.1-.059-.052-.39.184-.444.127s-.183-.069-.238-.129c.14.168.43-.325.4-.368-.043-.066-.41.073-.448.006-.014-.024-.284-.236-.231-.115s.139-.2.13-.223c-.023-.074-.053-.15-.07-.225-.009-.037.056-.09.05-.128.014.12-.239.17-.247.1s.421-.177.421-.253c0-.03-.28-.29-.288-.14s-.042-.128-.033-.162.523-.114.472.023-.424-.3-.408-.325.465-.035.387.084-.1-.185-.076-.209c.05-.052-.054-.274,0-.322s.074-.012-.017.061c.029-.021.128.007.158-.012.06-.038.279.17.339.131s-.015-.1-.125-.057c.033-.014.07-.012.1-.023.067-.023.092-.226.161-.241.255-.057-.111-.091.091-.1.537,0,1.113-.192,1.113-.729s-.679-.748-1.216-.748c-.118-.056.095-.484.093-.484" fill="#0d4b08"/><path d="M38.614,34.078c.021.367.524.52.82.738a.6.6,0,0,0,.546.122.738.738,0,0,0,.633-.48,1,1,0,0,0,.149-.667,1.037,1.037,0,0,0-.365-.6.9.9,0,0,0-1.274-.025c-.236.234-.584.455-.55.785a.09.09,0,0,0,.041.126" fill="#0d4b08"/><path d="M34.208,35.021c.02.367-.026.885.27,1.1.208.133.532-.239.774-.286.336-.06.417-.147.567-.453.11-.248.32-.386.266-.639A1.312,1.312,0,0,0,35.812,34a1.376,1.376,0,0,0-1.618-.081,1.812,1.812,0,0,0-.282,1.191c.024.052.3-.093.3-.091" fill="#0d4b08"/><path d="M39.887,28.383c-.217.2-.326.533-.571.7s-.659.022-.927.151-.35.656-.627.758c-.137.048-.324-.035-.464,0-.063.016-.131-.032-.195-.021.112-.013.3-.08.195-.071.194.335-.131.551.1.859s.186.535.532.707a5.485,5.485,0,0,0,.368-1.344c-.047-.361-.416-.6-.771-.811-.426-.258-.683-.055-1.06.122a10.38,10.38,0,0,0-1.109.545c-.324.2-.59.535-.929.707s-.776.166-1.127.311-.791.046-1.152.163-.71.262-1.08.35a1.161,1.161,0,0,0-.681,1.362c.153.487.7.588,1.191.47.35-.087.728-.048,1.071-.156s.731-.1,1.067-.227.723-.162,1.05-.311c.441-.2.747-.682,1.164-.927.22-.129.619.016.832-.125.108-.071.064-.372.169-.446.063-.044.223.2.288.154.179-.113,0-.286-.208-.193-.253-.015-.248-.1-.43-.278-.212-.55-.26-.644-.254-.4-.006.067-.3-.022-.29-.083-.023.09.4.338.381.43a.546.546,0,0,0,.1.544c.129.217.116.461.379.53.076.019.144.174.222.175A6.515,6.515,0,0,0,38.382,32a6.352,6.352,0,0,0,1.1-.6c.363-.175.5-.728.829-.957a7.278,7.278,0,0,0,.921-.719.677.677,0,0,0-.052-1.1.761.761,0,0,0-1.14-.045c-.063.033-.148-.2-.15-.194" fill="#0d4b08"/><path d="M40.286,55.52c.053.321.255.62.3.942s-.178.683-.134,1.006.208.628.247.952-.032.658,0,.982.218.632.25.956-.148.668-.119.992.453.616.479.94c.029.374-.045.757-.021,1.131s.227.744.241,1.119-.039.759-.04,1.134-.167.774-.2,1.16c-.021.238-.147-.2-.185,0-.013.06.282.176.273.237-.028.185-.259-.019-.22-.011.039-.087.335.1.305.155-.053.082-.433-.333-.319-.494.2-.15.255.026.409-.169-.315.1-.387.5-.7.592s-.726-.144-1.046-.061-.615.252-.937.325-.612.3-.937.366-.7-.2-1.03-.147-.575.654-.9.7-.7-.288-1.03-.258-.644.266-.974.286-.666.028-1,.037-.665-.129-1-.13c-.376.023-.751.088-1.127.091s-.745-.192-1.121-.209-.762.145-1.136.108-.7-.415-1.069-.473-.818.3-1.186.223a1.663,1.663,0,0,1-.909-.494c-.163-.244-.031-.662.013-.918.067-.352-.032-.74.04-1.092s.579-.609.657-.96.189-.69.272-1.039c.075-.319.072-.654.151-.972s-.088-.7-.006-1.015.016-.674.1-.991.3-.6.387-.914.016-.676.1-.992.358-.58.447-.9.415-.568.5-.883a1.241,1.241,0,0,0-.855-1.332,1.161,1.161,0,0,0-1.259.751c-.087.306.063.681-.023.987s-.307.575-.392.882-.3.577-.387.884-.283.584-.365.891.113.689.033,1-.484.534-.561.843.1.713.027,1.037-.438.584-.512.909.235.739.167,1.065c-.093.3-.334.563-.4.869s.075.642.043.952-.37.622-.372.934c.038.377.57.552.73.819a1.791,1.791,0,0,0,.642.617c.272.181.451.489.78.6a7.634,7.634,0,0,0,.947.39c.341.065.655.34.975.386.363.046.751-.02,1.116.013s.759-.353,1.125-.336.723.052,1.09.055.725-.006,1.092-.017.733.054,1.1.028c.348,0,.695-.03,1.043-.046s.7.094,1.048.067.722.192,1.068.153.69-.152,1.035-.2.684-.161,1.027-.223.624-.429.964-.5.662-.2,1-.283.683-.115,1.018-.211.783.158,1.114.051a2.161,2.161,0,0,0,.848-.537,2.435,2.435,0,0,0,.335-.918c.055-.271-.155-.609-.137-.91.014-.351-.253-.7-.253-1.052s.515-.712.5-1.063-.438-.679-.467-1.029-.165-.689-.191-1.038.157-.713.126-1.062.13-.715.1-1.063-.346-.667-.385-1.015-.079-.693-.123-1.04.312-.748.265-1.1-.5-.636-.547-.982.291-.772.234-1.118a1.516,1.516,0,0,0-1.522-.9c-.51.153-.631.945-.5,1.461,0,.038-.175.019-.175.02" fill="#0d4b08"/><path d="M32.229,52.93a.614.614,0,0,0,.555.195,1.349,1.349,0,0,0,.54-.28,5.133,5.133,0,0,0,1.363-2.35,2.785,2.785,0,0,0,.135-1.232,1.8,1.8,0,0,0-.382-.975,2.359,2.359,0,0,0-2.857-.4,2.908,2.908,0,0,0-1.108,1.355,4.869,4.869,0,0,0-.342,1.736" fill="#fefffd"/><path d="M31.726,53.436c.254.252.358.8.7.847A2,2,0,0,0,33.51,54a3.72,3.72,0,0,0,.728-.488c.205-.192.194-.578.347-.816.148-.215.619-.251.739-.483s-.283-.7-.193-.948c.116-.266.753-.365.822-.646a5.612,5.612,0,0,0,.16-.9,3.368,3.368,0,0,0-.186-1.225,3.281,3.281,0,0,0-.688-1,3.118,3.118,0,0,0-1.04-.542,3.432,3.432,0,0,0-.894-.355c-.316-.051-.616.248-.93.288a2.876,2.876,0,0,0-.862.208c-.287.126-.661.08-.909.289a4.872,4.872,0,0,0-.531.841c-.186.275-.619.432-.744.739a5.234,5.234,0,0,0-.289.993c-.059.324.132.691.141,1.026a.9.9,0,0,0,.949.893.848.848,0,0,0,.876-.9c0-.1.39-.182.4-.282,0-.043-.12-.28-.14-.132.031-.229-.16-.506-.092-.726.029-.1.2-.144.242-.237-.052.14-.23-.168-.206-.212.039-.076.277-.05.321-.122.023-.036.291.086.315.051.01-.016-.269-.427-.335-.344s.049-.172.077-.2c.059-.061.4.16.461.1.073-.076-.136-.133-.152-.121.035-.024-.018-.173.013-.195.085-.057.324.136.418.1-.169.07.016-.319.059-.33s.126.17.17.161c-.02,0-.129.035-.017.037.088,0,.181-.189.27-.186.045,0,.076.019.122.021-.1,0-.058.071.032.088s.067.414.152.441c.053.017.451-.424.312-.495.079.042-.113.581-.037.627.036.022.239-.231.275-.21.111.066-.2.211-.091.241.019,0,.053.078-.049-.025-.084-.084.34-.274.356-.247.036.061-.178.268-.142.33.085.15.215-.219.257-.045.022.091-.2.239-.184.331.022.107.232-.022.232-.039,0,.048-.356.1-.354.146,0,.1.147.19.148.285,0,.111.319.021.325,0-.008.048-.02.138-.03.185-.024.109-.189.206-.225.312-.058.181-.192.345-.261.522-.024.06-.066.044-.09.1.006-.015-.021-.169-.068-.068s-.239.1-.283.19a4.411,4.411,0,0,1-.223.529c-.023.035,0,.1-.022.137-.075.121.214-.009.122.1-.067.075-.33-.036-.4.037-.041.042.007.167-.034.209-.13.132.267.078.268.054,0,.015-.438.176-.307.1.1-.054.15.166.117.166.041-.006.119-.343-.013-.359.081.023.157.237.045.21-.078-.019-.032.168-.009.191-.386-.373-.713-.411-1.085-.025a.815.815,0,0,0-.118,1.21c.119.044.176-.154.18-.15" fill="#0d4b08"/><path d="M42.741,40.161c.327.055.676,0,1,.049s.721-.3,1.049-.252.629.266.957.317.6.459.929.51.736-.421,1.064-.371.618.355.946.4.663.051.991.1.617.362.946.411.652.126.98.175.678-.045,1.006,0c.291.044.626-.2.918-.155s.6-.024.9.022c.046.007.312.517.343.495-.023.014-.161-.522-.238-.5-.136.033.033-.051-.1.129-.024.032.175.261.172.3-.017.426.1.858.077,1.284s-.064.871-.083,1.308c0,.085-.29.4-.3.426.087-.165.193.088.054.028-.153-.013-.261.1-.411.134-.31.022-.658-.371-.968-.35s-.621.008-.931.027-.587.589-.9.606c-.326.019-.655,0-.981.017s-.675-.436-1-.42-.647.133-.973.148-.653,0-.979.012-.641.286-.967.3-.669-.358-.995-.344c-.4.018-.405.633-.549.912-.156.3-.673.678-.527.971a1.437,1.437,0,0,0,1.1.638c.331-.015.661-.064.992-.079s.659-.12.991-.134.654-.217.985-.232.666.039,1,.023.646-.34.978-.357.663-.006.994-.025c.363-.021.74.2,1.1.175s.718-.178,1.081-.2.742.257,1.1.226a2.292,2.292,0,0,0,.846-.17c.243-.1.371-.454.555-.651a2.274,2.274,0,0,0,.3-.769,2.233,2.233,0,0,0,.048-.816c.015-.323.417-.631.437-.955s-.106-.661-.092-.985-.224-.657-.227-.981a1.653,1.653,0,0,0-.126-.838c-.139-.263-.44-.305-.689-.469s-.394-.443-.7-.466c-.324-.051-.6-.389-.927-.439s-.659-.027-.983-.076-.718.374-1.041.326-.591-.481-.915-.529-.675.089-1,.04-.659.054-.978.006-.612-.262-.93-.31-.666.1-.985.045-.607-.288-.925-.337-.631-.134-.949-.184-.665.075-.983.024-.561-.5-.879-.553c-.515-.127-.976.391-1.131.9-.139.517-.135,1.223.38,1.369.109.1.144.091.146.091" fill="#0d4b08"/><path d="M41.866,47.371c-.049.31-.2.578-.276.88s-.141.6-.231.9.074.672-.015.971-.084.619-.159.922c-.081.33-.579.562-.656.893s.386.786.311,1.118-.543.57-.621.9a1.413,1.413,0,0,0,.761,1.5,1.554,1.554,0,0,0,1.555-.864c.077-.331.044-.7.119-1.029s-.253-.756-.176-1.087.315-.626.4-.956c.075-.3.507-.5.6-.8s-.324-.748-.235-1.047.423-.526.5-.828.094-.617.142-.926c.127-.515-.079-1.265-.586-1.421a1.477,1.477,0,0,0-1.52.836" fill="#0d4b08"/><path d="M38.169,54.868c-.342.081-.665.285-1.01.35s-.7.141-1.048.19c-.061.009-.131-.5-.192-.49.108-.015.147.137.075.146-.144.017-.146-.006-.29.012-.164.019-.295.345-.459.36-.357.034-.73-.145-1.088-.128a1,1,0,0,0-.949,1.021.936.936,0,0,0,.95.951l0,.076c.38-.019.759-.069,1.137-.1s.776.053,1.153,0,.775-.025,1.149-.1.759-.17,1.129-.257c.514-.146.728-.9.59-1.418a.907.907,0,0,0-1.15-.613" fill="#0d4b08"/><path d="M57.335,45.326a1.543,1.543,0,0,0,1.5,1.272,3.074,3.074,0,0,0,1.119.16,3.015,3.015,0,0,0,1.117-.059c.318-.161.829-.024,1.072-.26s.294-.69.458-.992a3.378,3.378,0,0,0,.279-.984,3.223,3.223,0,0,0,.01-1.005c-.037-.338.112-.446-.031-.773-.349.166-.268.127-.5.434s-.618.167-.621.554c.464.016,1-.208,1.467-.214.264.016.524.223.788.207a6.424,6.424,0,0,0,.779-.107c.334-.1.838-.065,1.059-.3a2.506,2.506,0,0,0,.5-1.017c.072-.319-.424-.643-.528-.977-.059-.189.226-.548.112-.711-.2-.25-.58-.355-.836-.541s-.426-.63-.723-.744a4.093,4.093,0,0,0-.987-.21c-.4-.094-.809-.147-1.216-.228s-.868.119-1.276.053c-.371-.082-.756-.343-1.126-.312a4.1,4.1,0,0,0-1.083.43,3.739,3.739,0,0,0-.9.65.773.773,0,0,0,.094,1.194c.376.363.672.3,1.048-.063.082-.074.144-.006.062.06.048-.032.239.1.291.072.1-.05.188.073.1.114.057-.021-.034-.371.024-.388.089-.026.271.339.36.317a.087.087,0,0,0-.022-.172c.058-.006.109-.028.168-.032.181-.012.348-.159.528-.153-.3,0-.028.064.052.074.1.016.073.177.173.2.287.05.571.109.858.165s.62-.115.905-.053.508.386.791.458c.171.044.321.127.49.182.027.009.37-.208.248-.266.006,0,.022.509-.1.413.048.041.528-.223.571-.175-.052-.075-.118-.1-.056-.01s-.078.362-.122.274c.023.1.16-.034.149-.1s-.244.056-.236.163c.018-.094-.132-.215-.16-.1.01-.055.139-.134.18-.171-.081.075-.023-.077.069-.159-.234.1.178.014-.052.1-.11.023-.031.22.122.2-.065,0-.147-.25-.211-.25-.267.008-.527.334-.793.337-.5.008-1-.035-1.495-.052-.539,0-.766.368-.763.908a.437.437,0,0,0,.031.159c.194.417-.243.913-.347,1.361-.034.165.07.309-.028.446a.658.658,0,0,1-.354.273c-.064.033-.062.31.011.271-.1.026-.03-.157.052-.178a3.687,3.687,0,0,1-.368.074,1.61,1.61,0,0,1-.542-.081c-.042-.012-.348-.1-.184-.019a2.489,2.489,0,0,1-.218-.151c.17.106-.137.021-.181-.016.071.1.454-.081.4-.17s-.037-.013.021.109a1.217,1.217,0,0,0-1.42-.6.841.841,0,0,0-.579,1.113c.028.053,0,.008,0,.012" fill="#0d4b08"/><path d="M30.119,38.988c-.323.087-.495.662-.8.779s-.814-.2-1.11-.055-.556.41-.837.585-.518.437-.781.639-.611.325-.853.552-.158.769-.377,1.018-.758.241-.952.511-.152.7-.319.985a9.89,9.89,0,0,0-.494.859,9.764,9.764,0,0,0-.308.941c-.107.312-.258.607-.335.932s.047.668,0,1a8.222,8.222,0,0,0-.007,1.006,8.763,8.763,0,0,0-.055,1.012c.035.344-.323.753-.25,1.091s.4.622.506.949a8.484,8.484,0,0,0,.454.929,7.52,7.52,0,0,0,.531.875,6.718,6.718,0,0,0,.727.714c.231.259.344.6.613.815s.459.55.766.715.722.014,1.058.12c.321.1.59.374.943.419a.927.927,0,0,0,.937-.947c-.015-.53-.388-1.242-.918-1.257a2.631,2.631,0,0,1-.921-.249c-.319-.156-.891.05-1.151-.195s-.164-.79-.362-1.092-.512-.509-.652-.84.05-.743-.04-1.087a7.584,7.584,0,0,1-.221-1,7.167,7.167,0,0,1-.091-1.025c.006-.373-.237-.74-.173-1.068.062-.344.374-.615.477-.943a8.535,8.535,0,0,1,.211-1.018,8.347,8.347,0,0,1,.405-.967,8.656,8.656,0,0,1,.53-.918,8.868,8.868,0,0,1,.659-.843c.25-.24.8-.142,1.074-.35a8.163,8.163,0,0,1,.8-.657c.3-.169.514-.548.837-.68a8.436,8.436,0,0,1,1.01-.308c.507-.177,1.037-.645.86-1.152a1.437,1.437,0,0,0-1.385-.793" fill="#0d4b08"/><path d="M37.455,78.964c.3-.133.209.342.137.366s-.211-.145-.276-.127c-.132.019-.25-.14-.379-.108.159-.021.132-.11.025-.1-.062.007-.071-.111-.133-.1-.085.008-.133.487-.218.491-.168.009-.347.007-.51.006-.357,0-.707-.276-1.063-.306-.182-.016-.387.188-.569.168-.145-.017-.093-.456-.238-.474a.793.793,0,0,0-.243.015c.139.019.195.391.086.376-.253-.059-.616-.343-.845-.22-.463.27-.29.952-.02,1.416.128.219.051.8.3.868.324.077.753-.385,1.081-.344s.631.468.962.472.644-.419.974-.45.728.381,1.053.314.486-.616.8-.719c.462-.271.934-.761.665-1.225a1.332,1.332,0,0,0-1.577-.356c-.052.016-.015.041-.01.038" fill="#0d4b08"/><path d="M32.034,79.8c-.038.038.066.236.03.275-.066.075.033-.227-.064-.192s-.076.3-.161.358c-.105.056-.131-.325-.067-.344-.058.018-.149.029-.207.048-.109.035-.111.45-.222.474-.077.016-.088-.022-.166-.008-.028,0-.244.13-.1.114s-.095-.393-.117-.387c-.1.01-.092.1-.2.108A7.685,7.685,0,0,1,30,80.1c-.259-.011-.485.05-.731.023-.087-.01-.209.245-.066.268-.085-.007-.059-.225-.143-.237-.122-.019-.257.05-.38.027-.215-.04-.5.139-.71.069-.069-.023-.143-.056-.209-.08.089.033.184-.24.108-.274-.05-.025-.278.275-.327.247s-.331-.211-.141-.06c-.384-.364-.936-.75-1.321-.386a1.507,1.507,0,0,0,0,1.751c.275.182.754.1,1.051.24a6.34,6.34,0,0,0,.915.35,6.333,6.333,0,0,0,1.933.462,4.993,4.993,0,0,0,.965.069c.313-.024.575-.417.876-.5s.477-.38.753-.526.61-.127.853-.327a.812.812,0,0,0,.03-1.234,1.061,1.061,0,0,0-1.427-.208c-.008.008.319-.052.311-.044-.052-.058-.31.068-.311.07" fill="#0d4b08"/></g></g></svg>