<svg xmlns="http://www.w3.org/2000/svg" xmlns:xlink="http://www.w3.org/1999/xlink" width="128.952" height="112.107" viewBox="0 0 128.952 112.107"><defs><clipPath id="a"><rect width="128.952" height="112.107" transform="translate(0 0)" fill="none"/></clipPath></defs><g clip-path="url(#a)"><path d="M41.142,10.355c-.367-.365-.549.254-1.067.254s-.519-.261-1.037-.261-.52-.164-1.039-.164-.519.424-1.038.424-.518-.133-1.036-.133-.518-.081-1.036-.081-.517-.237-1.035-.237-.519.383-1.037.383-.519-.289-1.038-.289-.52.054-1.039.054-.519.189-1.038.189-.519.071-1.037.071-.519-.058-1.038-.058-.52.058-1.039.058-.52-.132-1.039-.132-.519-.165-1.039-.165-.519-.021-1.038-.021-.521.078-1.041.078-.518.079-1.035.079-.518.17-1.035.17-.518-.2-1.036-.2-.521-.059-1.042-.059-.519.2-1.038.2-.52-.206-1.039-.206-.521-.04-1.042-.04-.52.111-1.041.111-.521-.237-1.042-.237-.518.109-1.037.109-.522.121-1.043.121-.522.117-1.045.117-.523-.327-1.047-.327-.524.459-1.048.459c-.352,0-.719-.333-1.057-.28a7.022,7.022,0,0,0-1.068.136c-.332.108-.558.514-.865.67a6.6,6.6,0,0,0-.8.648,6.247,6.247,0,0,0-.75.677,6.406,6.406,0,0,0-.737.707,5.725,5.725,0,0,0-.832,1.85,6.346,6.346,0,0,0-.307.969c-.053.338-.417.665-.417,1.017,0,.508.278.508.278,1.015s.132.508.132,1.016-.245.508-.245,1.017-.15.509-.15,1.019.043.51.043,1.019.052.509.052,1.018.258.509.258,1.017-.375.508-.375,1.016.44.508.44,1.016-.282.507-.282,1.015.135.508.135,1.016.039.508.039,1.016-.193.509-.193,1.018.021.509.021,1.019-.085.511-.085,1.021-.028.51-.028,1.02.355.509.355,1.018.014.509.014,1.018-.2.509-.2,1.017.02.51.02,1.019-.008.51-.008,1.02-.112.511-.112,1.022.118.51.118,1.019-.2.51-.2,1.02-.011.509-.011,1.019.21.511.21,1.022.138.51.138,1.021.08.51.08,1.02-.309.51-.309,1.021.322.511.322,1.021-.139.509-.139,1.018-.293.509-.293,1.017-.028.509-.028,1.019.376.511.376,1.023.024.51.024,1.02-.27.511-.27,1.021.079.512.079,1.024-.075.512-.075,1.023,0,.512,0,1.024.179.51.179,1.019.119.513.119,1.025.008.514.008,1.027-.241.515-.241,1.029-.051.515-.051,1.03c0,.352.331.662.384,1s-.191.752-.085,1.079a6.711,6.711,0,0,0,.485.933c.158.31.493.5.7.776s.206.729.451.974.721.209,1,.414.449.555.759.713a6.716,6.716,0,0,0,1.012.232c.326.106.582.522.928.576a7.045,7.045,0,0,0,1.061.03c.518,0,.518.04,1.036.04s.519-.07,1.037-.07.52,0,1.039,0,.519.117,1.038.117.518-.166,1.036-.166.518-.041,1.035-.041.518.07,1.036.07.519-.066,1.037-.066.519-.064,1.038-.064.52-.137,1.039-.137.519,0,1.038,0,.519.241,1.037.241.519-.263,1.038-.263.519.116,1.039.116.52-.112,1.039-.112.519.157,1.038.157.52-.055,1.039-.055.52-.048,1.04-.048.518-.023,1.036-.023.518.271,1.035.271.518-.228,1.036-.228.521.033,1.041.033.52.244,1.039.244.519-.1,1.039-.1.521-.131,1.042-.131.52.075,1.041.075.521.1,1.041.1.519,0,1.038,0,.521-.2,1.043-.2.522.016,1.044.016.524.362,1.048.362.626.079,1-.286-.13-.462-.13-.971.28-.51.28-1.019-.071-.509-.071-1.018.191-.509.191-1.018-.264-.509-.264-1.018.2-.508.2-1.017-.152-.509-.152-1.018-.135-.509-.135-1.019.224-.509.224-1.019-.331-.506-.331-1.012.2-.507.2-1.013S40.9,56.809,40.9,56.3s.329-.507.329-1.014.063-.508.063-1.016.037-.508.037-1.016-.127-.509-.127-1.018.041-.51.041-1.02.03-.51.03-1.02-.249-.509-.249-1.018-.009-.509-.009-1.018.21-.508.21-1.016-.327-.508-.327-1.016.1-.508.1-1.017-.122-.508-.122-1.016S41,43.59,41,43.081s.218-.509.218-1.018-.207-.51-.207-1.02.121-.511.121-1.022.175-.51.175-1.02-.3-.509-.3-1.019-.109-.509-.109-1.018.063-.51.063-1.019.3-.509.3-1.019-.21-.51-.21-1.021-.145-.511-.145-1.022.415-.51.415-1.02-.273-.51-.273-1.02.2-.51.2-1.02.051-.511.051-1.022-.3-.511-.3-1.022.076-.511.076-1.021-.111-.511-.111-1.022.024-.511.024-1.022.042-.509.042-1.018-.136-.509-.136-1.018.049-.509.049-1.019.359-.512.359-1.024-.041-.51-.041-1.021.066-.511.066-1.022-.127-.512-.127-1.024-.078-.512-.078-1.024.085-.512.085-1.024.12-.51.12-1.02-.2-.513-.2-1.026-.168-.514-.168-1.027a3.252,3.252,0,0,1,.016-1.061c.127-.553.53-.668.165-1.031" fill="#fff"/><path d="M41.111,67.673c-.508,0-.508-.283-1.016-.283s-.509.17-1.017.17-.51-.317-1.02-.317-.508.382-1.017.382-.509-.208-1.017-.208-.508.063-1.016.063-.508-.008-1.016-.008-.508-.018-1.017-.018-.509.045-1.018.045-.51.219-1.02.219-.509-.37-1.018-.37-.508.091-1.017.091-.509.065-1.018.065-.51-.063-1.019-.063-.51.216-1.02.216-.509-.245-1.018-.245-.51.3-1.019.3-.51-.121-1.02-.121l-1.016,0c-.508,0-.508-.167-1.015-.167s-.509-.177-1.017-.177-.511.347-1.021.347-.51-.121-1.019-.121-.51.156-1.019.156-.512-.326-1.023-.326-.51.258-1.021.258-.511.1-1.022.1-.509-.39-1.018-.39-.511.327-1.023.327H10.55c-.514,0-.514-.327-1.028-.327s-.514.317-1.028.317c-.407,0-.818.1-1.206.065A6.12,6.12,0,0,1,6.121,67.3c-.324-.1-.553-.419-.851-.579a5.489,5.489,0,0,1-.9-.452,5.688,5.688,0,0,1-.768-.667c-.223-.254-.226-.655-.4-.945s-.659-.438-.766-.742a6.346,6.346,0,0,1-.292-.992c-.054-.325.275-.7.258-1.036s-.359-.652-.359-.991c0-.514,0-.514,0-1.028s.093-.514.093-1.029.157-.513.157-1.027-.268-.513-.268-1.026.262-.513.262-1.026.163-.512.163-1.025-.424-.512-.424-1.024.133-.513.133-1.025.081-.513.081-1.026.238-.514.238-1.027S2.1,50.121,2.1,49.607s.289-.515.289-1.03-.055-.515-.055-1.029-.189-.514-.189-1.028-.071-.513-.071-1.027.059-.514.059-1.027-.058-.514-.058-1.028.132-.515.132-1.03.164-.515.164-1.031.022-.514.022-1.029-.078-.514-.078-1.028-.08-.515-.08-1.029-.169-.516-.169-1.031.2-.515.2-1.031.059-.515.059-1.029-.2-.516-.2-1.031.206-.515.206-1.031.04-.514.04-1.028-.111-.513-.111-1.026.237-.514.237-1.027-.11-.517-.11-1.033-.121-.515-.121-1.03-.117-.515-.117-1.03.327-.517.327-1.034S2.02,25.414,2.02,24.9s.362-.516.362-1.033.117-.515.117-1.029S2.21,22.319,2.21,21.8s-.132-.518-.132-1.036-.027-.52-.027-1.039.1-.52.1-1.039c0-.3-.049-.6-.055-.9s-.07-.616-.056-.917a6.328,6.328,0,0,1,.176-.914c.064-.322.476-.533.59-.831s0-.707.169-.983a6.145,6.145,0,0,1,.471-.883c.211-.246.622-.309.871-.516a5.749,5.749,0,0,1,.864-.419,5.323,5.323,0,0,1,.833-.436,5.509,5.509,0,0,1,.9-.3c.314-.056.617-.344.946-.347.344,0,.69.371,1.035.371s.69-.439,1.035-.438.689.284,1.033.284c.519,0,.519-.135,1.038-.135s.518-.039,1.036-.039.518.193,1.036.193.518-.022,1.036-.022.519.086,1.037.086.519.028,1.039.028.519-.355,1.039-.355.519-.014,1.038-.014.519.2,1.037.2.519-.02,1.038-.02.52.008,1.04.008.519.111,1.039.111.519-.117,1.038-.117.52.2,1.04.2.52.011,1.04.011.518-.21,1.036-.21.517-.138,1.035-.138.518-.08,1.036-.08.521.309,1.042.309.519-.322,1.039-.322.519.139,1.039.139.521.292,1.042.292.52.029,1.041.029.521-.376,1.042-.376.519-.024,1.038-.024.521.27,1.043.27.522-.079,1.045-.079.523.075,1.047.075.73.339,1.107-.025-.154-.568-.154-1.074.3-.505-.056-.861-.36.07-.872.07-.512-.242-1.024-.242S38.551,9.3,38.038,9.3s-.512.307-1.024.307-.512-.335-1.024-.335-.511.09-1.022.09-.512.189-1.023.189-.512-.292-1.024-.292S32.409,9.6,31.9,9.6s-.513-.212-1.026-.212-.513.174-1.025.174-.512-.346-1.024-.346-.512.052-1.025.052-.513-.04-1.026-.04-.513.07-1.026.07H24.719c-.513,0-.513-.117-1.026-.117s-.514.165-1.027.165-.512.042-1.023.042-.511-.071-1.022-.071-.512.067-1.023.067-.514.063-1.028.063-.513.137-1.026.137-.513.005-1.026.005S16,9.346,15.489,9.346s-.514.263-1.028.263-.514-.116-1.028-.116-.513.112-1.025.112-.515-.157-1.03-.157-.516.055-1.031.055-.518.048-1.035.048-.517.024-1.034.024c-.348,0-.7-.26-1.047-.232s-.652.3-.992.372a6.286,6.286,0,0,0-.986.253c-.3.117-.7.029-.984.179a8.011,8.011,0,0,0-.784.592,7.713,7.713,0,0,0-.673.7,7.556,7.556,0,0,0-.725.635,8.016,8.016,0,0,0-.665.714,6.956,6.956,0,0,0-.5.891A7.345,7.345,0,0,0,.75,14.689a7.7,7.7,0,0,0-.245.962c-.058.329-.457.624-.483.963S.29,17.3.29,17.641c0,.515.11.515.11,1.031s-.28.515-.28,1.03.072.514.072,1.029S0,21.245,0,21.759s.264.513.264,1.027-.2.514-.2,1.027.153.514.153,1.028.135.514.135,1.029S.127,26.384.127,26.9s.33.516.33,1.031-.2.517-.2,1.034S.437,29.479.437,30s-.33.515-.33,1.03-.063.515-.063,1.03-.037.515-.037,1.03.128.515.128,1.03-.042.516-.042,1.033-.03.516-.03,1.033.249.516.249,1.032.009.515.009,1.031-.21.516-.21,1.031.327.517.327,1.034-.1.516-.1,1.033.122.516.122,1.032-.129.517-.129,1.033-.218.517-.218,1.034.207.515.207,1.03S.2,45.986.2,46.5s-.175.515-.175,1.03.3.518.3,1.035.109.517.109,1.033-.063.516-.063,1.033-.3.518-.3,1.036.21.517.21,1.035.145.518.145,1.035S0,54.253,0,54.769s.274.519.274,1.037-.2.519-.2,1.039-.051.52-.051,1.041.3.521.3,1.041c0,.339-.081.682-.088,1.025s.1.685.1,1.028-.02.68,0,1.021,0,.68.054,1.018A7.008,7.008,0,0,0,.75,64a7.143,7.143,0,0,0,.32.983c.148.322.007.806.2,1.1a8.062,8.062,0,0,0,.679.844,8.332,8.332,0,0,0,.711.822,8.311,8.311,0,0,0,.931.563,7.637,7.637,0,0,0,.964.464,7.444,7.444,0,0,0,.96.475,7.6,7.6,0,0,0,1.027.364,9.979,9.979,0,0,0,1.057-.1c.342.017.685-.148,1.028-.149s.686.007,1.028.007c.507,0,.507.168,1.013.168s.507.2,1.015.2.506-.073,1.013-.073.506-.261,1.012-.261.505.351,1.011.351.506-.386,1.011-.386.507.08,1.013.08.507-.181,1.014-.181.507.461,1.014.461.507-.437,1.014-.437.506.154,1.013.154.506.253,1.013.253.507-.224,1.015-.224.507.052,1.015.052.506-.094,1.013-.094.508.213,1.015.213.507-.125,1.015-.125.506-.233,1.012-.233.505.179,1.01.179.506.125,1.012.125.508-.235,1.017-.235.507.076,1.014.076.507.155,1.015.155.508-.282,1.017-.282.508.107,1.016.107.509-.134,1.018-.134.506.02,1.013.02.509.05,1.019.05.51.379,1.02.379.511-.2,1.023-.2.551.225.914-.135.078-.4.078-.9.278-.507.278-1.013c0-.09-.247.18-.247.18" fill="#0d4b08"/><path d="M11.568,21.348c.519,0,.519-.319,1.039-.319s.52.141,1.04.141.521-.066,1.041-.066.519-.175,1.039-.175.52-.006,1.04-.006.521-.018,1.042-.018.518.152,1.037.152.518.019,1.036.019.518-.118,1.037-.118.521.283,1.042.283.52-.171,1.04-.171.52.318,1.04.318.522-.382,1.044-.382.521.208,1.041.208.522-.063,1.044-.063.519.008,1.038.008.522.017,1.044.017.523-.044,1.046-.044.525-.22,1.049-.22.524.37,1.049.37a1.1,1.1,0,0,0,.908-.625,1.194,1.194,0,0,0-.058-1.035.949.949,0,0,0-.85-.562c-.52,0-.52.216-1.039.216s-.52-.245-1.041-.245-.52.3-1.04.3-.52-.121-1.039-.121-.52,0-1.041,0-.52-.167-1.041-.167-.518-.177-1.037-.177-.518.347-1.036.347-.519-.121-1.037-.121-.522.156-1.043.156-.52-.326-1.04-.326-.52.258-1.04.258-.521.1-1.043.1-.521-.39-1.042-.39-.521.327-1.043.327H15.755c-.522,0-.522-.327-1.044-.327s-.523.317-1.046.317-.524.107-1.048.107-.525-.13-1.049-.13c-.425,0-.822.078-.97.369a1.286,1.286,0,0,0,.106,1.074.927.927,0,0,0,.884.463c.094.046-.02.25-.02.25" fill="#0d4b08"/><path d="M41.111,25.98c-.508,0-.508-.233-1.017-.233s-.508.107-1.016.107-.507-.147-1.015-.147-.507-.077-1.015-.077-.508-.029-1.016-.029-.509-.055-1.018-.055-.509.415-1.019.415-.508-.146-1.017-.146-.508.158-1.017.158-.508-.435-1.017-.435-.509.319-1.018.319-.51-.141-1.019-.141-.509.066-1.018.066-.509.174-1.018.174-.51.007-1.019.007-.508.018-1.016.018-.507-.152-1.014-.152-.508-.019-1.016-.019-.51.118-1.02.118-.509-.283-1.019-.283-.509.17-1.018.17-.511-.317-1.021-.317-.51.382-1.02.382-.511-.208-1.022-.208-.508.063-1.017.063-.511-.008-1.022-.008-.512-.018-1.024-.018-.514.045-1.027.045-.513.219-1.027.219c-.425,0-.84-.076-.989.214a1.358,1.358,0,0,0,.081,1.107.972.972,0,0,0,.908.469c.509,0,.509.063,1.017.063s.508-.216,1.016-.216.507.245,1.015.245.508-.3,1.015-.3.508.121,1.016.121.509,0,1.018,0,.509.167,1.019.167.508.177,1.017.177.508-.347,1.017-.347.508.121,1.017.121.509-.157,1.019-.157.509.327,1.018.327.509-.258,1.018-.258.509-.1,1.018-.1.51.39,1.019.39.508-.327,1.016-.327h1.014c.508,0,.508.327,1.016.327s.51-.316,1.02-.316.51-.107,1.019-.107.509.13,1.018.13.511.2,1.022.2.51-.119,1.02-.119.51-.049,1.021-.049.508.233,1.017.233.511-.38,1.022-.38.512-.041,1.024-.041.514.364,1.027.364.475-.09.935-.318-.113-.32-.113-.827a1.375,1.375,0,0,1,.205-.781" fill="#0d4b08"/><path d="M10.567,34.312c0,.338.216.676.216,1.014s-.168.676-.168,1.015-.216.676-.216,1.014.064.676.064,1.014.136.676.136,1.014.133.677.133,1.015-.128.676-.128,1.014-.261.676-.261,1.014-.016.676-.016,1.015.358.676.358,1.014-.114.676-.114,1.014.156.676.156,1.014S10.7,47.16,10.7,47.5s.005.676.005,1.014-.018.676-.018,1.014-.084.676-.084,1.015-.1.676-.1,1.014-.011.676-.011,1.014-.169.676-.169,1.014.237.677.237,1.015.01.676.01,1.014.14.676.14,1.014c0,.284-.382.567-.382.85s.2.567.2.85a.97.97,0,0,0,.391.647.842.842,0,0,0,.647.279c.348,0,.7.036,1.044.036s.7.233,1.044.233.7-.093,1.044-.093.7-.073,1.044-.073.7-.221,1.044-.221.7.283,1.044.283.7.078,1.044.078.7-.308,1.044-.308.7-.08,1.044-.08.7.233,1.045.233.7-.107,1.044-.107.7.146,1.044.146.7.078,1.044.078.7.029,1.044.029.7.055,1.044.055.7-.415,1.044-.415.7.146,1.044.146.7-.159,1.044-.159.7.436,1.044.436.7-.319,1.044-.319.7.141,1.045.141.7-.066,1.044-.066.7-.174,1.044-.174a.645.645,0,0,0,.56-.245.63.63,0,0,0,.22-.56c0-.334.152-.667.152-1s.018-.666.018-1-.118-.667-.118-1,.284-.667.284-1-.171-.667-.171-1,.318-.667.318-1-.383-.667-.383-1,.209-.667.209-1-.063-.667-.063-1,.008-.667.008-1,.017-.667.017-1-.044-.667-.044-1-.22-.667-.22-1,.37-.667.37-1-.09-.667-.09-1-.065-.667-.065-1,.063-.667.063-1-.217-.667-.217-1,.246-.668.246-1-.3-.668-.3-1,.122-.668.122-1,0-.667,0-1,.167-.667.167-1,.178-.667.178-1c0-.273-.433-.452-.617-.637s-.363-.39-.637-.39c-.522,0-.522.156-1.044.156s-.521-.326-1.042-.326-.52.258-1.041.258-.521.1-1.042.1-.522-.391-1.043-.391-.522.328-1.044.328H28.285c-.522,0-.522-.327-1.043-.327s-.522.316-1.044.316-.52.108-1.041.108-.519-.131-1.038-.131-.521-.2-1.041-.2-.523.12-1.045.12-.522.049-1.043.049-.522-.234-1.043-.234-.523.381-1.046.381-.523.04-1.045.04-.523-.364-1.046-.364-.521.339-1.042.339-.523,0-1.047,0-.524-.093-1.049-.093-.526-.157-1.052-.157-.525.268-1.051.268c-.425,0-.747-.025-.9.265a1.425,1.425,0,0,0-.146,1.126c.148.29.615.191,1.041.191.521,0,.521.133,1.043.133s.521.081,1.042.081.521.238,1.041.238.521-.383,1.042-.383.522.289,1.044.289.521-.055,1.043-.055.521-.189,1.042-.189.522-.071,1.044-.071.522.059,1.044.059.52-.058,1.04-.058.519.131,1.039.131.52.165,1.04.165.523.021,1.046.021.521-.077,1.042-.077.522-.08,1.043-.08.524-.169,1.047-.169.522.2,1.045.2.523.059,1.046.059.52-.2,1.041-.2.524.206,1.047.206.525.04,1.049.04.526-.112,1.052-.112,1.28.525,1.3,0c.027-.716-.589-.739-1.185-1.138,0,.336-.094.786-.094,1.122s.117.671.117,1.006-.327.671-.327,1.007.458.671.458,1.006-.362.671-.362,1.007-.117.67-.117,1.006.289.671.289,1.006.132.671.132,1.007.027.671.027,1.006-.1.671-.1,1.007.04.671.04,1.006.062.671.062,1.007-.073.671-.073,1.006-.338.671-.338,1.006.278.671.278,1.007.131.671.131,1.006-.244.671-.244,1.007-.15.671-.15,1.006.043.671.043,1.007.051.671.051,1.006.259.671.259,1.006-.376.64-.376.96.44.64.44.96-.186.689-.186,1.009c.591-.4.524-.505.917-1.1-.348,0-.634.154-.982.154s-.7-.193-1.044-.193-.7.022-1.045.022-.7-.086-1.044-.086-.7-.028-1.044-.028-.7.355-1.044.355-.7.014-1.044.014-.7-.2-1.044-.2-.7.02-1.044.02-.7-.008-1.044-.008-.7-.111-1.044-.111-.7.117-1.044.117-.7-.2-1.044-.2-.7-.011-1.045-.011-.7.21-1.044.21-.7.138-1.044.138-.7.08-1.044.08-.7-.309-1.044-.309-.7.322-1.044.322-.7-.139-1.044-.139-.7-.292-1.044-.292-.7-.029-1.044-.029-.566.135-.914.135a2.22,2.22,0,0,0,.983.948c0-.338-.01-.527-.01-.866s-.079-.677-.079-1.016.075-.677.075-1.016,0-.677,0-1.016-.179-.677-.179-1.016-.119-.678-.119-1.016-.008-.678-.008-1.016.241-.678.241-1.017.051-.677.051-1.016-.306-.677-.306-1.016.334-.677.334-1.016-.09-.677-.09-1.016-.188-.677-.188-1.016.291-.677.291-1.016-.337-.678-.337-1.016.212-.678.212-1.016-.173-.647-.173-.97.345-.646.345-.969-.052-.647-.052-.97.04-.646.04-.969-.07-.647-.07-.97,0-.646,0-.97.117-.646.117-.969-.166-.646-.166-.97a.93.93,0,0,0-.54-.849,1.2,1.2,0,0,0-1.037-.063.979.979,0,0,0-.47.912c0,.006,0,0,0,0" fill="#0d4b08"/><path d="M18.469,54.446a2,2,0,0,1-.931-.093,2.109,2.109,0,0,1-.729-.648c-.146-.25.09-.644.1-.954a6.225,6.225,0,0,1,.155-.94,5.924,5.924,0,0,1,.257-.909c.1-.3-.018-.7.135-.993a6.923,6.923,0,0,1,.535-.827,7.242,7.242,0,0,1,.6-.711,7.859,7.859,0,0,1,.693-.623c.265-.225.437-.611.73-.787a6.96,6.96,0,0,1,1.018-.321,7.034,7.034,0,0,1,1.043-.1,6.54,6.54,0,0,1,.991-.216,6.98,6.98,0,0,1,1.028-.136,7.164,7.164,0,0,1,1.058.027,7.268,7.268,0,0,1,.963.438c.316.128.5.509.8.687a6.129,6.129,0,0,1,.8.594c.24.2.708.152.916.374a7.628,7.628,0,0,1,.511.793,7.5,7.5,0,0,1,.653.76,6.949,6.949,0,0,1,.378.926,5.745,5.745,0,0,1,.343,1.959,1.789,1.789,0,0,1-.311.88,1.748,1.748,0,0,1-.7.545,1.613,1.613,0,0,1-.825.206c-.508,0-.508-.169-1.018-.169s-.509.237-1.017.237-.511.011-1.021.011-.51.139-1.021.139-.51-.381-1.021-.381-.507.2-1.017.2-.51.116-1.021.116-.513,0-1.024,0-.514-.037-1.027-.037-.515-.237-1.028-.233c0,0,0,.19,0,.19" fill="#0d4b08"/><path d="M27.961,41.028c-.154-.258-.492-.385-.7-.622s-.263-.608-.506-.8a4,4,0,0,0-.815-.459,7,7,0,0,0-.944-.43c-.3-.081-.65.091-1.047.052a4.552,4.552,0,0,0-.777-.162c-.261.022-.518.1-.774.148a4.276,4.276,0,0,0-1.016.138c-.3.132-.527.454-.8.646a3.876,3.876,0,0,0-.633.752,5.332,5.332,0,0,0-.552.871c-.168.285-.566.452-.7.826-.089.24.068.543.029.8a6.165,6.165,0,0,0-.185.75,5.543,5.543,0,0,0,.235.917,4.613,4.613,0,0,0,.294.867c.116.3-.046.736.133.994a5.046,5.046,0,0,0,.876,1.092,7.142,7.142,0,0,0,.856.625c.275.158.692.049,1.065.182a3.968,3.968,0,0,0,.954.224,5.818,5.818,0,0,0,.988.02,6.45,6.45,0,0,0,.983-.126c.29-.068.494-.368.784-.505a4.94,4.94,0,0,0,.864-.317c.258-.189.648-.251.841-.479a5.128,5.128,0,0,0,.737-1.177,5.379,5.379,0,0,0,.24-1.038,7.266,7.266,0,0,0,.034-1.045,3.815,3.815,0,0,0,.094-.93c-.046-.314.123-.7.016-1s-.416-.546-.575-.811" fill="#0d4b08"/><path d="M127.817,101.586c-.066-.335-.007-.694-.073-1.028s-.118-.672-.185-1,.008-.7-.06-1.031-.354-.623-.422-.956-.066-.684-.136-1.018-.092-.679-.162-1.012-.042-.689-.113-1.022-.117-.673-.188-1.006-.048-.687-.12-1.02-.516-.584-.589-.916.111-.722.038-1.054-.2-.653-.273-.985-.147-.665-.223-1-.2-.652-.276-.984-.216-.648-.293-.979-.264-.636-.341-.967.013-.7-.065-1.03.044-.709-.034-1.039-.277-.632-.355-.962-.166-.658-.246-.987.012-.7-.068-1.031-.131-.666-.212-1-.431-.592-.513-.922-.336-.613-.417-.941-.132-.664-.214-.993.04-.707-.042-1.036-.36-.608-.443-.936.057-.714-.027-1.043-.2-.649-.287-.978-.1-.676-.183-1-.388-.6-.473-.929-.012-.7-.1-1.028-.214-.649-.3-.98-.012-.7-.1-1.037-.335-.6-.422-.921-.306-.6-.4-.922-.257-.612-.362-.926.059-.728-.061-1.037-.454-.529-.592-.831-.172-.653-.332-.943-.459-.489-.645-.766-.412-.5-.625-.755-.172-.731-.412-.969-.471-.527-.735-.754-.53-.466-.809-.677-.718-.189-1.009-.383-.568-.389-.869-.567-.591-.353-.9-.517-.6-.337-.918-.488-.71-.1-1.031-.235-.566-.424-.891-.554-.564-.454-.892-.576-.671-.176-1-.29-.7-.093-1.03-.2-.7-.083-1.032-.186-.623-.323-.96-.422-.592-.444-.93-.539-.66-.2-1-.294-.76.164-1.1.074-.64-.287-.98-.376-.707-.023-1.045-.111-.668-.194-1.008-.282-.538-.2-.878-.286c-.4.33.038.249.038.918,0,.291-.084.639-.084,1.038,0,.315-.1.662-.1,1.037,0,.324-.011.668-.011,1.033,0,.329-.169.674-.169,1.034,0,.333.237.678.237,1.035,0,.336.01.681.01,1.036,0,.338.14.683.14,1.037s-.382.685-.382,1.037.2.686.2,1.038.117.685.117,1.034,0,.686,0,1.036-.036.687-.036,1.036-.233.689-.233,1.038.093.69.093,1.039.073.691.073,1.04.221.688.221,1.035-.283.69-.283,1.037-.079.691-.079,1.037.309.694.309,1.041.08.7.08,1.044-.233.695-.233,1.042.107.7.107,1.043-.147.7-.147,1.043-.077.7-.077,1.042-.029.7-.029,1.043-.055.7-.055,1.041.415.7.415,1.041-.146.7-.146,1.047.158.7.158,1.043-.435.7-.435,1.04.319.7.319,1.04-.141.7-.141,1.038.05.728.05,1.066c-.315-.145-.724-.124-1.024-.259s-.621-.271-.926-.4-.621-.252-.93-.384-.552-.4-.866-.533-.6-.273-.919-.406c-.3-.125-.656-.145-.978-.278-.3-.124-.5-.515-.826-.649a6.674,6.674,0,0,0-1.077-.163c-.349-.08-.672-.447-1.029-.472s-.725.359-1.081.386a7.85,7.85,0,0,0-1.089-.045,7.163,7.163,0,0,0-1.014.377,6.464,6.464,0,0,0-.969.468,5.674,5.674,0,0,0-.879.626,4.849,4.849,0,0,0-.683.831c-.206.291-.173.684-.3,1.021s-.58.6-.637.958a6.2,6.2,0,0,0,.023,1.122,6.948,6.948,0,0,0,.191,1.088,7.646,7.646,0,0,0,.232,1.081c.122.347.464.593.63.918s.14.764.341,1.07.661.421.89.709.367.636.615.908.5.531.76.791.408.634.675.885c.245.232.374.592.623.82s.733.195.985.419.426.537.681.758.612.322.869.54.3.686.562.9.684.234.943.45.586.35.846.565.273.73.534.944.73.176.99.39.522.43.781.645.311.683.569.9.721.192.978.411.585.357.84.578.424.542.676.766.367.6.617.828.577.368.822.6.524.429.766.664.315.638.551.878.745.218.976.463.493.47.719.721.285.79.5,1.047c.5-.04.392-.5.867-.675s.475-.173.949-.348.507-.088.982-.263.53-.029,1.006-.2.383-.427.859-.6.566.07,1.041-.106.532-.022,1.007-.2.329-.573.8-.748.522-.051,1-.227.5-.1.98-.275.558.047,1.034-.128.343-.535.819-.71.576.1,1.052-.081.456-.226.93-.4.409-.352.883-.527.45-.242.925-.417.5-.121.974-.3.456-.23.931-.405.522-.052,1-.228.534-.021,1.012-.2.484-.156.96-.331.451-.249.928-.426.448-.249.923-.425.419-.335.9-.511.549.015,1.027-.162.5-.121.981-.3.413-.343.885-.541c.1-.043-.171.158-.171.158" fill="#fff"/><path d="M97.074,52.916c.324.083.63.235.954.318s.725-.138,1.049-.055.657.13.981.213.6.365.92.45.619.275.942.362.61.3.933.389.723-.1,1.044-.006.581.39.9.488.753-.163,1.071-.06.583.374.9.482.641.2.956.311.531.486.843.607.735.065,1.067.2.723.132,1.05.283.564.477.882.64.695.223,1,.4.6.394.9.59.392.673.674.889.738.22,1,.459.658.37.9.633.2.764.411,1.052c.189.258.516.42.678.692s.455.489.6.773.158.637.279.931.221.6.327.9.067.647.161.951.4.546.483.851c.1.357.128.735.225,1.093s.147.729.241,1.088.089.742.182,1.1.159.724.251,1.083.087.743.179,1.1.55.624.642.983c.087.34-.082.746,0,1.085s.222.668.308,1.008.17.68.256,1.02.22.669.305,1.009.233.665.318,1,.279.654.363,1,0,.722.083,1.063-.033.73.049,1.07.284.653.366.994.172.681.253,1.022-.01.723.071,1.064.131.689.211,1.031.431.62.51.961.332.641.41.981.123.688.2,1.029-.051.727.025,1.068.348.638.424.979-.074.731,0,1.072.185.674.259,1.016.077.7.15,1.038.368.636.441.977-.014.717.058,1.059.185.674.257,1.016-.022.717.049,1.059.307.65.376.992.269.658.338,1,.2.672.27,1.015-.152.742-.085,1.084c.053.269.389.344.625.471s.455.281.7.213c.28-.077.343-.322.463-.546a.838.838,0,0,0,.038-.652c-.068-.343.206-.752.137-1.1s-.082-.7-.151-1.038-.12-.689-.189-1.031-.407-.63-.477-.972-.123-.687-.195-1.029-.133-.686-.205-1.027-.122-.688-.195-1.029-.357-.638-.431-.979.016-.718-.058-1.059.062-.728-.013-1.069-.214-.669-.29-1.009-.285-.652-.362-.993-.283-.651-.361-.992-.03-.709-.108-1.049.1-.74.019-1.08-.142-.684-.221-1.024-.508-.6-.588-.938-.05-.706-.131-1.045-.313-.643-.394-.983-.143-.683-.225-1.023-.168-.677-.251-1.016-.148-.683-.231-1.022-.085-.7-.169-1.037-.067-.7-.152-1.041-.158-.681-.243-1.019-.006-.719-.092-1.058-.4-.619-.487-.957c-.082-.323-.174-.644-.257-.967s-.3-.612-.382-.935.2-.741.121-1.064-.363-.6-.446-.919-.281-.616-.365-.939-.165-.646-.25-.969-.136-.653-.223-.976.048-.716-.046-1.043-.281-.627-.384-.95-.281-.623-.4-.942-.443-.549-.575-.861-.016-.735-.169-1.038-.25-.645-.425-.936-.632-.419-.839-.7-.479-.489-.709-.751-.3-.668-.548-.911-.578-.394-.846-.618-.45-.553-.731-.76-.528-.471-.821-.661-.58-.4-.881-.577-.589-.395-.9-.557-.807.054-1.121-.095-.57-.425-.889-.563-.7-.126-1.029-.257-.494-.664-.823-.787-.768.057-1.1-.059-.616-.362-.949-.472-.687-.154-1.022-.258-.719-.039-1.056-.139-.672-.189-1.009-.285-.678-.171-1.017-.264-.636-.329-.975-.419-.674-.2-1.014-.284-.708-.061-1.048-.148-.609-.448-.949-.535-.721-.008-1.06-.1c-.409-.1-.909-.206-1.13.034-.237.258-.031.782.038,1.121.065.319.137.7.552.807l.006-.076a.177.177,0,0,0,0,.063" fill="#0d4b08"/><path d="M59.278,1.319c.514,0,.514-.091,1.027-.091s.514-.062,1.027-.062.513.21,1.026.21.513-.274,1.025-.274.512.379,1.024.379.512-.385,1.024-.385.511.338,1.023.338.512-.025,1.024-.025.512-.315,1.024-.315.513-.082,1.026-.082.513.1,1.027.1.514.262,1.029.262.514.036,1.027.036.513-.141,1.027-.141.512-.095,1.025-.095.513-.044,1.026-.044.513.306,1.027.306S77.23,1.3,77.744,1.3s.515-.163,1.029-.163.514-.065,1.028-.065.513.378,1.027.378.514-.275,1.028-.275.514-.037,1.029-.037.515.355,1.029.355.514-.393,1.028-.393.515.151,1.029.151.515-.165,1.03-.165.513.123,1.026.123.513-.078,1.025-.078.513.332,1.026.332.516-.165,1.031-.165.515-.175,1.029-.175.515.166,1.029.166.516-.272,1.032-.272.515.4,1.031.4.515-.017,1.031-.017.514-.289,1.028-.289.516-.033,1.033-.033.517.159,1.034.159.519-.091,1.038-.091.519-.069,1.037-.069a8.088,8.088,0,0,1,1.033.184,7.785,7.785,0,0,1,.978.337,7.7,7.7,0,0,1,.967.316,7.454,7.454,0,0,1,.876.513c.3.171.758.1,1.029.312a8.406,8.406,0,0,1,.814.666c.242.241.325.644.534.915a7.99,7.99,0,0,1,.478.908,7.879,7.879,0,0,1,.331.957c.13.314.513.535.6.867a8.27,8.27,0,0,1-.008,1.043c.044.335.443.658.443,1.005,0,.515-.175.515-.175,1.029s.024.514.024,1.028-.273.514-.273,1.028.208.513.208,1.027.164.514.164,1.028-.191.514-.191,1.028.127.514.127,1.028-.029.514-.029,1.028-.334.514-.334,1.028.288.514.288,1.029.185.514.185,1.029-.348.514-.348,1.029.185.515.185,1.031.155.515.155,1.031-.127.515-.127,1.03-.016.515-.016,1.03-.145.515-.145,1.03.223.515.223,1.029-.074.515-.074,1.029-.048.515-.048,1.029-.1.515-.1,1.029-.026.514-.026,1.029-.1.514-.1,1.029.379.515.379,1.029-.264.515-.264,1.03.051.516.051,1.031,0,.515,0,1.031.051.516.051,1.031.066.515.066,1.031.114.515.114,1.03-.172.515-.172,1.029-.205.515-.205,1.03.123.515.123,1.03.007.515.007,1.03-.176.515-.176,1.03-.031.515-.031,1.031.279.516.279,1.031.179.513.179,1.025-.033.512-.033,1.025-.211.513-.211,1.026.2.513.2,1.027-.231.514-.231,1.028.036.515.036,1.03-.073.515-.073,1.031.226.516.226,1.032-.163.515-.163,1.03.043.515.043,1.029-.166.515-.166,1.029.17.514.17,1.028.132.514.132,1.027.067.515.067,1.029-.294.514-.294,1.028.223.515.223,1.031-.128.515-.128,1.031.153.517.153,1.034.052.516.052,1.032-.347.515-.347,1.03-.055.515-.055,1.03-.019.515-.019,1.031.272.515.272,1.031-.019.516-.019,1.032-.01.517-.01,1.034-.023.516-.023,1.032.216.516.216,1.032-.168.516-.168,1.032-.216.517-.216,1.034.064.517.064,1.033.136.517.136,1.033.133.517.133,1.033-.128.518-.128,1.035-.261.515-.261,1.03-.016.515-.016,1.03.357.515.357,1.03-.113.518-.113,1.036.156.516.156,1.033-.022.517-.022,1.033.005.519.005,1.037-.018.517-.018,1.035-.084.518-.084,1.036-.1.516-.1,1.032-.011.519-.011,1.037-.169.52-.169,1.039.237.521.237,1.042.01.521.01,1.042a8.483,8.483,0,0,1,.072,1.044c-.045.343-.484.6-.572.928a8.206,8.206,0,0,1-.133,1.021,8.062,8.062,0,0,1-.353.975,6.484,6.484,0,0,1-1.29,1.613c-.242.242-.647.287-.918.5a7.715,7.715,0,0,1-.786.638,7.831,7.831,0,0,1-.881.516c-.314.13-.579.453-.912.542s-.726-.12-1.069-.076a7.826,7.826,0,0,1-1.014-.013c-.513,0-.513.309-1.027.309s-.514.08-1.027.08-.513-.233-1.026-.233-.512.106-1.025.106-.512-.146-1.024-.146-.512-.077-1.023-.077-.512-.03-1.024-.03-.512-.054-1.023-.054-.513.415-1.025.415-.513-.146-1.025-.146-.514.158-1.028.158-.514-.435-1.029-.435-.513.319-1.027.319-.513-.141-1.026-.141-.513.066-1.026.066-.513.174-1.026.174-.513.007-1.026.007-.515.017-1.029.017-.514-.151-1.029-.151-.514-.019-1.028-.019-.513.118-1.027.118-.514-.283-1.027-.283-.515.17-1.03.17-.514-.317-1.029-.317-.514.382-1.028.382-.515-.208-1.029-.208-.515.063-1.03.063-.513-.008-1.026-.008-.512-.018-1.025-.018-.513.045-1.026.045-.516.219-1.031.219-.515-.37-1.029-.37-.514.091-1.029.091-.516.065-1.032.065-.515-.063-1.03-.063-.516.216-1.032.216-.514-.245-1.028-.245-.516.3-1.033.3-.517-.121-1.034-.121l-1.038,0c-.518,0-.518-.167-1.037-.167a7.809,7.809,0,0,1-.993-.241c-.343-.045-.737.23-1.065.142a7.966,7.966,0,0,1-.938-.446,8.459,8.459,0,0,1-1-.318c-.3-.172-.4-.632-.668-.84s-.694-.237-.935-.479a8.1,8.1,0,0,1-.765-.715c-.208-.27-.073-.769-.245-1.066s-.613-.452-.744-.769a7.873,7.873,0,0,1-.335-.985c-.087-.328.167-.721.122-1.064s-.38-.649-.38-1c0-.514-.108-.514-.108-1.028s.131-.514.131-1.028.2-.514.2-1.028-.12-.514-.12-1.028-.049-.514-.049-1.027.234-.514.234-1.028-.381-.514-.381-1.028-.04-.514-.04-1.028.363-.514.363-1.028-.338-.515-.338-1.029,0-.514,0-1.029.093-.515.093-1.03.156-.515.156-1.03-.267-.515-.267-1.031.262-.515.262-1.031.163-.515.163-1.03-.424-.515-.424-1.029.133-.515.133-1.03.081-.514.081-1.029.238-.514.238-1.028-.383-.515-.383-1.029.289-.515.289-1.029-.055-.515-.055-1.029-.189-.515-.189-1.03-.071-.515-.071-1.03.059-.515.059-1.03-.058-.516-.058-1.031.132-.516.132-1.031.164-.516.164-1.031.022-.515.022-1.03-.078-.515-.078-1.03-.08-.515-.08-1.029-.169-.515-.169-1.03.2-.515.2-1.03.059-.515.059-1.03-.2-.516-.2-1.031.206-.516.206-1.032.04-.512.04-1.024-.111-.513-.111-1.025.237-.513.237-1.026-.11-.514-.11-1.027-.121-.514-.121-1.028-.117-.515-.117-1.03.327-.516.327-1.031-.458-.516-.458-1.032.362-.515.362-1.031.117-.514.117-1.029S51.4,46.8,51.4,46.286s-.132-.514-.132-1.028-.027-.514-.027-1.028.1-.514.1-1.028-.04-.514-.04-1.029-.061-.515-.061-1.03.072-.516.072-1.031.338-.517.338-1.034-.277-.516-.277-1.032-.132-.515-.132-1.031.244-.515.244-1.03.15-.515.15-1.03-.042-.515-.042-1.031-.052-.516-.052-1.033-.259-.517-.259-1.033.376-.517.376-1.033-.44-.515-.44-1.031.281-.516.281-1.032-.134-.517-.134-1.034-.039-.517-.039-1.034.193-.516.193-1.032-.022-.517-.022-1.034.085-.517.085-1.034.029-.515.029-1.031-.355-.514-.355-1.029-.014-.515-.014-1.031.2-.517.2-1.035-.02-.517-.02-1.033.008-.517.008-1.034.111-.518.111-1.036-.117-.518-.117-1.035.2-.518.2-1.036.011-.516.011-1.032-.21-.519-.21-1.038-.138-.519-.138-1.039-.08-.521-.08-1.042.308-.521.308-1.042c0-.347-.3-.72-.253-1.055a8.19,8.19,0,0,1,.34-1c.089-.333.474-.558.6-.872a7.515,7.515,0,0,1,.468-.883c.172-.3.049-.787.257-1.057a8.366,8.366,0,0,1,.672-.8c.242-.241.682-.268.953-.477a7.717,7.717,0,0,1,.8-.632,7.786,7.786,0,0,1,.947-.385,7.638,7.638,0,0,1,.96-.327,8.058,8.058,0,0,1,.972-.375,8.412,8.412,0,0,1,1.036.086" fill="#fff"/><path d="M59.278,104.411c.358,0,.716-.007,1.074-.007s.717.14,1.075.14.716-.037,1.074-.037.716-.064,1.074-.064.716-.05,1.074-.05.716.266,1.074.266.717.107,1.075.107.716-.032,1.074-.032.716-.105,1.074-.105.716-.066,1.074-.066.7-.175,1.053-.175.7.114,1.054.114.7.025,1.053.025.7.179,1.053.179.7-.213,1.053-.213.7.059,1.054.059.7-.217,1.053-.217.7,0,1.053,0,.7.317,1.053.317.7.052,1.054.052.7.079,1.053.079.7-.285,1.053-.285.7.139,1.053.139.7-.155,1.054-.155.7.052,1.053.052.7.235,1.053.235.7-.208,1.053-.208.7.013,1.054.013.7-.077,1.053-.077.69-.131,1.034-.131.689.32,1.034.321.69-.066,1.035-.065.689.022,1.034.022.69-.332,1.035-.331.689.258,1.034.258.69-.231,1.034-.231.69.013,1.034.012H99.34c.345,0,.69.013,1.034.012s.691.233,1.036.231a9.077,9.077,0,0,0,1.02-.126c.341-.042.734.136,1.063.056s.58-.478.9-.595a8.673,8.673,0,0,0,.935-.4,9.234,9.234,0,0,0,.926-.438c.285-.188.448-.529.71-.747s.782-.168,1.018-.415.092-.817.3-1.089.6-.4.772-.7a8.875,8.875,0,0,0,.46-.914,8.98,8.98,0,0,0,.474-.92,8.846,8.846,0,0,0,.269-1,9.142,9.142,0,0,0,.169-1.026c.025-.34-.356-.694-.357-1.038s.275-.686.275-1.027c0-.492.176-.492.176-.984s-.407-.491-.407-.982.309-.491.309-.982-.079-.492-.079-.985.064-.492.064-.984.056-.492.056-.985-.3-.49-.3-.981.145-.493.145-.986-.219-.493-.219-.987.059-.5.059-.99.129-.5.129-.991c0-.349-.076-.7-.076-1.048s.093-.7.093-1.049.022-.7.022-1.049.18-.7.18-1.049-.257-.7-.257-1.049-.131-.7-.131-1.048.205-.7.205-1.049.226-.7.226-1.049-.3-.7-.3-1.049.122-.7.122-1.049.113-.7.113-1.048-.086-.7-.086-1.049.1-.7.1-1.049-.019-.7-.019-1.049-.19-.7-.19-1.049-.164-.7-.164-1.049.145-.7.145-1.048c0-.507-.092-.507-.092-1.014s.206-.506.206-1.012-.269-.505-.269-1.011.2-.505.2-1.011-.05-.505-.05-1.011-.121-.505-.121-1.011.006-.506.006-1.012.305-.506.305-1.012-.132-.508-.132-1.015V55.427c0-.508-.084-.508-.084-1.015s-.088-.507-.088-1.014-.063-.506-.063-1.013.406-.506.406-1.013-.307-.507-.307-1.014-.062-.508-.062-1.015.234-.509.234-1.017-.091-.507-.091-1.015-.063-.507-.063-1.015.21-.507.21-1.014-.273-.509-.273-1.017.379-.508.379-1.017-.385-.507-.385-1.015.338-.508.338-1.016-.025-.509-.025-1.017-.316-.507-.316-1.013-.081-.506-.081-1.013.1-.506.1-1.013.262-.509.262-1.019.036-.508.036-1.016-.141-.508-.141-1.016-.1-.51-.1-1.019-.044-.509-.044-1.018.306-.51.306-1.019-.134-.508-.134-1.015-.163-.51-.163-1.02S110.1,28.508,110.1,28s.379-.512.379-1.025-.275-.512-.275-1.024c0-.342-.038-.683-.038-1.024s.356-.682.356-1.023-.393-.682-.393-1.024.151-.682.151-1.023-.165-.682-.165-1.023.123-.682.123-1.023-.078-.683-.078-1.024.332-.682.332-1.023-.166-.682-.166-1.023-.174-.683-.174-1.024.165-.682.165-1.023-.271-.682-.271-1.023.4-.683.4-1.024c0-.514-.017-.514-.017-1.029s-.289-.516-.289-1.032-.033-.516-.033-1.032c0-.354.144-.7.112-1.052a10.237,10.237,0,0,0-.237-1.026,9.522,9.522,0,0,0-.318-.991,8.819,8.819,0,0,0-.253-1.016,8.717,8.717,0,0,0-.357-1,8.641,8.641,0,0,0-.61-.871,8.565,8.565,0,0,0-.653-.846c-.235-.236-.688-.221-.947-.426a8.522,8.522,0,0,0-.814-.529c-.281-.175-.463-.506-.761-.649a9.529,9.529,0,0,0-.881-.479,9.968,9.968,0,0,0-.935-.4c-.322-.073-.706.156-1.036.118s-.649-.27-.981-.272c-.287,0-.575.378-.862.378-.318,0-.636-.175-.954-.175s-.636.023-.954.023S98.026.06,97.708.06s-.636.209-.954.209-.636.163-.954.163-.636-.191-.954-.191c-.341,0-.681.127-1.022.127S93.143.34,92.8.34,92.122,0,91.782,0,91.1.293,90.761.293s-.681.185-1.022.185S89.059.13,88.718.13,88.037.315,87.7.315,87.016.47,86.676.47,86,.343,85.655.343,84.974.328,84.633.328s-.68-.145-1.021-.145-.68.222-1.021.222S81.91.332,81.57.332,80.889.284,80.549.284s-.681-.1-1.021-.1S78.847.156,78.506.156s-.68-.1-1.021-.1S76.8.437,76.464.437,75.783.173,75.443.173s-.673.051-1.009.051H73.425c-.336,0-.672.05-1.009.05S71.744.34,71.408.34,70.735.453,70.4.453,69.726.282,69.39.282,68.718.076,68.381.076,67.709.2,67.373.2,66.7.207,66.364.207,65.691.03,65.355.03,64.683,0,64.346,0s-.672.278-1.008.278-.673.179-1.009.179S61.656.424,61.32.424s-.672-.21-1.009-.21-.676.2-1.015.2c-.359,0-.724-.2-1.076-.16a8.934,8.934,0,0,0-1.05.231,9.268,9.268,0,0,0-1.05.249c-.333.126-.565.477-.882.642a9.117,9.117,0,0,0-1,.407,9.047,9.047,0,0,0-.821.689,9.068,9.068,0,0,0-.825.574,8.754,8.754,0,0,0-.489.879,8.48,8.48,0,0,0-.4.894,8.489,8.489,0,0,0-.355.9c-.125.3-.508.508-.6.823s.05.681-.011,1-.23.621-.26.948.11.651.11.98c0,.348.052.7.052,1.061s-.348.7-.348,1.06-.055.7-.055,1.058-.019.7-.019,1.057.272.707.272,1.062-.019.71-.019,1.064-.01.713-.01,1.068-.023.708-.023,1.058c0,.512.216.512.216,1.024s-.168.512-.168,1.024-.216.512-.216,1.023.064.512.064,1.023.136.511.136,1.022.134.512.134,1.023-.128.511-.128,1.022-.262.511-.262,1.022-.016.512-.016,1.023.358.512.358,1.023-.114.512-.114,1.023.156.512.156,1.024-.021.513-.021,1.025,0,.512,0,1.025-.018.512-.018,1.024-.084.511-.084,1.023-.1.512-.1,1.023-.011.512-.011,1.024-.169.511-.169,1.023.237.511.237,1.023.01.512.01,1.024.14.512.14,1.024-.382.513-.382,1.025.2.509.2,1.019.117.509.117,1.018,0,.51,0,1.019-.036.511-.036,1.021-.233.511-.233,1.021.093.512.093,1.024.073.512.073,1.025.221.512.221,1.025-.283.512-.283,1.024-.078.511-.078,1.022.308.511.308,1.022.08.511.08,1.022-.233.51-.233,1.021.107.511.107,1.022-.146.511-.146,1.022-.078.512-.078,1.024-.029.512-.029,1.025-.055.513-.055,1.027.415.512.415,1.025-.146.512-.146,1.024.159.512.159,1.024-.436.512-.436,1.024.319.512.319,1.024-.141.513-.141,1.026.066.514.066,1.028.174.512.174,1.025.007.513.007,1.025.018.513.018,1.026-.152.514-.152,1.027-.019.514-.019,1.027.118.513.118,1.026-.283.514-.283,1.027.171.514.171,1.028-.318.512-.318,1.024.382.511.382,1.023-.208.512-.208,1.024.063.515.063,1.029-.008.513-.008,1.027-.017.513-.017,1.026.044.515.044,1.031.219.514.219,1.028-.37.515-.37,1.03.091.512.091,1.025.065.516.065,1.031-.063.516-.063,1.032.216.518.216,1.036-.245.517-.245,1.035c0,.333.3.667.3,1s-.123.667-.123,1,0,.667,0,1-.168.666-.168,1-.177.667-.176,1,.351.665.353,1a9.178,9.178,0,0,0-.048,1.067,8.617,8.617,0,0,0,.351,1.01c.088.347-.112.788.015,1.118s.515.555.682.868a8.614,8.614,0,0,0,.636.843c.2.292.12.814.356,1.08s.723.29.989.526a8.8,8.8,0,0,0,.827.651c.291.2.429.67.744.837s.774.031,1.107.16a8.65,8.65,0,0,0,1.029.216,8.607,8.607,0,0,0,1.006.325,8.9,8.9,0,0,0,1.052.277,1.019,1.019,0,0,0,.867-.622,1.113,1.113,0,0,0-.047-1c-.148-.29-.393-.716-.817-.72-.364,0-.754.344-1.1.286a7.314,7.314,0,0,1-1.084-.227c-.342-.113-.538-.59-.854-.754s-.807-.072-1.094-.283a4.675,4.675,0,0,1-1.473-1.62,7.394,7.394,0,0,1-.43-1c-.161-.317-.55-.558-.662-.9s.055-.76,0-1.118a7.066,7.066,0,0,1,.075-1.064c0-.335-.426-.67-.426-1s.134-.67.134-1c0-.508.082-.508.082-1.016s.237-.507.237-1.014S52.3,91.1,52.3,90.588s.289-.507.289-1.013-.054-.508-.054-1.015-.189-.508-.189-1.016-.071-.509-.071-1.018.058-.508.058-1.016S52.273,85,52.273,84.5s.132-.508.132-1.016.165-.508.165-1.017.021-.508.021-1.017-.078-.508-.078-1.016-.079-.509-.079-1.017-.17-.509-.17-1.018.205-.507.205-1.014.058-.506.058-1.013-.2-.507-.2-1.014.206-.51.206-1.019.04-.509.04-1.017-.111-.509-.111-1.017.237-.51.237-1.02-.109-.509-.109-1.019-.121-.51-.121-1.02-.117-.507-.117-1.015.327-.511.327-1.021-.459-.512-.459-1.023.363-.513.363-1.025.116-.513.116-1.026c0-.339-.289-.679-.289-1.019s-.131-.68-.131-1.02-.028-.679-.028-1.019.1-.68.1-1.02-.041-.679-.041-1.019-.061-.68-.061-1.019.073-.68.073-1.02.338-.68.338-1.019-.278-.68-.278-1.02-.132-.68-.132-1.019.245-.68.245-1.02.15-.679.15-1.019-.043-.68-.043-1.02-.051-.679-.051-1.019-.259-.68-.259-1.02.376-.679.376-1.019-.441-.68-.441-1.02.282-.679.282-1.019-.135-.68-.135-1.02-.039-.679-.039-1.019.194-.692.194-1.033-.022-.691-.022-1.032.085-.69.085-1.031.028-.695.028-1.038-.355-.693-.355-1.036-.013-.691-.013-1.034.2-.69.2-1.032-.02-.689-.02-1.031.008-.69.008-1.033.112-.689.112-1.032-.117-.687-.117-1.029.2-.685.2-1.027.012-.684.012-1.026-.21-.683-.21-1.026-.139-.683-.139-1.026-.079-.685-.079-1.029.308-.683.308-1.027-.322-.689-.322-1.036c0-.369.139-.725.139-1.068,0-.37.293-.725.293-1.068,0-.372.029-.728.029-1.072,0-.371-.376-.728-.376-1.071,0-.37-.025-.725-.025-1.067,0-.369.27-.723.27-1.068,0-.365-.079-.72-.079-1.067s.075-.715.075-1.067,0-.708,0-1.064-.18-.7-.18-1.061-.119-.7-.119-1.066c0-.343-.008-.7-.008-1.066,0-.487.241-.487.241-.973s.052-.488.052-.975-.307-.488-.307-.976c0-.333.352-.653.39-.98a8.01,8.01,0,0,1,.085-.986,7.981,7.981,0,0,1,.121-1.014c.121-.309.527-.488.69-.776s.073-.757.278-1.018.6-.371.841-.6.4-.573.681-.762c.3-.2.775-.076,1.089-.225a6.626,6.626,0,0,1,.947-.419,6.671,6.671,0,0,1,1.021-.182,7.385,7.385,0,0,1,1.032-.143c.435,0,.871,0,1.306,0,.35,0,.7.118,1.051.118s.7-.166,1.052-.166.7-.042,1.051-.042.7.071,1.052.071.7-.067,1.051-.067S66.654,2.2,67,2.2s.68-.137,1.02-.137.68,0,1.02,0,.681.241,1.021.241.68-.263,1.02-.263.68.116,1.02.116.681-.112,1.021-.112.68.157,1.02.157.68-.055,1.02-.055.681-.048,1.021-.048.68-.024,1.02-.024.68.272,1.02.272.681-.228,1.021-.228.68.033,1.02.033.68.244,1.02.244.681-.1,1.021-.1.68-.13,1.02-.13.68.075,1.02.075.681.1,1.021.1.68,0,1.02,0,.681-.2,1.022-.2.681.016,1.022.016.681.362,1.021.362.682-.305,1.022-.305.681-.11,1.022-.11.681.28,1.022.28.681-.071,1.022-.071.681.191,1.021.191.682-.263,1.022-.263.681.2,1.022.2.681-.153,1.022-.153.681-.135,1.022-.135.681.224,1.021.224.681-.331,1.022-.331.688.19,1.031.2a7.079,7.079,0,0,1,1.085-.049c.344.069.6.483.93.605a6.624,6.624,0,0,1,.91.485,6.291,6.291,0,0,1,.834.591,6.518,6.518,0,0,1,.849.6,6.252,6.252,0,0,1,.615.832,6.747,6.747,0,0,1,.48.9c.151.314.506.542.607.873a7.278,7.278,0,0,1,.239,1.026,8.065,8.065,0,0,1-.13,1.051c0,.224.327.447.327.671,0,.511-.1.511-.1,1.023s.122.512.122,1.024-.129.511-.129,1.023-.218.512-.218,1.024.207.513.207,1.025-.121.512-.121,1.025-.175.513-.175,1.026.295.513.295,1.026.109.512.109,1.025-.063.512-.063,1.024-.3.513-.3,1.025.21.512.21,1.024.145.512.145,1.024-.415.513-.415,1.025.273.512.273,1.025-.195.513-.195,1.025-.051.514-.051,1.027.3.509.3,1.019-.076.51-.076,1.02.111.51.111,1.02-.024.511-.024,1.022-.042.511-.042,1.022.136.513.136,1.025-.049.513-.049,1.026-.359.513-.359,1.026.041.513.041,1.025-.066.512-.066,1.024.127.512.127,1.023.078.512.078,1.023-.085.511-.085,1.022-.12.512-.12,1.023.2.512.2,1.024.168.512.168,1.024-.012.513-.012,1.027-.168.514-.168,1.028-.2.513-.2,1.026.073.513.073,1.026.26.512.26,1.024-.351.513-.351,1.025.387.513.387,1.026-.081.514-.081,1.027.181.514.181,1.029-.461.513-.461,1.026.437.514.437,1.027-.153.513-.153,1.026-.254.515-.254,1.029.224.514.224,1.028-.051.514-.051,1.027.093.514.093,1.028-.212.515-.212,1.029.125.513.125,1.025.233.512.233,1.024-.179.513-.179,1.026-.126.515-.126,1.03.235.514.235,1.028-.075.514-.075,1.028-.156.515-.156,1.031.283.515.283,1.029-.107.516-.107,1.031.133.514.133,1.027-.019.516-.019,1.032-.05.517-.05,1.033-.38.519-.38,1.037.2.518.2,1.036c0,.348.18.695.18,1.043s-.122.695-.122,1.042-.279.695-.279,1.043.451.695.451,1.042-.355.695-.355,1.043.387.695.387,1.042-.161.695-.161,1.043-.023.695-.023,1.042.111.695.111,1.043-.3.7-.3,1.042.141.695.141,1.043.237.695.237,1.042-.01.695-.01,1.043-.235.695-.235,1.042c0,.52-.168.52-.168,1.04s.058.52.058,1.041.049.522.049,1.044.238.522.238,1.044c0,.336-.315.674-.315,1.012s.389.694.364,1.029a6.9,6.9,0,0,1-.331,1.01,6.924,6.924,0,0,1-.195,1.036c-.131.318-.53.511-.707.8s-.145.753-.365,1.014a8.979,8.979,0,0,1-1.611,1.348,7.5,7.5,0,0,1-.944.45,7.293,7.293,0,0,1-.958.412c-.326.1-.738-.2-1.078-.153a6.63,6.63,0,0,1-.987.129c-.333,0-.665.322-1,.322s-.666-.139-1-.139-.666.241-1,.24-.665-.089-1-.089-.671-.064-1.007-.064-.671.152-1.006.152-.671-.25-1.007-.25-.671-.065-1.006-.065-.671.253-1.007.253-.671-.277-1.006-.277-.671-.089-1.007-.089-.671.108-1.006.108-.671.2-1.007.2-.671-.118-1.006-.118-.671.076-1.007.076-.671.052-1.007.052H84.229c-.336,0-.671-.1-1.007-.1s-.671-.035-1.006-.035-.671.244-1.007.244-.671-.425-1.006-.425-.671.223-1.007.223-.672.162-1.008.162-.672-.128-1.008-.128-.672.074-1.008.074-.672-.061-1.008-.061-.672.048-1.008.048-.673-.271-1.009-.271-.672.349-1.008.349-.672-.148-1.008-.148-.672-.174-1.008-.174-.672.109-1.008.109-.672-.021-1.008-.021-.672.179-1.008.179-.672-.155-1.009-.155-.672.147-1.008.147-.672.059-1.008.059-.672-.247-1.008-.247-.672-.092-1.008-.092c-.462,0-.462.016-.925.016s-.464-.066-.927-.066-.464.217-.928.217c-.425,0-.918.076-1.066.366-.159.31.233.717.391,1.027.148.29.31.8.735.8.062-.019-.06-.327-.06-.327" fill="#0d4b08"/><path d="M74.383,6.759c.495,0,.495-.122.99-.122s.5,0,.995,0,.5-.153.992-.153.5.2.993.2.5-.041,1-.041.5.094.994.094.5-.189.995-.189.5.121.992.121.5-.22,1-.22.5-.014,1-.014.5-.007,1-.007.5.14,1,.14a2.892,2.892,0,0,1,1.1.181,2.993,2.993,0,0,1,.977.578,3.093,3.093,0,0,1,.682.933c.139.334-.039.757-.039,1.142h-.106a2.444,2.444,0,0,1-.17,1.012,2.622,2.622,0,0,1-.5.931,2.751,2.751,0,0,1-.866.658,2.99,2.99,0,0,1-1.078.388c-.495,0-.495-.114-.99-.114s-.5-.025-.995-.025-.5-.179-.992-.179-.5.214-.993.214-.5-.06-1-.06-.5.218-.994.218-.5.005-.995.005-.5-.317-.992-.317-.5-.052-1-.052-.5-.079-1-.079-.5.284-1,.284-.5-.138-1-.138a2.938,2.938,0,0,1-1.111-.066,2.906,2.906,0,0,1-.9-.666c-.261-.261-.257-.667-.4-1.014s-.406-.616-.406-1h.013A2.894,2.894,0,0,1,71.716,8.3a3.157,3.157,0,0,1,.533-1.029c.262-.261.754-.216,1.1-.36a2.536,2.536,0,0,1,1.033-.153" fill="#0d4b08"/><path d="M80.354,31.965c-.337,0-.664.317-1,.335s-.669-.01-1,.024-.707-.209-1.04-.158-.667.142-1,.21-.584.457-.91.541-.642.172-.963.273-.678.081-.993.2-.6.3-.908.438-.619.252-.92.4-.592.31-.883.48-.569.349-.851.536-.523.413-.793.616-.506.47-.773.695-.753.2-1.007.443-.316.671-.556.925-.622.379-.846.647-.551.465-.76.745-.07.8-.263,1.1-.344.594-.52.9-.464.531-.623.842-.455.556-.6.876-.288.64-.411.968-.185.678-.289,1.012-.064.7-.149,1.038-.331.636-.4.977.152.725.1,1.069-.514.641-.544.987.12.71.108,1.057-.183.7-.177,1.046.418.679.441,1.025-.331.728-.291,1.073.238.674.3,1.017.318.643.393.982.062.695.154,1.03.01.725.12,1.055.177.684.3,1.007.378.6.522.918.3.633.459.94.465.535.644.833.2.7.392.988.436.549.649.824.365.609.594.87.606.391.851.638.416.575.676.806.666.283.941.5.541.391.819.582.558.364.846.539.509.462.807.62.615.275.921.417.637.215.95.341.641.194.96.3.56.463.885.555.632.283.961.359.674.116,1.006.176.688.01,1.023.054.679.014,1.015.041.68-.126,1.017-.115.668.13,1,.125.674.008,1.011-.012.691.129,1.026.092.644-.294.977-.347.675-.056,1-.125.6-.357.929-.443.639-.183.96-.285.741.086,1.056-.033.654-.2.962-.338.658-.214.958-.367.465-.567.756-.736.661-.238.943-.427.473-.517.743-.724.567-.383.823-.607.673-.289.915-.528.333-.636.561-.89.458-.509.669-.776.354-.587.55-.867.269-.631.449-.922.625-.425.788-.725.259-.639.4-.948.3-.617.433-.933-.064-.749.049-1.072.459-.562.555-.89-.043-.712.037-1.044.16-.653.223-.989.118-.662.164-1,.1-.666.129-1.006.288-.662.3-1-.041-.684-.043-1.026.232-.7.213-1.036-.354-.66-.389-1-.068-.676-.119-1.013-.032-.7-.1-1.034-.324-.629-.414-.963.182-.78.073-1.108-.68-.488-.807-.809-.03-.732-.176-1.046-.309-.618-.472-.923-.232-.667-.412-.962-.356-.6-.551-.886-.377-.591-.588-.865-.729-.3-.955-.556-.249-.7-.49-.951-.39-.636-.654-.876-.8-.163-1.079-.387-.375-.684-.666-.89-.636-.342-.938-.531-.582-.427-.895-.6-.613-.387-.935-.54-.772-.019-1.1-.153-.612-.393-.95-.507-.737-.008-1.081-.1-.667-.234-1.016-.309-.671-.264-1.024-.318-.715-.024-1.07-.062-.7-.159-1.059-.178-.713-.053-1.071-.055a1.2,1.2,0,0,0-1.043.436c-.158.31.071.774.23,1.085.148.29.389.346.813.348.334,0,.664.216,1,.235s.638.271.968.308.7-.217,1.025-.162.631.238.955.311.613.263.932.354.656.108.969.218.58.322.887.45.607.245.906.392.676.132.965.3.663.2.941.385.472.5.739.7.59.342.844.56.362.6.6.832.667.292.891.541.291.638.5.9.448.5.64.777.478.494.652.78.339.588.5.884.03.731.168,1.036.387.558.507.871.229.628.328.947.274.632.357.962.242.651.306.986.181.671.225,1.009-.325.719-.3,1.059.349.663.356,1,.066.69.055,1.031-.266.669-.3,1.009.022.688-.026,1.025-.046.687-.112,1.021-.347.619-.433.949.083.735-.02,1.059-.574.519-.7.837.1.78-.039,1.089-.6.468-.754.768-.3.6-.479.892-.1.749-.3,1.027-.345.611-.559.876-.524.464-.756.714-.658.307-.907.54-.521.423-.787.639-.45.531-.732.727-.519.464-.814.64-.579.383-.885.539-.744.024-1.059.16-.578.382-.9.5-.6.378-.929.475-.652.249-.986.326-.745-.225-1.083-.166-.634.38-.975.42-.684.109-1.026.131-.695-.321-1.038-.317-.69.391-1.033.377-.679-.189-1.02-.222-.707.089-1.046.039-.662-.234-1-.3-.693-.073-1.024-.161-.564-.5-.889-.61-.7-.067-1.016-.193-.707-.1-1.016-.25-.543-.451-.842-.617-.736-.111-1.019-.3-.34-.706-.61-.909-.539-.4-.8-.619-.7-.241-.943-.479-.507-.47-.731-.724-.323-.623-.531-.891-.483-.492-.674-.773-.435-.538-.608-.83-.237-.652-.392-.954-.172-.669-.308-.98-.274-.616-.392-.935-.156-.657-.256-.981-.491-.57-.572-.9-.191-.664-.253-1,.085-.706.041-1.043.031-.682.006-1.021.089-.674.083-1.013-.294-.678-.28-1.017.246-.661.279-1-.3-.724-.247-1.059.288-.653.361-.988.133-.677.224-1.007.454-.574.565-.9.036-.713.167-1.03.125-.7.275-1.01.48-.528.649-.826.239-.66.426-.947.41-.558.615-.833.676-.33.9-.591.235-.7.474-.95.383-.642.646-.879.764-.2,1.043-.422.456-.578.749-.778.519-.526.825-.707.688-.244,1.006-.4.651-.3.978-.437.71-.134,1.046-.253.608-.439.95-.536.711-.115,1.059-.191.708-.1,1.06-.151c.3-.048.618.015.922-.013s.609-.023.914-.036.61.079.915.078c.425,0,.542-.494.69-.784.159-.31.4-.654.237-.963a1,1,0,0,0-.921-.492c-.055-.015-.007-.091-.007-.091" fill="#0d4b08"/><path d="M71.791,52.981c.241.241.395.569.634.811s.558.407.8.651.379.583.617.827.459.506.7.749.54.427.778.671.565.4.805.643.53.435.77.677a2.044,2.044,0,0,0,.794.346c.284.114.511.58.815.579a2.84,2.84,0,0,0,.96-.214,2.691,2.691,0,0,0,.788-.57c.248-.244.225-.765.473-1.009s.75-.231,1-.475.28-.707.527-.952.532-.452.779-.7.7-.286.945-.531.471-.514.717-.759.266-.721.511-.967.5-.49.74-.736.588-.4.833-.645.446-.538.691-.785.509-.476.754-.723.49-.5.734-.743.484-.5.727-.749.455-.529.7-.778a1.96,1.96,0,0,0,.4-.732c.114-.284.5-.507.5-.81s-.3-.558-.418-.842-.1-.635-.324-.856a2.64,2.64,0,0,0-.734-.637c-.284-.114-.664.228-.969.227a1.952,1.952,0,0,0-.8.183c-.278.111-.556.122-.774.346-.244.249-.6.384-.847.633s-.5.486-.743.734-.449.535-.693.783-.391.592-.636.84-.616.37-.861.617-.294.691-.539.937-.8.19-1.042.436-.37.614-.617.86-.61.373-.857.618-.213.775-.46,1.02-.768.214-1.015.459-.39.6-.638.84-.358.629-.606.873-.59.32-.839.564a2.669,2.669,0,0,0,1.082.19c.551,0,.551.058,1.1.058a2.843,2.843,0,0,0,1.12-.125c-.241-.242-.449-.6-.689-.843s-.588-.379-.826-.622-.334-.628-.572-.872-.507-.459-.745-.7-.41-.554-.649-.8-.613-.354-.853-.6-.395-.57-.636-.811c-.22-.221-.6-.206-.875-.318a2.181,2.181,0,0,0-.85-.148,2.158,2.158,0,0,0-.841.168,2.182,2.182,0,0,0-.812.369,2.22,2.22,0,0,0-.466.773,2.273,2.273,0,0,0-.1.881,2.176,2.176,0,0,0,.21.837c.112.278.047.663.268.884.013.018.064-.04.064-.04" fill="#0d4b08"/><path d="M113.7,94.678c-.334-.139-.6-.4-.906-.524-.333-.139-.658-.254-.962-.381-.334-.139-.588-.423-.891-.55-.335-.141-.754-.035-1.058-.163-.333-.141-.725-.1-1.03-.228-.327-.141-.57-.445-.877-.579s-.524-.522-.836-.661-.737-.022-1.053-.166-.574-.367-.895-.516c-.3-.139-.686-.119-1.01-.272-.3-.14-.644-.212-.97-.368-.3-.142-.6-.308-.923-.465-.295-.142-.491-.525-.814-.682-.3-.144-.556-.4-.881-.562-.3-.145-.659-.2-.983-.354s-.592-.44-.9-.587c-.331-.158-.64-.332-.949-.477-.331-.154-.688-.223-1-.365-.329-.149-.7-.182-1.018-.323s-.674-.219-1-.359-.7-.136-1.03-.275-.474-.661-.807-.8c-.316-.131-.652-.241-.99-.381-.315-.13-.659-.221-1-.361s-.782.126-1.132.046-.641-.486-1-.511-.71.283-1.066.31a7.088,7.088,0,0,0-1.045.106c-.353.08-.781-.089-1.112.04a6.762,6.762,0,0,0-.968.512c-.311.187-.4.653-.665.89a4.429,4.429,0,0,0-.687.763,4.147,4.147,0,0,0-.61.85,5.011,5.011,0,0,0-.217,1.057,5.594,5.594,0,0,0-.091,1.073,6.426,6.426,0,0,0,.123,1.076,7.321,7.321,0,0,0,.292,1.044,8.052,8.052,0,0,0,.47.977,9.65,9.65,0,0,0,.6.9c.2.307.139.8.368,1.089s.663.4.911.67.353.676.613.936.436.612.7.863c.246.232.775.157,1.024.384s.519.427.771.651.41.553.665.774.4.564.661.783.5.447.764.664.553.39.813.606.608.323.868.537.41.565.671.779.7.213.959.428.248.76.508.975.63.3.889.515.409.561.666.779.773.135,1.028.356.254.735.506.958.6.337.852.564.632.311.878.542.422.537.664.772.344.609.581.849.427.52.658.765.548.408.773.659.542.515.76.772c.423-.312.191-.535.49-.966s.466-.316.766-.747.265-.454.565-.885.376-.377.675-.807.145-.539.444-.97.4-.361.7-.791.118-.555.416-.984.288-.439.587-.869.294-.436.594-.868.415-.351.715-.782.269-.452.569-.883.247-.47.548-.9.259-.46.559-.892.518-.28.818-.712.387-.37.686-.8.276-.451.577-.884.215-.494.516-.928.248-.473.55-.908.154-.54.462-.971c.018-.024.1.143.1.143" fill="#fff"/><path d="M114.015,93.6c-.305-.127-.553-.39-.857-.517s-.634-.195-.938-.323-.687-.072-.991-.2-.55-.391-.854-.521-.63-.205-.933-.336-.7-.038-1.006-.17-.593-.293-.895-.427-.459-.592-.76-.727-.565-.348-.865-.486-.6-.274-.9-.414-.788.122-1.086-.02c-.32-.153-.46-.681-.779-.835s-.795.016-1.114-.139-.513-.567-.832-.722-.8.022-1.117-.132-.573-.444-.893-.6-.681-.216-1-.366-.665-.246-.988-.393c-.34-.155-.6-.5-.937-.647s-.591-.517-.934-.665-.857.105-1.2-.041c-.282-.119-.507-.375-.789-.5s-.5-.406-.778-.527-.524-.353-.809-.467-.635-.076-.925-.178a7.389,7.389,0,0,0-.959-.353c-.326-.065-.693.116-1.028.093a8.054,8.054,0,0,0-1-.023,8.6,8.6,0,0,0-1.014-.019,8.231,8.231,0,0,0-.979.255,8.529,8.529,0,0,0-1.013.206c-.307.138-.492.531-.774.707s-.425.52-.678.737-.6.312-.819.568-.633.391-.8.683-.055.72-.167,1.042a5.552,5.552,0,0,0-.333.947,7.492,7.492,0,0,0,.092,1.011,6.982,6.982,0,0,0,.124.976,7.32,7.32,0,0,0,.152.965c.08.327-.071.714.048,1.028a10.063,10.063,0,0,0,.3.98c.15.3.417.544.6.831s.256.645.455.918.392.56.608.819.507.459.736.707.55.406.788.643.528.42.773.649.594.342.843.564.229.769.482.987.531.418.783.631.547.4.8.612.762.136,1.018.351.283.707.541.92.711.191.97.4.484.467.743.679.334.649.593.862.537.4.8.616.723.181.98.4.512.435.767.652.422.539.675.759.548.394.8.617.483.467.731.693.494.455.738.685.491.458.731.692.512.439.747.678.515.439.745.683.207.723.431.972.64.329.858.584c.178.208.345.456.613.45a1.405,1.405,0,0,0,.862-.22c.205-.205-.061-.6-.067-.851a.768.768,0,0,0-.262-.566c-.225-.263-.342-.613-.573-.87s-.347-.62-.584-.87-.469-.51-.712-.756-.528-.449-.775-.689-.593-.378-.845-.614-.386-.6-.642-.83-.7-.254-.956-.482-.237-.778-.5-1-.637-.319-.9-.542-.421-.573-.686-.8-.786-.135-1.052-.355-.285-.739-.552-.958-.628-.323-.894-.543-.659-.285-.925-.505-.466-.513-.729-.732-.4-.586-.666-.807-.485-.485-.746-.708-.6-.354-.857-.58-.512-.453-.767-.682-.612-.347-.863-.58-.362-.616-.609-.853-.5-.423-.724-.658-.379-.532-.6-.777-.569-.374-.767-.632-.287-.594-.461-.869-.528-.455-.671-.749a7.721,7.721,0,0,1-.388-.918,6.866,6.866,0,0,1-.249-.968,5.047,5.047,0,0,1,.068-1.054,4.408,4.408,0,0,1,.122-1.03,4.1,4.1,0,0,1,.356-.99,4.149,4.149,0,0,1,.626-.862c.241-.231.678-.23.99-.409a5.4,5.4,0,0,1,.917-.308,5.67,5.67,0,0,1,.917-.279,4.9,4.9,0,0,1,1.94-.21,6.349,6.349,0,0,1,1.017.049c.348.109.66.347,1,.484s.667.306,1,.453.6.462.939.6.734.079,1.059.218.625.335.949.478.736.088,1.058.234.62.277.927.42.479.573.785.718.588.338.893.485.574.365.879.512.733.04,1.038.188.548.42.853.567.676.155.982.3.58.333.882.475.506.5.808.637.694.089,1,.227.6.287.907.423.64.2.946.336.663.148.968.281.485.558.792.69.639.2.946.333.606.28.913.41.744-.049,1.051.081.516.495.824.623.705.043,1.013.172a.493.493,0,0,0,.573-.068.736.736,0,0,0,.395-.493.607.607,0,0,0-.065-.608c-.134-.213-.174-.525-.428-.632l-.029.043a.185.185,0,0,1,.031-.046" fill="#0d4b08"/></g></svg>