<svg xmlns="http://www.w3.org/2000/svg" xmlns:xlink="http://www.w3.org/1999/xlink" width="70.097" height="111.195" viewBox="0 0 70.097 111.195"><defs><clipPath id="a"><rect width="70.097" height="111.195" transform="translate(0 0)" fill="none"/></clipPath></defs><g clip-path="url(#a)"><path d="M18.953,57.52c-5.112.848-8.374-3.209-8.35-6.131A34.185,34.185,0,0,1,11.645,44.1c.81-2.894,1.389-7.983,1.389-15.04-.346-10.413,2.393-17.964,6.711-22.1a23.439,23.439,0,0,1,15.06-5.888,23.914,23.914,0,0,1,9.566,1.833l1.462.592,1.471.862a14.937,14.937,0,0,1,3.032,2.634c3.285,3.147,5.568,8.809,5.931,13.88.105,1.462.31,4.956.214,7.9a54.872,54.872,0,0,0,2.1,14.986c.842,2.844,1.973,6.505,1.063,9.329A6.831,6.831,0,0,1,51.1,57.428Z" fill="#3e783d"/><path d="M55.78,28.754a2.417,2.417,0,0,0-2.173-1.207,2.577,2.577,0,0,0-1.892.7c-2.806-.857-5.96-3.814-7.82-7.324a38.436,38.436,0,0,1-2.225-6.673,22.311,22.311,0,0,1-11.123,8.1,1.6,1.6,0,0,1-.932.043c-.349-.166-.447-.325-.417-.785.074-1.145.533-3.037.664-4.143-1.154,1.133-2.348,2.29-3.554,3.428a96.072,96.072,0,0,1-8.241,7.09,2.669,2.669,0,0,0-1.577-.441,2.417,2.417,0,0,0-2.173,1.207,7.232,7.232,0,0,0-.212,5.1A7.875,7.875,0,0,0,16.417,37.6a2.817,2.817,0,0,0,2.4.6,19.822,19.822,0,0,0,3.762,7.1,14.982,14.982,0,0,0,4.99,4.1l-.019.344c-.056.647-.092,1.167-.178,1.921a2.855,2.855,0,0,1-1.792,2.77c-.057.021-1.57.726-2.995,1.385l.138.1A19.776,19.776,0,0,0,35.2,60.06a19.944,19.944,0,0,0,12.482-4.14L47.7,55.9c-1.478-.682-3.125-1.451-3.184-1.472a2.855,2.855,0,0,1-1.792-2.77c-.087-.755-.123-1.275-.179-1.921h0l-.019-.308c4.1-1.95,7.38-7.582,7.959-9.155a16.612,16.612,0,0,0,.762-2.069l.213.036a2.871,2.871,0,0,0,2.215-.64,7.875,7.875,0,0,0,2.312-3.749,7.232,7.232,0,0,0-.211-5.1Z" fill="#fff"/><path d="M12.4,29.06c0,.325-.3.648-.3.973s.105.65.1.975.124.653.116.977-.108.648-.119.972.072.654.058.978-.091.648-.108.972-.014.651-.036.975-.057.649-.082.972-.007.654-.036.977-.315.62-.349.942-.046.645-.087.966-.028.65-.077.97-.331.6-.389.916.005.656-.064.972.151.7.069,1.018c-.09.344-.175.683-.256,1.03s-.142.691-.213,1.04-.241.674-.3,1.024-.029.711-.08,1.064-.158.691-.2,1.045-.344.683-.37,1.038.176.723.162,1.079a6.371,6.371,0,0,0,.156.931c.035.32-.119.656-.039.965a6.691,6.691,0,0,0,.329.9c.123.295.42.485.582.763a7.394,7.394,0,0,0,.415.854c.194.252.509.376.735.606s.2.773.459.976.7.172.983.341a8.041,8.041,0,0,0,.822.574c.306.133.69.022,1.009.115s.577.426.906.481.679-.151,1.013-.133.659.269.993.251a9.876,9.876,0,0,0,1.018,0c.471-.074.533-.8.417-1.223-.138-.5-.453-.8-.926-.729-.33.052-.649.383-.98.386s-.657-.342-.985-.387a6.274,6.274,0,0,1-.925-.325c-.319-.094-.7.014-1-.13a6.184,6.184,0,0,1-.874-.488,6.224,6.224,0,0,1-.668-.746c-.314-.306-.817-.425-1.038-.753-.121-.18-.211-.4-.314-.59-.047-.086-.15-.153-.192-.24-.051-.105.142-.327.136-.341a3.968,3.968,0,0,1-.221-1.106,5.622,5.622,0,0,1-.154-1.134c.016-.327-.124-.666-.1-.992s.094-.652.132-.977.267-.625.315-.948-.057-.672,0-.994.356-.6.423-.916.223-.615.3-.933-.23-.73-.148-1.046.414-.554.481-.866.2-.613.259-.926-.274-.691-.225-1.006.381-.587.422-.9.089-.632.125-.948.1-.632.135-.948c.034-.342.146-.679.175-1.022s.018-.691.043-1.034.132-.684.153-1.027-.086-.695-.07-1.039-.138-.695-.126-1.038.3-.681.3-1.025S14,31.47,14,31.126s.14-.688.142-1.032-.264-.69-.264-1.034c0-.37-.236-.457-.489-.586-.271-.138-.583-.4-.853-.263-.253.129-.328.479-.328.849l-.061.208c.123,0,.245-.208.245-.208" fill="#0d4b08"/><path d="M55.779,28.774c.005.347-.136.7-.126,1.044s.046.693.062,1.04.219.682.24,1.028-.4.723-.369,1.069.038.7.07,1.044.055.7.093,1.041.473.644.517.989-.289.741-.239,1.084.318.656.375,1-.1.726-.038,1.067.468.617.538.957.152.675.229,1.014-.158.752-.073,1.089.249.656.341.991.071.706.169,1.039c.094.317.522.546.619.879s.082.679.173,1.01.044.686.123,1.018.066.673.129,1.007.321.632.363.968.208.673.222,1.01-.334.674-.356,1.01a7.248,7.248,0,0,1-.066.994,6.016,6.016,0,0,1-.225.972,5.325,5.325,0,0,1-.412.912c-.173.283-.173.72-.407.979-.22.243-.646.3-.925.518a6.051,6.051,0,0,1-.813.511,5.149,5.149,0,0,1-1.765.817,5.974,5.974,0,0,1-.982.087c-.323,0-.625-.239-.947-.29a5.351,5.351,0,0,1-.9-.275.936.936,0,0,0-.919.361,1.012,1.012,0,0,0-.171.868c.059.279.16.7.5.819s.743-.082,1.08-.021a7.5,7.5,0,0,0,1.005.313,7.459,7.459,0,0,0,1.035-.149,7.788,7.788,0,0,0,1.038-.092,7.945,7.945,0,0,0,1.009-.284,8.505,8.505,0,0,0,.879-.576c.3-.167.489-.488.768-.692s.779-.143,1.028-.382a8.046,8.046,0,0,0,.613-.86c.216-.27.566-.468.743-.766s-.03-.787.1-1.108a7,7,0,0,0,.466-.918,8.7,8.7,0,0,0,.246-1.02,9.932,9.932,0,0,0,.1-1.047c0-.349-.1-.7-.125-1.046s-.011-.7-.062-1.047-.281-.657-.35-1-.136-.681-.218-1.02,0-.722-.092-1.057-.141-.654-.229-.975-.365-.591-.454-.913.043-.7-.044-1.024-.41-.581-.494-.9-.217-.635-.3-.959-.016-.682-.089-1.008-.065-.667-.131-.995-.03-.669-.086-1-.376-.63-.426-.966-.119-.673-.162-1.01.055-.694.018-1.032-.073-.676-.1-1.015-.191-.668-.216-1.008.021-.684,0-1.024.178-.689.164-1.029-.2-.673-.206-1.013.154-.683.149-1.023A.938.938,0,0,0,56.933,28a1.215,1.215,0,0,0-.971-.106,1.108,1.108,0,0,0-.549.889l.187.117c.091,0,.179-.123.179-.123" fill="#0d4b08"/><path d="M19,27.607a3.561,3.561,0,0,0-.993-.431,3.309,3.309,0,0,0-1-.265c-.36-.049-.717-.364-1.081-.306a4.082,4.082,0,0,0-1.086.308,3.137,3.137,0,0,0-.865.667,3.8,3.8,0,0,0-.62.884,4.921,4.921,0,0,0-.346,1.015,7.857,7.857,0,0,0-.1,1.09,8.354,8.354,0,0,0-.072,1.085c.009.361.265.693.316,1.052a9.288,9.288,0,0,0,.1,1.071c.091.352-.114.807.015,1.145s.654.507.82.827a9.73,9.73,0,0,0,.38,1.029,7.135,7.135,0,0,0,.736.749,5.358,5.358,0,0,0,.77.68,4.174,4.174,0,0,0,.894.482,3.483,3.483,0,0,0,.977.2c.333.044.677.433,1.041.384.473-.063.816-.877.7-1.292a1.11,1.11,0,0,0-1.211-.706c-.327.044-.652.181-.938.053s-.447-.446-.681-.67-.283-.552-.462-.806c-.194-.274-.774-.3-.907-.548a9.691,9.691,0,0,1-.4-1.054,8.2,8.2,0,0,1-.353-1.065,7.032,7.032,0,0,1-.154-1.116A9.625,9.625,0,0,1,14.552,31,5.748,5.748,0,0,1,14.9,30a2.415,2.415,0,0,1,.351-.941c-.063.08-.083-.314-.062-.335.114-.118.214.023.31-.039a1.92,1.92,0,0,1,.637-.338,2.264,2.264,0,0,1,.886.059,1.769,1.769,0,0,1,.711.483c.27.242.551.094.822.008a.658.658,0,0,0,.478-.523c.09-.268.141-.387-.14-.64L19,27.607" fill="#0d4b08"/><path d="M52.381,28.9c.247-.223.552-.147.859-.2s.668-.468.966-.37a2.033,2.033,0,0,1,.823.633c-.126-.155-.146.2-.126.239.048.078.3.063.335.14a4.106,4.106,0,0,1,.2.859,5.794,5.794,0,0,1,.025.933,8.947,8.947,0,0,1,.023.925,6.863,6.863,0,0,1-.188,1.066,8.772,8.772,0,0,1-.115,1.108c-.129.338-.482.591-.647.907a6.917,6.917,0,0,1-.4.889,5.29,5.29,0,0,1-.715.669,2.655,2.655,0,0,1-.847.408,1.358,1.358,0,0,1-.84.049,1.187,1.187,0,0,0-1.181.838.819.819,0,0,0,.7.961,3.606,3.606,0,0,0,.99-.078c.354-.044.805.306,1.119.174s.461-.613.74-.821a5.307,5.307,0,0,0,.805-.634c.23-.253.658-.378.853-.669s.063-.774.223-1.082.412-.57.541-.888.18-.677.28-1a7.687,7.687,0,0,0,.383-.94,8.788,8.788,0,0,0,.159-1.005A9.648,9.648,0,0,0,57.218,31c-.019-.337.111-.7.058-1.026-.057-.36-.426-.643-.553-.978a3.892,3.892,0,0,0-.433-.97,3.381,3.381,0,0,0-.68-.863,3.323,3.323,0,0,0-.911-.357,3.53,3.53,0,0,0-.954-.035c-.32-.011-.688-.314-1-.245s-.543.454-.828.6a3.455,3.455,0,0,0-.774.537.576.576,0,0,0-.145.734c.094.282.168.678.463.771.271.086.5-.192.77-.434L52.185,29c.017.019.2-.1.2-.1" fill="#0d4b08"/><path d="M50.667,36.738c-.061.3.118.662.036.954s-.514.481-.612.768.118.694.009.975-.428.49-.543.767c.106-.256-.022-.046-.051.015s-.029.165-.064.238c-.081.169-.027.409-.114.574-.208.393-.543.721-.775,1.1-.172.281-.4.527-.581.8s-.425.5-.618.77-.129.732-.334.99-.671.3-.887.552-.434.488-.663.725-.537.381-.778.6-.339.6-.594.813-.56.294-.819.471-.468.433-.744.581a7.763,7.763,0,0,1-.87.359c-.292.112-.538.417-.846.488-.366.085-.4.2-.45.474s-.189.6.02.83a1.012,1.012,0,0,0,.9.376c.317-.073.573-.373.877-.484a9.16,9.16,0,0,0,.956-.243c.291-.143.472-.484.749-.655s.743-.067,1-.26.475-.468.722-.678.533-.4.766-.622.465-.47.686-.7.134-.756.343-1c.231-.268.435-.552.659-.831s.6-.428.814-.714.579-.467.778-.762.415-.591.6-.9.114-.758.281-1.071.566-.52.712-.843c.087-.192.152-.4.234-.591-.1.247-.173-.318-.151-.371.074-.176.5-.212.567-.39.1-.276-.022-.641.071-.921s.271-.538.349-.823-.058-.621,0-.91a.727.727,0,0,0-.529-.961.634.634,0,0,0-.849.559l-.2-.071a.082.082,0,0,0-.055.017" fill="#0d4b08"/><path d="M17.764,37.128c.08.353,0,.744.1,1.093s.117.726.233,1.07.414.623.547.96.28.665.431.995.424.592.591.914.052.8.236,1.111.516.536.717.837c.19.284.316.618.521.9s.287.655.5.923.774.244,1,.5.271.687.515.93.553.418.81.646.4.6.672.815.611.345.9.535.715.143,1.015.31.525.507.846.65.639.3.972.418.7.106,1.043.189.7.019,1.048.071c.471.07.8.037.936-.462.115-.416.009-1.178-.465-1.249-.349-.051-.729.112-1.065.026s-.606-.384-.933-.5-.623-.274-.938-.425-.656-.223-.957-.4-.693-.212-.978-.415-.615-.359-.884-.583-.435-.569-.687-.811-.3-.669-.538-.928-.743-.278-.962-.55-.125-.777-.327-1.062-.4-.556-.587-.851-.736-.376-.906-.679-.012-.786-.166-1.1-.659-.47-.8-.787c-.119-.277.1-.691-.007-.973s-.436-.486-.528-.773.07-.647-.009-.937-.4-.52-.47-.813c-.084-.368-.219-.471-.5-.526s-.643-.129-.87.081a1.1,1.1,0,0,0-.4.929l.238.143c.066-.015.089-.218.089-.218" fill="#0d4b08"/><path d="M32.009,42.211a6.778,6.778,0,0,0,.963.614,7.053,7.053,0,0,0,1.1.315,8.047,8.047,0,0,0,1.149-.02,7.548,7.548,0,0,0,1.145-.27,5.2,5.2,0,0,0,1.143-.186,4.161,4.161,0,0,0,1.047-.525.8.8,0,0,0-.094-1.169.787.787,0,0,0-1.144-.066c.269-.21-.075-.271-.145-.227s.034.357-.035.394c-.036.018-.217-.244-.253-.225-.109.055.039.167.142.179a1.063,1.063,0,0,0-.308.015,4.87,4.87,0,0,1-.786.042c.133-.02.021.15-.04.156s-.148.053-.225.058c-.184.012-.367-.112-.552-.113-.166,0-.335.19-.5.178-.076-.005-.158.047-.234.04-.016,0-.262-.244-.073-.21a6.261,6.261,0,0,1-.719-.156c-.1-.03-.29.2-.391.169-.223-.076.279-.276.078-.371-.125-.059-.4.18-.519.115-.409-.215-.972-.272-1.2.162-.215.408.035.828.471,1.058l-.212.12c.036-.069.189-.077.189-.077" fill="#0d4b08"/><path d="M34.586,34.666c.071.272.5.459.562.735s.131.552.172.831c.024.115-.112-.089-.129-.207.01.077-.214.146-.222.223.018-.117.1-.1.112-.222-.006.036.033.074.021.108.046-.1-.12-.174-.075-.28-.011.024.157.124.143.146.069-.089.035-.116.1-.206-.017.021.01.081-.011.1.09-.069-.049-.241.039-.312-.042.027.039.209-.006.23.106-.044.2.168.3.123-.072.031-.221-.025-.3-.013.117-.014.091-.215.209-.232-.07.008-.1-.125-.174-.133.117.016.083.264.2.28-.078-.011-.194.1-.272.09-.117-.037-.168-.092-.285-.066-.117,0-.256-.12-.357-.055-.183.107-.117.385-.165.6s-.386.5-.256.7a.971.971,0,0,0,.647.29c.181.024.358-.047.542-.039a1.658,1.658,0,0,0,.795-.029c.313-.144.4-.469.483-.808.071-.286-.041-.454-.089-.741-.045-.266-.012-.538-.071-.8s.037-.563-.031-.824c-.056-.213-.147-.548-.337-.659s-.541-.009-.753.06c-.46.148-.984.655-.858,1.133l.284.122c-.088.023-.224-.139-.224-.138" fill="#0d4b08"/><path d="M26.164,29.962a2.828,2.828,0,0,0-.038.947,2.786,2.786,0,0,0,.176.93,1.876,1.876,0,0,0,.438.859,1.713,1.713,0,0,0,.916.375c.38,0,.595-.3.859-.43.318-.151.654-.164.824-.436a2.244,2.244,0,0,0,.271-.93,3.2,3.2,0,0,0,.073-.99,2.921,2.921,0,0,0-.327-.962,2.029,2.029,0,0,0-.805-.723,2.119,2.119,0,0,0-1.093-.2,2.086,2.086,0,0,0-1.019.5c-.211.208-.014.675-.164,1.043,0,.058-.111.013-.111.013" fill="#0d4b08"/><path d="M44.263,29.861c.079.258-.125.679-.146,1.057a3.014,3.014,0,0,1-.267.943c-.126.312-.118.765-.382.976-.239.192-.66-.033-1.038.006-.38,0-.665.1-.929-.029a1.547,1.547,0,0,1-.65-.664,2.031,2.031,0,0,1-.229-.89c-.041-.327-.413-.682-.349-1a2.871,2.871,0,0,1,.528-.9c.178-.275.56-.311.881-.454s.61-.551.955-.492c.311.053.435.54.7.807.212.209.62.253.77.621a.113.113,0,0,0,.151.015" fill="#0d4b08"/><path d="M40.86,14.695c.088.332.075.694.165,1.031s.425.6.519.939.009.72.11,1.053.459.581.57.91.14.683.266,1.006.32.611.464.926-.042.8.125,1.1c.175.32.7.434.9.743s.144.777.356,1.075.583.473.812.757.421.595.666.865.628.4.889.652.524.487.8.725.423.624.714.845c.248.188.462.429.724.6s.633.148.907.3.506.362.794.485.5.457.8.551a.956.956,0,0,0,.924-.329,1.027,1.027,0,0,0,.152-.881c-.059-.279-.242-.437-.59-.547a8.008,8.008,0,0,1-.956-.383,9.419,9.419,0,0,1-.929-.446c-.289-.174-.4-.622-.671-.824s-.77-.123-1.027-.347-.517-.461-.756-.7-.153-.787-.375-1.042-.541-.425-.748-.69-.348-.583-.539-.857-.5-.441-.669-.718-.192-.629-.339-.917-.595-.436-.726-.732-.064-.679-.181-.981-.312-.577-.417-.883-.225-.611-.32-.921.094-.7.006-1.013-.16-.625-.244-.938-.575-.517-.658-.83c-.1-.36-.141-.6-.419-.655-.3-.06-.786-.148-1.011.058a1.219,1.219,0,0,0-.215,1.051l.2.145c-.006,0-.063-.18-.063-.18" fill="#0d4b08"/><path d="M41.015,13.921c-.212.284-.667.378-.892.652s-.215.751-.453,1.014-.571.443-.821.694-.664.329-.925.568-.408.6-.681.831-.555.44-.839.653-.572.419-.866.616c-.264.176-.474.44-.744.6s-.7.059-.974.212-.53.337-.814.478-.448.535-.738.663-.648.015-.93.123-.484.445-.77.541c-.15.05-.355-.049-.512-.033-.036,0-.094-.018-.126-.008-.169.056.221-.066.24,0a1.5,1.5,0,0,1-.107.383,1.872,1.872,0,0,1-.046-.525c.032-.33.373-.616.427-.943s-.319-.73-.256-1.055.579-.566.637-.892-.052-.686-.011-1.014c.05-.4-.318-.56-.646-.676s-.76-.28-1.008-.036-.462.483-.7.717-.271.68-.512.913-.556.389-.8.621-.521.424-.763.655-.52.425-.763.654-.354.6-.6.83-.747.179-.993.406-.494.45-.742.675-.382.574-.632.8-.388.573-.639.793-.513.433-.767.651-.58.352-.836.567-.406.561-.665.773a.808.808,0,0,0-.2,1.16,1.132,1.132,0,0,0,1.42.059c.259-.212.258-.736.515-.951s.71-.2.964-.414.451-.5.7-.723.43-.522.68-.745.729-.19.977-.415.5-.444.75-.67.3-.668.54-.9.481-.464.725-.694.444-.5.686-.734.733-.2.974-.436.355-.6.595-.829.339-.611.578-.845.553-.325.792-.559a1.319,1.319,0,0,0-.676-.449c-.377-.156-.386.017-.794.023-.04.325-.2.409-.258.748s0,.678-.059,1.01.026.686-.027,1.017-.457.626-.485.957a2.178,2.178,0,0,0,.313.986c.124.29.242.7.57.875a2.129,2.129,0,0,0,1.281.081c.4-.06.734-.427,1.1-.56.308-.112.74.094,1.043-.03s.61-.26.908-.4.54-.4.832-.549.453-.532.738-.694.657-.169.935-.343.442-.512.712-.7.716-.121.979-.318.342-.622.6-.83.585-.316.83-.534.373-.579.614-.814.717-.238.947-.484.221-.7.441-.96.6-.372.812-.635.271-.638.473-.909a.78.78,0,0,0-.158-1.143,1,1,0,0,0-1.282.315l-.054.182c.061.045.227-.053.227-.053" fill="#0d4b08"/><path d="M46.771,5.269c.333.2.829.144,1.12.382s.526.557.8.83c.207.206.527.3.737.5s.274.557.479.766.226.583.419.8c.226.255.464.485.671.756s.671.357.861.641.258.65.431.944.175.679.334.981.5.511.645.818c.157.333.232.7.372,1.043s.425.627.548.974.063.756.171,1.108.474.634.567.99.024.757.1,1.116c.081.376-.16.8-.1,1.182s.4.716.441,1.1-.026.771,0,1.153.007.765.028,1.149c.019.348.057.695.073,1.044s.32.687.331,1.036-.446.711-.438,1.06.344.693.346,1.042.1.7.1,1.05-.211.7-.222,1.045a.724.724,0,0,0,.461.7.809.809,0,0,0,.779-.115c.253-.13.637-.218.648-.584.01-.328-.023-.659-.019-.987s.089-.657.088-.985.009-.659,0-.987-.321-.648-.331-.976.163-.662.149-.99-.231-.645-.247-.973-.072-.663-.093-1-.026-.664-.053-1-.034-.663-.071-1,.183-.7.134-1.026-.3-.627-.36-.955-.284-.638-.364-.975-.086-.682-.179-1.015-.162-.666-.268-.994-.133-.681-.252-1.005-.421-.571-.554-.889.134-.815-.012-1.127-.432-.564-.593-.87-.53-.493-.7-.79-.133-.729-.322-1.018-.509-.489-.713-.767-.213-.714-.431-.981S51.769,7,51.533,6.75s-.677-.3-.922-.543-.521-.453-.764-.7c-.226-.226-.476-.407-.712-.618s-.288-.644-.542-.834-.659-.145-.935-.309c-.319-.19-.656-.487-.894-.334-.255.163-.169.65-.186.955-.015.283-.066.61.252.8l-.056-.1a.284.284,0,0,0,0,.2" fill="#0d4b08"/><path d="M44.516,2.277c-.305-.123-.567-.341-.876-.452s-.514-.539-.828-.638-.664-.1-.981-.182-.657-.1-.977-.175S40.23.587,39.907.524,39.2.765,38.874.715,38.27.3,37.943.261s-.668.057-1,.032-.655-.037-.984-.049S35.307,0,34.977,0s-.657.2-.986.21-.662.268-1,.3-.676.027-1.015.074-.73-.235-1.066-.173-.66.213-.993.29-.629.3-.959.394-.617.3-.943.409-.645.205-.966.323-.631.244-.947.375-.7.089-1.015.233-.682.168-.987.323-.44.625-.739.792-.577.349-.867.529-.561.372-.842.565-.775.091-1.046.3-.534.437-.794.658-.514.46-.761.7-.233.725-.466.975-.454.49-.673.754-.771.263-.974.54c-.192.262-.389.533-.567.8s-.125.691-.29.971-.534.448-.686.735-.3.586-.435.88-.289.589-.417.888-.08.672-.2.975-.339.571-.444.877.1.715.006,1.025-.541.519-.627.831c-.092.338.041.734-.041,1.074s-.286.652-.357.994-.242.669-.3,1.013.163.736.111,1.081-.254.67-.3,1.017-.242.68-.276,1.028.162.717.137,1.066.19.709.173,1.058-.174.689-.183,1.038-.07.7-.072,1.046-.076.7-.071,1.048.269.691.28,1.04c.011.365.013.541.266.672a.9.9,0,0,0,1.463-.671c-.01-.337-.161-.67-.166-1.01s.119-.674.12-1.014-.387-.682-.379-1.021.047-.68.062-1.019.052-.679.075-1.017.312-.656.343-.993-.169-.7-.13-1.036.046-.682.1-1.017.309-.639.368-.972-.005-.692.064-1.024.092-.678.171-1.007.082-.686.172-1.012.452-.576.555-.9.025-.71.14-1.028.19-.662.318-.975.6-.478.745-.786.227-.636.383-.937.133-.7.3-.994.372-.572.556-.857.542-.461.745-.735.306-.633.527-.894.333-.635.572-.881.677-.293.931-.524.617-.319.885-.534.3-.732.584-.931.665-.244.957-.427.611-.3.907-.468.5-.509.8-.666.718-.082,1.027-.227.6-.308.917-.439.64-.22.959-.337.62-.278.945-.38.636-.246.964-.334.682-.065,1.014-.136.625-.361.96-.416.713.2,1.051.167c.355-.039.692-.2,1.047-.217s.707-.143,1.063-.148.71.106,1.065.118.718-.083,1.073-.054.684.276,1.037.321.691.14,1.041.2.729-.045,1.077.031.717.066,1.061.157.655.3,1,.4.646.3.981.423.65.274.981.408c.442.178,1.051-.351,1.167-.773.138-.5-.232-.805-.676-.984L44.472,2a.4.4,0,0,0,.044.274" fill="#0d4b08"/><path d="M50.249,56.086c-.193-.068.165.205,0,.132-.09-.041-.2-.028-.293-.068-.274-.123-.425-.517-.7-.641-.355-.163-.8-.139-1.151-.3s-.736-.272-1.091-.436c-.293-.136-.633-.172-.926-.308s-.431-.609-.724-.745c-.116-.053-.188-.211-.305-.262-.447-.2-.3.173-.234.211-.07-.039-.01-.318-.08-.359-.125-.072-.387.073-.5-.017.041.033-.068-.17-.1-.2s-.035-.122-.074-.166c-.062-.073-.033.141-.115.011-.171-.273-.051-.23-.135-.538-.028-.1-.233-.167-.253-.273-.01-.054-.063-.1-.072-.157-.049-.27.326.131.293-.15-.041-.349-.183-.684-.215-1.034s-.207-.687-.237-1.037a.7.7,0,0,0-.8-.72c-.446,0-.824.226-.783.7.028.335.109.665.139,1s.051.667.091,1c.03.257-.243.561-.2.815s.348.443.445.684a3.461,3.461,0,0,0,.339.806c.174.231.267.59.5.776.268.209.71.165,1.018.31.1.046.274.509-.137.278.006,0,.109-.162.115-.159.024.012-.034.205-.009.217.324.151.737.111,1.06.261s.65.3.974.447.746.087,1.071.237.576.456.9.606c.281.128.453.5.737.633s.652.092.944.194a.974.974,0,0,0,1.146-.644,1.024,1.024,0,0,0-.631-1.187l.118.143a1.583,1.583,0,0,0-.146-.065" fill="#0d4b08"/><path d="M20.276,57.668c.249-.087.484-.186.727-.3s.543-.1.783-.21c.378-.173.694-.48,1.072-.655s.731-.4,1.108-.576c.293-.135.571-.3.864-.438s.722.024,1.015-.111c.058-.027.01-.278.068-.306.117-.058-.182.049-.172.045.22-.1.531.017.736-.109a4.479,4.479,0,0,0,.811-.486c.219-.212.174-.639.323-.907s.468-.455.541-.743a7.538,7.538,0,0,0,.183-.892c.047-.37,0-.754.034-1.125s.225-.73.256-1.1c.041-.476-.629-.725-1.077-.725-.512,0-.953.221-.994.7-.027.321.277.671.249.991s-.519.593-.556.912c-.007.058.143.37.166.22-.014.1.094.213.075.309s.063.246.034.35c-.019.065-.191.35-.119.2a1.972,1.972,0,0,1-.85.948c-.049.029-.278-.2-.322-.165-.167.132.406.188.093.33-.043.02-.192-.195-.236-.176s-.192-.111-.25-.084c-.316.145-.444.7-.76.846s-.82-.115-1.136.032-.608.342-.924.488-.468.647-.784.792-.672.264-1,.412c-.1.047-.322-.163-.426-.117-.228.1.268.117.081.183-.45.157-.754.488-.621.97.12.437.679,1.007,1.131.848l.139-.3c-.022-.065-.262-.054-.262-.054" fill="#0d4b08"/><path d="M1.356,88.689c.49-4.22.946-7.977,1.338-10.7.457-3.167,1.6-8.731,3.7-12.236,2.694-4.046,6.481-6.134,11.293-8.18l4.943-1.723A19.753,19.753,0,0,0,35.2,60.06,19.95,19.95,0,0,0,47.65,55.948l4.758,1.623c4.813,2.046,8.6,4.134,11.294,8.18,2.1,3.5,3.246,9.069,3.7,12.236.359,2.5.772,5.855,1.215,9.643.644,7.116,1.528,16.276-5.651,20.679-3,1.841-6.357,1.769-10.269,1.771H15.424c-2.97-.028-5.912-.236-8.407-1.767C.227,104.15.71,95.728,1.32,88.807" fill="#fff"/><path d="M2.185,88.683c.038-.326.321-.625.358-.951s-.223-.688-.185-1.014.079-.653.117-.98.172-.642.21-.968.1-.65.143-.977.025-.659.065-.986.253-.63.3-.957-.042-.668,0-.994.258-.628.3-.954.024-.66.07-.985.1-.649.15-.974c.053-.35.151-.691.21-1.041s.163-.687.228-1.036-.035-.727.038-1.074.135-.695.215-1.04.091-.709.18-1.052.172-.69.271-1.03.391-.621.5-.958.131-.7.251-1.035.43-.59.561-.92c.116-.29-.021-.682.109-.963s.3-.548.448-.821.4-.484.563-.747.214-.6.4-.855.391-.485.6-.722.458-.427.674-.65.32-.569.549-.78.444-.451.683-.65.485-.407.735-.593.723-.057.981-.231c.28-.188.494-.47.781-.646s.635-.24.928-.4.509-.468.808-.624.622-.259.925-.407.653-.19.958-.331c.357-.165.631-.51.991-.668.228-.1.557.047.79-.043-.035.013-.234-.312-.164-.337.235-.085.587.162.823.08.52-.181.491-.263,1.01-.444s.545-.117,1.067-.3.422-.471.945-.653.576-.036,1.1-.219.547-.117,1.072-.3a1,1,0,0,0-.546-1.921c-.318.111-.563.43-.881.541s-.651.177-.969.288-.61.3-.928.408-.712,0-1.03.113-.642.205-.96.316c-.346.121-.732.146-1.075.276s-.6.478-.942.618-.717.193-1.052.343-.612.424-.942.584-.745.158-1.07.329-.63.385-.949.567-.461.657-.773.849c-.284.175-.709.127-.987.314s-.568.36-.836.56-.388.588-.647.8-.516.415-.763.64-.638.3-.872.538-.311.623-.531.875-.56.4-.763.668-.387.548-.572.826-.448.516-.613.807-.138.683-.281.986-.2.644-.334.955-.444.546-.565.862-.289.615-.4.935-.026.7-.126,1.024-.415.582-.506.907.109.727.026,1.054-.314.617-.389.946-.207.647-.276.977.054.7-.008,1.03-.251.64-.308.972-.346.64-.4.979.307.742.256,1.082-.157.669-.2,1.009-.189.667-.234,1.007-.253.66-.3,1,.2.717.156,1.057-.344.651-.384.992.158.71.119,1.051-.01.691-.048,1.032-.206.668-.244,1.009-.179.671-.218,1.012-.288.657-.327,1c-.055.475.674.9,1.112.9a1.08,1.08,0,0,0,1.087-.849l-.211.03c-.027,0-.047-.061-.047-.061" fill="#0d4b08"/><path d="M69.528,88.105c-.038-.329-.112-.654-.15-.983s.227-.694.189-1.023-.4-.622-.433-.951.026-.671-.013-1-.1-.656-.136-.985.093-.68.052-1.009-.27-.635-.312-.964-.132-.651-.176-.98-.185-.643-.231-.971-.093-.656-.141-.984.271-.711.22-1.039c-.054-.352-.561-.631-.622-.983s.328-.785.261-1.136-.531-.621-.606-.971-.02-.725-.1-1.072-.3-.656-.4-1-.229-.672-.331-1.014.151-.795.038-1.133-.54-.568-.664-.9-.144-.706-.279-1.036c-.129-.314-.167-.662-.307-.963s-.4-.549-.56-.842-.089-.728-.266-1.012-.578-.422-.776-.695-.386-.539-.6-.8-.353-.554-.576-.789-.38-.544-.615-.767-.454-.479-.7-.689-.729-.133-.985-.331-.463-.456-.728-.643-.413-.585-.693-.765-.553-.388-.841-.558-.6-.3-.9-.462-.608-.289-.9-.439-.755.024-1.056-.119c-.336-.16-.623-.427-.963-.583s-.547-.624-.892-.767-.746-.176-1.1-.3c-.516-.176-.485-.268-1-.444s-.659.235-1.178.058-.47-.319-.99-.5-.547-.1-1.068-.28-.45-.384-.971-.561a.809.809,0,0,0-.869.26c-.2.22-.475.6-.41.906.059.278.5.327.841.444.453.155.423.244.876.4s.47.111.925.267.415.276.871.431.406.309.863.465.448.184.905.34c.306.1.638.14.945.242.053.017.207-.256.259-.237s-.264.028-.035.124c.093.039.134.2.226.24.229.1.56-.036.787.065.3.133.553.376.85.514s.529.416.823.561.549.361.839.514.533.38.819.542.58.291.86.463.691.179.972.371.63.3.9.506.361.637.62.858.686.258.931.494.278.678.507.93.483.47.694.737.4.54.59.823.267.619.435.916.451.517.6.828.533.53.667.854-.054.77.066,1.1.236.651.344.984.363.616.46.952.328.637.415.976.038.712.116,1.052.309.651.381.993.089.7.154,1.04.2.677.26,1.02.1.69.157,1.033.127.686.178,1.029-.069.714-.02,1.058.159.68.2,1.024-.167.722-.124,1.067.311.662.353,1.007.212.676.252,1.022.085.69.125,1.036-.288.732-.249,1.078.193.677.233,1.022-.085.709-.045,1.054a1.109,1.109,0,0,0,1.1.852.694.694,0,0,0,.657-.852l.243.129c-.014,0-.045-.152-.045-.152" fill="#0d4b08"/><path d="M53.39,111.092c.355,0,.711-.224,1.068-.225s.714.092,1.071.084.708-.138,1.064-.157.707-.067,1.062-.1.75.237,1.1.184.732-.049,1.081-.126.624-.46.966-.566.77-.048,1.11-.19.5-.65.827-.823.848,0,1.157-.206.394-.711.682-.939.657-.35.924-.6.668-.387.909-.664c.221-.253.257-.654.453-.919s.345-.562.52-.842.506-.476.659-.769.36-.573.492-.878.056-.694.168-1.007.355-.583.448-.9-.071-.7,0-1.025.465-.581.524-.908.093-.665.137-.994,0-.672.031-1,.143-.659.162-.99-.247-.676-.238-1.007.323-.637.322-.957-.063-.643-.071-.963-.077-.64-.091-.959-.065-.639-.084-.958-.129-.633-.152-.953-.156-.629-.182-.948.1-.651.074-.969a.984.984,0,0,0-.866-.979,1.058,1.058,0,0,0-.966.984c.03.339.248.662.277,1s-.2.7-.176,1.039.218.667.239,1.008-.1.687-.088,1.027.14.677.146,1.018-.217.679-.219,1.02.165.682.151,1.022.057.686.03,1.026-.276.654-.318.992.122.7.064,1.039.048.711-.028,1.043-.528.554-.625.874.172.77.052,1.082-.28.626-.423.928-.572.462-.738.752-.063.759-.253,1.034-.726.292-.94.549-.193.729-.431.965-.471.5-.732.713a10.025,10.025,0,0,1-.835.589c-.279.182-.67.191-.971.345s-.524.487-.84.608-.747-.2-1.056-.116-.606.16-.922.224-.6.27-.917.314-.62.265-.941.292-.65-.019-.972,0-.644.13-.966.136-.649-.264-.972-.263-.644-.1-.964-.1a1.1,1.1,0,0,0-.832.621c-.138.271.083.587.221.857.129.253.24.6.611.6l.022-.085a.464.464,0,0,1-.022.129" fill="#0d4b08"/><path d="M16.593,109.157c-.339,0-.68-.03-1.021-.032s-.685.213-1.026.205-.672-.293-1.012-.311-.682.02-1.021-.014-.657-.184-.993-.236-.716.129-1.048.053-.693-.084-1.019-.188a9.881,9.881,0,0,1-.983-.282c-.3-.134-.411-.671-.7-.835s-.586-.29-.858-.482-.74-.137-.992-.354-.329-.632-.559-.871-.316-.593-.523-.853c-.221-.278-.712-.355-.9-.651s-.363-.621-.523-.934-.385-.616-.517-.943-.247-.677-.354-1.013.011-.741-.072-1.085-.354-.651-.416-1-.029-.717-.072-1.067-.07-.707-.1-1.058.2-.719.19-1.07-.292-.7-.3-1.049.332-.7.338-1.046-.235-.7-.221-1.053-.027-.7-.007-1.05-.045-.706-.02-1.054.415-.669.443-1.018-.353-.731-.323-1.079c.042-.476-.222-.991-.67-.991-.512,0-.73.542-.772,1.019-.029.327-.249.638-.276.966s.085.666.061.994-.067.654-.087.983-.229.647-.244.976.062.662.054.991.173.66.173.989-.2.66-.191.988.28.645.3.974-.033.657,0,.984,0,.66.043.986.165.636.223.96.029.663.1.984.359.61.459.938.224.635.346.956-.036.757.109,1.068.544.492.711.791.286.618.475.9.271.648.482.919.45.521.683.774.5.472.752.7.573.375.847.584.59.326.882.512.479.521.786.68.644.229.965.361.684.17,1.024.275.629.384.977.461.727-.037,1.08.017.661.469,1.016.5.734-.2,1.09-.184.714-.076,1.07-.067.71.076,1.066.078.714.167,1.068.167a.948.948,0,0,0,.829-.465c.138-.27-.114-.568-.252-.838-.129-.252-.206-.523-.577-.524l.217,0c0-.023-.217-.046-.217-.046" fill="#0d4b08"/><path d="M22.409,56.508c.27.206.537.4.817.588s.432.572.721.749.488.522.786.685.669.2.974.347.722.045,1.034.177.577.369.9.487.558.474.881.577.729-.068,1.057.019.607.383.938.455.7-.054,1.038,0,.645.289.982.33.672.181,1.01.207.7-.3,1.038-.291.671-.1,1.01-.109.673.072,1.012.051.685.094,1.023.058.664-.139,1-.191.643-.226.976-.294.656-.136.985-.219.741.134,1.066.035.629-.273.949-.388.629-.334.955-.471.6-.38.917-.533.715-.148,1.025-.317.518-.511.818-.7.551-.433.842-.633.632-.317.913-.531a.665.665,0,0,0,.188-1.017c-.217-.373-.788-.917-1.169-.626-.271.207-.43.556-.71.749s-.649.241-.939.419-.357.743-.656.906-.7.143-1.007.291-.665.179-.98.31-.64.218-.961.332-.544.536-.871.633-.665.192-1,.271-.724-.114-1.06-.054-.657.2-1,.245-.649.142-.976.168-.668-.2-1-.19-.649-.08-.977-.084-.671.429-1,.411-.652-.176-.978-.209-.622-.3-.947-.348-.661,0-.983-.065-.676.009-.994-.071-.569-.4-.883-.5-.582-.3-.89-.409-.6-.213-.891-.341-.582-.249-.871-.394-.749.036-1.029-.123-.406-.579-.678-.752-.6-.255-.865-.44-.564-.323-.82-.519a.831.831,0,0,0-1.168.282.919.919,0,0,0,.3,1.223c.107.024.138-.195.138-.195" fill="#0d4b08"/><path d="M15.444,110.831c.339,0,.677.031,1.016.031s.678-.081,1.016-.081.678.263,1.016.263.678-.263,1.017-.263.677.162,1.016.162.677-.036,1.016-.036.677-.07,1.016-.07.677.29,1.016.29.677.018,1.016.018.678.031,1.016.031.678-.1,1.016-.1.678-.013,1.017-.013.677-.134,1.016-.134.677-.121,1.016-.121.677.182,1.016.182.677-.025,1.016-.025.677.114,1.016.114.678.054,1.016.054l1.016,0c.339,0,.678-.257,1.017-.257s.677.113,1.016.113.677-.174,1.016-.174.677.275,1.016.275.677-.375,1.016-.375.677.342,1.016.342.678.14,1.016.14.678-.433,1.016-.433.678.211,1.017.211c.486,0,.486-.2.972-.2s.489.127.977.127.487.271.974.271.488-.28.976-.28.486-.076.972-.076.488.239.976.239.489-.165.979-.165.49-.074.981-.074.49.341.981.341c.37,0,.427-.478.556-.73.138-.271.457-.581.319-.851-.129-.253-.5-.179-.875-.179-.339,0-.678-.253-1.016-.253s-.678-.043-1.017-.043-.677.148-1.016.148H48.619c-.339,0-.677-.29-1.016-.29s-.677.4-1.016.4-.678-.009-1.016-.009-.678-.151-1.016-.151-.678-.124-1.017-.124-.677.319-1.016.319-.677-.252-1.016-.252-.677-.136-1.016-.136-.677.323-1.016.323-.677.115-1.016.115-.678-.4-1.016-.4-.678.172-1.016.172-.678-.206-1.016-.206-.678.332-1.017.332-.677-.295-1.016-.295-.677.119-1.016.119-.677-.117-1.016-.117-.677.34-1.016.34-.678-.088-1.016-.088-.678-.15-1.016-.15-.678.227-1.016.227-.678-.091-1.017-.091-.677-.165-1.016-.165-.677-.134-1.016-.134-.651.339-.976.339-.651.109-.977.109-.651-.383-.976-.383-.651-.026-.977-.026-.651.323-.976.323-.651-.068-.977-.068-.651.006-.976.006-.651.09-.977.09-.651-.394-.976-.394a1.1,1.1,0,0,0-.84.609,1.276,1.276,0,0,0-.053,1c.129.252.522.226.893.226l-.065.14a.231.231,0,0,1,.065-.131" fill="#0d4b08"/><path d="M29.944,68.081c-.28.2-.542.407-.807.621s-.684.254-.936.485-.436.537-.673.784-.308.636-.529.9-.665.34-.871.615c-.128.171.1.5.154.694s-.043.65.148.751a1.236,1.236,0,0,0,.809.02,1.42,1.42,0,0,0,.686-.369c.029-.039.032-.1.061-.136.065-.087-.256.04-.156-.086.06-.076.281-.019.342-.093.122-.15-.122-.61,0-.754.249-.282.526-.564.8-.826s.555-.534.843-.775c.074-.062.25,0,.325-.065.031-.024-.012-.142.018-.166s.274-.063.075.079c.157-.112.26-.3.417-.412.192-.136.378-.164.443-.4.058-.211.209-.544.088-.731-.24-.373-1.036-.705-1.438-.419l-.009.266c.04.055.21.017.21.017" fill="#0d4b08"/><path d="M26.393,83.149c-.01.115-.178.114-.168.028-.007.042.116.12.1.161s-.284.187-.234.087c.063-.128-.146.238.049.022-.041.046-.152.023-.2.067.088-.089.274.21.169.27-.081.046-.326-.279-.143-.317-.11.023-.206.138-.316.164-.037.007-.045.216-.082.222.135-.017.156-.1.087-.1s-.112.134-.168.136-.313-.234-.145-.2c.042.007-.074.1-.115.092-.1-.033-.147-.144-.066-.109-.078-.049-.108.048-.062.086s.129-.033.065-.1c.039.074-.184-.151-.169-.051-.018-.12.1-.461.1-.651-.006-.32-.053-.635-.077-.953s.149-.665.1-.98-.452-.541-.549-.847a6.114,6.114,0,0,0-.365-.811c-.131-.276-.085-.631-.249-.89s-.328-.51-.519-.754a.857.857,0,0,0-1.223.006c-.371.371-.139.724.156,1.1a7.549,7.549,0,0,1,.5,1.3c.044.1.032.166,0,.1.023.06.141.042.163.1.043.121.195.216.231.34.065.224-.254.539-.21.768a5.936,5.936,0,0,1,.235.767c.015.268.312.53.318.8.007.314-.446.678-.39.987.06.336.494.53.718.784a1.526,1.526,0,0,0,.737.4c.282.1.538.314.843.306a3.265,3.265,0,0,0,.9-.16c.327-.107.756-.113.977-.317s.03-.748.153-1.046c.116-.282.389-.506.414-.837.035-.476-.421-.715-.873-.715-.507,0-.9.234-.937.712l.043.137c.091.008.194-.117.194-.117" fill="#0d4b08"/><path d="M23.23,83.082c-.012.082.329.252.306.332-.011.038-.211.03-.225.067.053-.12.178-.076.137.009,0,.006-.3.031-.3.028.083-.1.19-.043.129.029-.024.028-.227-.121-.254-.095s.06.165.032.188c.106-.079.207.037.13.092-.048.028-.082.108-.131.134-.033.018-.1,0-.136.018.125-.051.118-.113.029-.079-.056.015-.127-.013-.183,0-.037.009-.077.011-.115.018-.1.016-.068.033.071.011a2.515,2.515,0,0,0-.251-.24c.111.016.135.173.069.158-.033-.007-.025-.068-.057-.08.106.049-.014.308-.1.265-.04-.021-.044-.137-.083-.162-.08-.056-.163.07-.074.137-.035-.029.143-.352.11-.383-.128-.093-.064.27-.142.12-.021-.035.149-.143.131-.18.046.117,0,.147-.037.055-.022-.071-.118-.114-.136-.186-.075-.3-.1-.6-.161-.9s-.4-.507-.5-.8c-.123-.355.021-.8-.166-1.113a8.087,8.087,0,0,0-.584-.948c-.291-.361-.916-.091-1.215.234-.351.384-.4.674-.09,1.06.04.048-.009.293-.1.166.041.057.361-.083.4-.026.086.122-.2.483-.123.613.059.1.11.191.16.3.013.026.136,0,.149.028.052.105-.014-.19.022-.078.02.063.057.122.078.185a6.038,6.038,0,0,1,.258.784c.052.267.2.515.258.783a2.23,2.23,0,0,0,.458.868c.2.287.268.666.6.83a2.14,2.14,0,0,0,1.094.078c.371-.014.817.19,1.17.02a2.608,2.608,0,0,0,.818-.809,2.209,2.209,0,0,0,.288-1.053c.036-.244.145-.448.015-.67a.854.854,0,0,0-.548-.342c-.419-.095-1.188.041-1.259.53l.216-.132c-.063-.011-.155.136-.155.137" fill="#0d4b08"/><path d="M29.277,86.173c-.109.339.081.8-.079,1.111a6.858,6.858,0,0,1-.69.835c-.211.283-.574.424-.825.67a6.7,6.7,0,0,1-.852.581c-.287.2-.361.757-.675.916a7.392,7.392,0,0,1-1.019.364,7.329,7.329,0,0,1-1.082.032,6.506,6.506,0,0,1-1.037-.072c-.351,0-.722.344-1.072.285s-.636-.348-.972-.467c-.318-.113-.73-.026-1.012-.188s-.368-.631-.617-.844-.715-.224-.923-.48-.172-.685-.335-.974a6.028,6.028,0,0,1-.449-.867c-.113-.307-.46-.561-.528-.888s.131-.684.08-1-.2-.625-.238-.947-.1-.643-.122-.965-.015-.651-.03-.972.015-.62.015-.932-.023-.623,0-.932.276-.578.339-.88a5.316,5.316,0,0,1,.225-.872,3.762,3.762,0,0,1,.265-.726,3.311,3.311,0,0,1,.5-.59,4.434,4.434,0,0,1,.718-.473,4.229,4.229,0,0,0,.6-.647,2.166,2.166,0,0,0,.415-.789c.11-.25.37-.322.6-.463a1.2,1.2,0,0,1,.7-.213,3.681,3.681,0,0,1,.8.091c.444.094.8-.292.9-.781a4.518,4.518,0,0,1,.466-.961c.134-.3.446-.358.811-.545a.861.861,0,0,1,.636-.161c.265.046.659-.182.9-.047s.3.561.506.721a9.068,9.068,0,0,1,.717.564c.223.21.379.482.581.706s.408.468.58.7a8.9,8.9,0,0,1,.688,1.051,4.674,4.674,0,0,1,.434,1.156,8.077,8.077,0,0,1,.35.958c.04.333-.042.677-.032,1.018s.129.675.119,1.013-.016.68-.037,1.015-.269.664-.292,1c-.01.149-.081.293-.093.442,0,.045.3.116.294.161-.021.206-.133-.234-.2.013-.051.181.1.607-.1.7a1.233,1.233,0,0,1-1.068-.234s-.133-.134-.069-.06c-.025-.029.193-.442.242-.277a4.334,4.334,0,0,1-.247-.7c-.038-.344-.268-.664-.311-1.008s.241-.734.186-1.074-.384-.633-.461-.969-.268-.627-.375-.955.029-.74-.116-1.055A7.452,7.452,0,0,0,26.4,76.4a6.687,6.687,0,0,0-.538-.89c-.252-.283-.533-.149-.8-.058s-.749.127-.843.423c-.086.271.289.494.53.764.263.3.135.86.316,1.2s.706.542.825.914a10.4,10.4,0,0,1,.319,1.147c.055.281-.11.6-.07.888s-.113.588-.081.873c.036.311.4.609.426.94a4.394,4.394,0,0,0,.1.939c.122.392.09.93.384,1.189a3.043,3.043,0,0,0,1.142.579c.383.1.83-.151,1.219-.229.358-.072.827.015,1.087-.2s.355-.665.509-.979a3.088,3.088,0,0,0,.388-.991c.032-.324-.236-.678-.21-1.009s.451-.635.466-.966-.041-.671-.041-1-.091-.668-.109-1-.225-.645-.265-.972-.171-.632-.238-.954A5.188,5.188,0,0,0,30.664,76a7.652,7.652,0,0,0-.458-.953c-.184-.311-.224-.718-.429-1-.178-.245-.318-.537-.516-.77s-.545-.335-.759-.552-.6-.244-.823-.444-.235-.672-.478-.853c-.278-.208-.7-.183-1.009-.336a4.511,4.511,0,0,0-.9-.522,3.576,3.576,0,0,0-1.064-.235,3.433,3.433,0,0,0-1,.43c-.255.125-.383.45-.6.634s-.643.2-.8.442a3.473,3.473,0,0,0-.318.906c-.088.292-.051.625-.114.923.6-.186.549-.282,1.015-.7-.318-.068-.582.138-.9.115s-.659-.341-.977-.287-.512.447-.81.6a2.813,2.813,0,0,0-.7.533c-.222.219-.56.325-.707.6a2.645,2.645,0,0,0-.341.811c.282-.176.231-.17.321-.49-.317.215-.649.272-.947.5a7.616,7.616,0,0,0-.833.823c-.257.27-.227.766-.421,1.1-.155.272-.61.406-.719.695a7.584,7.584,0,0,0-.317.909c-.07.3.26.683.221.992s-.228.6-.242.91c-.016.344-.134.692-.126,1.035s.365.669.391,1.012-.07.692-.032,1.033-.187.718-.141,1.058c.042.309.47.557.52.86s.094.6.162.9.2.566.292.86-.119.7.014.985a6.915,6.915,0,0,0,.571.939c.2.3.58.46.827.722a7.164,7.164,0,0,0,.836.661c.283.224.357.767.669.948s.792.048,1.126.183a7.149,7.149,0,0,0,1.043.217c.32.078.578.463.9.5s.664-.313.991-.316.652.185.976.143a8.521,8.521,0,0,0,.965-.162,9.026,9.026,0,0,0,.989-.145,9.259,9.259,0,0,0,.954-.315c.289-.144.33-.719.6-.895s.651-.177.9-.383a8.839,8.839,0,0,0,.8-.566,8.67,8.67,0,0,0,.577-.789,8.769,8.769,0,0,0,.55-.8,8.907,8.907,0,0,0,.28-.937c.133-.293.51-.493.609-.8a.886.886,0,0,0-.341-.883.954.954,0,0,0-.845-.166.755.755,0,0,0-.615.548l.034-.229c-.08-.026-.232.164-.232.165" fill="#0d4b08"/><path d="M28.819,84.885l3.54-24.42A2.79,2.79,0,0,1,35.52,58.1l11.074,1.6a2.791,2.791,0,0,1,2.361,3.162l-3.54,24.42a2.79,2.79,0,0,1-3.161,2.362L31.18,88.047a2.791,2.791,0,0,1-2.361-3.162" fill="#3e783d"/><path d="M30.647,89.1c.333.048.687-.053,1.02,0s.644.245.977.293.667.089,1,.137.734-.372,1.067-.324.648.216.981.264.661.128.994.176.66.138.993.186.684-.028,1.017.02.66.137.992.185c.509.074.5.128,1.009.2s.518.006,1.026.079c.262.038.488.364.751.39a3.911,3.911,0,0,0,.8-.143,3.507,3.507,0,0,0,1.066-.239,3.535,3.535,0,0,0,.829-.7,3.26,3.26,0,0,0,.542-.9c.171-.313.474-.565.534-.929.029-.173.038-.35.063-.523.077-.536-.063-.557.015-1.092s.168-.522.246-1.057.3-.5.382-1.039-.272-.584-.195-1.118.43-.485.508-1.021-.07-.559.008-1.1-.039-.555.039-1.094.388-.494.466-1.032c.05-.345-.1-.719-.047-1.064s.232-.671.282-1.016-.3-.748-.251-1.093.289-.663.339-1.008.31-.659.36-1-.043-.711.007-1.056-.092-.718-.042-1.063.334-.656.384-1,.223-.672.273-1.017-.077-.716-.027-1.061.031-.7.081-1.045c.066-.455.138-.444.2-.9s-.057-.473.009-.929.132-.447.2-.9-.093-.48-.026-.937c.036-.252.41-.456.446-.709a4.233,4.233,0,0,0-.19-1.072,3.248,3.248,0,0,0-.361-.961c-.143-.314-.005-.84-.254-1.114s-.688-.331-.986-.489a4.3,4.3,0,0,0-1.014-.208,9.311,9.311,0,0,0-1.006-.2c-.347-.046-.67-.26-1.007-.308-.472-.069-.491.055-.963-.013s-.49.069-.961,0-.427-.383-.9-.452-.513.2-.987.135-.427-.4-.9-.47-.5.115-.977.046c-.324-.047-.641-.151-.966-.2s-.68.121-1.005.074-.607-.387-.932-.434-.682.137-1.007.09c-.378-.053-.756-.328-1.113-.277-.373.053-.632.476-.96.634a3,3,0,0,0-.826.634,2.952,2.952,0,0,0-.666.806,3.343,3.343,0,0,0-.425.995c-.053.358-.2.7-.25,1.061s-.158.708-.21,1.066.091.744.039,1.1-.243.7-.3,1.054-.034.726-.086,1.085-.058.722-.11,1.08-.211.7-.262,1.059c-.077.528-.207.509-.283,1.036s-.035.533-.111,1.059.283.578.207,1.105-.465.471-.542,1-.081.526-.158,1.053.228.572.152,1.1-.015.535-.091,1.06-.107.524-.184,1.053-.39.484-.466,1.013.084.554.007,1.085.069.552-.008,1.082-.167.507-.242,1.027-.132.513-.208,1.034-.006.532-.082,1.055-.259.5-.334,1.018c-.052.358.2.8.136,1.19a4.888,4.888,0,0,0-.181,1.1c.031.382-.109.81.036,1.153a3.7,3.7,0,0,0,.713.908,3.311,3.311,0,0,0,.946.584,3.2,3.2,0,0,0,.985.535.959.959,0,0,0,1.117-.642.788.788,0,0,0-.667-.951,2.443,2.443,0,0,1-.845-.275c-.227-.144-.1-.606-.238-.869a1.227,1.227,0,0,1-.216-.624c0-.082-.386-.407-.411-.173,0,0,.463.043.463.038.022-.195-.153-.411-.125-.605.077-.538,0-.549.08-1.087s.343-.5.422-1.04-.3-.593-.217-1.132c.048-.328.193-.642.241-.969s-.011-.671.036-1,.414-.609.461-.937-.271-.708-.223-1.036.058-.66.106-.988.118-.652.165-.98.423-.608.47-.935.06-.661.107-.988.235-.636.283-.963.042-.663.09-.991-.148-.69-.1-1.018c.073-.507-.094-.531-.021-1.037s.338-.47.411-.979.25-.482.323-.989-.236-.553-.162-1.061.153-.494.226-1,.276-.48.349-.988-.132-.539-.058-1.049-.087-.534-.013-1.044.3-.478.378-.989c.05-.343-.053-.767.023-1.146a2.386,2.386,0,0,1,.429-1.124,2.048,2.048,0,0,1,.631-.43c.107-.046.322.106.436.086.08-.014.165-.207.243-.208.033,0,.372.175.2.161-.129-.01.168-.1.206-.093.4.058.42-.073.821-.015s.347.433.748.491c.528.077.56-.147,1.088-.07s.543-.011,1.073.065.476.44,1,.517.556-.11,1.086-.033.5.277,1.026.354.589-.333,1.119-.256.466.529,1,.606.536.05,1.068.127.564-.14,1.1-.062a2.6,2.6,0,0,1,.891.335c.271.15.715.229.869.552a2,2,0,0,1,.02.772c0,.026-.3.41-.266.128,0,.006.215.035.214.041-.007.066.058.142.049.208-.064.436-.281.4-.344.841s.073.457.01.894-.212.416-.275.854c-.075.518.141.55.066,1.068s.095.544.02,1.063-.094.517-.169,1.038-.351.479-.427,1-.211.5-.287,1.021.225.561.15,1.079.054.54-.022,1.061-.1.518-.171,1.04-.239.5-.315,1.022-.155.512-.231,1.035c-.047.327-.153.645-.2.973s.2.7.154,1.024-.53.591-.578.918.064.677.016,1,0,.667-.05.994-.193.64-.24.967.057.677.009,1-.02.665-.067.992-.1.652-.152.98-.026.664-.074.991-.473.571-.517.884-.128.615-.18.927a1.551,1.551,0,0,1-.321.953,1.384,1.384,0,0,1-.594.343,1.435,1.435,0,0,1-.27.1c-.08.013-.144.162-.225.163-.024,0-.446.094-.162.125-.3-.033-.582-.3-.885-.34-.329-.048-.691.128-1.02.08l-.988-.142c-.33-.048-.668-.038-1-.085s-.631-.287-.96-.335-.651-.153-.98-.2-.688.106-1.018.059-.647-.171-.977-.219-.643-.2-.973-.249-.677.037-1.007-.011-.611-.424-.94-.472c-.405-.058-.434.138-.838.08-.471-.069-1.159.1-1.3.6A1.086,1.086,0,0,0,30.7,88.84c.1.07-.049.261-.049.261" fill="#0d4b08"/><path d="M38.341,61.475c-.362-.053-.674-.455-1.036-.508s-.765.172-1.128.119c-.245-.035-.49-.2-.712-.072a.974.974,0,0,0-.314.615c-.052.226-.24.567-.11.767.115.179.479.13.7.162.363.053.734.041,1.1.094s.7.294,1.06.347c.244.035.5.147.726.017A.886.886,0,0,0,39,61.652a.953.953,0,0,0-.628-.313c-.071.036-.034.136-.034.136" fill="#0d4b08"/><path d="M48.333,77.375a21.235,21.235,0,0,0-2.908-3.715A4.356,4.356,0,0,0,43.7,72.443a1.719,1.719,0,0,0-1.918.532c-.552.817-.02,1.906.508,2.739l2.944,4.643-5.733-2.7a4.837,4.837,0,0,0-2.66-.671,1.5,1.5,0,0,0-1.348,1.856,1.837,1.837,0,0,0,.863,1.052l-.531-.224a1.45,1.45,0,0,0-1.989.862,2.16,2.16,0,0,0,.569,1.841A6.789,6.789,0,0,0,36.4,83.93l-.532.966c-.615-.157-1.133.566-1.121,1.2a2.582,2.582,0,0,0,.813,1.712,7.64,7.64,0,0,0,1.576,1.125l4.814,2.857c.068,1.763.528,3.821,2.021,4.871a4.218,4.218,0,0,0,4.528-.03,6.582,6.582,0,0,0,2.7-3.834,15.621,15.621,0,0,0,.432-4.756,14.842,14.842,0,0,0-1.287-6.417,20.9,20.9,0,0,0-2.007-4.249Z" fill="#fff"/><path d="M36.087,78.74a2.561,2.561,0,0,0-1.082-.178,2.623,2.623,0,0,0-1.071.306c-.3.183-.383.628-.577.931-.184.288-.548.546-.591.915a3.522,3.522,0,0,0,.218,1.063,3.328,3.328,0,0,0,.31,1.011,3.267,3.267,0,0,0,.62.9c.241.2.63.217.885.4s.428.485.69.659.451.472.719.636.693.07.965.229.394.583.667.738.63.164.9.317.506.321.768.467.586.176.849.317.623.093.89.228c.425.215.874.338,1.125-.091a.894.894,0,0,0-.352-1.2c-.336-.17-.757-.181-1.089-.359s-.646-.394-.974-.578-.567-.529-.892-.718-.722-.258-1.044-.451c-.361-.216-.625-.592-.982-.816s-.606-.6-.953-.839c-.134-.091-.348-.058-.479-.153-.064-.046-.1-.136-.159-.183-.082-.059-.115.256-.112.258-.039-.031-.035-.116-.073-.148-.086-.07-.04-.286-.12-.363-.036-.033-.062-.069-.1-.1-.013-.014-.2.141-.216.127.109.119.08-.046.034-.123a1.91,1.91,0,0,1-.325-1.321c-.024.067.239.038.271,0,.071-.071.1.007.215-.045.162-.075.377-.288.614-.2a.827.827,0,0,0,1.1-.46.942.942,0,0,0-.7-1.074l-.161-.1c.014-.038.2-.012.2-.012" fill="#0d4b08"/><path d="M36.194,83.533c-.355.03-.758-.163-1.052-.017a2.5,2.5,0,0,0-.724.757c-.2.254-.128.618-.222.966a2.214,2.214,0,0,0-.065,1c.053.363-.058.751.109,1.084a5.069,5.069,0,0,0,.483,1.028,5.5,5.5,0,0,0,.736.641,8.417,8.417,0,0,0,.805.524c.265.173.66.131.933.289s.39.6.658.754c.3.177.8.015,1.094.192s.506.5.8.68.662.24.96.417.556.513.853.689c-.1-.427-.371-.268-.67-.59.014.305.389.439.423.749s.063.6.123.906a8.18,8.18,0,0,0,.162.9,6.509,6.509,0,0,0,.373.831c.134.279-.039.748.141,1a5.313,5.313,0,0,0,.724.744c.246.229.707.174.991.342a4.5,4.5,0,0,0,.835.53c.313.1.662-.068,1-.034a4.463,4.463,0,0,0,.954.084,5.392,5.392,0,0,0,.982-.134,5.35,5.35,0,0,0,.854-.507c.3-.154.7-.113.971-.317a6.476,6.476,0,0,0,.8-.627c.232-.24.251-.656.452-.933s.632-.448.8-.766A8.6,8.6,0,0,0,52,93.751a10.1,10.1,0,0,0,.211-1.077c.086-.349-.039-.739.015-1.094s.21-.7.239-1.053c.029-.373-.027-.751-.016-1.128s-.039-.747-.046-1.123-.022-.746-.045-1.122.046-.756.006-1.129-.052-.752-.107-1.122-.363-.662-.449-1.015.223-.817.111-1.164-.445-.618-.574-.959-.415-.614-.554-.95-.165-.718-.309-1.053-.348-.606-.5-.921-.259-.649-.428-.957-.384-.581-.568-.88-.148-.74-.346-1.029-.686-.368-.9-.647c-.182-.239-.249-.563-.438-.8s-.252-.575-.45-.8-.484-.373-.693-.589-.415-.448-.646-.648a5.5,5.5,0,0,0-.83-.394c-.259-.157-.453-.419-.749-.51a2.826,2.826,0,0,0-.919.027,2.4,2.4,0,0,0-.842.23c-.291.114-.663.061-.886.282a2.337,2.337,0,0,0-.612.821,2.8,2.8,0,0,0-.107,1.026A3.582,3.582,0,0,0,40.73,75c.132.342.5.589.677.91s.154.774.354,1.081.777.377.972.684c.213.336.075.893.287,1.229s.5.625.71.96.474.442.687.777c.4-.133.268-.226.57-.528s.588-.1.743-.5c-.311-.147-.724-.207-1.035-.354s-.485-.584-.8-.731-.764.009-1.076-.138-.618-.3-.93-.448-.534-.48-.845-.627c-.285-.134-.664-.111-.968-.26s-.462-.578-.767-.706-.749.137-1.064.052-.593-.47-.919-.48-.59.393-.913.49c-.362.107-.909-.126-1.174.1a2.843,2.843,0,0,0-.608.994,2.57,2.57,0,0,0-.216,1.121,2.658,2.658,0,0,0,.459,1.023,2.7,2.7,0,0,0,.575.774c.243.2.664.129.942.283.32.177.432.73.752.907s.723.2,1.042.381.652.276.958.45.542.468.847.643.632.311.937.486.77.071,1.075.245.452.627.757.8a.83.83,0,0,0,.882-.107.926.926,0,0,0,.44-.727c.016-.284-.18-.379-.5-.563-.293-.167-.424-.615-.716-.782s-.522-.442-.814-.61-.58-.342-.872-.509-.6-.316-.887-.482-.709-.115-1-.28c-.332-.187-.7-.31-1.031-.494s-.675-.351-1.009-.534a1.265,1.265,0,0,1-.778-1.114c.045-.519.582-.431.988-.376s.842-.093,1.213.07.778.253,1.129.419.66.353,1,.512.5.705.834.865.694.281,1.033.441.774.113,1.113.273.632.412.971.572c.371.174.687-.168.96-.412s.462-.42.207-.823c-.2-.31-.234-.721-.43-1.03s-.642-.461-.838-.77-.192-.747-.388-1.056c-.184-.291-.468-.528-.668-.823s-.3-.643-.484-.942a7.31,7.31,0,0,1-.566-.894c-.117-.283-.316-.652-.253-.88s.45-.341.846-.324a2.119,2.119,0,0,1,1.233.285,9.05,9.05,0,0,1,.791.948c.256.27.444.607.683.891s.247.747.471,1.044.44.583.647.892.444.585.635.9.576.525.749.854c.141.267.116.614.244.886s.42.472.535.751.056.622.158.906c.108.3.387.539.5.833s-.026.686.08.987a7.756,7.756,0,0,1,.283.886c.073.316.414.578.466.9s.151.643.185.968.094.654.112.979-.352.665-.347.991.214.65.207.975-.012.654-.028.977c-.019.348-.044.7-.092,1.056a10.27,10.27,0,0,1-.379,1c-.083.345.04.746-.086,1.075a6.545,6.545,0,0,1-.483.952,5.438,5.438,0,0,1-.638.852,4.843,4.843,0,0,1-.8.866c-.322.214-.807.1-1.169.219s-.707.477-1.091.465a3.244,3.244,0,0,1-1.168-.273,2.875,2.875,0,0,1-.89-.715c-.243-.268-.152-.744-.309-1.082s-.46-.588-.547-.943a8.054,8.054,0,0,1-.207-1.077,6.289,6.289,0,0,0-.121-.833c-.062-.258-.271-.328-.557-.513-.265-.172-.352-.632-.626-.791s-.723-.019-.994-.18-.356-.579-.615-.732-.68-.034-.939-.187-.506-.328-.765-.482-.45-.42-.708-.575-.641-.168-.89-.355a4.344,4.344,0,0,1-.669-.7,2.685,2.685,0,0,1-.356-.9,1.122,1.122,0,0,1,.02-.478c-.017.155-.171-.085-.16-.123.016-.054.264-.149.263-.148.073-.157.156-.215.422-.237a1.185,1.185,0,0,0,1.048-1.009,1.036,1.036,0,0,0-1.056-.857l-.118-.016c.007.081.129.152.128.152" fill="#0d4b08"/><path d="M47,74.436c.182.249.167.6.314.859s.34.486.464.761.476.454.583.737-.122.685-.02.971.572.47.669.77.115.626.2.929.35.561.43.865-.293.721-.222,1.028c.106.465.8.483,1.246.361.478-.131.722-.4.615-.866-.072-.316.1-.693.013-1.006s-.386-.567-.478-.877-.14-.635-.24-.942-.295-.583-.4-.888-.024-.7-.144-1.009-.359-.574-.494-.878-.485-.491-.645-.779a8.18,8.18,0,0,0-.373-.922.961.961,0,0,0-1.22-.415.84.84,0,0,0-.153,1.195l-.077.147c-.012.009-.068-.041-.068-.041" fill="#0d4b08"/></g></svg>