<svg xmlns="http://www.w3.org/2000/svg" width="81.241" height="112.51"><path fill="#fff" d="M40.557 11.394q-.321.467-.685.9.364-.435.685-.9M30.836 16.512h.111-.266zM36.684 2.9q.326-.014.652-.021-.326.006-.652.021M39.916 2.959q.212.015.423.035-.212-.02-.423-.035M42.548 3.301l-.034-.005.032.005M41.247 3.099l.31.043zM35.895 2.945q.318-.023.634-.038-.316.015-.634.038M37.853 2.87q-.207-.002-.414.007h.641c-.076 0-.151-.005-.227-.005M34.68 3.067q.565-.07 1.128-.114-.563.044-1.128.114M31.443 3.669q.143-.035.285-.068-.142.033-.285.068"/><path fill="#fefffd" d="M45.865 57.112a29.02 29.02 0 0 1-23.584-3.382 1 1 0 0 1-.153-.032l-11.332-3.563a6.96 6.96 0 0 0-5.766 1.437c-.974.846-2.416 2.6-2.138 3.707.309 1.229 2.889 2.5 6.39 1.788a1.429 1.429 0 0 1 1.1 2.577c-2.1 1.449-2.59 3.742-2.155 4.508a1.78 1.78 0 0 0 1.236.667 4.45 4.45 0 0 0 3.648-1.162 1.429 1.429 0 0 1 2.178 1.775c-1.436 2.64-1.617 3.941-1.558 4.332.9.218 4.273-1.086 7.7-3.271a1.43 1.43 0 0 1 1.676.1 11.42 11.42 0 0 0 10.926 2.032 1.43 1.43 0 1 1 .906 2.711q-.42.14-.848.253a13.3 13.3 0 0 0 4.142 4.613c5.205 3.513 13.236 2.864 17.9-1.446 5.3-4.9 6.4-15.095-.13-22.882a29 29 0 0 1-10.14 5.235M76.096 40.062a1.43 1.43 0 0 1-1.091-2.118c2.052-3.673 2.372-6.073 1.942-6.539-.565-.613-4.423-.3-10.682 4a29.33 29.33 0 0 1-8.12 14.577 22 22 0 0 1 4.493 8.5 10.93 10.93 0 0 0 5.314-7.522 1.43 1.43 0 0 1 1.949-1.061 6.64 6.64 0 0 0 4.934.333 1.3 1.3 0 0 0 .689-.526c.11-.293-.244-1.392-1.558-2.607a1.43 1.43 0 0 1 .489-2.4 6.45 6.45 0 0 0 3.749-2.914 1.25 1.25 0 0 0 .159-.822 3.4 3.4 0 0 0-2.267-.9"/><path fill="#fff" d="M33.111 3.303"/><path fill="#fefffd" d="M37.827 55.375a26.249 26.249 0 0 0 7.654-51.36 14.652 14.652 0 0 1-27.423 7.861 26.248 26.248 0 0 0 19.768 43.5m8.859-34.113a3.719 3.719 0 1 1-2.441 4.66 3.72 3.72 0 0 1 2.441-4.66m-10.92 11.654a4.622 4.622 0 0 1 8.53.429c.467 1.31 2.1 10.029-.946 11.114a1.9 1.9 0 0 1-.632.109c-1.167 0-2.542-1.046-4.178-3.171a22.6 22.6 0 0 1-2.953-4.947 4.6 4.6 0 0 1 .178-3.533m-9.621-5.235a3.719 3.719 0 1 1-2.441 4.66 3.72 3.72 0 0 1 2.441-4.66"/><path fill="#fff" d="M33.931 3.17q.207-.033.414-.061-.207.029-.414.061M32.279 3.474q.173-.037.346-.072-.173.035-.346.072"/><path fill="#407b3e" d="M20.168 9.722q.084.178.173.352.034.07.07.138.126.24.262.474l.04.066q.118.2.243.392.048.076.1.147.1.15.206.3l.115.157q.106.142.215.28c.038.048.076.1.115.145q.128.157.261.308.041.048.083.1.176.2.361.386.042.043.086.084c.1.1.193.191.293.284l.134.122q.13.118.263.232l.146.123q.136.112.276.22l.139.108q.174.131.352.255l.072.052q.216.148.439.286l.124.074q.162.099.328.192l.163.089q.152.082.306.16l.17.085q.162.076.325.151l.153.069q.229.1.462.188l.023.009q.245.092.494.174l.156.049q.173.056.35.1l.184.05q.167.044.335.083l.186.042q.182.038.365.072l.156.029q.26.044.523.077l.065.007q.231.027.464.045l.177.011q.18.01.36.017h.466q.293 0 .587-.02l.15-.008q.361-.026.723-.075l.174-.027q.287-.043.574-.1l.207-.043c.243-.054.487-.112.73-.182q.293-.084.579-.182a12 12 0 0 0 1.109-.443 11.7 11.7 0 0 0 4.093-3.127q.365-.435.685-.9t.6-.962q.274-.495.5-1.015t.4-1.059q.176-.54.3-1.1t.193-1.127q.035-.285.055-.573a11.7 11.7 0 0 0-.058-2.259l-.032-.005a28 28 0 0 0-.957-.154l-.31-.043q-.452-.06-.908-.1-.211-.02-.423-.035-.269-.022-.539-.038a26 26 0 0 0-1.298-.046c-.227-.002-.427 0-.641 0h-.1q-.326.006-.652.021l-.155.008a34 34 0 0 0-.634.038l-.087.008q-.564.044-1.128.114-.168.02-.336.041-.207.03-.413.061a19 19 0 0 0-.819.138q-.243.045-.486.094-.174.035-.346.072-.276.06-.551.127-.143.033-.285.068-.419.105-.837.224a26.1 26.1 0 0 0-10.438 5.829M42.804 42.78c.739-.5.74-6.216-.237-8.955a2.8 2.8 0 1 0-5.274 1.88c.977 2.739 4.6 7.165 5.511 7.074"/><path fill="#0d4b08" d="M28.364 34.783a3.719 3.719 0 1 0-4.66-2.44 3.72 3.72 0 0 0 4.66 2.44M48.905 28.362a3.719 3.719 0 1 0-4.66-2.44 3.72 3.72 0 0 0 4.66 2.44M38.54 41.398c1.636 2.126 3.011 3.171 4.178 3.171a1.9 1.9 0 0 0 .632-.109c3.044-1.085 1.413-9.8.946-11.114a4.622 4.622 0 0 0-8.708 3.1 22.6 22.6 0 0 0 2.953 4.947m.17-9.952a3.666 3.666 0 0 1 4.684 2.222c.68 1.907 1.541 9.212-.366 9.892s-5.86-5.523-6.54-7.43a3.666 3.666 0 0 1 2.222-4.684"/><path fill="#0d4b08" d="M43.098 43.66c1.933-.689 1.06-8.092.371-10.025a3.716 3.716 0 0 0-7 2.495c.689 1.933 4.7 8.219 6.628 7.53m-5.609-9.954a2.746 2.746 0 0 1 5.067.255c.958 2.686.957 8.291.232 8.782-.889.089-4.447-4.252-5.4-6.938a2.73 2.73 0 0 1 .105-2.1"/><path fill="#0d4b08" d="M78.373 37.67c2.318-4.8 1.692-7.1.676-8.2-2.263-2.453-7.527-.614-12.2 2.174A29.11 29.11 0 0 0 55.213 5.756 29.32 29.32 0 0 0 37.853.003 29.128 29.128 0 0 0 16.49 48.927l-4.92-1.547a1.4 1.4 0 0 0-.163-.041 9.84 9.84 0 0 0-8.252 2.074c-.642.557-3.805 3.49-3.035 6.561.516 2.058 2.791 3.813 6.089 4.119a5.58 5.58 0 0 0-.47 5.47 4.52 4.52 0 0 0 3.22 2.069 6.5 6.5 0 0 0 2.242 0c-.537 1.774-.432 3.067.3 3.969a2.96 2.96 0 0 0 2.432 1c2.431 0 5.749-1.692 8.181-3.169a14.3 14.3 0 0 0 6.386 2.522 14 14 0 0 0 2.617.1 16.35 16.35 0 0 0 5.518 6.517 15.8 15.8 0 0 0 4.03 1.939l-2.016 7.119-4.049 3.459a1.369 1.369 0 0 0 1.779 2.081l2.923-2.5 1.412 3.447a1.369 1.369 0 0 0 2.533-1.038l-.934-2.28 2.255.856a1.369 1.369 0 1 0 .972-2.559l-4.029-1.53 1.822-6.432a18.4 18.4 0 0 0 2.776.212 17.77 17.77 0 0 0 11.785-4.329l4.49 3.312-1.18.246a1.369 1.369 0 1 0 .558 2.68l4.176-.87h.025l.021-.006.028-.005c.033-.009.062-.025.094-.036s.079-.024.116-.041l.031-.014.016-.006q.043-.025.084-.052c.041-.027.078-.045.114-.072q.016-.01.032-.021l.006-.006.011-.01q.03-.026.057-.054c.027-.028.062-.055.089-.085l.045-.05c.015-.017.011-.01.016-.016l2.789-3.458a1.369 1.369 0 1 0-2.131-1.718l-1.1 1.358-.716-2.689a1.369 1.369 0 0 0-2.645.7l.407 1.526-3.562-2.626a18.8 18.8 0 0 0 3.44-13.59 13.76 13.76 0 0 0 7.167-8.348 8.78 8.78 0 0 0 5.606-.212 3.96 3.96 0 0 0 2.222-2.15 4.58 4.58 0 0 0-.928-4.156 8.25 8.25 0 0 0 3.528-3.553 3.94 3.94 0 0 0 .246-3.027 4.18 4.18 0 0 0-2.669-2.3M30.606 3.893q.419-.12.837-.224.143-.035.285-.068a27 27 0 0 1 .897-.199q.243-.049.486-.094l.379-.068q.22-.037.441-.069c.221-.032.276-.043.413-.061q.168-.021.336-.041.565-.066 1.128-.116l.087-.008q.318-.023.634-.038l.155-.008q.327-.015.652-.021h.1c.138 0 .276-.007.414-.007q.114-.001.227.005c.226 0 .452.008.678.016q.31.011.619.03.27.016.539.038.211.015.423.035c.3.029.606.065.908.105l.31.043c.32.046.64.1.957.154l.034.005A11.7 11.7 0 0 1 42.6 5.56q-.021.288-.055.573-.069.57-.193 1.127t-.3 1.1q-.176.54-.4 1.059t-.5 1.015q-.274.495-.6.962t-.685.9a12 12 0 0 1-1.188 1.226 11.7 11.7 0 0 1-2.9 1.9 12 12 0 0 1-1.11.443q-.286.1-.579.182-.364.103-.73.182l-.207.043q-.287.058-.574.1l-.174.027q-.362.049-.723.076l-.15.008q-.294.018-.587.02h-.466c-.12 0-.24-.01-.36-.017l-.177-.011q-.233-.018-.464-.045l-.065-.007q-.263-.032-.523-.077l-.156-.029a11 11 0 0 1-.365-.072l-.186-.042q-.169-.039-.335-.083l-.184-.05q-.176-.05-.35-.1l-.156-.049a12 12 0 0 1-.494-.174l-.023-.009q-.233-.089-.462-.188l-.153-.069q-.164-.074-.325-.151l-.17-.085q-.154-.078-.306-.16l-.163-.089q-.165-.094-.328-.192l-.124-.074q-.222-.138-.439-.286l-.072-.052q-.178-.124-.352-.254-.07-.053-.139-.108-.14-.108-.276-.22l-.146-.123q-.133-.114-.263-.231l-.134-.122q-.149-.139-.293-.284l-.086-.084q-.185-.188-.361-.386a2 2 0 0 1-.083-.1q-.133-.152-.261-.308c-.039-.048-.077-.1-.115-.145q-.109-.138-.215-.28l-.115-.157q-.105-.147-.206-.3l-.1-.147q-.125-.193-.243-.392l-.04-.066q-.137-.233-.262-.474-.035-.068-.07-.138a13 13 0 0 1-.173-.352 26.1 26.1 0 0 1 10.44-5.828M12.611 36.357a26.22 26.22 0 0 1 5.448-24.478 14.73 14.73 0 0 0 12.777 7.5A14.67 14.67 0 0 0 45.482 4.018a26.248 26.248 0 1 1-32.87 32.342m43.524 38.4c-4.667 4.31-12.7 4.959-17.9 1.446a13.3 13.3 0 0 1-4.136-4.617q.428-.113.848-.253a1.43 1.43 0 1 0-.906-2.711A11.42 11.42 0 0 1 23.1 66.592a1.43 1.43 0 0 0-1.676-.1c-3.426 2.184-6.8 3.488-7.7 3.271-.059-.39.121-1.691 1.558-4.332a1.429 1.429 0 0 0-2.178-1.775 4.45 4.45 0 0 1-3.648 1.162 1.78 1.78 0 0 1-1.236-.666c-.435-.766.053-3.059 2.155-4.508a1.429 1.429 0 0 0-1.1-2.577c-3.5.715-6.082-.559-6.391-1.788-.278-1.107 1.164-2.861 2.138-3.707a6.96 6.96 0 0 1 5.778-1.438l11.332 3.563a1 1 0 0 0 .153.032 29.02 29.02 0 0 0 23.584 3.382 29 29 0 0 0 10.14-5.235c6.53 7.787 5.434 17.983.13 22.882M78.2 41.788a6.45 6.45 0 0 1-3.749 2.91 1.43 1.43 0 0 0-.489 2.4c1.314 1.215 1.668 2.314 1.558 2.607a1.3 1.3 0 0 1-.689.526 6.64 6.64 0 0 1-4.934-.333 1.43 1.43 0 0 0-1.949 1.061 10.93 10.93 0 0 1-5.314 7.522 22 22 0 0 0-4.493-8.5 29.33 29.33 0 0 0 8.124-14.578c6.26-4.3 10.118-4.613 10.683-4 .43.466.11 2.866-1.942 6.539a1.43 1.43 0 0 0 1.094 2.12 3.4 3.4 0 0 1 2.267.9 1.25 1.25 0 0 1-.159.822"/><path fill="#1a1311" d="M34.344 3.109q.168-.021.336-.041-.168.02-.336.041M39.377 2.921q.27.016.539.038-.269-.022-.539-.038M33.49 3.239q.22-.037.44-.069-.22.033-.44.069M32.625 3.401q.243-.05.486-.094-.243.045-.486.094M38.08 2.87c.226 0 .452.008.678.016a26 26 0 0 0-.678-.016M40.339 2.994q.456.045.908.105-.448-.06-.908-.105M30.605 3.893a26.1 26.1 0 0 0-10.44 5.826A26.1 26.1 0 0 1 30.603 3.89M37.337 2.879h.1zM36.529 2.907l.155-.008zM35.808 2.954l.087-.008z"/><text fill="#0d4b08" font-family="HiraginoSans-W5, Hiragino Sans" font-size="14" transform="translate(39.826 110.51)"><tspan x="-28" y="0">つるたん</tspan></text></svg>