<svg xmlns="http://www.w3.org/2000/svg" width="740.597" height="769.418"><defs><clipPath id="a"><path fill="none" d="M106.291 0 65.943.121a2.52 2.52 0 0 0-1.78.74L.74 64.284A2.52 2.52 0 0 0 0 66.089l.281 39.946a2.529 2.529 0 0 0 4.317 1.77L108.086 4.316A2.529 2.529 0 0 0 106.299 0z"/></clipPath><clipPath id="b"><path fill="none" d="M104.233.745.744 104.234a2.528 2.528 0 0 0 1.8 4.316l40.348-.12a2.53 2.53 0 0 0 1.78-.741l63.422-63.423a2.53 2.53 0 0 0 .741-1.806l-.282-39.945a2.527 2.527 0 0 0-2.547-2.516 2.48 2.48 0 0 0-1.77.745"/></clipPath><clipPath id="c"><path fill="none" d="M0 0h740.597v769.418H0z"/></clipPath></defs><g fill="#0d4b08" clip-path="url(#a)" transform="translate(391.12 29.459)"><path d="M5.714 107.188a.5.5 0 0 1-.354-.146l-23.689-23.689a.5.5 0 0 1 0-.707.5.5 0 0 1 .707 0l23.69 23.689a.5.5 0 0 1-.354.854ZM8.169 104.733a.5.5 0 0 1-.354-.146l-23.689-23.69a.5.5 0 0 1 0-.707.5.5 0 0 1 .707 0l23.689 23.69a.5.5 0 0 1-.354.854ZM10.625 102.277a.5.5 0 0 1-.354-.146l-23.689-23.689a.5.5 0 0 1 0-.707.5.5 0 0 1 .707 0l23.69 23.689a.5.5 0 0 1-.354.854ZM13.081 99.822a.5.5 0 0 1-.354-.146l-23.689-23.69a.5.5 0 0 1 0-.707.5.5 0 0 1 .707 0l23.689 23.69a.5.5 0 0 1-.354.854ZM15.536 97.366a.5.5 0 0 1-.354-.146L-8.507 73.531a.5.5 0 0 1 0-.707.5.5 0 0 1 .707 0l23.69 23.689a.5.5 0 0 1-.354.854ZM17.992 94.91a.5.5 0 0 1-.354-.146L-6.051 71.075a.5.5 0 0 1 0-.707.5.5 0 0 1 .707 0l23.69 23.689a.5.5 0 0 1-.354.854ZM20.447 92.455a.5.5 0 0 1-.354-.146l-23.689-23.69a.5.5 0 0 1 0-.707.5.5 0 0 1 .707 0L20.8 91.602a.5.5 0 0 1-.354.854ZM22.903 89.999a.5.5 0 0 1-.354-.146L-1.14 66.164a.5.5 0 0 1 0-.707.5.5 0 0 1 .707 0l23.69 23.689a.5.5 0 0 1-.354.854ZM25.359 87.544a.5.5 0 0 1-.354-.146L1.316 63.708a.5.5 0 0 1 0-.707.5.5 0 0 1 .707 0l23.689 23.69a.5.5 0 0 1-.354.854ZM27.814 85.087a.5.5 0 0 1-.354-.146L3.771 61.252a.5.5 0 0 1 0-.707.5.5 0 0 1 .707 0l23.69 23.689a.5.5 0 0 1-.354.854ZM30.27 82.633a.5.5 0 0 1-.354-.146L6.227 58.797a.5.5 0 0 1 0-.707.5.5 0 0 1 .707 0l23.689 23.69a.5.5 0 0 1-.354.854ZM32.726 80.176a.5.5 0 0 1-.354-.146L8.683 56.341a.5.5 0 0 1 0-.707.5.5 0 0 1 .707 0l23.69 23.689a.5.5 0 0 1-.354.854ZM35.181 77.721a.5.5 0 0 1-.354-.146L11.138 53.886a.5.5 0 0 1 0-.707.5.5 0 0 1 .707 0l23.69 23.689a.5.5 0 0 1-.354.854ZM37.637 75.266a.5.5 0 0 1-.354-.146L13.594 51.43a.5.5 0 0 1 0-.707.5.5 0 0 1 .707 0l23.689 23.69a.5.5 0 0 1-.354.854ZM40.092 72.809a.5.5 0 0 1-.354-.146L16.049 48.974a.5.5 0 0 1 0-.707.5.5 0 0 1 .707 0l23.69 23.689a.5.5 0 0 1-.354.854ZM42.549 70.355a.5.5 0 0 1-.354-.146l-23.69-23.69a.5.5 0 0 1 0-.707.5.5 0 0 1 .707 0l23.69 23.69a.5.5 0 0 1-.354.854ZM45.004 67.898a.5.5 0 0 1-.354-.146L20.961 44.063a.5.5 0 0 1 0-.707.5.5 0 0 1 .707 0l23.69 23.689a.5.5 0 0 1-.354.854ZM47.459 65.443a.5.5 0 0 1-.354-.146l-23.689-23.69a.5.5 0 0 1 0-.707.5.5 0 0 1 .707 0l23.689 23.69a.5.5 0 0 1-.354.854ZM49.915 62.987a.5.5 0 0 1-.354-.146L25.872 39.152a.5.5 0 0 1 0-.707.5.5 0 0 1 .707 0l23.69 23.689a.5.5 0 0 1-.354.854ZM52.371 60.531a.5.5 0 0 1-.354-.146L28.328 36.696a.5.5 0 0 1 0-.707.5.5 0 0 1 .707 0l23.69 23.689a.5.5 0 0 1-.354.854ZM54.826 58.077a.5.5 0 0 1-.354-.146l-23.689-23.69a.5.5 0 0 1 0-.707.5.5 0 0 1 .707 0l23.689 23.69a.5.5 0 0 1-.354.854ZM57.282 55.62a.5.5 0 0 1-.354-.146L33.239 31.785a.5.5 0 0 1 0-.707.5.5 0 0 1 .707 0l23.69 23.689a.5.5 0 0 1-.354.854ZM59.738 53.165a.5.5 0 0 1-.354-.146l-23.69-23.69a.5.5 0 0 1 0-.707.5.5 0 0 1 .707 0l23.69 23.69a.5.5 0 0 1-.354.854ZM62.193 50.709a.5.5 0 0 1-.354-.146L38.15 26.874a.5.5 0 0 1 0-.707.5.5 0 0 1 .707 0l23.69 23.689a.5.5 0 0 1-.354.854ZM64.649 48.254a.5.5 0 0 1-.354-.146l-23.689-23.69a.5.5 0 0 1 0-.707.5.5 0 0 1 .707 0l23.689 23.69a.5.5 0 0 1-.354.854ZM67.105 45.798a.5.5 0 0 1-.354-.146l-23.69-23.689a.5.5 0 0 1 0-.707.5.5 0 0 1 .707 0l23.69 23.689a.5.5 0 0 1-.354.854ZM69.56 43.342a.5.5 0 0 1-.354-.146L45.517 19.507a.5.5 0 0 1 0-.707.5.5 0 0 1 .707 0l23.69 23.689a.5.5 0 0 1-.354.854ZM72.016 40.887a.5.5 0 0 1-.354-.146l-23.69-23.69a.5.5 0 0 1 0-.707.5.5 0 0 1 .707 0l23.69 23.69a.5.5 0 0 1-.354.854ZM74.471 38.431a.5.5 0 0 1-.354-.146L50.428 14.596a.5.5 0 0 1 0-.707.5.5 0 0 1 .707 0l23.69 23.689a.5.5 0 0 1-.354.854ZM76.928 35.976a.5.5 0 0 1-.354-.146l-23.69-23.69a.5.5 0 0 1 0-.707.5.5 0 0 1 .707 0l23.69 23.69a.5.5 0 0 1-.354.854ZM79.382 33.519a.5.5 0 0 1-.354-.146L55.339 9.684a.5.5 0 0 1 0-.707.5.5 0 0 1 .707 0l23.69 23.689a.5.5 0 0 1-.354.854ZM81.838 31.065a.5.5 0 0 1-.354-.146L57.795 7.229a.5.5 0 0 1 0-.707.5.5 0 0 1 .707 0l23.689 23.69a.5.5 0 0 1-.354.854ZM84.295 28.608a.5.5 0 0 1-.354-.146L60.251 4.773a.5.5 0 0 1 0-.707.5.5 0 0 1 .707 0l23.69 23.689a.5.5 0 0 1-.354.854ZM86.749 26.154a.5.5 0 0 1-.354-.146L62.706 2.318a.5.5 0 0 1 0-.707.5.5 0 0 1 .707 0l23.689 23.69a.5.5 0 0 1-.354.854ZM89.206 23.698a.5.5 0 0 1-.354-.146L65.162-.138a.5.5 0 0 1 0-.707.5.5 0 0 1 .707 0l23.69 23.69a.5.5 0 0 1-.354.854ZM91.66 21.241a.5.5 0 0 1-.354-.146L67.617-2.594a.5.5 0 0 1 0-.707.5.5 0 0 1 .707 0l23.69 23.689a.5.5 0 0 1-.354.854ZM94.117 18.787a.5.5 0 0 1-.354-.146l-23.69-23.69a.5.5 0 0 1 0-.707.5.5 0 0 1 .707 0l23.69 23.69a.5.5 0 0 1-.354.854ZM96.572 16.33a.5.5 0 0 1-.354-.146L72.529-7.505a.5.5 0 0 1 0-.707.5.5 0 0 1 .707 0l23.69 23.689a.5.5 0 0 1-.354.854ZM99.027 13.875a.5.5 0 0 1-.354-.146L74.984-9.961a.5.5 0 0 1 0-.707.5.5 0 0 1 .707 0l23.689 23.69a.5.5 0 0 1-.354.854ZM101.484 11.419a.5.5 0 0 1-.354-.146L77.44-12.416a.5.5 0 0 1 0-.707.5.5 0 0 1 .707 0l23.69 23.689a.5.5 0 0 1-.354.854ZM103.938 8.964a.5.5 0 0 1-.354-.146l-23.689-23.69a.5.5 0 0 1 0-.707.5.5 0 0 1 .707 0l23.689 23.69a.5.5 0 0 1-.354.854ZM106.395 6.509a.5.5 0 0 1-.354-.146l-23.69-23.69a.5.5 0 0 1 0-.707.5.5 0 0 1 .707 0l23.69 23.69a.5.5 0 0 1-.354.854Z"/></g><g fill="#0d4b08" clip-path="url(#b)" transform="translate(613.368 252.094)"><path d="M126.806 26.051a.5.5 0 0 1-.354-.146L102.763 2.216a.5.5 0 0 1 0-.707.5.5 0 0 1 .707 0l23.69 23.689a.5.5 0 0 1-.354.854ZM124.351 28.507a.5.5 0 0 1-.354-.146l-23.69-23.69a.5.5 0 0 1 0-.707.5.5 0 0 1 .707 0l23.69 23.69a.5.5 0 0 1-.354.854ZM121.895 30.963a.5.5 0 0 1-.354-.146L97.852 7.128a.5.5 0 0 1 0-.707.5.5 0 0 1 .707 0l23.69 23.689a.5.5 0 0 1-.354.854ZM119.44 33.418a.5.5 0 0 1-.354-.146l-23.69-23.69a.5.5 0 0 1 0-.707.5.5 0 0 1 .707 0l23.69 23.69a.5.5 0 0 1-.354.854ZM116.984 35.874a.5.5 0 0 1-.354-.146L92.94 12.039a.5.5 0 0 1 0-.707.5.5 0 0 1 .707 0l23.69 23.689a.5.5 0 0 1-.354.854ZM114.528 38.329a.5.5 0 0 1-.354-.146L90.485 14.494a.5.5 0 0 1 0-.707.5.5 0 0 1 .707 0l23.69 23.689a.5.5 0 0 1-.354.854ZM112.073 40.785a.5.5 0 0 1-.354-.146l-23.69-23.69a.5.5 0 0 1 0-.707.5.5 0 0 1 .707 0l23.69 23.69a.5.5 0 0 1-.354.854ZM109.617 43.241a.5.5 0 0 1-.354-.146L85.574 19.406a.5.5 0 0 1 0-.707.5.5 0 0 1 .707 0l23.69 23.689a.5.5 0 0 1-.354.854ZM107.162 45.697a.5.5 0 0 1-.354-.146l-23.69-23.69a.5.5 0 0 1 0-.707.5.5 0 0 1 .707 0l23.69 23.69a.5.5 0 0 1-.354.854ZM104.706 48.152a.5.5 0 0 1-.354-.146L80.663 24.317a.5.5 0 0 1 0-.707.5.5 0 0 1 .707 0l23.69 23.689a.5.5 0 0 1-.354.854ZM102.25 50.608a.5.5 0 0 1-.354-.146l-23.69-23.69a.5.5 0 0 1 0-.707.5.5 0 0 1 .707 0l23.69 23.69a.5.5 0 0 1-.354.854ZM99.795 53.063a.5.5 0 0 1-.354-.146l-23.69-23.689a.5.5 0 0 1 0-.707.5.5 0 0 1 .707 0l23.69 23.689a.5.5 0 0 1-.354.854ZM97.339 55.519a.5.5 0 0 1-.354-.146L73.296 31.684a.5.5 0 0 1 0-.707.5.5 0 0 1 .707 0l23.69 23.689a.5.5 0 0 1-.354.854ZM94.883 57.975a.5.5 0 0 1-.354-.146l-23.69-23.69a.5.5 0 0 1 0-.707.5.5 0 0 1 .707 0l23.69 23.69a.5.5 0 0 1-.354.854ZM92.428 60.43a.5.5 0 0 1-.354-.146L68.385 36.595a.5.5 0 0 1 0-.707.5.5 0 0 1 .707 0l23.69 23.689a.5.5 0 0 1-.354.854ZM89.972 62.886a.5.5 0 0 1-.354-.146l-23.69-23.69a.5.5 0 0 1 0-.707.5.5 0 0 1 .707 0l23.69 23.69a.5.5 0 0 1-.354.854ZM87.516 65.341a.5.5 0 0 1-.354-.146L63.473 41.506a.5.5 0 0 1 0-.707.5.5 0 0 1 .707 0l23.69 23.689a.5.5 0 0 1-.354.854ZM85.061 67.797a.5.5 0 0 1-.354-.146l-23.69-23.69a.5.5 0 0 1 0-.707.5.5 0 0 1 .707 0l23.69 23.69a.5.5 0 0 1-.354.854ZM82.605 70.253a.5.5 0 0 1-.354-.146l-23.69-23.689a.5.5 0 0 1 0-.707.5.5 0 0 1 .707 0L82.958 69.4a.5.5 0 0 1-.354.854ZM80.15 72.708a.5.5 0 0 1-.354-.146L56.107 48.873a.5.5 0 0 1 0-.707.5.5 0 0 1 .707 0l23.69 23.689a.5.5 0 0 1-.354.854ZM77.694 75.164a.5.5 0 0 1-.354-.146l-23.69-23.69a.5.5 0 0 1 0-.707.5.5 0 0 1 .707 0l23.69 23.69a.5.5 0 0 1-.354.854ZM75.238 77.619a.5.5 0 0 1-.354-.146L51.195 53.784a.5.5 0 0 1 0-.707.5.5 0 0 1 .707 0l23.69 23.689a.5.5 0 0 1-.354.854ZM72.783 80.075a.5.5 0 0 1-.354-.146l-23.69-23.69a.5.5 0 0 1 0-.707.5.5 0 0 1 .707 0l23.69 23.69a.5.5 0 0 1-.354.854ZM70.327 82.531a.5.5 0 0 1-.354-.146L46.284 58.696a.5.5 0 0 1 0-.707.5.5 0 0 1 .707 0l23.69 23.689a.5.5 0 0 1-.354.854ZM67.872 84.986a.5.5 0 0 1-.354-.146l-23.69-23.69a.5.5 0 0 1 0-.707.5.5 0 0 1 .707 0l23.69 23.69a.5.5 0 0 1-.354.854ZM65.416 87.442a.5.5 0 0 1-.354-.146l-23.69-23.689a.5.5 0 0 1 0-.707.5.5 0 0 1 .707 0l23.69 23.689a.5.5 0 0 1-.354.854ZM62.96 89.898a.5.5 0 0 1-.354-.146L38.917 66.063a.5.5 0 0 1 0-.707.5.5 0 0 1 .707 0l23.69 23.689a.5.5 0 0 1-.354.854ZM60.505 92.353a.5.5 0 0 1-.354-.146l-23.69-23.69a.5.5 0 0 1 0-.707.5.5 0 0 1 .707 0l23.69 23.69a.5.5 0 0 1-.354.854ZM58.049 94.809a.5.5 0 0 1-.354-.146L34.006 70.974a.5.5 0 0 1 0-.707.5.5 0 0 1 .707 0l23.69 23.689a.5.5 0 0 1-.354.854ZM55.594 97.265a.5.5 0 0 1-.354-.146l-23.69-23.69a.5.5 0 0 1 0-.707.5.5 0 0 1 .707 0l23.69 23.69a.5.5 0 0 1-.354.854ZM53.138 99.72a.5.5 0 0 1-.354-.146L29.095 75.885a.5.5 0 0 1 0-.707.5.5 0 0 1 .707 0l23.69 23.689a.5.5 0 0 1-.354.854ZM50.682 102.176a.5.5 0 0 1-.354-.146l-23.69-23.689a.5.5 0 0 1 0-.707.5.5 0 0 1 .707 0l23.69 23.689a.5.5 0 0 1-.354.854ZM48.227 104.631a.5.5 0 0 1-.354-.146L24.184 80.796a.5.5 0 0 1 0-.707.5.5 0 0 1 .707 0l23.69 23.689a.5.5 0 0 1-.354.854ZM45.771 107.087a.5.5 0 0 1-.354-.146L21.728 83.252a.5.5 0 0 1 0-.707.5.5 0 0 1 .707 0l23.69 23.689a.5.5 0 0 1-.354.854ZM43.315 109.543a.5.5 0 0 1-.354-.146l-23.69-23.69a.5.5 0 0 1 0-.707.5.5 0 0 1 .707 0l23.69 23.69a.5.5 0 0 1-.354.854ZM40.86 111.998a.5.5 0 0 1-.354-.146L16.817 88.163a.5.5 0 0 1 0-.707.5.5 0 0 1 .707 0l23.69 23.689a.5.5 0 0 1-.354.854ZM38.404 114.454a.5.5 0 0 1-.354-.146l-23.69-23.69a.5.5 0 0 1 0-.707.5.5 0 0 1 .707 0l23.69 23.69a.5.5 0 0 1-.354.854ZM35.948 116.909a.5.5 0 0 1-.354-.146L11.905 93.074a.5.5 0 0 1 0-.707.5.5 0 0 1 .707 0l23.69 23.689a.5.5 0 0 1-.354.854ZM33.493 119.365a.5.5 0 0 1-.354-.146L9.449 95.53a.5.5 0 0 1 0-.707.5.5 0 0 1 .707 0l23.69 23.689a.5.5 0 0 1-.354.854ZM31.037 121.821a.5.5 0 0 1-.354-.146L6.994 97.986a.5.5 0 0 1 0-.707.5.5 0 0 1 .707 0l23.69 23.689a.5.5 0 0 1-.354.854ZM28.582 124.276a.5.5 0 0 1-.354-.146L4.539 100.441a.5.5 0 0 1 0-.707.5.5 0 0 1 .707 0l23.69 23.689a.5.5 0 0 1-.354.854ZM26.126 126.732a.5.5 0 0 1-.354-.146l-23.69-23.689a.5.5 0 0 1 0-.707.5.5 0 0 1 .707 0l23.69 23.689a.5.5 0 0 1-.354.854Z"/></g><path fill="#0d4b08" d="M530.837 31.3a.5.5 0 0 1-.354-.146.5.5 0 0 1 0-.707l28.023-28.024a.5.5 0 0 1 .707 0 .5.5 0 0 1 0 .707l-28.022 28.023a.5.5 0 0 1-.354.147M533.366 33.868a.5.5 0 0 1-.354-.146.5.5 0 0 1 0-.707l28.023-28.023a.5.5 0 0 1 .707 0 .5.5 0 0 1 0 .707L533.72 33.722a.5.5 0 0 1-.354.146M535.898 36.439a.5.5 0 0 1-.354-.146.5.5 0 0 1 0-.707l28.023-28.024a.5.5 0 0 1 .707 0 .5.5 0 0 1 0 .707l-28.022 28.023a.5.5 0 0 1-.354.147M538.427 39.008a.5.5 0 0 1-.354-.146.5.5 0 0 1 0-.707l28.023-28.024a.5.5 0 0 1 .707 0 .5.5 0 0 1 0 .707l-28.022 28.023a.5.5 0 0 1-.354.147M540.958 41.577a.5.5 0 0 1-.354-.146.5.5 0 0 1 0-.707L568.627 12.7a.5.5 0 0 1 .707 0 .5.5 0 0 1 0 .707L541.312 41.43a.5.5 0 0 1-.354.147M543.489 44.146a.5.5 0 0 1-.354-.146.5.5 0 0 1 0-.707l28.023-28.024a.5.5 0 0 1 .707 0 .5.5 0 0 1 0 .707l-28.022 28.023a.5.5 0 0 1-.354.147M546.018 46.714a.5.5 0 0 1-.354-.146.5.5 0 0 1 0-.707l28.023-28.023a.5.5 0 0 1 .707 0 .5.5 0 0 1 0 .707l-28.022 28.023a.5.5 0 0 1-.354.146M548.549 49.284a.5.5 0 0 1-.354-.146.5.5 0 0 1 0-.707l28.023-28.024a.5.5 0 0 1 .707 0 .5.5 0 0 1 0 .707l-28.022 28.023a.5.5 0 0 1-.354.147M551.079 51.853a.5.5 0 0 1-.354-.146.5.5 0 0 1 0-.707l28.023-28.024a.5.5 0 0 1 .707 0 .5.5 0 0 1 0 .707l-28.022 28.023a.5.5 0 0 1-.354.147M553.609 54.421a.5.5 0 0 1-.354-.146.5.5 0 0 1 0-.707l28.023-28.023a.5.5 0 0 1 .707 0 .5.5 0 0 1 0 .707l-28.022 28.023a.5.5 0 0 1-.354.146M556.139 56.992a.5.5 0 0 1-.354-.146.5.5 0 0 1 0-.707l28.023-28.024a.5.5 0 0 1 .707 0 .5.5 0 0 1 0 .707l-28.022 28.023a.5.5 0 0 1-.354.147M558.67 59.561a.5.5 0 0 1-.354-.146.5.5 0 0 1 0-.707l28.023-28.024a.5.5 0 0 1 .707 0 .5.5 0 0 1 0 .707l-28.022 28.023a.5.5 0 0 1-.354.147M561.2 62.129a.5.5 0 0 1-.354-.146.5.5 0 0 1 0-.707l28.023-28.023a.5.5 0 0 1 .707 0 .5.5 0 0 1 0 .707l-28.022 28.023a.5.5 0 0 1-.354.146M563.731 64.699a.5.5 0 0 1-.354-.146.5.5 0 0 1 0-.707L591.4 35.822a.5.5 0 0 1 .707 0 .5.5 0 0 1 0 .707l-28.022 28.023a.5.5 0 0 1-.354.147M566.26 67.269a.5.5 0 0 1-.354-.146.5.5 0 0 1 0-.707l28.023-28.024a.5.5 0 0 1 .707 0 .5.5 0 0 1 0 .707l-28.022 28.023a.5.5 0 0 1-.354.147M568.791 69.838a.5.5 0 0 1-.354-.146.5.5 0 0 1 0-.707l28.023-28.024a.5.5 0 0 1 .707 0 .5.5 0 0 1 0 .707l-28.022 28.023a.5.5 0 0 1-.354.147M571.322 72.407a.5.5 0 0 1-.354-.146.5.5 0 0 1 0-.707l28.023-28.024a.5.5 0 0 1 .707 0 .5.5 0 0 1 0 .707L571.676 72.26a.5.5 0 0 1-.354.147M573.851 74.975a.5.5 0 0 1-.354-.146.5.5 0 0 1 0-.707l28.023-28.023a.5.5 0 0 1 .707 0 .5.5 0 0 1 0 .707l-28.022 28.023a.5.5 0 0 1-.354.146M576.381 77.545a.5.5 0 0 1-.354-.146.5.5 0 0 1 0-.707l28.023-28.024a.5.5 0 0 1 .707 0 .5.5 0 0 1 0 .707l-28.022 28.023a.5.5 0 0 1-.354.147M578.913 80.114a.5.5 0 0 1-.354-.146.5.5 0 0 1 0-.707l28.023-28.024a.5.5 0 0 1 .707 0 .5.5 0 0 1 0 .707l-28.022 28.023a.5.5 0 0 1-.354.147M581.442 82.682a.5.5 0 0 1-.354-.146.5.5 0 0 1 0-.707l28.023-28.023a.5.5 0 0 1 .707 0 .5.5 0 0 1 0 .707l-28.022 28.023a.5.5 0 0 1-.354.146M583.973 85.252a.5.5 0 0 1-.354-.146.5.5 0 0 1 0-.707l28.023-28.024a.5.5 0 0 1 .707 0 .5.5 0 0 1 0 .707l-28.022 28.023a.5.5 0 0 1-.354.147M586.503 87.822a.5.5 0 0 1-.354-.146.5.5 0 0 1 0-.707l28.023-28.024a.5.5 0 0 1 .707 0 .5.5 0 0 1 0 .707l-28.022 28.023a.5.5 0 0 1-.354.147M589.033 90.39a.5.5 0 0 1-.354-.146.5.5 0 0 1 0-.707l28.023-28.023a.5.5 0 0 1 .707 0 .5.5 0 0 1 0 .707l-28.022 28.023a.5.5 0 0 1-.354.146M591.565 92.96a.5.5 0 0 1-.354-.146.5.5 0 0 1 0-.707l28.023-28.024a.5.5 0 0 1 .707 0 .5.5 0 0 1 0 .707l-28.022 28.023a.5.5 0 0 1-.354.147M592.275 95.528a.5.5 0 0 1-.354-.146.5.5 0 0 1 0-.707l28.023-28.023a.5.5 0 0 1 .707 0 .5.5 0 0 1 0 .707l-28.022 28.023a.5.5 0 0 1-.354.146M594.845 98.098a.5.5 0 0 1-.354-.146.5.5 0 0 1 0-.707l28.023-28.024a.5.5 0 0 1 .707 0 .5.5 0 0 1 0 .707l-28.022 28.023a.5.5 0 0 1-.354.147M597.415 100.668a.5.5 0 0 1-.354-.146.5.5 0 0 1 0-.707l28.023-28.024a.5.5 0 0 1 .707 0 .5.5 0 0 1 0 .707l-28.022 28.023a.5.5 0 0 1-.354.147M599.983 103.236a.5.5 0 0 1-.354-.146.5.5 0 0 1 0-.707l28.023-28.023a.5.5 0 0 1 .707 0 .5.5 0 0 1 0 .707l-28.022 28.023a.5.5 0 0 1-.354.146M602.552 105.806a.5.5 0 0 1-.354-.146.5.5 0 0 1 0-.707l28.023-28.024a.5.5 0 0 1 .707 0 .5.5 0 0 1 0 .707l-28.022 28.023a.5.5 0 0 1-.354.147M605.122 108.375a.5.5 0 0 1-.354-.146.5.5 0 0 1 0-.707l28.023-28.024a.5.5 0 0 1 .707 0 .5.5 0 0 1 0 .707l-28.022 28.023a.5.5 0 0 1-.354.147M607.691 110.943a.5.5 0 0 1-.354-.146.5.5 0 0 1 0-.707l28.023-28.023a.5.5 0 0 1 .707 0 .5.5 0 0 1 0 .707l-28.022 28.023a.5.5 0 0 1-.354.146M610.26 113.513a.5.5 0 0 1-.354-.146.5.5 0 0 1 0-.707l28.023-28.024a.5.5 0 0 1 .707 0 .5.5 0 0 1 0 .707l-28.022 28.023a.5.5 0 0 1-.354.147M612.829 116.082a.5.5 0 0 1-.354-.146.5.5 0 0 1 0-.707l28.023-28.024a.5.5 0 0 1 .707 0 .5.5 0 0 1 0 .707l-28.022 28.023a.5.5 0 0 1-.354.147M615.398 118.651a.5.5 0 0 1-.354-.146.5.5 0 0 1 0-.707l28.023-28.024a.5.5 0 0 1 .707 0 .5.5 0 0 1 0 .707l-28.022 28.023a.5.5 0 0 1-.354.147M617.968 121.221a.5.5 0 0 1-.354-.146.5.5 0 0 1 0-.707l28.023-28.024a.5.5 0 0 1 .707 0 .5.5 0 0 1 0 .707l-28.022 28.023a.5.5 0 0 1-.354.147M620.536 123.789a.5.5 0 0 1-.354-.146.5.5 0 0 1 0-.707l28.023-28.023a.5.5 0 0 1 .707 0 .5.5 0 0 1 0 .707l-28.022 28.023a.5.5 0 0 1-.354.146M623.106 126.359a.5.5 0 0 1-.354-.146.5.5 0 0 1 0-.707l28.023-28.024a.5.5 0 0 1 .707 0 .5.5 0 0 1 0 .707l-28.022 28.023a.5.5 0 0 1-.354.147M625.675 128.928a.5.5 0 0 1-.354-.146.5.5 0 0 1 0-.707l28.023-28.024a.5.5 0 0 1 .707 0 .5.5 0 0 1 0 .707l-28.022 28.023a.5.5 0 0 1-.354.147M628.244 131.497a.5.5 0 0 1-.354-.146.5.5 0 0 1 0-.707l28.023-28.023a.5.5 0 0 1 .707 0 .5.5 0 0 1 0 .707l-28.022 28.023a.5.5 0 0 1-.354.146M630.813 134.067a.5.5 0 0 1-.354-.146.5.5 0 0 1 0-.707l28.023-28.024a.5.5 0 0 1 .707 0 .5.5 0 0 1 0 .707l-28.022 28.023a.5.5 0 0 1-.354.147M633.382 136.636a.5.5 0 0 1-.354-.146.5.5 0 0 1 0-.707l28.023-28.024a.5.5 0 0 1 .707 0 .5.5 0 0 1 0 .707l-28.022 28.023a.5.5 0 0 1-.354.147M635.952 139.204a.5.5 0 0 1-.354-.146.5.5 0 0 1 0-.707l28.023-28.023a.5.5 0 0 1 .707 0 .5.5 0 0 1 0 .707l-28.022 28.023a.5.5 0 0 1-.354.146M638.521 141.774a.5.5 0 0 1-.354-.146.5.5 0 0 1 0-.707l28.023-28.024a.5.5 0 0 1 .707 0 .5.5 0 0 1 0 .707l-28.022 28.023a.5.5 0 0 1-.354.147M641.09 144.343a.5.5 0 0 1-.354-.146.5.5 0 0 1 0-.707l28.023-28.024a.5.5 0 0 1 .707 0 .5.5 0 0 1 0 .707l-28.022 28.023a.5.5 0 0 1-.354.147M643.659 146.912a.5.5 0 0 1-.354-.146.5.5 0 0 1 0-.707l28.023-28.024a.5.5 0 0 1 .707 0 .5.5 0 0 1 0 .707l-28.022 28.023a.5.5 0 0 1-.354.147M646.229 149.481a.5.5 0 0 1-.354-.146.5.5 0 0 1 0-.707l28.023-28.024a.5.5 0 0 1 .707 0 .5.5 0 0 1 0 .707l-28.022 28.023a.5.5 0 0 1-.354.147M648.797 152.05a.5.5 0 0 1-.354-.146.5.5 0 0 1 0-.707l28.023-28.023a.5.5 0 0 1 .707 0 .5.5 0 0 1 0 .707l-28.022 28.023a.5.5 0 0 1-.354.146M651.366 154.62a.5.5 0 0 1-.354-.146.5.5 0 0 1 0-.707l28.023-28.024a.5.5 0 0 1 .707 0 .5.5 0 0 1 0 .707l-28.022 28.023a.5.5 0 0 1-.354.147M653.936 155.247a.5.5 0 0 1-.354-.146.5.5 0 0 1 0-.707l28.023-28.024a.5.5 0 0 1 .707 0 .5.5 0 0 1 0 .707L654.29 155.1a.5.5 0 0 1-.354.147M656.505 157.776a.5.5 0 0 1-.354-.146.5.5 0 0 1 0-.707l28.023-28.023a.5.5 0 0 1 .707 0 .5.5 0 0 1 0 .707l-28.022 28.023a.5.5 0 0 1-.354.146M659.074 160.307a.5.5 0 0 1-.354-.146.5.5 0 0 1 0-.707l28.023-28.024a.5.5 0 0 1 .707 0 .5.5 0 0 1 0 .707l-28.022 28.023a.5.5 0 0 1-.354.147M661.643 162.838a.5.5 0 0 1-.354-.146.5.5 0 0 1 0-.707l28.023-28.024a.5.5 0 0 1 .707 0 .5.5 0 0 1 0 .707l-28.022 28.023a.5.5 0 0 1-.354.147M664.212 165.367a.5.5 0 0 1-.354-.146.5.5 0 0 1 0-.707l28.023-28.023a.5.5 0 0 1 .707 0 .5.5 0 0 1 0 .707l-28.022 28.023a.5.5 0 0 1-.354.146M666.782 167.899a.5.5 0 0 1-.354-.146.5.5 0 0 1 0-.707l28.023-28.024a.5.5 0 0 1 .707 0 .5.5 0 0 1 0 .707l-28.022 28.023a.5.5 0 0 1-.354.147M669.351 170.428a.5.5 0 0 1-.354-.146.5.5 0 0 1 0-.707l28.023-28.023a.5.5 0 0 1 .707 0 .5.5 0 0 1 0 .707l-28.022 28.023a.5.5 0 0 1-.354.146M671.919 172.959a.5.5 0 0 1-.354-.146.5.5 0 0 1 0-.707l28.023-28.024a.5.5 0 0 1 .707 0 .5.5 0 0 1 0 .707l-28.022 28.023a.5.5 0 0 1-.354.147M674.49 175.49a.5.5 0 0 1-.354-.146.5.5 0 0 1 0-.707l28.023-28.024a.5.5 0 0 1 .707 0 .5.5 0 0 1 0 .707l-28.022 28.023a.5.5 0 0 1-.354.147M677.058 178.019a.5.5 0 0 1-.354-.146.5.5 0 0 1 0-.707l28.023-28.023a.5.5 0 0 1 .707 0 .5.5 0 0 1 0 .707l-28.022 28.023a.5.5 0 0 1-.354.146M679.627 180.55a.5.5 0 0 1-.354-.146.5.5 0 0 1 0-.707l28.023-28.024a.5.5 0 0 1 .707 0 .5.5 0 0 1 0 .707l-28.022 28.023a.5.5 0 0 1-.354.147M682.197 183.081a.5.5 0 0 1-.354-.146.5.5 0 0 1 0-.707l28.023-28.024a.5.5 0 0 1 .707 0 .5.5 0 0 1 0 .707l-28.022 28.023a.5.5 0 0 1-.354.147M684.765 185.61a.5.5 0 0 1-.354-.146.5.5 0 0 1 0-.707l28.023-28.023a.5.5 0 0 1 .707 0 .5.5 0 0 1 0 .707l-28.022 28.023a.5.5 0 0 1-.354.146M687.335 188.142a.5.5 0 0 1-.354-.146.5.5 0 0 1 0-.707l28.023-28.024a.5.5 0 0 1 .707 0 .5.5 0 0 1 0 .707l-28.022 28.023a.5.5 0 0 1-.354.147M689.904 190.672a.5.5 0 0 1-.354-.146.5.5 0 0 1 0-.707l28.023-28.024a.5.5 0 0 1 .707 0 .5.5 0 0 1 0 .707l-28.022 28.023a.5.5 0 0 1-.354.147M692.473 193.202a.5.5 0 0 1-.354-.146.5.5 0 0 1 0-.707l28.023-28.024a.5.5 0 0 1 .707 0 .5.5 0 0 1 0 .707l-28.022 28.023a.5.5 0 0 1-.354.147M695.043 195.733a.5.5 0 0 1-.354-.146.5.5 0 0 1 0-.707l28.023-28.024a.5.5 0 0 1 .707 0 .5.5 0 0 1 0 .707l-28.022 28.023a.5.5 0 0 1-.354.147M697.611 198.262a.5.5 0 0 1-.354-.146.5.5 0 0 1 0-.707l28.023-28.023a.5.5 0 0 1 .707 0 .5.5 0 0 1 0 .707l-28.022 28.023a.5.5 0 0 1-.354.146M700.18 200.794a.5.5 0 0 1-.354-.146.5.5 0 0 1 0-.707l28.023-28.024a.5.5 0 0 1 .707 0 .5.5 0 0 1 0 .707l-28.022 28.023a.5.5 0 0 1-.354.147M702.75 203.324a.5.5 0 0 1-.354-.146.5.5 0 0 1 0-.707l28.023-28.024a.5.5 0 0 1 .707 0 .5.5 0 0 1 0 .707l-28.022 28.023a.5.5 0 0 1-.354.147M705.318 205.853a.5.5 0 0 1-.354-.146.5.5 0 0 1 0-.707l28.023-28.023a.5.5 0 0 1 .707 0 .5.5 0 0 1 0 .707l-28.022 28.023a.5.5 0 0 1-.354.146M315.402 636.192a.5.5 0 0 1-.4-.2.5.5 0 0 1 .1-.7l2.026-1.515a.5.5 0 0 1 .7.1.5.5 0 0 1-.1.7l-2.026 1.515a.5.5 0 0 1-.3.1"/><g clip-path="url(#c)"><path fill="#407b3e" d="m500.82 711.865-53.2 53.2a2.49 2.49 0 0 1-3.523 0l-47.941-47.942a2.49 2.49 0 0 1 0-3.524l53.2-53.2ZM548.786 766.274l-51.141-51.141 53.2-53.2a2.49 2.49 0 0 1 3.524 0l49.378 49.378a2.49 2.49 0 0 1 0 3.524l-51.44 51.44a2.49 2.49 0 0 1-3.524 0M580.6 631.887l51.8-51.8 52.107 52.107a2.49 2.49 0 0 1 0 3.523l-50.039 50.039a2.49 2.49 0 0 1-3.524 0L580.6 635.412a2.49 2.49 0 0 1 0-3.524M579.262 531.434l55.161-55.161 49.012 49.012a2.49 2.49 0 0 1 0 3.524l-53.4 53.4Z"/><path fill="#fff" d="m422.765 709.326.715-.455a8 8 0 0 0-1.4-.949l-.832.507a7 7 0 0 1 1.3.923l-1.807.156a3.3 3.3 0 0 1-.481-1.469l-1.222.13c.052.13.052.13.091.247.052.195.065.221.13.416.169.455.208.546.312.78l-1.131.091a6 6 0 0 1-.637.039c-.169 0-.39-.013-.533-.026l.1 1.144a4.4 4.4 0 0 1 1.1-.169l1.677-.143a5.97 5.97 0 0 0 2.821 1.937h-6.617c-.689 0-.975-.013-1.339-.039.026.338.039.767.039 1.365v2.769c0 .559-.026 1.053-.052 1.313.3-.026.845-.039 1.417-.039h5.889c.546 0 1.131.013 1.417.039a12 12 0 0 1-.052-1.365v-2.665c0-.507 0-.845.026-1.2a1.8 1.8 0 0 0 .377.052.96.96 0 0 0 .728-.312c.2-.208.26-.39.507-1.248a3 3 0 0 1-.923-.6 3.7 3.7 0 0 1-.325 1.014.27.27 0 0 1-.247.143 3.5 3.5 0 0 1-1.4-.533 4.5 4.5 0 0 1-.975-.754l2.353-.221a13 13 0 0 1 1.027-.052h.351l-.091-1.118a6.6 6.6 0 0 1-1.352.208Zm-6.578 4.043h6.357v.65h-6.357Zm0 1.469h6.357v.65h-6.357Zm0 1.469h6.357v.65h-6.357Zm.494-4.121a3.4 3.4 0 0 1-.065-.78v-1.872a11 11 0 0 0 .858-.832 1.4 1.4 0 0 1 .143-.143c.1-.117.1-.117.169-.182l-1.118-.483a8.35 8.35 0 0 1-3.341 2.652 3 3 0 0 1 .6.936 9.7 9.7 0 0 0 1.636-1.088 4 4 0 0 0-.052.663v.39a3.2 3.2 0 0 1-.078.741Zm.676 5.708a10.1 10.1 0 0 1-3.875 1.117 3.3 3.3 0 0 1 .663.988 11.4 11.4 0 0 0 4.018-1.456Zm3.133.65a11.05 11.05 0 0 0 4.131 1.442 5 5 0 0 1 .679-1.014 9.26 9.26 0 0 1-3.926-1.078Zm12.974-4.706.039 4.043v.26a9 9 0 0 1-.066 1.364h1.484a13 13 0 0 1-.08-1.651l-.078-5.915h1.365c.663 0 1.209.013 1.547.052v-1.339a9 9 0 0 1-1.56.091h-1.364l-.013-1.04v-.364a7 7 0 0 1 .052-.871h-1.443a9 9 0 0 1 .065 1.261l.013 1.014-4.472.013a9 9 0 0 1-1.69-.091v1.352a15 15 0 0 1 1.651-.065l3.731-.013a13.5 13.5 0 0 1-1.794 2.223 14.3 14.3 0 0 1-4.23 2.938 3 3 0 0 1 .91 1.118 19 19 0 0 0 2.02-1.261 16 16 0 0 0 2.77-2.509 7.6 7.6 0 0 0 1.182-1.664c-.039.637-.039.754-.039.91Zm16.041-4.395a3.3 3.3 0 0 1-1.17.117h-5.966a10.5 10.5 0 0 1-1.755-.091v1.443a12 12 0 0 1 1.729-.078h6.2a9.32 9.32 0 0 1-4 5.863 9.8 9.8 0 0 1-2.889 1.352 3.85 3.85 0 0 1 .936 1.287 12.4 12.4 0 0 0 4.131-2.561 11.34 11.34 0 0 0 3.24-5.694 3 3 0 0 1 .312-.91Zm11.063 1.209a4.2 4.2 0 0 1-.767.9 14.9 14.9 0 0 1-3.666 2.649 13.2 13.2 0 0 1-3.094 1.17 4.5 4.5 0 0 1 .663 1.131 17 17 0 0 0 3.809-1.7v3.468a7.5 7.5 0 0 1-.078 1.352h1.443a7 7 0 0 1-.078-1.352v-4.251a17.6 17.6 0 0 0 2.457-2.158 2.3 2.3 0 0 1 .429-.416Zm14.99 7.436a31 31 0 0 0-4.329-3.757 15.6 15.6 0 0 0 2.08-3.588 2.1 2.1 0 0 1 .39-.663l-.728-.767a2.35 2.35 0 0 1-1.027.13l-4.329.065h-.351a10 10 0 0 1-1.343-.078l.039 1.417a12 12 0 0 1 1.664-.1l3.77-.065c.169 0 .247 0 .4-.013a1 1 0 0 1-.052.117 1 1 0 0 0-.078.2 13.34 13.34 0 0 1-4.485 5.525 10.7 10.7 0 0 1-2.606 1.434 3.9 3.9 0 0 1 .884 1.209 15.15 15.15 0 0 0 4.964-3.809 25.6 25.6 0 0 1 4.058 3.939Zm4.329-4.888a2.7 2.7 0 0 1 1.476.39 2.6 2.6 0 0 1 .943 1.033 3.1 3.1 0 0 1 .325 1.424 3 3 0 0 1-.377 1.495 2.8 2.8 0 0 1-1.033 1.066 2.8 2.8 0 0 1-1.464.386 3.8 3.8 0 0 1-1.378-.26 3.05 3.05 0 0 1-1.079-.663l.793-1.2a1.86 1.86 0 0 0 .683.475 2.1 2.1 0 0 0 .851.189 1.43 1.43 0 0 0 1.034-.4 1.4 1.4 0 0 0 .41-1.047 1.68 1.68 0 0 0-.41-1.176 1.46 1.46 0 0 0-1.14-.438 2.7 2.7 0 0 0-.8.117 4.2 4.2 0 0 0-.839.377h-.013v-4.654h4.173v1.456h-2.87v1.508a3.3 3.3 0 0 1 .715-.078M526.514 709.326l.715-.455a8 8 0 0 0-1.4-.949l-.832.507a7 7 0 0 1 1.3.923l-1.807.156a3.3 3.3 0 0 1-.481-1.469l-1.222.13c.052.13.052.13.091.247.052.195.065.221.13.416.169.455.208.546.312.78l-1.131.091a6 6 0 0 1-.637.039c-.169 0-.39-.013-.533-.026l.1 1.144a4.4 4.4 0 0 1 1.1-.169l1.677-.143a5.97 5.97 0 0 0 2.821 1.937h-6.612c-.689 0-.975-.013-1.339-.039.026.338.039.767.039 1.365v2.769c0 .559-.026 1.053-.052 1.313.3-.026.845-.039 1.417-.039h5.889c.546 0 1.131.013 1.417.039a12 12 0 0 1-.052-1.365v-2.665c0-.507 0-.845.026-1.2a1.8 1.8 0 0 0 .377.052.96.96 0 0 0 .728-.312c.2-.208.26-.39.507-1.248a3 3 0 0 1-.923-.6 3.7 3.7 0 0 1-.325 1.014.27.27 0 0 1-.247.143 3.5 3.5 0 0 1-1.4-.533 4.5 4.5 0 0 1-.975-.754l2.353-.221a13 13 0 0 1 1.027-.052h.351l-.091-1.118a6.6 6.6 0 0 1-1.352.208Zm-6.579 4.043h6.357v.65h-6.357Zm0 1.469h6.357v.65h-6.357Zm0 1.469h6.357v.65h-6.357Zm.494-4.121a3.4 3.4 0 0 1-.065-.78v-1.872a11 11 0 0 0 .858-.832 1.4 1.4 0 0 1 .143-.143c.1-.117.1-.117.169-.182l-1.117-.483a8.35 8.35 0 0 1-3.341 2.652 3 3 0 0 1 .6.936 9.7 9.7 0 0 0 1.636-1.088 4 4 0 0 0-.052.663v.39a3.2 3.2 0 0 1-.078.741Zm.677 5.708a10.1 10.1 0 0 1-3.874 1.117 3.3 3.3 0 0 1 .663.988 11.4 11.4 0 0 0 4.017-1.456Zm3.133.65a11.05 11.05 0 0 0 4.134 1.443 5 5 0 0 1 .676-1.015 9.26 9.26 0 0 1-3.926-1.078Zm12.974-4.706.039 4.043v.26a9 9 0 0 1-.065 1.364h1.478a13 13 0 0 1-.078-1.651l-.078-5.915h1.365c.663 0 1.209.013 1.547.052v-1.339a9 9 0 0 1-1.56.091h-1.365l-.013-1.04v-.364a7 7 0 0 1 .052-.871h-1.443a9 9 0 0 1 .073 1.261l.013 1.014-4.472.013a9 9 0 0 1-1.69-.091v1.352a15 15 0 0 1 1.649-.065l3.731-.013a13.5 13.5 0 0 1-1.794 2.223 14.3 14.3 0 0 1-4.225 2.938 3 3 0 0 1 .91 1.118 19 19 0 0 0 2.015-1.261 16 16 0 0 0 2.763-2.509 7.6 7.6 0 0 0 1.187-1.664c-.039.637-.039.754-.039.91Zm16.041-4.395a3.3 3.3 0 0 1-1.17.117h-5.966a10.5 10.5 0 0 1-1.753-.091v1.443a12 12 0 0 1 1.727-.078h6.2a9.32 9.32 0 0 1-4 5.863 9.8 9.8 0 0 1-2.889 1.352 3.85 3.85 0 0 1 .936 1.287 12.4 12.4 0 0 0 4.134-2.561 11.34 11.34 0 0 0 3.237-5.694 3 3 0 0 1 .312-.91Zm11.063 1.209a4.2 4.2 0 0 1-.767.9 14.9 14.9 0 0 1-3.666 2.649 13.2 13.2 0 0 1-3.094 1.17 4.5 4.5 0 0 1 .663 1.131 17 17 0 0 0 3.812-1.703v3.471a7.5 7.5 0 0 1-.081 1.352h1.443a7 7 0 0 1-.078-1.352v-4.251a17.6 17.6 0 0 0 2.457-2.158 2.3 2.3 0 0 1 .429-.416Zm14.99 7.436a31 31 0 0 0-4.329-3.757 15.6 15.6 0 0 0 2.08-3.588 2.1 2.1 0 0 1 .39-.663l-.728-.767a2.35 2.35 0 0 1-1.027.13l-4.328.065h-.351a10 10 0 0 1-1.339-.078l.039 1.417a12 12 0 0 1 1.664-.1l3.77-.065c.169 0 .247 0 .4-.013a1 1 0 0 1-.052.117 1 1 0 0 0-.078.2 13.34 13.34 0 0 1-4.483 5.516 10.7 10.7 0 0 1-2.613 1.443 3.9 3.9 0 0 1 .884 1.209 15.15 15.15 0 0 0 4.966-3.809 25.6 25.6 0 0 1 4.056 3.939Zm5.158-4.758a2.36 2.36 0 0 1 1.242.358 2.7 2.7 0 0 1 .956.988 2.77 2.77 0 0 1 .364 1.411 2.76 2.76 0 0 1-.429 1.534 2.87 2.87 0 0 1-1.133 1.019 3.3 3.3 0 0 1-1.5.354 3.1 3.1 0 0 1-1.619-.429 3 3 0 0 1-1.141-1.231 4.1 4.1 0 0 1-.416-1.9 4.5 4.5 0 0 1 1.076-2.852 11.1 11.1 0 0 1 2.769-2.411l1.014 1.1a6.4 6.4 0 0 0-1.833 1.209 5 5 0 0 0-1.092 1.482 2.4 2.4 0 0 1 1.742-.632m-.572 4.316a1.54 1.54 0 0 0 1.118-.429 1.5 1.5 0 0 0 .442-1.131 1.39 1.39 0 0 0-.442-1.079 1.6 1.6 0 0 0-1.118-.4 1.66 1.66 0 0 0-1.1.383 1.16 1.16 0 0 0-.455.917v.26a1.36 1.36 0 0 0 .206.727 1.6 1.6 0 0 0 .566.546 1.54 1.54 0 0 0 .786.206ZM607.367 627.123l.715-.455a8 8 0 0 0-1.4-.949l-.832.507a7 7 0 0 1 1.3.923l-1.807.156a3.3 3.3 0 0 1-.481-1.469l-1.222.13c.052.13.052.13.091.247.052.195.065.221.13.416.169.455.208.546.312.78l-1.131.091a6 6 0 0 1-.637.039c-.169 0-.39-.013-.533-.026l.1 1.144a4.4 4.4 0 0 1 1.1-.169l1.677-.143a5.97 5.97 0 0 0 2.821 1.937h-6.616c-.689 0-.975-.013-1.339-.039.026.338.039.767.039 1.365v2.769c0 .559-.026 1.053-.052 1.313.3-.026.845-.039 1.417-.039h5.889c.546 0 1.131.013 1.417.039a12 12 0 0 1-.052-1.365v-2.665c0-.507 0-.845.026-1.2a1.8 1.8 0 0 0 .377.052.96.96 0 0 0 .728-.312c.2-.208.26-.39.507-1.248a3 3 0 0 1-.923-.6 3.7 3.7 0 0 1-.325 1.014.27.27 0 0 1-.247.143 3.5 3.5 0 0 1-1.4-.533 4.5 4.5 0 0 1-.975-.754l2.353-.221a13 13 0 0 1 1.027-.052h.351l-.091-1.118a6.6 6.6 0 0 1-1.352.208Zm-6.578 4.043h6.357v.65h-6.357Zm0 1.469h6.357v.65h-6.357Zm0 1.469h6.357v.65h-6.357Zm.494-4.121a3.4 3.4 0 0 1-.065-.78v-1.872a11 11 0 0 0 .858-.832 1.4 1.4 0 0 1 .143-.143c.1-.117.1-.117.169-.182l-1.119-.483a8.35 8.35 0 0 1-3.341 2.652 3 3 0 0 1 .6.936 9.7 9.7 0 0 0 1.637-1.088 4 4 0 0 0-.052.663v.39a3.2 3.2 0 0 1-.078.741Zm.671 5.708a10.1 10.1 0 0 1-3.87 1.117 3.3 3.3 0 0 1 .663.988 11.4 11.4 0 0 0 4.017-1.456Zm3.133.65a11.05 11.05 0 0 0 4.134 1.443 5 5 0 0 1 .68-1.015 9.26 9.26 0 0 1-3.926-1.078Zm12.974-4.706.039 4.043v.26a9 9 0 0 1-.061 1.364h1.482a13 13 0 0 1-.078-1.651l-.078-5.915h1.365c.663 0 1.209.013 1.547.052v-1.339a9 9 0 0 1-1.56.091h-1.363l-.013-1.04v-.364a7 7 0 0 1 .052-.871h-1.443a9 9 0 0 1 .065 1.261l.013 1.014-4.474.013a9 9 0 0 1-1.69-.091v1.352a15 15 0 0 1 1.651-.065l3.731-.013a13.5 13.5 0 0 1-1.792 2.223 14.3 14.3 0 0 1-4.225 2.938 3 3 0 0 1 .91 1.118 19 19 0 0 0 2.015-1.261 16 16 0 0 0 2.769-2.509 7.6 7.6 0 0 0 1.181-1.664c-.039.637-.039.754-.039.91Zm16.046-4.395a3.3 3.3 0 0 1-1.17.117h-5.967a10.5 10.5 0 0 1-1.755-.091v1.443a12 12 0 0 1 1.729-.078h6.2a9.32 9.32 0 0 1-4 5.863 9.8 9.8 0 0 1-2.89 1.352 3.85 3.85 0 0 1 .937 1.287 12.4 12.4 0 0 0 4.134-2.561 11.34 11.34 0 0 0 3.237-5.694 3 3 0 0 1 .312-.91Zm11.063 1.209a4.2 4.2 0 0 1-.767.9 14.9 14.9 0 0 1-3.666 2.649 13.2 13.2 0 0 1-3.094 1.17 4.5 4.5 0 0 1 .663 1.131 17 17 0 0 0 3.809-1.7v3.468a7.5 7.5 0 0 1-.078 1.352h1.443a7 7 0 0 1-.078-1.352v-4.251a17.6 17.6 0 0 0 2.457-2.158 2.3 2.3 0 0 1 .429-.416Zm14.989 7.436a31 31 0 0 0-4.329-3.757 15.6 15.6 0 0 0 2.08-3.588 2.1 2.1 0 0 1 .39-.663l-.728-.767a2.35 2.35 0 0 1-1.027.13l-4.329.065h-.351a10 10 0 0 1-1.339-.078l.039 1.417a12 12 0 0 1 1.664-.1l3.77-.065c.169 0 .247 0 .4-.013a1 1 0 0 1-.052.117 1 1 0 0 0-.078.2 13.34 13.34 0 0 1-4.485 5.525 10.7 10.7 0 0 1-2.609 1.434 3.9 3.9 0 0 1 .879 1.209 15.15 15.15 0 0 0 4.966-3.809 25.6 25.6 0 0 1 4.061 3.939Zm7.164-7.774-3.342 8.58h-1.69l2.834-7.124h-3.484v-1.456ZM605.41 523.673l.715-.455a8 8 0 0 0-1.4-.949l-.832.507a7 7 0 0 1 1.3.923l-1.807.156a3.3 3.3 0 0 1-.481-1.469l-1.222.13c.052.13.052.13.091.247.052.195.065.221.13.416.169.455.208.546.312.78l-1.131.091a6 6 0 0 1-.637.039c-.169 0-.39-.013-.533-.026l.1 1.144a4.4 4.4 0 0 1 1.1-.169l1.677-.143a5.97 5.97 0 0 0 2.821 1.937h-6.603c-.689 0-.975-.013-1.339-.039.026.338.039.767.039 1.365v2.769c0 .559-.026 1.053-.052 1.313.3-.026.845-.039 1.417-.039h5.889c.546 0 1.131.013 1.417.039a12 12 0 0 1-.052-1.365v-2.665c0-.507 0-.845.026-1.2a1.8 1.8 0 0 0 .377.052.96.96 0 0 0 .728-.312c.2-.208.26-.39.507-1.248a3 3 0 0 1-.923-.6 3.7 3.7 0 0 1-.334 1.02.27.27 0 0 1-.247.143 3.5 3.5 0 0 1-1.4-.533 4.5 4.5 0 0 1-.975-.754l2.353-.221a13 13 0 0 1 1.027-.052h.351l-.091-1.118a6.6 6.6 0 0 1-1.352.208Zm-6.578 4.043h6.357v.65h-6.357Zm0 1.469h6.357v.65h-6.357Zm0 1.469h6.357v.65h-6.357Zm.494-4.121a3.4 3.4 0 0 1-.065-.78v-1.872a11 11 0 0 0 .858-.832 1.4 1.4 0 0 1 .143-.143c.1-.117.1-.117.169-.182l-1.114-.483a8.35 8.35 0 0 1-3.341 2.652 3 3 0 0 1 .6.936 9.7 9.7 0 0 0 1.634-1.088 4 4 0 0 0-.052.663v.39a3.2 3.2 0 0 1-.078.741Zm.684 5.708a10.1 10.1 0 0 1-3.878 1.117 3.3 3.3 0 0 1 .663.988 11.4 11.4 0 0 0 4.015-1.456Zm3.133.65a11.05 11.05 0 0 0 4.134 1.443 5 5 0 0 1 .672-1.015 9.26 9.26 0 0 1-3.926-1.078Zm12.967-4.707.039 4.043v.26a9 9 0 0 1-.062 1.365h1.482a13 13 0 0 1-.078-1.651l-.081-5.915h1.365c.663 0 1.209.013 1.547.052v-1.339a9 9 0 0 1-1.56.091H617.4l-.013-1.04v-.364a7 7 0 0 1 .052-.871h-1.443a9 9 0 0 1 .065 1.261l.013 1.014-4.472.013a9 9 0 0 1-1.69-.091v1.352a15 15 0 0 1 1.651-.065l3.731-.013a13.5 13.5 0 0 1-1.794 2.223 14.3 14.3 0 0 1-4.225 2.938 3 3 0 0 1 .91 1.118 19 19 0 0 0 2.015-1.261 16 16 0 0 0 2.769-2.509 7.6 7.6 0 0 0 1.183-1.664c-.039.637-.039.754-.039.91Zm16.045-4.394a3.3 3.3 0 0 1-1.17.117h-5.967a10.5 10.5 0 0 1-1.755-.091v1.443a12 12 0 0 1 1.729-.078h6.2a9.32 9.32 0 0 1-4 5.863 9.8 9.8 0 0 1-2.889 1.352 3.85 3.85 0 0 1 .936 1.287 12.4 12.4 0 0 0 4.134-2.561 11.34 11.34 0 0 0 3.237-5.694 3 3 0 0 1 .312-.91Zm11.063 1.209a4.2 4.2 0 0 1-.767.9 14.9 14.9 0 0 1-3.666 2.649 13.2 13.2 0 0 1-3.094 1.17 4.5 4.5 0 0 1 .663 1.131 17 17 0 0 0 3.809-1.7v3.468a7.5 7.5 0 0 1-.078 1.352h1.443a7 7 0 0 1-.078-1.352v-4.251a17.6 17.6 0 0 0 2.46-2.158 2.3 2.3 0 0 1 .429-.416Zm14.992 7.436a31 31 0 0 0-4.329-3.757 15.6 15.6 0 0 0 2.08-3.588 2.1 2.1 0 0 1 .39-.663l-.728-.767a2.35 2.35 0 0 1-1.027.13l-4.329.065h-.357a10 10 0 0 1-1.339-.078l.039 1.417a12 12 0 0 1 1.664-.1l3.77-.065c.169 0 .247 0 .4-.013a1 1 0 0 1-.052.117 1 1 0 0 0-.078.2 13.34 13.34 0 0 1-4.485 5.525 10.7 10.7 0 0 1-2.606 1.434 3.9 3.9 0 0 1 .887 1.209 15.15 15.15 0 0 0 4.966-3.809 25.6 25.6 0 0 1 4.053 3.939Zm1.326-1.937a2.36 2.36 0 0 1 .475-1.5 3.3 3.3 0 0 1 1.125-.929 2.5 2.5 0 0 1-.6-.657 1.7 1.7 0 0 1-.208-.877 1.8 1.8 0 0 1 .306-1.014 2.04 2.04 0 0 1 .839-.709 2.7 2.7 0 0 1 1.183-.253 2.8 2.8 0 0 1 1.19.253 2.14 2.14 0 0 1 .851.689 1.63 1.63 0 0 1 .312.968 1.8 1.8 0 0 1-.208.923 2.5 2.5 0 0 1-.624.676 3.5 3.5 0 0 1 1.138.955 2.3 2.3 0 0 1 .475 1.476 2.56 2.56 0 0 1-.416 1.4 3.1 3.1 0 0 1-1.141 1.049 3.25 3.25 0 0 1-1.593.393 3.26 3.26 0 0 1-1.586-.39 2.9 2.9 0 0 1-1.118-1.046 2.65 2.65 0 0 1-.403-1.407Zm2.262-3.783a.78.78 0 0 0 .273.591.9.9 0 0 0 .624.253.86.86 0 0 0 .611-.247.8.8 0 0 0 .26-.6.87.87 0 0 0-.26-.637.84.84 0 0 0-.611-.26.87.87 0 0 0-.631.26.86.86 0 0 0-.268.64Zm-.717 3.726a1.64 1.64 0 0 0 .208.806 1.6 1.6 0 0 0 .572.6 1.5 1.5 0 0 0 .78.221 1.57 1.57 0 0 0 .806-.221 1.7 1.7 0 0 0 .6-.6 1.53 1.53 0 0 0 .227-.806 1.58 1.58 0 0 0-.464-1.145 1.53 1.53 0 0 0-1.131-.475 1.55 1.55 0 0 0-.786.214 1.6 1.6 0 0 0-.592.592 1.6 1.6 0 0 0-.22.814"/><path fill="#0d4b08" d="M487.268 557.74a3.3 3.3 0 0 1-1.17.117h-5.967a10.5 10.5 0 0 1-1.755-.091v1.443a12 12 0 0 1 1.729-.078h6.2a9.32 9.32 0 0 1-4 5.863 9.8 9.8 0 0 1-2.889 1.352 3.85 3.85 0 0 1 .931 1.287 12.4 12.4 0 0 0 4.134-2.561 11.34 11.34 0 0 0 3.242-5.694 3 3 0 0 1 .312-.91Zm5.187-.676a10 10 0 0 1 .065 1.391v2.847a13 13 0 0 1-.065 1.573h1.521a12 12 0 0 1-.065-1.573v-2.847a11 11 0 0 1 .065-1.391Zm5.824.026a8 8 0 0 1 .068 1.443v1.313l.013.481a15 15 0 0 1-.182 2.7 3.67 3.67 0 0 1-1.953 2.617 7 7 0 0 1-2.587.884 3.8 3.8 0 0 1 .78 1.3 11.3 11.3 0 0 0 2.457-.962 5.01 5.01 0 0 0 2.522-2.975 14.7 14.7 0 0 0 .338-3.965v-1.4a9 9 0 0 1 .065-1.43Zm5.382 5.876a19 19 0 0 1 2.015-.065h7.007a19 19 0 0 1 1.95.065v-1.508a13 13 0 0 1-1.937.078h-7.033a15 15 0 0 1-2-.091Zm-23.946 18.419a31 31 0 0 0-4.329-3.757 15.6 15.6 0 0 0 2.08-3.588 2.1 2.1 0 0 1 .39-.663l-.728-.767a2.35 2.35 0 0 1-1.027.13l-4.329.065h-.351a10 10 0 0 1-1.339-.078l.039 1.417a12 12 0 0 1 1.664-.1l3.77-.065c.169 0 .247 0 .4-.013a1 1 0 0 1-.052.117 1 1 0 0 0-.078.2 13.34 13.34 0 0 1-4.478 5.516 10.7 10.7 0 0 1-2.613 1.443 3.9 3.9 0 0 1 .884 1.209 15.15 15.15 0 0 0 4.966-3.809 25.6 25.6 0 0 1 4.056 3.939Zm1.781-1.911.4-.52a82 82 0 0 0 2.34-2.886c.546-.741.6-.78.832-.78s.247.013 1.092.923a60 60 0 0 0 4.277 4.29l1.248 1.131.7-1.495a7 7 0 0 1-1.183-.9 43.5 43.5 0 0 1-4.3-4.186c-.975-1.079-1.235-1.274-1.833-1.274-.65 0-1.027.273-1.781 1.261-.637.845-1.9 2.34-2.275 2.717a2.5 2.5 0 0 1-.455.364Zm8.619-6.916a1.5 1.5 0 0 0-1.495 1.508 1.5 1.5 0 0 0 1.495 1.508 1.51 1.51 0 0 0 1.508-1.508 1.51 1.51 0 0 0-1.508-1.508m0 .624a.885.885 0 0 1 .884.884.893.893 0 0 1-.884.884.88.88 0 0 1-.868-.884.88.88 0 0 1 .868-.884m3.471 4.784a19 19 0 0 1 2.015-.065h7.007a19 19 0 0 1 1.95.065v-1.508a13 13 0 0 1-1.937.078h-7.033a15 15 0 0 1-2-.091Zm22.661 3.419a31 31 0 0 0-4.329-3.757 15.6 15.6 0 0 0 2.08-3.588 2.1 2.1 0 0 1 .39-.663l-.728-.767a2.35 2.35 0 0 1-1.027.13l-4.329.065h-.357a10 10 0 0 1-1.339-.078l.039 1.417a12 12 0 0 1 1.664-.1l3.77-.065c.169 0 .247 0 .4-.013a1 1 0 0 1-.052.117 1 1 0 0 0-.078.2 13.34 13.34 0 0 1-4.485 5.525 10.7 10.7 0 0 1-2.613 1.443 3.9 3.9 0 0 1 .894 1.2 15.15 15.15 0 0 0 4.966-3.809 25.6 25.6 0 0 1 4.056 3.939Zm7.709-.65v1.456h-5.98l.468-.468q1.287-1.287 2.021-2.1a10 10 0 0 0 1.222-1.638 3.1 3.1 0 0 0 .488-1.567 1.36 1.36 0 0 0-.428-1.078 1.56 1.56 0 0 0-1.066-.377 1.41 1.41 0 0 0-1.066.39 1.23 1.23 0 0 0-.377.871 1.87 1.87 0 0 0 .507 1.339l-.923.845a1.86 1.86 0 0 1-.761-.929 3.1 3.1 0 0 1-.292-1.215 2.6 2.6 0 0 1 .378-1.353 2.73 2.73 0 0 1 1.1-1.02 3.56 3.56 0 0 1 1.7-.384 2.8 2.8 0 0 1 1.462.384 2.7 2.7 0 0 1 .994 1.02 2.8 2.8 0 0 1 .344 1.38 3.5 3.5 0 0 1-.338 1.469 7.3 7.3 0 0 1-.812 1.352q-.475.624-1.332 1.625Zm-35.895 10.437a3 3 0 0 1 .7.6 10.6 10.6 0 0 0 1.536-2.615h3.809a8.4 8.4 0 0 1-1.469 2.626 3.2 3.2 0 0 1 1.053.6 13.5 13.5 0 0 0 1.495-2.792c.182-.468.286-.741.338-.832l-.6-.715a5.5 5.5 0 0 1-.988.052h-3.274c.2-.572.208-.6.3-.9a6 6 0 0 1 .247-.715l-1.3-.208a6.7 6.7 0 0 1-.377 1.651 8.8 8.8 0 0 1-1.469 2.821v-2.017c0-.806 0-.936.026-1.261a5.6 5.6 0 0 1-.91.039h-2.054a8 8 0 0 1-.949-.039 12 12 0 0 1 .052 1.261v6.227a13 13 0 0 1-.08 1.508h1.2v-1.326h1.625v.728h1.131a9.5 9.5 0 0 1-.039-1.209Zm-2.714-2.613h1.625v5.551h-1.625Zm5.317 1.4a6 6 0 0 1 .052.806 7.7 7.7 0 0 1-.377 2.548 7.6 7.6 0 0 1-1.131 2.145 6.2 6.2 0 0 1-2.5 1.846 3.7 3.7 0 0 1 .78 1 8.8 8.8 0 0 0 2.2-1.664 6.9 6.9 0 0 0 1.677-3.211 7.9 7.9 0 0 0 1.662 3.047 7.8 7.8 0 0 0 2.275 1.768 4 4 0 0 1 .65-1.2 6.36 6.36 0 0 1-3.6-3.679 7.2 7.2 0 0 1-.494-2.509 4.6 4.6 0 0 1 .052-.9Zm12.935.949c.091-.585.117-.845.182-1.456h3.341a10 10 0 0 1 1.378.078v-1.239a10 10 0 0 1-1.378.078h-3.266c.026-.364.026-.429.026-.611a10 10 0 0 1 .1-1.339h-1.309a6.6 6.6 0 0 1 .052 1c0 .286 0 .52-.026.949h-.208a13 13 0 0 1-1.391-.065v1.218a11 11 0 0 1 1.378-.065h.156c-.312 3.354-1.274 5.835-2.977 7.644a3.5 3.5 0 0 1 .806.988 12.6 12.6 0 0 0 2.639-4.953 9.5 9.5 0 0 0 1.287 2.119 8.4 8.4 0 0 1-2.821 1.924 3.5 3.5 0 0 1 .702 1.013 10.7 10.7 0 0 0 2.86-2.1 11.6 11.6 0 0 0 2.9 2.145 4.3 4.3 0 0 1 .689-1.144 9.2 9.2 0 0 1-2.86-1.859 11.1 11.1 0 0 0 1.534-2.86c.26-.689.26-.715.338-.9l-.572-.611a6 6 0 0 1-.962.052Zm2.756 1.04a7.8 7.8 0 0 1-1.238 2.487 7.9 7.9 0 0 1-1.417-2.483Zm-7.9-2.08v2.643a8 8 0 0 1-1.742.468l.26 1.222a10.4 10.4 0 0 1 1.474-.546v3.016c0 .312-.078.377-.442.377a11 11 0 0 1-1.183-.078 4.2 4.2 0 0 1 .247 1.144c.4.026.6.039.845.039h.313a2.06 2.06 0 0 0 .936-.182.91.91 0 0 0 .429-.91v-3.809c.507-.182.767-.286 1.56-.611v-1.079c-.663.273-.884.351-1.56.572v-2.262h.416a6 6 0 0 1 .845.052v-1.144a5.5 5.5 0 0 1-.832.052h-.429v-1.157a9 9 0 0 1 .078-1.3h-1.3a10 10 0 0 1 .077 1.326v1.131h-.571a6 6 0 0 1-1.029-.078v1.183a8 8 0 0 1 1.027-.065ZM228.252 671.517a3.3 3.3 0 0 1-1.17.117h-5.967a10.5 10.5 0 0 1-1.755-.091v1.443a12 12 0 0 1 1.729-.078h6.2a9.32 9.32 0 0 1-4 5.863 9.8 9.8 0 0 1-2.889 1.352 3.85 3.85 0 0 1 .936 1.287 12.4 12.4 0 0 0 4.134-2.561 11.34 11.34 0 0 0 3.237-5.694 3 3 0 0 1 .312-.91Zm5.187-.676a10 10 0 0 1 .065 1.391v2.847a13 13 0 0 1-.065 1.573h1.521a12 12 0 0 1-.065-1.573v-2.847a11 11 0 0 1 .065-1.391Zm5.824.026a8 8 0 0 1 .061 1.443v1.313l.013.481a15 15 0 0 1-.182 2.7 3.67 3.67 0 0 1-1.95 2.613 7 7 0 0 1-2.581.888 3.8 3.8 0 0 1 .78 1.3 11.3 11.3 0 0 0 2.457-.962 5.01 5.01 0 0 0 2.52-2.975 14.7 14.7 0 0 0 .343-3.967v-1.4a9 9 0 0 1 .065-1.43Zm5.382 5.876a19 19 0 0 1 2.015-.065h7.007a19 19 0 0 1 1.95.065v-1.508a13 13 0 0 1-1.937.078h-7.033a15 15 0 0 1-2-.091Zm22.659 3.419a31 31 0 0 0-4.329-3.757 15.6 15.6 0 0 0 2.08-3.588 2.1 2.1 0 0 1 .39-.663l-.728-.767a2.35 2.35 0 0 1-1.027.13l-4.329.065h-.351a10 10 0 0 1-1.339-.078l.039 1.417a12 12 0 0 1 1.664-.1l3.77-.065c.169 0 .247 0 .4-.013a1 1 0 0 1-.052.117 1 1 0 0 0-.078.2 13.34 13.34 0 0 1-4.482 5.516 10.7 10.7 0 0 1-2.608 1.443 3.9 3.9 0 0 1 .879 1.209 15.15 15.15 0 0 0 4.966-3.809 25.6 25.6 0 0 1 4.055 3.939Zm1.781-1.911.4-.52a74 74 0 0 0 2.339-2.886c.546-.741.6-.78.832-.78s.247.013 1.092.923a60 60 0 0 0 4.277 4.29l1.252 1.131.7-1.5a7 7 0 0 1-1.183-.9 43.5 43.5 0 0 1-4.3-4.186c-.975-1.079-1.235-1.274-1.833-1.274-.65 0-1.027.273-1.781 1.261-.637.845-1.9 2.34-2.275 2.717a2.5 2.5 0 0 1-.455.364Zm8.619-6.916a1.5 1.5 0 0 0-1.495 1.508 1.5 1.5 0 0 0 1.495 1.508 1.51 1.51 0 0 0 1.508-1.508 1.51 1.51 0 0 0-1.508-1.508m0 .624a.885.885 0 0 1 .884.884.893.893 0 0 1-.884.884.88.88 0 0 1-.871-.884.88.88 0 0 1 .871-.884m3.471 4.784a19 19 0 0 1 2.015-.065h7.007a19 19 0 0 1 1.95.065v-1.508a13 13 0 0 1-1.937.078h-7.033a15 15 0 0 1-2-.091Zm22.659 3.419a31 31 0 0 0-4.329-3.757 15.6 15.6 0 0 0 2.08-3.588 2.1 2.1 0 0 1 .39-.663l-.728-.767a2.35 2.35 0 0 1-1.027.13l-4.329.065h-.351a10 10 0 0 1-1.339-.078l.039 1.417a12 12 0 0 1 1.664-.1l3.77-.065c.169 0 .247 0 .4-.013a1 1 0 0 1-.052.117 1 1 0 0 0-.078.2 13.34 13.34 0 0 1-4.485 5.525 10.7 10.7 0 0 1-2.609 1.434 3.9 3.9 0 0 1 .883 1.209 15.15 15.15 0 0 0 4.966-3.809 25.6 25.6 0 0 1 4.057 3.939Zm4.083-7.774v8.58h-1.521v-7.124h-.858v-1.456Zm-52.579 17.561a3 3 0 0 1 .7.6 10.6 10.6 0 0 0 1.536-2.615h3.809a8.4 8.4 0 0 1-1.469 2.626 3.2 3.2 0 0 1 1.053.6 13.5 13.5 0 0 0 1.495-2.792c.182-.468.286-.741.338-.832l-.6-.715a5.5 5.5 0 0 1-.986.047h-3.276c.2-.572.208-.6.3-.9a6 6 0 0 1 .247-.715l-1.3-.208a6.7 6.7 0 0 1-.377 1.651 8.8 8.8 0 0 1-1.47 2.824v-2.015c0-.806 0-.936.026-1.261a5.6 5.6 0 0 1-.91.039H252.4a8 8 0 0 1-.949-.039 12 12 0 0 1 .052 1.261v6.227a13 13 0 0 1-.079 1.508h1.2v-1.326h1.625v.728h1.131a9.5 9.5 0 0 1-.039-1.209Zm-2.714-2.613h1.625v5.551h-1.625Zm5.317 1.4a6 6 0 0 1 .052.806 7.7 7.7 0 0 1-.377 2.548 7.6 7.6 0 0 1-1.131 2.145 6.2 6.2 0 0 1-2.5 1.846 3.7 3.7 0 0 1 .78 1 8.8 8.8 0 0 0 2.2-1.664 6.9 6.9 0 0 0 1.677-3.211 7.9 7.9 0 0 0 1.662 3.047 7.8 7.8 0 0 0 2.275 1.768 4 4 0 0 1 .65-1.2 6.36 6.36 0 0 1-3.6-3.679 7.2 7.2 0 0 1-.495-2.505 4.6 4.6 0 0 1 .052-.9Zm12.935.949c.091-.585.117-.845.182-1.456h3.341a10 10 0 0 1 1.378.078v-1.239a10 10 0 0 1-1.378.078h-3.266c.026-.364.026-.429.026-.611a10 10 0 0 1 .1-1.339h-1.309a6.6 6.6 0 0 1 .052 1c0 .286 0 .52-.026.949h-.208a13 13 0 0 1-1.391-.065v1.218a11 11 0 0 1 1.378-.065h.156c-.312 3.354-1.274 5.835-2.977 7.644a3.5 3.5 0 0 1 .806.988 12.6 12.6 0 0 0 2.639-4.953 9.5 9.5 0 0 0 1.287 2.119 8.4 8.4 0 0 1-2.821 1.924 3.5 3.5 0 0 1 .702 1.013 10.7 10.7 0 0 0 2.86-2.1 11.6 11.6 0 0 0 2.9 2.145 4.3 4.3 0 0 1 .689-1.144 9.2 9.2 0 0 1-2.86-1.859 11.1 11.1 0 0 0 1.534-2.86c.26-.689.26-.715.338-.9l-.572-.611a6 6 0 0 1-.962.052Zm2.748 1.044a7.8 7.8 0 0 1-1.23 2.483 7.9 7.9 0 0 1-1.417-2.483Zm-7.9-2.08v2.639a8 8 0 0 1-1.742.468l.26 1.222a10.4 10.4 0 0 1 1.482-.546v3.016c0 .312-.078.377-.442.377a11 11 0 0 1-1.183-.078 4.2 4.2 0 0 1 .247 1.144c.4.026.6.039.845.039h.313a2.06 2.06 0 0 0 .936-.182.91.91 0 0 0 .429-.91v-3.809c.507-.182.767-.286 1.56-.611v-1.079c-.663.273-.884.351-1.56.572v-2.262h.416a6 6 0 0 1 .845.052v-1.144a5.5 5.5 0 0 1-.832.052h-.429v-1.157a9 9 0 0 1 .078-1.3h-1.3a10 10 0 0 1 .077 1.326v1.131h-.571a6 6 0 0 1-1.029-.078v1.183a8 8 0 0 1 1.027-.065ZM97.232 675.439a35 35 0 0 0-2.561-1.625 13.5 13.5 0 0 0 2.379-3.549 4.5 4.5 0 0 1 .351-.637l-1.131-.531a6 6 0 0 1-.377 1.014 12.8 12.8 0 0 1-2.2 3.172 31 31 0 0 0-3.159-1.443l-.624.923a21 21 0 0 1 2.954 1.285 10.5 10.5 0 0 1-2.86 1.69 4.4 4.4 0 0 1 .793.923 12.1 12.1 0 0 0 3.068-2.041 25 25 0 0 1 2.665 1.859Zm-4.628-3.874a10 10 0 0 0-1.339-2.275l-.936.481a8.3 8.3 0 0 1 1.3 2.314Zm2.236-.585a10 10 0 0 0-1.183-2.3l-.949.442a9.1 9.1 0 0 1 1.157 2.34Zm-5.46 7.631v-.741h8.528v.741h1.248a12 12 0 0 1-.078-1.638v-8.2a11 11 0 0 1 .078-1.576 13 13 0 0 1-1.534.065h-7.969a13 13 0 0 1-1.521-.065 14 14 0 0 1 .078 1.573v8.19a12 12 0 0 1-.078 1.651Zm0-10.3h8.528v8.5H89.38Zm16.7.481h-3.736a11 11 0 0 1-1.482-.078v1a12 12 0 0 1 1.482-.06h3.741v.6h-2.717a11 11 0 0 1-1.287-.057v.923a11 11 0 0 1 1.3-.052h2.7v.559h-2.96a9 9 0 0 1-1.326-.065v.962a9 9 0 0 1 1.326-.065h2.964v.585h-3.741a11 11 0 0 1-1.482-.078v1.053a12 12 0 0 1 1.482-.075h8.7a12 12 0 0 1 1.469.078v-1.053a10 10 0 0 1-1.469.078h-3.854v-.585h3.12a9 9 0 0 1 1.326.065v-.962a8.6 8.6 0 0 1-1.326.065h-3.12v-.559h2.678a13 13 0 0 1 1.376.052 9 9 0 0 1-.039-.988v-.481h.065a8 8 0 0 1 1.274.065v-.988a8 8 0 0 1-1.246.066h-.091v-.351a10 10 0 0 1 .037-1.119 14 14 0 0 1-1.43.052h-2.624a3 3 0 0 1 .091-.767h-1.274a4 4 0 0 1 .078.767h-2.6a10 10 0 0 1-1.378-.082v.988a11 11 0 0 1 1.261-.048h2.717Zm1.105 0v-.555h2.93v.56Zm0 .858h2.93v.6h-2.925Zm-4.727 7.622a9 9 0 0 1-.078 1.325h1.209v-.467h6.24v.467h1.209a7.7 7.7 0 0 1-.078-1.325v-1.586a9 9 0 0 1 .052-1.261 11 11 0 0 1-1.443.039h-5.725a12 12 0 0 1-1.443-.039 9 9 0 0 1 .052 1.261Zm1.131-1.975h6.24v.585h-6.24Zm0 1.365h6.24v.611h-6.24Zm15.355-8.906h-3.2c-.754 0-1.17-.013-1.612-.052a7 7 0 0 1 .052.923v.676c0 .286-.013.572-.026.728-.013.208-.013.208-.026.364h1.183v-1.598h8.71v1.573h1.2a5.7 5.7 0 0 1-.065-1v-.689a6 6 0 0 1 .052-.975c-.455.039-.845.052-1.69.052h-3.38v-.247a4.3 4.3 0 0 1 .078-.858h-1.356a4.5 4.5 0 0 1 .078.858Zm-1.237 3.107a9.6 9.6 0 0 1-.884 1.5c-.663.026-.819.026-1.183.026a6 6 0 0 1-.923-.039l.143 1.118a3 3 0 0 1 .442-.052c2.613-.091 5.109-.234 7.449-.416.26.273.416.442.845.936l.884-.741a24.6 24.6 0 0 0-2.613-2.327l-.871.533a8 8 0 0 1 .871.741c-1.014.078-1.014.078-3.8.2a10 10 0 0 0 .884-1.469h3.211a9.5 9.5 0 0 1 1.443.065v-1.128a13 13 0 0 1-1.469.052h-4.962a13 13 0 0 1-1.443-.052v1.118a10.4 10.4 0 0 1 1.547-.065Zm2.457 3.734v-.1a7 7 0 0 1 .065-.975h-1.313a7 7 0 0 1 .065.975v.1h-2.47a9 9 0 0 1-1.4-.065v1.157a10 10 0 0 1 1.391-.065h2.483v1.453h-3.501a10.3 10.3 0 0 1-1.625-.08v1.211a15 15 0 0 1 1.729-.078h8.156a15 15 0 0 1 1.75.078v-1.211a12 12 0 0 1-1.625.078h-3.7v-1.454h2.7a10 10 0 0 1 1.365.065v-1.157a9 9 0 0 1-1.34.068ZM188.745 680.195l-2.066-5.208-2.316 5.232-3.492-9.1h1.632l2.042 5.836 1.452-3.72-.84-2.112h1.38l2.244 5.664 1.87-5.664h1.5Zm10.858-1.068a4.6 4.6 0 0 1-1.058.528 4.2 4.2 0 0 1-1.486.256 4.6 4.6 0 0 1-2.37-.6 4.1 4.1 0 0 1-1.56-1.6 4.5 4.5 0 0 1-.546-2.2 4.9 4.9 0 0 1 .546-2.34 4.03 4.03 0 0 1 1.524-1.61 4.27 4.27 0 0 1 2.226-.582 4.8 4.8 0 0 1 1.422.2 5 5 0 0 1 1.158.516l-.552 1.316a3.4 3.4 0 0 0-1.98-.684 2.67 2.67 0 0 0-1.434.414 3.03 3.03 0 0 0-1.062 1.124 3.2 3.2 0 0 0-.4 1.566 3.5 3.5 0 0 0 .366 1.614 2.7 2.7 0 0 0 1.048 1.116 3 3 0 0 0 1.566.4 3.2 3.2 0 0 0 1.146-.19 2.8 2.8 0 0 0 .858-.492ZM588.269 497.206l-2.066-5.208-2.316 5.232-3.492-9.1h1.632l2.042 5.836 1.452-3.72-.84-2.112h1.38l2.244 5.664 1.87-5.664h1.5Zm10.858-1.068a4.6 4.6 0 0 1-1.058.528 4.2 4.2 0 0 1-1.486.256 4.6 4.6 0 0 1-2.37-.6 4.1 4.1 0 0 1-1.56-1.6 4.5 4.5 0 0 1-.546-2.2 4.9 4.9 0 0 1 .546-2.34 4.03 4.03 0 0 1 1.524-1.61 4.27 4.27 0 0 1 2.226-.582 4.8 4.8 0 0 1 1.422.2 5 5 0 0 1 1.158.516l-.552 1.316a3.4 3.4 0 0 0-1.98-.684 2.67 2.67 0 0 0-1.434.414 3.03 3.03 0 0 0-1.062 1.124 3.2 3.2 0 0 0-.4 1.566 3.5 3.5 0 0 0 .366 1.614 2.7 2.7 0 0 0 1.048 1.116 3 3 0 0 0 1.566.4 3.2 3.2 0 0 0 1.146-.19 2.8 2.8 0 0 0 .858-.492ZM307.527 592.323l-1.72-4.34-1.93 4.36-2.91-7.58h1.36l1.7 4.86 1.21-3.1-.7-1.76h1.15l1.87 4.72 1.556-4.72h1.25Zm9.05-.89a3.8 3.8 0 0 1-.885.44 3.5 3.5 0 0 1-1.235.21 3.84 3.84 0 0 1-1.975-.495 3.4 3.4 0 0 1-1.3-1.33 3.8 3.8 0 0 1-.455-1.835 4.1 4.1 0 0 1 .455-1.95 3.36 3.36 0 0 1 1.27-1.345 3.56 3.56 0 0 1 1.855-.485 4 4 0 0 1 1.185.17 4.2 4.2 0 0 1 .965.43l-.46 1.09a2.84 2.84 0 0 0-1.65-.57 2.2 2.2 0 0 0-1.195.345 2.5 2.5 0 0 0-.885.94 2.65 2.65 0 0 0-.33 1.3 2.9 2.9 0 0 0 .3 1.345 2.25 2.25 0 0 0 .87.93 2.5 2.5 0 0 0 1.3.335 2.7 2.7 0 0 0 .955-.16 2.4 2.4 0 0 0 .715-.41ZM371.02 559.694v.78h1.456a10 10 0 0 1-.065-1.391v-6.825c0-.546 0-.689.026-1.053-.442.026-.442.026-1.092.026h-5.941a9 9 0 0 1-1.742-.091v1.43a14 14 0 0 1 1.729-.065h5.629v5.915h-5.876a8.7 8.7 0 0 1-1.677-.091v1.43a12 12 0 0 1 1.651-.065Zm6.89-4.29a13 13 0 0 1-.065-1.313v-1.859h6.539a11.8 11.8 0 0 1-.468 2.444 6.63 6.63 0 0 1-2.639 3.731 8 8 0 0 1-2.665 1.261 4.5 4.5 0 0 1 .884 1.248 10.35 10.35 0 0 0 3.9-2.5c1.365-1.443 2.028-3.094 2.4-6.045a2.4 2.4 0 0 1 .221-.832l-.741-.689a3.7 3.7 0 0 1-1.326.13h-6.1c-.546 0-1.027-.026-1.417-.065.026.364.039.7.039 1.261v1.911a10.5 10.5 0 0 1-.042 1.317Zm10.634.819a19 19 0 0 1 2.015-.065h7.007a19 19 0 0 1 1.95.065v-1.508a13 13 0 0 1-1.937.078h-7.033a15 15 0 0 1-2-.091Zm17.225-3.731-2.353.377a11 11 0 0 1-1.547.143l.221 1.365a13 13 0 0 1 1.534-.312l2.366-.364.416 2.327-3.12.507a9 9 0 0 1-1.5.143l.221 1.352a10 10 0 0 1 1.443-.3l3.18-.506.439 2.444a10.5 10.5 0 0 1 .208 1.573l1.495-.26a8.7 8.7 0 0 1-.364-1.56l-.455-2.4 2.99-.468a10 10 0 0 1 1.487-.2l-.26-1.339a10 10 0 0 1-1.482.338l-2.958.468-.427-2.327 2.561-.4a10.5 10.5 0 0 1 1.466-.185l-.234-1.352a11 11 0 0 1-1.466.325l-2.561.4-.208-1.115a9 9 0 0 1-.169-1.318l-1.443.234a5.7 5.7 0 0 1 .325 1.313Zm9.516-.455a14.2 14.2 0 0 1 3.237 2.6l.936-1.157a17.8 17.8 0 0 0-3.276-2.483Zm.312 8.528a5.5 5.5 0 0 1 .819-.208 13.5 13.5 0 0 0 4.914-1.95 11.3 11.3 0 0 0 4.056-5.044 4.4 4.4 0 0 1-1.131-1.066 11.4 11.4 0 0 1-1.365 2.626 8.93 8.93 0 0 1-3.874 3.159 11.8 11.8 0 0 1-3.822.975Zm20.241-10.387a9.6 9.6 0 0 1 1.352 1.989l.806-.442a8.7 8.7 0 0 0-1.352-1.95Zm1.547-.741a10 10 0 0 1 1.326 1.95l.793-.455a8 8 0 0 0-1.339-1.9Zm-6.058.39a5.4 5.4 0 0 1-.728 1.794 10 10 0 0 1-3.328 3.692 2.86 2.86 0 0 1 1.053.936 13.2 13.2 0 0 0 3.055-3.328l4.108-.065a11.35 11.35 0 0 1-2.21 4.134 11 11 0 0 1-4.5 3.107 3.3 3.3 0 0 1 .91 1.118 12.75 12.75 0 0 0 4.589-3.276 14.1 14.1 0 0 0 2.5-4.511 1.9 1.9 0 0 1 .3-.715l-1.095-1.157a2.4 2.4 0 0 1-.832.1l-2.587.039a4 4 0 0 0-.559.039 11 11 0 0 0 .533-1.086 2.2 2.2 0 0 1 .273-.494Zm-43.589 24.815a31 31 0 0 0-4.329-3.757 15.6 15.6 0 0 0 2.08-3.588 2.1 2.1 0 0 1 .39-.663l-.728-.767a2.35 2.35 0 0 1-1.027.13l-4.329.065h-.351a10 10 0 0 1-1.339-.078l.039 1.417a12 12 0 0 1 1.664-.1l3.77-.065c.169 0 .247 0 .4-.013a1 1 0 0 1-.052.117 1 1 0 0 0-.078.2 13.34 13.34 0 0 1-4.485 5.525 10.7 10.7 0 0 1-2.613 1.443 3.9 3.9 0 0 1 .884 1.209 15.15 15.15 0 0 0 4.966-3.809 25.6 25.6 0 0 1 4.056 3.939Zm1.781-1.911.4-.52a82 82 0 0 0 2.34-2.886c.546-.741.6-.78.832-.78s.247.013 1.092.923a60 60 0 0 0 4.277 4.29l1.248 1.131.7-1.495a7 7 0 0 1-1.183-.9 43.5 43.5 0 0 1-4.295-4.183c-.975-1.079-1.235-1.274-1.833-1.274-.65 0-1.027.273-1.781 1.261-.637.845-1.9 2.34-2.275 2.717a2.5 2.5 0 0 1-.455.364Zm8.619-6.916a1.5 1.5 0 0 0-1.495 1.508 1.5 1.5 0 0 0 1.495 1.508 1.51 1.51 0 0 0 1.508-1.508 1.51 1.51 0 0 0-1.508-1.508m0 .624a.885.885 0 0 1 .884.884.893.893 0 0 1-.884.884.88.88 0 0 1-.871-.884.88.88 0 0 1 .871-.884m3.471 4.784a19 19 0 0 1 2.015-.065h7.006a19 19 0 0 1 1.95.065v-1.508a13 13 0 0 1-1.937.078h-7.032a15 15 0 0 1-2-.091Zm22.659 3.419a31 31 0 0 0-4.329-3.757 15.6 15.6 0 0 0 2.08-3.588 2.1 2.1 0 0 1 .39-.663l-.728-.767a2.35 2.35 0 0 1-1.027.13l-4.324.065h-.351a10 10 0 0 1-1.349-.078l.039 1.417a12 12 0 0 1 1.664-.1l3.77-.065c.169 0 .247 0 .4-.013a1 1 0 0 1-.052.117 1 1 0 0 0-.078.2 13.34 13.34 0 0 1-4.485 5.525 10.7 10.7 0 0 1-2.613 1.443 3.9 3.9 0 0 1 .884 1.209 15.15 15.15 0 0 0 4.971-3.818 25.6 25.6 0 0 1 4.056 3.939ZM326.491 552.57a19 19 0 0 0 .793-2.054c.13-.377.156-.455.247-.715l-1.2-.4a8 8 0 0 1-.507 1.859 10.2 10.2 0 0 1-2.067 3.484 5.7 5.7 0 0 1 .572 1.2 7.4 7.4 0 0 0 1.053-1.547c-.039.689-.039 1-.039 1.495v4.062a13 13 0 0 1-.078 1.534h1.288a14 14 0 0 1-.065-1.521Zm5.538 2.652v-1.326h1.092a6 6 0 0 1 .91.052v-1.118a4.6 4.6 0 0 1-.923.065h-1.079v-.338a5 5 0 0 1 .065-.988h-1.157a5 5 0 0 1 .065.988v.338h-1.014a4.2 4.2 0 0 1-.884-.065v1.118a6 6 0 0 1 .884-.052h1.014v1.326h-.364c-.468 0-.715-.013-1.04-.039a7 7 0 0 1 .039.923v1.807a7 7 0 0 1-.039.936c.325-.026.6-.039 1.04-.039h1.781c.351 0 .715.013 1.053.039a5.3 5.3 0 0 1-.039-.962v-1.755a5.5 5.5 0 0 1 .039-.949c-.338.026-.637.039-1.053.039Zm-1.417.975h1.841v1.638h-1.841Zm-2.977 3.614a12 12 0 0 1-.082 1.573h1.157v-.6h5.707v.6h1.148a13 13 0 0 1-.065-1.651v-8.073a14 14 0 0 1 .053-1.534 13 13 0 0 1-1.443.052h-5.227a13 13 0 0 1-1.3-.052 14 14 0 0 1 .052 1.43Zm1.079-8.58h5.707v8.5h-5.707Zm13.639-.624h-3.2c-.754 0-1.17-.013-1.612-.052a7 7 0 0 1 .052.923v.676c0 .286-.013.572-.026.728l-.026.366h1.183v-1.6h8.71v1.573h1.2a5.7 5.7 0 0 1-.065-1v-.689a6 6 0 0 1 .052-.975c-.455.039-.845.052-1.69.052h-3.384v-.247a4.3 4.3 0 0 1 .078-.858h-1.352a4.5 4.5 0 0 1 .078.858Zm-1.237 3.107a9.6 9.6 0 0 1-.884 1.5c-.663.026-.819.026-1.183.026a6 6 0 0 1-.923-.039l.143 1.118a3 3 0 0 1 .442-.052c2.613-.096 5.109-.239 7.449-.419.26.273.416.442.845.936l.884-.741a24.6 24.6 0 0 0-2.613-2.329l-.871.534a8 8 0 0 1 .871.741c-1.014.078-1.014.078-3.8.2a10 10 0 0 0 .884-1.469h3.215a9.5 9.5 0 0 1 1.443.065v-1.124a13 13 0 0 1-1.465.052h-4.97a13 13 0 0 1-1.443-.052v1.118a10.4 10.4 0 0 1 1.547-.065Zm2.457 3.734v-.1a7 7 0 0 1 .065-.975h-1.313a7 7 0 0 1 .065.975v.1h-2.47a9 9 0 0 1-1.4-.065v1.157a10 10 0 0 1 1.391-.065h2.479v1.453h-3.497a10.3 10.3 0 0 1-1.625-.08v1.211a15 15 0 0 1 1.729-.078h8.156a15 15 0 0 1 1.75.078v-1.211a12 12 0 0 1-1.625.078h-3.705v-1.454h2.7a10 10 0 0 1 1.365.065v-1.157a9 9 0 0 1-1.335.068Zm-14.911 9.277.491-.277a8.7 8.7 0 0 0-1.352-1.95l-.806.4a9 9 0 0 1 1.134 1.593h-6.8a10 10 0 0 1-1.755-.1v1.457a11.6 11.6 0 0 1 1.73-.1h6.2a9.35 9.35 0 0 1-4 5.876 10.5 10.5 0 0 1-2.886 1.352 3.8 3.8 0 0 1 .935 1.278 12.6 12.6 0 0 0 4.134-2.548 11.3 11.3 0 0 0 3.166-5.473 2.4 2.4 0 0 1 .312-.9Zm.1-2.236a10 10 0 0 1 1.326 1.95l.793-.455a8 8 0 0 0-1.339-1.9Zm2.561 6.734a19 19 0 0 1 2.015-.065h7.015a19 19 0 0 1 1.95.065v-1.508a13 13 0 0 1-1.937.078h-7.037a15 15 0 0 1-2-.091Zm22.659 3.419a31 31 0 0 0-4.329-3.757 15.6 15.6 0 0 0 2.08-3.588 2.1 2.1 0 0 1 .39-.663l-.728-.767a2.35 2.35 0 0 1-1.027.13l-4.325.065h-.351a10 10 0 0 1-1.339-.078l.039 1.417a12 12 0 0 1 1.664-.1l3.77-.065c.169 0 .247 0 .4-.013a1 1 0 0 1-.052.117 1 1 0 0 0-.078.2 13.34 13.34 0 0 1-4.485 5.525 10.7 10.7 0 0 1-2.613 1.443 3.9 3.9 0 0 1 .884 1.209 15.15 15.15 0 0 0 4.971-3.818 25.6 25.6 0 0 1 4.056 3.939ZM282.295 386.481a10.6 10.6 0 0 1-2.444 2.444 18.5 18.5 0 0 1-6.786 3.367 4.5 4.5 0 0 1 .728 1.248 20.2 20.2 0 0 0 4.781-2.171v4.377a11 11 0 0 1-.075 1.72h1.547a13 13 0 0 1-.078-1.72v-5.235a21 21 0 0 0 2.99-2.587 7 7 0 0 1 .585-.559Zm3.328 7.774.4-.52a72 72 0 0 0 2.34-2.873c.546-.741.6-.793.832-.793s.247.013 1.092.936c1.807 1.95 3.042 3.185 4.277 4.29l1.251 1.131.7-1.5a7 7 0 0 1-1.183-.9 45 45 0 0 1-4.301-4.18c-.962-1.09-1.235-1.272-1.833-1.272-.65 0-1.027.26-1.781 1.261-.637.845-1.911 2.353-2.275 2.717a2.5 2.5 0 0 1-.455.364Zm6.825-6.084a9.6 9.6 0 0 1 1.352 1.989l.806-.442a8.7 8.7 0 0 0-1.352-1.95Zm1.547-.741a10 10 0 0 1 1.326 1.95l.793-.455a8 8 0 0 0-1.34-1.898Zm4.849 1.1a14.2 14.2 0 0 1 3.237 2.6l.936-1.157a17.8 17.8 0 0 0-3.276-2.478Zm.312 8.533a5.5 5.5 0 0 1 .818-.208 13.5 13.5 0 0 0 4.914-1.95 11.3 11.3 0 0 0 4.056-5.044 4.4 4.4 0 0 1-1.13-1.066 11.4 11.4 0 0 1-1.365 2.626 8.93 8.93 0 0 1-3.875 3.159 11.8 11.8 0 0 1-3.822.975Zm16.068.39a15 15 0 0 1-.078-1.664v-3.068c0-.13-.013-.533-.013-.65a4 4 0 0 1-.026-.507 1.6 1.6 0 0 0 .416.221c.7.3 2.119 1 3.107 1.534a16 16 0 0 1 1.612.988l.754-1.287a35 35 0 0 0-5.85-2.743v-2.2a12 12 0 0 1 .078-1.586h-1.534a8.3 8.3 0 0 1 .078 1.56v7.735a12 12 0 0 1-.078 1.667Zm-33.982 13.687a31 31 0 0 0-4.329-3.757 15.6 15.6 0 0 0 2.08-3.588 2.1 2.1 0 0 1 .39-.663l-.728-.767a2.35 2.35 0 0 1-1.027.13l-4.329.065h-.351a10 10 0 0 1-1.339-.078l.039 1.417a12 12 0 0 1 1.664-.1l3.77-.065c.169 0 .247 0 .4-.013a1 1 0 0 1-.052.117 1 1 0 0 0-.078.2 13.34 13.34 0 0 1-4.478 5.516 10.7 10.7 0 0 1-2.613 1.443 3.9 3.9 0 0 1 .884 1.209 15.15 15.15 0 0 0 4.966-3.809 25.6 25.6 0 0 1 4.056 3.939Zm1.781-1.911.4-.52a82 82 0 0 0 2.34-2.886c.546-.741.6-.78.832-.78s.247.013 1.092.923a60 60 0 0 0 4.277 4.29l1.248 1.131.7-1.495a7 7 0 0 1-1.183-.9 43.5 43.5 0 0 1-4.3-4.186c-.975-1.079-1.235-1.274-1.833-1.274-.65 0-1.027.273-1.781 1.261-.637.845-1.9 2.34-2.275 2.717a2.5 2.5 0 0 1-.455.364Zm8.619-6.916a1.5 1.5 0 0 0-1.495 1.508 1.5 1.5 0 0 0 1.495 1.508 1.51 1.51 0 0 0 1.508-1.508 1.51 1.51 0 0 0-1.508-1.508m0 .624a.885.885 0 0 1 .884.884.893.893 0 0 1-.884.884.88.88 0 0 1-.868-.884.88.88 0 0 1 .868-.884m3.471 4.784a19 19 0 0 1 2.015-.065h7.007a19 19 0 0 1 1.95.065v-1.508a13 13 0 0 1-1.937.078h-7.033a15 15 0 0 1-2-.091Zm22.661 3.419a31 31 0 0 0-4.329-3.757 15.6 15.6 0 0 0 2.08-3.588 2.1 2.1 0 0 1 .39-.663l-.728-.767a2.35 2.35 0 0 1-1.027.13l-4.329.065h-.357a10 10 0 0 1-1.339-.078l.039 1.417a12 12 0 0 1 1.664-.1l3.77-.065c.169 0 .247 0 .4-.013a1 1 0 0 1-.052.117 1 1 0 0 0-.078.2 13.34 13.34 0 0 1-4.485 5.525 10.7 10.7 0 0 1-2.613 1.443 3.9 3.9 0 0 1 .894 1.2 15.15 15.15 0 0 0 4.966-3.809 25.6 25.6 0 0 1 4.056 3.939Zm7.709-.65v1.456h-5.98l.468-.468q1.287-1.287 2.021-2.1a10 10 0 0 0 1.222-1.638 3.1 3.1 0 0 0 .488-1.567 1.36 1.36 0 0 0-.428-1.078 1.56 1.56 0 0 0-1.066-.377 1.41 1.41 0 0 0-1.066.39 1.23 1.23 0 0 0-.377.871 1.87 1.87 0 0 0 .507 1.339l-.923.845a1.86 1.86 0 0 1-.761-.929 3.1 3.1 0 0 1-.292-1.215 2.6 2.6 0 0 1 .378-1.353 2.73 2.73 0 0 1 1.1-1.02 3.56 3.56 0 0 1 1.7-.384 2.8 2.8 0 0 1 1.462.384 2.7 2.7 0 0 1 .994 1.02 2.8 2.8 0 0 1 .344 1.38 3.5 3.5 0 0 1-.338 1.469 7.3 7.3 0 0 1-.812 1.352q-.475.624-1.332 1.625ZM344.657 658.704a10.6 10.6 0 0 1-2.444 2.444 18.5 18.5 0 0 1-6.786 3.367 4.5 4.5 0 0 1 .728 1.248 20.2 20.2 0 0 0 4.781-2.171v4.377a11 11 0 0 1-.075 1.72h1.547a13 13 0 0 1-.078-1.72v-5.235a21 21 0 0 0 2.99-2.587 7 7 0 0 1 .585-.559Zm3.328 7.774.4-.52a72 72 0 0 0 2.34-2.873c.546-.741.6-.793.832-.793s.247.013 1.092.936c1.807 1.95 3.042 3.185 4.277 4.29l1.251 1.131.7-1.5a7 7 0 0 1-1.183-.9 45 45 0 0 1-4.301-4.18c-.962-1.09-1.235-1.272-1.833-1.272-.65 0-1.027.26-1.781 1.261-.637.845-1.911 2.353-2.275 2.717a2.5 2.5 0 0 1-.455.364Zm6.825-6.084a9.6 9.6 0 0 1 1.352 1.989l.806-.442a8.7 8.7 0 0 0-1.352-1.95Zm1.547-.741a10 10 0 0 1 1.326 1.95l.793-.455a8 8 0 0 0-1.34-1.898Zm4.849 1.1a14.2 14.2 0 0 1 3.237 2.6l.936-1.157a17.8 17.8 0 0 0-3.276-2.478Zm.312 8.533a5.5 5.5 0 0 1 .818-.208 13.5 13.5 0 0 0 4.914-1.95 11.3 11.3 0 0 0 4.056-5.044 4.4 4.4 0 0 1-1.13-1.066 11.4 11.4 0 0 1-1.365 2.626 8.93 8.93 0 0 1-3.875 3.159 11.8 11.8 0 0 1-3.822.975Zm16.068.39a15 15 0 0 1-.078-1.664v-3.068c0-.13-.013-.533-.013-.65a4 4 0 0 1-.026-.507 1.6 1.6 0 0 0 .416.221c.7.3 2.119 1 3.107 1.534a16 16 0 0 1 1.612.988l.754-1.287a35 35 0 0 0-5.85-2.743v-2.2a12 12 0 0 1 .078-1.586h-1.534a8.3 8.3 0 0 1 .078 1.56v7.735a12 12 0 0 1-.078 1.667Zm-32.52 13.687a31 31 0 0 0-4.33-3.757 15.6 15.6 0 0 0 2.08-3.588 2.1 2.1 0 0 1 .39-.663l-.728-.767a2.35 2.35 0 0 1-1.027.13l-4.329.065h-.351a10 10 0 0 1-1.335-.078l.039 1.417a12 12 0 0 1 1.664-.1l3.77-.065c.169 0 .247 0 .4-.013a1 1 0 0 1-.052.117 1 1 0 0 0-.078.2 13.34 13.34 0 0 1-4.485 5.525 10.7 10.7 0 0 1-2.613 1.443 3.9 3.9 0 0 1 .884 1.209 15.15 15.15 0 0 0 4.971-3.818 25.6 25.6 0 0 1 4.056 3.939Zm1.781-1.911.4-.52a82 82 0 0 0 2.34-2.886c.546-.741.6-.78.832-.78s.247.013 1.092.923a60 60 0 0 0 4.277 4.29l1.248 1.131.7-1.495a7 7 0 0 1-1.183-.9 43.5 43.5 0 0 1-4.3-4.186c-.975-1.079-1.235-1.274-1.833-1.274-.65 0-1.027.273-1.781 1.261-.637.845-1.9 2.34-2.275 2.717a2.5 2.5 0 0 1-.455.364Zm8.619-6.916a1.5 1.5 0 0 0-1.494 1.508 1.5 1.5 0 0 0 1.495 1.508 1.51 1.51 0 0 0 1.508-1.508 1.51 1.51 0 0 0-1.508-1.508Zm0 .624a.885.885 0 0 1 .884.884.893.893 0 0 1-.884.884.88.88 0 0 1-.871-.884.88.88 0 0 1 .872-.884Zm3.47 4.784a19 19 0 0 1 2.017-.065h7.007a19 19 0 0 1 1.95.065v-1.508a13 13 0 0 1-1.937.078h-7.037a15 15 0 0 1-2-.091Zm22.66 3.419a31 31 0 0 0-4.329-3.757 15.6 15.6 0 0 0 2.08-3.588 2.1 2.1 0 0 1 .39-.663l-.728-.767a2.35 2.35 0 0 1-1.027.13l-4.329.065h-.351a10 10 0 0 1-1.339-.078l.039 1.417a12 12 0 0 1 1.664-.1l3.77-.065c.169 0 .247 0 .4-.013a1 1 0 0 1-.052.117 1 1 0 0 0-.078.2 13.34 13.34 0 0 1-4.485 5.525 10.7 10.7 0 0 1-2.613 1.443 3.9 3.9 0 0 1 .884 1.209 15.15 15.15 0 0 0 4.966-3.809 25.6 25.6 0 0 1 4.056 3.939Zm4.082-7.774v8.58h-1.52v-7.124h-.858v-1.456Z"/></g><g fill="#0d4b08" clip-path="url(#c)"><path d="M3.831 37.559h327.708a4 4 0 0 1 4 4v225.112a4 4 0 0 1-4 4H3.831a4 4 0 0 1-4-4V41.559a4 4 0 0 1 4-4m327.708 231.112a2 2 0 0 0 2-2V41.559a2 2 0 0 0-2-2H3.831a2 2 0 0 0-2 2v225.112a2 2 0 0 0 2 2Z"/><path d="M169.181 437.012a1 1 0 0 1-1-1V323.944h-8.6a1.493 1.493 0 0 0-1.492 1.492v8.118a3.5 3.5 0 0 1-3.492 3.492H89.404a3.5 3.5 0 0 1-3.492-3.492v-63.881a1 1 0 0 1 2 0v63.88a1.493 1.493 0 0 0 1.492 1.492h65.191a1.493 1.493 0 0 0 1.492-1.492v-8.118a3.5 3.5 0 0 1 3.492-3.492h10.6v114.069a1 1 0 0 1-.998 1M322.422 529.874a1 1 0 0 1-1-1v-87.961a3.5 3.5 0 0 1 3.492-3.492h8.729a1.493 1.493 0 0 0 1.492-1.492v-69.116a1.493 1.493 0 0 0-1.492-1.492h-8.733a3.5 3.5 0 0 1-3.492-3.492v-39.885h36.547a1.493 1.493 0 0 0 1.492-1.492V49.85a1.493 1.493 0 0 0-1.492-1.492h-23.43a1 1 0 0 1 0-2h23.43a3.5 3.5 0 0 1 3.492 3.492v270.6a3.5 3.5 0 0 1-3.492 3.492h-34.543v37.885a1.493 1.493 0 0 0 1.492 1.492h8.729a3.5 3.5 0 0 1 3.492 3.492v69.117a3.5 3.5 0 0 1-3.492 3.492h-8.733a1.493 1.493 0 0 0-1.492 1.492v87.961a1 1 0 0 1-.996 1.001M133.211 756.159a85.9 85.9 0 0 1-34.023-7 87.7 87.7 0 0 1-14.861-8.185 89.2 89.2 0 0 1-31.908-39.237 88.155 88.155 0 0 1 53.656-117.403c.121-.04 3-.985 7.711-2.068a124 124 0 0 1 18.718-2.833 3.495 3.495 0 0 1 3.735 3.486v9.048a1.493 1.493 0 0 0 1.492 1.492h30.447v-64.585a1 1 0 0 1 2 0v216.064a3.48 3.48 0 0 1-2.1 3.2c-12.537 5.398-23.943 8.021-34.867 8.021m-.457-174.734h-.107a119.5 119.5 0 0 0-25.941 4.8 86.02 86.02 0 0 0-52.441 114.746 87.24 87.24 0 0 0 31.191 38.356 85.7 85.7 0 0 0 14.522 8 83.9 83.9 0 0 0 33.233 6.834c10.647 0 21.795-2.569 34.081-7.854a1.48 1.48 0 0 0 .888-1.366V595.458h-30.447a3.5 3.5 0 0 1-3.492-3.492v-9.048a1.5 1.5 0 0 0-1.488-1.495Z"/><path d="M168.181 634.68h44.34v81.39h-44.34Zm42.34 2h-40.34v77.39h40.34Z"/><path d="M264.553 769.589a3.46 3.46 0 0 1-2.512-1.066l-51.24-53.08a1 1 0 0 1-.281-.695V635.68a1 1 0 0 1 1-1h106.419a1 1 0 0 1 1 1v80a3.52 3.52 0 0 1-1.034 2.481l-50.914 50.432-.009.009a3.48 3.48 0 0 1-2.429.987m-52.032-55.245 50.959 52.789a1.493 1.493 0 0 0 2.106.04l50.909-50.427a1.48 1.48 0 0 0 .442-1.06v-79H212.521ZM449.355 658.986l52.879 52.879-53.91 53.91a3.49 3.49 0 0 1-4.937 0l-47.942-47.942a3.5 3.5 0 0 1 0-4.938Zm50.05 52.879-50.05-50.05-52.5 52.495a1.494 1.494 0 0 0 0 2.11l47.942 47.942a1.49 1.49 0 0 0 2.109 0Z"/><path d="m449.355 658.986 52.879 52.879-53.91 53.91a3.49 3.49 0 0 1-4.937 0l-47.942-47.942a3.5 3.5 0 0 1 0-4.938Zm50.05 52.879-50.05-50.05-52.5 52.495a1.494 1.494 0 0 0 0 2.11l47.942 47.942a1.49 1.49 0 0 0 2.109 0Z"/><path d="M550.548 768.004a3.47 3.47 0 0 1-2.469-1.023l-51.848-51.848 53.909-53.908a3.49 3.49 0 0 1 4.938 0l49.377 49.378a3.49 3.49 0 0 1 0 4.938l-51.44 51.44a3.47 3.47 0 0 1-2.467 1.023m-51.493-52.871 50.434 50.434a1.49 1.49 0 0 0 2.11 0l51.44-51.44a1.49 1.49 0 0 0 0-2.11l-49.378-49.378a1.49 1.49 0 0 0-2.11 0ZM632.4 578.673l.707.707 52.107 52.107a3.49 3.49 0 0 1 0 4.937l-50.037 50.038a3.49 3.49 0 0 1-4.938 0l-50.344-50.344a3.5 3.5 0 0 1 0-4.938Zm.306 106.813a1.48 1.48 0 0 0 1.055-.437L683.8 635.01a1.49 1.49 0 0 0 0-2.109l-51.4-51.4-51.093 51.093a1.494 1.494 0 0 0 0 2.11l50.344 50.344a1.48 1.48 0 0 0 1.055.437Z"/><path d="m630.036 583.623-52.189-52.189.707-.707 55.868-55.868 49.719 49.719a3.5 3.5 0 0 1 0 4.938Zm-49.36-52.189 49.36 49.36 52.692-52.693a1.494 1.494 0 0 0 0-2.11l-48.3-48.3Z"/><path d="m579.262 532.848-27.066-27.065a3.5 3.5 0 0 1 0-4.938l51.637-51.637a3.49 3.49 0 0 1 4.938 0l27.067 27.065-.707.707Zm27.04-82.664a1.48 1.48 0 0 0-1.055.437l-51.637 51.637a1.494 1.494 0 0 0 0 2.11l25.652 25.651 53.747-53.747-25.652-25.651a1.48 1.48 0 0 0-1.055-.437M597.294 705.734a1 1 0 0 1-.707-.293 1 1 0 0 1 0-1.414l26.315-26.315a1 1 0 0 1 1.414 0 1 1 0 0 1 0 1.414l-26.315 26.315a1 1 0 0 1-.707.293"/><path d="M527.689 530.241H322.421a1 1 0 0 1 0-2h204.436l24.473-24.63a1 1 0 0 1 1.419 1.41ZM168.181 321.944h68.755v82.708h-68.755Zm66.755 2h-64.755v78.708h64.755ZM262.901 365.703v-43.76h60.521v23.86Zm2-41.758v39l56.521-18.58v-20.422ZM323.422 478.864h-57.029a3.5 3.5 0 0 1-3.492-3.492v-38.343l60.521 20.395Zm-58.521-39.05v35.559a1.493 1.493 0 0 0 1.492 1.492h55.029v-18Z"/><path d="M264.901 438.421h-2v-74.1h2ZM168.181 402.652h68.755v34.361h-68.755Zm66.755 2h-64.755v30.361h64.755ZM233.445 581.277h-65.266V475.724h68.755v102.061a3.5 3.5 0 0 1-3.489 3.492m-63.264-2h63.264a1.493 1.493 0 0 0 1.492-1.492V477.724h-64.758Z"/><path d="M168.181 435.012h68.755v42.712h-68.755Zm66.755 2h-64.755v38.712h64.755ZM317.671 528.241h40.849v71.984h-40.849Zm38.849 2h-36.849v67.984h36.849Z"/><path d="M356.52 528.241h92.333v71.984H356.52Zm90.333 2H358.52v67.984h88.333ZM449.355 661.399a1 1 0 0 1-.719-.305l-26.189-27.113h-5.706a1.5 1.5 0 0 0-1.059.441l-8.609 8.683a1 1 0 1 1-1.42-1.408l8.608-8.683a3.51 3.51 0 0 1 2.479-1.033h6.555l26.779 27.723a1 1 0 0 1-.719 1.695M609.772 692.767a1 1 0 0 1-.711-.3l-33.113-33.521a1 1 0 0 1 .011-1.411 1 1 0 0 1 1.411.011l33.114 33.518a1 1 0 0 1-.711 1.7Z"/><path d="m565.321 672.978-1.4-1.42 12.6-12.501 1.406 1.42ZM568.483 676.14l-1.4-1.42 12.6-12.501 1.406 1.42ZM571.646 679.302l-1.4-1.42 12.6-12.501 1.406 1.42ZM574.808 682.464l-1.4-1.42 12.6-12.501 1.406 1.42ZM577.97 685.627l-1.4-1.42 12.6-12.501 1.406 1.42ZM581.133 688.789l-1.4-1.42 12.6-12.501 1.406 1.42ZM584.295 691.951l-1.4-1.42 12.6-12.501 1.406 1.42ZM578.651 659.647l-1.4-1.42 12.6-12.501 1.406 1.42ZM581.814 662.81l-1.4-1.42 12.6-12.501 1.406 1.42ZM584.976 665.972l-1.4-1.42 12.6-12.501 1.406 1.42ZM588.138 669.134l-1.4-1.42 12.6-12.501 1.406 1.42ZM591.3 672.297l-1.4-1.42 12.6-12.501 1.406 1.42ZM594.463 675.459l-1.4-1.42 12.6-12.501 1.406 1.42ZM597.625 678.621l-1.4-1.42 12.6-12.501 1.406 1.42ZM316.654 254.024H44.929V54.253h271.725a3.5 3.5 0 0 1 3.492 3.492v192.787a3.5 3.5 0 0 1-3.492 3.492m-269.725-2h269.725a1.493 1.493 0 0 0 1.492-1.492V57.745a1.493 1.493 0 0 0-1.492-1.492H46.929ZM19.208 54.503h11.911a3.5 3.5 0 0 1 3.492 3.492v48.091a3.5 3.5 0 0 1-3.492 3.489H10.928a3.5 3.5 0 0 1-3.492-3.492V85.795l6.815-.12a1.5 1.5 0 0 0 1.465-1.492V57.995a3.5 3.5 0 0 1 3.492-3.492m11.911 53.072a1.493 1.493 0 0 0 1.492-1.492V57.995a1.493 1.493 0 0 0-1.492-1.492H19.208a1.493 1.493 0 0 0-1.492 1.492v26.189a3.49 3.49 0 0 1-3.429 3.491l-4.851.085v18.326a1.493 1.493 0 0 0 1.492 1.492ZM39.9 109.1a1 1 0 0 1-1-1V55.32a1 1 0 0 1 1-1 1 1 0 0 1 1 1v52.78a1 1 0 0 1-1 1M39.9 255.233a1 1 0 0 1-1-1v-53.01a1 1 0 0 1 1-1 1 1 0 0 1 1 1v53.01a1 1 0 0 1-1 1"/><path d="M8.436 90.227a1 1 0 0 1-1-1v-33.9a1 1 0 0 1 1-1 1 1 0 0 1 1 1v33.9a1 1 0 0 1-1 1M39.9 58.818h-6.29v-2h6.29ZM39.9 63.318h-6.29v-2h6.29ZM39.9 67.818h-6.29v-2h6.29ZM39.9 72.317h-6.29v-2h6.29ZM39.9 76.817h-6.29v-2h6.29ZM39.9 81.317h-6.29v-2h6.29ZM39.9 228.401h-6.29v-2h6.29ZM39.9 232.901h-6.29v-2h6.29ZM39.9 237.401h-6.29v-2h6.29ZM39.9 241.9h-6.29v-2h6.29ZM39.9 246.4h-6.29v-2h6.29ZM39.9 250.9h-6.29v-2h6.29Z"/><path d="M16.716 58.818H9.129v-2h7.587ZM16.716 63.318H9.129v-2h7.587ZM16.716 67.818H9.129v-2h7.587ZM16.716 72.317H9.129v-2h7.587ZM16.716 76.817H9.129v-2h7.587ZM16.716 81.317H9.129v-2h7.587ZM31.552 258.482H-.169V199.39h31.721a3.5 3.5 0 0 1 3.492 3.492v52.109a3.5 3.5 0 0 1-3.492 3.491m-29.721-2h29.721a1.493 1.493 0 0 0 1.492-1.492v-52.108a1.493 1.493 0 0 0-1.492-1.492H1.831ZM15.355 268.673H34.61v5.377a3.5 3.5 0 0 1-3.492 3.492H18.847a3.5 3.5 0 0 1-3.492-3.492Zm17.255 2H17.355v3.377a1.493 1.493 0 0 0 1.492 1.492h12.271a1.493 1.493 0 0 0 1.492-1.492ZM263.497 323.944h-27.561a1 1 0 0 1-1-1 1 1 0 0 1 1-1h27.561a1 1 0 0 1 1 1 1 1 0 0 1-1 1M47.025 55.503h-2V38.559h2ZM47.025 269.674h-2v-16.4h2ZM300.712 492.023h-2v-13.782h2ZM291.685 492.023h-2v-13.782h2ZM296.199 492.023h-2v-13.782h2ZM287.172 492.023h-2v-13.782h2ZM282.659 492.067h-2v-13.782h2ZM300.712 528.421h-2v-13.782h2ZM291.685 528.421h-2v-13.782h2ZM296.199 528.421h-2v-13.782h2ZM287.172 528.421h-2v-13.782h2Z"/><path d="M322.421 529.874h-40.762a1 1 0 0 1-1-1v-14.195a1 1 0 0 1 2 0v13.191h39.762a1 1 0 1 1 0 2ZM322.422 513.358h-18.694v-2h18.694ZM322.422 504.331h-18.694v-2h18.694ZM322.422 508.845h-18.694v-2h18.694ZM322.422 499.818h-18.694v-2h18.694ZM322.363 495.305h-18.694v-2h18.694Z"/><path d="M282.659 514.154h-2v-22.131h2Z"/><path d="M303.102 515.639h-26.507a1 1 0 0 1 0-2h25.506v-20.617h-25.506a1 1 0 0 1 0-2h26.506a1 1 0 0 1 1 1v22.616a1 1 0 0 1-.999 1.001M282.531 527.873h36.14a1 1 0 0 1 1 1v30.915a1 1 0 0 1-1 1h-36.14a1 1 0 0 1-1-1v-30.915a1 1 0 0 1 1-1m35.14 2h-34.14v28.915h34.14Z"/><path d="M318.671 600.225h-19.747a1 1 0 0 1-.732-.319l-15.623-16.808a3.51 3.51 0 0 1-1.038-2.485v-20.824a1 1 0 0 1 1-1h36.14a1 1 0 0 1 1 1v39.436a1 1 0 0 1-1 1m-19.311-2h18.311v-37.436h-34.14v19.824a1.5 1.5 0 0 0 .452 1.071l.035.036Z"/><path d="M301.687 575.231h16.984a1 1 0 0 1 1 1v22.994a1 1 0 0 1-1 1h-19.476a1 1 0 0 1-1-1V578.72a3.5 3.5 0 0 1 3.492-3.489m15.984 2h-15.984a1.493 1.493 0 0 0-1.492 1.492v19.5h17.476ZM491.765 637.58a63.5 63.5 0 0 1-20.013-3.216 3.5 3.5 0 0 1-1.362-.837l-23.247-22.373a1 1 0 0 1-.307-.721v-11.768a1 1 0 0 1 2 0v11.343l22.945 22.082.011.01a1.5 1.5 0 0 0 .589.365 61.5 61.5 0 0 0 19.385 3.115h.475a60.7 60.7 0 0 0 23.507-4.9 62 62 0 0 0 10.307-5.624 62.5 62.5 0 0 0 16.493-16.38 62 62 0 0 0 5.694-10.267 60.6 60.6 0 0 0 5.061-23.472 61.5 61.5 0 0 0-2.918-19.7 1.54 1.54 0 0 0-.35-.585l-23.487-24.722a1 1 0 1 1 1.45-1.378l23.487 24.722a3.55 3.55 0 0 1 .8 1.351 63.5 63.5 0 0 1 3.014 20.336 62.6 62.6 0 0 1-5.227 24.242 64 64 0 0 1-5.879 10.6 64.5 64.5 0 0 1-17.022 16.9 64 64 0 0 1-10.641 5.806 62.6 62.6 0 0 1-24.278 5.063ZM719.681 251.558a3.57 3.57 0 0 1 2.507 1.041 3.45 3.45 0 0 1 1 2.466l-.118 39.761a3.47 3.47 0 0 1-1.023 2.458l-62.5 62.5a3.47 3.47 0 0 1-2.471 1.023h-.022l-39.365-.278a3.492 3.492 0 0 1-2.444-5.961L717.23 252.586a3.45 3.45 0 0 1 2.451-1.028m-62.6 107.249a1.49 1.49 0 0 0 1.057-.437l62.5-62.5a1.5 1.5 0 0 0 .437-1.051l.118-39.76a1.44 1.44 0 0 0-.419-1.048 1.55 1.55 0 0 0-1.091-.453 1.44 1.44 0 0 0-1.037.442L616.664 355.982a1.492 1.492 0 0 0 1.044 2.547ZM496.852 28.03a3.492 3.492 0 0 1 2.468 5.96L397.338 135.976a3.45 3.45 0 0 1-2.451 1.027 3.58 3.58 0 0 1-2.409-.946 3.44 3.44 0 0 1-1.1-2.525l-.278-39.365a3.52 3.52 0 0 1 1.021-2.493l62.5-62.5a3.47 3.47 0 0 1 2.457-1.023Zm-101.96 106.971a1.44 1.44 0 0 0 1.036-.441L497.906 32.576a1.492 1.492 0 0 0-1.054-2.546l-39.766.118a1.5 1.5 0 0 0-1.05.437l-62.5 62.5a1.5 1.5 0 0 0-.436 1.065l.278 39.365a1.49 1.49 0 0 0 1.514 1.486M708.591 207.771a3.47 3.47 0 0 1-2.469-1.023L529.256 29.882a3.5 3.5 0 0 1 0-4.938L553.347.853a3.49 3.49 0 0 1 4.937 0l176.867 176.866a3.5 3.5 0 0 1 0 4.937l-24.091 24.091a3.47 3.47 0 0 1-2.469 1.024M555.816 1.831a1.48 1.48 0 0 0-1.055.437l-24.091 24.09a1.494 1.494 0 0 0 0 2.11l176.866 176.863a1.49 1.49 0 0 0 2.11 0l24.091-24.091a1.493 1.493 0 0 0 0-2.109L556.87 2.267a1.48 1.48 0 0 0-1.054-.436M320.425 631.981h75.836a3.5 3.5 0 0 1 2.529 1.084l8.511 8.939-.406 62.267-9.356 9.356h-.417l-80.188-.44v-77.714a3.5 3.5 0 0 1 3.491-3.492m84.871 10.817-7.951-8.358a1.5 1.5 0 0 0-1.081-.463h-75.839a1.493 1.493 0 0 0-1.492 1.492v75.722l77.782.427 8.185-8.185ZM149.882 332.689l-56.293-.06a3.5 3.5 0 0 1-3.491-3.492V270.19a1 1 0 0 1 2 0v58.948a1.493 1.493 0 0 0 1.492 1.492l56.293.06a1.493 1.493 0 0 0 1.491-1.492v-7.584a3.5 3.5 0 0 1 3.492-3.492h199.271a1.493 1.493 0 0 0 1.492-1.492V53.607a1.493 1.493 0 0 0-1.492-1.492h-18.933a1 1 0 0 1 0-2h18.933a3.5 3.5 0 0 1 3.492 3.492V316.63a3.5 3.5 0 0 1-3.492 3.492H154.865a1.493 1.493 0 0 0-1.492 1.492v7.584a3.5 3.5 0 0 1-3.491 3.491"/><path d="M150.174 155.332a3.5 3.5 0 0 1 .78 1 11.6 11.6 0 0 0 1.98-2.144 11.6 11.6 0 0 0 1.469-2.717c-.026.676-.026.936-.026 1.573v2.054h-.949a7 7 0 0 1-1.018-.052v1.157a7 7 0 0 1 .975-.052h.988v1.131a10 10 0 0 1-.091 1.391h1.313a10 10 0 0 1-.091-1.378v-1.149h1.053a7 7 0 0 1 .988.052v-1.152a7 7 0 0 1-1 .052h-1.04v-2.08c0-.533-.013-.858-.026-1.573a12.8 12.8 0 0 0 3.6 4.953 5.2 5.2 0 0 1 .793-1.092 11.45 11.45 0 0 1-3.887-4.888h2.106a12 12 0 0 1 1.4.078v-1.235a11 11 0 0 1-1.43.078h-2.548v-1.287a10 10 0 0 1 .078-1.248h-1.313a10 10 0 0 1 .078 1.248v1.287h-2.08a14 14 0 0 1-1.365-.065v1.222a11 11 0 0 1 1.339-.078h1.625a12 12 0 0 1-1.521 2.7 9.7 9.7 0 0 1-2.18 2.188v-5.2a24 24 0 0 0 1.248-3.06l-1.222-.351a11.17 11.17 0 0 1-2.847 5.46 5.3 5.3 0 0 1 .546 1.235 8 8 0 0 0 1.157-1.6c-.039.572-.039.845-.039 1.521v3.828a13 13 0 0 1-.083 1.534h1.3a13 13 0 0 1-.06-1.521Zm15.626-7.54h-3.64a10 10 0 0 1-1.43-.078v1.157a10 10 0 0 1 1.365-.065h2.249a9 9 0 0 1-.91 1.34c-.793.013-1.391.013-1.4.013a5.6 5.6 0 0 1-.871-.052l.156 1.118c.182-.026.351-.026.624-.039 3.237-.065 5.9-.2 8.164-.4a15 15 0 0 1 1.209 1.04l.832-.819a25 25 0 0 0-3.214-2.201h2.1a11 11 0 0 1 1.352.065v-1.157a10 10 0 0 1-1.417.078h-3.991v-.234a4.6 4.6 0 0 1 .078-.884h-1.339a4 4 0 0 1 .078.9Zm2.834 1.014-.793.455a12 12 0 0 1 1.118.676c-1.3.091-2.847.169-4.264.2a13 13 0 0 0 .923-1.326Zm-5.07 7.566h5.954v.793c0 .286-.1.364-.52.364a14 14 0 0 1-1.612-.117 2.6 2.6 0 0 1 .286 1.053c.559.026 1.157.052 1.456.052a1.86 1.86 0 0 0 1.157-.221 1.14 1.14 0 0 0 .377-1.014v-4.173a12 12 0 0 1 .052-1.378 12 12 0 0 1-1.417.052h-5.473c-.7 0-1.131-.013-1.482-.039a8.4 8.4 0 0 1 .065 1.274v4.043a13 13 0 0 1-.078 1.585h1.3a11 11 0 0 1-.065-1.468Zm0-1.807h5.954v.832h-5.954Zm5.954-.975h-5.954v-.819h5.954Zm9.737 4.156a21 21 0 0 0-1.612-2.83l-.9.4a10 10 0 0 1 .637 1.066c-.585.2-.962.312-1.794.52v-2.285h2.236a7 7 0 0 1 .845.039c-.013-.273-.026-.6-.026-1.092v-2.262c0-.468.013-.78.039-1.105a7 7 0 0 1-1.04.052h-.52v-.442a3.7 3.7 0 0 1 .052-.715h-1.115a3 3 0 0 1 .065.7v.454h-.7c-.442 0-.741-.013-.923-.026a11 11 0 0 0 2.208-2.324 8.7 8.7 0 0 0 1.781 1.911 2.5 2.5 0 0 1 .533-.845v.767a8 8 0 0 1-.039.78h.637c.015.237.015.312.015.65v6.409a9 9 0 0 1-.065 1.183h1.181v-.705h3.094v.676h1.17a10 10 0 0 1-.052-1.206v-2.054c0-.455.013-.754.039-1.066a7.5 7.5 0 0 1-1.053.05h-3.214v-1.09h2.73c.429 0 .728.013 1.027.039a8 8 0 0 1-.039-.975v-1.885h.952a8 8 0 0 1-.039-.858v-.871a9 9 0 0 1 .039-.9 13 13 0 0 1-1.339.065h-1.456v-.26a4.6 4.6 0 0 1 .065-.923h-1.3a5 5 0 0 1 .078.923v.26h-1.339c-.546 0-.819-.013-1.131-.039a6 6 0 0 1 .039.767v.078a6.5 6.5 0 0 1-1.807-1.95h-1.092a5.4 5.4 0 0 1-1.027 1.355 8.7 8.7 0 0 1-1.638 1.313 3.4 3.4 0 0 1 .533 1.118c.234-.169.312-.234.468-.351a10 10 0 0 1 .039 1.066v5.8a5 5 0 0 1-.871.13l.3 1.2a2 2 0 0 1 .416-.13c1.962-.539 2.807-.782 3.492-1.046.13.286.234.533.442 1.027Zm5.018-7.731a9 9 0 0 1-.871.026h-2.782c-.208 0-.3 0-.494-.013v-1.027h4.147Zm-3.523.962h2.6v1.417h-2.6Zm0 4.459h3.094v1.61h-3.094Zm-5.161-3.484v-.819h2v.819Zm0 .884h2v.884h-2Zm19.539-1.209a3 3 0 0 1 .7.6 10.6 10.6 0 0 0 1.536-2.615h3.809a8.4 8.4 0 0 1-1.469 2.626 3.2 3.2 0 0 1 1.053.6 13.5 13.5 0 0 0 1.5-2.795c.182-.468.286-.741.338-.832l-.6-.715a5.5 5.5 0 0 1-.988.052h-3.279c.195-.572.208-.6.3-.9a6 6 0 0 1 .247-.715l-1.3-.208a6.7 6.7 0 0 1-.377 1.651 8.8 8.8 0 0 1-1.469 2.821v-2.014c0-.806 0-.936.026-1.261a5.6 5.6 0 0 1-.91.039h-2.055a8 8 0 0 1-.949-.039 12 12 0 0 1 .052 1.261v6.227a13 13 0 0 1-.078 1.508h1.2v-1.326h1.619v.728h1.131a9.5 9.5 0 0 1-.039-1.209Zm-2.717-2.613h1.623v5.551h-1.623Zm5.317 1.4a6 6 0 0 1 .052.806 7.7 7.7 0 0 1-.377 2.548 7.6 7.6 0 0 1-1.131 2.145 6.2 6.2 0 0 1-2.5 1.846 3.7 3.7 0 0 1 .78 1 8.8 8.8 0 0 0 2.2-1.664 6.9 6.9 0 0 0 1.682-3.206 7.9 7.9 0 0 0 1.66 3.042 7.8 7.8 0 0 0 2.275 1.768 4 4 0 0 1 .65-1.2 6.36 6.36 0 0 1-3.6-3.679 7.2 7.2 0 0 1-.494-2.509 4.6 4.6 0 0 1 .052-.9Zm12.935.949c.091-.585.117-.845.182-1.456h3.341a10 10 0 0 1 1.378.078v-1.239a10 10 0 0 1-1.378.078h-3.263c.026-.364.026-.429.026-.611a10 10 0 0 1 .1-1.339h-1.309a6.6 6.6 0 0 1 .052 1c0 .286 0 .52-.026.949h-.208a13 13 0 0 1-1.391-.065v1.218a11 11 0 0 1 1.378-.065h.156c-.312 3.354-1.274 5.835-2.977 7.644a3.5 3.5 0 0 1 .81.991 12.6 12.6 0 0 0 2.639-4.953 9.5 9.5 0 0 0 1.287 2.119 8.4 8.4 0 0 1-2.826 1.921 3.5 3.5 0 0 1 .7 1.013 10.7 10.7 0 0 0 2.86-2.106 11.6 11.6 0 0 0 2.9 2.145 4.3 4.3 0 0 1 .691-1.139 9.2 9.2 0 0 1-2.86-1.859 11.1 11.1 0 0 0 1.534-2.86c.26-.689.26-.715.338-.9l-.572-.611a6 6 0 0 1-.962.052Zm2.756 1.04a7.8 7.8 0 0 1-1.235 2.487 7.9 7.9 0 0 1-1.417-2.483Zm-7.9-2.08v2.643a8 8 0 0 1-1.742.468l.257 1.222a10.4 10.4 0 0 1 1.482-.546v3.016c0 .312-.078.377-.442.377a11 11 0 0 1-1.183-.078 4.2 4.2 0 0 1 .243 1.144c.4.026.6.039.845.039h.312a2.06 2.06 0 0 0 .943-.182.91.91 0 0 0 .429-.91v-3.809c.507-.182.767-.286 1.56-.611v-1.079c-.663.273-.884.351-1.56.572v-2.262h.416a6 6 0 0 1 .845.052v-1.144a5.5 5.5 0 0 1-.832.052h-.429v-1.157a9 9 0 0 1 .078-1.3h-1.307a10 10 0 0 1 .078 1.326v1.131h-.572a6 6 0 0 1-1.027-.078v1.183a8 8 0 0 1 1.027-.065Z"/></g></svg>