<svg xmlns="http://www.w3.org/2000/svg" xmlns:xlink="http://www.w3.org/1999/xlink" width="332.96" height="224.24" viewBox="0 0 332.96 224.24"><defs><clipPath id="a"><rect width="332.96" height="224.24" fill="none"/></clipPath></defs><g clip-path="url(#a)"><path d="M85.544,13.952H8.482A6.673,6.673,0,0,0,1.81,20.625V65.817a6.668,6.668,0,0,0,6.669,6.667H85.544a6.672,6.672,0,0,0,6.672-6.672V20.624a6.672,6.672,0,0,0-6.672-6.672" fill="#fefffd"/><path d="M85.544,12.616c-.512,0-.512-.019-1.024-.019s-.513.041-1.025.041-.513-.223-1.025-.223-.513-.066-1.027-.066-.513.122-1.026.122-.512.278-1.025.278-.512-.238-1.025-.238-.512-.165-1.025-.165-.512.323-1.024.323-.512-.042-1.025-.042-.512-.159-1.025-.159-.512-.228-1.025-.228-.513.148-1.026.148-.513.1-1.026.1-.51.077-1.02.077-.51-.242-1.02-.242-.51-.159-1.02-.159-.511.219-1.022.219-.512.246-1.023.246-.513-.348-1.025-.348-.513.323-1.026.323-.514-.128-1.027-.128-.513-.215-1.025-.215-.512.25-1.024.25-.512-.143-1.024-.143-.511-.08-1.023-.08-.511.271-1.022.271-.512-.371-1.023-.371-.512.084-1.024.084-.513.448-1.025.448-.513-.522-1.027-.522-.514.241-1.028.241-.513-.173-1.027-.173-.513.193-1.025.193-.513.271-1.025.271-.513-.134-1.026-.134-.513-.016-1.026-.016-.513-.107-1.027-.107-.515-.293-1.029-.293-.513.017-1.027.017-.513.411-1.027.411-.513.14-1.027.14-.514-.323-1.028-.323-.514-.073-1.029-.073-.513.236-1.027.236-.514-.1-1.029-.1-.514.078-1.029.078-.513-.275-1.025-.275-.512,0-1.024,0-.513-.058-1.026-.058-.515.3-1.03.3-.514-.373-1.029-.373-.514.194-1.028.194-.515-.016-1.031-.016-.515-.1-1.03-.1-.516.069-1.031.069-.514.258-1.027.258-.516-.087-1.032-.087-.517-.028-1.034-.028-.519.186-1.037.186-.518.022-1.037.022c-.337,0-.674-.458-1.011-.458s-.675.407-1.012.407-.674-.432-1.011-.432-.675.188-1.012.188-.674-.133-1.011-.134-.675.21-1.012.209-.675.09-1.012.09-.674.177-1.011.177-.674-.485-1.012-.485-.674.407-1.011.407-.675-.381-1.012-.381-.673.415-1.011.416-.674.047-1.011.048-.675-.144-1.012-.143A8.786,8.786,0,0,0,7.7,12.6a8.67,8.67,0,0,0-1.069.148,8.673,8.673,0,0,0-1.014.371c-.339.127-.773.048-1.1.217a8.871,8.871,0,0,0-.9.418c-.262.185-.31.653-.548.868a8.256,8.256,0,0,0-.772.583c-.211.241-.21.637-.392.9s-.483.439-.633.724c-.149.331-.169.7-.284,1.045s-.446.624-.527.977a10.931,10.931,0,0,0-.2,1.077c-.046.359.141.737.131,1.1s-.042.72-.016,1.082c.01.516.059.518.059,1.034s.1.516.1,1.032S.488,24.7.488,25.211s.128.515.128,1.03-.5.515-.5,1.03.328.515.328,1.029-.173.515-.173,1.03.15.515.15,1.031-.392.516-.392,1.031.074.517.074,1.034.152.517.152,1.035.2.517.2,1.033S.3,35.011.3,35.527s.187.516.187,1.032S.3,37.075.3,37.591.4,38.107.4,38.623s-.266.517-.266,1.035.134.517.134,1.035.127.517.127,1.034-.179.517-.179,1.033-.143.517-.143,1.034S.2,44.312.2,44.829s-.181.518-.181,1.036.058.517.058,1.034.165.517.165,1.035S.6,48.452.6,48.97.375,49.486.375,50s-.292.516-.292,1.031.159.516.159,1.033S.28,52.584.28,53.1s-.045.517-.045,1.035.086.517.086,1.034.064.52.064,1.039S.6,56.729.6,57.247s-.314.519-.314,1.038S.052,58.8.052,59.319s.493.52.493,1.039S0,60.878,0,61.4s.573.522.573,1.043-.345.521-.353,1.043C.2,63.84.071,64.2.07,64.554s-.04.727-.02,1.083.192.71.231,1.064.5.632.558.983c.088.352-.188.791-.058,1.122a8.2,8.2,0,0,0,.553.935,8.839,8.839,0,0,0,.444,1.005,8.446,8.446,0,0,0,.763.786c.249.259.4.658.685.882s.866.015,1.174.2.508.546.839.69a8.292,8.292,0,0,0,.991.443c.342.1.747-.169,1.106-.116.367.031.72.069,1.088.092s.718.357,1.086.371.736.183,1.1.188.739-.344,1.108-.347.736.064,1.105.052.735-.157,1.1-.177c.51-.007.513-.067,1.023-.067s.511.424,1.021.424.51-.294,1.02-.294.511.28,1.021.28.51-.132,1.02-.132.51-.179,1.02-.179.511-.12,1.021-.12.51-.023,1.021-.023.51.221,1.021.221.511-.106,1.022-.106.511-.109,1.023-.109.511.587,1.022.587.511-.1,1.022-.1.511-.459,1.022-.459.51.455,1.021.455.51-.079,1.021-.079.511-.162,1.021-.162.511.034,1.021.034.511-.192,1.022-.192.511-.058,1.023-.058.507.041,1.015.041.508.457,1.017.457.508.051,1.016.051.509-.166,1.018-.166.509.038,1.018.038.51-.022,1.02-.022.511-.2,1.021-.2.512-.156,1.023-.156.512.024,1.024.024.511.166,1.022.166.51.312,1.021.312.51-.25,1.02-.25.509-.03,1.019-.03.51-.068,1.02-.068.509.025,1.019.025.511.134,1.021.134.511.184,1.021.184.512-.584,1.024-.584.512.158,1.025.158.512.322,1.023.322h1.022c.511,0,.511-.223,1.022-.223s.511.145,1.022.145.511-.115,1.023-.115.512-.046,1.024-.046.513.227,1.025.227.512-.033,1.024-.033.512.107,1.023.107.512-.266,1.024-.266.513-.143,1.025-.143.513-.109,1.026-.109.512.434,1.024.434.512-.214,1.025-.214.513-.015,1.026-.015.511-.17,1.022-.17.51.014,1.021.014.511.093,1.022.093.514.216,1.027.216.512-.021,1.025-.021.512.02,1.025.02.514-.36,1.028-.36.513.181,1.026.181.514-.007,1.028-.007.512-.037,1.024-.037.514.085,1.029.085.515.133,1.03.133.517.213,1.034.213.512-.056,1.028-.045c.376.03.756-.3,1.131-.307s.73-.145,1.1-.181.79.264,1.16.195.638-.542,1-.644.735-.086,1.087-.219a7.566,7.566,0,0,0,.794-.613c.29-.186.785-.066,1.046-.284a8.2,8.2,0,0,0,.662-.8,8.044,8.044,0,0,0,.551-.859,8.173,8.173,0,0,0,.6-.816c.165-.3.574-.491.7-.809a8.577,8.577,0,0,0,.261-1.015,8.6,8.6,0,0,0,.285-1.01c.044-.337-.439-.709-.437-1.055s.272-.688.274-1.034.16-.691.159-1.037-.292-.691-.294-1.037.275-.693.273-1.039,0-.691,0-1.037c0-.518-.313-.518-.313-1.036s.066-.518.066-1.036.161-.519.161-1.037-.161-.519-.161-1.038.318-.52.318-1.04.12-.521.12-1.043-.19-.519-.19-1.039-.237-.519-.237-1.039.075-.519.075-1.038.346-.519.346-1.038-.252-.52-.252-1.039-.041-.521-.041-1.041.166-.521.166-1.042-.047-.52-.047-1.041-.067-.519-.067-1.039-.031-.52-.031-1.041-.119-.521-.119-1.041.311-.521.311-1.042-.365-.521-.365-1.041.094-.521.094-1.042.056-.521.056-1.042.042-.52.042-1.039.157-.518.157-1.037-.232-.52-.232-1.039.236-.522.236-1.044-.4-.52-.4-1.041.5-.521.5-1.041-.442-.523-.442-1.045.2-.522.2-1.043.127-.523.127-1.045-.2-.52-.2-1.04.279-.523.279-1.046-.287-.523-.287-1.047.166-.525.166-1.05-.313-.525-.313-1.05c0-.324.294-.649.3-.978s-.326-.658-.324-.987S94,21.558,94,21.23s-.15-.662-.176-.988-.024-.673-.077-1-.4-.587-.489-.9a7.07,7.07,0,0,0-.347-.9,8.187,8.187,0,0,0-.413-.957,8.15,8.15,0,0,0-.626-.835,8.019,8.019,0,0,0-.681-.788,8.313,8.313,0,0,0-.769-.71c-.281-.211-.436-.636-.741-.81s-.831.106-1.157-.028-.573-.428-.914-.52a6.748,6.748,0,0,0-2.069-.275c-.363-.008-.835-.218-1.062-.051-.256.189.04.785-.043,1.089s-.645.627-.558.928.483.56.737.754c.226.173.572-.058.931-.051a5.631,5.631,0,0,1,1.041.186c.335.069.508.626.816.756s.812-.1,1.09.083a5.652,5.652,0,0,1,.864.6c.238.238.083.806.272,1.086a4.931,4.931,0,0,1,.579.8c.13.307.631.526.7.861a5.987,5.987,0,0,1,.008,1.064c.007.422-.411.847-.411,1.269,0,.518.257.518.257,1.037s.006.518.006,1.037-.14.518-.14,1.036-.17.517-.17,1.034.528.517.528,1.034-.019.516-.019,1.033-.388.516-.388,1.033.154.517.154,1.033.191.517.191,1.034.006.518.006,1.036-.063.518-.063,1.037-.1.519-.1,1.039.13.518.13,1.037-.4.518-.4,1.036.1.517.1,1.035.339.518.339,1.036-.334.518-.334,1.036.055.519.055,1.038-.218.519-.218,1.039.56.519.56,1.038-.172.518-.172,1.036-.225.519-.225,1.038.331.519.331,1.039-.446.519-.446,1.039.263.519.263,1.038-.237.519-.237,1.038.494.52.494,1.04-.375.517-.375,1.036-.035.517-.035,1.034-.117.518-.117,1.036.032.521.032,1.041.318.519.318,1.039-.407.519-.407,1.038.136.521.136,1.042.163.52.163,1.04-.3.521-.3,1.042.6.519.6,1.037-.6.522-.6,1.043.494.522.494,1.044-.257.524-.257,1.048.146.523.146,1.047c0,.455-.326.907-.334,1.362a5.084,5.084,0,0,1,.012,1.052,5.351,5.351,0,0,1-.171,1.075A5.818,5.818,0,0,1,89.909,69c-.213.292-.852.2-1.12.44a4.439,4.439,0,0,1-1.717,1.141c-.337.111-.622.523-.988.564s-.73.151-1.1.165-.736-.262-1.1-.261-.728.081-1.092.075-.719-.355-1.082-.364-.735.322-1.1.315-.727,0-1.088,0c-.516,0-.516.07-1.033.07s-.516-.356-1.032-.356-.517.009-1.033.009H75.4c-.517,0-.517.048-1.033.048s-.517.389-1.034.389-.517-.093-1.034-.093-.518-.1-1.035-.1-.518.132-1.035.132-.518-.417-1.035-.417-.517-.029-1.034-.029-.516.406-1.033.406-.517-.454-1.034-.454-.516.178-1.033.178-.517-.173-1.034-.173-.517.4-1.034.4-.517-.2-1.035-.2-.518.135-1.035.135-.515-.13-1.029-.13-.514-.008-1.029-.008-.514.082-1.029.082S57.318,71,56.8,71s-.516.267-1.032.267-.517-.018-1.034-.018-.517-.328-1.035-.328-.518.138-1.036.138-.517-.32-1.034-.32-.516.275-1.033.275-.516-.028-1.032-.028-.516.1-1.032.1-.516-.123-1.031-.123-.516.109-1.032.109-.517-.309-1.033-.309-.517.516-1.034.516-.518-.076-1.036-.076-.518-.345-1.037-.345-.518.014-1.036.014-.517.151-1.034.151-.517-.156-1.034-.156-.517.1-1.034.1-.518-.276-1.035-.276-.519.331-1.037.331-.519-.05-1.037-.05-.518-.011-1.036-.011-.518.128-1.036.128-.518-.047-1.036-.047-.519.13-1.038.13-.518-.163-1.037-.163-.518-.232-1.037-.232-.518.01-1.037.01-.519.256-1.038.256-.517-.24-1.034-.24-.517.049-1.033.049-.518.4-1.035.4-.52-.223-1.039-.223-.519.234-1.038.234-.518-.141-1.037-.141-.52-.1-1.04-.1-.52.143-1.039.143-.52.036-1.04.036-.518-.295-1.036-.295-.521.063-1.041.063-.522.02-1.043.02-.523-.3-1.046-.3-.523.3-1.046.3c-.306,0-.631-.264-.951-.252s-.621.073-.938.084-.621.142-.935.141-.619-.094-.931-.118a8.029,8.029,0,0,1-.933-.016c-.311-.061-.681.065-.973-.046-.312-.12-.438-.6-.717-.773s-.744-.106-.986-.333-.219-.68-.415-.949-.74-.345-.882-.648a9.661,9.661,0,0,1-.08-1c-.075-.311-.394-.592-.434-.908s.349-.67.345-.989-.337-.639-.306-.957c.012-.517.433-.513.433-1.03s-.233-.518-.233-1.036.145-.517.145-1.034-.384-.516-.384-1.033.094-.516.094-1.032.194-.516.194-1.032S3.6,57.516,3.6,57s-.037-.516-.037-1.032-.24-.516-.24-1.033.056-.516.056-1.033-.071-.518-.071-1.036-.247-.518-.247-1.037.316-.518.316-1.036.07-.517.07-1.034.037-.517.037-1.034-.457-.517-.457-1.034.028-.517.028-1.035.029-.518.029-1.036.027-.519.027-1.037.415-.518.415-1.036-.433-.518-.433-1.036-.066-.518-.066-1.036.528-.518.528-1.037S3.32,39.919,3.32,39.4s-.181-.519-.181-1.037-.02-.518-.02-1.037-.073-.519-.073-1.038.171-.517.171-1.034.33-.517.33-1.033.061-.517.061-1.035-.226-.519-.226-1.039.186-.518.186-1.037.05-.518.05-1.037-.473-.52-.473-1.04.013-.52.013-1.039.26-.52.26-1.04.117-.518.117-1.036-.255-.52-.255-1.041.067-.521.067-1.043.1-.523.1-1.045-.256-.521-.266-1.044a9.467,9.467,0,0,1,.2-1.249,9.356,9.356,0,0,1,.075-1.255,5.251,5.251,0,0,1,.419-.871,5.489,5.489,0,0,1,.393-.894,5.364,5.364,0,0,1,.681-.7c.237-.217.6-.262.873-.432s.477-.465.777-.583a5.5,5.5,0,0,1,.963-.109c.311-.059.615.109.94.108.345-.005.686-.451,1.031-.455s.69-.173,1.035-.175.692.152,1.037.152.691-.085,1.036-.084.69.43,1.035.431.691-.253,1.036-.252.691.043,1.036.045.689.149,1.035.15.689.183,1.034.184.692-.212,1.037-.211.69-.356,1.035-.356c.512,0,.512.317,1.023.317s.512-.133,1.024-.133.511.337,1.023.337.512-.334,1.024-.334.512.317,1.024.317.513-.336,1.025-.336.513.4,1.026.4.513-.006,1.026-.006.512-.349,1.024-.349.513.125,1.025.125l1.024,0c.512,0,.512-.187,1.024-.187s.512.135,1.024.135.512-.3,1.025-.3.512.353,1.024.353.513-.051,1.026-.051.513-.31,1.026-.31.509.132,1.019.132.509.05,1.019.05.51.3,1.02.3.511-.2,1.022-.2.511.068,1.022.068.512-.223,1.024-.223.513.276,1.026.276.513-.127,1.027-.127.512-.087,1.024-.087.512.046,1.024.046.511.107,1.023.107.511-.227,1.022-.227.511.036,1.022.036.512.155,1.023.155.512-.313,1.023-.313.513.051,1.025.051.513.326,1.026.326.514-.321,1.028-.321.513.322,1.026.322.513-.1,1.025-.1.512.182,1.025.182.512.094,1.024.094.513-.2,1.026-.2.513-.206,1.027-.206.514-.01,1.028-.01.513.341,1.027.341.513-.11,1.026-.11.513.154,1.026.154.514.071,1.028.071.514-.443,1.028-.443.514.435,1.027.435.514-.124,1.028-.124.515.016,1.029.016.513-.485,1.025-.485.512.428,1.024.428.512-.238,1.025-.238.515.028,1.03.028.514.025,1.027.025.514.2,1.028.2.515-.277,1.031-.277.515.306,1.029.306.516-.166,1.031-.166.513.107,1.026.107.516-.2,1.032-.2.517.1,1.034.1.518-.016,1.036-.016.517-.1,1.035-.1A1.475,1.475,0,0,0,86.617,15a1.52,1.52,0,0,0,.327-1.108c-.018-.39-.359-.527-.617-.785s-.4-.66-.791-.677c-.079.03.009.19.008.19" fill="#0d4b08"/><path d="M10.842,36.475c0,.5.063.5.063,1.006s.5.5.5,1.007-.468.5-.468,1.006-.065.5-.065,1.005.034.5.034,1.006.355.5.355,1.007.045.5.045,1.007.077.5.077,1.006-.1.5-.1,1.007-.015.5-.015,1.007-.307.5-.307,1,0,.5,0,1-.013.5-.013,1,.2.505.2,1.009-.076.5-.076,1.007.063.5.063,1.007.064.5.064,1.01.192.5.192,1.008-.315.505-.315,1.01.282.5.282,1.006-.207.505-.207,1.01.032.506.032,1.013-.3.507-.3,1.015.494.506.5,1.014c.005.414-.169.855.1,1.127a1.867,1.867,0,0,0,1.124.61c.5,0,.505-.172,1.008-.172s.5-.356,1.007-.356.5.33,1.005.33.5.2,1.006.2.5.028,1,.028.5-.561,1.007-.561.5.519,1.007.519.5-.049,1.007-.049.5-.341,1.006-.341.5.019,1.008.019.5-.041,1-.041.5.223,1,.223.5.066,1,.066.5-.122,1.009-.122.5-.278,1.006-.278.5.238,1.007.238.5.165,1.01.165.5-.323,1.009-.323.505.042,1.009.042.5.159,1.006.159.505.228,1.011.228.506-.148,1.012-.148.508-.095,1.015-.095.507-.075,1.015-.077c.413-.006.878.028,1.149-.244a1.972,1.972,0,0,0,.644-1.148c0-.5-.218-.5-.218-1.007s-.246-.5-.246-1.007.347-.5.347-1.006-.322-.5-.322-1,.127-.5.127-1.006.216-.5.216-1.007-.251-.5-.251-1.007.143-.5.143-1.006.081-.5.081-1.007-.272-.5-.272-1.007.371-.5.371-1-.084-.5-.084-1-.448-.5-.448-1,.523-.5.523-1.009-.242-.5-.242-1.007.174-.5.174-1.007-.193-.505-.193-1.01-.271-.5-.271-1.008.134-.5.134-1.01.015-.5.015-1.006.107-.505.107-1.01.294-.506.294-1.013-.017-.507-.017-1.015-.409-.507-.411-1.014c-.006-.414-.229-.578-.5-.85s-.436-.678-.849-.684c-.5,0-.5-.073-1.007-.073s-.5.236-1.007.236-.5-.1-1-.1-.5.078-1.006.078-.5-.275-1.005-.275-.5,0-1.007,0-.5-.058-1.007-.058-.5.3-1.006.3-.5-.373-1.007-.373-.5.194-1.007.194-.5-.016-1-.016-.5-.1-1-.1-.5.069-1,.069-.5.258-1.009.258-.5-.087-1.007-.087-.5-.027-1.007-.027-.505.185-1.01.185-.5.022-1.008.022-.505-.458-1.01-.458-.5.408-1.005.408-.506-.431-1.011-.431-.506.189-1.012.189-.508-.133-1.015-.133-.508.2-1.016.21a1.449,1.449,0,0,0-.989.554c-.26.285-.214.606-.2,1.022.018.39-.235.916.023,1.174s.775.083,1.165.1c.5.006.5.381,1,.381s.5-.414,1.007-.414.5-.047,1.005-.047.5.146,1.006.146.5,0,1,0,.5.038,1.007.038.5-.06,1.007-.06.5.249,1.007.249.5.12,1.006.12.5-.336,1.008-.336.5.14,1,.14.5-.244,1-.244.5.169,1,.169.5-.117,1.009-.117.5.242,1.006.242.5.014,1.007.014.5-.216,1.01-.216.5.041,1.009.041.505-.058,1.009-.058.5-.1,1.006-.1.505.041,1.011.041.506-.128,1.012-.128.508.5,1.015.5.715.246.882-.234c.174-.5-.221-.352-.6-.729s-.233-.788-.738-.619c-.477.16-.31.391-.31.894s.074.5.074,1.007.152.5.152,1.006.2.5.2,1.005-.162.5-.162,1.006.187.5.187,1.007-.185.5-.185,1.007.094.5.094,1.006-.265.5-.265,1.007.133.5.133,1.008.127.5.127,1-.179.5-.179,1-.143.5-.143,1,.129.5.129,1.009-.181.5-.181,1.007.058.5.058,1.006.165.506.165,1.011.363.5.363,1.008-.227.505-.227,1.01-.291.5-.291,1,.158.506.158,1.011.038.506.038,1.013-.045.507-.045,1.015-.4.834.076,1c.5.174.315-.419.692-.8s.7-.1.529-.6c-.16-.477-.223-.112-.726-.112s-.5-.235-1.007-.235-.5.493-1.006.493-.5-.545-1.005-.545-.5.573-1,.573-.5-.353-1.007-.353-.5-.116-1.008-.116-.5-.047-1.006-.047-.5.143-1.006.143-.5.416-1.008.416-.5-.4-1-.4-.5.1-1,.1-.5-.17-1-.17-.5.074-1.009.074-.5-.193-1.007-.193-.5.505-1.006.505-.5-.23-1.01-.23-.5-.084-1.009-.084-.505.348-1.01.348-.5-.013-1.005-.013-.5-.317-1.011-.317-.506-.158-1.012-.158-.508.351-1.015.351-.8-.589-.966-.11c-.175.5.456.231.833.607s.04.815.545.646c.477-.16.253-.266.253-.769S14,59.147,14,58.644s.28-.5.28-1.006-.131-.5-.131-1.005-.181-.5-.181-1.005-.119-.5-.119-1.007-.024-.5-.024-1.007.222-.5.222-1.006-.107-.5-.107-1.007-.108-.5-.108-1.007.586-.5.586-1-.1-.5-.1-1-.459-.5-.459-1,.455-.5.455-1.009-.078-.5-.078-1.006-.162-.5-.162-1.007.033-.505.033-1.01-.192-.5-.192-1.008-.057-.505-.057-1.01.041-.5.041-1.005.456-.505.456-1.011.052-.506.052-1.012-.166-.507-.166-1.015.044-.51.037-1.017a1.809,1.809,0,0,0-.554-1.144,1.648,1.648,0,0,0-1.174-.226c-.39.018-.586.274-.844.532a1.12,1.12,0,0,0-.4.849" fill="#0d4b08"/><path d="M12.765,29.691c.513,0,.513-.194,1.026-.194s.513.209,1.026.209.513-.023,1.025-.023.513-.133,1.026-.133.512-.138,1.025-.138.513-.014,1.025-.014.513.408,1.026.408.513-.077,1.026-.077.513.047,1.026.047.514-.379,1.027-.379.514.141,1.028.141.514.248,1.028.248.513-.1,1.027-.1.513-.186,1.026-.186.513.161,1.027.161.513-.105,1.026-.105.513.305,1.026.305l1.026,0c.514,0,.514.014,1.027.014s.514-.414,1.027-.414.515.152,1.029.152.51.075,1.021.075.51-.076,1.021-.076.511-.324,1.023-.324.511.562,1.023.562.512-.063,1.025-.063.513-.5,1.026-.5.514.468,1.028.468.514.065,1.028.065.514-.034,1.027-.034.513-.356,1.026-.356.512-.044,1.025-.044.512-.077,1.024-.077.512.1,1.024.1.513.015,1.025.015.513.306,1.025.306.514,0,1.027,0,.514.013,1.028.013.515-.2,1.03-.2.514.077,1.028.077.514-.063,1.028-.063.513-.064,1.026-.064.514-.193,1.027-.193.514.316,1.028.316.514-.283,1.029-.283.515.208,1.03.208.514-.032,1.029-.032.514.3,1.028.3.514-.5,1.028-.5.516.372,1.031.372.515.135,1.03.135.514-.172,1.029-.172.515-.356,1.03-.356.515.33,1.031.33.513.2,1.027.2.513.027,1.025.027.514-.561,1.028-.561.516.519,1.032.519.514-.048,1.029-.048.515-.342,1.03-.342.517.019,1.033.019.516-.04,1.032-.04.516.222,1.032.222.515.067,1.029.067.517-.122,1.034-.122.518-.279,1.035-.279.519.238,1.039.238.52.172,1.039.165c.416-.019.619-.454.88-.739a1.14,1.14,0,0,0,.377-.926,1.368,1.368,0,0,0-.275-.992c-.258-.258-.59-.644-.98-.662-.513-.006-.516.149-1.029.149s-.513.094-1.026.094-.513.077-1.025.077-.513-.241-1.026-.241-.512-.159-1.025-.159-.513.218-1.025.218-.513.246-1.026.246-.513-.347-1.026-.347-.513.322-1.026.322-.514-.127-1.027-.127-.514-.216-1.028-.216-.514.251-1.028.251-.513-.144-1.027-.144-.513-.08-1.026-.08-.513.272-1.027.272-.513-.371-1.026-.371-.513.084-1.026.084-.513.448-1.026.448-.514-.523-1.027-.523-.514.241-1.027.241-.515-.173-1.029-.173-.51.193-1.021.193-.51.271-1.021.271-.511-.134-1.023-.134-.511-.015-1.023-.015S56.5,26.6,55.983,26.6s-.513-.293-1.026-.293-.514.017-1.028.017-.514.411-1.028.411-.514.14-1.027.14-.513-.323-1.026-.323-.512-.073-1.025-.073-.512.237-1.024.237-.512-.1-1.024-.1-.513.078-1.025.078-.513-.275-1.025-.275-.514,0-1.027,0-.514-.058-1.028-.058-.515.3-1.03.3-.514-.373-1.028-.373-.514.193-1.028.193-.513-.015-1.026-.015-.514-.1-1.027-.1-.514.068-1.028.068-.514.259-1.029.259-.515-.088-1.03-.088-.514-.027-1.029-.027-.514.185-1.028.185-.514.022-1.028.022-.516-.458-1.031-.458-.515.408-1.03.408-.514-.431-1.029-.431-.515.189-1.03.189-.515-.133-1.031-.133-.513.211-1.027.211-.513.09-1.025.09-.514.178-1.028.178-.516-.485-1.032-.485-.514.407-1.029.407-.515-.381-1.03-.381-.517.414-1.033.414-.516.046-1.032.046-.516-.145-1.032-.145-.515,0-1.029,0-.517-.037-1.034-.037-.518.06-1.035.06-.519-.25-1.039-.25-.522-.126-1.041-.12c-.416.019-.712.51-.972.794a1.466,1.466,0,0,0-.509,1.023c.017.39.368.6.625.857s.47.533.86.55" fill="#0d4b08"/><path d="M47.718,42.146h-.7V60.659h34.4V42.146h-33.7Z" fill="#407b3e"/><path d="M47.717,40.522c-.35,0-.349.227-.7.229-.414.006-.964-.11-1.236.162a1.993,1.993,0,0,0-.471,1.234c0,.513-.043.514-.043,1.028s.235.513.235,1.026.2.514.2,1.027-.407.514-.407,1.028.476.513.476,1.025-.167.511-.167,1.022.117.513.117,1.025-.309.515-.309,1.029.033.514.033,1.027.071.514.071,1.027-.077.515-.077,1.03.262.515.262,1.029-.2.515-.2,1.03.264.513.264,1.026-.242.515-.242,1.031-.253.516-.253,1.032.435.518.435,1.036-.255.518-.253,1.036c.006.413.339.677.611.949a1.4,1.4,0,0,0,.95.556c.519,0,.519-.027,1.038-.027s.52.334,1.039.334.521-.614,1.041-.614.521.492,1.043.492.52-.161,1.041-.161.52.278,1.039.278.52-.088,1.04-.088.519-.5,1.039-.5.52.373,1.04.373.521.2,1.042.2.522-.224,1.043-.224S58.983,62,59.5,62s.521.221,1.041.221.521-.12,1.041-.12.522.248,1.043.248.522-.339,1.043-.339.521.075,1.042.075.521.076,1.042.076.522-.077,1.044-.077.52.1,1.04.1.519.172,1.038.172.52-.1,1.04-.1.522-.122,1.045-.122.521.127,1.042.127.521-.194,1.042-.194.523.209,1.046.209.522-.023,1.044-.023.523-.133,1.046-.133.52-.137,1.041-.137.523-.015,1.047-.015.524.408,1.048.408.525-.077,1.051-.077.526.049,1.052.047c.414-.005.65-.5.922-.77a1.312,1.312,0,0,0,.532-.923c0-.343.248-.685.248-1.028s-.1-.686-.1-1.028-.186-.686-.186-1.029S83,56.89,83,56.547s-.1-.686-.1-1.029.305-.685.305-1.028,0-.686,0-1.029.014-.685.014-1.028S82.8,51.747,82.8,51.4s.151-.685.151-1.028.076-.686.076-1.029-.076-.685-.076-1.028-.324-.686-.324-1.029.561-.685.561-1.028-.062-.686-.062-1.029-.5-.686-.5-1.028.468-.686.468-1.029.064-.687.064-1.03a1.959,1.959,0,0,0-.538-1.195c-.272-.272-.784-.144-1.2-.15-.508,0-.507.045-1.016.045s-.509.077-1.018.077-.509-.1-1.019-.1-.511-.015-1.022-.015-.509-.307-1.019-.307-.51,0-1.019,0-.509-.013-1.018-.013-.509.2-1.018.2-.51-.076-1.019-.076-.51.063-1.021.063-.51.064-1.021.064-.51.192-1.02.192-.51-.315-1.02-.315-.51.282-1.02.282-.511-.207-1.021-.207-.511.032-1.022.032-.51-.3-1.02-.3-.511.5-1.022.5-.51-.372-1.021-.372-.51-.135-1.019-.135-.508.172-1.017.172-.509.355-1.018.355-.512-.329-1.024-.329-.51-.2-1.021-.2-.511-.027-1.021-.027-.512.56-1.025.56-.511-.519-1.022-.519-.513.049-1.025.049-.51.342-1.02.342-.512-.019-1.025-.019-.513.04-1.027.04-.514-.222-1.029-.222-.516-.072-1.031-.067a1.584,1.584,0,0,0-1.03.6c-.263.282-.133.637-.118,1.053.014.395-.077.716.183.977a1.566,1.566,0,0,0,.965.586c.508,0,.509-.323,1.018-.323s.509.042,1.018.042.509.159,1.019.159.511.229,1.022.229.51-.149,1.019-.149.51-.1,1.019-.1.509-.076,1.018-.076.509.241,1.018.241.51.159,1.019.159.51-.218,1.021-.218.51-.246,1.021-.246.51.347,1.02.347.51-.322,1.02-.322.51.127,1.02.127.511.216,1.021.216.511-.251,1.022-.251.51.143,1.02.143.511.081,1.022.081.51-.272,1.021-.272.51.371,1.019.371.508-.084,1.017-.084.509-.448,1.019-.448.511.523,1.023.523.51-.242,1.021-.242.511.174,1.021.174.512-.193,1.025-.193.511-.271,1.022-.271.513.134,1.025.134.51.015,1.02.015.512.108,1.025.108.513.293,1.027.293.514-.017,1.029-.017.705.175.883-.309c.183-.5-.44-.112-.817-.489s-.063-.732-.53-.987c0,.343-.112.709-.112,1.052s.236.686.236,1.028-.1.686-.1,1.029.078.686.078,1.028-.275.686-.275,1.029,0,.685,0,1.028-.058.686-.058,1.029.3.685.3,1.028-.373.686-.373,1.029.194.685.194,1.028-.016.686-.016,1.029-.1.685-.1,1.028.069.686.069,1.029.258.685.258,1.028-.087.686-.087,1.029-.028.686-.028,1.028.186.686.186,1.029-.275.51-.275.852c.468-.255.654-.019,1.031-.4s.619-.384.431-.882-.378-.334-.9-.334-.52.189-1.039.189-.521-.133-1.041-.133-.522.211-1.043.211-.521.09-1.041.09-.52.178-1.04.178-.52-.485-1.039-.485-.52.407-1.04.407-.52-.381-1.04-.381-.521.414-1.042.414-.522.046-1.043.046-.521-.145-1.041-.145-.521,0-1.041,0-.521-.038-1.042-.038-.521.06-1.043.06-.521-.249-1.043-.249-.52-.12-1.041-.12-.522.336-1.043.336-.522-.141-1.044-.141-.52.244-1.039.244-.52-.168-1.039-.168-.52.117-1.04.117-.522-.242-1.045-.242-.521-.014-1.042-.014-.521.215-1.043.215-.523-.04-1.045-.04-.523.058-1.045.058-.523.1-1.045.1-.521-.04-1.042-.04-.523.127-1.046.127-.524-.5-1.049-.5-.525.328-1.051.328-.887-.642-1.08-.153.489.305.866.681.262,1.276.763,1.094c.483-.175.106-.77.106-1.284s-.152-.513-.152-1.026-.2-.514-.2-1.027.163-.514.163-1.028-.187-.512-.187-1.025.185-.511.185-1.022-.1-.513-.1-1.025.266-.515.266-1.029-.134-.514-.134-1.027-.127-.514-.127-1.027.179-.515.179-1.03.143-.515.143-1.029-.129-.515-.129-1.03.182-.513.182-1.026-.059-.515-.059-1.031-.165-.516-.165-1.032-.362-.518-.362-1.036.757-.789.272-.97-.509.155-.886.531-.622.375-.66.906c-.025.349.413.035.763.03a1.6,1.6,0,0,0,1.1-.458,1.573,1.573,0,0,0,.335-1.129,1.416,1.416,0,0,0-.481-.956c-.261-.26-.571-.187-.966-.2" fill="#0d4b08"/><path d="M47.017,52.666c.519.006.516.457,1.035.457s.519-.192,1.039-.192.52-.065,1.041-.065.521-.107,1.042-.107.521-.019,1.041-.019.52-.1,1.04-.1.52.407,1.039.407.52.137,1.039.137.52-.294,1.041-.294.52.279,1.041.279.522-.39,1.043-.39.521.445,1.041.445.521-.452,1.041-.452.521.259,1.041.259.522-.229,1.043-.229.521.359,1.043.359.521-.049,1.041-.049.522.042,1.043.042.522-.235,1.043-.235.52-.2,1.04-.2.519.407,1.038.407.52-.475,1.04-.475.522.166,1.044.166S71.478,52.7,72,52.7s.521.308,1.042.308.523-.033,1.046-.033.522-.071,1.044-.071.523.078,1.045.078.521-.263,1.041-.263.524.2,1.047.2.524-.263,1.048-.263.525.241,1.051.241.529.261,1.054.254c.416-.019.636-.575.9-.859s.612-.538.594-.954c-.018-.39-.345-.629-.6-.887a1.382,1.382,0,0,0-.89-.548c-.519-.006-.519.027-1.038.027s-.519-.334-1.039-.334-.52.614-1.041.614-.521-.492-1.042-.492-.521.161-1.041.161-.52-.278-1.04-.278-.519.088-1.039.088-.52.5-1.039.5-.52-.373-1.04-.373-.521-.2-1.042-.2-.522.224-1.043.224-.521.232-1.041.232-.521-.221-1.041-.221-.521.12-1.041.12-.522-.248-1.043-.248-.521.339-1.043.339-.52-.075-1.041-.075-.522-.076-1.043-.076-.522.077-1.043.077-.52-.1-1.04-.1-.519-.172-1.038-.172-.52.095-1.04.095-.522.122-1.044.122-.522-.127-1.043-.127-.521.194-1.042.194-.523-.209-1.046-.209-.522.023-1.044.023-.523.133-1.045.133-.521.137-1.041.137-.524.015-1.047.015-.524-.408-1.048-.408-.525.077-1.051.077-.528-.054-1.053-.047c-.416.018-.64.52-.9.8a1.3,1.3,0,0,0-.484.952c.018.39-.008.882.25,1.14s.75.04,1.14.057" fill="#0d4b08"/><path d="M19.559,56.745a1.691,1.691,0,0,1-1.707-1.675v-.025a6.528,6.528,0,0,1,1.26-3.665,7.65,7.65,0,0,1,1.275-1.361,6.755,6.755,0,0,1,8.63,0,7.687,7.687,0,0,1,1.275,1.361,6.521,6.521,0,0,1,1.26,3.665,1.691,1.691,0,0,1-1.682,1.7H19.559Z" fill="#407b3e"/><path d="M29.09,43.256a4.788,4.788,0,0,0-2.016-1.883,5.4,5.4,0,0,0-1.981-.532,5.947,5.947,0,0,0-1.575.1,4.6,4.6,0,0,0-2.569,1.46,5.44,5.44,0,0,0-1.076,1.828,4.622,4.622,0,0,0-.248,1.529,4.859,4.859,0,0,0,.786,2.72,4.751,4.751,0,0,0,.89,1.028,5.466,5.466,0,0,0,1.794,1.023,5.568,5.568,0,0,0,2.97.07,4.712,4.712,0,0,0,2.384-1.424,4.926,4.926,0,0,0,.777-1.121,5.472,5.472,0,0,0,.539-2.045,4.806,4.806,0,0,0-.676-2.762Z" fill="#407b3e"/><path d="M157.337,140.538H216.1a4.52,4.52,0,0,1,4.52,4.52V209.1a4.52,4.52,0,0,1-4.52,4.52H157.337a4.52,4.52,0,0,1-4.52-4.52V145.058a4.52,4.52,0,0,1,4.52-4.52" fill="#407b3e"/><path d="M220.619,149.673c-.512,0-.512.124-1.025.124s-.512-.265-1.025-.265-.512.375-1.025.375-.512.055-1.025.055-.512-.284-1.025-.284-.512-.053-1.025-.053-.513.03-1.026.03-.513.212-1.026.212-.514-.2-1.028-.2-.513.174-1.027.174-.513-.1-1.026-.1-.513.081-1.026.081-.513-.224-1.026-.224-.513-.138-1.026-.138-.512.324-1.025.324-.513-.4-1.026-.4-.513.532-1.026.532-.514-.273-1.027-.273-.514.214-1.028.214-.51.108-1.02.108-.511-.282-1.022-.282-.51-.305-1.021-.305-.512.553-1.023.553-.512-.458-1.024-.458-.513.193-1.026.193-.514.065-1.027.065-.514.107-1.028.107-.513.019-1.027.019-.512.1-1.025.1-.512-.407-1.024-.407-.512-.138-1.024-.138-.512.294-1.024.294-.512-.279-1.024-.279-.512.391-1.025.391-.513-.445-1.026-.445-.514.452-1.028.452-.514-.259-1.029-.259-.514.229-1.028.229-.513-.359-1.027-.359-.513.049-1.026.049-.513-.042-1.026-.042-.513.234-1.027.234-.514.2-1.029.2-.515-.406-1.029-.406-.514.475-1.029.475-.513-.166-1.027-.166-.514.116-1.028.116-.515-.308-1.03-.308-.515.032-1.03.032-.514.072-1.028.072-.515-.078-1.03-.078-.515.263-1.03.263-.513-.2-1.026-.2-.513.264-1.026.264-.513-.242-1.026-.242-.516-.253-1.032-.253-.514.435-1.029.435-.515-.252-1.029-.252-.517.208-1.033.208-.515-.153-1.031-.153-.516.027-1.032.027-.514-.334-1.028-.334-.517.614-1.033.614-.518-.492-1.035-.492-.519.161-1.038.161-.523-.284-1.042-.278a2.071,2.071,0,0,0-1.2.645c-.26.285.035.8.054,1.216.017.39-.166.812.092,1.07a1.949,1.949,0,0,0,1.053.669c.513.006.516-.225,1.029-.225s.512-.231,1.025-.231.512.22,1.025.22.512-.119,1.024-.119.513.248,1.026.248.512-.339,1.025-.339.513.075,1.026.075.513.076,1.026.076.514-.078,1.028-.078.513.105,1.027.105.513.172,1.026.172.513-.1,1.026-.1.513-.121,1.026-.121.513.127,1.026.127.512-.194,1.025-.194.513.209,1.026.209.513-.023,1.026-.023.514-.134,1.027-.134.514-.137,1.028-.137.51-.014,1.02-.014.511.408,1.022.408.51-.077,1.021-.077.512.047,1.023.047.512-.379,1.024-.379.513.141,1.026.141.514.248,1.027.248.514-.1,1.028-.1.513-.186,1.027-.186.512.161,1.025.161.512-.105,1.024-.105.512.305,1.024.305l1.024,0c.512,0,.512.014,1.024.014s.512-.414,1.025-.414.513.152,1.026.152.514.075,1.028.075.514-.076,1.029-.076.514-.324,1.028-.324.513.562,1.027.562.513-.063,1.026-.063.513-.5,1.026-.5.513.468,1.027.468.514.064,1.029.064.515-.033,1.029-.033.514-.356,1.029-.356.513-.044,1.027-.044.514-.077,1.028-.077.515.1,1.03.1.515.015,1.03.015.514.306,1.028.306.515,0,1.03,0,.515.013,1.03.013.513-.2,1.026-.2.513.077,1.026.077.513-.063,1.026-.063.516-.064,1.032-.064.514-.193,1.029-.193.515.316,1.029.316.517-.283,1.033-.283.515.208,1.031.208.516-.032,1.032-.032.514.3,1.028.3.517-.5,1.033-.5.518.372,1.035.372.519.135,1.038.135.52-.165,1.039-.172c.416-.019.563-.462.824-.747s.664-.469.645-.885a1.854,1.854,0,0,0-.305-1.163,2.017,2.017,0,0,0-1.153-.536" fill="#0d4b08"/><rect width="50.613" height="10.834" transform="translate(161.411 159.485)" fill="#fefffd"/><path d="M161.413,171.647c.341,0,.681.219,1.023.219s.682.126,1.024.126.682-.274,1.024-.274.682.408,1.024.408.683-.509,1.024-.509.683.238,1.024.238.683-.088,1.024-.088.683-.213,1.024-.213.683.422,1.024.422.683.042,1.024.042.683.11,1.024.11.683-.579,1.025-.579.682.549,1.024.549.682-.157,1.024-.157.683-.228,1.024-.228.683.053,1.024.053.683.167,1.024.167.683-.213,1.024-.213.683.075,1.024.075.683.041,1.024.041.683-.093,1.025-.093.682-.013,1.024-.013.682.329,1.024.329.682-.368,1.024-.368.683.414,1.024.414.683-.386,1.024-.386.683-.081,1.024-.081.683.025,1.024.025.683.131,1.024.131l1.024,0c.342,0,.683-.018,1.025-.018s.682-.219,1.024-.219.682.326,1.024.326h1.024c.341,0,.683.184,1.024.184s.683-.1,1.024-.1.683-.357,1.024-.357.683.5,1.024.5.683-.261,1.025-.261.682.171,1.024.171.682-.192,1.024-.192.683.106,1.024.106.683-.077,1.024-.077.683-.053,1.024-.053.683-.231,1.024-.231.683.124,1.024.124c.583,0,.583.389,1.165.389s.584-.254,1.168-.254.583-.122,1.167-.124c.414-.006.9.043,1.172-.229s.113-.759.119-1.173c0-.492-.054-.491-.054-.982s.283-.491.283-.982.053-.49.053-.981-.029-.492-.029-.985-.213-.491-.213-.983.2-.492.2-.984-.174-.49-.174-.98.1-.493.1-.986-.081-.493-.081-.987.223-.494.223-.989.141-.5.139-.991c-.006-.413-.472-.717-.744-.989s-.575-.813-.988-.819c-.516,0-.518.532-1.033.532s-.517-.273-1.033-.273-.513.214-1.026.214-.513.108-1.026.108-.513-.282-1.027-.282-.514-.305-1.028-.305-.514.553-1.029.553-.515-.458-1.03-.458-.517.193-1.033.193-.516.064-1.033.064-.516.108-1.031.108-.515.019-1.03.019-.515.1-1.03.1-.514-.407-1.029-.407-.514-.138-1.029-.138-.514.294-1.029.294-.515-.279-1.03-.279-.515.391-1.031.391-.516-.445-1.032-.445-.518.452-1.035.452-.516-.259-1.033-.259-.516.229-1.032.229-.515-.359-1.031-.359-.515.049-1.031.049-.516-.042-1.032-.042-.517.234-1.034.234-.517.2-1.035.2-.516-.407-1.033-.407-.516.476-1.032.476-.517-.166-1.034-.166-.517.116-1.034.116-.518-.308-1.035-.308-.517.032-1.034.032-.517.071-1.034.071-.518-.077-1.036-.077-.515.262-1.031.262-.515-.2-1.03-.2-.516.264-1.032.264-.518-.242-1.037-.242-.517-.253-1.034-.253-.517.435-1.034.435-.519-.252-1.038-.252-.518.208-1.036.208-.518-.153-1.037-.153-.517.027-1.033.027-.519-.334-1.039-.334-.52.614-1.04.614-.521-.492-1.043-.492-.521.159-1.043.161c-.413.006-1-.014-1.271.258a2.083,2.083,0,0,0-.448,1.27c0,.492.5.493.5.984s-.373.491-.373.982-.2.49-.2.981.224.492.224.984.232.491.232.983-.221.492-.221.984.12.49.12.98-.248.492-.248.985.339.493.339.986-.075.5-.075.99-.082.494-.076.989a1.414,1.414,0,0,0,.53.987,1.445,1.445,0,0,0,1.024.484,1.779,1.779,0,0,0,1.146-.324,1.827,1.827,0,0,0,.4-1.146c.006-.491-.121-.492-.121-.984s.127-.491.127-.981-.194-.491-.194-.981.209-.493.209-.985-.023-.491-.023-.982-.133-.492-.133-.985-.137-.489-.137-.979-.015-.493-.015-.986.408-.493.408-.986-.077-.5-.077-.989.389-1.019-.083-1.167c-.509-.159-.295.691-.672,1.067s-1.026.1-.841.6c.179.484.466.214.982.214s.517-.1,1.033-.1.513-.186,1.026-.186.513.161,1.026.161.514-.1,1.027-.1.514.3,1.028.3.515,0,1.029,0,.516.014,1.031.014.516-.414,1.033-.414.516.151,1.033.151.516.076,1.031.076.515-.076,1.031-.076.514-.324,1.029-.324.515.562,1.029.562.515-.063,1.029-.063.515-.5,1.029-.5.515.468,1.03.468.516.064,1.031.064.517-.033,1.033-.033.518-.356,1.035-.356.516-.044,1.033-.044.516-.077,1.032-.077.515.1,1.031.1.516.015,1.031.015.516.306,1.033.306.516,0,1.033,0,.518.012,1.035.012.517-.2,1.034-.2.516.077,1.032.077.517-.063,1.034-.063.517-.064,1.034-.064.518-.193,1.035-.193.517.316,1.034.316.517-.283,1.034-.283.518.207,1.036.207.516-.031,1.032-.031.515.3,1.03.3.516-.5,1.032-.5.518.372,1.037.372.517.135,1.034.135.517-.172,1.034-.172.519-.356,1.038-.356.518.33,1.036.33.519.2,1.038.2.516.028,1.033.028.519-.561,1.038-.561.52.519,1.04.519.522-.049,1.043-.049.7.255.885-.232-.325-.209-.7-.585-.081-.833-.591-.677c-.47.143-.086.308-.086.8s-.067.491-.067.982.122.49.122.981.279.492.279.984-.239.491-.239.983-.164.492-.164.984.323.49.323.98-.042.492-.042.985-.159.493-.159.986-.229.5-.229.99-.283.9.189,1.044c.509.159.368-.458.745-.835s.858-.188.673-.687-.41-.168-.926-.168-.516-.159-1.032-.159-.513.219-1.026.219-.513.246-1.026.246-.514-.347-1.027-.347-.514.322-1.028.322-.515-.127-1.029-.127-.516-.216-1.031-.216-.517.25-1.033.25-.516-.143-1.033-.143-.516-.08-1.031-.08-.516.271-1.031.271-.514-.37-1.029-.37-.515.083-1.029.083-.515.448-1.029.448-.515-.522-1.029-.522-.515.241-1.03.241-.516-.173-1.032-.173-.516.193-1.032.193-.518.271-1.035.271-.517-.134-1.033-.134-.516-.016-1.032-.016-.515-.107-1.031-.107-.516-.293-1.031-.293-.517.017-1.033.017-.517.411-1.033.411-.518.14-1.035.14-.517-.323-1.034-.323-.516-.073-1.032-.073-.517.236-1.034.236-.517-.1-1.035-.1-.517.078-1.034.078-.517-.275-1.034-.275-.517,0-1.035,0-.517-.058-1.035-.058-.516.3-1.032.3-.515-.373-1.03-.373-.516.193-1.032.193-.518-.016-1.037-.016-.517-.1-1.034-.1-.517.068-1.034.068-.519.258-1.038.258-.518-.087-1.036-.087-.519-.027-1.038-.027-.516.185-1.033.185-.519.022-1.038.022-.52-.458-1.04-.458-.522.408-1.043.408-.525-.437-1.046-.431a1.923,1.923,0,0,0-1.114.7,1.832,1.832,0,0,0-.56,1.152c.015.4.394.752.655,1.013a1.389,1.389,0,0,0,.993.36.063.063,0,0,0,.03-.1" fill="#0d4b08"/><path d="M199.526,218.962v-5.347H173.911v8.066a.754.754,0,0,0,.753.753h24.108a.754.754,0,0,0,.753-.753Z" fill="#fefffd"/><path d="M172.7,214.393c0,.471-.128.471-.128.942s-.394.47-.394.939.22.472.22.944.225.473.225.945-.347.474-.347.948.194.476.18.95c-.038.293-.4.592-.395.886a6.731,6.731,0,0,0,.237.9,6.531,6.531,0,0,0,.219.89c.186.362.724.317,1,.5a2.078,2.078,0,0,0,.853.472,6.061,6.061,0,0,0,1.043.031c.513,0,.513.164,1.027.164s.512-.179,1.025-.179.513.511,1.026.511.514-.4,1.028-.4.514-.164,1.028-.164.513.422,1.027.422.513-.081,1.027-.081.514.178,1.029.178.512.005,1.024.005.512-.312,1.023-.312.513.134,1.025.134.515.094,1.03.094.513-.157,1.027-.157.513.005,1.027.005.515-.2,1.031-.2.514.219,1.029.219.515.126,1.03.126.513-.274,1.026-.274.516.408,1.032.408.516-.509,1.033-.509.518.238,1.035.238.518-.088,1.036-.088c.305,0,.571-.225.864-.267s.7.286.97.166a2.378,2.378,0,0,0,.806-.544,2.693,2.693,0,0,0,.568-.85c.066-.368-.463-.821-.448-1.193s.555-.741.519-1.113c-.014-.538-.157-.531-.157-1.07s-.229-.537-.229-1.073.053-.54.053-1.079.167-.54.167-1.081-.213-.541-.213-1.083.082-.542.076-1.083a1.5,1.5,0,0,0-.453-1.057,1.467,1.467,0,0,0-1.091-.3,1.345,1.345,0,0,0-.937.427c-.258.258-.725.541-.742.931-.007.537.367.54.367,1.078s-.413.539-.413,1.078.386.536.386,1.072.081.54.081,1.079-.025.54-.025,1.08-.132.542-.132,1.083.01.542,0,1.084a1.8,1.8,0,0,0-.066.521c-.27-.6-.273-1.1-.131-1.152.273-.108.981.6.2.331a3.521,3.521,0,0,0-.761,0c-.5.011-.5-.185-1.007-.185s-.5.1-1.01.1-.505.358-1.01.358-.505-.5-1.009-.5-.505.261-1.01.261-.5-.171-1.01-.171-.5.191-1.007.191-.5-.105-1.006-.105-.5.076-1.007.076-.506.054-1.012.054-.505.23-1.009.23-.505-.123-1.01-.123-.507-.389-1.013-.389-.506.253-1.011.253-.507.124-1.013.124-.5-.265-1.008-.265-.507.376-1.014.376-.508.054-1.015.054-.509-.284-1.019-.284-.507-.036-1.015-.052a6.565,6.565,0,0,0-.93-.036c-.31,0-.567.226-.875.269-.591.239.61-.477.127.552.008-.017-.13-.062-.13-.077.01-.09.106-.168.1-.257.025-.415-.081-.839-.081-1.254,0-.471.223-.471.223-.943s.139-.469.139-.938-.325-.472-.325-.944.4-.473.4-.946-.533-.474-.533-.948.28-.474.273-.948c-.018-.416-.362-.658-.647-.919a1.128,1.128,0,0,0-.957-.241c-.39.017-.756-.1-1.014.159a2.323,2.323,0,0,0-.69,1.179c.086.121.547-.175.547-.172" fill="#0d4b08"/><path d="M216.1,138.912c-.51,0-.51.368-1.021.368s-.51-.02-1.02-.02-.511-.242-1.021-.242-.51-.255-1.021-.255-.51.259-1.02.259-.511-.169-1.022-.169-.51.17-1.021.17-.508-.2-1.016-.2-.508-.008-1.015-.008-.508.234-1.017.234l-1.016,0c-.509,0-.509-.113-1.018-.113s-.51.366-1.02.366-.51-.027-1.02-.027-.512,0-1.023,0-.511-.26-1.023-.26-.511.187-1.021.187-.511-.457-1.021-.457-.509.208-1.019.208-.51.038-1.019.038-.51-.008-1.019-.008-.51-.092-1.019-.092-.51.274-1.02.274-.511-.051-1.021-.051-.512-.373-1.023-.373-.512.119-1.025.119-.511.269-1.023.269-.51-.379-1.021-.379-.511.519-1.022.519-.51-.045-1.021-.045-.511-.484-1.022-.484-.512,0-1.024,0-.512.4-1.025.4-.511.031-1.023.031-.511.029-1.023.029-.511-.058-1.023-.058-.512.058-1.024.058-.513-.092-1.025-.092-.512-.211-1.024-.211-.512.427-1.024.427-.513-.133-1.026-.133-.511-.257-1.021-.257-.51-.206-1.021-.206-.511.362-1.021.362-.514.1-1.027.1-.512-.2-1.024-.2-.512.165-1.025.165-.513-.055-1.027-.055-.513-.375-1.026-.375-.514.23-1.028.23-.511-.1-1.023-.1-.514.4-1.028.4-.515.021-1.03.021-.516-.238-1.033-.238-.516-.137-1.033-.137c-.413,0-.825-.079-1.239-.081s-.823.5-1.236.507c-.359,0-.743-.416-1.085-.354a6.522,6.522,0,0,0-1.065.23c-.333.123-.565.5-.868.674a3.324,3.324,0,0,0-1.526,1.414,6.265,6.265,0,0,0-.723.772c-.176.3-.546.545-.669.879s.07.764.007,1.115-.436.68-.438,1.039c-.007.322.219.647.216.969s-.245.644-.247.966.387.645.388.966.062.644.064.966-.249.646-.247.968.094.643.1.965.009.644.01.966-.081.644-.081.965c0,.509-.215.509-.215,1.018s.266.509.266,1.018-.1.509-.1,1.018.173.51.173,1.019.038.509.038,1.018-.014.51-.014,1.02-.334.506-.334,1.012.133.507.133,1.013.253.507.253,1.014-.252.507-.252,1.015.438.507.438,1.015-.128.508-.128,1.017-.394.509-.394,1.018.219.51.219,1.02.226.51.226,1.02-.347.51-.347,1.019.18.509.18,1.018-.349.508-.349,1.017.153.508.153,1.016,0,.508,0,1.017.446.508.446,1.016-.142.509-.142,1.018.04.509.04,1.018-.163.51-.163,1.02.179.511.179,1.022-.512.511-.512,1.021.4.509.4,1.019.165.509.165,1.019-.423.509-.423,1.018.081.51.081,1.02-.177.511-.177,1.021-.005.511-.005,1.022.311.511.311,1.021-.134.51-.134,1.02-.094.511-.094,1.021.158.511.158,1.022-.006.511-.006,1.022.2.511.2,1.021-.218.511-.218,1.022-.126.511-.126,1.023.274.509.274,1.019-.408.509-.408,1.017.509.51.509,1.02-.239.512-.239,1.024.089.511.089,1.021.212.511.212,1.022-.422.513-.422,1.025-.042.512-.042,1.024-.109.512-.109,1.025.578.51.578,1.02-.549.513-.549,1.026.157.514.157,1.028.229.515.229,1.03-.045.516-.054,1.031a8.85,8.85,0,0,0-.178.991c.015.329.261.635.314.959a6.441,6.441,0,0,0,.43,1.916,6.3,6.3,0,0,0,.628.814,6.068,6.068,0,0,0,.685.746c.25.237.322.715.605.907s.771.046,1.083.189.505.652.836.742.752-.222,1.1-.187a6.209,6.209,0,0,0,1.013-.06c.512-.008.514.025,1.026.025s.511.131,1.022.131l1.024,0c.511,0,.511-.018,1.023-.018s.513-.218,1.025-.218.509.325,1.017.325h1.018c.51,0,.51.185,1.019.185s.51-.1,1.02-.1.51-.357,1.021-.357.511.5,1.022.5.512-.261,1.025-.261.512.171,1.024.171.512-.192,1.023-.192.511.106,1.022.106.511-.077,1.022-.077.51-.053,1.021-.053.51-.231,1.02-.231.511.124,1.021.124.511.389,1.022.389.511-.253,1.023-.253.512-.125,1.024-.125.513.265,1.027.265.512-.375,1.024-.375.512-.054,1.024-.054.511.283,1.023.283.511.053,1.023.053.512-.029,1.024-.029.513-.213,1.025-.213.514.2,1.027.2.512-.174,1.025-.174.512.1,1.024.1.513-.081,1.025-.081.514.223,1.027.223.513.138,1.026.138.513-.324,1.026-.324.513.4,1.026.4.514-.533,1.027-.533.512.273,1.024.273.511-.214,1.022-.214.512-.108,1.023-.108.514.282,1.029.282.513.306,1.026.306.513-.553,1.026-.553.514.457,1.029.457.514-.192,1.028-.192.515-.065,1.029-.065.512-.107,1.025-.107.515-.02,1.03-.02.516-.1,1.032-.1.517.408,1.035.408.517.137,1.034.137c.325,0,.66-.287,1-.278s.654.3.992.307.674-.374,1.009-.372.679.444,1.013.432.644-.484.975-.517.7.175,1.028.111.6-.368.911-.472.776.093,1.072-.061a5.877,5.877,0,0,0,.849-.6,5.5,5.5,0,0,0,.783-.69c.228-.264.247-.7.415-.987a6.15,6.15,0,0,0,.248-.994c.118-.318.6-.531.677-.865s-.34-.744-.3-1.084.23-.65.245-.993-.1-.676-.1-1.017.3-.689.292-1.028-.052-.684-.061-1.019-.087-.685-.087-1.018c0-.516.077-.516.077-1.032s-.262-.517-.262-1.033.2-.513.2-1.026-.264-.513-.264-1.026.242-.514.242-1.028.254-.514.254-1.028-.435-.515-.435-1.029.252-.516.252-1.031-.209-.517-.209-1.033.154-.517.154-1.033-.027-.516-.027-1.032.333-.516.333-1.031-.613-.515-.613-1.03.492-.514.492-1.029-.161-.514-.161-1.029.277-.515.277-1.03-.087-.515-.087-1.03-.5-.515-.5-1.031.372-.517.372-1.033.205-.518.205-1.035-.225-.517-.225-1.033-.231-.516-.231-1.032.22-.516.22-1.032-.119-.516-.119-1.032.248-.516.248-1.032-.339-.517-.339-1.034.075-.518.075-1.035.076-.517.076-1.034-.078-.516-.078-1.033.1-.516.1-1.033.172-.518.172-1.035-.1-.518-.1-1.035-.121-.517-.121-1.034.127-.518.127-1.035-.194-.518-.194-1.036.209-.516.209-1.032-.023-.515-.023-1.03-.134-.516-.134-1.032-.137-.519-.137-1.037-.014-.518-.014-1.035.408-.517.408-1.035-.077-.519-.077-1.038.047-.518.047-1.036-.379-.519-.379-1.038.141-.516.141-1.033.248-.519.248-1.039-.1-.52-.1-1.04-.186-.522-.186-1.043.161-.522.161-1.044c0-.35-.1-.7-.1-1.051s.306-.7.307-1.05,0-.7,0-1.051.016-.7.017-1.052-.413-.7-.413-1.053.152-.7.151-1.051.074-.7.072-1.053-.079-.7-.082-1.051-.346-.666-.4-1.011.394-.834.277-1.165a6.6,6.6,0,0,0-.513-.978c-.175-.31-.784-.313-1.009-.586s-.131-.846-.4-1.077a4.185,4.185,0,0,0-1.854-1.143c-.328-.125-.77.117-1.122.049a5.939,5.939,0,0,0-1.031-.063.957.957,0,0,0-.716.277c-.257.188-.414.283-.5.588a1.4,1.4,0,0,0,0,.832c.087.3.01.729.263.925a1.756,1.756,0,0,0,.955.327,2.938,2.938,0,0,1,.972.188c.342.123.721.123.974.348a3.026,3.026,0,0,1,.58.864,3.8,3.8,0,0,1,.415.953,4.883,4.883,0,0,1,.175,1.04c0,.514.192.514.192,1.027s-.315.513-.315,1.027.282.514.282,1.028-.207.514-.207,1.028.031.514.031,1.028-.3.514-.3,1.028.5.514.5,1.027-.372.514-.372,1.027-.135.514-.135,1.027.172.513.172,1.027.356.513.356,1.027-.33.514-.33,1.027-.2.514-.2,1.028-.028.515-.028,1.029.561.511.561,1.022-.519.511-.519,1.022.049.512.049,1.023.341.512.341,1.024-.018.513-.018,1.026.04.513.04,1.026-.222.515-.222,1.029-.067.515-.067,1.029.122.514.122,1.028.278.513.278,1.026-.238.513-.238,1.026-.164.512-.164,1.025.323.512.323,1.025-.043.512-.043,1.025-.159.513-.159,1.026-.228.514-.228,1.027.148.515.148,1.029.095.515.095,1.031.077.514.077,1.029-.241.514-.241,1.028-.159.513-.159,1.027.218.514.218,1.027.246.514.246,1.029-.347.515-.347,1.029.322.516.322,1.031-.127.515-.127,1.03-.216.514-.216,1.029.25.514.25,1.029-.143.515-.143,1.031-.08.515-.08,1.03.271.515.271,1.03-.37.516-.37,1.031.084.516.084,1.032.447.513.447,1.027-.522.513-.522,1.026.241.514.241,1.028-.173.517-.173,1.033.193.515.193,1.03.271.516.271,1.031-.134.517-.134,1.034-.015.516-.015,1.032-.108.517-.108,1.033-.293.515-.293,1.029.017.518.017,1.035.411.518.411,1.036.14.52.14,1.039-.323.52-.323,1.039a7.23,7.23,0,0,1-.141,1.056c-.054.362.081.78-.059,1.1a2.944,2.944,0,0,1-.705.847,2.977,2.977,0,0,1-.88.661c-.284.08-.635-.125-.926-.081a4.566,4.566,0,0,1-1.732-.026c-.516-.012-.522.3-1.038.3s-.516-.373-1.032-.373-.516.193-1.032.193-.515-.015-1.031-.015-.516-.1-1.032-.1-.517.068-1.033.068-.516.259-1.033.259-.517-.088-1.034-.088-.513-.027-1.026-.027-.514.185-1.028.185-.514.022-1.028.022-.514-.458-1.029-.458-.515.408-1.03.408-.516-.431-1.032-.431-.517.189-1.033.189-.517-.133-1.034-.133-.517.21-1.033.21-.515.09-1.031.09-.515.179-1.031.179-.515-.485-1.03-.485-.515.407-1.03.407-.515-.381-1.03-.381-.515.414-1.031.414-.516.046-1.032.046-.517-.146-1.034-.146-.518,0-1.036,0-.517-.037-1.034-.037-.516.06-1.032.06-.517-.25-1.033-.25-.516-.12-1.032-.12-.517.336-1.033.336-.518-.14-1.035-.14-.518.244-1.036.244-.517-.168-1.034-.168-.517.116-1.034.116-.517-.241-1.034-.241-.518-.014-1.036-.014-.518.215-1.036.215-.518-.041-1.035-.041-.518.059-1.035.059-.519.1-1.037.1-.516-.041-1.033-.041-.515.128-1.031.128-.517-.5-1.033-.5-.519.328-1.038.328-.517-.173-1.035-.173-.518.15-1.035.15-.52-.392-1.039-.392-.519.075-1.037.075-.52.151-1.039.151-.517.2-1.034.2-.52-.162-1.039-.162-.521.187-1.042.187-.522-.185-1.044-.185-.52.081-1.042.094c-.337.034-.633-.248-.947-.316a3.006,3.006,0,0,1-.933-.221,3.269,3.269,0,0,1-.847-.529,3.323,3.323,0,0,1-.385-.921,3.012,3.012,0,0,1-.1-.938c-.007-.069-.14-.119-.142-.189-.012-.32.169-.634.172-.955s-.05-.645-.05-.965c0-.516-.165-.516-.165-1.032s-.362-.516-.362-1.032.227-.516.227-1.031.291-.516.291-1.031-.158-.516-.158-1.031-.038-.515-.038-1.03.045-.516.045-1.031-.087-.515-.087-1.031-.063-.515-.063-1.031-.216-.516-.216-1.032.313-.516.313-1.032.235-.513.235-1.026-.493-.513-.493-1.026.545-.513.545-1.026-.573-.514-.573-1.028.353-.515.353-1.029.116-.516.116-1.031.048-.516.048-1.032-.144-.517-.144-1.033-.416-.516-.416-1.031.4-.515.4-1.03-.1-.515-.1-1.03.17-.514.17-1.028-.074-.515-.074-1.029.193-.515.193-1.029-.505-.515-.505-1.03.23-.515.23-1.031.084-.516.084-1.032-.348-.518-.348-1.035.013-.516.013-1.033.317-.515.317-1.031.159-.516.159-1.031-.352-.516-.352-1.031.074-.516.074-1.032-.129-.517-.129-1.034-.068-.517-.068-1.035.424-.516.424-1.033-.294-.516-.294-1.032.28-.517.28-1.033-.131-.518-.131-1.035-.18-.517-.18-1.034-.119-.517-.119-1.034-.024-.517-.024-1.034.221-.518.221-1.036-.106-.515-.106-1.031-.109-.515-.109-1.03.587-.516.587-1.032-.1-.518-.1-1.036-.459-.517-.459-1.034.455-.517.455-1.034-.078-.519-.078-1.038-.162-.518-.162-1.036.033-.518.033-1.037-.192-.516-.192-1.033-.057-.519-.057-1.038.041-.52.041-1.04.456-.522.456-1.043.052-.521.052-1.043c0-.364-.169-.729-.17-1.093s.037-.726.041-1.09a2.838,2.838,0,0,1,.135-.914c.106-.312.077-.685.27-.942A2.225,2.225,0,0,1,157.465,142c.062,0,.121.316.182.321.339,0,.68-.254,1.019-.255s.678-.033,1.017-.034.677-.069,1.016-.07.678.023,1.017.022.678.134,1.017.133.678.183,1.017.183.677-.585,1.016-.585.678.159,1.017.159.678.321,1.017.321h1.016c.339,0,.678-.223,1.017-.223s.678.146,1.017.147.678-.115,1.017-.114.678-.046,1.017-.045.677.227,1.016.227.678-.032,1.017-.031.678.107,1.016.108.679-.265,1.018-.264.678-.142,1.017-.142.677-.108,1.016-.108.678.435,1.017.435.678-.213,1.017-.212.677-.015,1.016-.015.678-.17,1.017-.169.678.014,1.017.014.677.093,1.016.093c.516,0,.516.216,1.031.216s.516-.021,1.033-.021.515.02,1.031.02.515-.36,1.03-.36.514.182,1.029.182.514-.008,1.029-.008.515-.036,1.03-.036.516.084,1.032.084.517.133,1.033.133.516.213,1.031.213.516-.045,1.031-.045.516-.348,1.031-.348.517-.124,1.033-.124.517.355,1.033.355.516-.4,1.032-.4.516.129,1.032.129.517-.15,1.034-.15.515.389,1.029.389.515-.128,1.029-.128.515-.123,1.03-.123.517.068,1.034.068.517.287,1.033.287.516-.069,1.032-.069.518.084,1.036.084.517-.509,1.034-.509.518.263,1.035.263.516.158,1.032.158.518-.291,1.036-.291.519.28,1.038.28.521.007,1.041.007.519-.308,1.039-.314a1.193,1.193,0,0,0,.951-.37,1.1,1.1,0,0,0-.035-1.9c-.261-.261-.462-.695-.857-.71-.055-.018-.055.054-.056.054" fill="#0d4b08"/><path d="M178.632,183.713c.5,0,.5-.207,1.009-.207s.5.445,1.01.445.5-.542,1.006-.542.5-.007,1.005-.007.5.018,1.007.018.506.1,1.012.1.5-.056,1.009-.056.5.5,1.009.5.506-.191,1.012-.191.506-.368,1.011-.368.506.02,1.012.02.5.242,1.008.242.507.255,1.013.255.507-.259,1.015-.259.509.168,1.017.168.509-.165,1.018-.169a2.175,2.175,0,0,0,1.005-.107,2.251,2.251,0,0,0,.718-.757c.145-.272.014-.682,0-1.012a1.76,1.76,0,0,0-.247-.852,1.936,1.936,0,0,0-.57-.726c-.253-.15-.6.113-.911.1-.5,0-.5-.027-1.007-.027s-.505,0-1.01,0-.5-.259-1.006-.259-.5.187-1.005.187-.5-.457-1.007-.457-.506.208-1.012.208-.5.038-1.009.038-.5-.009-1.009-.009-.506-.092-1.012-.092-.506.275-1.011.275-.506-.051-1.012-.051-.5-.374-1.008-.374-.507.119-1.013.119-.507.269-1.015.269-.509-.379-1.017-.379-.507.515-1.016.519a1.386,1.386,0,0,0-.793.2c-.269.168-.847.1-1,.38a2.415,2.415,0,0,0-.242,1.056c.011.315.486.537.637.791a1.561,1.561,0,0,0,.608.565,1.509,1.509,0,0,0,.79.2" fill="#0d4b08"/><path d="M195.383,186.8c-.509,0-.509.2-1.017.2s-.509-.337-1.018-.337-.509.365-1.018.365-.508-.465-1.015-.465-.507.283-1.014.283-.508.042-1.015.042-.51.206-1.02.206-.509-.38-1.018-.38-.509-.135-1.018-.135-.51-.073-1.021-.073-.509.222-1.019.222-.51.07-1.021.07-.508.089-1.016.089-.511-.137-1.022-.137-.512.207-1.023.207-.514-.445-1.027-.445-.511.537-1.024.542a1.315,1.315,0,0,0-.762.24,1.367,1.367,0,0,0-.564.578,1.458,1.458,0,0,0-.286.794,1.493,1.493,0,0,0,.28.768c.155.261.049.846.31,1a2.43,2.43,0,0,0,1.019.1c.488,0,.489-.368.978-.368s.489.019.978.019.487.243.974.243.49.255.979.255.491-.26.981-.26.492.169.984.169.646-.536.977-.172c.363.4-.2.534-.2,1.074s-.007.541-.007,1.082.234.541.234,1.081,0,.541,0,1.083-.113.538-.113,1.077.366.542.366,1.084-.028.542-.028,1.085,0,.544,0,1.088-.26.544-.26,1.088c0,.33.251.55.4.817s.094.834.368.993a2.349,2.349,0,0,0,1.044.073,2.032,2.032,0,0,0,1.6-.953,1.978,1.978,0,0,0,.34-.925l-.274,0c0-.539.051-.539.051-1.078s.374-.541.374-1.082-.12-.541-.12-1.081-.269-.541-.269-1.082.379-.538.379-1.077-.519-.541-.519-1.083.045-.542.045-1.084.484-.544.484-1.088-.439-.5-.076-.9c.326-.363.279-.309.768-.309s.489-.032.978-.032.487-.028.974-.028.49.058.979.058.491-.059.981-.059.492.093.984.093.492.214.984.21c.33-.011.472-.49.733-.653s.5-.226.65-.5.459-.5.448-.834a2.363,2.363,0,0,0-.087-1.007c-.154-.261-.659-.27-.92-.424a1.625,1.625,0,0,0-.831-.139" fill="#0d4b08"/><rect width="65.03" height="82.871" transform="translate(244.023 1.812)" fill="#fefffd"/><path d="M309.051.217c-.518,0-.518-.187-1.036-.187s-.517.388-1.035.388-.517.119-1.035.119-.517-.5-1.035-.5-.517.319-1.035.319-.518.014-1.035.014S302.322.5,301.8.5s-.518-.29-1.037-.29-.514.409-1.029.409S299.221.5,298.706.5s-.515.025-1.031.025-.516-.28-1.032-.28-.517.322-1.034.322-.517-.2-1.035-.2S294.056.31,293.538.31s-.519.168-1.038.168-.517-.406-1.035-.406-.517.421-1.035.421S289.913.419,289.4.419s-.517-.091-1.034-.091-.516-.22-1.033-.22-.516.367-1.033.367-.517.076-1.034.076-.518.038-1.036.038-.518-.4-1.037-.4-.519-.124-1.039-.124-.518.341-1.037.341S280.6.195,280.078.195s-.518-.088-1.035-.088-.518.064-1.036.064-.518.1-1.036.1-.519.123-1.038.123S275.413.1,274.894.1s-.519.47-1.038.47-.518-.452-1.037-.452S272.3.4,271.782.4s-.52-.08-1.039-.08-.52.121-1.039.121S269.185.1,268.666.1s-.52-.022-1.039-.022S267.107,0,266.587,0s-.518.487-1.036.487-.517-.033-1.034-.033-.518.077-1.036.077S262.96.389,262.44.389,261.921.337,261.4.337s-.519-.282-1.038-.282-.521-.042-1.042-.042-.52.52-1.04.52-.521-.02-1.042-.02S256.72.406,256.2.406s-.522.072-1.043.072-.522.088-1.045.088-.523-.429-1.047-.429-.524.305-1.047.305c-.328,0-.656-.157-.985-.16s-.658.154-.987.15-.656-.057-.985-.062-.656-.141-.985-.145-.657-.08-.986-.081-.656.4-.985.405-.655-.089-.983-.081-.657-.047-.985-.032c-.037,0-.083-.34-.12-.34-.414.006-.633.537-.9.808a1.162,1.162,0,0,0-.419.909c0,.511.031.511.031,1.022s-.014.511-.014,1.022.1.511.1,1.022-.429.511-.429,1.022.252.51.252,1.021.16.51.16,1.02-.5.511-.5,1.021.428.51.428,1.021-.365.51-.365,1.02.372.511.372,1.021-.4.511-.4,1.021.169.511.169,1.022-.207.511-.207,1.022.523.512.523,1.023-.08.512-.08,1.023-.412.511-.412,1.022,0,.511,0,1.022.38.511.38,1.021-.083.511-.083,1.022-.023.511-.023,1.021-.1.511-.1,1.022.1.511.1,1.022-.307.511-.307,1.023.185.508.185,1.016.3.508.3,1.016-.542.509-.542,1.017.5.509.5,1.018-.169.509-.169,1.019-.3.51-.3,1.02.457.511.457,1.021.053.512.053,1.024-.419.512-.419,1.023-.118.512-.118,1.023.34.51.34,1.021-.032.51-.032,1.02-.042.51-.042,1.02.2.51.2,1.02-.338.51-.338,1.02.365.51.365,1.02-.465.511-.465,1.022.284.512.284,1.024.041.513.041,1.025.206.512.206,1.024-.379.511-.379,1.023-.135.511-.135,1.022-.074.511-.074,1.022.222.511.222,1.023.071.512.071,1.024.089.513.089,1.026-.138.512-.138,1.024.208.512.208,1.024-.445.512-.445,1.024.541.512.541,1.025.007.513.007,1.026-.017.512-.017,1.024-.1.513-.1,1.025.055.514.055,1.027-.5.511-.5,1.022.192.511.192,1.021.367.511.367,1.023-.019.514-.019,1.027-.243.513-.243,1.025-.255.513-.255,1.025.26.515.26,1.029-.169.513-.169,1.027.17.514.17,1.028-.2.512-.2,1.024-.007.514-.007,1.029.234.515.234,1.031,0,.517,0,1.034-.114.516-.114,1.033c0,.336.365.675.363,1.011s-.033.674-.036,1.01,0,.674-.008,1.01-.269.67-.273,1.007.179.676.176,1.013-.463.67-.465,1.007.206.676.207,1.012.041.674.045,1.011,0,.675.01,1.011-.072.677-.059,1.013c0,.047.274.093.274.137a1.325,1.325,0,0,0,.37,1c.272.271.582.789,1,.795.517,0,.518-.119,1.036-.119s.518-.27,1.035-.27.518.379,1.035.379.518-.518,1.035-.518.518.044,1.035.044.518.484,1.036.484.518,0,1.036,0,.519-.4,1.037-.4.515-.032,1.03-.032.515-.029,1.03-.029.516.059,1.032.059.516-.059,1.032-.059.516.093,1.033.093.518.21,1.035.21.519-.427,1.037-.427.519.134,1.037.134.518.257,1.036.257.517.205,1.034.205.517-.362,1.034-.362.517-.1,1.033-.1.517.2,1.033.2.517-.165,1.034-.165.517.055,1.034.055.518.375,1.035.375.519-.23,1.037-.23.52.1,1.039.1.519-.395,1.037-.395.518-.021,1.036-.021.518.239,1.036.239.518.136,1.035.136.519.075,1.037.075.519-.5,1.038-.5.519.456,1.039.456.519.061,1.037.061.519-.24,1.037-.24.519.028,1.038.028.519-.128,1.039-.128.519.149,1.039.149.519.232,1.038.232.519-.3,1.039-.3.52.341,1.04.341.517-.23,1.035-.23.517.239,1.035.239.518-.388,1.036-.388.52-.061,1.041-.061.519.252,1.038.252.519-.089,1.039-.089.521-.006,1.042-.006.52.083,1.04.083.521.215,1.042.215.518-.266,1.037-.266.521.1,1.043.1.522-.173,1.044-.173.524-.037,1.047-.037.524.014,1.048.014c.328,0,.654.335.982.338s.657-.126.986-.121.66-.244.989-.239.654.261.983.265.66-.432.989-.431.656.129.984.126.665.387.993.379.652-.239.98-.253c.037,0,.072-.226.109-.226.414-.006.88.134,1.152-.138a1.656,1.656,0,0,0,.3-1.149c0-.511.349-.511.349-1.023s-.153-.511-.153-1.022,0-.511,0-1.022-.446-.511-.446-1.021.142-.511.142-1.021-.04-.511-.04-1.021.163-.51.163-1.021-.179-.51-.179-1.02.512-.511.512-1.021-.4-.51-.4-1.021-.165-.511-.165-1.021.423-.511.423-1.022-.081-.511-.081-1.022.177-.512.177-1.023,0-.512,0-1.023-.312-.511-.312-1.022.135-.511.135-1.022.094-.511.094-1.022-.158-.51-.158-1.021.006-.511.006-1.021-.2-.511-.2-1.022.218-.511.218-1.022.126-.511.126-1.023-.274-.508-.274-1.016.408-.508.408-1.016-.509-.509-.509-1.017.239-.509.239-1.018-.089-.51-.089-1.019-.212-.51-.212-1.02.422-.511.422-1.022.042-.511.042-1.023.109-.512.109-1.024-.578-.511-.578-1.022.549-.511.549-1.021-.157-.51-.157-1.021-.229-.51-.229-1.019.054-.51.054-1.02.166-.51.166-1.02-.213-.511-.213-1.021.076-.511.076-1.022.041-.512.041-1.024-.094-.512-.094-1.025-.013-.512-.013-1.024.33-.511.33-1.022-.368-.511-.368-1.022.413-.512.413-1.023-.386-.511-.386-1.023-.081-.512-.081-1.024.025-.513.025-1.026.132-.512.132-1.024,0-.512,0-1.024-.018-.512-.018-1.024-.218-.512-.218-1.025.325-.513.325-1.026,0-.512,0-1.024.185-.513.185-1.026-.1-.513-.1-1.026-.358-.511-.358-1.022.5-.511.5-1.021-.26-.512-.26-1.023.17-.514.17-1.027-.191-.513-.191-1.026.105-.512.105-1.025-.076-.514-.076-1.028-.054-.514-.054-1.027-.23-.514-.23-1.028.123-.512.123-1.024.389-.515.389-1.029-.253-.516-.253-1.031-.124-.517-.124-1.034.265-.517.265-1.034c0-.336-.374-.674-.372-1.01s-.049-.674-.045-1.011.291-.67.3-1.006.062-.673.066-1.01-.021-.674-.018-1.011-.206-.675-.205-1.012.2-.673.2-1.01-.177-.672-.181-1.008.086-.675.078-1.011-.1-.67-.112-1.006c0-.047.223-.108.223-.152A1.87,1.87,0,0,0,310.232.6c-.283-.263-.816-.154-1.232-.139-.395.014-.969-.132-1.229.129s.017.833,0,1.228c0,.514-.273.512-.273,1.026s.214.515.214,1.03.108.515.108,1.03-.282.515-.282,1.03-.3.515-.3,1.031.552.515.552,1.031-.457.516-.457,1.032.192.516.192,1.032.065.516.065,1.031.107.516.107,1.031.02.515.02,1.03.1.515.1,1.03-.408.515-.408,1.03-.137.515-.137,1.03.294.515.294,1.03-.279.515-.279,1.03.39.516.39,1.031-.445.516-.445,1.031.453.516.453,1.032-.26.516-.26,1.032.229.516.229,1.032-.358.516-.358,1.032.048.515.048,1.031-.042.515-.042,1.031.235.515.235,1.031.2.515.2,1.03-.407.516-.407,1.031.476.516.476,1.032-.167.516-.167,1.032.117.516.117,1.033-.309.512-.309,1.025.033.513.033,1.026.071.514.071,1.027-.077.514-.077,1.028.262.515.262,1.03-.2.515-.2,1.03.264.517.264,1.033-.242.517-.242,1.033-.254.516-.254,1.031.435.516.435,1.031-.252.515-.252,1.029.209.515.209,1.029-.153.515-.153,1.029.026.515.026,1.029-.333.515-.333,1.03.613.516.613,1.032-.491.516-.491,1.032.16.518.16,1.035-.277.517-.277,1.033.087.516.087,1.032.5.515.5,1.031-.372.516-.372,1.031-.205.517-.205,1.033.225.517.225,1.033.231.518.231,1.035-.22.517-.22,1.034.119.516.119,1.032-.248.517-.248,1.034.339.517.339,1.034-.075.518-.075,1.035-.076.517-.076,1.034.078.517.078,1.034-.105.518-.105,1.036-.172.516-.172,1.032.1.515.1,1.03.121.516.121,1.032-.127.518-.127,1.036.194.518.194,1.035-.209.517-.209,1.034.024.519.024,1.038.133.518.133,1.036.137.519.137,1.037.014.517.014,1.033-.408.52-.408,1.039.077.52.077,1.04-.047.522-.047,1.043.386.524.379,1.046c-.018.361-.171.721-.177,1.083s-.255.725-.248,1.087.114.724.132,1.086c0,.047.041.033.041.077.388-.366.488-.262.865-.639s.85-.294.672-.8c-.17-.481-.481-.284-.992-.284h-1.021c-.511,0-.511-.013-1.021-.013s-.512.414-1.023.414-.511-.152-1.022-.152-.511-.075-1.022-.075-.51.075-1.021.075-.51.325-1.021.325-.51-.562-1.02-.562-.511.063-1.021.063-.51.5-1.021.5-.511-.467-1.021-.467-.511-.065-1.022-.065-.508.034-1.016.034-.508.355-1.016.355-.508.044-1.016.044-.509.078-1.017.078-.509-.1-1.018-.1-.51-.016-1.02-.016-.51-.306-1.021-.306-.511,0-1.022,0-.512-.013-1.023-.013-.511.2-1.022.2-.51-.076-1.021-.076-.509.062-1.019.062-.51.065-1.019.065-.51.192-1.019.192-.51-.315-1.02-.315-.51.282-1.02.282-.511-.207-1.021-.207-.512.031-1.023.031-.513-.3-1.025-.3-.512.5-1.023.5-.511-.372-1.022-.372-.511-.135-1.021-.135-.511.172-1.022.172-.511.356-1.022.356-.512-.33-1.024-.33-.513-.2-1.025-.2-.512-.028-1.024-.028-.511.561-1.022.561-.512-.519-1.024-.519-.512.049-1.025.049-.512.341-1.025.341-.511-.018-1.023-.018-.513.04-1.025.04-.513-.222-1.026-.222-.511-.067-1.021-.067-.511.122-1.021.122-.511.278-1.022.278-.513-.238-1.027-.238-.512-.165-1.024-.165-.512.323-1.025.323-.513-.042-1.027-.042-.513-.159-1.027-.159-.513-.228-1.027-.228-.512.148-1.023.148-.515.095-1.029.095-.515.077-1.03.077-.517-.241-1.033-.241-.512-.151-1.029-.159c-.423-.024-.851.183-1.274.183s-.837.257-1.26.281c-.038,0-.208-.059-.245-.061.368.386.608.152.984.529s.137,1.02.637.837c.483-.176.2-.49.2-1.005s-.25-.515-.25-1.029.143-.515.143-1.03.08-.515.08-1.03-.271-.516-.271-1.031.37-.516.37-1.031-.084-.516-.084-1.032-.447-.516-.447-1.032.522-.516.522-1.031-.241-.516-.241-1.031.173-.515.173-1.03-.193-.515-.193-1.03-.271-.515-.271-1.03.134-.515.134-1.03.015-.515.015-1.03.108-.515.108-1.03.293-.516.293-1.031-.017-.515-.017-1.031-.411-.516-.411-1.031-.14-.517-.14-1.033.323-.516.323-1.032.073-.516.073-1.032-.236-.515-.236-1.031.1-.515.1-1.031-.078-.515-.078-1.03.275-.516.275-1.031,0-.515,0-1.031.058-.516.058-1.031-.3-.516-.3-1.032.373-.517.373-1.033-.193-.513-.193-1.026.016-.513.016-1.026.1-.513.1-1.027-.068-.514-.068-1.028-.258-.514-.258-1.029.087-.515.087-1.031.027-.516.027-1.032-.185-.517-.185-1.033-.022-.516-.022-1.032.458-.515.458-1.03-.408-.515-.408-1.029.431-.515.431-1.029-.189-.515-.189-1.029.133-.515.133-1.029-.21-.515-.21-1.03-.09-.516-.09-1.031-.179-.517-.179-1.033.485-.517.485-1.035-.407-.516-.407-1.033.382-.516.382-1.031-.414-.516-.414-1.032-.047-.515-.047-1.031.146-.516.146-1.032,0-.517,0-1.034.037-.517.037-1.035-.06-.516-.06-1.033.25-.516.25-1.033.12-.516.12-1.033-.336-.517-.336-1.035.14-.517.14-1.034-.244-.517-.244-1.034.169-.517.169-1.035-.117-.517-.117-1.035.242-.516.242-1.032.014-.515.014-1.03-.216-.516-.216-1.032.041-.518.041-1.036-.059-.518-.059-1.035-.1-.517-.1-1.034.041-.519.041-1.038-.128-.518-.128-1.036.5-.518.5-1.037-.328-.517-.328-1.033.173-.519.173-1.039-.15-.52-.15-1.04.392-.521.392-1.043-.081-.519-.075-1.04c.019-.362-.121-.725-.115-1.086s-.2-.722-.2-1.084.144-.726.125-1.087c0-.047.117.032.117-.012-.387.365-.5.242-.88.618s-.853.227-.666.726.434.207.951.207.518-.133,1.035-.133.518-.127,1.035-.127.518.179,1.035.179.518.143,1.035.143.518-.129,1.036-.129.518.181,1.036.181.519-.059,1.037-.059.515-.165,1.03-.165.515-.362,1.03-.362.516.227,1.032.227.516.291,1.032.291.516-.158,1.033-.158.518-.038,1.035-.038.519.045,1.037.045.519-.087,1.037-.087.518-.063,1.036-.063.517-.216,1.034-.216.517.313,1.034.313.517.235,1.033.235.517-.493,1.033-.493.517.545,1.034.545.517-.573,1.034-.573.518.353,1.035.353.519.116,1.037.116.52.048,1.039.048.519-.144,1.037-.144.518-.416,1.036-.416.518.4,1.036.4.518-.1,1.035-.1.519.17,1.037.17.519-.074,1.038-.074.519.193,1.039.193.519-.505,1.037-.505.519.23,1.037.23.519.084,1.038.084.519-.348,1.039-.348.519.013,1.039.013.519.317,1.038.317.519.159,1.039.159.52-.352,1.04-.352.517.074,1.035.074.517-.129,1.035-.129.518-.068,1.036-.068.52.424,1.041.424.519-.294,1.038-.294.519.28,1.039.28.521-.131,1.042-.131.52-.18,1.04-.18.521-.119,1.042-.119.518-.024,1.037-.024.521.221,1.043.221.522-.106,1.044-.106.524-.109,1.047-.109.524.587,1.048.587c.328,0,.654-.1.983-.1s.662-.452.99-.448.651.464.979.469.66-.069.988-.065.66-.156.988-.155.658.034.987.032.652-.2.981-.208.651-.076.979-.09c.037,0,.077.041.114.041.416-.018.967.176,1.228-.109a2.043,2.043,0,0,0,.506-1.256,1.945,1.945,0,0,0-.641-1.072,1.682,1.682,0,0,0-1.042-.507c-.044-.012-.041.062-.042.062" fill="#0d4b08"/><path d="M255.233,17.322c.505,0,.505-.263,1.01-.263s.506.069,1.011.069.507.173,1.013.173.506.115,1.012.115.506-.24,1.012-.24.506-.115,1.012-.115.506-.037,1.013-.037.5.41,1.009.41.5-.023,1.008-.023.505-.15,1.01-.15.507.154,1.014.154.506.186,1.012.186.506-.388,1.012-.388.508-.119,1.015-.119.507.505,1.014.505.508-.32,1.015-.32.506-.014,1.011-.014.508-.131,1.016-.131.509.29,1.018.29.51-.409,1.02-.409.508.128,1.019.121a1.123,1.123,0,0,0,.889-.443c.261-.285.636-.527.617-.943-.017-.39-.428-.557-.686-.815s-.429-.552-.819-.57c-.505-.006-.5-.047-1.009-.047s-.506.168-1.011.168-.507-.406-1.013-.406-.506.421-1.012.421-.506-.074-1.012-.074-.506-.091-1.012-.091-.506-.22-1.013-.22-.5.367-1.009.367-.5.076-1.008.076-.505.038-1.01.038-.507-.4-1.014-.4-.506-.124-1.012-.124-.506.341-1.012.341-.508-.211-1.015-.211-.507-.088-1.014-.088-.508.064-1.015.064-.506.1-1.011.1-.508.123-1.016.123-.509-.288-1.018-.288-.51.471-1.02.471-.513-.459-1.023-.453c-.416.019-.714.451-.975.736a1.408,1.408,0,0,0-.45,1.021,1.379,1.379,0,0,0,.523.905c.258.258.505.72.9.738" fill="#0d4b08"/><path d="M255.826,43.978c.513,0,.513-.245,1.027-.245s.514.243,1.028.243.514-.157,1.029-.157.513-.182,1.027-.182.513.307,1.026.307.513-.254,1.026-.254.512.283,1.024.283.513-.1,1.025-.1.513.355,1.025.355.513-.164,1.026-.164.514-.107,1.027-.107.514-.209,1.029-.209.515.38,1.03.38.515-.32,1.029-.32.514-.19,1.028-.19.513.148,1.027.148.513.155,1.027.155.514-.263,1.028-.263.515.069,1.03.069.515.173,1.03.173.515.115,1.029.115.515-.24,1.029-.24.514-.115,1.029-.115.515-.038,1.031-.038.515.411,1.03.411.515-.023,1.03-.023.515-.15,1.03-.15.516.153,1.032.153.513.187,1.027.187.513-.388,1.026-.388.514-.119,1.028-.119.516.5,1.032.5.515-.32,1.03-.32.515-.014,1.03-.014.517-.131,1.034-.131.516.29,1.032.29.517-.409,1.033-.409.515.121,1.029.121.517-.024,1.034-.024.518.279,1.036.279.52-.321,1.039-.321.519.21,1.038.2a1.449,1.449,0,0,0,1.047-.431,1.391,1.391,0,0,0,.233-1.072c-.014-.4.158-.922-.1-1.183s-.783-.073-1.178-.088c-.513-.005-.511-.074-1.025-.074s-.514-.091-1.028-.091-.514-.22-1.029-.22-.514.367-1.027.367-.513.076-1.026.076-.513.038-1.026.038-.512-.4-1.024-.4-.513-.124-1.025-.124-.513.341-1.025.341-.513-.211-1.026-.211-.514-.088-1.027-.088-.514.064-1.029.064-.515.1-1.03.1S285.2,41,284.685,41s-.514-.288-1.028-.288-.513.47-1.027.47-.513-.452-1.027-.452-.514.277-1.028.277-.515-.08-1.03-.08-.515.121-1.03.121-.515-.336-1.029-.336-.515-.022-1.029-.022-.514-.081-1.029-.081-.515.487-1.031.487-.515-.033-1.03-.033-.515.077-1.03.077-.515-.142-1.03-.142-.516-.052-1.032-.052-.513-.282-1.027-.282-.513-.043-1.026-.043-.514.521-1.028.521-.516-.02-1.032-.02-.515-.107-1.03-.107-.515.071-1.03.071-.517.089-1.034.089-.516-.429-1.032-.429-.517.305-1.033.305-.515-.155-1.029-.155-.517.161-1.034.161-.518-.048-1.036-.048-.52-.132-1.039-.132-.521-.079-1.04-.073c-.416.015-.572.507-.834.79a1.076,1.076,0,0,0-.421.875,1.214,1.214,0,0,0,.337.926c.261.261.517.728.911.742" fill="#0d4b08"/><path d="M255.677,56.084c.508.006.508.187,1.016.187s.509.114,1.018.114.509-.512,1.018-.512.508.157,1.017.157.508.3,1.015.3.508-.318,1.015-.318l1.014,0c.507,0,.507-.028,1.015-.028s.507.083,1.014.083.508.274,1.015.274.509.023,1.017.023.509-.182,1.018-.182.51-.052,1.02-.052.509.133,1.018.133.508-.235,1.017-.235.508.1,1.016.1.509-.245,1.017-.245.509.243,1.017.243.51-.158,1.019-.158.51-.181,1.02-.181.51.307,1.019.307.509-.254,1.018-.254.509.283,1.018.283.51-.1,1.02-.1.51.355,1.02.355.51-.164,1.019-.164.51-.107,1.02-.107.51-.209,1.02-.209.508.38,1.017.38.508-.32,1.015-.32.509-.19,1.018-.19.511.148,1.021.148.51.155,1.02.155.51-.263,1.02-.263.511.069,1.023.069.51.173,1.021.173.511.115,1.022.115.51-.24,1.019-.24.512-.115,1.023-.115.513-.038,1.026-.038.514.411,1.028.411.515-.017,1.029-.023a2.173,2.173,0,0,0,1.526-1.663,1.946,1.946,0,0,0-.333-1.189c-.258-.258-.8-.116-1.195-.133-.508-.006-.507.119-1.015.119s-.509-.505-1.018-.505-.509.32-1.018.32-.508.014-1.017.014-.507.131-1.015.131-.508-.29-1.015-.29-.507.41-1.014.41-.507-.122-1.014-.122-.508.024-1.015.024S288.818,53,288.311,53s-.508.322-1.017.322-.509-.205-1.018-.205-.51-.048-1.019-.048-.51.169-1.019.169-.508-.406-1.017-.406-.508.421-1.016.421-.508-.074-1.017-.074-.508-.091-1.017-.091-.51-.22-1.019-.22-.51.367-1.02.367-.509.076-1.019.076-.509.038-1.018.038-.509-.4-1.018-.4-.51-.124-1.02-.124-.51.341-1.02.341-.51-.211-1.019-.211-.51-.088-1.02-.088-.51.064-1.02.064-.508.1-1.017.1-.508.123-1.015.123-.509-.288-1.018-.288-.51.47-1.021.47-.51-.452-1.02-.452-.51.277-1.019.277-.512-.081-1.023-.081-.511.122-1.022.122-.511-.337-1.022-.337-.51-.022-1.019-.022-.512-.08-1.023-.08-.513.486-1.026.486-.514-.032-1.028-.032-.511.07-1.025.077a1.246,1.246,0,0,0-.987.319,1.4,1.4,0,0,0-.424,1.027c.018.39-.026.92.232,1.178s.786.251,1.176.268" fill="#0d4b08"/><path d="M269.878,31.691c.52,0,.52.382,1.039.382s.52-.137,1.039-.137.519-.074,1.039-.074.52.109,1.039.109.521-.05,1.042-.05.521-.292,1.042-.292.52-.025,1.041-.025.52.227,1.04.227.52.155,1.041.155.521-.117,1.042-.117.521-.347,1.042-.347.521-.024,1.041-.024.521.152,1.042.152.522.432,1.043.432.52-.3,1.039-.3.519.183,1.038.183.52.058,1.039.058.522-.019,1.045-.019.52-.2,1.041-.2.521.26,1.042.26.523-.593,1.045-.593.522.411,1.044.411.522-.3,1.045-.3.52.327,1.04.327.523-.114,1.046-.114.524.195,1.048.195.525-.512,1.051-.512.663.647,1.043.285c.363-.347.254-.495.254-1s-.448-.5-.448-1.006.635-.728.277-1.082-.583.3-1.091.3-.508-.072-1.017-.072-.509-.029-1.018-.029-.509-.083-1.019-.083-.508-.285-1.017-.285-.508.524-1.016.524-.508-.469-1.015-.469-.508.127-1.015.127-.508.287-1.015.287-.508-.485-1.015-.485-.508-.026-1.016-.026-.508.336-1.017.336-.509-.272-1.018-.272-.511.5-1.021.5-.509-.229-1.019-.229-.508-.057-1.017-.057-.509.314-1.017.314-.509-.175-1.017-.175-.509.1-1.018.1-.51-.345-1.02-.345-.51.213-1.021.213-.509-.211-1.019-.211-.509.128-1.018.128-.51-.187-1.019-.187-.511.381-1.021.381-.51.094-1.02.094-.51-.108-1.02-.108-.51-.294-1.02-.294-.511.133-1.021.133-.509.239-1.017.239-.508-.524-1.016-.524-.509-.029-1.018-.029-.511.055-1.023.055-.51-.028-1.02-.028-.51.008-1.02.008-.512.223-1.023.223-.511.3-1.022.3-.512-.086-1.023-.086-.51-.445-1.019-.445-.512.24-1.025.24-.513-.194-1.025-.194-.515.1-1.029.1-.515.03-1.029.032a1.743,1.743,0,0,0-1.148.444,1.672,1.672,0,0,0-.332,1.148c0,.518-.245.518-.245,1.036s.13.519.13,1.037.377.519.377,1.037-.48.52-.48,1.039.491.52.491,1.04-.285.522-.285,1.043-.011.52-.011,1.04-.117.52-.117,1.039-.057.52-.057,1.039.072.52.072,1.039.093.52.093,1.04-.186.521-.186,1.041-.115.521-.115,1.043.512.52.512,1.041-.157.52-.157,1.04-.3.52-.3,1.041.318.521.318,1.042,0,.521,0,1.042.028.521.028,1.042-.082.521-.082,1.042-.275.521-.275,1.043-.023.519-.023,1.039.182.519.182,1.038.052.519.052,1.039-.133.522-.133,1.044.235.521.235,1.042-.1.521-.1,1.042.245.523.245,1.045-.242.522-.242,1.044.157.522.157,1.045.182.52.182,1.041-.308.523-.308,1.046.254.524.254,1.047-.283.526-.283,1.051.1.525.1,1.051c.006.413-.09,1,.182,1.273a2.04,2.04,0,0,0,1.273.373c.507,0,.508-.107,1.015-.107s.509-.21,1.017-.21.509.381,1.018.381.51-.32,1.019-.32.509-.19,1.017-.19.508.148,1.016.148.508.154,1.016.154.507-.262,1.015-.262.507.069,1.014.069.508.173,1.016.173.507.115,1.015.115.509-.241,1.017-.241.51-.114,1.019-.114.51-.038,1.02-.038.51.411,1.019.411.509-.024,1.018-.024.508-.15,1.017-.15.508.154,1.017.154.509.187,1.018.187.51-.388,1.02-.388.51-.119,1.02-.119.51.5,1.019.5.51-.319,1.019-.319.509-.014,1.019-.014.51-.132,1.021-.132.51.29,1.02.29.51-.409,1.02-.409.51.122,1.02.122.51-.025,1.021-.025.508.28,1.017.28.508-.322,1.016-.322.509.205,1.018.205.511.047,1.023.047.51-.168,1.02-.168.51.406,1.02.406.512-.421,1.023-.421.511.074,1.022.074.512.091,1.024.091.509.22,1.018.22.513-.367,1.025-.367.513-.076,1.026-.076.514-.038,1.028-.038.515.4,1.03.4a1.923,1.923,0,0,0,1.228-.394c.272-.272.172-.816.178-1.23,0-.518.211-.517.211-1.036s.087-.518.087-1.036-.064-.519-.064-1.038-.1-.519-.1-1.039-.123-.52-.123-1.04.288-.521.288-1.042-.47-.52-.47-1.041.452-.519.452-1.039-.277-.519-.277-1.039.081-.519.081-1.039-.122-.519-.122-1.039.337-.521.337-1.042.022-.521.022-1.042.08-.521.08-1.041-.486-.52-.486-1.04.032-.521.032-1.041-.077-.521-.077-1.042.142-.522.142-1.043.052-.52.052-1.041.282-.521.282-1.042.043-.522.043-1.043-.521-.52-.521-1.039.02-.519.02-1.038.107-.52.107-1.04-.071-.522-.071-1.044-.088-.521-.088-1.042.428-.521.428-1.041-.305-.523-.305-1.046.156-.522.156-1.043-.162-.523-.162-1.045.048-.521.048-1.041.132-.523.132-1.046.074-.524.074-1.048-.4-.525-.4-1.051.1-.524.1-1.049a1.235,1.235,0,0,0-.344-.968c-.272-.272-.552-.743-.966-.749-.508,0-.508.423-1.016.423s-.508-.035-1.017-.035-.509.032-1.018.032-.509-.014-1.019-.014-.508.1-1.017.1-.508-.428-1.016-.428-.508.252-1.016.252-.507.16-1.015.16-.507-.5-1.014-.5-.508.428-1.015.428-.508-.365-1.016-.365-.509.372-1.017.372-.509-.4-1.019-.4-.51.17-1.02.17-.51-.207-1.019-.207-.509.523-1.018.523-.508-.08-1.017-.08-.508-.412-1.017-.412-.509,0-1.018,0-.51.38-1.019.38-.511-.083-1.021-.083-.51-.023-1.019-.023-.509-.1-1.019-.1-.509.1-1.019.1-.51-.307-1.02-.307-.511.185-1.021.185-.51.3-1.019.3-.511-.542-1.021-.542-.51.5-1.021.5-.508-.169-1.017-.169-.508-.3-1.016-.3-.509.457-1.018.457-.511.053-1.022.053-.51-.419-1.02-.419-.511-.118-1.021-.118-.511.34-1.023.34-.511-.032-1.022-.032-.512-.042-1.023-.042-.51.2-1.019.2-.512-.338-1.025-.338-.512.365-1.025.365-.515-.465-1.029-.465-.63-.088-1,.271.054.47.054.972.207.5.207,1.005-.715.72-.353,1.069.582.16,1.1.16.52.074,1.041.074.52-.223,1.041-.223.523-.07,1.047-.07.522-.089,1.044-.089.522.137,1.044.137.524-.207,1.048-.207.523.445,1.046.445.523-.541,1.047-.541.521-.008,1.043-.008.524.018,1.048.018.525.1,1.05.1.527-.056,1.053-.056.53.51,1.056.5a2,2,0,0,0,1.134-.709c.263-.283.082-.738.067-1.154a1.088,1.088,0,0,0-.354-.859c-.261-.26-.455-.6-.85-.616-.52,0-.521-.255-1.041-.255s-.52.26-1.04.26-.521-.169-1.042-.169-.523.17-1.046.17-.523-.2-1.045-.2-.522-.007-1.044-.007-.524.234-1.047.234-.523,0-1.046,0-.524-.114-1.048-.114-.521.366-1.043.366S258.913,29,258.389,29s-.525,0-1.05,0-.526-.259-1.053-.259-.525.181-1.051.187c-.416.015-.994-.17-1.256.112a1.943,1.943,0,0,0-.27,1.275,1.6,1.6,0,0,0,.489,1.033,1.575,1.575,0,0,0,1.035.459c.507.006.508.092,1.015.092s.509-.274,1.017-.274.509.051,1.018.051.51.373,1.019.373.509-.119,1.017-.119.508-.269,1.016-.269.508.379,1.016.379.507-.519,1.015-.519.507.045,1.014.045.508.484,1.016.484.507,0,1.015,0,.509-.4,1.017-.4.51-.031,1.019-.031.51-.029,1.02-.029.51.058,1.019.058.509-.058,1.018-.058.508.092,1.017.092.508.211,1.017.211.509-.427,1.018-.427.51.133,1.02.133.51.257,1.02.257.51.206,1.019.206.51-.362,1.019-.362.509-.1,1.019-.1.51.2,1.021.2.51-.165,1.02-.165.51.055,1.02.055.51.375,1.02.375.51-.23,1.021-.23.508.1,1.017.1.508-.395,1.016-.395.509-.021,1.018-.021.511.238,1.023.238.51.137,1.02.137.51.074,1.02.074.512-.5,1.023-.5.511.456,1.022.456.512.06,1.024.06.509-.24,1.018-.24.513.028,1.025.028.513-.127,1.026-.127.514.148,1.028.148,1.088.551,1.264.068c.183-.5-.647-.427-1.024-.8s-.321-1.249-.82-1.061.042.79.042,1.308-.24.519-.24,1.037.389.519.389,1.037.061.52.061,1.039-.253.52-.253,1.04.09.522.09,1.043.005.52.005,1.04-.083.52-.083,1.039-.215.52-.215,1.039.266.52.266,1.039-.1.52-.1,1.04.173.521.173,1.041.038.521.038,1.043-.014.52-.014,1.041-.334.52-.334,1.04.133.52.133,1.041.253.521.253,1.042-.252.521-.252,1.042.438.521.438,1.042-.129.521-.129,1.042-.394.521-.394,1.043.22.519.22,1.039.226.519.226,1.038-.347.519-.347,1.039.18.522.18,1.044-.349.521-.349,1.042.153.521.153,1.042,0,.523,0,1.045.446.522.446,1.044-.142.522-.142,1.045.04.52.04,1.041-.163.523-.163,1.046.178.524.178,1.047-.511.526-.511,1.051-.154.765.335.958.153-.471.53-.848,1.264-.115,1.089-.618c-.166-.48-.656-.025-1.164-.025s-.508-.178-1.017-.178-.509,0-1.018,0-.509.312-1.019.312-.508-.134-1.017-.134-.508-.094-1.016-.094-.508.158-1.016.158-.507-.006-1.015-.006-.507.2-1.014.2-.508-.219-1.015-.219-.508-.126-1.016-.126-.509.274-1.017.274-.509-.408-1.019-.408-.51.509-1.02.509-.51-.238-1.019-.238-.509.088-1.018.088-.508.213-1.017.213-.508-.422-1.017-.422-.509-.042-1.018-.042-.51-.11-1.019-.11-.511.579-1.021.579-.51-.549-1.019-.549-.509.156-1.019.156-.509.229-1.019.229-.51-.053-1.02-.053-.511-.167-1.021-.167-.51.213-1.019.213-.511-.075-1.021-.075-.51-.042-1.021-.042-.508.094-1.017.094-.508.013-1.016.013-.509-.329-1.018-.329-.511.368-1.022.368-.51-.414-1.02-.414-.511.386-1.021.386-.511.081-1.023.081-.511-.025-1.022-.025-.512-.131-1.023-.131-.51,0-1.019,0-.512.018-1.025.018-.512.218-1.025.218-.515-.325-1.029-.325-.912-.442-1.089.041c-.182.5.261.574.638.951s.483.907.982.719-.259-.659-.259-1.178.5-.518.5-1.036-.261-.519-.261-1.038.171-.519.171-1.038-.192-.521-.192-1.041.106-.521.106-1.042-.077-.52-.077-1.04-.053-.52-.053-1.04-.231-.519-.231-1.038.124-.52.124-1.039.388-.52.388-1.04-.253-.521-.253-1.041-.124-.522-.124-1.043.265-.52.265-1.041-.375-.52-.375-1.04-.055-.52-.055-1.041.284-.521.284-1.042.053-.521.053-1.042-.029-.521-.029-1.041-.213-.521-.213-1.042.2-.522.2-1.044-.174-.519-.174-1.039.1-.519.1-1.037-.081-.52-.081-1.04.223-.522.223-1.044.138-.521.138-1.042-.324-.521-.324-1.042.4-.522.4-1.045-.533-.522-.533-1.044.273-.522.273-1.045-.214-.52-.214-1.04-.108-.523-.108-1.046.282-.524.282-1.048.3-.525.3-1.051.091-.63-.4-.823-.437,0-.814.376-.8.407-.622.911c.166.479.527-.052,1.034-.052s.509-.107,1.017-.107.509-.019,1.018-.019.51-.1,1.019-.1.509.407,1.017.407.508.138,1.016.138.508-.294,1.016-.294.507.279,1.015.279.507-.391,1.014-.391.508.445,1.016.445.507-.452,1.015-.452.509.259,1.017.259.51-.229,1.019-.229.51.359,1.02.359.51-.049,1.019-.049.509.042,1.018.042.508-.234,1.017-.234.508-.2,1.017-.2.509.407,1.018.407.51-.476,1.02-.476.51.166,1.02.166.51-.116,1.019-.116.51.308,1.019.308.509-.032,1.019-.032.51-.072,1.021-.072.51.078,1.02.078.51-.262,1.02-.262.51.2,1.02.2.51-.264,1.021-.264.508.242,1.017.242.508.253,1.016.253.509-.435,1.018-.435.511.252,1.023.252.51-.208,1.02-.208.51.153,1.02.153.512-.027,1.023-.027.511.334,1.022.334.512-.614,1.024-.614.509.492,1.018.492.513-.161,1.025-.161.513.278,1.026.278.514-.087,1.028-.087.511-.5,1.025-.5c.416-.018.85.142,1.11-.143a1.9,1.9,0,0,0,.619-1.153c-.017-.39-.424-.772-.682-1.03s-.655-.21-1.045-.227c-.52-.006-.518-.22-1.037-.22s-.52.119-1.039.119-.519-.248-1.039-.248-.52.339-1.039.339-.521-.075-1.042-.075-.521-.076-1.042-.076-.52.078-1.041.078-.52-.105-1.04-.105-.52-.172-1.041-.172-.521.1-1.042.1-.521.121-1.042.121-.521-.127-1.042-.127-.521.194-1.042.194-.521-.209-1.043-.209-.519.024-1.039.024-.519.133-1.037.133-.52.137-1.04.137-.522.014-1.044.014-.521-.408-1.042-.408-.521.077-1.042.077-.522-.047-1.045-.047-.522.379-1.043.379-.523-.141-1.045-.141-.521-.248-1.041-.248-.523.1-1.046.1-.524.186-1.048.186-.525-.161-1.05-.161-.525.1-1.051.105c-.416.019-.988-.012-1.248.273a1.809,1.809,0,0,0,.046,2.472c.258.258.791.095,1.181.112.041-.007.021.044.021.044" fill="#0d4b08"/><path d="M319.314,22.45l2.023-3.5a2.208,2.208,0,0,1,3.015-.812l.005,0,3.829,2.211a2.213,2.213,0,0,1,.809,3.02l-2.023,3.5" fill="#fefffd"/><path d="M294.021,74.093c-.035.406.089.711.494.745a.655.655,0,0,0,.452-.135c.438-.306.408-.349.845-.655s.584-.1,1.023-.409.517-.2.957-.507.234-.606.675-.915,1.212,0,1.231-.542c.016-.488-.643-.4-1.065-.64s-.459-.18-.882-.424-.37-.339-.794-.584-.45-.2-.875-.447-.572.006-1-.24-.274-.727-.7-.472c-.456.277-.192.383-.239.915s-.2.522-.247,1.057.07.545.024,1.081.3.567.252,1.1-.023.539-.07,1.076" fill="#0d4b08"/><path d="M305.968,66.982l-10.892-6.288a3.032,3.032,0,0,0-.128.646l-.643,7.385,5.094,2.94,6.074-4.248a3.134,3.134,0,0,0,.5-.434Z" fill="#fefffd"/><path d="M306.381,66.426l14.258-24.7,6.922-11.989a2.213,2.213,0,0,0-.809-3.021l-7.2-4.156a2.212,2.212,0,0,0-3.02.809L295.353,60.059a3.122,3.122,0,0,0-.276.636l10.891,6.289a3.208,3.208,0,0,0,.413-.558" fill="#407b3e"/><path d="M320.836,23.343c.286-.48.178-.547.457-1.03s.389-.423.669-.909.057-.614.336-1.1c.1-.178.077-.43.184-.607.011-.02.311.116.321.094.164-.321-.168.222.093-.013.058-.062-.2-.509-.134-.563-.136.106.09.4.231.306.026-.05.288.051-.028.145.118-.04.138-.518.261-.545-.361.069.067.349.139.349-.339.006.018-.15.106-.132.309.06-.105-.18.19,0,.085.051.013.171.1.22.4.234.322.375.726.608s.507.058.912.292.413.221.819.456.411.225.817.459c.129.075.26.142.392.212.063.033.153.307-.052.138.1.082.256.1.337.2-.255-.321.24.362.1-.046.041.119-.085.289-.06.412-.011-.056-.273-.307-.257-.017.023.366.474-.241.366.114-.017.056-.379.329-.23.044-.072.136.193.46.116.591-.233.4-.461.269-.693.671s-.219.41-.45.812-.442.283-.675.687-.22.407-.458.807a1.776,1.776,0,0,0-.028,1.259,1.466,1.466,0,0,0,.727.874,1.424,1.424,0,0,0,1.09.251,1.4,1.4,0,0,0,.85-.708c.021-.033.016-.076.034-.11.228-.4.2-.414.424-.81s.353-.323.582-.719.217-.405.447-.8.18-.427.414-.821c.172-.262.539-.437.646-.727a4.7,4.7,0,0,0,.361-.92c.039-.306-.316-.644-.348-.956-.052-.391.189-.905.025-1.253a4.323,4.323,0,0,0-.8-.947,4.09,4.09,0,0,0-.985-.688c-.284-.166-.513-.426-.8-.591s-.6-.285-.88-.449-.717-.074-1-.238-.587-.308-.872-.473c-.242-.16-.389-.492-.656-.6a4.656,4.656,0,0,0-.82-.385,4.549,4.549,0,0,0-.9.065c-.311.027-.527.425-.816.523a3.3,3.3,0,0,0-.765.393,3.589,3.589,0,0,0-.772.439c-.211.22-.753.228-.909.5s-.077.72-.241,1-.489.48-.653.766-.378.544-.542.83-.309.576-.474.862a1.79,1.79,0,0,0-.03,1.264c.083.376.182.959.533,1.183s.85-.257,1.226-.34.877.044,1.1-.307c.02-.033.027-.3.046-.33.125.056.154.317.158.31" fill="#0d4b08"/><path d="M295.206,62.264c.465.268.439.313.9.582s.377.42.842.688.435.323.9.593.509.194.974.463.567.1,1.033.364.432.323.9.591.36.455.826.725.461.281.928.551.382.421.851.692.53.161,1,.437a1.934,1.934,0,0,0,1.262.339c.377-.083.668-.564.892-.915a1.391,1.391,0,0,0,.062-1.108c-.084-.376-.074-.908-.424-1.132-.033-.021-.037-.11-.072-.128-.465-.268-.472-.255-.937-.523s-.527-.16-.992-.429-.651.052-1.117-.217-.237-.665-.7-.934-.631.017-1.1-.253-.424-.337-.888-.605-.507-.2-.974-.469-.4-.39-.865-.66-.387-.412-.855-.683-.574-.089-1.039-.365a1.444,1.444,0,0,0-1.115-.184,1.419,1.419,0,0,0-.913.649,1.4,1.4,0,0,0-.182,1.1,1.356,1.356,0,0,0,.655.873c.033.021.012.127.047.145" fill="#0d4b08"/><path d="M299.714,70.072c-.409-.236-.275-.469-.685-.705s-.626.135-1.037-.1-.372-.309-.784-.547-.3-.438-.711-.676-.509-.074-.919-.318a1.608,1.608,0,0,0-1.153-.292,1.761,1.761,0,0,0-1.069.658c-.224.351,0,.819.083,1.195a1.188,1.188,0,0,0,.633.8c.033.022.033.081.068.1.409.236.321.388.731.624s.38.292.791.53.456.163.868.4.513.065.927.3.386.29.8.534a1.52,1.52,0,0,0,1.076.393,1.65,1.65,0,0,0,1-.684,1.91,1.91,0,0,0,.382-1.235,1.936,1.936,0,0,0-.838-1.006c-.033-.021-.017-.157-.052-.175" fill="#0d4b08"/><path d="M324.3,48.707c.25-.419.144-.485.388-.908s-.142-.648.1-1.072.553-.245.8-.669.345-.365.59-.788.056-.531.3-.954.325-.378.57-.8.445-.31.691-.736.059-.534.306-.961.221-.441.468-.868.341-.358.582-.775-.109-.618.131-1.034.576-.225.817-.643.358-.352.6-.771-.037-.581.206-1,.176-.458.419-.878c.14-.243.376-.462.543-.731.156-.251.376-.477.517-.744s.528-.472.618-.751c.094-.295-.268-.678-.28-.973a2.3,2.3,0,0,0-.185-1c-.159-.308-.21-.74-.471-1a6.815,6.815,0,0,0-.96-.533c-.292-.2-.557-.462-.869-.634s-.6-.409-.911-.566c-.336-.172-.8-.059-1.084-.222a1.531,1.531,0,0,0-1.823.59,1.433,1.433,0,0,0-.277,1.007,1.6,1.6,0,0,0,.608.943c.437.261.485.181.926.435s.541.081.981.335c.557.322.525.377,1.082.7.046.026.164.365.223.36.209-.017-.318-.368-.045-.447a2.2,2.2,0,0,0-.581.374c-.223.385-.12.445-.343.83s-.331.323-.553.709c-.255.442-.031.571-.286,1.013s-.13.513-.385.954-.537.278-.791.719-.32.405-.576.847-.241.45-.5.891-.147.5-.4.945.067.626-.187,1.066-.652.215-.908.657.03.609-.226,1.052-.327.405-.583.85-.187.485-.444.93-.375.372-.63.814-.4.361-.653.8-.084.541-.335.987a1.443,1.443,0,0,0-.093,1.126,1.417,1.417,0,0,0,.722.857,1.4,1.4,0,0,0,1.048.111c.354-.093.928-.112,1.14-.441" fill="#0d4b08"/><path d="M322.1,42.583c.245-.427-.175-.668.071-1.094s.315-.388.561-.815.364-.361.611-.79.24-.431.487-.859.18-.467.427-.894.54-.261.788-.69.008-.566.255-1,.268-.416.515-.844.163-.476.409-.9.659-.193.907-.622.036-.553.285-.983.151-.488.4-.92.459-.305.718-.73a6.158,6.158,0,0,0,.643-1.121,6.346,6.346,0,0,0,.384-1.26c.035-.388-.309-.784-.387-1.153s.05-.855-.135-1.188a4.222,4.222,0,0,0-.78-.906c-.271-.261-.8-.166-1.148-.341-.3-.176-.49-.552-.789-.727s-.479-.556-.779-.73-.753-.082-1.053-.255-.4-.687-.706-.859-.873.128-1.173-.045-.454-.6-.755-.775-.515-.474-.816-.647c-.264-.192-.78.106-1.074-.019s-.5-.447-.817-.5a4.5,4.5,0,0,0-.961-.233c-.319.016-.61.264-.923.354-.3.112-.689.068-.95.245s-.385.544-.6.779-.217.584-.371.865c-.192.322-.852.375-1.039.7s-.214.743-.4,1.069-.313.684-.5,1.009c-.26.449-.278.438-.538.887s.009.6-.25,1.053-.287.434-.547.883-.516.3-.777.756.021.613-.239,1.063-.526.3-.786.748.012.61-.249,1.062-.5.314-.758.766-.493.317-.753.768-.1.545-.356,1,.011.61-.25,1.063-.332.412-.594.866-.54.294-.8.749.094.66-.169,1.115-.346.393-.6.838-.39.369-.647.814-.247.449-.5.892-.159.5-.415.943-.178.489-.434.932-.686.2-.943.645-.138.514-.395.959.033.612-.223,1.057-.365.385-.623.832-.563.269-.82.714.1.653-.156,1.1-.192.482-.448.927-.652.22-.91.667-.156.506-.414.954.127.672-.132,1.121-.568.271-.827.72c-.163.282-.428.5-.594.785s-.146.672-.314.952-.415.513-.583.794-.534.444-.7.725-.147.674-.312.957-.3.582-.463.866-.422.517-.577.805.053.757-.1,1.048c-.132.3-.6.466-.693.781a8.149,8.149,0,0,0-.346.959c-.049.324.242.7.236,1.025-.041.567.027.573-.023,1.139s-.13.56-.18,1.127-.121.561-.171,1.128c-.047.539-.314.515-.361,1.054s.382.576.335,1.115-.128.529-.175,1.066-.277.52-.324,1.059.137.557.09,1.1-.14.534-.188,1.075-.125.536-.172,1.077c-.03.342.262.688.283,1.015a2.108,2.108,0,0,0,.286.884,1.615,1.615,0,0,0,.569.707c.377.258.648.525,1,.545a2.487,2.487,0,0,0,1.171-.191,6.838,6.838,0,0,0,.973-.68c.383-.267.268-.432.651-.7s.421-.216.806-.485.508-.094.893-.364.394-.259.78-.53.487-.127.873-.4c.423-.295.354-.393.777-.688s.495-.194.918-.49.276-.509.7-.806.338-.426.769-.714c.305-.174.783-.085,1.077-.277s.635-.34.916-.549.558-.449.826-.675.46-.565.714-.807c.163-.2.02-.628.163-.843s.664-.194.786-.422c.256-.451-.027-.613.233-1.062s.329-.41.588-.86.19-.491.45-.941.381-.382.642-.833.4-.368.661-.818.084-.552.344-1,.248-.457.508-.908.251-.456.511-.907.25-.457.51-.908.226-.47.486-.921.348-.4.609-.85.362-.393.622-.844.2-.484.459-.934.464-.331.723-.78-.059-.634.2-1.083.212-.48.473-.932.162-.507.423-.958.489-.318.749-.769.248-.46.509-.913.469-.331.73-.782.255-.454.516-.906.082-.553.342-1,.173-.5.434-.957.314-.423.576-.876.175-.506.438-.96.24-.468.5-.923c.2-.35.174-.363.372-.716A1.333,1.333,0,0,0,322,41.36a1.422,1.422,0,0,0-.731-.849,1.357,1.357,0,0,0-1.028-.067c-.351.092-.821.134-1.033.458-.262.437-.372.376-.627.818s.058.625-.2,1.068-.586.251-.841.694-.137.511-.392.953-.193.481-.449.925-.35.389-.606.832-.212.468-.468.91,0,.588-.258,1.03-.235.457-.491.9-.454.331-.711.776-.392.369-.649.815-.157.505-.414.951.041.623-.218,1.072-.238.459-.5.906-.39.37-.648.817-.632.232-.891.679,0,.6-.261,1.048-.417.357-.676.805-.309.42-.568.868-.243.46-.5.91-.082.552-.342,1-.485.318-.744.767.255.745,0,1.193-.616.245-.876.7-.006.6-.266,1.049-.545.289-.806.741-.162.51-.424.962c-.1.17-.344.226-.453.392-.194.23-.03.8-.251,1s-.647.185-.893.358-.642.116-.908.257c-.452.3-.192.682-.635.992s-.623.059-1.069.371-.257.581-.7.894-.489.255-.936.569-.464.289-.912.6c-.36.252-.407.184-.767.436s-.523.018-.884.27-.061.681-.422.933c-.616.431-.884.047-1.5.478-.231.162-.158.266-.389.427-.154.108.007.353-.151.455-.322.192-.383.266.218.088.364.115.146.21.409.488.108.145.112.042.18-.179.033-.181.319-.338.318-.523.035-.49-.455-.529-.412-1.018s.27-.469.312-.959c.041-.47.1-.465.139-.935s-.271-.5-.23-.963.215-.456.256-.926-.059-.48-.018-.951.385-.443.426-.915-.171-.491-.13-.964c.03-.343.268-.669.3-1.012s-.073-.7-.044-1.041.244-.67.275-1.013-.314-.725-.278-1.067a3.315,3.315,0,0,1,.357-1.282c.166-.288.423-.516.589-.8s.588-.429.755-.716.217-.643.383-.931.126-.7.292-.984.787-.313.953-.6.358-.562.525-.85.285-.6.451-.891.357-.562.523-.85.326-.58.492-.868.14-.688.306-.976.075-.724.241-1.012.407-.534.573-.822.718-.353.885-.642.124-.7.29-.984.5-.479.666-.768.248-.624.414-.912c.253-.438.224-.454.477-.892s.288-.417.54-.854.122-.515.375-.953.465-.316.718-.754.14-.5.393-.941-.074-.625.178-1.062.668-.2.922-.638-.173-.682.079-1.119.5-.294.751-.73.261-.432.514-.869.355-.381.608-.82.3-.409.556-.848.19-.474.443-.912.173-.486.427-.926.415-.345.668-.784.353-.381.606-.82-.191-.694.062-1.132.389-.362.643-.8.517-.289.771-.73-.02-.6.235-1.043.257-.442.512-.884c.155-.268.281-.553.431-.83s.368-.51.517-.786.537-.418.691-.69.325-.524.489-.788.179-.62.359-.873c.29-.406.514-.449.85-.337s.573.46.883.638c.457.264.574.06,1.032.324s.409.353.868.618.583.054,1.043.32.34.476.8.743.54.13,1,.4c.225.13.643.115.975.292.307.162.462.618.674.838.246.256.6.636.453.994-.146.3-.557.481-.717.774s-.239.634-.413.92-.657.385-.844.662c-.259.431-.112.522-.363.958s-.159.489-.411.924-.071.542-.323.979-.581.246-.833.682.025.6-.226,1.032-.087.53-.338.965-.381.363-.634.8-.387.361-.64.8-.026.571-.279,1.01-.314.405-.568.844c-.184.319-.339.229-.517.55a1.6,1.6,0,0,0-.208,1.165c.117.368.528.531.9.723a1.144,1.144,0,0,0,.941,0,1.318,1.318,0,0,0,.785-.633c.077-.049.321.345.322.343" fill="#0d4b08"/><path d="M8.66,122.771h40a6.815,6.815,0,0,1,6.815,6.815v75.268a6.815,6.815,0,0,1-6.815,6.815h-40a6.815,6.815,0,0,1-6.815-6.815V129.586a6.815,6.815,0,0,1,6.815-6.815" fill="#fefffd"/><path d="M8.66,213.023c.518,0,.518.2,1.036.2s.518.079,1.035.079.517-.01,1.035-.01.517.044,1.034.044.518-.331,1.035-.331.518-.059,1.036-.059.518.059,1.037.059.519-.064,1.038-.064.52.388,1.04.388.52-.051,1.039-.051.519.136,1.037.136.519-.253,1.037-.253.519-.189,1.037-.189.519.3,1.038.3.52-.319,1.04-.319.52.113,1.04.113.52.354,1.039.354.519.036,1.039.036.519.015,1.039.015.52-.323,1.04-.323.52.261,1.04.261.52-.443,1.04-.443.52.079,1.04.079.521.357,1.041.357.519-.04,1.038-.04.518-.067,1.036-.067.518-.074,1.037-.074.521.237,1.042.237.52-.016,1.04-.016.52-.321,1.04-.321.522-.123,1.044-.123.521.316,1.042.316.521-.414,1.043-.414.519.294,1.038.294.523.088,1.045.088.523-.326,1.045-.326.525.164,1.049.164.524.083,1.049.087c.345.013.665-.322,1.006-.35s.708.208,1.043.14a9.581,9.581,0,0,0,1.052-.1,9.008,9.008,0,0,0,.994-.351c.311-.146.38-.733.671-.915s.8-.051,1.065-.267a8.936,8.936,0,0,0,.807-.673,8.8,8.8,0,0,0,.686-.8,9.284,9.284,0,0,0,.371-.93c.158-.283.5-.489.628-.787a9.168,9.168,0,0,0,.223-.97,9.215,9.215,0,0,0,.354-.931c.059-.318-.313-.694-.29-1.018a8.7,8.7,0,0,0,.057-.955c-.005-.511-.057-.513-.057-1.024s.442-.51.442-1.021-.233-.51-.233-1.021.267-.51.267-1.02-.325-.511-.325-1.021.087-.51.087-1.02-.226-.51-.226-1.02.247-.51.247-1.02.2-.51.2-1.02-.211-.511-.211-1.021.242-.51.242-1.021-.216-.511-.216-1.022.014-.511.014-1.022-.052-.511-.052-1.023,0-.51,0-1.021.243-.511.243-1.022-.161-.51-.161-1.02.117-.511.117-1.021.068-.511.068-1.021-.247-.511-.247-1.021.248-.511.248-1.022-.088-.511-.088-1.022-.518-.508-.518-1.016.023-.508.023-1.016.494-.508.494-1.016-.4-.509-.4-1.017.208-.509.208-1.019-.09-.509-.09-1.019.223-.511.223-1.021-.254-.512-.254-1.023.3-.512.3-1.023-.486-.511-.486-1.022.079-.51.079-1.021.134-.509.134-1.019-.008-.51-.008-1.02-.078-.509-.078-1.019.338-.51.338-1.019-.276-.51-.276-1.021.023-.51.023-1.021-.1-.512-.1-1.023.474-.512.474-1.025-.245-.512-.245-1.023-.113-.511-.113-1.022.257-.511.257-1.022.029-.511.029-1.021.019-.512.019-1.023-.323-.512-.323-1.024.294-.512.294-1.025-.064-.512-.064-1.023-.388-.512-.388-1.023.228-.512.228-1.024.24-.513.24-1.025-.305-.513-.305-1.025.394-.512.394-1.024-.546-.512-.546-1.025.3-.513.3-1.026.154-.511.154-1.021-.515-.511-.515-1.021.252-.511.252-1.022.175-.514.175-1.027-.2-.512-.2-1.025.219-.512.219-1.024-.2-.514-.2-1.028-.2-.513-.2-1.026.543-.514.543-1.028-.185-.512-.185-1.023-.067-.515-.067-1.029.021-.515.021-1.03-.309-.517-.309-1.034.031-.516.031-1.033c0-.311.3-.622.3-.933s-.325-.622-.325-.934.308-.621.308-.932c.008-.335-.318-.646-.347-.976s.192-.69.124-1.015.1-.735-.007-1.051-.414-.576-.555-.878-.572-.438-.748-.722a8.23,8.23,0,0,0-.5-.848c-.206-.26-.194-.726-.431-.963s-.777-.128-1.051-.327a8.959,8.959,0,0,0-.786-.627,9.271,9.271,0,0,0-.842-.586,8.892,8.892,0,0,0-.966-.335,9.177,9.177,0,0,0-1.014-.126,8.872,8.872,0,0,0-1.007-.029c-.338-.021-.671-.517-1.013-.5-.512.007-.508.138-1.021.138s-.512.335-1.025.335-.512-.124-1.025-.124-.513-.353-1.026-.353-.513.414-1.027.414-.514.075-1.029.075-.515-.454-1.03-.454-.515.118-1.029.118-.514.447-1.028.447-.513-.357-1.027-.357-.513-.116-1.027-.116-.514.217-1.028.217-.515-.093-1.03-.093-.515-.23-1.031-.23-.514.216-1.029.216-.514.029-1.028.029-.515-.117-1.03-.117-.515.4-1.03.4-.516-.386-1.031-.386-.515-.133-1.03-.133-.515.322-1.03.322-.516.077-1.032.077-.513-.081-1.027-.081-.513-.07-1.026-.07-.514-.269-1.028-.269-.516.43-1.032.43-.516-.081-1.031-.081-.515-.231-1.03-.231-.517.184-1.034.184-.516-.093-1.031-.093-.517-.079-1.034-.079-.514.314-1.029.314-.517.067-1.034.067-.518-.052-1.036-.052-.52-.175-1.039-.175-.519-.058-1.038-.063c-.3-.012-.6.067-.9.066s-.592.205-.892.216-.6-.037-.895-.014-.619-.162-.917-.127a8.664,8.664,0,0,0-1.041.244,9.355,9.355,0,0,0-1.068.226,9.122,9.122,0,0,0-.895.618,9.215,9.215,0,0,0-.951.528c-.273.223-.369.664-.611.919a8.593,8.593,0,0,0-.564.894c-.208.283-.675.405-.847.713a8.969,8.969,0,0,0-.536.945,9,9,0,0,0-.328,1.037,9.144,9.144,0,0,0-.087,1.082c-.046.346.3.716.3,1.072,0,.336-.467.667-.471,1s.321.676.318,1.012-.087.672-.089,1.008.076.672.075,1.008-.143.672-.144,1.008-.165.672-.165,1.009.2.672.2,1.008.015.673.015,1.009.012.672.013,1.008.015.673.016,1.009.043.672.044,1.008-.1.673-.1,1.009-.114.674-.112,1.01.073.672.075,1.008-.233.674-.231,1.01.372.671.373,1.007.06.672.061,1.008.115.673.116,1.009-.263.673-.262,1.009.017.672.017,1.008c0,.518-.242.518-.242,1.036s.007.514.007,1.028.205.515.205,1.029.1.515.1,1.03-.06.515-.06,1.031.1.516.1,1.032.026.516.026,1.033.037.518.037,1.035-.144.518-.144,1.036.014.517.014,1.034.052.517.052,1.033-.251.517-.251,1.033-.134.516-.134,1.031.363.516.363,1.032-.382.516-.382,1.032.137.517.137,1.033.074.517.074,1.034-.109.518-.109,1.035.05.519.05,1.038.292.518.292,1.036.025.517.025,1.034-.228.517-.228,1.034-.154.517-.154,1.034.117.518.117,1.035.347.518.347,1.037.023.519.023,1.037-.152.518-.152,1.036-.431.518-.431,1.036.3.518.3,1.036-.183.519-.183,1.038-.058.518-.058,1.037.019.518.019,1.037.205.518.205,1.037-.261.519-.261,1.038.594.517.594,1.035-.411.516-.411,1.033.295.517.295,1.034-.327.52-.327,1.04.114.518.114,1.037-.2.518-.2,1.037.512.52.512,1.04-.282.52-.282,1.039-.257.52-.257,1.04.448.518.448,1.036-.309.521-.309,1.042.328.521.328,1.043-.072.522-.072,1.045-.029.523-.029,1.046c0,.375-.085.75-.089,1.125s-.294.747-.3,1.123.515.755.514,1.13-.469.753-.464,1.128.141.751.156,1.126c.016.359.338.672.4,1.018s-.328.813-.225,1.149a8.9,8.9,0,0,0,.362,1.038c.146.325.617.495.8.8s.175.759.4,1.035.827.2,1.082.449.361.638.645.851a8.489,8.489,0,0,0,.856.63c.307.175.746.042,1.076.178a8.085,8.085,0,0,0,.924.5,8.243,8.243,0,0,0,1.041.11c.347.048.668.419,1.027.423s.6-.288.832-.455c.257-.189.6-.358.679-.662a1.9,1.9,0,0,0-.13-.956c-.087-.3-.14-.719-.394-.913-.226-.172-.629.064-.988.057a6.1,6.1,0,0,1-1.1-.027,5.844,5.844,0,0,1-1.013-.432c-.325-.139-.5-.569-.786-.766a5.512,5.512,0,0,1-.883-.566c-.245-.25-.67-.4-.863-.689s.106-.845-.027-1.171a8.957,8.957,0,0,1-.4-1.954c0-.336.024-.671.025-1.007s0-.674,0-1.01c0-.516-.223-.516-.223-1.033s-.3-.517-.3-1.033.086-.516.086-1.032.445-.517.445-1.033-.24-.516-.24-1.032.193-.516.193-1.032-.1-.516-.1-1.032-.033-.516-.033-1.032.041-.517.041-1.033-.152-.516-.152-1.033.245-.517.245-1.034-.13-.517-.13-1.034-.377-.517-.377-1.035.48-.516.48-1.033-.491-.517-.491-1.034.285-.516.285-1.033.011-.516.011-1.032.117-.517.117-1.033.057-.517.057-1.033-.072-.517-.072-1.034-.093-.517-.093-1.034.186-.517.186-1.035.115-.514.115-1.028-.512-.514-.512-1.028.157-.514.157-1.029.3-.515.3-1.03-.318-.516-.318-1.031,0-.517,0-1.033-.028-.518-.028-1.035.083-.518.083-1.035.274-.517.274-1.034.023-.516.023-1.032-.182-.516-.182-1.032-.052-.515-.052-1.031.133-.515.133-1.031-.235-.516-.235-1.031.1-.516.1-1.032-.245-.517-.245-1.034.243-.517.243-1.034-.158-.519-.158-1.037-.181-.518-.181-1.035.307-.517.307-1.034-.254-.517-.254-1.034.283-.516.283-1.033-.1-.517-.1-1.034.355-.518.355-1.036-.164-.519-.164-1.037-.107-.518-.107-1.036-.209-.517-.209-1.035.38-.517.38-1.035-.32-.518-.32-1.037-.19-.518-.19-1.037.148-.518.148-1.036.155-.518.155-1.036-.263-.519-.263-1.038.069-.517.069-1.034.173-.516.173-1.032.115-.517.115-1.034-.241-.519-.241-1.039-.114-.518-.114-1.036-.038-.518-.038-1.037.411-.52.411-1.04-.024-.519-.024-1.038-.149-.52-.149-1.039.153-.518.153-1.036.187-.52.187-1.04-.388-.521-.388-1.042-.119-.523-.119-1.046.505-.522.505-1.045c0-.291-.322-.583-.323-.875s-.015-.585-.011-.876a5.917,5.917,0,0,1-.021-1.078c.071-.346.453-.6.586-.923s-.047-.843.147-1.131a5.9,5.9,0,0,1,.788-.768,5.774,5.774,0,0,1,.822-.707c.288-.194.74-.122,1.064-.258s.576-.548.922-.618a6.315,6.315,0,0,1,1.09.092c.357,0,.714.039,1.07.035s.712-.174,1.069-.175.713.4,1.07.4.713-.42,1.069-.419.713.076,1.07.078.712.094,1.069.1.712.224,1.068.225.715-.364,1.071-.363.713-.075,1.069-.075c.512,0,.512-.038,1.024-.038s.511.4,1.023.4.511.124,1.022.124.511-.341,1.022-.341.512.211,1.023.211.513.088,1.025.088.513-.065,1.026-.065.512-.1,1.024-.1.512-.123,1.024-.123.512.289,1.024.289.513-.471,1.026-.471.513.452,1.025.452.513-.277,1.025-.277.513.081,1.026.081.513-.122,1.026-.122.511.337,1.023.337.51.022,1.021.022.511.08,1.023.08.513-.486,1.027-.486.513.032,1.025.032.513-.077,1.026-.077.514.142,1.028.142.514.053,1.027.053.515.281,1.029.281.512.043,1.024.043.515-.521,1.029-.521.516.02,1.031.02.517.107,1.034.107.514-.062,1.031-.071a6.057,6.057,0,0,1,1.061-.067c.344.038.6.528.93.627s.761-.053,1.065.1a5.914,5.914,0,0,1,.793.69,5.949,5.949,0,0,1,.869.594,5.906,5.906,0,0,1,.587.877,6.758,6.758,0,0,1,.314,1.154,6.48,6.48,0,0,1,.156,1.157c.042.39.452.779.423,1.173-.01.513-.1.507-.1,1.02s-.066.513-.066,1.026-.339.512-.339,1.025.423.513.423,1.025-.034.512-.034,1.025.031.512.031,1.025-.014.512-.014,1.024.1.513.1,1.025-.429.513-.429,1.026.252.513.252,1.026.16.513.16,1.026-.5.514-.5,1.027.428.514.428,1.027-.364.513-.364,1.027.371.513.371,1.026-.4.512-.4,1.025.17.513.17,1.026-.207.513-.207,1.025.522.513.522,1.026-.08.513-.08,1.026-.412.514-.412,1.027,0,.514,0,1.028.38.51.38,1.02-.083.511-.083,1.021-.022.511-.022,1.022-.1.512-.1,1.023.1.512.1,1.024-.308.513-.308,1.026.185.513.185,1.027.3.514.3,1.028-.543.513-.543,1.026.5.513.5,1.025-.17.512-.17,1.025-.3.511-.3,1.023.457.512.457,1.024.053.512.053,1.024-.419.513-.419,1.025-.118.513-.118,1.026.34.514.34,1.028-.031.514-.031,1.029-.042.514-.042,1.028.2.513.2,1.026-.338.513-.338,1.026.365.514.365,1.027-.465.513-.465,1.027.284.514.284,1.028.041.515.041,1.03.207.514.207,1.028-.38.514-.38,1.028-.135.514-.135,1.028-.074.514-.074,1.029.222.515.222,1.03.071.514.071,1.028.089.515.089,1.03-.137.515-.137,1.03.207.513.207,1.026-.445.513-.445,1.026.541.513.541,1.026.007.516.007,1.032-.017.514-.017,1.029-.1.514-.1,1.029.056.516.056,1.032-.505.516-.505,1.031.192.516.192,1.033.368.514.368,1.027-.02.517-.02,1.034-.243.517-.243,1.035-.255.519-.255,1.037.26.519.26,1.038c0,.356-.16.723-.152,1.09s.187.718.189,1.082-.2.715-.221,1.075a9.944,9.944,0,0,1-.12,1.056c-.06.36.087.754-.028,1.095a5.231,5.231,0,0,1-.454.99,4.851,4.851,0,0,1-.741.784c-.258.242-.319.753-.61.945a7.7,7.7,0,0,1-2.009.854c-.339.084-.747-.113-1.1-.087a6.349,6.349,0,0,1-1.054.173c-.512-.013-.507-.457-1.019-.457s-.511.208-1.022.208-.511.038-1.021.038-.511-.008-1.022-.008-.511-.092-1.022-.092-.511.274-1.022.274-.512-.051-1.024-.051-.513-.373-1.025-.373-.514.119-1.027.119-.513.269-1.026.269-.512-.379-1.024-.379-.512.519-1.024.519-.512-.045-1.024-.045-.512-.484-1.025-.484-.513,0-1.026,0-.514.4-1.027.4-.513.031-1.026.031-.513.029-1.025.029-.513-.058-1.026-.058-.514.058-1.027.058-.514-.092-1.028-.092-.513-.211-1.026-.211-.513.427-1.027.427-.514-.133-1.028-.133-.512-.257-1.024-.257-.511-.206-1.023-.206-.512.362-1.024.362-.515.1-1.029.1-.514-.2-1.027-.2-.514.165-1.027.165-.515-.055-1.03-.055-.515-.375-1.029-.375-.515.23-1.03.23-.513-.1-1.025-.1-.516.4-1.031.4-.517.021-1.033.021-.518-.238-1.036-.238-.519-.144-1.037-.137a1.847,1.847,0,0,0-1.186.477c-.261.285.037.786.055,1.2.018.39-.229.861.028,1.119a2.079,2.079,0,0,0,1.174.532c.072-.025-.072-.35-.071-.35" fill="#0d4b08"/><path d="M22.411,129.121c.518,0,.518.266,1.036.266s.52.2,1.041.2.519-.525,1.038-.525.519.019,1.038.019.521.006,1.042.006.52.1,1.04.1.521.081,1.042.081.518.017,1.037.017.521.22,1.043.22.522-.345,1.044-.345.523.2,1.047.2.523.079,1.047.079a2.728,2.728,0,0,1,.881.13,2.7,2.7,0,0,1,.769.44c.251.184.705.175.888.426a3.353,3.353,0,0,1,.5.857,3.415,3.415,0,0,1,.1.988,3.472,3.472,0,0,1-.092.99c-.1.3-.588.414-.77.664a2.761,2.761,0,0,1-.592.663,2.73,2.73,0,0,1-.841.278c-.289.094-.523.386-.843.386-.518,0-.518.189-1.036.189s-.52-.3-1.041-.3-.519.319-1.038.319-.519-.113-1.038-.113S30.232,135,29.711,135s-.52-.036-1.04-.036-.521-.015-1.042-.015-.518.323-1.037.323-.521-.261-1.043-.261-.522.444-1.044.444-.523-.079-1.047-.079-.523-.358-1.047-.358a2.589,2.589,0,0,1-.859-.1,2.708,2.708,0,0,1-.814-.34,2.882,2.882,0,0,1-.689-.586c-.181-.25-.092-.587-.19-.887a2.429,2.429,0,0,1-.146-.829c0-.321-.268-.645-.175-.934a3.324,3.324,0,0,1,.331-.913c.183-.252.629-.256.881-.44s.36-.7.66-.795.681.136,1,.136v.088" fill="#0d4b08"/></g></svg>