<svg xmlns="http://www.w3.org/2000/svg" width="81.241" height="112.51" viewBox="0 0 81.241 112.51"><g transform="translate(0 0)"><path d="M328.326,158.276h0" transform="translate(-308.158 -148.554)" fill="#fff"/><path d="M649.8,185.49q-.321.467-.685.9.364-.435.685-.9" transform="translate(-609.243 -174.096)" fill="#fff"/><path d="M499.636,268.7c.037,0,.074,0,.111,0-.089,0-.178,0-.266,0,.052,0,.1,0,.155,0" transform="translate(-468.8 -252.188)" fill="#fff"/><path d="M597.212,46.885q.326-.014.652-.021-.326.006-.652.021" transform="translate(-560.528 -43.985)" fill="#fff"/><path d="M649.825,48.169c.141.011.282.021.423.035-.141-.014-.282-.024-.423-.035" transform="translate(-609.909 -45.21)" fill="#fff"/><path d="M630.964,47.064c.207.007.413.018.62.03-.206-.012-.413-.023-.62-.03" transform="translate(-592.207 -44.173)" fill="#fff"/><path d="M692.149,53.664l-.034-.005.032.005h0" transform="translate(-649.601 -50.363)" fill="#fff"/><path d="M671.49,50.449l.31.043-.31-.043" transform="translate(-630.243 -47.35)" fill="#fff"/><path d="M584.368,47.368c.212-.016.423-.028.634-.038-.211.011-.422.022-.634.038" transform="translate(-548.473 -44.423)" fill="#fff"/><path d="M609.909,46.718c-.138,0-.276,0-.414.007q.321,0,.641,0c-.076,0-.151-.005-.227-.005" transform="translate(-572.056 -43.848)" fill="#fff"/><path d="M564.584,48.191c.376-.046.753-.085,1.128-.114q-.563.044-1.128.114" transform="translate(-529.904 -45.124)" fill="#fff"/><path d="M511.883,58.687c.095-.024.19-.045.285-.068-.095.023-.19.044-.285.068" transform="translate(-480.44 -55.018)" fill="#fff"/><path d="M89.532,821.3a29.021,29.021,0,0,1-23.584-3.382,1.41,1.41,0,0,1-.153-.032l-11.332-3.563a6.961,6.961,0,0,0-5.766,1.437c-.974.846-2.416,2.6-2.138,3.707.309,1.229,2.889,2.5,6.39,1.788a1.429,1.429,0,0,1,1.1,2.577c-2.1,1.449-2.59,3.742-2.155,4.508a1.777,1.777,0,0,0,1.236.667,4.449,4.449,0,0,0,3.648-1.162,1.429,1.429,0,0,1,2.178,1.775c-1.436,2.64-1.617,3.941-1.558,4.332.9.218,4.273-1.086,7.7-3.271a1.429,1.429,0,0,1,1.676.1A11.423,11.423,0,0,0,77.7,832.813a1.429,1.429,0,1,1,.906,2.711c-.28.094-.563.177-.848.253A13.276,13.276,0,0,0,81.9,840.39c5.205,3.513,13.236,2.864,17.9-1.446,5.3-4.9,6.4-15.095-.13-22.882a28.958,28.958,0,0,1-10.14,5.235" transform="translate(-43.667 -764.188)" fill="#fefffd"/><path d="M964.541,516.277a1.43,1.43,0,0,1-1.091-2.118c2.052-3.673,2.372-6.073,1.942-6.539-.565-.613-4.423-.3-10.682,4a29.325,29.325,0,0,1-8.12,14.577,22.017,22.017,0,0,1,4.493,8.5,10.933,10.933,0,0,0,5.314-7.522,1.429,1.429,0,0,1,1.949-1.061,6.638,6.638,0,0,0,4.934.333,1.3,1.3,0,0,0,.689-.526c.11-.293-.244-1.392-1.558-2.607a1.429,1.429,0,0,1,.489-2.4A6.453,6.453,0,0,0,966.649,518a1.245,1.245,0,0,0,.159-.822,3.391,3.391,0,0,0-2.267-.9" transform="translate(-888.445 -476.215)" fill="#fefffd"/><path d="M539.04,52.8c.126-.023.253-.046.379-.068-.126.021-.253.044-.379.068" transform="translate(-505.929 -49.497)" fill="#fff"/><path d="M214.894,116.722a26.249,26.249,0,0,0,7.654-51.36s0,0,0,0a14.652,14.652,0,0,1-27.423,7.861,26.248,26.248,0,0,0,19.768,43.5m8.859-34.113a3.719,3.719,0,1,1-2.441,4.66,3.719,3.719,0,0,1,2.441-4.66M212.832,94.264a4.622,4.622,0,0,1,8.53.429c.467,1.31,2.1,10.029-.946,11.114a1.865,1.865,0,0,1-.632.109c-1.167,0-2.542-1.046-4.178-3.171a22.546,22.546,0,0,1-2.953-4.947,4.593,4.593,0,0,1,.178-3.533m-9.621-5.235a3.719,3.719,0,1,1-2.441,4.66,3.72,3.72,0,0,1,2.441-4.66" transform="translate(-177.067 -61.347)" fill="#fefffd"/><path d="M552.385,50.667c.138-.021.276-.043.414-.061-.138.019-.276.04-.414.061" transform="translate(-518.454 -47.497)" fill="#fff"/><path d="M525.491,55.445c.115-.025.231-.049.346-.072-.115.024-.231.047-.346.072" transform="translate(-493.212 -51.971)" fill="#fff"/><path d="M328.326,53.634h0c.056.119.114.236.173.352.023.046.046.093.07.138q.126.24.262.474l.04.066q.118.2.243.392c.032.05.066.1.1.147.067.1.136.2.206.3q.057.079.115.157.106.142.215.28c.038.048.076.1.115.145q.128.157.261.308c.028.032.055.065.083.1q.176.2.361.386c.028.029.057.056.086.084.1.1.193.191.293.284l.134.122q.13.118.263.232l.146.123q.136.112.276.22c.046.036.092.072.139.108q.174.131.352.255l.072.052q.216.148.439.286l.124.074c.108.066.217.13.328.192l.163.089q.152.082.306.16l.17.085c.108.052.216.1.325.151l.153.069q.229.1.462.188l.023.009c.163.062.328.119.494.174l.156.049c.116.036.232.072.35.1l.184.05q.167.044.335.083l.186.042c.121.026.243.049.365.072l.156.029c.174.029.348.055.523.077l.065.007q.231.027.464.045l.177.011c.12.007.24.013.36.017l.2,0c.089,0,.177,0,.266,0q.293,0,.587-.02l.15-.008q.361-.026.723-.075c.058-.008.116-.018.174-.027q.287-.043.574-.1l.207-.043c.243-.054.487-.112.73-.182q.293-.084.579-.182a11.82,11.82,0,0,0,1.109-.443,11.726,11.726,0,0,0,4.093-3.127q.365-.435.685-.9t.6-.962q.274-.495.5-1.015t.4-1.059q.176-.54.3-1.1t.193-1.127q.035-.285.055-.573a11.713,11.713,0,0,0-.058-2.259l-.032-.005c-.318-.058-.637-.107-.957-.154l-.31-.043q-.452-.06-.908-.1c-.141-.014-.282-.024-.423-.035q-.269-.022-.539-.038c-.206-.012-.413-.023-.62-.03-.226-.008-.451-.014-.678-.016s-.427,0-.641,0l-.1,0q-.326.006-.652.021l-.155.008c-.211.011-.422.023-.634.038l-.087.008c-.376.029-.752.068-1.128.114-.112.014-.224.026-.336.041-.138.019-.276.041-.413.061s-.294.045-.44.07c-.126.021-.253.044-.379.068q-.243.045-.486.094c-.116.024-.231.047-.346.072-.184.04-.367.083-.551.127-.095.023-.19.044-.285.068-.279.07-.558.144-.837.224a26.107,26.107,0,0,0-10.438,5.829" transform="translate(-308.158 -43.912)" fill="#407b3e"/><path d="M611.777,534.846c.739-.5.74-6.216-.237-8.955a2.8,2.8,0,1,0-5.274,1.88c.977,2.739,4.6,7.165,5.511,7.074" transform="translate(-568.973 -492.066)" fill="#407b3e"/><path d="M387.945,455.162a3.719,3.719,0,1,0-4.66-2.44,3.72,3.72,0,0,0,4.66,2.44" transform="translate(-359.581 -420.379)" fill="#0d4b08"/><path d="M722.361,350.638a3.719,3.719,0,1,0-4.66-2.44,3.719,3.719,0,0,0,4.66,2.44" transform="translate(-673.456 -322.276)" fill="#0d4b08"/><path d="M578.164,503.973c1.636,2.126,3.011,3.171,4.178,3.171a1.867,1.867,0,0,0,.632-.109c3.044-1.085,1.413-9.8.946-11.114a4.622,4.622,0,0,0-8.708,3.1,22.548,22.548,0,0,0,2.953,4.947m.17-9.952a3.666,3.666,0,0,1,4.684,2.222c.68,1.907,1.541,9.212-.366,9.892s-5.86-5.523-6.54-7.43a3.666,3.666,0,0,1,2.222-4.684" transform="translate(-539.624 -462.575)" fill="#0d4b08"/><path d="M597.381,520.938c1.933-.689,1.06-8.092.371-10.025a3.715,3.715,0,0,0-7,2.495c.689,1.933,4.7,8.219,6.628,7.53m-5.609-9.954a2.746,2.746,0,0,1,5.067.255c.958,2.686.957,8.291.232,8.782-.889.089-4.447-4.252-5.4-6.938a2.726,2.726,0,0,1,.105-2.1" transform="translate(-554.283 -477.278)" fill="#0d4b08"/><path d="M78.373,37.667c2.318-4.8,1.692-7.1.676-8.2-2.263-2.453-7.527-.614-12.2,2.174A29.114,29.114,0,0,0,55.213,5.753,29.323,29.323,0,0,0,37.853,0h0A29.128,29.128,0,0,0,16.49,48.924L11.57,47.377a1.424,1.424,0,0,0-.163-.041A9.835,9.835,0,0,0,3.155,49.41C2.513,49.967-.65,52.9.12,55.971c.516,2.058,2.791,3.813,6.089,4.119a5.584,5.584,0,0,0-.47,5.47,4.524,4.524,0,0,0,3.22,2.069,6.514,6.514,0,0,0,2.242,0c-.537,1.774-.432,3.067.3,3.969a2.963,2.963,0,0,0,2.432,1c2.431,0,5.749-1.692,8.181-3.169A14.328,14.328,0,0,0,28.5,71.951a14.173,14.173,0,0,0,2.617.1,16.354,16.354,0,0,0,5.518,6.517,15.8,15.8,0,0,0,4.03,1.939l-2.016,7.119L34.6,91.085a1.369,1.369,0,0,0,1.779,2.081l2.923-2.5,1.412,3.447a1.369,1.369,0,0,0,2.533-1.038l-.934-2.28,2.255.856a1.369,1.369,0,1,0,.972-2.559l-4.029-1.53,1.822-6.432a18.37,18.37,0,0,0,2.776.212,17.772,17.772,0,0,0,11.785-4.329l4.49,3.312-1.18.246a1.369,1.369,0,1,0,.558,2.68l4.176-.87.008,0,.017,0,.021-.006.028-.005c.033-.009.062-.025.094-.036s.079-.024.116-.041l.031-.014.016-.006c.03-.015.056-.035.084-.052s.078-.045.114-.072c.01-.008.022-.013.032-.021l.006-.006.011-.01c.02-.016.038-.036.057-.054s.062-.055.089-.085.03-.033.045-.05.011-.01.016-.016l2.789-3.458a1.369,1.369,0,1,0-2.131-1.718l-1.1,1.358-.716-2.689a1.369,1.369,0,0,0-2.645.7l.407,1.526L59.765,75a18.788,18.788,0,0,0,3.44-13.59,13.76,13.76,0,0,0,7.167-8.348,8.777,8.777,0,0,0,5.606-.212A3.964,3.964,0,0,0,78.2,50.7a4.584,4.584,0,0,0-.928-4.156A8.251,8.251,0,0,0,80.8,42.991a3.938,3.938,0,0,0,.246-3.027,4.182,4.182,0,0,0-2.669-2.3M30.606,3.89c.279-.08.558-.154.837-.224.095-.024.19-.045.285-.068.184-.044.367-.087.551-.127.115-.025.231-.049.346-.072q.243-.049.486-.094c.126-.023.253-.046.379-.068.147-.025.294-.047.441-.069s.276-.043.413-.061c.112-.015.224-.027.336-.041Q35.245,3,35.808,2.95l.087-.008c.212-.016.423-.028.634-.038l.155-.008q.327-.015.652-.021l.1,0c.138,0,.276-.007.414-.007.076,0,.151,0,.227.005.226,0,.452.008.678.016.207.007.413.018.619.03q.27.016.539.038c.141.011.282.021.423.035.3.029.606.065.908.105l.31.043c.32.046.64.1.957.154l.034.005h0A11.707,11.707,0,0,1,42.6,5.557q-.021.288-.055.573-.069.57-.193,1.127t-.3,1.1q-.176.54-.4,1.059t-.5,1.015q-.274.495-.6.962t-.685.9a11.774,11.774,0,0,1-1.188,1.226,11.706,11.706,0,0,1-2.9,1.9,11.858,11.858,0,0,1-1.11.443q-.286.1-.579.182c-.243.07-.486.128-.73.182l-.207.043q-.287.058-.574.1c-.058.009-.116.019-.174.027q-.362.049-.723.076l-.15.008q-.294.018-.587.02c-.037,0-.074,0-.111,0s-.1,0-.155,0l-.2,0c-.12,0-.24-.01-.36-.017l-.177-.011q-.233-.018-.464-.045l-.065-.007c-.175-.021-.35-.047-.523-.077l-.156-.029c-.122-.022-.244-.046-.365-.072l-.186-.042q-.169-.039-.335-.083l-.184-.05c-.117-.033-.234-.068-.35-.1l-.156-.049c-.166-.055-.331-.112-.494-.174l-.023-.009q-.233-.089-.462-.188l-.153-.069c-.109-.049-.218-.1-.325-.151l-.17-.085q-.154-.078-.306-.16l-.163-.089c-.11-.062-.219-.127-.328-.192l-.124-.074q-.222-.138-.439-.286l-.072-.052q-.178-.124-.352-.254c-.047-.035-.093-.072-.139-.108q-.14-.108-.276-.22l-.146-.123q-.133-.114-.263-.231c-.045-.04-.09-.081-.134-.122q-.149-.139-.293-.284l-.086-.084q-.185-.188-.361-.386c-.028-.031-.055-.064-.083-.1q-.133-.152-.261-.308c-.039-.048-.077-.1-.115-.145q-.109-.138-.215-.28l-.115-.157q-.105-.147-.206-.3c-.033-.049-.067-.1-.1-.147q-.125-.193-.243-.392l-.04-.066q-.137-.233-.262-.474c-.024-.045-.046-.092-.07-.138-.059-.116-.117-.233-.173-.352h0l0,0A26.129,26.129,0,0,1,30.606,3.89M12.611,36.354a26.217,26.217,0,0,1,5.448-24.478,14.729,14.729,0,0,0,12.777,7.5A14.668,14.668,0,0,0,45.482,4.015s0,0,0,0a26.248,26.248,0,1,1-32.87,32.342m43.524,38.4c-4.667,4.31-12.7,4.959-17.9,1.446A13.276,13.276,0,0,1,34.1,71.586c.285-.076.568-.159.848-.253a1.429,1.429,0,1,0-.906-2.711A11.423,11.423,0,0,1,23.1,66.589a1.429,1.429,0,0,0-1.676-.1c-3.426,2.184-6.8,3.488-7.7,3.271-.059-.39.121-1.691,1.558-4.332a1.429,1.429,0,0,0-2.178-1.775,4.449,4.449,0,0,1-3.648,1.162,1.777,1.777,0,0,1-1.236-.666c-.435-.766.053-3.059,2.155-4.508a1.429,1.429,0,0,0-1.1-2.577c-3.5.715-6.082-.559-6.391-1.788-.278-1.107,1.164-2.861,2.138-3.707A6.961,6.961,0,0,1,10.8,50.131l11.332,3.563a1.4,1.4,0,0,0,.153.032,29.021,29.021,0,0,0,23.584,3.382,28.956,28.956,0,0,0,10.14-5.235c6.53,7.787,5.434,17.983.13,22.882M78.2,41.785a6.452,6.452,0,0,1-3.749,2.91,1.429,1.429,0,0,0-.489,2.4c1.314,1.215,1.668,2.314,1.558,2.607a1.3,1.3,0,0,1-.689.526,6.638,6.638,0,0,1-4.934-.333,1.429,1.429,0,0,0-1.949,1.061,10.933,10.933,0,0,1-5.314,7.522,22.018,22.018,0,0,0-4.493-8.5A29.325,29.325,0,0,0,66.265,35.4c6.26-4.3,10.118-4.613,10.683-4,.43.466.11,2.866-1.942,6.539A1.43,1.43,0,0,0,76.1,40.059a3.391,3.391,0,0,1,2.267.9,1.246,1.246,0,0,1-.159.822" transform="translate(0 0.003)" fill="#0d4b08"/><path d="M516.519,56.677c.184-.044.367-.087.551-.127-.184.04-.367.083-.551.127" transform="translate(-484.792 -53.076)" fill="#1a1311"/><path d="M559.116,49.979c.112-.015.224-.027.336-.041-.112.014-.224.026-.336.041" transform="translate(-524.772 -46.87)" fill="#1a1311"/><path d="M641.05,47.556q.27.016.539.038-.269-.022-.539-.038" transform="translate(-601.673 -44.635)" fill="#1a1311"/><path d="M545.213,51.675c.147-.025.294-.047.44-.069-.147.022-.294.045-.44.069" transform="translate(-511.723 -48.436)" fill="#1a1311"/><path d="M531.128,53.933q.243-.05.486-.094-.243.045-.486.094" transform="translate(-498.503 -50.532)" fill="#1a1311"/><path d="M619.933,46.8c.226,0,.452.008.678.016-.226-.008-.451-.014-.678-.016" transform="translate(-581.853 -43.93)" fill="#1a1311"/><path d="M676.529,51.154c.32.046.64.1.957.154-.318-.058-.637-.108-.957-.154" transform="translate(-634.973 -48.012)" fill="#1a1311"/><path d="M656.708,48.739q.456.045.908.105c-.3-.04-.6-.076-.908-.105" transform="translate(-616.369 -45.745)" fill="#1a1311"/><path d="M338.74,59.953c.279-.08.558-.154.837-.224-.279.07-.558.144-.837.224A26.129,26.129,0,0,0,328.3,65.779l0,0a26.107,26.107,0,0,1,10.438-5.829" transform="translate(-308.135 -56.06)" fill="#1a1311"/><path d="M607.832,46.837l.1,0-.1,0" transform="translate(-570.495 -43.958)" fill="#1a1311"/><path d="M594.691,47.206l.155-.008-.155.008" transform="translate(-558.162 -44.299)" fill="#1a1311"/><path d="M582.951,47.962l.087-.008-.087.008" transform="translate(-547.143 -45.008)" fill="#1a1311"/></g><text transform="translate(39.826 110.51)" fill="#0d4b08" font-size="14" font-family="HiraginoSans-W5, Hiragino Sans"><tspan x="-28" y="0">つるたん</tspan></text></svg>