<svg xmlns="http://www.w3.org/2000/svg" xmlns:xlink="http://www.w3.org/1999/xlink" width="128.838" height="96.221" viewBox="0 0 128.838 96.221"><defs><clipPath id="a"><rect width="128.838" height="96.221" transform="translate(0.01 0.256)" fill="none"/></clipPath></defs><g transform="translate(-0.01 -0.256)" clip-path="url(#a)"><path d="M90.159,50.087c-3.166,0-8.952,0-15.95.008-12.074,0-27.769.008-39.876.016H18.4s-.016-31.9-.02-43.819l71.756-.024c.008,10.826.016,30.928.02,43.815" fill="#407b3e"/><rect width="38.002" height="42.948" transform="translate(35.27 14.457)" fill="#fefffd"/><path d="M73.274,13.371c-.511-.008-.513.221-1.025.221s-.511-.348-1.022-.348-.511.406-1.022.406-.511-.322-1.022-.322-.512.188-1.023.188-.512-.277-1.025-.277-.513.141-1.026.141-.513.166-1.027.166-.513.23-1.026.23-.513-.4-1.025-.4-.513.363-1.025.363-.512-.323-1.024-.323-.513.079-1.026.079-.513-.122-1.026-.122-.515.287-1.029.287-.513.12-1.026.12-.513-.084-1.026-.084-.513-.408-1.026-.408-.514.377-1.028.377-.514-.287-1.028-.287-.513-.165-1.027-.165-.514.04-1.027.04-.515.067-1.029.067-.513.479-1.025.479-.512-.069-1.023-.069-.513-.448-1.025-.448-.515.477-1.03.477-.514-.112-1.028-.112-.513.084-1.027.084-.515-.4-1.031-.4-.515-.1-1.029-.1-.515.212-1.031.212-.513.255-1.026.255-.516-.222-1.031-.222-.517-.264-1.034-.264l-1.036,0c-.518,0-.518.279-1.036.281s-.741.443-.749.968-.046.509-.046,1.02-.024.51-.024,1.021.057.51.057,1.022-.381.51-.381,1.02.436.51.436,1.02-.325.508-.325,1.018.3.51.3,1.018-.075.509-.075,1.019-.184.508-.184,1.017.208.509.208,1.019-.236.51-.236,1.021.191.51.191,1.021.065.511.065,1.023.091.512.091,1.022-.176.51-.176,1.021.091.511.091,1.02-.339.51-.339,1.02.2.512.2,1.022-.328.511-.328,1.022.551.512.551,1.025-.156.51-.156,1.021-.256.511-.256,1.022-.029.512-.029,1.022.167.512.167,1.024-.09.512-.09,1.024-.046.512-.046,1.022.143.512.143,1.024-.208.512-.208,1.024.466.512.466,1.021-.1.509-.1,1.019-.458.511-.458,1.021.264.513.264,1.025-.077.512-.077,1.024-.15.511-.15,1.023.228.513.228,1.027.064.512.064,1.025.029.513.029,1.026-.257.511-.257,1.022.372.514.372,1.027-.352.515-.352,1.029.14.516.14,1.032.029.516.031,1.032.426,1.228.952,1.235.512-.576,1.024-.576.511.256,1.022.256.511.025,1.022.025.511.131,1.022.131.512.062,1.024.062.512-.16,1.024-.16.513-.067,1.026-.067.514.354,1.028.354.513.007,1.026.007h1.025c.512,0,.512-.444,1.024-.444s.512-.087,1.024-.087.513.135,1.026.135.513.376,1.027.376.514-.2,1.028-.2.513.02,1.026.02.513-.406,1.026-.406.513.163,1.026.163.514.013,1.028.013.514.35,1.028.35.514-.333,1.027-.333.514-.044,1.028-.044.514.231,1.028.231.513-.111,1.025-.111.512.242,1.024.242.512-.492,1.025-.492.514.305,1.029.305.514-.327,1.028-.327.513.187,1.027.187.516-.068,1.031-.068.515.3,1.029.3.516-.3,1.031-.3.513.447,1.026.447.516-.512,1.032-.512.516.372,1.033.372.518-.2,1.036-.2.518-.014,1.036-.016A.989.989,0,0,0,74.33,57.4c0-.507-.326-.508-.326-1.015s.349-.507.349-1.014-.406-.507-.406-1.014.082-.507.082-1.014.417-.507.417-1.015-.258-.507-.258-1.015-.044-.509-.044-1.018.162-.51.162-1.019-.09-.509-.09-1.018-.086-.508-.086-1.017.234-.508.234-1.016-.307-.508-.307-1.015.441-.509.441-1.018-.021-.509-.021-1.018-.2-.51-.2-1.019.076-.51.076-1.019-.258-.509-.258-1.018.066-.509.066-1.018.059-.509.059-1.019-.292-.51-.292-1.02.107-.509.107-1.017.206-.511.206-1.02.143-.509.143-1.02.112-.508.112-1.016-.516-.508-.516-1.015.244-.509.244-1.016-.216-.511-.216-1.023.042-.509.042-1.018.144-.51.144-1.02-.054-.511-.054-1.021-.056-.512-.056-1.022.431-.511.431-1.021-.532-.51-.532-1.019.283-.512.283-1.024.126-.511.126-1.023-.053-.514-.053-1.028-.287-.514-.287-1.028c0-.345.081-.692.085-1.037s-.1-.693-.093-1.039.3-.688.3-1.034.06-.694.056-1.04-.4-.681-.418-1.026c0-.025.321-.06.321-.086a.926.926,0,0,0-1.074-.778c-.494.024-1.073.284-1.1.779-.007.513.306.516.306,1.03s.169.513.169,1.026-.594.513-.594,1.025.516.513.516,1.025-.47.511-.47,1.023.534.512.534,1.024,0,.512,0,1.025-.006.512-.006,1.024-.115.512-.115,1.025-.234.514-.234,1.028.125.514.125,1.029-.07.514-.07,1.028-.292.513-.292,1.026.589.513.589,1.026-.352.513-.352,1.026.144.514.144,1.027.122.514.122,1.029-.291.514-.291,1.029.033.514.033,1.028.157.514.157,1.028.11.514.11,1.028-.479.514-.479,1.029.472.515.472,1.03-.007.514-.007,1.028,0,.515,0,1.029-.006.516-.006,1.031-.124.514-.124,1.027-.018.511-.018,1.024-.174.513-.174,1.026V45.27c0,.513-.017.513-.017,1.028s.14.515.14,1.029-.234.516-.234,1.032.49.516.49,1.031-.191.516-.191,1.032-.332.514-.332,1.028.22.516.22,1.033.122.517.122,1.035-.2.519-.2,1.038.2.518.2,1.037c0,.284.061.577.055.866a7.841,7.841,0,0,0,.088.843c0,.028-.115.168-.115.2.486-.471.718-.362.672-1.037-.035-.511-.317-.319-.829-.319s-.511.493-1.022.493-.511-.488-1.022-.488-.511.518-1.022.518-.512-.527-1.023-.527-.512.425-1.025.425-.513.142-1.026.142-.513-.156-1.027-.156-.513.08-1.026.08-.513-.228-1.025-.228-.513.224-1.025.224-.512-.2-1.024-.2-.513-.241-1.026-.241-.513.2-1.026.2-.515-.032-1.029-.032-.513.368-1.026.368-.513.031-1.026.031-.513-.111-1.026-.111-.514-.333-1.028-.333-.514-.038-1.028-.038-.513.39-1.027.39-.514.073-1.027.073-.515-.427-1.029-.427-.513-.126-1.025-.126-.512.434-1.023.434-.513-.281-1.025-.281-.515.1-1.03.1-.514.022-1.028.022-.513.071-1.027.071-.515-.024-1.031-.024-.515.118-1.029.118-.515-.367-1.031-.367-.513-.037-1.026-.037-.516.292-1.031.292-.517-.289-1.034-.289-.518.309-1.036.309-1-.607-1.045-.091c-.056.675.3,1.182.978,1.138.509-.034-.153-.69-.153-1.2s-.156-.51-.156-1.021.262-.511.262-1.022.276-.51.276-1.021S36,52.813,36,52.3s.513-.509.513-1.018.024-.509.024-1.018-.522-.509-.522-1.018.155-.509.155-1.019.068-.509.068-1.019.229-.51.229-1.02-.294-.511-.294-1.021-.168-.512-.168-1.023,0-.512,0-1.023-.04-.51-.04-1.02.38-.511.38-1.021.135-.51.135-1.019-.1-.512-.1-1.023-.088-.511-.088-1.022-.25-.511-.25-1.024.3-.511.3-1.022-.122-.511-.122-1.021.179-.512.179-1.023-.48-.512-.48-1.024.4-.511.4-1.023-.076-.512-.076-1.024-.29-.511-.29-1.023.35-.512.35-1.025-.018-.51-.018-1.02-.011-.51-.011-1.018-.319-.512-.319-1.022.165-.513.165-1.026.017-.511.017-1.022.29-.513.29-1.024-.049-.514-.049-1.027-.269-.513-.269-1.025-.1-.513-.1-1.026.006-.511.006-1.023.229-.513.229-1.027-.038-.514-.038-1.028-.224-.516-.224-1.033.739-.836.225-.876c-.675-.052-.918.121-.872.8.035.509.438-.285.95-.285s.511.5,1.022.5.511-.4,1.022-.4.511.078,1.022.078.512.238,1.024.238.512-.213,1.024-.213.513.136,1.026.136.514.047,1.028.047.513-.076,1.026-.076.512-.083,1.025-.083.512.15,1.024.15.512-.125,1.024-.125.513-.007,1.026-.007.513-.179,1.027-.179.514-.055,1.028-.055.513.093,1.026.093.513-.021,1.026-.021.513.182,1.026.182.514-.041,1.028-.041.514.129,1.028.129.514.216,1.027.216.514-.022,1.028-.022.514-.162,1.028-.162.513-.341,1.025-.341.512.273,1.024.273.512-.114,1.025-.114.514.3,1.029.3.514-.373,1.028-.373.513.367,1.027.367.516-.187,1.031-.187.515-.251,1.029-.251.516.3,1.031.3.513.177,1.026.177.516-.295,1.032-.295.516.007,1.033.007.518-.232,1.036-.232.517.2,1.035.195c.528-.024,1.1-.4,1.079-.927a1.238,1.238,0,0,0-1.076-1.034" fill="#0d4b08"/><path d="M40.289,26.8c.511,0,.511.057,1.021.057s.511-.236,1.022-.236.51,0,1.019,0,.509-.04,1.017-.04.51-.088,1.019-.088.512.412,1.024.412.51.136,1.021.136.511-.272,1.021-.272.513.113,1.025.113.512-.221,1.023-.221.512.348,1.025.348.51-.406,1.02-.406.512.322,1.025.322.514-.187,1.027-.187.515.276,1.03.276.517-.132,1.032-.14a1.034,1.034,0,0,0,.866-1.119c-.023-.494-.377-.616-.872-.638-.511-.008-.507-.4-1.017-.4s-.511.362-1.022.362-.51-.322-1.019-.322-.509.077-1.017.077-.51-.12-1.019-.12-.512.286-1.024.286-.51.121-1.021.121S49,25.03,48.494,25.03s-.513-.408-1.025-.408S46.957,25,46.446,25s-.512-.287-1.025-.287-.51-.166-1.02-.166-.512.04-1.025.04-.514.067-1.027.067-.515.479-1.03.479-.512-.077-1.026-.069c-.529.024-1.162.255-1.138.784.023.495.651.625,1.146.647" fill="#0d4b08"/><path d="M40.822,31.84h-.533V50.148H68.254V31.84Z" fill="#fefffd"/><path d="M53.344,31.834c0,.508-.07.508-.07,1.016s-.086.508-.086,1.015-.14.508-.14,1.016.2.508.2,1.016-.11.507-.11,1.013-.1.506-.1,1.012.438.507.438,1.013-.253.509-.253,1.018-.1.508-.1,1.016-.1.508-.1,1.016.249.509.249,1.019-.057.508-.057,1.017.236.509.236,1.019,0,.507,0,1.014.04.51.04,1.02.088.511.088,1.022-.412.512-.412,1.024-.144.516-.136,1.028c.024.529.76.948,1.289.924a1.094,1.094,0,0,0,1.04-.926c.008-.508-.221-.51-.221-1.018s.348-.508.348-1.015-.405-.508-.405-1.016.322-.508.322-1.016-.188-.507-.188-1.013.276-.506.276-1.012-.14-.507-.14-1.013-.165-.509-.165-1.018-.232-.508-.232-1.016.4-.508.4-1.016-.362-.509-.362-1.019.322-.508.322-1.017-.077-.509-.077-1.019.121-.507.121-1.014-.287-.51-.287-1.02-.121-.511-.121-1.022.084-.512.084-1.024.416-.515.408-1.027c-.024-.529-.679-.772-1.207-.747-.495.022-1.023.25-1.045.744" fill="#0d4b08"/><path d="M40.445,38.833c.513,0,.513.324,1.026.324s.513-.19,1.027-.19.513.135,1.027.135.514-.481,1.028-.481.515.507,1.03.507.514-.313,1.029-.313.513-.1,1.027-.1.514-.1,1.028-.1.515.262,1.03.262.515.256,1.03.256.514-.471,1.029-.471.514.063,1.029.063.515.14,1.031.14.513.07,1.026.07.513.086,1.025.086.514.14,1.027.14.516-.2,1.032-.2.514.11,1.029.11.515.1,1.029.1.517-.438,1.033-.438.516.254,1.031.254.516.1,1.033.1.514.1,1.028.1.516-.25,1.033-.25S65.66,39,66.177,39s.519-.236,1.038-.236.517,0,1.036,0a.715.715,0,0,0,.743-.86c-.023-.494-.25-.637-.745-.66-.513-.007-.509-.412-1.022-.412S66.714,36.7,66.2,36.7s-.513.272-1.027.272-.514-.113-1.028-.113-.515.221-1.03.221-.514-.348-1.029-.348-.513.406-1.027.406-.514-.322-1.028-.322S59.516,37,59,37s-.515-.276-1.03-.276-.514.14-1.029.14-.514.166-1.029.166-.515.231-1.031.231-.513-.4-1.026-.4-.513.362-1.025.362S52.317,36.9,51.8,36.9s-.516.078-1.032.078-.514-.121-1.029-.121-.515.286-1.029.286-.517.121-1.033.121-.516-.084-1.031-.084-.516-.408-1.033-.408-.514.377-1.028.377-.516-.287-1.033-.287-.518-.165-1.035-.165-.519.04-1.038.04-.522.059-1.041.067c-.528.024-.639.641-.615,1.169.023.495.134.678.628.7" fill="#0d4b08"/><path d="M40.544,44.782c.511,0,.511.382,1.023.382s.511-.4,1.022-.4.512.373,1.024.373.512-.326,1.025-.326.513.061,1.026.061.513-.057,1.025-.057.512-.011,1.024-.011.512.158,1.024.158.514-.028,1.027-.028.513-.1,1.026-.1.512.255,1.025.255.513-.067,1.026-.067.513-.083,1.027-.083.511.323,1.022.323.511-.189,1.022-.189.512.134,1.023.134.514-.48,1.028-.48.513.507,1.026.507.513-.313,1.026-.313.514-.1,1.029-.1.513-.1,1.027-.1.514.262,1.029.262.512.256,1.024.256.515-.472,1.03-.472.516.064,1.031.064.518.14,1.035.14.518.078,1.035.07a1.109,1.109,0,0,0,1.038-1.047,1.348,1.348,0,0,0-1.035-1.173c-.511-.008-.515.2-1.027.2s-.511-.111-1.022-.111-.512-.1-1.024-.1-.512.438-1.025.438-.513-.254-1.026-.254-.513-.1-1.025-.1-.512-.1-1.024-.1-.512.249-1.024.249-.514-.057-1.027-.057-.513.236-1.026.236-.512,0-1.025,0-.513.04-1.026.04-.513.088-1.027.088-.511-.412-1.022-.412S53.4,42.8,52.886,42.8s-.512.272-1.023.272-.514-.113-1.028-.113-.513.221-1.026.221-.513-.348-1.026-.348-.514.406-1.029.406-.513-.322-1.027-.322-.514.187-1.029.187-.512-.276-1.024-.276-.515.14-1.03.14-.516.165-1.031.165-.518.232-1.035.232-.519-.411-1.036-.4c-.528.024-.7.587-.675,1.116.022.5.178.987.673,1.01" fill="#0d4b08"/><path d="M67.176,31.834c0,.508.428.508.428,1.016s-.3.508-.3,1.015.144.508.144,1.016.146.508.146,1.016-.373.507-.373,1.013.3.506.3,1.012-.266.507-.266,1.013.2.509.2,1.018-.455.508-.455,1.016.259.508.259,1.016.269.509.269,1.019-.382.508-.382,1.017.4.509.4,1.019-.372.507-.372,1.014.326.51.326,1.02-.061.511-.061,1.022.057.512.057,1.024,0,.509.011,1.021c.024.528.273.9.8.877a.867.867,0,0,0,.848-.875c.008-.508-.1-.507-.1-1.015s.255-.508.255-1.015S69.23,47.6,69.23,47.1s-.083-.508-.083-1.016.323-.507.323-1.013-.189-.506-.189-1.012.134-.507.134-1.013-.48-.509-.48-1.018.507-.508.507-1.016-.313-.508-.313-1.016-.1-.509-.1-1.019-.1-.508-.1-1.017.262-.509.262-1.019.256-.507.256-1.014-.472-.51-.472-1.02.064-.511.064-1.022.14-.512.14-1.024.078-.513.07-1.025A1.109,1.109,0,0,0,68.205,30.8a1.341,1.341,0,0,0-1.173,1.027" fill="#0d4b08"/><path d="M40.289,51.176c.516,0,.516-.3,1.032-.3s.516.39,1.032.39.517-.184,1.033-.184.517.121,1.035.121.517.142,1.035.142.517-.207,1.034-.207.517.087,1.034.087.517-.171,1.034-.171.518-.071,1.036-.071.517.078,1.035.078.517-.07,1.034-.07.518-.1,1.036-.1.518.334,1.036.334.516-.428,1.032-.428.516.3,1.032.3.516-.143,1.032-.143.519-.147,1.038-.147.517.374,1.035.374.517-.3,1.035-.3.519.265,1.038.265.519-.195,1.037-.195.519.455,1.038.455.517-.259,1.034-.259.52-.269,1.04-.269.52.381,1.04.381.522-.4,1.044-.4.524.381,1.046.373c.529-.024.745-.6.721-1.128-.023-.495-.23-.77-.725-.793-.516-.008-.514.057-1.03.057s-.516.011-1.032.011-.517-.158-1.033-.158-.517.028-1.035.028-.517.1-1.035.1-.517-.256-1.034-.256-.517.068-1.034.068-.517.083-1.034.083-.518-.324-1.035-.324-.518.19-1.036.19-.517-.135-1.034-.135-.518.481-1.036.481-.518-.507-1.036-.507-.516.313-1.032.313-.516.1-1.032.1-.516.1-1.032.1-.519-.263-1.038-.263-.517-.255-1.035-.255-.517.471-1.035.471-.519-.063-1.038-.063-.519-.14-1.037-.14-.519-.071-1.038-.071-.517-.085-1.034-.085-.52-.141-1.039-.141-.521.2-1.041.2-.522-.11-1.044-.11-.526-.112-1.048-.1c-.529.024-.778.747-.753,1.275.022.495.258,1,.753,1.018" fill="#0d4b08"/><path d="M39.155,31.831c-.008.508-.042.511-.042,1.019s.426.508.426,1.015.017.508.017,1.016-.077.509-.077,1.017.107.506.107,1.013.031.506.031,1.012-.276.507-.276,1.013-.29.51-.29,1.019.16.508.16,1.016.05.508.05,1.015.3.51.3,1.02-.39.509-.39,1.017.184.51.184,1.019-.121.508-.121,1.015-.142.51-.142,1.02.207.511.207,1.022-.087.512-.087,1.024.164.512.172,1.024a.92.92,0,0,0,1.823,0c.008-.508-.071-.507-.071-1.016s-.1-.507-.1-1.015.333-.508.333-1.016-.428-.508-.428-1.017.305-.506.305-1.013-.144-.506-.144-1.012-.146-.506-.146-1.013.374-.509.374-1.018-.3-.508-.3-1.016.265-.508.265-1.016-.2-.51-.2-1.019.455-.509.455-1.018-.258-.51-.258-1.019-.27-.507-.27-1.015.382-.51.382-1.02-.4-.511-.4-1.021.373-.513.373-1.025-.319-.509-.327-1.021c-.024-.529-.276-.812-.8-.787-.495.022-1.073.286-1.1.781" fill="#0d4b08"/><path d="M68.254,30.805c-.516-.008-.517.355-1.033.355s-.516-.363-1.032-.363-.517.181-1.033.181-.518.152-1.035.152-.518-.454-1.035-.454-.518.178-1.035.178-.516-.282-1.033-.282-.517.177-1.034.177-.518-.005-1.036-.005-.517.212-1.035.212-.517.07-1.035.07-.517-.32-1.035-.32-.518-.042-1.036-.042-.516.427-1.033.427-.515.016-1.031.016-.516-.076-1.032-.076-.519.106-1.038.106-.517.032-1.035.032-.517-.277-1.035-.277-.519-.289-1.038-.289-.519.159-1.037.159-.519.05-1.038.05-.517.3-1.034.3-.52-.39-1.04-.39-.52.185-1.041.185-.521-.122-1.043-.122-.526-.149-1.048-.141c-.528.024-.969.716-.945,1.244a1.107,1.107,0,0,0,.947,1.034c.516.008.518-.171,1.034-.171s.516-.071,1.032-.071.516.078,1.033.078.517-.07,1.034-.07.518-.1,1.036-.1.517.334,1.034.334.517-.428,1.034-.428.517.3,1.034.3.518-.143,1.035-.143.518-.147,1.036-.147.517.374,1.034.374.518-.3,1.036-.3.518.265,1.036.265.516-.195,1.032-.195.516.455,1.031.455.517-.259,1.033-.259.519-.269,1.037-.269.518.381,1.035.381.518-.4,1.036-.4.519.373,1.038.373.519-.327,1.037-.327.519.062,1.038.062.517-.057,1.034-.057.52-.011,1.039-.011.521.158,1.041.158.522-.028,1.044-.028.519-.1,1.041-.1c.529-.024,1.025-.306,1-.835a1.107,1.107,0,0,0-1-.987" fill="#0d4b08"/><path d="M40.289,22.014c.507,0,.507-.131,1.014-.131s.508.262,1.017.262.507-.153,1.015-.153.508,0,1.016,0,.507-.244,1.013-.244.509.479,1.018.479.509-.116,1.019-.116.511-.355,1.022-.355.512.371,1.023.363a.961.961,0,0,0,.817-1.082c-.022-.5-.327-.649-.822-.671s-.5-.454-1.01-.454-.508.178-1.017.178S46.907,19.8,46.4,19.8s-.508.178-1.016.178-.507-.006-1.013-.006-.509.213-1.018.213-.509.069-1.019.069-.511-.319-1.022-.319-.514-.05-1.025-.042c-.529.024-.727.681-.7,1.209.023.495.222.677.716.7" fill="#0d4b08"/><path d="M107.116,69.481c-2.872-4.9-8.746-13-11.484-16.849-.005-13.562-.012-34.85-.01-47.957a3.462,3.462,0,0,0-3.462-3.46h0l-75.79.026A3.458,3.458,0,0,0,12.909,4.7v0c0,9.771.01,25.076.014,36.624V52.381c-2.7,3.789-8.6,12.141-11.5,17.1A3.19,3.19,0,0,0,.988,71.1c0,3.032.012-.966.012,2.125a2,2,0,0,0,2,2H105.136a2.4,2.4,0,0,0,2.4-2.4c0-.626.011-1.231.011-1.732a3.173,3.173,0,0,0-.433-1.607ZM74.209,50.1c-12.074,0-27.769.008-39.876.016H18.4s-.016-31.9-.02-43.819l71.756-.024c.008,10.826.016,30.928.02,43.815-3.166,0-8.952,0-15.95.008" fill="#fefffd"/><path d="M14.108,41.326c0-.5.083-.505.083-1.006s-.385-.5-.386-1,.339-.5.339-1.006.017-.5.017-1.005-.168-.5-.168-1.006-.05-.5-.05-1,.2-.5.2-1.006-.152-.5-.152-1-.179-.5-.179-1,.24-.5.24-1-.085-.5-.085-1.007.212-.5.212-1.006-.024-.5-.024-1-.282-.505-.282-1.009.164-.5.164-1.006-.376-.5-.376-1.008-.067-.5-.067-1,.09-.505.09-1.01.329-.5.329-1.011S13.9,21.713,13.9,21.2s.268-.506.268-1.014c0-.338-.457-.679-.457-1.018s.367-.68.367-1.018-.174-.68-.174-1.02.225-.679.225-1.018-.319-.679-.319-1.019.319-.679.319-1.02S13.9,13.4,13.9,13.061s.116-.68.116-1.019-.413-.679-.413-1.02.029-.679.029-1.018c0-.373.415-.747.415-1.12s-.238-.745-.238-1.118-.154-.746-.154-1.12.368-.753.368-1.126a4.088,4.088,0,0,1,.112-.9,4.026,4.026,0,0,1,.092-.886,2.154,2.154,0,0,1,.543-.638c.216-.216.329-.481.61-.61.288-.082.523-.4.818-.446s.621.309.919.306.593-.224.89-.188c.444.013.443-.256.887-.256s.445.013.89.013.445.276.89.276c.527,0,.527.142,1.054.142s.525-.192,1.05-.192.528.248,1.056.248S24.366,2.3,24.9,2.3s.53-.344,1.06-.344.53.105,1.06.105.517.263,1.034.263.515-.056,1.031-.056.514-.026,1.029-.026.515-.154,1.03-.154.518.24,1.036.24.516.076,1.033.076.516.048,1.033.048.518.045,1.037.043.517-.5,1.034-.5.518-.071,1.036-.071.516.325,1.032.325.519.147,1.038.147.519-.434,1.038-.434.521.33,1.042.33.521.12,1.042.12.511-.064,1.023-.064.512.136,1.024.136.512-.539,1.024-.541.511.334,1.021.334.51-.087,1.02-.087.51.081,1.021.08.513.134,1.026.134.511.077,1.023.077.512-.389,1.024-.389.513.23,1.027.23.512-.351,1.025-.351.513.078,1.026.078.512.181,1.023.181.514.159,1.027.159.515-.34,1.03-.34.516.116,1.032.116.516.069,1.032.069.524-.007,1.048-.007.525-.009,1.05-.009.522-.312,1.045-.312S63.633,2,64.155,2s.523.125,1.046.125.525.2,1.05.2.524-.308,1.048-.308.524-.082,1.049-.082.526.506,1.051.506.525-.454,1.05-.454.526.023,1.052.023.523.333,1.047.333.526-.13,1.052-.13.527-.114,1.054-.114.528.218,1.057.217.528-.417,1.057-.417.524.28,1.048.28.525.29,1.05.29.527-.094,1.054-.094.526.017,1.052.017.526-.063,1.052-.063.528-.3,1.056-.3.527-.031,1.054-.031.527.224,1.055.224.525.2,1.051.2.528-.424,1.056-.424.529-.083,1.058-.083.53.136,1.061.136.54.4,1.07.38a6.112,6.112,0,0,1,1.006-.244,5.815,5.815,0,0,1,1.023.02,6.371,6.371,0,0,1,1.044.185,2.91,2.91,0,0,1,.652.663c.178.225,0,.615.09.893.071.3.468.543.49.856a6.448,6.448,0,0,1,.17.952c-.01.493-.594.487-.594.981s0,.5,0,.991.222.5.222.991.244.494.244.989-.458.495-.458.987.141.5.141.993.423.5.423.992-.413.5-.413,1-.05.5-.05.995c0,.34.282.679.282,1.02s-.31.679-.31,1.018.082.679.082,1.02.144.679.144,1.018.131.68.131,1.019-.262.678-.262,1.019.153.679.153,1.018,0,.68,0,1.019.244.679.244,1.019-.479.68-.479,1.018.116.68.116,1.019.355.679.355,1.02-.363.679-.363,1.018.181.679.181,1.018.152.681.152,1.02-.454.679-.454,1.018.178.679.178,1.02-.282.679-.282,1.019.177.679.177,1.018-.005.68-.005,1.018.213.663.213.993.069.663.069.993-.32.662-.32.992-.041.663-.041.993.426.663.426.993.016.661.016.993-.076.661-.076.993.106.661.106.993.032.661.032.992-.277.661-.277.993c0,.381-.289.76-.289,1.14s.16.762.16,1.142.05.761.05,1.141.3.76.3,1.141c0,.357-.39.714-.39,1.069s.185.715.185,1.07c0,.319-.142.659-.121.976a2.3,2.3,0,0,0,.413,1.142c.2.284.564.434.767.719s.336.618.539.9.546.47.75.754.464.527.667.811.342.613.545.9.463.528.665.813.486.513.687.8.13.764.331,1.05.752.328.951.615.149.747.347,1.036.516.494.713.781.515.5.71.787.081.789.275,1.078.636.417.828.709.161.731.351,1.024.544.482.731.777-.01.832.175,1.129c.172.274.566.41.736.688s.58.437.735.72c.108.28-.167.693-.109.987s.486.555.493.854-.384.6-.427.9c.027.291.278.665.154.917a1.925,1.925,0,0,1-.673.653,2.282,2.282,0,0,1-1.135.272c-.512-.011-.508.012-1.02.012s-.513-.159-1.025-.159-.513.028-1.025.028-.513.1-1.026.1-.513-.255-1.026-.255-.514.068-1.027.068-.514.083-1.027.083-.514-.323-1.028-.323-.514.189-1.028.189-.515-.135-1.029-.135-.514.481-1.029.481-.513-.507-1.027-.507-.514.314-1.028.314-.513.1-1.027.1-.513.1-1.026.1-.514-.263-1.027-.263-.513-.256-1.026-.256-.513.472-1.026.472-.513-.063-1.026-.063-.513-.14-1.026-.14-.513-.07-1.026-.07-.513-.086-1.026-.086-.514-.141-1.027-.141-.513.2-1.027.2-.514-.111-1.027-.111-.514-.1-1.028-.1-.515.438-1.029.438-.515-.253-1.029-.253-.515-.1-1.029-.1-.514-.1-1.029-.1-.514.249-1.028.249-.513-.058-1.027-.058-.514.236-1.027.236-.514,0-1.028,0-.513.04-1.027.04-.513.088-1.027.088-.514-.412-1.027-.412-.514-.137-1.028-.137-.514.272-1.028.272-.515-.113-1.029-.113-.515.222-1.03.222-.514-.348-1.029-.348-.514.405-1.029.405-.514-.321-1.028-.321-.514.188-1.028.188-.514-.278-1.028-.278-.514.14-1.028.14-.514.166-1.028.166-.515.232-1.029.232-.514-.4-1.029-.4-.515.363-1.03.363-.511-.324-1.023-.324-.512.079-1.023.079-.512-.121-1.024-.121-.513.285-1.026.285-.513.122-1.026.122-.514-.084-1.028-.084-.515-.408-1.03-.408-.515.377-1.03.377-.514-.287-1.029-.287-.513-.165-1.027-.165-.513.04-1.027.04-.513.066-1.026.066-.513.478-1.026.478-.513-.069-1.027-.069-.513-.446-1.027-.446-.514.476-1.028.476-.515-.113-1.03-.113-.516.084-1.032.084-.515-.4-1.03-.4-.514-.1-1.029-.1-.514.213-1.028.213-.515.255-1.029.255-.515-.222-1.029-.222-.516-.264-1.031-.264l-1.032,0c-.516,0-.516.28-1.031.28s-.515.219-1.03.219-.515-.046-1.03-.046-.516-.024-1.032-.024-.516.057-1.032.057-.516-.381-1.031-.381-.516.436-1.032.436-.516-.325-1.033-.325-.514.3-1.028.3-.514-.074-1.028-.074-.514-.185-1.029-.185-.517.208-1.034.208-.515-.236-1.031-.236-.516.192-1.032.192-.517.065-1.035.065-.516.091-1.033.091-.517-.176-1.034-.176-.516.091-1.031.091-.518-.339-1.035-.339-.519.2-1.038.2-.52-.327-1.04-.327-.511.535-1.031.551a3.245,3.245,0,0,1-.8-.139c-.256-.028-.432-.329-.674-.425-.364-.231-.373-.486-.395-.878s-.133-.783-.158-1.137a1.088,1.088,0,0,0-.389-.829,1.27,1.27,0,0,0-.95-.215c-.266.078-.437.412-.517.778C.071,71.912,0,72.3,0,72.5c.468.1.518-.463,1-.463s.449.286.9.115c-.053-.347.282-.517.308-.864s-.173-.705-.069-1.038c.151-.309.377-.57.545-.869s.467-.507.652-.8.184-.7.385-.974c.177-.281.3-.6.481-.876s.336-.575.517-.854.578-.416.761-.693.056-.761.24-1.036.66-.358.845-.634.255-.63.441-.907.347-.569.533-.843.6-.386.789-.657-.1-.868.083-1.139.583-.4.77-.67.4-.526.582-.8.484-.465.672-.735.427-.5.616-.773.247-.631.437-.9.317-.566.5-.83.662-.324.848-.587.367-.507.554-.771a4.959,4.959,0,0,0,.756-1.183c.043-.305-.363-.707-.358-1.014a7.406,7.406,0,0,0-.126-.907c0-.352.135-.713.135-1.063s.375-.7.375-1.053-.2-.7-.2-1.051.02-.7.02-1.054-.406-.7-.406-1.051.163-.7.163-1.053.013-.7.013-1.051.35-.7.35-1.054-.334-.7-.334-1.049a.76.76,0,0,0-.891-.77c-.495.024-.982.27-1.005.765,0,.336.112.672.112,1.007s-.243.671-.243,1.005.492.672.492,1.007-.305.669-.305,1.005.328.669.328,1-.187.67-.187,1,.067.671.067,1.006-.3.669-.3,1.005.3.67.3,1-.447.671-.447,1.006.083.507.083.841c.166-.186.514-.12.436-.359-.2.279-.454.642-.652.92s-.383.565-.581.843-.554.445-.752.723-.128.747-.326,1.026-.679.357-.876.637-.062.792-.258,1.07-.459.514-.655.793-.733.324-.928.6-.177.71-.371.992-.351.587-.544.869-.519.475-.711.757-.307.618-.5.9-.309.615-.5.9-.572.44-.76.726-.115.742-.3,1.029-.742.336-.926.623-.35.59-.532.88-.2.684-.376.974-.421.54-.6.832c-.2.274-.151.691-.3.991a6.223,6.223,0,0,0-.436.9,6.3,6.3,0,0,0-.281.965,8.686,8.686,0,0,0,.28,1.482c.024.528.167.766.7.742.5-.023.915-.228.938-.724.018-.156.011-.727-.1-.237-.448.154-.382-.181-.852-.246s-.462.288-.927.382c.022.316-.048.4-.048.712a3.188,3.188,0,0,0,.372,1.153A2.833,2.833,0,0,0,.95,75.1c.25.242.417.535.72.69a3.375,3.375,0,0,0,.972.275,3.47,3.47,0,0,0,1.006-.021c.509-.015.514.43,1.024.43s.509-.532,1.019-.532.51.283,1.02.283.511.126,1.021.126.51-.054,1.021-.054.51-.286,1.021-.286.511.078,1.022.078.511-.105,1.022-.105.512.292,1.023.292.512.059,1.024.059.512-.393,1.023-.393.512.321,1.023.321.511-.211,1.022-.211.511.308,1.022.308.51-.305,1.021-.305.51-.169,1.021-.169.51.6,1.021.6.51-.518,1.021-.518.51.471,1.02.471.511-.533,1.021-.533H25.1c.51,0,.51.006,1.021.006s.511.116,1.021.116.511.232,1.022.232.511-.124,1.022-.124.511.069,1.023.069.511.292,1.023.292.512-.588,1.024-.588.512.351,1.024.351.511-.142,1.023-.142.511-.122,1.023-.122.511.29,1.022.29.511-.033,1.022-.033.511-.158,1.022-.158.511-.109,1.022-.109.51.479,1.021.479.511-.471,1.023-.471.511.007,1.022.007.511,0,1.023,0,.512,0,1.023,0,.512.125,1.025.125.512.019,1.024.019.511.174,1.023.174h1.023c.512,0,.512.017,1.023.017s.511-.14,1.023-.14.511.234,1.022.234.512-.49,1.023-.49.512.191,1.024.191.511.331,1.023.331.513-.218,1.025-.218.509-.124,1.018-.124.509.2,1.018.2.509-.2,1.019-.2.51-.075,1.02-.075.51-.07,1.021-.07.511.338,1.022.338.513-.325,1.025-.325.512.5,1.025.5.511-.494,1.023-.494.511.488,1.022.488.511-.519,1.022-.519.51.528,1.021.528.51-.425,1.02-.425.511-.142,1.022-.142.511.156,1.022.156S71.616,76,72.128,76s.512.228,1.024.228S73.665,76,74.179,76s.512.2,1.025.2.511.24,1.023.24.512-.2,1.023-.2.512.033,1.024.033.512-.369,1.024-.369.513-.031,1.025-.031.514.111,1.027.111.513.333,1.025.333.513.039,1.025.039.512-.391,1.025-.391.513-.073,1.027-.073.513.427,1.026.427.513.126,1.026.126.513-.435,1.026-.435.514.283,1.028.283.512-.105,1.023-.105.511-.022,1.022-.022.512-.073,1.024-.073.514.026,1.029.026S94.169,76,94.682,76s.513.367,1.026.367.515.037,1.03.037.514-.293,1.028-.293.514.29,1.029.29.512-.309,1.025-.309.515.1,1.03.1.516.171,1.032.171.518-.321,1.035-.321.524-.166,1.041-.156c.358.028.708.293,1.065.271s.777.194,1.127.118c.395-.121.561-.724.883-.972s.987-.231,1.205-.582a5.38,5.38,0,0,0,.378-.873c.083-.283-.369-.682-.34-.976a4.6,4.6,0,0,0,.157-.861,5.784,5.784,0,0,0,.065-1.031,6.409,6.409,0,0,0,.032-1.078c-.092-.33-.494-.562-.645-.874-.169-.3-.489-.51-.672-.806s-.37-.587-.554-.882c-.166-.263-.365-.5-.533-.767s-.019-.729-.189-.99-.229-.6-.4-.857-.431-.465-.6-.723-.421-.469-.6-.728-.575-.4-.76-.674-.121-.714-.307-.984-.473-.472-.66-.743-.228-.642-.416-.912-.769-.264-.957-.534-.046-.769-.235-1.037-.441-.494-.631-.762-.616-.369-.806-.638-.1-.737-.285-1.006-.4-.524-.587-.792-.375-.506-.558-.763-.627-.326-.81-.583-.233-.607-.416-.864-.2-.553-.384-.809c-.056.244-.273.426-.1.606,0-.346.3-.836.3-1.181s-.269-.693-.269-1.039-.1-.694-.1-1.041.006-.692.006-1.038.228-.693.228-1.039-.038-.694-.038-1.041-.224-.691-.224-1.038.081-.693.081-1.04.083-.693.082-1.038-.216-.693-.216-1.04.5-.693.5-1.04-.4-.693-.4-1.038.078-.693.078-1.039.236-.693.236-1.041-.212-.693-.213-1.038.136-.693.136-1.039.046-.693.046-1.041-.076-.692-.076-1.039-.083-.7-.083-1.055.149-.7.149-1.056-.124-.7-.124-1.056-.007-.7-.007-1.055-.179-.7-.179-1.056-.055-.7-.055-1.056.093-.7.093-1.055-.023-.7-.023-1.056.183-.7.183-1.056-.041-.7-.041-1.055.13-.7.13-1.056.214-.7.214-1.056-.02-.7-.02-1.055-.162-.7-.162-1.056-.343-.7-.343-1.055.275-.7.275-1.056-.114-.7-.114-1.056.3-.7.3-1.055-.373-.7-.373-1.056.367-.726.367-1.09-.186-.728-.186-1.091-.251-.728-.251-1.092.3-.728.3-1.091.176-.728.176-1.092-.294-.726-.294-1.09.007-.729.007-1.092-.232-.737-.232-1.1a4.79,4.79,0,0,0,.141-1.072c-.061-.364.067-.8-.076-1.131s-.718-.414-.936-.709-.278-.67-.56-.91A5.4,5.4,0,0,0,94.036.8a5.79,5.79,0,0,0-.888-.443c-.317-.083-.68.206-1.009.179s-.637-.5-.967-.471c-.506.012-.5.026-1.007.026s-.507.442-1.014.442S88.642.3,88.133.3,87.624.02,87.116.02,86.608.313,86.1.313,85.59.285,85.081.285,84.572.4,84.063.4s-.51-.2-1.02-.2S82.536.4,82.029.4,81.518.088,81.008.088,80.5.059,79.986.059s-.512.183-1.024.183-.513.074-1.025.074S77.424.2,76.911.2,76.4.2,75.884.2s-.511.129-1.022.129-.511.11-1.022.11S73.328.113,72.817.113,72.3.26,71.789.26,71.276.1,70.763.1s-.512.459-1.025.459S69.223.331,68.709.333s-.514,0-1.028,0-.514.158-1.028.158-.513-.41-1.025-.41S65.114.445,64.6.445s-.516.013-1.032.015S63.05.042,62.533.042s-.517,0-1.034,0S60.992.5,60.486.5,59.979.053,59.472.055s-.507.523-1.014.524S57.952.007,57.447.007s-.5.44-1.009.44S55.932.391,55.426.391,54.918.023,54.41.023,53.9.538,53.4.54,52.89.249,52.383.249,51.875.131,51.366.132s-.507.354-1.015.354S49.843.1,49.334.1s-.506.355-1.012.355S47.813.467,47.3.467,46.795.458,46.285.458s-.511.1-1.022.1S44.752.184,44.241.184s-.523.382-1.046.382S42.674.051,42.153.051s-.52.325-1.041.325-.521.1-1.042.1-.523,0-1.047,0S38.5.49,37.978.49,37.456.128,36.933.128s-.523.414-1.048.414-.523-.28-1.046-.28S34.315,0,33.791,0s-.522.14-1.044.14-.524.39-1.048.39-.526-.34-1.051-.34S30.121.38,29.594.38s-.526.17-1.053.171S28,.185,27.469.185,26.935.512,26.4.512,25.865.163,25.331.163s-.537.148-1.073.148S23.722.147,23.187.147s-.536.01-1.073.01-.534.387-1.068.387-.536.039-1.073.039S19.435.323,18.9.323,18.358.46,17.819.46s-.543.129-1.082.121c-.345-.018-.691-.345-1.026-.289a4.956,4.956,0,0,0-1.045.157c-.316.128-.388.694-.67.889s-.64.236-.875.489c-.258.3-.654.484-.806.8-.163.338.12.806.046,1.166s-.513.662-.533,1.037.353.737.353,1.114c0,.349-.325.7-.325,1.047s0,.7,0,1.046.11.7.11,1.047.188.7.188,1.047-.207.7-.207,1.046-.085.7-.085,1.047.228.7.228,1.046-.131.7-.131,1.047-.1.7-.1,1.047c0,.5.307.5.307,1s-.149.5-.149,1,.2.5.2,1.006-.232.5-.232,1-.132.5-.132,1-.172.5-.171,1.006.508.5.508,1-.325.5-.324,1,.405.5.406,1-.081.5-.081,1-.144.505-.144,1.008.011.5.011,1-.245.5-.245,1.006.37.5.37,1.006-.191.5-.19,1.008-.033.5-.033,1.007.052.5.053,1,.176.5.176,1.009-.136.506-.136,1.011.191.5.191,1.013-.176.506-.176,1.012c0,.323.061.645.061.968s-.025.643-.025.966-.021.643-.021.966.021.645.021.967.1.637.1.959c.024.528.228.823.756.8.495-.022.647-.429.67-.923.056-.1.484.142.484.138" fill="#0d4b08"/><path d="M99.243,68.759c-.516,0-.516-.163-1.031-.163s-.516.466-1.031.466-.516-.041-1.031-.041-.516-.013-1.031-.013-.515-.087-1.031-.087-.515-.068-1.031-.068-.515.126-1.03.126-.516-.206-1.032-.206-.515.115-1.031.115-.516.2-1.032.2-.516.006-1.032.006-.516-.112-1.032-.112-.517-.011-1.034-.011S85.317,68.5,84.8,68.5s-.517.573-1.034.573-.516.016-1.033.016-.516-.152-1.032-.152-.517-.424-1.033-.424-.516.342-1.032.342-.516.068-1.032.068-.516-.14-1.032-.14-.515.14-1.031.14-.516-.318-1.033-.318-.516.1-1.032.1-.517-.021-1.033-.021-.517-.077-1.034-.077-.517.313-1.034.313-.517-.383-1.034-.383-.517.308-1.034.308-.516.084-1.033.084-.516-.413-1.032-.413-.517.391-1.033.391-.516-.344-1.033-.344-.516-.083-1.033-.083-.516.385-1.033.385-.517-.338-1.034-.338-.517-.018-1.035-.018-.513.168-1.027.168-.514.049-1.028.049-.515-.2-1.029-.2-.515.151-1.03.151-.516.179-1.031.179-.517-.24-1.033-.24-.517.085-1.035.085-.517-.213-1.034-.213-.517.024-1.034.024-.516.281-1.032.281-.516-.164-1.031-.164S49.181,69,48.666,69s-.516.067-1.031.067-.516-.09-1.031-.09-.516-.329-1.032-.329-.517.11-1.033.11-.518-.269-1.035-.269-.518.457-1.037.457-.517-.366-1.035-.366-.516.174-1.033.174-.517-.226-1.034-.226-.516.32-1.033.32-.517-.32-1.034-.32-.518.229-1.036.229-.518-.116-1.037-.116-.517.414-1.035.414-.517-.029-1.034-.029-.518-.416-1.036-.416-.518.238-1.036.238S30.565,69,30.047,69s-.518-.368-1.036-.368-.518-.106-1.036-.106-.519.1-1.038.1-.516-.083-1.033-.083-.516.155-1.032.155-.517.264-1.034.264-.52-.378-1.039-.378-.518.236-1.036.236-.518.256-1.036.256-.52-.014-1.04-.014-.519-.276-1.038-.276-.52-.142-1.039-.142-.518.193-1.036.193-.52-.248-1.04-.248-.521.089-1.042.089-.523.346-1.045.346-.523-.1-1.045-.1c-.392,0-.783-.266-1.175-.269s-.785.051-1.177.051-.785.027-1.177.035c-.051,0-.1.153-.147.153-.528.025-1.076.373-1.052.9a1.3,1.3,0,0,0,1.045,1.119c.516.008.519.049,1.034.049s.516.044,1.032.044.515-.5,1.03-.5.516-.071,1.031-.071.516.325,1.031.325.515.147,1.031.147.515-.433,1.031-.433.515.331,1.031.331.516.121,1.031.121.516-.063,1.032-.063.516.136,1.032.136.517-.54,1.033-.54.517.333,1.033.333.517-.087,1.034-.087.517.081,1.034.081.517.134,1.034.134.516.078,1.032.078.516-.39,1.033-.39.516.231,1.032.231.516-.35,1.032-.35.516.077,1.031.077.516.181,1.032.181.517.161,1.033.161.516-.341,1.032-.341.517.118,1.033.118.517.069,1.034.069.517-.008,1.034-.008.517-.007,1.034-.007.517-.312,1.034-.312.516.094,1.033.094.516.124,1.033.124.516.2,1.033.2.516-.306,1.032-.306.517-.082,1.033-.082.517.506,1.034.506.517-.453,1.034-.453.517.022,1.034.022.514.333,1.028.333.514-.129,1.028-.129.515-.114,1.029-.114.515.219,1.03.219.516-.417,1.031-.417.517.28,1.033.28.517.29,1.035.29.517-.095,1.035-.095.516.017,1.033.017.516-.062,1.032-.062.516-.3,1.032-.3.515-.032,1.031-.032.515.225,1.031.225.515.2,1.031.2.516-.424,1.032-.424.516-.083,1.033-.083.517.136,1.035.136.518.382,1.036.382.518-.19,1.035-.19.517-.106,1.034-.106.517-.139,1.033-.139.517.069,1.034.069.517.352,1.034.352.518-.361,1.036-.361.518-.178,1.036-.178.518.6,1.036.6h1.034c.518,0,.518-.223,1.036-.223s.518-.243,1.037-.243.518.457,1.036.457.518-.14,1.036-.14.518-.424,1.036-.424.519.413,1.038.413.517.05,1.034.05.516-.281,1.032-.281.517.309,1.034.309.519-.082,1.038-.082.518-.144,1.037-.144.518-.131,1.036-.131.52.262,1.04.262.519-.152,1.038-.152.519,0,1.039,0,.518-.244,1.035-.244.521.479,1.041.479.521-.116,1.042-.116.522-.355,1.045-.355.522.363,1.045.363c.392,0,.784-.178,1.176-.175s.784-.147,1.176-.147.788.451,1.18.443c.051,0,.1-.178.149-.178.529-.024,1.247-.515,1.223-1.043-.023-.5-.723-1.01-1.218-1.033" fill="#0d4b08"/><path d="M90.159,49.127c-.349,0-.7.262-1.047.262s-.7-.04-1.048-.04-.7.066-1.048.066-.7-.1-1.047-.1-.7.079-1.048.08-.7-.073-1.048-.073-.7.106-1.047.107-.7-.329-1.048-.329-.7-.165-1.048-.165-.7-.077-1.048-.077-.7.024-1.047.024-.7.075-1.048.075H76.54c-.35,0-.7.057-1.048.057s-.7.4-1.048.4-.7-.3-1.047-.3-.7.218-1.048.218-.7-.388-1.048-.388-.7.472-1.047.472-.7-.393-1.048-.394-.7-.057-1.048-.057-.7.28-1.047.28-.7-.161-1.048-.161-.7-.167-1.048-.167-.7.362-1.047.361-.7-.089-1.048-.089-.689-.31-1.033-.31-.689.418-1.033.418-.689.114-1.033.114-.689-.554-1.033-.554-.689.43-1.034.43-.688-.343-1.033-.343-.688.253-1.033.253-.688.2-1.033.2-.688-.037-1.033-.037-.689-.184-1.033-.184-.689-.285-1.033-.284-.689.446-1.033.447-.689.024-1.033.024-.689-.027-1.033-.026-.689-.111-1.033-.111-.689-.308-1.034-.307-.688-.066-1.033-.066-.688.507-1.032.507-.689-.478-1.034-.478-.688.185-1.033.185-.688.118-1.033.118-.688.174-1.033.175-.688-.176-1.033-.176-.689-.249-1.033-.249-.688.364-1.033.364-.689-.295-1.033-.295-.688.385-1.033.386-.689-.182-1.033-.181-.689.224-1.033.225-.693-.326-1.04-.326-.693.135-1.04.135-.693-.4-1.04-.4-.693.221-1.039.221-.694.4-1.04.4-.694-.44-1.04-.44-.693.345-1.04.345-.693.052-1.04.052-.693-.343-1.04-.343-.693.338-1.04.338-.693-.1-1.039-.1-.694-.052-1.04-.052-.694-.179-1.04-.179-.905.2-1.251.2c.364.57.662.356,1.233.719,0-.349-.3-.6-.3-.945s.487-.7.487-1.047-.239-.7-.24-1.047-.313-.7-.313-1.048.574-.7.574-1.048-.116-.7-.116-1.047-.16-.7-.16-1.047.191-.7.191-1.048-.161-.7-.162-1.047.163-.7.163-1.048-.467-.7-.467-1.047.04-.67.04-1.005.013-.671.013-1.006.086-.67.086-1.005.068-.67.068-1.006-.126-.67-.126-1.005.2-.67.2-1.005-.115-.671-.115-1.006-.2-.67-.2-1-.006-.67-.007-1,.112-.671.112-1.006.011-.67.011-1.005.471-.67.471-1.006-.574-.67-.574-1.005-.016-.67-.016-1,.152-.67.152-1.006.423-.67.423-1-.342-.67-.342-1.005-.069-.67-.069-1.006.14-.67.14-1-.141-.67-.141-1,.318-.671.317-1.006-.1-.67-.1-1.005.021-.679.021-1.018.077-.679.077-1.018-.312-.679-.312-1.018.383-.679.383-1.018-.309-.679-.309-1.018S19.2,10.7,19.2,10.362s.414-.678.414-1.018-.392-.678-.392-1.017.344-.679.344-1.018-.395-.939-.395-1.279c-.569.367-.755.538-.715,1.213.031.507.433.269.94.269s.506.017,1.012.017.506-.168,1.012-.168.507-.049,1.015-.049.507.2,1.013.2.508-.152,1.015-.152.506-.179,1.011-.179.508.241,1.016.241S27,7.34,27.512,7.34s.51.213,1.021.213.51-.024,1.02-.024.521-.282,1.042-.282.522.164,1.043.164.522-.376,1.044-.376.52-.067,1.04-.067.519.09,1.039.09.52.329,1.04.329.523-.111,1.045-.111.522.268,1.043.268.521-.457,1.043-.457.523.366,1.046.366.522-.174,1.045-.174.523.225,1.046.225.52-.32,1.041-.32.524.32,1.047.319.525-.229,1.049-.229.526.116,1.051.116.526-.414,1.052-.414c.507,0,.507.029,1.014.029s.507.415,1.014.415.507-.238,1.013-.239.507-.154,1.014-.154.507.368,1.014.367.506.106,1.011.106.505-.1,1.01-.1.505.083,1.011.083.508-.155,1.016-.156.507-.264,1.013-.264.507.378,1.014.378S58.962,7.2,59.47,7.2s.508-.255,1.015-.255.509.014,1.017.013.506.275,1.013.275.508.142,1.017.142.51-.193,1.02-.193.511.248,1.022.248.511-.09,1.022-.09c.53,0,.53-.346,1.059-.346s.528.105,1.055.105.527.263,1.054.263.528-.056,1.056-.056.53-.025,1.06-.025.529-.154,1.058-.154.529.241,1.058.241.531.076,1.062.076.53.048,1.06.048.53.044,1.061.044.528-.5,1.057-.5.531-.071,1.062-.071.532.326,1.064.325.534.147,1.067.147S81.962,7,82.5,7c.51,0,.51.332,1.021.332s.513.12,1.026.12.514-.063,1.028-.063.515.136,1.03.136.516-.54,1.031-.54c.4,0,.8.347,1.2.354s.808-.08,1.206-.108c.034,0,.128-.058.159-.058-.47-.487-.328-.722-.9-1.083,0,.353-.409.89-.409,1.243s.39.706.391,1.059-.231.707-.231,1.06.351.706.351,1.059-.076.707-.076,1.06-.181.706-.181,1.06-.159.706-.159,1.059.34.707.341,1.06-.117.706-.117,1.06-.069.706-.069,1.059.008.707.008,1.06.008.707.008,1.06.312.706.313,1.059-.094.707-.094,1.06-.124.707-.123,1.06-.2.688-.2,1.031.307.688.307,1.032.082.688.082,1.031-.507.688-.507,1.032.454.688.454,1.032-.022.687-.022,1.031-.333.688-.333,1.032.13.687.13,1.031.114.688.114,1.032-.219.687-.218,1.031.418.688.418,1.031-.28.688-.28,1.032-.29.688-.29,1.032.1.687.1,1.031-.016.688-.016,1.032.063.687.063,1.031.3.688.3,1.031.032.688.032,1.032-.225.693-.225,1.039-.2.693-.2,1.04.423.692.423,1.039.084.693.084,1.039-.136.693-.136,1.04-.382.692-.382,1.039.189.693.189,1.039.107.693.107,1.04.139.687.139,1.034c.024.528.283.828.811.8.5-.022,1.133-.3,1.156-.793,0-.34-.36-.687-.36-1.028s-.178-.681-.178-1.021.594-.681.594-1.022,0-.681,0-1.021-.222-.681-.223-1.022-.243-.681-.243-1.021.457-.681.457-1.022-.141-.681-.141-1.021-.424-.681-.424-1.021.413-.682.412-1.022.051-.681.05-1.022-.282-.68-.282-1.021.309-.681.309-1.022-.082-.68-.082-1.021-.145-.681-.145-1.021-.132-.681-.132-1.022.262-.681.262-1.021-.153-.673-.153-1.009,0-.672,0-1.008-.244-.673-.244-1.009.479-.673.479-1.009-.116-.672-.116-1.008-.355-.673-.355-1.009.363-.673.362-1.009-.181-.672-.181-1.008-.152-.673-.152-1.009.453-.673.453-1.009-.178-.672-.178-1.008.281-.673.281-1.009-.177-.673-.178-1.009.005-.672.005-1.009-.213-.672-.213-1.008-.07-.672-.07-1.009.319-.672.318-1.009.042-.672.041-1.008-.426-.691-.426-1.037-.016-.691-.017-1.037.076-.691.076-1.036-.106-.691-.107-1.037-.032-.691-.032-1.037.276-.691.276-1.037.289-.691.288-1.037-.16-.692-.161-1.037A1.143,1.143,0,0,0,90.14,5.248c-.513,0-.514.3-1.028.3s-.511-.39-1.023-.39-.514.185-1.029.185-.515-.122-1.03-.122S85.514,5.076,85,5.076s-.516.206-1.033.206S83.458,5.2,82.952,5.2s-.5.172-1.008.172-.5.071-1.007.071-.5-.079-1.008-.079-.507.071-1.013.071-.5.1-1.011.1S77.4,5.2,76.894,5.2s-.507.428-1.014.428-.506-.305-1.012-.305-.507.144-1.014.144-.5.146-1.01.146-.507-.373-1.015-.373-.508.3-1.016.3-.51-.266-1.02-.266-.509.2-1.019.2-.5-.455-1.007-.454-.5.258-1.006.259-.5.269-1.006.27-.5-.382-1.006-.381-.5.4-1.007.4-.5-.372-1-.372-.5.327-1,.327-.5-.061-1-.06-.5.057-1.008.057-.5.012-1.006.012-.5-.158-1.007-.158-.5.028-1.009.029-.5.1-1.008.1-.5-.255-1.009-.254-.5.068-1.005.068-.505.083-1.01.083-.506-.323-1.012-.323-.507.19-1.015.19-.507-.134-1.014-.133-.5.48-1.008.48-.5-.506-1.007-.506-.5.313-1.008.313-.5.1-1.008.1-.5.1-1,.1-.5-.263-1-.262-.5-.256-1.005-.256-.5.472-1.009.472-.5-.063-1.008-.063-.5-.14-1.008-.14-.505-.07-1.011-.07-.5-.085-1.009-.085-.505-.14-1.011-.14-.5.2-1.006.2-.506-.11-1.012-.11-.506-.1-1.013-.1-.508.438-1.016.438-.508-.253-1.016-.253-.507-.1-1.015-.1-.51-.1-1.019-.1-.509.25-1.017.25-.509-.057-1.018-.057-.51.236-1.02.236-.51,0-1.019,0-.51.04-1.02.04-.508.088-1.016.088-.511-.412-1.022-.412-.511-.136-1.023-.136-.512.272-1.025.272-.513-.113-1.026-.113c-.422,0-.421.219-.843.221-.525.008-1.2.336-1.212.862,0,.351.406.7.406,1.056s-.322.7-.322,1.055.187.7.187,1.054-.276.7-.276,1.055.141.7.141,1.054.165.7.165,1.055.232.7.232,1.054-.4.7-.4,1.055.363.7.363,1.054-.322.7-.322,1.055.078.7.078,1.054-.121.7-.12,1.055.286.7.287,1.054.121.7.121,1.055-.083.7-.083,1.054-.408.7-.407,1.055.377.7.377,1.054-.287.7-.286,1.055-.165.7-.165,1.054.04.692.04,1.038.067.692.067,1.039.479.692.479,1.038-.069.692-.069,1.038-.447.692-.447,1.039.477.692.477,1.038-.112.692-.112,1.038.085.692.085,1.038-.4.693-.4,1.039-.1.692-.1,1.038.213.692.214,1.038.254.692.254,1.039-.221.692-.221,1.038-.263.692-.263,1.039,0,.692,0,1.038.282.692.282,1.038.219.692.219,1.038-.046.692-.045,1.038-.024.693-.024,1.039.058.676.058,1.014-.381.676-.381,1.014.436.676.436,1.014-.325.677-.325,1.016c.007.525.508.728,1.034.735.338,0,.675.074,1.013.074s.677.183,1.015.183.677-.209,1.016-.21.677.236,1.015.236.677-.192,1.015-.192.677-.067,1.015-.067.677-.091,1.015-.092.677.176,1.016.176.677-.091,1.015-.092.677.339,1.015.338.677-.2,1.016-.2.677.328,1.015.328.677-.552,1.015-.553.677.156,1.015.156.677.257,1.016.257.676.028,1.015.028.677-.168,1.015-.168.677.091,1.015.091.677.046,1.015.046.677-.144,1.016-.144.676.209,1.015.209.677-.467,1.015-.467.677.1,1.015.1.677.457,1.015.458.677-.264,1.016-.264.676.077,1.015.077.677.15,1.015.151.689-.229,1.033-.229.689-.064,1.033-.064.689-.03,1.033-.03.689.257,1.033.257.689-.372,1.033-.372.689.351,1.033.351.689-.141,1.033-.141.689-.031,1.033-.031.689.282,1.033.282.689-.577,1.033-.577.689.255,1.033.255.689.025,1.033.025.689.131,1.033.131.689.061,1.033.061.689-.16,1.033-.16S62,51,62.34,51s.689.353,1.034.353.688.007,1.033.007H65.44c.344,0,.688-.445,1.033-.445s.688-.087,1.033-.087.688.135,1.033.135.688.376,1.033.375.688-.2,1.033-.2.688.021,1.033.02.688-.406,1.033-.406.689.163,1.033.163.689.013,1.033.013.689.35,1.033.35.685-.334,1.028-.334.685-.043,1.027-.043.685.23,1.028.23.685-.111,1.028-.111.685.242,1.027.242.685-.492,1.028-.492.685.3,1.028.3.685-.328,1.027-.328.685.187,1.028.186.685-.068,1.027-.068.686.294,1.028.294.685-.3,1.028-.3.685.446,1.028.445.675-.512,1.017-.512c.528-.034,1.066-.252,1.032-.78a1.082,1.082,0,0,0-1.02-.889" fill="#0d4b08"/><path d="M127.893,82.272c-.914-1.654-2.628-4.592-5.15-8.485a85.343,85.343,0,0,0-6.169-8.677,3.911,3.911,0,0,0-4.141-1.456c-1.069.382-2.157,1.325-2.016,2.527-.774-1.275-2.591-1.436-4.073-.746a3.01,3.01,0,0,0-1.79,3.475,2.748,2.748,0,0,0-3.45-1.138,3.19,3.19,0,0,0-2.347,3.333c-2.6-2.94-7.7-8.915-10.094-11.544-1.4-1.543-2.976-2.571-4.965-1.505-2.119,1.134-1.031,4.114.036,5.528,3.07,4.069,8.041,10.54,11.168,14.6h-.033a9.136,9.136,0,0,0-1.99.338,2.523,2.523,0,0,0-1.743,1.715,3.6,3.6,0,0,0,1.244,3.721c3.539,3.437,6.436,6.443,8.152,7.924,3.1,2.67,8.2,3.3,12.054,3.628" fill="#fefffd"/><path d="M98.332,81c-.211-.274-.6-.414-.805-.688s-.218-.705-.428-.979-.536-.46-.747-.734-.6-.414-.807-.688-.121-.779-.332-1.053-.273-.662-.484-.936-.564-.439-.774-.713-.466-.514-.677-.788-.626-.391-.837-.665-.352-.6-.562-.876-.5-.483-.716-.758-.472-.509-.682-.783-.245-.684-.455-.958-.271-.664-.481-.938-.385-.577-.6-.851-.367-.59-.578-.864-.439-.534-.65-.808c-.191-.251-.337-.536-.529-.788s-.645-.3-.836-.553-.27-.588-.461-.84-.243-.607-.434-.859-.632-.313-.822-.565a8.757,8.757,0,0,1-.492-.858c-.166-.283-.558-.485-.676-.787a4.483,4.483,0,0,1-.23-1.013,3.042,3.042,0,0,1,.006-1.1,2.331,2.331,0,0,1,.76-.8A2.234,2.234,0,0,1,85,58.331a4.42,4.42,0,0,1,2.288.8c.232.216.233.673.458.9s.326.563.544.792.371.51.582.746.432.454.636.7.461.439.658.687l.7.809c.234.268.511.5.744.768s.768.278,1,.547.241.734.474,1,.631.4.865.665.172.793.405,1.062.824.229,1.057.5.17.8.4,1.065.425.575.659.843.679.352.914.62.35.641.586.909a1.115,1.115,0,0,0,1.005.438c.3-.1.356-.623.458-.944a.761.761,0,0,0-.11-.847c-.221-.251-.208-.706-.428-.957s-.755-.226-.974-.477-.525-.429-.744-.681-.02-.867-.239-1.119-.762-.222-.981-.474-.177-.729-.395-.981-.628-.34-.846-.592-.586-.375-.805-.627-.409-.528-.628-.78-.3-.624-.518-.876-.223-.691-.442-.942-.776-.214-.994-.47-.452-.494-.67-.748-.415-.524-.638-.774-.365-.57-.6-.812-.25-.7-.493-.927a6.242,6.242,0,0,0-.772-.754c-.28-.2-.84.055-1.153-.092s-.486-.716-.822-.8a4.72,4.72,0,0,0-1.168.106,4.333,4.333,0,0,0-1.066.333,4.141,4.141,0,0,0-.882.633c-.3.208-.642.3-.84.563-.211.284-.6.507-.705.836s.189.744.174,1.1-.284.71-.226,1.056.513.567.631.894c.128.289.094.637.24.918s.49.44.653.711.056.708.235.969.473.436.668.686.088.742.3.98c.206.27.58.4.786.669s.725.3.931.571.061.807.267,1.077.687.331.893.6.453.508.659.778.14.748.347,1.017.681.334.887.6.334.6.541.869.372.57.579.84.272.647.479.916.27.649.477.918.694.293.894.553.49.45.689.709.013.817.213,1.077.589.373.789.633.647.328.847.588-.056.87.144,1.129.491.449.691.708.526.422.726.682.241.627.441.887a1.193,1.193,0,0,0,1.481.261,1.157,1.157,0,0,0,.5-1.416c-.011-.023-.134.052-.135.051" fill="#0d4b08"/><path d="M94.869,77.378a6.484,6.484,0,0,0-1.116.03,6.58,6.58,0,0,0-1.091.267c-.356.126-.88-.032-1.213.153-.256.182-.317.656-.516.889a3.933,3.933,0,0,0-.6.73,3.891,3.891,0,0,0-.25.91,3.718,3.718,0,0,0-.059.933,5.291,5.291,0,0,0,.042.937,3.234,3.234,0,0,0,.783,1.711c.179.245.525.369.749.58.249.255.486.523.739.773s.52.49.775.739.6.4.858.653.334.677.587.927.4.631.658.889.741.292,1,.549.468.566.728.822.71.317.972.571.324.717.59.967.68.337.951.582.374.663.656.88.66.308.958.5.708.185,1.02.358.455.669.78.818.6.464.931.588.744.07,1.088.17c.313.086.644.114.959.192s.688-.1,1-.031.613.22.931.282.653.013.973.066.643.038.965.082.61.305.933.342.627.256.95.284.654.1.978.117a1.351,1.351,0,0,0,1.193-1.125,1.4,1.4,0,0,0-1.182-1.164c-.327-.023-.637-.106-.963-.137s-.686.263-1.011.223-.632-.222-.957-.269-.617-.268-.941-.324-.7.2-1.022.133-.629-.2-.95-.268-.712.114-1.029.028-.637-.229-.947-.339-.657-.177-.959-.309-.571-.37-.861-.525-.63-.259-.908-.434-.527-.434-.792-.63c-.269-.219-.613-.375-.872-.607s-.293-.713-.545-.953-.383-.6-.63-.844-.437-.545-.682-.792-.508-.476-.754-.719c-.277-.275-.607-.5-.884-.771l-.83-.826c-.278-.275-.6-.51-.872-.784-.223-.221-.726-.158-.949-.378s-.239-.654-.464-.873c-.224-.2-.6-.25-.8-.465s-.118-.7-.307-.927c-.211-.246-.777-.323-.867-.62s.261-.689.3-1a1.977,1.977,0,0,1,.333-.808c.191-.259.263-.63.556-.753a4.082,4.082,0,0,1,.959-.082c.315-.046.638.1.937.074.523-.014.792-.656.805-1.179,0-.527-.275-.9-.8-.9-.068.018-.013.09-.014.09" fill="#0d4b08"/><path d="M99.562,71.134c-.033-.326.227-.642.327-.939s0-.79.217-1.025.712-.162,1.015-.289c.294-.184.578-.473.9-.486a2.147,2.147,0,0,1,1.006.269c.288.148.309.566.5.857.28.45.947.259,1.4-.022.353-.22.708-.452.609-.855a2.351,2.351,0,0,1-.141-1.01c.092-.32.61-.371.837-.616s.174-.885.5-1a4.06,4.06,0,0,1,1.055-.155c.34-.039.657.27.968.367s.713.094.908.394c.238.367.7.842,1.094.757s.415-.683.375-1.188c.007-.355.421-.662.624-.932a1.564,1.564,0,0,1,.791-.59c.255-.114.5-.486.776-.5s.582.25.845.34a4.262,4.262,0,0,1,1.127.618,4.187,4.187,0,0,1,.842.959c.222.268.61.4.826.676s.323.632.533.908.549.461.753.742.01.826.206,1.1.455.5.648.779.427.525.618.8.593.414.781.694.322.6.508.881.357.574.541.858.063.762.245,1.047.627.4.807.687.274.626.452.913.4.544.583.832.365.569.541.857.253.636.429.924c.161.266.263.566.424.833s.35.514.509.782.469.446.625.716.292.549.446.82.319.535.469.807a.721.721,0,0,0,.8.337c.326-.019.752-.012.93-.292a1.278,1.278,0,0,0,.162-1.141c-.165-.3-.608-.441-.776-.737s-.275-.626-.446-.92-.576-.45-.75-.742-.1-.734-.272-1.025-.539-.468-.717-.758-.137-.714-.316-1-.483-.5-.664-.788-.549-.457-.732-.744-.047-.777-.23-1.063-.212-.674-.4-.959-.521-.473-.706-.758-.407-.52-.587-.795-.578-.4-.761-.678-.293-.594-.478-.866-.457-.48-.645-.75-.428-.5-.619-.766-.2-.662-.4-.926-.241-.641-.44-.9c-.222-.29-.407-.613-.633-.9s-.411-.63-.65-.906a10.645,10.645,0,0,0-.8-.794,6.99,6.99,0,0,0-.859-.751c-.3-.2-.8-.086-1.146-.217a4.57,4.57,0,0,0-1.034-.4,4.287,4.287,0,0,0-1.121-.148c-.351.055-.637.461-.971.6a4.463,4.463,0,0,0-.964.463c-.294.215-.35.625-.567.906a2.635,2.635,0,0,0-.5.855c-.105.332-.317.343-.288.719.457.066.356-.021.8-.142s.412,0,.782-.274c-.186-.286-.367-.173-.6-.379a2.949,2.949,0,0,0-.817-.4c-.3-.134-.481-.529-.8-.585a4.775,4.775,0,0,0-.987-.223,5.63,5.63,0,0,0-1.021.069,5.966,5.966,0,0,0-.958.349,5.439,5.439,0,0,0-1.783,1.52,4.331,4.331,0,0,0-.481,1.064c-.122.352.195.777.176,1.157s-.262.754-.174,1.129c.475,0,.362-.388.8-.572s.761.287,1.09-.055c-.2-.328-.771-.543-1.047-.786s-.372-.77-.712-.924a4.106,4.106,0,0,0-1.106-.375c-.369-.049-.753.233-1.128.3a3.739,3.739,0,0,0-1.108.193,4.653,4.653,0,0,0-1.02.366c-.285.205-.3.713-.524.978a4.051,4.051,0,0,0-.624.805c-.149.312-.56.569-.628.913s.32.728.34,1.081c.012.523.274.676.8.688.527,0,1.218-.237,1.222-.764-.023-.077-.423.111-.423.107" fill="#0d4b08"/></g></svg>