<?xml version="1.0" encoding="UTF-8"?>
<svg id="_レイヤー_2" data-name="レイヤー 2" xmlns="http://www.w3.org/2000/svg" xmlns:xlink="http://www.w3.org/1999/xlink" viewBox="0 0 139.62 102.43">
  <defs>
    <style>
      .cls-1 {
        fill: none;
      }

      .cls-2 {
        fill: #0d4b08;
      }

      .cls-3 {
        fill: #407b3e;
      }

      .cls-4 {
        fill: #fefffd;
      }

      .cls-5 {
        clip-path: url(#clippath);
      }
    </style>
    <clipPath id="clippath">
      <rect class="cls-1" width="139.62" height="102.43"/>
    </clipPath>
  </defs>
  <g id="_レイヤー_1-2" data-name="レイヤー 1">
    <g class="cls-5">
      <g>
        <path class="cls-4" d="M50.02,31.73c-.13-.29-.38-.52-.68-.62-.92-.27-1.85-.47-2.8-.62-.58-.1-1.17.05-1.65.4l-2.23.89s0,.03,0,.04c-.03.69-.08,1.84-.12,2.74,0,.04,0,.08-.02.12l2.19-.08c.15.5.91.81,1.81.73.49-.12.88-.48,1.05-.96.19-.53.17-1.11-.05-1.62.68.02,1.06.02,1.86,0,.35.02.66-.24.7-.59.02-.15,0-.29-.06-.43h0Z"/>
        <path class="cls-4" d="M59.06,101.21l.4.23,78.29-45.2-58.72-33.9L.74,67.54l58.32,33.67h0Z"/>
        <path class="cls-2" d="M58.76,101.97c.2.12.24.04.44.15.23.13.33.2.57.07.34-.2.47.03.82-.17s.25-.37.59-.56.42-.07.76-.27.35-.18.69-.38.2-.44.54-.63.48.05.83-.15.3-.27.64-.47.3-.27.64-.47.38-.14.72-.34.38-.13.72-.33.2-.44.54-.64.56.17.9-.03.22-.4.57-.6.38-.13.72-.33.3-.27.64-.47.24-.37.58-.57.42-.07.76-.27.36-.15.71-.35.41-.08.75-.28.25-.35.6-.55.47.03.82-.17.14-.54.49-.74.37-.15.71-.35.55.15.89-.04.28-.31.62-.5.23-.4.57-.6.36-.17.71-.37.37-.15.72-.35.35-.18.7-.38.25-.36.6-.56.38-.13.72-.33.33-.22.67-.42.48.04.82-.15.34-.19.68-.39.35-.19.69-.38.27-.33.61-.53.33-.23.67-.42.46,0,.8-.2.14-.54.49-.74.44-.02.79-.22.35-.19.69-.38.28-.3.63-.5.39-.11.74-.31.3-.27.64-.47.45-.01.79-.21.34-.2.68-.4.33-.22.67-.42.34-.21.68-.41.2-.44.55-.63.34-.21.68-.41.53.13.87-.08.18-.49.52-.69.45-.02.79-.22.43-.04.78-.24.19-.47.53-.66.3-.27.65-.47c.34-.2.54.13.88-.06s.34-.2.68-.4.25-.36.6-.56.29-.3.63-.49.38-.14.72-.34.38-.13.73-.33.43-.06.77-.26.25-.36.6-.55.34-.2.69-.4.27-.32.61-.52.47.02.81-.18.33-.22.68-.42.25-.36.59-.56.33-.23.67-.42.41-.08.76-.28.31-.27.65-.47.39-.11.74-.31.26-.35.61-.55.34-.2.69-.4.41-.08.75-.28.22-.41.57-.61.47.02.82-.18.36-.17.71-.37.25-.36.6-.56.36-.17.71-.37.46,0,.8-.2.19-.47.53-.67.34-.2.68-.4.42-.08.76-.27.32-.24.66-.44.44-.04.78-.23.39-.11.74-.31.16-.51.5-.71.34-.2.68-.4.46,0,.8-.2.31-.27.65-.46.43-.05.77-.25.18-.48.52-.68.55.16.89-.04.32-.24.66-.44.22-.41.57-.61.5.07.85-.13.11-.6.45-.8.38-.13.73-.33.34-.2.69-.39.39-.11.73-.31.43-.05.77-.25.17-.5.51-.7.41-.09.75-.29.48.05.83-.15.37-.15.71-.36.24-.37.59-.57.24-.38.58-.58.42-.07.76-.27.35-.19.69-.39.4-.11.74-.31.28-.31.63-.51.38-.14.73-.34c.36-.22.67-.81.46-1.16-.06-.1-.45.11-.56.04-.34-.2-.22-.4-.56-.6s-.46,0-.8-.19-.18-.48-.52-.68-.51.1-.85-.09-.23-.39-.57-.59-.38-.13-.72-.33-.26-.33-.6-.53-.4-.09-.74-.29-.24-.36-.59-.56-.31-.25-.65-.45-.38-.14-.72-.33-.45-.01-.79-.21-.25-.36-.59-.55-.35-.17-.69-.37-.5.08-.84-.12-.15-.52-.49-.71-.52.12-.86-.08-.18-.47-.52-.66-.31-.25-.64-.45-.32-.22-.66-.42-.48.04-.82-.15-.23-.38-.57-.58-.45,0-.79-.2-.29-.29-.63-.48-.3-.27-.64-.47-.35-.18-.69-.37-.29-.29-.63-.49-.42-.06-.76-.25-.44-.02-.78-.22-.19-.45-.53-.65-.5.07-.84-.12-.32-.24-.66-.43-.35-.18-.69-.38-.3-.26-.64-.46-.27-.33-.61-.52-.48.04-.82-.15-.22-.41-.56-.61-.35-.18-.69-.38-.47.02-.81-.18-.34-.21-.68-.4-.18-.47-.52-.67-.38-.12-.72-.32-.33-.22-.67-.42-.45,0-.79-.2-.2-.45-.54-.65-.39-.12-.73-.31-.36-.17-.7-.37-.26-.34-.6-.54-.32-.23-.66-.43-.4-.1-.74-.29-.33-.22-.67-.42-.42-.07-.76-.26-.21-.42-.56-.61-.52.12-.86-.08-.37-.14-.71-.34-.15-.53-.49-.72-.45-.02-.79-.22-.28-.3-.62-.5-.4-.1-.74-.3-.36-.18-.7-.37-.26-.34-.6-.54-.41-.08-.76-.27-.41-.07-.76-.27-.19-.47-.53-.67-.51.1-.86-.1-.14-.56-.48-.76-.34-.2-.69-.4-.54.15-.88-.05-.33-.22-.67-.42-.36-.17-.7-.37-.14-.54-.49-.74-.5.08-.85-.12-.31-.25-.65-.44-.41-.08-.75-.27-.14-.55-.48-.75-.37-.15-.71-.35-.4-.09-.75-.29-.44-.02-.78-.22-.37-.15-.71-.35-.21-.44-.55-.63-.35-.18-.7-.38-.31-.25-.65-.45-.32-.24-.66-.44-.41-.08-.75-.28-.33-.23-.67-.43-.33-.23-.67-.43c-.23-.13-.47.13-.7.26-.34.2-.35.18-.69.37s-.46-.01-.8.18-.36.16-.7.36-.17.48-.51.68-.38.12-.72.32-.44.03-.77.23-.41.08-.75.27-.32.23-.66.43-.22.4-.56.59-.5-.09-.85.11-.3.26-.64.46-.36.15-.7.35-.14.54-.48.73-.43.04-.77.24-.45,0-.79.2-.33.22-.67.42-.21.41-.55.61-.43.03-.77.23-.4.1-.74.29-.15.52-.49.72-.3.27-.64.46-.57-.21-.91-.01-.28.31-.61.5-.31.25-.65.45-.41.08-.75.27-.3.26-.64.46-.22.4-.56.6-.33.21-.67.4-.31.25-.65.44-.37.14-.71.34-.39.11-.73.31-.31.25-.65.44-.29.28-.63.47-.44.02-.78.22-.45,0-.79.2-.14.54-.48.74-.49-.06-.83.14-.28.3-.62.5-.44.03-.78.22-.34.19-.68.39-.24.38-.58.57-.34.2-.68.4-.42.06-.77.25-.24.38-.58.58-.39.11-.74.31-.42.04-.76.24-.17.48-.51.68-.33.21-.67.41-.42.05-.76.24-.27.31-.61.51-.34.2-.68.39-.29.28-.63.48-.48-.06-.82.14-.37.15-.7.34-.31.25-.64.45-.39.1-.73.29-.2.43-.54.63-.44.02-.78.22-.28.3-.61.5-.32.23-.66.42-.34.19-.68.39-.44.01-.78.21-.34.19-.68.38-.31.25-.65.44-.36.17-.69.36-.19.46-.53.65-.47-.03-.81.17-.17.5-.5.69-.49-.06-.83.14-.35.18-.69.37c-.34.2-.39.1-.73.3s-.25.35-.59.55-.29.27-.63.47-.26.34-.59.54-.53-.14-.87.06-.33.21-.67.41-.38.13-.71.32-.23.37-.57.57-.45,0-.78.2-.27.32-.61.52-.34.19-.68.38-.33.21-.67.41-.27.32-.61.52-.3.27-.64.47-.51-.09-.85.1-.25.35-.59.55-.27.32-.61.52-.32.23-.66.43-.36.17-.7.37-.33.22-.67.42-.54-.15-.88.05-.31.26-.65.46-.36.18-.7.38-.19.47-.53.67-.35.19-.69.39-.45,0-.8.2-.33.23-.67.43-.35.19-.69.38-.24.38-.58.58-.39.12-.73.32-.27.33-.61.53-.47-.02-.81.18-.35.19-.69.38-.35.19-.69.38-.2.45-.54.65-.52-.11-.87.08-.3.28-.64.48-.24.38-.58.59-.36.17-.7.37-.38.13-.73.33-.33.22-.67.42-.48-.04-.83.16-.26.35-.6.55-.25.37-.6.57-.38.13-.73.33c-.33.14-.47.53-.33.85.01.03.03.05.04.08.06.1.23.03.33.09.34.2.21.42.56.62s.33.23.67.42.46,0,.8.19.25.37.59.56.27.32.61.52.37.15.72.35.51-.09.86.11.32.24.66.44.15.54.49.74.39.12.74.32.49-.06.84.14.2.46.54.65.42.07.76.27.35.18.7.38.32.24.66.44.24.37.59.57.57-.19.91,0c.34.2.29.29.63.48s.32.24.66.44.21.43.55.63.34.2.68.4.35.19.69.38.55-.15.89.04.33.23.67.43.36.17.71.36.11.6.46.8.43.05.78.25.47-.01.81.18.16.52.51.71.5-.07.85.13.26.34.6.54.32.24.66.44.44.03.79.22.36.18.7.37.3.28.64.48.4.1.75.3.34.21.68.41.31.25.66.45.25.37.59.57.49-.06.84.14.24.38.58.59.31.26.65.46.35.19.69.39.47-.01.81.19.28.32.62.52.3.29.64.48.39.12.73.32.45.02.8.22.3.28.65.48.27.33.61.53.26.35.61.55.42.08.76.28.41.09.75.29.31.25.66.45.29.29.64.49.48-.03.82.17.28.31.63.51.38.14.73.34.22.42.57.62.35.2.69.4.3.28.65.48.51-.08.85.12.24.39.58.59.37.16.72.36.33.23.68.43.49-.04.83.17c.34.19.14.53.48.72s.44.01.78.21.27.31.61.5.35.16.69.36.34.18.68.38c.34.19.28.28.62.48s.46-.02.79.18.35.16.69.36.28.3.61.49.33.2.67.39.25.35.58.54.35.18.68.38.39.1.73.29.34.2.67.39.33.2.67.39.34.19.68.38.36.17.69.36.26.34.6.53.36.17.7.36c.36.2.74-.2.93-.56.19-.35.36-.87.03-1.08s-.44-.04-.78-.24-.3-.28-.64-.48-.34-.21-.68-.41-.45-.02-.79-.22-.42-.07-.76-.27-.29-.3-.63-.49-.27-.33-.61-.53-.28-.31-.63-.51-.35-.19-.69-.39-.37-.16-.71-.36-.41-.09-.75-.29-.4-.11-.74-.31-.24-.37-.59-.57-.39-.11-.74-.31-.4-.1-.74-.3-.25-.36-.59-.56-.33-.23-.67-.43-.4-.1-.74-.3-.31-.25-.65-.45-.39-.11-.73-.31-.39-.11-.74-.31-.31-.25-.66-.45-.34-.2-.69-.4-.34-.21-.68-.41-.41-.09-.75-.28-.28-.32-.62-.52-.34-.21-.69-.41-.2-.44-.55-.64-.56.18-.91-.02-.31-.25-.66-.45-.29-.29-.64-.49-.39-.11-.74-.31-.33-.23-.67-.42-.24-.38-.59-.57-.33-.22-.68-.42-.43-.06-.77-.26-.29-.3-.63-.5-.37-.15-.72-.35-.43-.04-.78-.24-.31-.25-.66-.45-.25-.36-.6-.56-.41-.08-.76-.28-.29-.29-.64-.49-.29-.29-.64-.49l-.69-.4c-.35-.2-.35-.19-.69-.39s-.52.11-.87-.09-.18-.48-.53-.68-.46,0-.8-.21-.4-.1-.75-.3-.13-.57-.48-.77-.38-.13-.73-.33-.45-.02-.79-.22-.26-.34-.61-.54-.3-.29-.64-.49-.53.11-.87-.09-.14-.55-.49-.75-.49.05-.84-.15-.27-.33-.62-.53-.41-.08-.76-.28-.42-.08-.76-.28-.21-.44-.55-.64-.5.06-.85-.14-.26-.35-.61-.55-.24-.4-.59-.6-.54.13-.89-.08c-.34-.19-.19-.45-.53-.64s-.49.07-.82-.13-.23-.38-.57-.57-.39-.1-.73-.29-.16-.5-.5-.69-.56.2-.9,0-.27-.31-.6-.51-.18-.46-.52-.65-.5.08-.83-.12-.38-.11-.72-.31-.31-.25-.64-.44-.37-.14-.71-.34-.3-.25-.64-.45-.22-.4-.56-.59-.5.09-.83-.11-.2-.43-.54-.62-.47.03-.8-.17-.28-.29-.62-.49-.27-.6-.64-.46c-.3.11-.22.32-.22.65s-.09.55.21.67c.37.14.31-.29.64-.48.34-.2.49.06.82-.14s.18-.47.52-.66.32-.23.66-.43.42-.06.76-.26.36-.16.7-.36.36-.16.7-.36.32-.22.66-.42.22-.4.56-.6.48.05.82-.15.21-.42.55-.61.47.03.81-.17.3-.26.64-.46.38-.11.73-.31.37-.15.71-.34.15-.53.49-.73.5.08.84-.12.34-.2.68-.39.23-.39.57-.59.51.09.85-.1.31-.26.64-.45.28-.3.62-.49.37-.15.71-.35.41-.08.74-.28.13-.56.47-.76.4-.09.74-.28.32-.24.66-.43.39-.1.73-.3.46,0,.8-.19.24-.36.58-.56.22-.4.56-.6.41-.07.75-.26.47.02.8-.17.19-.45.53-.65.29-.29.63-.49.33-.22.67-.41.36-.17.7-.37.4-.1.74-.3.37-.15.71-.35.43-.05.77-.24.3-.26.64-.46.42-.06.77-.25.28-.31.62-.51.28-.3.63-.5.32-.25.66-.45.47.04.81-.15.29-.28.63-.47.27-.31.61-.51.38-.11.72-.31.33-.21.67-.41.29-.27.63-.47.34-.19.68-.39.42-.06.76-.25.33-.21.67-.41.33-.22.66-.41.25-.35.59-.54.45,0,.78-.2.18-.48.51-.67.37-.14.71-.34.5.08.84-.12.26-.33.6-.53.32-.22.66-.42.38-.12.72-.31.25-.36.58-.55.35-.17.69-.36.5.08.84-.11.32-.22.66-.42.28-.31.61-.5.38-.12.72-.31.17-.49.51-.69.52.11.85-.08c.34-.2.14-.53.48-.73s.48.04.81-.15.27-.31.61-.5.38-.13.72-.32.42-.06.75-.26.32-.23.65-.43.26-.32.6-.52.41-.07.75-.27.37-.14.71-.33.23-.38.57-.58.27-.32.61-.51.47.03.81-.16.37-.15.71-.35.3-.27.63-.47.32-.23.66-.42.41-.07.75-.27.18-.47.52-.67.35-.18.69-.38.48.05.83-.15.4-.11.74-.31.2-.44.55-.64.47.03.82-.17.21-.43.55-.63.29-.29.63-.49.32-.24.66-.44.48.04.83-.16.36-.17.7-.37.27-.33.61-.52.26-.34.61-.54.48.04.83-.16.22-.41.57-.6.51.09.85-.11.36-.17.7-.36.23-.39.58-.59.33-.23.67-.43.48.03.82-.17.21-.43.56-.63.34-.22.68-.41.32-.25.66-.45.52.11.86-.09.21-.44.55-.64.38-.13.73-.33.33-.22.68-.42.96-.02.9-.41c-.06-.37-1.07-.38-1.14,0-.07.38.55.19.89.38s.34.19.68.38.42.07.76.26.19.45.53.65.34.2.68.4.28.31.61.51.4.1.74.29.29.29.63.49.47-.03.81.16.24.37.58.57.53-.12.87.08.17.48.52.68.37.14.71.34.26.33.6.53.44.01.78.21.28.31.61.5.4.09.74.29.28.3.61.5.51-.1.85.1.14.54.48.74.53-.13.87.06.3.27.63.47.27.32.61.52.24.37.58.56.41.08.75.27.45,0,.79.21.38.13.72.33.19.46.53.66.29.29.63.49.47-.03.81.17.38.13.72.32.17.5.51.69.53-.14.87.06.2.43.54.63.28.3.62.49.38.13.72.33.3.26.64.46.41.08.75.27.35.19.69.38.35.19.69.38.49-.06.83.13.25.36.59.56.32.23.66.43.43.04.77.24.25.35.6.55.26.33.61.53.42.06.76.26.3.28.64.47.38.14.72.33.33.22.67.42.46-.01.8.19.25.36.59.56.42.07.76.26.36.16.7.36.23.38.57.58.42.07.76.26.23.39.58.59.29.29.63.49.35.19.69.38.35.19.69.38.48-.03.82.16.3.27.64.47.43.04.77.24.21.43.56.62.49-.06.84.14.28.31.63.51.41.09.75.29.23.4.57.59.37.15.71.35.26.35.6.55.41.09.75.29.42.06.77.26.36.16.7.36.36.17.7.37.22.41.56.61.23.39.57.59.55-.16.89.04.33.22.67.42.15.52.5.72.53-.12.87.08.19.46.53.66.45.02.79.21.37.15.71.35.4.11.74.31.19.48.53.67.35.38.72.24c.3-.11-.2-.26-.2-.58s.58-.7.28-.81c-.38-.13-.52.17-.86.37s-.24.38-.59.57-.38.14-.72.34-.29.29-.64.49-.39.12-.73.31-.38.12-.73.32-.2.45-.54.65-.29.28-.64.48-.37.15-.71.35-.52-.11-.87.08-.24.37-.59.57-.38.13-.72.33-.39.11-.74.31-.3.27-.64.47-.22.41-.57.61-.44.03-.79.23-.42.07-.77.27-.3.28-.64.48-.18.48-.53.68-.37.15-.71.36-.32.25-.66.45-.49-.06-.84.14-.41.09-.75.29-.18.49-.52.68-.46,0-.81.19-.23.41-.57.6-.51-.08-.85.12-.15.54-.5.74-.47,0-.81.19l-.69.4c-.35.2-.41.1-.75.29s-.23.4-.57.6-.4.11-.74.31-.44.03-.79.23-.34.22-.68.42-.23.4-.57.6-.46,0-.81.2-.26.35-.6.55-.43.06-.77.26-.33.22-.68.42-.37.16-.72.36-.31.26-.66.46-.29.29-.64.49-.25.36-.6.56-.54-.13-.88.07-.3.29-.64.49-.19.47-.54.67-.46,0-.81.2-.21.44-.56.64-.54-.14-.89.06-.33.23-.68.43-.24.38-.59.58-.32.25-.66.45-.41.09-.76.29-.38.15-.73.35-.21.44-.56.64-.45.02-.8.22-.29.29-.64.49-.51-.09-.86.11-.32.25-.66.45-.14.55-.49.75-.53-.13-.88.07-.37.17-.71.36-.24.38-.58.58-.33.22-.68.42-.25.37-.59.56-.5-.07-.85.13-.28.31-.63.51-.33.22-.68.42-.31.27-.65.47-.41.08-.76.28-.25.37-.59.57-.5-.08-.85.13-.24.38-.58.59-.34.21-.69.4-.51-.08-.85.12-.33.23-.67.43-.37.15-.72.35-.36.18-.7.38-.17.51-.51.71-.52-.1-.87.1-.34.22-.68.42-.21.44-.55.64-.34.21-.69.41-.37.16-.71.36-.44.04-.79.24-.35.2-.69.4-.29.3-.63.5-.37.16-.72.36-.2.45-.55.65-.45.03-.79.23-.43.06-.77.26-.16.53-.51.73-.56-.17-.91.03-.28.32-.62.52-.32.24-.67.44-.37.15-.72.36-.4.11-.75.31-.37.17-.72.37-.15.55-.5.75-.54-.13-.89.08-.16.52-.52.72-.51-.07-.86.13-.22.44-.57.64-.53-.11-.88.1-.32.26-.67.46-.22.42-.58.63-.44.05-.79.25-.23.42-.58.62-.53-.11-.88.1-.33.24-.68.45-.4.12-.75.33-.55.2-.51.6c.04.37.4.29.72.08.19-.12-.34-.03-.53-.14-.36-.2-.82-.28-1.01.09-.16.42-.03.89.32,1.17.07.02.1-.26.1-.25"/>
        <path class="cls-3" d="M62.12,52l7.21,4.16c.22.07.33.31.26.53-.04.12-.14.22-.26.26l-2.71,1.56c-.43.22-.94.22-1.37,0l-7.21-4.16c-.22-.07-.33-.31-.26-.53.04-.12.14-.22.26-.26l2.71-1.56c.43-.22.94-.22,1.37,0"/>
        <path class="cls-3" d="M79.13,26.1l8.6,4.96c.19.06.28.26.22.45-.04.1-.12.19-.22.22l-3.29,1.9c-.37.19-.8.19-1.16,0l-8.6-4.96c-.19-.06-.28-.26-.22-.45.04-.1.12-.19.22-.22l3.29-1.9c.37-.19.8-.19,1.16,0"/>
        <path class="cls-2" d="M48.2,41.46c.34.2.28.29.62.49s.45,0,.79.19.24.37.58.57.34.2.67.4.26.33.6.52.45,0,.79.2.23.39.57.58.4.09.74.29.38.13.72.32.43.04.77.24.38.12.72.32.14.54.48.74.53-.14.87.06.3.27.64.47.16.51.5.7.35.18.69.38.45,0,.79.21.29.29.63.48.38.13.71.33.28.29.62.49.49-.08.83.12.18.47.52.67.45,0,.79.21.39.11.73.31.14.55.48.74.47-.04.81.16.35.19.69.38.41.08.75.28.36.17.7.37.2.44.54.64.39.11.73.31.31.25.66.45.27.3.6.5.48-.07.81.13.38.12.71.31.19.43.53.62.35.16.68.35.41.06.74.25.38.12.71.31.29.26.63.46.28.76.64.62c.3-.12-.12-.43-.12-.75s.4-.59.1-.71c-.36-.14-.41.18-.74.37s-.19.43-.53.62-.47-.05-.8.14-.29.26-.62.45-.29.26-.63.46-.37.14-.7.33-.37.13-.7.32-.19.44-.52.63-.55-.18-.88.01-.21.4-.55.59-.37.13-.7.32-.29.26-.63.46-.23.37-.57.56-.41.07-.74.26-.76-.07-.68.31.74.4.82.03c.08-.38-.48-.15-.81-.34s-.21-.42-.55-.61-.54.15-.88-.04-.31-.24-.65-.43-.13-.55-.47-.74-.4-.09-.74-.28-.45,0-.79-.19-.32-.23-.66-.42-.31-.24-.65-.44-.33-.21-.67-.41-.43-.03-.77-.23-.3-.26-.64-.45-.35-.17-.69-.37-.2-.44-.54-.63-.34-.2-.67-.39-.33-.2-.67-.4-.41-.06-.75-.26-.36-.17-.69-.36-.22-.39-.56-.59-.54.15-.87-.04-.24-.37-.57-.57-.33-.21-.67-.41-.4-.09-.74-.29-.29-.28-.63-.48-.38-.13-.72-.32-.23-.38-.57-.58-.34-.19-.68-.38-.35-.17-.69-.36-.35-.19-.69-.38-.48.04-.82-.15-.35-.19-.69-.38-.15-.52-.5-.72-.5.1-.84-.1-.23-.37-.57-.57-.25-.35-.58-.55-.49.08-.83-.12-.38-.12-.71-.32-.15-.53-.48-.72-.34-.19-.68-.38-.43-.03-.77-.23-.39-.1-.73-.29c-.28-.2-.67-.13-.87.15-.02.03-.04.06-.05.09-.2.33-.12.76.2.99.33.2.26.33.59.53s.43.04.77.23l.68.39c.34.2.41.07.75.27s.21.41.55.61c.34.19.35.17.69.37s.43.04.77.23.35.17.69.36.27.32.61.51.38.12.72.32.29.28.63.48.42.05.76.24.34.19.68.38.27.31.61.5.46-.02.8.18.21.41.55.61c.34.2.32.22.66.42s.43.03.77.23.32.22.66.42.22.39.56.59.49-.08.83.12.34.19.68.39.27.32.61.52.36.15.7.35.25.36.59.55.29.28.63.48.52-.12.86.08.34.19.68.38.23.39.57.59.38.13.72.33.26.34.6.54.5-.08.85.11.13.55.47.75.36.15.7.35.46-.02.8.18.18.46.52.66.57-.21.91-.02.3.26.64.46.34.2.68.39.29.28.63.48.25.34.59.54c.23.13.46-.17.69-.31.33-.19.4-.08.73-.28s.47.05.8-.14.36-.15.69-.34.23-.37.56-.56.23-.38.56-.57.41-.07.74-.26.34-.18.67-.38.38-.1.72-.3.27-.3.6-.49.37-.13.7-.33.45.01.78-.18.12-.57.45-.76.45.01.79-.18.22-.4.55-.59.5.09.83-.1c.36-.22.22-.68,0-1.03-.06-.1.04-.31-.07-.38-.34-.2-.38-.13-.72-.32s-.26-.33-.6-.53-.4-.09-.74-.29-.24-.36-.58-.56-.31-.25-.64-.45-.37-.13-.71-.33-.45-.01-.78-.21-.25-.36-.59-.55-.35-.17-.69-.37-.5.08-.84-.12-.15-.52-.49-.71-.52.12-.86-.08-.18-.47-.52-.66-.31-.26-.65-.45-.32-.22-.66-.42-.48.04-.82-.15-.23-.38-.57-.58-.45,0-.79-.2-.29-.29-.62-.48-.29-.27-.63-.47-.35-.18-.69-.37-.28-.29-.62-.49-.42-.06-.76-.25-.44-.02-.78-.22-.19-.45-.53-.65-.5.07-.83-.12-.32-.24-.66-.43-.35-.18-.69-.37-.3-.26-.64-.46-.27-.33-.61-.52-.48.04-.82-.15-.22-.41-.56-.61-.34-.18-.67-.37-.46.03-.79-.17-.33-.2-.66-.39-.17-.47-.51-.66-.37-.12-.71-.31-.32-.22-.65-.41-.44,0-.78-.19-.19-.45-.52-.64-.38-.12-.72-.31c-.37-.19-.83-.04-1.03.33-.21.37-.14.84.18,1.13.01,0,.09-.17.09-.17"/>
        <path class="cls-2" d="M106.71,52.89c.23.13.37.39.6.52s.4.35.62.48.56.07.78.2.42.31.65.44.51.16.73.29.28.56.5.69.55.09.78.22.35.44.57.57.56.06.79.19.43.3.65.43.4.35.62.48.54.1.76.23.4.36.62.49.56.06.79.19.35.44.57.57.45.27.67.4.37.39.6.52.56.07.78.2.34.45.56.58.51.15.74.28.49.19.71.32.54.1.76.23c.34.2.38.12.72.32s.14.54.48.74.53-.14.87.06.3.27.64.47.16.51.51.71.35.19.69.38c.36.2.91-.12,1.1-.49.21-.35.12-.8-.2-1.06-.23-.13-.5-.2-.73-.34s-.41-.36-.64-.5-.61,0-.85-.13-.3-.54-.53-.67-.57-.08-.8-.21-.51-.18-.74-.31-.26-.61-.49-.75-.6-.03-.82-.17-.47-.26-.7-.39-.53-.15-.76-.28-.48-.24-.71-.37-.32-.51-.55-.64-.51-.18-.74-.32-.43-.32-.66-.45-.4-.38-.63-.51-.61,0-.84-.14-.5-.19-.73-.32-.32-.51-.55-.64-.48-.23-.71-.37-.54-.13-.77-.27-.5-.19-.73-.33-.42-.34-.65-.47c-.37-.21-.24-.44-.61-.66s-.47-.05-.85-.26-.3-.35-.67-.56-.37-.23-.74-.45-.51.02-.89-.19c-.37-.19-.81-.26-1.01.11-.18.34.08.71.4.92"/>
        <path class="cls-2" d="M84.93,53.5c.34-.19.33-.2.66-.39s.39-.09.73-.29.34-.18.68-.38.3-.25.64-.44.32-.23.65-.42.21-.42.54-.61.44-.02.77-.21.27-.3.61-.49.41-.06.75-.25.39-.1.73-.3.23-.38.57-.58.37-.15.7-.34.28-.28.62-.49c.35-.22.7-.7.48-1.05-.32-.3-.79-.37-1.18-.15-.34.19-.44.01-.77.2s-.22.39-.56.58-.36.15-.69.35-.38.1-.72.3-.25.35-.58.54c-.33.19-.39.1-.73.29s-.22.39-.56.59-.44.02-.77.21-.34.19-.67.38-.41.06-.75.26-.23.38-.57.58-.45,0-.79.2-.28.3-.61.5c-.34.27-.43.76-.19,1.13.22.33.66.45,1.02.28"/>
        <path class="cls-2" d="M54.9,37.02c.34.2.31.26.65.45s.36.17.7.37.49-.06.83.14.41.07.76.27.22.42.56.61.47-.02.81.18.18.47.53.67.47-.03.81.17.26.34.6.54.41.08.76.27.37.15.72.35.3.28.64.48.24.39.58.59.4.11.75.31.23.39.58.6.4.11.75.31.38.14.73.34.29.31.63.51.4.11.74.31.48-.02.82.18.33.24.68.44.35.2.69.4.32.24.67.45.26.35.61.56.51-.07.85.13.22.42.57.61.38.13.73.33.29.3.64.5.35.2.7.4.26.36.61.56c.35.2.44.04.79.24.35.2.35.19.69.38s.35.19.69.39.29.3.63.5.34.21.68.41.38.14.72.34.36.17.71.37.47-.03.82.17.24.38.59.57.41.09.75.29.27.33.61.53.29.29.64.49.45.01.8.21.32.25.66.45.4.1.75.3.17.5.52.7.45.03.79.22.24.38.59.58.46,0,.81.21.33.24.67.44.29.29.64.49.43.04.77.23.28.29.62.49.45,0,.79.19.23.37.57.57.33.2.67.4.26.33.6.52.44,0,.78.2.23.38.56.58.4.09.74.28.38.13.71.32.43.04.77.23.38.12.72.32c.34.2.14.54.48.73s.53-.14.87.06.29.27.63.46.16.51.5.7.35.18.69.38.45,0,.79.21.29.29.63.48.37.13.71.32.28.29.61.48.49-.08.83.12.18.47.52.66.44,0,.78.2.39.11.72.3.14.55.47.74.47-.04.81.15.34.18.68.38.4.08.74.27.35.17.69.37.2.44.54.63.39.11.73.31.31.25.65.44c.41.24.34.36.76.59.36.19.76-.15.95-.51.18-.34.08-.5-.25-.71s-.2-.44-.54-.63-.36-.17-.7-.36-.42-.07-.76-.26-.38-.12-.73-.32-.3-.27-.64-.47-.21-.43-.55-.62-.44-.03-.78-.23-.27-.33-.61-.53-.33-.22-.67-.41-.48.04-.82-.16-.2-.44-.55-.64-.38-.13-.73-.33-.38-.13-.73-.33-.31-.26-.66-.46-.31-.26-.66-.46-.49.05-.84-.15-.13-.57-.48-.77-.47,0-.81-.19-.31-.27-.65-.47-.38-.13-.73-.33-.45-.02-.8-.23-.27-.33-.62-.53-.32-.24-.67-.44-.28-.32-.63-.52-.44-.05-.78-.25-.22-.43-.56-.63-.55.15-.89-.05-.32-.24-.67-.45-.15-.55-.5-.75-.41-.1-.76-.3-.47,0-.82-.2-.33-.23-.67-.43-.32-.24-.66-.44-.34-.21-.68-.41-.44-.04-.78-.24-.31-.26-.65-.46-.36-.18-.7-.38-.2-.44-.55-.64-.34-.2-.68-.4-.34-.21-.68-.41-.42-.07-.77-.27-.36-.17-.71-.37-.23-.4-.58-.6-.55.15-.89-.05-.24-.37-.59-.57-.34-.21-.68-.41-.4-.1-.75-.3-.3-.29-.64-.49-.38-.13-.73-.33-.24-.38-.59-.59-.35-.19-.7-.4-.35-.17-.69-.36-.34-.19-.68-.38-.48.04-.81-.15-.34-.18-.68-.38-.15-.52-.49-.71-.5.1-.84-.1-.23-.37-.57-.57-.25-.35-.58-.55-.49.08-.83-.12-.38-.12-.72-.32-.14-.53-.48-.72-.34-.19-.68-.38-.43-.03-.77-.23-.39-.1-.73-.29-.31-.25-.64-.45-.3-.27-.64-.46-.26-.34-.6-.53-.43-.04-.77-.24l-.68-.39c-.34-.19-.41-.07-.74-.26s-.21-.41-.55-.6-.35-.17-.68-.37-.43-.04-.77-.23-.35-.17-.69-.36-.27-.32-.6-.51-.38-.12-.72-.32-.29-.28-.62-.48-.42-.05-.76-.24-.34-.19-.67-.38-.27-.31-.61-.5-.46.02-.8-.18-.21-.41-.55-.61-.32-.22-.66-.42c-.41-.24-.51-.08-.92-.31-.23-.19-.58-.16-.77.07-.03.04-.06.08-.08.13-.21.36-.27.9.09,1.11"/>
        <path class="cls-2" d="M95.49,59.78c.35-.2.28-.31.63-.51s.53.12.88-.08.35-.2.7-.4.18-.49.53-.69.43-.05.78-.26.4-.11.75-.31.41-.1.76-.3.19-.47.54-.67.48.02.82-.18.38-.14.73-.34.33-.23.68-.43.2-.46.55-.66.28-.33.62-.53.48.02.83-.19.23-.42.58-.62.51.07.86-.13.22-.42.57-.63c.35-.22.53-.53.31-.88-.21-.33-.56-.31-.9-.13-.35.2-.32.25-.67.45s-.4.12-.75.32-.46,0-.81.21-.3.29-.64.49-.46,0-.81.21-.29.3-.64.5-.32.26-.67.46-.41.1-.76.3-.3.29-.65.49-.22.43-.57.63-.37.17-.72.37-.35.2-.7.4-.37.15-.72.36-.44.05-.79.25-.19.48-.54.68-.48-.01-.83.19-.32.27-.66.47c-.36.2-.5.65-.31,1.02.24.33.68.45,1.06.28"/>
        <path class="cls-2" d="M93.03,30.97c-.35.19-.36.16-.71.36s-.4.09-.75.29-.3.28-.64.48-.32.24-.67.44-.25.37-.59.57-.49-.06-.84.14-.31.26-.65.46-.37.16-.71.36-.29.29-.64.49-.47-.02-.81.18-.31.26-.66.46-.33.23-.67.43-.35.19-.69.39-.27.33-.61.53-.28.31-.63.51-.53-.12-.88.08-.35.2-.69.4-.18.49-.53.69-.43.05-.78.25-.4.11-.74.31-.4.1-.75.3-.19.47-.53.67-.47-.02-.82.18-.38.14-.73.34-.33.23-.68.43-.2.46-.55.66c-.32.18-.25.31-.56.49s-.44-.04-.76.15-.19.4-.51.58-.48-.09-.8.09-.19.41-.51.59-.4.04-.72.23-.25.3-.57.49c-.35.22-.35.45-.13.8.21.33.41.46.76.27.35-.2.45,0,.8-.21s.29-.29.64-.49.46,0,.8-.2.29-.29.64-.49.31-.26.66-.46.41-.09.75-.29.29-.29.64-.49.22-.42.56-.62.37-.17.71-.37.35-.2.69-.4.37-.15.72-.35.43-.05.78-.25.19-.47.53-.67.47.02.81-.18.31-.27.65-.47.4-.1.75-.3.34-.2.69-.4.44-.05.78-.25.25-.36.6-.56.34-.21.69-.41.34-.2.69-.4.4-.1.75-.3.35-.19.7-.39.32-.26.66-.46.33-.23.68-.44.22-.43.57-.63c.32-.18.42,0,.74-.19s.26-.29.58-.47.39-.05.71-.23.37-.09.69-.27.21-.37.53-.56.35-.14.67-.32.27-.27.58-.46c.34-.23.68-.72.44-1.06-.21-.31-.77-.23-1.1-.07"/>
        <path class="cls-2" d="M118.86,63.77c-.35.21-.48-.01-.83.19s-.23.42-.59.63-.35.22-.7.43-.54-.12-.9.09c-.39.22-.33.33-.71.56s-.46.11-.84.35c-.27.27-.67.35-1.02.21-.29-.16-.6-.29-.89-.45-.15-.09-.43-.37-.61-.37,0,0-.19-.11-.2-.11,0,.07-.02.15-.04.22-.06.22.02.18.1.1,0,0,.14.15.15.15.04,0,.08-.11.11-.13.29-.17.2-.33.49-.49.35-.2.43-.08.78-.28s.35-.21.7-.42.49.03.85-.18.33-.25.68-.45.34-.24.69-.45c.17-.15.36-.08.57-.1s.35-.11.55-.01c.32.18.8.09,1.12.27.15.08.13.45.28.53.03.02.14-.1.18-.09.2.06.07-.64-.11-.53-.25.17-.03.56-.02.8.01.26-.14.65.08.79s.44-.14.7-.32c.26-.1.45-.31.53-.58.09-.29.38-.64.23-.93-.08-.16-.38-.17-.52-.28-.26-.19-.53-.36-.82-.51-.21-.12-.4-.28-.61-.4s-.38-.34-.61-.42c-.24-.06-.49-.08-.73-.07-.24,0-.47.03-.7.1-.26.09-.42.37-.66.49s-.62,0-.85.16c-.37.22-.33.28-.7.49s-.39.18-.77.39-.32.31-.69.52c-.24.14-.61.06-.85.19s-.45.34-.68.48c-.6.34-.85,1.07-.59,1.71.11.17.37.24.52.37s.39.13.58.21c.23.18.29.66.54.79.26.14.54.26.82.35.28.09.61-.17.91-.13.22-.02.43.11.65.05.45-.06.9-.19,1.31-.39.32-.2.16-.46.49-.64s.45.03.77-.15.36-.13.69-.32.31-.22.63-.4.18-.44.51-.63.25-.31.58-.5c.35-.22.58-.49.36-.84-.21-.33-.45-.31-.79-.13-.06.09-.08.06-.08.06"/>
        <path class="cls-2" d="M111.68,64.38c-.32-.19-.36-.12-.68-.31s-.32-.19-.64-.38-.32-.18-.64-.37c-.29-.17-.59-.33-.87-.5-.34-.2-.89-.38-.91-.66.01-.22.1-.43.25-.6.21-.24.47-.44.76-.59.24-.06.48-.1.73-.13.23-.08.47-.15.71-.2.23-.02.48.3.72.32.22,0,.45-.17.67-.13s.36.31.57.38.45.03.64.13c.21.12.38.28.59.4.37.21.53-.06.9.16s.29.36.66.57.27.39.64.6c.42.14.89-.04,1.09-.44.19-.35.08-.79-.25-1.01-.36-.22-.29-.34-.66-.55s-.56.12-.92-.09-.24-.43-.61-.64c-.28-.16-.66-.11-.95-.25-.26-.12-.53-.22-.8-.3-.28-.09-.48-.52-.78-.56-.3,0-.61.01-.91.05-.29-.04-.57-.07-.86-.08-.28.09-.55.19-.82.31-.27.08-.53.18-.79.31-.26.1-.51.23-.74.38-.24.16-.61.18-.8.4-.2.23-.37.49-.49.77-.08.25.27.58.29.83s-.14.54-.03.78c.13.23.3.43.5.6.17.15.44.15.63.28s.29.37.49.47c.31.18.32.17.63.35s.18.41.49.59.34.14.65.32.34.14.65.32c.43.21.94.1,1.25-.27.15-.42,0-.88-.36-1.14-.05-.1.02-.14.02-.14"/>
        <path class="cls-2" d="M78.69,26.86c.34.2.33.23.67.42s.31.25.65.45.57-.19.91.01.12.59.46.79.46,0,.81.19.28.31.62.51.48-.04.82.16.23.4.57.6.46,0,.81.2.21.44.55.64.36.18.7.38c.38.22.5,0,.88.23.07.05.02.34.1.37.13.03-.09-.03-.12-.22,0-.2.31-.19.32-.39.03-.18-.02-.09-.15-.06-.06.03-.15-.02-.21.02-.36.21-.22.45-.58.66-.42.24-.54.02-.96.27s-.5.1-.92.34c-.28.16-.5.45-.85.35-.17-.07-.35-.03-.5-.14-.34-.21-.35-.2-.69-.4s-.46,0-.81-.2-.28-.31-.63-.51-.37-.15-.72-.36-.24-.38-.59-.58-.38-.14-.73-.35-.37-.16-.72-.36-.42-.07-.77-.27-.32-.25-.67-.45-.36-.18-.7-.38-.31-.27-.65-.46c-.13-.08-.23-.25-.37-.31-.2-.1-.19,0-.17.13,0,.2.1.19.09.39-.02.12-.11.25.09.15.14-.07.3-.13.43-.21.32-.18.16-.45.48-.63s.5.14.82-.04c.29-.16.25-.23.53-.39s.29-.16.57-.32c.23-.13.33-.33.61-.2.29.12.61.1.89-.05.22-.14.18-.53.2-.77s-.03-.36-.32-.5c-.23-.09-.47-.13-.72-.12-.24-.06-.49-.07-.74-.04-.23.09-.45.22-.64.39-.28.17-.45-.12-.74.05s-.19.33-.48.5-.4-.03-.69.13c-.21.12-.35.35-.56.47s-.45.19-.65.32c-.27.15-.21.54-.29.81s-.22.5-.07.77c.11.2.17.53.38.63.23.14.53.14.75.28s.45.29.67.42.38.39.61.52.65-.07.88.06.34.48.57.61.59.04.82.17.47.24.7.37.28.59.51.72.52.15.75.29c.26.15.45.4.71.55s.6.16.85.31.54.25.8.38c.21.12.45.2.69.23.26.03.54.23.79.17.26-.06.52-.14.76-.25.23-.11.25-.6.47-.73s.55-.09.77-.21c.27-.15.5-.36.77-.51s.44-.47.71-.62c.23-.12.48-.13.63-.35.14-.23.17-.52.09-.78-.08-.28-.08-.7-.35-.85-.01,0-.04.03-.06.03-.22-.14-.46-.23-.69-.36s-.38-.38-.6-.5-.5-.15-.72-.28c-.33-.19-.49.09-.82-.1s-.17-.47-.5-.66-.41-.05-.74-.24-.21-.4-.54-.59-.53.15-.86-.03-.15-.5-.48-.69-.51.11-.84-.08-.32-.21-.65-.41-.16-.48-.5-.67-.45,0-.78-.19c-.29-.2-.69-.13-.89.16-.02.02-.03.05-.05.08-.21.31-.13.74.18.95.01.01.03.02.05.03.04.05-.08.13-.08.13"/>
        <path class="cls-2" d="M61.85,52.48c.36.21.19.49.55.7s.41.11.77.31.34.24.7.44.34.23.7.44.47.02.83.22.32.28.67.49c.31.18.24.3.54.47s.32.15.63.33.37.07.67.25.33.14.64.31c.11.07.26.6.39.61.15.01.18-.7.02-.68-.03,0-.15-.17-.18-.16-.18.09-.21.48-.38.6-.35.21-.49-.02-.84.18s-.35.22-.7.43c-.23.23-.49.42-.78.57-.25.04-.52-.16-.79-.31s-.48-.43-.68-.54c-.34-.2-.47.04-.81-.16s-.31-.24-.65-.44-.26-.33-.6-.52-.47.04-.81-.15-.32-.22-.66-.42-.36-.15-.7-.35-.35-.17-.69-.37-.17-.49-.51-.68c-.23-.08-.47-.12-.71-.11-.1.01-.07-.82-.07.05,0,.5-.04.3.1.29s.39-.24.51-.31c.4-.23.49-.08.89-.32s.36-.32.76-.55c.17-.1.35-.19.54-.27.19-.08.23-.05.44.05.27.14.52-.29.73-.42.22-.14.72-.19.74-.44s-.33-.49-.61-.64c-.22-.16-.47-.28-.72-.36-.26-.04-.51.24-.77.29s-.57-.08-.8.06c-.24.13-.36.47-.6.61s-.61.04-.85.17c-.19.11-.37.24-.56.35s-.27.43-.45.54c-.29.15-.7.25-.79.53s.18.6.33.89c.11.21.07.61.29.73.24.15.59.11.83.25s.44.37.68.51.63.04.87.18.37.5.61.63.41.42.66.56.47.31.72.45.55.17.79.31c.23.13.45.26.68.39s.57.07.8.2.39.37.62.49c.23.1.47.17.71.19.25.04.52.25.76.21.26-.06.5-.17.73-.31.18-.1.34-.24.52-.35s.28-.34.46-.45.46-.18.72-.32c.22-.12.44-.27.66-.41.23-.12.45-.27.65-.44.21-.18.36-.42.43-.69-.01-.29-.12-.56-.3-.78-.24-.22-.52-.39-.83-.5-.29-.15-.21-.28-.49-.44s-.27-.19-.55-.35c-.36-.21-.51.06-.87-.15s-.17-.53-.53-.73-.39-.14-.75-.35-.35-.21-.71-.42-.36-.2-.72-.41-.36-.2-.72-.41-.49.02-.85-.18-.36-.21-.72-.41-.58-.07-.78.29c-.18.34-.24.58.09.79.1,0,.08-.08.08-.08"/>
        <path class="cls-2" d="M48.75,45.27c.35.2.51-.08.86.12s.35.2.7.4.2.47.55.67.37.18.72.38.41.1.76.3c.46.26.53.14.98.4.08.05.27.47.37.45,0,0,.04-.33-.03-.34-.06,0-.14.06-.19.09-.26.15-.38-.06-.64.1s-.2.27-.46.42-.28.14-.55.29-.38-.03-.65.14c-.17.12-.22.57-.42.61-.22.02-.4-.41-.63-.54s-.48-.23-.65-.33c-.37-.22-.45-.09-.82-.31s-.32-.32-.69-.53-.4-.18-.77-.4c-.5-.29-.41-.43-.9-.72-.2-.14-.57.06-.79-.04-.02,0,.06-.36.04-.36-.18-.03-.1.56-.14.57.08-.03.19,0,.25-.05.27-.16.35-.03.63-.18s.13-.41.4-.57c.3-.17.44.07.73-.1s.32-.12.62-.3c.26-.15.5-.47.81-.32.27.14.54.23.75.1.22-.14.57-.44.59-.69s-.38-.38-.67-.53c-.22-.11-.38-.42-.61-.45-.25-.05-.51-.07-.77-.04-.24.04-.42.31-.64.43-.3.15-.71.1-1,.27-.32.19-.18.43-.5.61s-.25.33-.57.51c-.3.15-.76.05-1.03.26-.21.25-.31.57-.29.9-.02.31.09.62.29.85.09.11.2.2.32.27.18.11.48.02.66.13.31.18.26.25.57.43s.24.3.55.48.32.15.63.33.37.08.68.25c.21.12.43.2.64.32s.23.55.43.66.55,0,.75.11c.28.15.55.47.85.5s.59-.33.89-.44c.3-.13.71-.05.98-.23.24-.14.46-.29.71-.43s.41-.39.65-.53.53-.2.76-.35c.31-.13.55-.37.7-.67.09-.28-.17-.6-.31-.88-.04-.12-.1-.23-.18-.33-.19-.15-.31-.41-.52-.52-.33-.18-.46.05-.78-.14s-.31-.21-.63-.4-.35-.14-.67-.33-.34-.17-.66-.35-.15-.48-.48-.67-.48.07-.8-.12-.23-.36-.55-.55c-.38-.2-.85-.08-1.09.28-.18.38-.06.82.28,1.06.01.01.02.03,0,.05,0,0-.01.01-.02.01"/>
        <path class="cls-2" d="M136.44,55.91c.21-.13.32-.44.53-.59s.42-.28.61-.44.44-.28.61-.45.09-.58.24-.78.51-.25.63-.46c.09-.24.16-.48.2-.73.09-.23.39-.41.44-.66.07-.25.12-.51.14-.78,0-.29-.39-.54-.45-.8s.04-.6-.08-.86-.39-.42-.55-.65c-.12-.26-.25-.51-.41-.75-.18-.22-.38-.42-.59-.61-.21-.18-.63-.1-.86-.26s-.46-.3-.69-.44-.46-.4-.7-.27c-.34.2-.33.23-.67.42s-.28.31-.62.5-.27.33-.61.52-.45.02-.79.22-.25.36-.6.55-.37.15-.71.35c-.34.2-.46,0-.81.19s-.28.31-.62.51-.36.18-.7.38-.45.02-.8.22c-.35.22-.19.77.03,1.12.21.33.57.69.91.51.35-.19.31-.27.65-.46s.27-.32.61-.52.4-.1.75-.3.32-.23.67-.43.43-.05.77-.24.16-.51.51-.71.52.1.86-.1.17-.51.51-.71.38-.13.73-.33.86.06.8-.33c-.06-.37-.4.13-.76.23.22.08.43.18.64.29.22.18.43.37.63.58.21.2.54.29.71.52.13.26.22.54.28.83.1.27-.01.52,0,.82,0,.26.33.53.26.76s-.38.37-.51.59c-.13.2-.29.38-.46.55-.16.19-.19.49-.38.66s-.54.1-.74.24-.26.51-.46.63c-.36.21-.33.52-.12.88s.49.71.85.5c.11,0,.11.07.11.07"/>
        <path class="cls-2" d="M68.54,29.59c.35.2.34.21.69.41s.56-.16.9.04.29.29.64.49.36.19.7.38.2.45.55.65.44.05.78.25.29.3.64.5.51-.08.85.12.28.32.62.52.27.33.61.53.26.34.61.55.45.02.8.22.34.22.68.42.31.27.66.47.52-.09.86.11.22.43.56.63.41.09.76.29.23.41.57.61.31.27.66.47.53-.1.88.1.24.38.6.58c.46.13.93-.13,1.06-.59.09-.3,0-.62-.22-.84-.34-.2-.33-.23-.68-.43s-.51.08-.85-.12-.35-.2-.7-.4-.19-.47-.54-.67-.36-.17-.71-.37-.41-.09-.75-.29-.42-.08-.77-.27-.24-.38-.59-.58-.44-.04-.78-.24-.32-.25-.66-.45-.23-.41-.58-.61-.41-.09-.76-.29-.34-.22-.68-.42-.25-.38-.59-.58-.54.14-.89-.06-.17-.51-.52-.71-.38-.13-.73-.33-.42-.08-.77-.28-.29-.3-.64-.5-.37-.17-.72-.37-.26-.36-.61-.56c-.36-.19-.78.2-.97.56-.18.34-.31.85.02,1.06"/>
        <path class="cls-4" d="M109.65,45.05c-.97-.13-1.87-.57-2.57-1.25-1.35.2-2.86.26-3.81-.21-.66.54-1.27,1.16-1.8,1.83-.29.48-.34,1.08-.12,1.6.25.46.7.78,1.21.87.51.09,1.03.08,1.54-.03.76-.13,1.51-.34,2.23-.64l.22-.09s-.02.08-.03.12c-.06.36-.04.73.07,1.08.18.45.54.79,1,.94.57.19,1.18.21,1.76.06.87-.2,1.7-.51,2.48-.94.54-.21,1-.58,1.33-1.05.3-.48.39-1.06.26-1.61-.07-.32-.21-.63-.41-.89-.26.08-.53.14-.81.17-.84.11-1.69.12-2.54.03h0Z"/>
        <path class="cls-2" d="M102.72,42.79c-.2.18-.33.44-.53.62s-.2.58-.39.76c-.23.21-.43.44-.59.7-.18.26-.46.44-.58.74-.08.28-.1.56-.06.85.01.29-.2.67-.08.93s.52.37.74.57c.43.4,1.01.6,1.6.54.28.03.56.03.84-.02.24-.03.55.33.79.29s.5-.08.74-.14.42-.33.66-.4.4-.34.63-.44c.39-.12.47-.31.37-.71-.11-.4-.24-.46-.64-.36-.27.12-.57.18-.85.27s-.58.21-.87.28-.65-.22-.94-.18c-.24.03-.48.22-.72.19.05,0-.13-.09-.14-.09-.03,0-.26-.18-.15-.13-.09-.04-.1-.17-.18-.22s-.2.15-.15.19c-.04-.03-.15-.04-.18-.08-.06-.07-.02-.1.02-.05-.03-.04.17-.23.15-.27-.04-.08-.13-.16-.11-.11-.02-.05-.2.08-.21.02-.02-.09,0-.04,0,.02,0-.05.29-.17.29-.22,0-.09-.39-.11-.4-.04,0-.05.01-.15.03-.2.02-.15.2-.31.29-.43.03-.04.34-.04.2.12.03-.04.09-.06.12-.1.1-.12.08-.35.19-.46.21-.22.51-.34.73-.55s.23-.65.46-.85c.3-.29.4-.52.11-.82-.24-.32-.7-.38-1.02-.14,0,0,0,0,0,0,0,0,.2-.1.19-.09-.08-.09-.32-.03-.33-.03"/>
        <path class="cls-2" d="M106.79,45.18c-.22.18-.18.6-.34.83-.16.21-.3.44-.4.69-.1.26-.33.49-.35.76s.21.52.27.8c.07.24.19.46.34.66.11.23.26.44.43.63.21.17.33.53.58.62s.57-.08.85-.07c.25,0,.5.23.74.21s.45-.31.69-.36c.23-.08.45-.17.67-.27.23-.07.61.24.83.15s.37-.38.59-.5c.27-.13.6-.15.85-.3s.33-.56.55-.75.66-.21.82-.46c.15-.24-.04-.63.03-.94.05-.23.07-.46.06-.69,0-.25.37-.56.31-.8-.09-.25-.2-.49-.35-.72-.13-.23-.29-.44-.49-.63-.19-.2-.42-.37-.67-.5-.49-.03-.94.26-1.11.71-.1.4.29.67.68.79-.14-.05.13.08.18.13-.02.09-.03.17-.03.26.11.14.19.3.25.48.04.2-.26.38-.3.58s.13.47,0,.64c-.16.16-.34.31-.53.44-.19.12-.34.34-.55.42-.25.13-.52.26-.78.37s-.67-.17-.94-.08c-.23.07-.46.11-.7.14-.25.04-.46.25-.71.24-.36.03-.72-.07-1.02-.28-.1-.14-.18-.29-.23-.45-.01-.09-.02-.18-.03-.27.01-.08.03-.17.06-.25.05-.24.13-.47.25-.68.12-.18.54-.14.72-.28.25-.34.19-.81-.13-1.08-.25-.28-.68-.31-.96-.06,0,0-.02.02-.03.02-.08.03-.12-.16-.12-.15"/>
        <path class="cls-3" d="M109.32,29.68c-.14,0-.27.02-.41.03-2.18.08-4.35.03-6.52-.17v.12c.07,3.36.41,11,.56,13.75.91.68,2.61.63,4.13.4,1.56,1.48,3.27,1.4,5.11,1.22.45-.04.89-.18,1.29-.39.05-3.67,0-11.94-.22-15.54-1.3.29-2.61.49-3.94.59h0Z"/>
        <path class="cls-4" d="M103.91,12.66c-1.49.8-2.79,1.9-3.83,3.24-1.01,1.39-1.73,2.96-2.12,4.63-.26.94-.23,1.94.11,2.86.26.51.63.95,1.1,1.27.54.55,1.37.71,2.08.41.19,1.67.05,2.94.16,4.38,2.5.25,5.01.33,7.52.25,1.33-.07,2.64-.25,3.94-.52.61-.13,1.05-.67,1.05-1.29v-5.12c1.68-1.35,2.36-3.59,1.69-5.64-.21-.65-.5-1.27-.87-1.84-.28-.41-.62-.78-.99-1.11-.76-.62-1.63-1.08-2.58-1.35l-7.26-.15h0Z"/>
        <path class="cls-4" d="M113.74,8.26c.76-2.31-.06-4.86-2.03-6.29-2.63-1.92-6.29-1.56-8.49.85-2.13,2.58-2.12,6.31.03,8.87,2.13,2.44,5.82,2.69,8.26.57,0,0,0,0,0,0,.05-.04.09-.08.14-.12"/>
        <path class="cls-4" d="M113.77,4.82c-.35-1.15-1.07-2.15-2.05-2.85-2.63-1.92-6.29-1.56-8.49.85-.7.81-1.19,1.79-1.42,2.83,1.61.16,3.23-.02,4.77-.54.08-.03.18-.02.25.02.19.1-.04.51-.14.7,1.02.11,2.05-.06,2.98-.5.24.83.82,1.51,1.6,1.88l2.48,1.05c.37-1.12.38-2.32.02-3.44h0Z"/>
        <path class="cls-2" d="M106.68,30.31c0,.26.25.52.25.77s-.2.52-.2.77-.11.52-.11.77-.03.52-.03.77.09.52.09.77.21.52.21.77,0,.52,0,.77-.2.52-.19.77.05.52.05.77.16.52.16.77-.33.52-.33.78.33.52.33.77-.02.52-.02.77-.17.52-.17.78.23.51.23.77.04.52.04.77-.1.52-.1.78-.26.52-.26.78c.01.41.52.66.93.64.39-.01.87-.25.88-.64,0-.26-.26-.52-.27-.78s-.1-.52-.1-.77.42-.52.42-.78-.19-.52-.19-.77.12-.52.12-.78-.31-.51-.31-.77.31-.52.31-.78-.35-.52-.35-.77-.02-.52-.02-.77.42-.52.41-.78-.06-.52-.06-.78v-.77c0-.26.07-.52.07-.77s-.11-.52-.11-.77-.29-.52-.29-.77-.03-.52-.03-.77.16-.52.16-.77-.07-.51-.07-.77c-.01-.41-.26-.94-.67-.93-.39.01-.63.53-.64.93"/>
        <path class="cls-2" d="M101.42,29.66c0,.27.3.53.31.8s-.1.54-.1.81.12.53.13.8.01.54.02.8.03.54.04.8-.24.55-.23.81.14.53.15.8.24.53.25.79-.09.54-.08.81c0,.26-.1.52-.09.77s.3.5.31.75-.15.52-.14.77.09.51.1.76-.13.52-.12.77.07.52.08.79.27.52.29.79c-.01.24-.21.47-.19.71-.02.24-.01.49,0,.73.13.29.36.53.64.68.28.1.56.17.86.2.31.07.63-.1.86-.08s.45.02.69.02.47.19.7.18.46-.08.69-.11.42-.21.65-.25c.4-.11.83-.42.73-.82-.12-.39-.66-.42-1.06-.33-.23.03-.49.04-.74.07-.24.03-.5-.13-.74-.12s-.51.23-.75.21c-.26-.01-.51-.05-.76-.11-.23-.08-.29-.41-.49-.55.12.35-.1.52.15.79-.02-.27.01-.64,0-.91s.2-.55.19-.82-.29-.53-.3-.79-.12-.53-.14-.8.4-.56.38-.83-.21-.53-.23-.8.1-.54.09-.81-.33-.53-.34-.8.29-.55.28-.82-.37-.53-.38-.79-.04-.54-.05-.81.4-.55.38-.82-.08-.54-.09-.81-.02-.54-.03-.81.05-.54.05-.81-.12-.54-.13-.81-.3-.53-.31-.8c-.01-.41-.18-.54-.6-.53-.39.01-.69.15-.7.54-.06.1-.25-.01-.25-.01"/>
        <path class="cls-2" d="M107.7,45.27c.21.1.48.05.7.13.21.1.42.19.64.26.22.06.43.27.66.3s.48-.14.71-.13c.29.01.57-.06.85-.07s.6.24.88.2.57-.12.85-.18c.35-.07.62-.39.91-.6.34-.28.13-.64.13-1.03,0-.3.21-.6.22-.9s-.05-.6-.05-.9c0-.27.09-.53.09-.8s-.28-.53-.28-.8.05-.53.04-.8.04-.53.04-.8.21-.54.2-.8.14-.54.14-.8-.29-.53-.3-.8.11-.54.11-.8-.11-.53-.11-.8,0-.53,0-.8-.02-.53-.02-.8c0-.28.25-.58.24-.86s-.13-.57-.14-.85-.24-.56-.25-.85.09-.57.08-.86.09-.58.08-.86c-.02-.31-.37-.36-.58-.47-.23-.12-.45-.28-.68-.17-.23.13-.34.39-.29.65.01.26-.13.52-.12.78s.07.51.08.77.27.5.28.76-.18.52-.17.78-.1.52-.09.78-.02.52-.02.77.1.51.1.77.22.51.22.77.01.52.02.77-.19.52-.19.77.06.52.06.77.16.52.16.77-.33.52-.33.77.33.52.33.77-.03.52-.03.77-.18.52-.18.77.23.5.23.74.04.5.03.75-.11.5-.11.74.01.6,0,.85c.25-.27.08-.42.18-.77-.21.06-.42.09-.63.11-.23.06-.41.36-.64.38-.23.05-.47.09-.71.11-.29.03-.57-.4-.86-.42s-.59.11-.87.04c-.26-.11-.52-.25-.76-.41-.27-.14-.53.16-.73.29-.22.14-.62.26-.63.51s.37.36.66.51c.03.03-.15.2-.15.2"/>
        <path class="cls-2" d="M110.97,13.52c.28.05.55.12.82.21.26.11.43.39.66.54.21.17.42.36.6.56.2.18.4.37.57.57.17.21.32.44.45.67.16.22.31.45.43.69.16.23.3.47.42.72.03.27.04.55.03.83,0,.27-.03.54-.08.8.01.27,0,.54-.04.81-.03.28-.08.56-.15.83-.14.24-.31.47-.49.68-.28.3-.26.77.04,1.05.3.28.77.26,1.05-.04.07-.08.13-.18.16-.28.14-.23.26-.47.36-.72.13-.24.49-.38.59-.63.09-.26.16-.53.21-.8.06-.26-.09-.57-.06-.84-.03-.26-.08-.52-.15-.78-.02-.27.15-.54.11-.8-.07-.26-.15-.51-.25-.76-.05-.26-.13-.52-.21-.77-.11-.24-.46-.35-.6-.57-.11-.23-.24-.45-.38-.67-.14-.22-.3-.42-.46-.62-.18-.19-.22-.52-.42-.69s-.33-.46-.55-.6-.6-.04-.83-.16c-.21-.16-.44-.3-.67-.43-.26-.06-.52-.11-.78-.15-.37-.09-.75.14-.85.51-.09.36.12.72.47.83.01,0,0,.02,0,.02"/>
        <path class="cls-2" d="M103.64,12.21c-.23.13-.63-.05-.85.09s-.29.49-.5.64-.61.04-.82.21-.34.41-.54.58-.45.29-.63.48-.16.56-.34.75c-.17.21-.3.44-.45.66s-.46.34-.6.57-.14.54-.27.78-.38.41-.5.65-.25.48-.35.73-.15.52-.24.78c-.08.24-.09.52-.17.78s-.16.5-.21.76c-.03.26-.04.52-.04.78-.02.27-.19.53-.18.79-.02.27,0,.55.02.82.06.27.16.53.27.78.11.25.24.49.4.71.18.2.38.38.6.55.23.14.46.26.71.37.2.17.42.32.66.45.25.11.51.2.78.25.28-.02.55-.08.81-.19.38-.17.55-.61.39-.99-.08-.36-.43-.59-.8-.51,0,0,0,0-.01,0-.27.02-.48-.19-.72-.29s-.54-.09-.72-.3c-.23-.16-.43-.36-.6-.59-.14-.24.03-.57-.02-.85-.03-.25-.04-.49-.04-.74,0-.26-.16-.52-.12-.77-.01-.26,0-.53,0-.79.06-.25.34-.44.43-.68.07-.24.16-.49.26-.72.1-.23.28-.43.4-.65s0-.59.12-.8.31-.42.45-.63.33-.4.49-.6.48-.26.65-.45c.18-.18.45-.23.64-.4s.19-.55.38-.7.47-.21.67-.36.35-.37.56-.5.43-.26.65-.38c.32-.19.43-.6.25-.92-.01-.02-.02-.04-.03-.05-.24-.37-.7-.53-1.12-.4-.06.09.29.3.29.3"/>
        <path class="cls-2" d="M100.64,25.86c.01.24-.2.49-.19.73s.05.48.05.72.3.48.3.72-.32.48-.31.72.25.47.27.71c-.03.32.22.61.54.64.03,0,.07,0,.1,0,.27.03.55-.05.82-.02s.53.15.79.18.53.17.8.19.55-.18.82-.17.54-.01.81,0,.54.08.8.08.54,0,.81,0,.54-.04.8-.05.56.37.82.35.54-.1.81-.12.53-.14.8-.16.51-.3.78-.33c.24-.03.54.29.79.25s.45-.33.7-.38.6.18.83.09c.24-.13.45-.29.65-.48.23-.15.43-.35.58-.58.11-.21-.08-.54-.04-.82.02-.33-.01-.65,0-.98s.18-.65.16-.98c0-.38-.17-.38-.17-.76s.14-.38.14-.76.03-.38.03-.77c-.04-.43-.4-.75-.83-.74-.39.03-.68.36-.67.74,0,.26-.03.52-.03.78s.06.52.06.78-.17.52-.17.78-.09.52-.09.78,0,.53,0,.79c.03.23,0,.27-.17.42-.24.15-.51.24-.79.27-.38.07-.76.28-1.15.33-.27.03-.55-.05-.82-.02s-.54-.02-.81,0-.53.15-.8.16-.54.18-.81.18-.54-.06-.82-.06-.54-.18-.81-.19c-.26,0-.52.17-.77.16s-.52.05-.77.04-.5-.31-.75-.32-.51,0-.77-.02-.53.15-.78.13-.35-.2-.6-.22c.3.44.14.57.58.87-.02-.24-.06-.49-.06-.73s.08-.48.08-.72-.28-.48-.28-.72.04-.48.04-.72.03-.48.01-.71c-.02-.31-.01-.59-.23-.7-.26-.16-.58-.21-.88-.15-.21.11-.18.51-.16.83"/>
        <path class="cls-2" d="M114.51,8.47c.08-.25.14-.5.19-.75.1-.25.18-.5.25-.75-.02-.26-.06-.53-.11-.78-.01-.26-.24-.49-.28-.74-.05-.25-.12-.49-.2-.73-.05-.25-.11-.49-.19-.73-.07-.25-.15-.49-.25-.73-.15-.21-.32-.4-.5-.59-.15-.2-.21-.5-.39-.68-.18-.19-.37-.37-.57-.54-.2-.15-.55-.1-.76-.23s-.36-.38-.59-.49c-.21-.14-.44-.27-.66-.39-.24-.09-.54.04-.79-.02s-.45-.33-.7-.36-.52-.02-.77-.03-.49.29-.75.31-.53-.29-.78-.25c-.25.04-.44.33-.69.39-.24.07-.47.15-.7.24-.22.13-.42.27-.62.42-.24.09-.47.19-.69.3-.23.11-.46.23-.68.36-.19.17-.22.49-.39.68-.16.19-.31.38-.45.59-.17.18-.32.38-.47.58-.12.22-.24.44-.34.66-.09.23-.17.47-.23.71-.08.24-.52.39-.57.64s-.02.53-.05.78c0,.27.02.53.05.8,0,.26.26.51.28.76s-.29.57-.24.82.36.45.44.7-.14.61-.04.85.31.45.44.68c.11.25.22.49.35.72.15.21.53.25.7.45.18.18.37.36.57.52.19.18.27.48.49.64.23.15.55.15.78.28s.43.37.68.46c.25.1.51.19.78.27.54.11,1.09.14,1.64.07.27,0,.54,0,.81-.03.27-.06.53-.13.78-.22.28-.01.55-.04.83-.09.27-.07.54-.16.79-.27.25-.13.48-.28.71-.44.24-.15.46-.32.68-.5.21-.25.28-.59.19-.91-.08-.24-.43-.41-.68-.48-.26-.11-.57-.08-.8.09-.2.15-.42.28-.64.4-.19.17-.39.33-.6.47-.24.11-.42.35-.67.42-.26.05-.52.09-.78.1-.26.03-.51-.12-.77-.13s-.52.16-.78.12c-.26-.02-.52-.05-.78-.11-.24-.08-.37-.43-.6-.55-.23-.12-.45-.25-.66-.39-.21-.16-.53-.18-.72-.37s-.48-.3-.64-.51-.14-.56-.27-.79c-.14-.22-.27-.45-.38-.69-.07-.26-.12-.52-.15-.78-.06-.26-.38-.48-.41-.75-.01-.27,0-.55.02-.82.01-.29.04-.57.1-.85.04-.28.3-.51.38-.78s.31-.46.43-.71,0-.63.15-.86c.19-.21.39-.41.61-.59.16-.23.34-.45.54-.65.22-.18.45-.34.69-.49.25-.14.5-.26.77-.36.26-.1.6.08.87.02.26-.09.53-.17.8-.23.28-.02.57-.24.85-.21.28.06.56.14.83.24.26.1.52.23.76.36.26.1.64-.02.88.12.22.12.34.42.53.57.21.14.41.29.6.46.17.18.2.47.34.68.15.19.29.4.41.61.11.23.43.38.5.61s-.06.54-.03.79c0,.25-.03.5-.07.74-.01.24-.05.48-.1.72-.01.25-.04.49-.09.73-.1.3.15.47.33.63.16.16.39.22.6.15.24-.05.53-.05.61-.34,0-.02,0,0,0,0"/>
        <path class="cls-2" d="M113.14,8.93c.17.01-.18.24-.03.28.05.01.16-.16.21-.15.03.01.06.07.09.09-.04-.02-.13.13-.16.1.03,0,.26-.17.29-.15s.05.11.08.13c-.03-.03-.06.03-.09,0,.05.03,0,.14.04.18s.32-.04.35,0c-.08-.16-.26.1-.24.14s.31-.04.32.01c-.04-.09-.4.06-.37.13,0,.03-.02.04-.01.06.02.05.24.05.24.11.02-.18.18-.03.18.02s-.08.13-.08.18c0,.17.04-.08,0,.07-.02.06-.12.09-.14.14,0,.02-.19.19-.15.09s.1.14.09.16c-.03.05-.05.12-.08.17-.01.02-.09.21-.03.13s-.18-.02-.19,0c-.04.04-.24-.08-.28-.04-.01.01.11.46.19.41s-.34-.3-.36-.29c-.05.03.02.25-.04.28s-.14.01-.2.04c-.02,0-.16.16-.08.13s-.17-.16-.19-.15c-.06.02-.06.24-.12.25-.12.03-.28-.11-.41-.08-.06,0,.02-.02.11-.03-.05,0-.06.39-.11.4-.07,0-.16-.13-.24-.12-.41,0-.89.26-.89.67.05.48.41.88.89.96v-.09c.25,0,.51-.01.76-.06.24-.04.42-.34.64-.43.2-.12.4-.27.57-.43.21-.14.52-.11.69-.28s.5-.25.64-.46.11-.52.2-.75c.08-.23.13-.47.14-.71.06-.25.09-.5.08-.76-.1-.23-.24-.45-.4-.64-.14-.21-.45-.26-.64-.41-.19-.14-.4-.25-.62-.33-.21-.11-.44-.19-.67-.22-.41-.03-.77.28-.8.69.03.41.38.72.79.72.09-.04.03-.16.04-.16"/>
        <path class="cls-2" d="M105.74,8.19c-.02.28-.36.53-.59.69-.16.11-.35.15-.54.12-.29-.03-.55-.17-.72-.4-.08-.22-.09-.45-.05-.67.04-.19.3-.3.45-.44.28-.26.71-.25.98.02.18.18.44.3.41.55.06.09.05.12.05.13"/>
        <path class="cls-2" d="M109.12,8.92c-.02.28-.04.7-.27.86-.21.09-.45.12-.67.08-.3-.07-.55-.25-.71-.51-.08-.19.23-.43.27-.62s-.06-.44.09-.58c.32-.24.77-.19,1.03.1.18.18.49.43.47.68l-.21-.02"/>
        <path class="cls-2" d="M108.82,5.63c.1.29.22.57.35.85.13.25.29.49.46.71.15.17.56.1.74.23s.23.51.44.61c.22.11.47.16.72.13.4-.11.37-.69.26-1.09-.05-.19.1-.54-.08-.64-.19-.09-.37-.21-.53-.34-.08-.06.23.22.16.15-.17-.13-.45-.17-.59-.34-.06-.08.12.26.07.18-.24-.29-.44-.61-.6-.95-.03-.09.26,0,.29.1.02.04,0-.05-.02-.09-.06-.18-.29-.29-.45-.4-.17-.13-.38-.19-.59-.18-.22.05-.43.16-.58.34-.11.17.02.47.08.67-.03.08-.15.06-.14.06"/>
        <path class="cls-2" d="M109.29,4.62c-.21.09-.36.35-.57.41s-.48-.07-.7-.03c-.21.05-.42.08-.63.1-.12.01-.23,0-.34-.04.15.57-.21.76.12,1.25.13-.24.66-.59.7-.86s-.29-.53-.51-.76c-.18-.23-.46-.36-.76-.34-.29.03-.53.33-.81.41-.23.06-.49.08-.72.13s-.52-.19-.76-.16-.45.43-.69.44-.5-.33-.73-.33-.47-.08-.71-.1c-.32.02-.61.2-.77.48-.11.22.16.5.28.73.11.21.18.33.48.35.27.02.53.05.8.05s.55.22.82.2.56.04.83,0c.38-.05.76-.26,1.14-.35.17-.04.35-.1.52-.15.11-.03.22-.06.33-.09.04-.01.05-.13.1-.14.11-.03.15-.15-.02-.11-.18-.06-.11-.13-.28-.22-.03-.01.17.14.15.11-.09-.17-.4,0-.49-.18-.11-.26-.02-.36-.08-.29-.04.07-.12.14-.15.21-.1.18.28.45.33.63s-.1.54.08.65c.06.04.13.08.2.1.31.05.63.07.95.06.31-.07.61-.16.9-.29.3-.06.59-.15.87-.26.28-.11.55-.24.81-.4.28-.15.37-.25.36-.49s-.03-.6-.25-.74c-.26-.11-.56-.07-.79.08-.02,0-.03-.06-.03-.06"/>
        <path class="cls-4" d="M109.86,29.69l9.25-22.32c.26-.63-.16-1.15-.66-1.61-.79-.62-1.73-1.01-2.73-1.14-.68-.06-1.35.03-1.61.66l-15.2,36.5c-.07.18-.11.37-.1.56l.02,6.09c0,.14.12.24.26.24.06,0,.11-.02.16-.06,1.36-1.23,2.91-2.94,4.28-4.19.19-.17.34-.38.44-.61l5.91-14.1Z"/>
        <path class="cls-3" d="M114.95,4.64c-.38.05-.7.29-.85.64l-15.08,36.23,5.01,2.1,5.83-13.91,9.25-22.32c.26-.63-.16-1.15-.66-1.61-.79-.62-1.73-1.01-2.73-1.14-.26-.03-.51-.02-.77.02h0Z"/>
        <path class="cls-2" d="M99.04,47.95c0-.2-.33-.45-.33-.72,0-.24.27-.49.27-.72,0-.27-.18-.46-.18-.66.28,0,.56.06.82.16.38.16.38.16.77.32.27.09.51.25.7.46-.21.21-.28.49-.49.69s-.55.29-.76.48-.42.43-.63.61c-.1.09-.36.21-.45.11-.04-.04.22-.09.22-.14.15-.22.04-.36.04-.6"/>
        <path class="cls-2" d="M101.17,46.08c-.34-.14-.31-.21-.66-.35s-.29-.26-.64-.4-.29-.27-.64-.41c-.19-.05-.42.29-.59.4-.33.13-.5.51-.37.84,0,.02.02.05.03.07l-.09.07c.06.08.31-.13.38-.06.06.08.14.13.24.15.34.14.3.26.64.4s.38.06.72.21.32.19.67.32c.19.05.25-.04.43-.15.36-.21.77-.59.56-.95l-.27.17c-.06-.08.16-.25.1-.33-.13-.08-.28-.13-.44-.15"/>
        <path class="cls-2" d="M110.53,29.87c.14-.35.25-.31.4-.66s.26-.31.4-.66.12-.37.26-.72,0-.41.15-.77.11-.37.25-.72.3-.29.44-.64-.03-.43.12-.78.41-.24.56-.6.07-.39.21-.75-.03-.43.12-.78c.15-.37.05-.41.2-.78s.43-.26.58-.62.03-.42.18-.78.37-.28.52-.64.02-.42.18-.79-.11-.48.05-.85.49-.23.64-.6.06-.41.21-.77.14-.38.29-.75-.07-.46.08-.83.51-.22.66-.59-.04-.45.11-.82.02-.42.17-.79.28-.32.43-.69,0-.43.15-.81.16-.37.31-.74c.17-.4.26-.36.43-.76s.42-.29.59-.69.14-.41.31-.81-.08-.51.08-.91c.11-.24.16-.5.16-.76.05-.27.03-.54-.03-.81-.11-.26-.26-.49-.44-.7-.18-.2-.27-.55-.5-.71s-.66.01-.91-.11-.36-.57-.61-.66-.64.23-.91.17c-.25-.09-.51-.16-.78-.22-.27,0-.53.02-.79.09-.26.05-.62-.16-.81-.04-.21.14-.24.49-.38.69-.11.21-.21.43-.28.66-.1.22-.21.43-.3.66-.17.4-.13.42-.3.82s-.26.36-.43.76-.34.33-.51.73.12.52-.05.92c-.15.36-.49.22-.64.58s-.11.37-.26.73.19.5.04.86-.25.32-.4.67-.08.39-.23.75-.1.38-.25.74-.22.33-.37.69-.14.36-.29.72-.44.24-.59.6.19.5.04.86-.23.32-.38.68-.18.35-.33.71-.41.25-.56.61.16.49,0,.85-.43.24-.59.61-.15.36-.3.72.18.5.03.85-.49.22-.64.58.13.47-.02.83-.43.24-.58.6.12.47-.02.83-.22.33-.37.69-.26.31-.41.67-.27.31-.42.67.18.49.03.85-.27.31-.42.67-.26.32-.41.67.16.49.01.85-.17.35-.32.71-.27.31-.42.67-.07.4-.22.76-.19.35-.34.71c-.15.38-.08.41-.23.79s-.55.21-.7.59.14.5-.01.88-.41.27-.57.65-.07.42-.22.79,0,.44-.15.82-.15.38-.31.75-.31.32-.46.7.02.45-.14.83-.33.31-.49.69-.13.39-.3.77c-.1.31-.17.63-.2.95-.1.31-.52.57-.55.89,0,.25-.04.52-.04.77s.31.51.31.76-.09.5-.09.76.2.5.2.75-.03.5-.03.76-.27.51-.27.76.38.5.38.75-.37.51-.35.76c0,.3.1.6.29.84.24.19.54.29.85.29.25,0,.37-.36.55-.53.21-.17.44-.32.64-.5s.41-.35.6-.54.55-.22.74-.42.44-.33.63-.53.27-.49.46-.68.37-.4.56-.59.39-.37.59-.56c.17-.21.32-.44.44-.68.15-.22.46-.35.58-.6s.27-.48.38-.72.23-.49.32-.74-.12-.63-.02-.86c.15-.36.43-.25.58-.61s.19-.35.34-.71-.25-.53-.1-.89.49-.22.64-.59.17-.36.32-.72.13-.37.28-.74-.01-.43.14-.8.1-.38.25-.75.09-.39.25-.75.21-.34.37-.71.33-.29.48-.65.04-.41.19-.78.25-.33.4-.69.24-.33.39-.7-.01-.44.14-.8c.17-.4,0-.46.15-.87.11-.4.02-.61-.38-.72-.4-.1-.61.06-.73.45-.15.38-.49.25-.65.63s.05.47-.11.85-.22.36-.38.74.06.47-.1.85-.35.3-.51.68-.14.39-.3.77-.05.43-.21.81-.18.37-.34.76c-.15.35-.31.28-.46.63s-.1.37-.25.71.05.43-.1.78-.41.24-.55.59.03.42-.11.77-.3.28-.45.63,0,.41-.15.76-.08.38-.22.73-.41.24-.56.59-.1.37-.25.72-.12.36-.28.71c-.12.24-.41.34-.58.55s-.22.51-.44.67c-.21.2-.55.27-.75.47s-.35.47-.55.67-.42.38-.63.59c-.14.14-.18.39-.32.53s-.11.47-.25.61-.35.24-.5.38c-.08.08-.08.08-.16.16s-.15,0-.23.08c-.07.06-.11-.04-.05-.08.13-.02.27-.02.4-.02.03,0,.06.01.08.02.14.13-.03.3.1.44.05.07.12.21.13.02,0-.08.23-.17.23-.25,0-.45-.03-.45-.03-.91,0-.42.04-.42.04-.85s-.22-.42-.22-.85.06-.42.05-.85c0-.34-.07-.34-.07-.68s.19-.34.19-.68-.2-.34-.21-.68c-.02-.23.17-.41.25-.63.1-.25.22-.48.32-.73s-.15-.64-.05-.89.33-.44.44-.69.41-.41.51-.66.28-.46.38-.71c.15-.36.07-.39.22-.75s.15-.36.31-.71-.07-.45.08-.81.05-.4.2-.76.36-.27.5-.63.34-.28.49-.64,0-.42.14-.78.15-.36.3-.72.29-.3.44-.66.05-.41.2-.77-.03-.44.12-.8.13-.38.28-.75.22-.34.38-.71.26-.33.42-.7.08-.4.23-.77.29-.31.45-.68.17-.37.32-.74-.07-.47.08-.84.28-.32.44-.69.25-.33.4-.7-.04-.46.11-.83.36-.29.51-.66.12-.39.27-.76-.12-.49.04-.86.45-.24.61-.61-.06-.46.09-.83.15-.37.3-.74.06-.41.21-.77.25-.33.41-.69.28-.32.43-.68-.04-.45.11-.82.13-.38.28-.74.22-.34.38-.71.15-.37.31-.74.12-.38.28-.75.51-.22.67-.59c.14-.35.08-.38.22-.72s.05-.38.19-.73-.09-.44.06-.79.47-.21.61-.56-.09-.45.05-.79.45-.22.59-.57.05-.38.2-.74.22-.32.37-.67c.12-.29-.13-.4-.01-.69.02-.05,0-.12.02-.16,0,0,.07,0,.08,0-.05.07.01-.07.06-.1.29-.04.58-.03.86.03.27.02.54.1.79.22.27.06.54.16.8.28.26.11.51.25.74.42.26.24.52.53.39.9-.02.05.02.13,0,.18-.1.25-.36.43-.46.68s-.29.46-.39.71-.21.5-.31.74-.24.48-.34.73-.14.52-.25.77-.08.55-.18.8-.31.45-.42.7-.27.47-.38.72c-.15.36-.04.41-.19.77s0,.42-.15.79-.21.34-.36.71-.31.3-.46.66.02.44-.13.8-.08.39-.23.76-.41.26-.56.62-.13.38-.28.74.03.44-.12.8-.02.42-.17.79-.35.29-.5.65-.11.38-.26.75-.24.33-.39.7c-.15.35.11.46-.04.81s-.19.34-.34.69-.18.34-.33.69-.34.27-.49.63-.28.3-.43.65.12.46-.03.82-.26.31-.4.66-.05.4-.2.75-.15.35-.3.71c-.05.11-.09.22-.13.33-.11.4.03.99.42,1.11.47.02.9-.26,1.07-.71,0-.03-.14-.03-.14-.03"/>
        <path class="cls-2" d="M99.34,42.19c.38.16.34.28.73.44s.43.05.82.21.37.2.76.36.26.47.65.64.38.19.77.35.45.03.85.18c.38.1.77-.13.87-.52,0,0,0-.01,0-.02.13-.39-.07-.81-.45-.97-.39-.15-.34-.27-.73-.43s-.4-.13-.78-.29-.45-.02-.84-.18-.4-.12-.79-.28-.33-.31-.71-.48-.45,0-.85-.15c-.4-.11-.98,0-1.09.39-.03.47.25.91.69,1.09"/>
        <path class="cls-4" d="M115.25,23.15c.74-.52,1.21-1.35,1.27-2.25.15-1.01-.03-2.29-1.49-2.66-.53-.11-1.08,0-1.53.29-.98.57-1.53,1.66-1.41,2.78.09,1.25,1.17,2.19,2.42,2.12.26-.04.52-.13.74-.27"/>
        <path class="cls-2" d="M115.7,23.9c.24-.13.47-.29.68-.47.18-.19.01-.65.15-.87.13-.21.24-.44.32-.67.09-.23.16-.47.21-.71.07-.24.12-.5.14-.75-.02-.27-.08-.53-.18-.77-.06-.27.05-.57-.09-.81-.13-.25-.29-.47-.48-.67-.2-.19-.53-.12-.79-.25-.22-.11-.46-.19-.7-.24-.27-.03-.54-.33-.8-.3s-.42.44-.67.55c-.24.07-.48.18-.69.32-.19.17-.35.37-.49.59-.17.21-.47.31-.59.54-.13.23-.23.48-.3.73-.11.25-.19.52-.24.79,0,.26.32.5.38.76s-.11.58,0,.83c.1.23.5.26.65.45s.07.64.26.78.53.09.76.18.44.34.69.37.49-.25.74-.29c.24-.03.47-.09.68-.19.08-.03.11-.11.19-.15.35-.22.37-.44.15-.78-.21-.33-.52-.62-.86-.44-.29.24-.68.28-1.01.12.12.05-.04.02-.07,0-.05-.03-.09-.07-.14-.11-.05-.03-.24.16-.28.13.09.07.1-.15.08-.17-.09-.09.02-.35-.06-.44-.01-.01-.2,0-.14.09-.04-.06-.14-.08-.18-.15-.11-.15-.2-.32-.25-.5-.01-.05,0-.1,0-.15.02.14.23-.05.23-.08,0-.14-.37-.27-.36-.41,0-.05.02-.11.04-.16-.02.14.25.03.26,0,.02-.1-.21-.28-.18-.38.01-.04.13-.06.14-.1-.05.13-.13-.09-.11-.12.06-.11.53.02.6-.09.01-.02-.27-.36-.35-.26.03-.04.38.2.41.16.08-.09.02-.3.1-.38.15-.13.33-.23.51-.31.12-.06-.14.08.08,0,.05-.02.05-.19.11-.21-.02,0,.25.05.15.07s.13.05.12.05c.09,0,.19-.25.28-.25-.16,0-.07.17-.02.18.07.02.22-.22.29-.19.03,0,.06.39-.06.34.04.02.24-.27.28-.24s.08.09.11.11c.07.05.15.16.06.09s-.14.3-.14.3c.03.03.17-.06.2-.03.09.09.06-.02.04-.05.03.05-.03.15,0,.2s-.06.14-.04.18.36.03.31-.13c.03.08-.08.21-.06.29.01.05-.01.32-.03.12,0,.09-.04.18-.04.28s.19.21.18.31c0,.05-.33.35-.3.13,0,.25-.03.49-.08.74-.06.21.01.49-.12.67-.11.21-.26.41-.43.57-.35.21-.66.57-.46.92.27.34.75.42,1.12.2.08-.01.08.14.08.13"/>
        <path class="cls-4" d="M105.07,21.21c1.21-.47,2.58.14,3.04,1.36.42,1.08-.02,2.31-1.03,2.88-.73.45-2.08.58-2.69-.16"/>
        <path class="cls-2" d="M105.23,21.8c.09-.03.22.11.31.09.05-.01.03-.1.09-.11.03,0,0-.18.03-.18.07,0,.12.33.05.34-.02,0-.1-.26-.07-.26.05,0,.06.14.11.14s.06.24.11.24c.08,0,.15-.05.23-.05.04,0,.08-.4.12-.4.1,0-.21.28-.06.32.07.01.17-.15.24-.14s.03.31.09.33c.03.01.12-.09.15-.09-.17-.02-.08-.1,0-.07.11.06.26.06.36.12.08.05-.21-.03-.11.08.02.02.21-.15.23-.13.06.05-.18.4-.13.46.03.03.21-.04.22,0-.02-.08-.2-.04-.15.03.02.03.28-.1.3-.07.03.05-.07.18-.04.24.02.03.11.02.13.05.08.14-.08-.08-.05-.01.04.12-.03.27,0,.39,0,.03.13.07.12.09.01-.01.22-.16.22-.02,0,.04-.15.09-.15.13,0,.06.14.13.14.19,0,.03-.29.07-.29.1,0,.1,0-.24-.04-.09s.3.38.25.52c-.02.07-.13.09-.05-.01-.01.03-.09-.03-.1,0-.03.07-.12.11-.16.18s-.02.15-.06.21c-.05.09.15-.09.04.03-.03.04-.22-.06-.25-.03-.05.05,0,.19-.05.23-.03.03-.21.28-.05.16-.06.05-.21-.01-.27.03-.04.02-.14-.1-.17-.08-.02.01.05.17.03.18-.08.03-.08-.07.02-.11-.07.07-.15.14-.24.18-.1.03-.16.23-.26.25-.01,0-.05-.2-.07-.2-.08.01-.08-.02.03-.04-.05.01-.11-.09-.16-.1-.09,0-.17-.08-.27-.09-.01,0-.23.38-.1.4s-.08-.04-.1-.04c-.04,0-.1,0-.14-.02-.03,0,.11-.41.08-.42-.08-.03-.19.23-.09.27-.08,0-.09-.15-.15-.2-.13-.08-.04.17-.08.1-.04-.05.1-.25.05-.29-.37-.27-.87-.24-1.21.07-.28.3-.08.65.2.95.17.15.35.28.56.38.22.12.32.51.56.57.26,0,.51-.02.76-.08.24-.01.56.2.79.12.29-.08.52-.37.77-.52.24-.17.47-.37.66-.59.2-.21.5-.38.64-.64.15-.23.28-.47.38-.72.06-.25-.32-.56-.32-.81-.02-.48-.14-.95-.36-1.38-.09-.23-.22-.44-.37-.64-.17-.18-.42-.22-.64-.36-.2-.12-.3-.4-.52-.47-.22-.09-.44-.15-.67-.18-.23-.03-.44.22-.67.25-.22,0-.44.03-.65.08-.4.11-.8.38-.69.77s.52.41.91.3c.06-.04.08.07.08.07"/>
        <path class="cls-4" d="M23.64,53.16c1.07,0,2.18-.08,3.36-.18.97-.08,1.94-.21,2.9-.4l-.85,7.34.66.6c.66.54,1.26,1.15,1.8,1.82.27.45.32,1.01.12,1.5-.24.43-.65.73-1.14.82-.48.08-.97.07-1.44-.03-.72-.12-1.42-.32-2.1-.6l-.2-.08s.02.08.03.11c.06.34.03.68-.07,1.01-.17.42-.51.74-.94.88-.12.05-.24.09-.37.1-1.47.18-2.74-.49-3.97-1.11-.4-.19-.72-.5-.93-.89-.34-.66-.33-1.43.02-2.08.13-3,.26-6.01.38-9.01.91.14,1.82.21,2.74.2h0Z"/>
        <path class="cls-2" d="M29.08,53.15c-.03.26.14.55.11.81s-.16.51-.19.77-.07.52-.1.78-.26.5-.29.76.08.54.04.8.08.54.05.8-.1.52-.13.78-.22.5-.25.76.03.53,0,.79.12.52.09.78c0,.41.1.62.52.63.41-.01.58-.24.59-.64.03-.26.21-.51.24-.77s.31-.49.34-.75.01-.53.04-.79-.35-.57-.32-.83.38-.48.41-.74-.12-.54-.09-.8.35-.49.38-.75-.22-.55-.19-.81.14-.51.17-.77-.02-.53,0-.79c.03-.4-.27-.76-.67-.79,0,0,0,0,0,0-.41.01-.54.4-.55.8"/>
        <path class="cls-2" d="M24.83,53.97c-.03.38-.12.38-.15.76s.02.38-.02.77-.15.37-.19.76.12.4.09.78-.17.37-.2.76-.14.37-.17.75.11.4.08.78.17.4.14.79-.13.38-.17.76-.05.38-.07.77c0,.41.24.85.65.85.42-.06.73-.43.72-.86.02-.38-.11-.4-.08-.78s.08-.38.11-.76.2-.37.23-.75-.06-.39-.02-.77-.14-.4-.11-.78.15-.37.18-.75-.02-.38.01-.77.18-.37.21-.76.28-.37.31-.75,0-.4.02-.78c0-.41-.52-.53-.93-.53-.41,0-.84.11-.85.52"/>
        <path class="cls-2" d="M20.15,53.18c-.02.4-.07.39-.08.79s.07.4.05.79-.19.38-.21.78,0,.4-.02.79.07.4.05.79.11.4.09.8-.11.39-.12.78.03.4.01.8-.14.39-.15.79.14.41.12.8-.15.39-.17.79c-.03.3.09.59.33.77.28.07.58.02.82-.14.21-.11.17-.33.19-.64.02-.4.12-.39.13-.79s.02-.39.04-.79.22-.38.23-.78-.12-.4-.1-.8-.13-.4-.11-.8.06-.39.08-.79.18-.38.2-.78-.07-.4-.05-.8-.16-.41-.14-.8.14-.39.15-.79-.03-.4-.02-.8c.01-.32.01-.51-.2-.62s-.62-.33-.85-.21c-.21.11-.26.53-.27.84"/>
        <path class="cls-2" d="M29.18,61.04c.21.19.31.51.52.7s.69.11.89.32c.1.1.16.27.25.38.02.02.04.14.07.15-.07-.09-.3.03-.26.09.02.02.16-.06.18-.04.04.06.08.12.12.19-.05-.11.11.13.12.16.01.05-.26.14-.25.19-.01-.08.03-.08.04.01,0,.05.34.2.34.24.01-.08-.23-.18-.25-.1-.01.05.16.22.15.27.03-.06,0-.12-.04-.04-.02.04-.06.11-.08.15.05-.06-.21-.28-.26-.22-.03.03.14.3.1.33.06-.04.1,0,.03.05s-.34-.27-.43-.23c.13-.06-.02.3-.05.31s-.25-.23-.15-.24c-.21.04-.43.06-.64.05-.09-.01-.14.26-.09.27-.09,0-.09-.02-.17-.04-.11-.02-.22-.1-.33-.12-.21-.04-.36-.3-.57-.35s-.46.05-.66-.02-.42-.1-.61-.18c-.41-.13-.86.07-1.03.47-.05.43.23.83.64.94.24.1.51.1.75.18s.42.42.67.48.58-.23.83-.19c.27.06.55.09.83.08.29,0,.63.34.91.27s.49-.39.75-.53c.25-.15.48-.34.66-.57.14-.26.23-.54.26-.83.11-.28.17-.58.16-.88-.08-.32-.21-.62-.38-.9-.19-.26-.42-.49-.67-.68-.2-.21-.5-.32-.71-.51s-.37-.45-.59-.65c-.27-.26-.71-.26-.97.01-.01.01-.02.02-.03.04-.3.27-.34.73-.09,1.04,0,0,.04-.06.05-.06"/>
        <path class="cls-2" d="M25.38,63.26c.23.24.4.54.47.87.06.23.32.44.27.67-.04.12-.21.21-.31.28.08-.07-.14-.02-.15,0-.08.05-.05.33-.13.36-.34.09-.72-.23-1.07-.3-.28-.06-.61.15-.89.07-.27-.09-.54-.2-.8-.33-.27-.07-.55-.16-.81-.27-.33-.13-.48-.56-.7-.84-.19-.29-.53-.66-.46-1,.1-.4.09-.76-.3-.88-.42-.12-.86.1-1.02.5-.06.24.11.52.11.76-.04.49.09.98.38,1.38.13.21.15.53.33.7.18.15.53.07.73.19.18.14.37.28.57.4.22.11.42.24.65.33s.38.35.61.43c.23.1.58-.19.82-.13.23.08.46.15.69.2.25.02.49.27.73.26.26,0,.51-.01.77-.05.28-.08.49-.35.72-.52.24-.16.44-.35.61-.58.12-.25.19-.52.22-.8.01-.25-.01-.5-.07-.74-.02-.26.24-.59.15-.83-.07-.27-.18-.53-.32-.77-.15-.21-.48-.31-.68-.48-.34-.31-.84-.34-1.22-.09-.29.29-.07.81.22,1.1-.03.03-.06.07-.1.1"/>
        <path class="cls-3" d="M23.4,30.79c-1.05.3-2.02.81-2.87,1.5-.42.36-.79.78-1.1,1.23-.41.64-.74,1.33-.97,2.06-.61,1.84-.31,3.86.81,5.44.43.63,1.06,1.11,1.78,1.37-.74,2.65-1.7,5.89-2.25,9.03-.09.54.23,1.07.76,1.22,2.36.68,4.71.55,7.45.33,1.8-.13,3.58-.48,5.29-1.06.56-.53-.11-6.94-.55-9.53,0,0-.04-.21-.07-.43l.08-.34c.13-.55.6-2.67.78-3.19.22-.61.38-1.24.49-1.87,0,0,1.24-1.08,1.76-1.1,2.56-.11,4.35-.18,7.28-.4.26-.03.46-.23.48-.49.04-.91.1-2.05.12-2.74.01-.28-.19-.52-.46-.57-1.73-.28-6.01-.88-9.11-1.4l-9.7.96Z"/>
        <path class="cls-4" d="M30.81,19.52c-2.25-1.35-5.09-1.23-7.23.3-2.07,1.51-2.88,4.22-1.96,6.61-.48.21-.82.65-.92,1.16-.08.75.24,1.48.83,1.94.65.5,1.46.76,2.28.71,2.47,2.12,6.19,1.85,8.33-.6,2.17-2.59,2.19-6.36.03-8.97-.39-.45-.85-.84-1.36-1.15h0Z"/>
        <path class="cls-4" d="M21.52,22.66c.36-1.15,1.08-2.15,2.06-2.84,2.66-1.94,6.36-1.57,8.58.86.11.13.22.26.32.4l-1.23,1.28c-.77.71-1.71,1.19-2.74,1.39.05-.21.14-.67-.07-.72-.09-.02-.18,0-.25.06-1.23.9-2.62,1.53-4.1,1.88l-1.94,1.34c-.19,0-.37.06-.54.13-.46-1.21-.5-2.54-.1-3.77h0Z"/>
        <path class="cls-2" d="M22.05,26.05c-.08-.24.25-.59.21-.84s-.38-.47-.38-.73.23-.5.26-.75c0-.25.02-.51.06-.76.09-.24.19-.47.31-.69.07-.25.15-.5.26-.74.13-.23.28-.45.44-.65.17-.18.56-.14.76-.3s.26-.54.48-.66c.24-.11.48-.2.72-.28.23-.11.48-.2.72-.28.25-.06.51-.1.77-.13.26,0,.52.03.77.07.25,0,.48.2.73.23.25-.02.51-.02.76,0,.24.06.42.28.66.37s.58-.02.8.11c.4.33.76.7,1.06,1.12.17.19.54.24.68.45s-.03.61.08.84.47.35.56.6c.08.25.14.5.19.75.1.25.18.5.25.76.02.26-.23.53-.24.79s.25.54.22.8-.32.47-.38.72c-.1.24-.21.47-.34.69-.1.24-.04.55-.17.77-.14.22-.3.42-.47.61-.15.21-.32.4-.5.59-.18.18-.5.19-.71.34s-.31.51-.54.62c-.25.09-.51.16-.77.22-.25.07-.51.12-.77.16-.26.04-.52-.1-.78-.1s-.55.37-.81.34c-.26-.06-.52-.14-.78-.24-.25-.07-.41-.4-.65-.51-.22-.12-.44-.27-.64-.42-.22-.14-.52-.16-.71-.34-.19-.19-.46-.27-.72-.2-.23.11-.39.33-.44.58-.08.23,0,.32.24.54.2.18.19.6.41.76.21.18.42.35.65.51.23.13.56.09.81.19.23.14.48.27.72.38.26.07.58-.17.85-.13s.5.32.77.33c.27.03.54.05.82.05.27-.05.53-.12.8-.2.26-.05.44-.39.69-.47.24-.1.47-.21.69-.34.23-.12.54-.08.76-.23s.6-.09.8-.26c.2-.19.38-.38.56-.59.18-.19.15-.57.31-.78.16-.2.31-.41.45-.63.15-.21.3-.43.43-.66.12-.24.42-.4.51-.65.04-.27.06-.54.07-.81.06-.25.07-.52.11-.78.08-.26.15-.51.21-.78,0-.26-.12-.53-.14-.79-.05-.26-.11-.51-.19-.76-.05-.26.17-.58.1-.83s-.49-.38-.59-.63c-.1-.24-.22-.46-.35-.69-.12-.23.08-.65-.07-.87s-.48-.3-.65-.5c-.15-.21-.32-.41-.49-.6-.2-.16-.42-.31-.64-.45-.2-.16-.32-.45-.54-.59-.23-.12-.46-.23-.7-.33-.25-.07-.5-.14-.75-.18-.25-.04-.51-.06-.76-.07-.24-.08-.48-.14-.73-.2-.25,0-.5,0-.76.01-.25,0-.51-.11-.76-.08s-.48.22-.72.27c-.26,0-.51.03-.77.07-.24.08-.52.07-.76.17s-.4.35-.62.48c-.23.13-.33.45-.54.6-.23.13-.45.27-.66.43-.19.18-.37.37-.54.57-.17.21-.49.31-.63.54-.1.25-.19.51-.26.77-.07.26-.12.52-.15.78-.09.24-.17.49-.23.74-.05.26-.25.5-.26.76.01.27.04.53.09.8.01.26.22.49.27.75,0,.26.03.52.07.78.09.29.23.33.47.38.26.05.5.13.68-.04.25-.22.37-.56.33-.89-.09-.07-.35.25-.35.25"/>
        <path class="cls-2" d="M22.15,25.35c-.26.04-.52.11-.76.22-.24.11-.46.25-.65.42-.19.15-.19.49-.33.69-.11.2-.2.41-.24.63-.08.21-.12.44-.12.67,0,.24-.22.54-.14.77.09.25.19.49.33.71.16.21.33.4.53.58.17.18.49.2.7.34s.5.06.73.15.35.54.6.59.52-.24.77-.25c.41,0,.52-.2.53-.61,0-.41-.12-.68-.53-.69-.21,0-.4-.19-.61-.24s-.49.06-.68-.04c-.11-.06-.09-.34-.2-.42.13.09.04-.05.02-.08-.05-.04-.3.14-.34.1s-.14-.05-.18-.1c.11.13.33-.25.31-.28-.03-.05-.32.06-.34,0-.01-.02-.22-.18-.18-.09s.11-.15.1-.17c-.02-.06-.04-.12-.05-.17,0-.03.04-.07.04-.1.01.09-.18.13-.19.08s.32-.14.32-.19c0-.02-.22-.22-.22-.11s-.03-.1-.03-.12.4-.09.36.02-.33-.23-.31-.25.36-.03.3.06-.08-.14-.06-.16c.04-.04-.04-.21,0-.25s.06,0-.01.05c.02-.02.1,0,.12,0,.05-.03.21.13.26.1s-.01-.08-.1-.04c.03-.01.05,0,.08-.02.05-.02.07-.17.12-.19.2-.04-.09-.07.07-.08.41,0,.86-.15.86-.56s-.52-.58-.93-.58c-.09-.04.07-.37.07-.37"/>
        <path class="cls-2" d="M29.68,26.12c.02.28.4.4.63.57.12.1.27.13.42.09.22-.02.41-.16.49-.37.1-.15.14-.33.11-.51-.04-.18-.14-.34-.28-.46-.26-.28-.7-.28-.98-.02,0,0,0,0,0,0-.18.18-.45.35-.42.6-.02.03,0,.08.03.09,0,0,0,0,0,0"/>
        <path class="cls-2" d="M26.3,26.84c.02.28-.02.68.21.85.16.1.41-.18.6-.22.26-.05.32-.11.44-.35.08-.19.25-.3.2-.49,0-.21-.08-.41-.21-.57-.36-.29-.86-.31-1.24-.06-.18.27-.25.59-.22.92.02.04.23-.07.23-.07"/>
        <path class="cls-2" d="M30.66,21.74c-.17.15-.25.41-.44.54s-.51.02-.71.12-.27.5-.48.58c-.11.04-.25-.03-.36,0-.05.01-.1-.02-.15-.02.09,0,.23-.06.15-.05.15.26-.1.42.08.66s.14.41.41.54c.14-.33.23-.68.28-1.03-.04-.28-.32-.46-.59-.62-.33-.2-.53-.04-.81.09-.29.12-.58.26-.85.42-.25.15-.45.41-.71.54s-.6.13-.87.24-.61.04-.89.13-.55.2-.83.27c-.41.17-.63.62-.52,1.05.12.37.54.45.92.36.27-.07.56-.04.82-.12s.56-.08.82-.17.56-.12.81-.24c.34-.15.57-.52.89-.71.17-.1.48.01.64-.1.08-.05.05-.29.13-.34.05-.03.17.15.22.12.14-.09,0-.22-.16-.15-.19-.01-.19-.08-.33-.21-.16-.42-.2-.5-.2-.31,0,.05-.23-.02-.22-.06-.02.07.31.26.29.33-.05.14-.02.3.08.42.1.17.09.35.29.41.06.01.11.13.17.13.32.02.65.02.97-.02.3-.13.58-.28.85-.46.28-.13.38-.56.64-.74.25-.16.49-.35.71-.55.23-.18.26-.51.09-.73-.04-.04-.08-.08-.13-.11-.2-.25-.57-.29-.82-.08-.02.02-.04.03-.05.05-.05.03-.11-.15-.12-.15"/>
        <path class="cls-2" d="M30.97,42.6c.04.25.2.48.23.72s-.14.53-.1.77.16.48.19.73-.02.51,0,.75.17.49.19.73-.11.51-.09.76.35.47.37.72c.02.29-.03.58-.02.87s.17.57.19.86-.03.58-.03.87-.13.6-.15.89c-.02.18-.11-.15-.14,0,0,.05.22.14.21.18-.02.14-.2-.01-.17,0,.03-.07.26.08.23.12-.04.06-.33-.26-.25-.38.15-.12.2.02.31-.13-.24.08-.3.38-.54.46s-.56-.11-.8-.05-.47.19-.72.25-.47.23-.72.28-.54-.15-.79-.11-.44.5-.69.54-.54-.22-.79-.2-.5.2-.75.22-.51.02-.77.03-.51-.1-.77-.1c-.29.02-.58.07-.87.07s-.57-.15-.86-.16-.59.11-.87.08-.54-.32-.82-.36-.63.23-.91.17c-.27-.05-.51-.18-.7-.38-.13-.19-.02-.51,0-.71.05-.27-.02-.57.03-.84s.45-.47.51-.74.15-.53.21-.8c.06-.25.06-.5.12-.75s-.07-.54,0-.78.01-.52.08-.76.23-.46.3-.7.01-.52.08-.76.28-.45.34-.69.32-.44.38-.68c.06-.45-.22-.88-.66-1.02-.42-.06-.82.18-.97.58-.07.24.05.52-.02.76s-.24.44-.3.68-.23.44-.3.68-.22.45-.28.68.09.53.03.77-.37.41-.43.65.08.55.02.8-.34.45-.39.7c-.06.25.18.57.13.82-.07.23-.26.43-.31.67s.06.49.03.73-.28.48-.29.72c.03.29.44.42.56.63.12.2.29.36.49.47.21.14.35.38.6.46.24.12.48.22.73.3.26.05.5.26.75.3.28.04.58-.02.86,0s.58-.27.86-.26.56.04.84.04.56,0,.84-.01c.28,0,.56.04.85.02.27,0,.53-.02.8-.04s.54.07.81.05.56.15.82.12.53-.12.8-.15.53-.12.79-.17.48-.33.74-.38.51-.15.77-.22.53-.09.78-.16.6.12.86.04c.25-.08.47-.23.65-.41.13-.22.22-.46.26-.71.04-.21-.12-.47-.11-.7.01-.27-.19-.54-.19-.81s.4-.55.38-.82-.34-.52-.36-.79-.13-.53-.15-.8.12-.55.1-.82.1-.55.08-.82-.27-.51-.3-.78-.06-.53-.09-.8.24-.58.2-.85-.38-.49-.42-.75.22-.59.18-.86c-.2-.46-.67-.74-1.17-.69-.39.12-.49.73-.38,1.12,0,.03-.13.01-.13.02"/>
        <path class="cls-4" d="M24.78,40.61c.11.12.27.18.43.15.15-.04.29-.11.42-.22.51-.5.87-1.12,1.05-1.81.11-.3.14-.63.1-.95-.02-.27-.12-.53-.29-.75-.58-.59-1.48-.72-2.2-.31-.38.25-.68.62-.85,1.04-.17.43-.26.88-.26,1.33"/>
        <path class="cls-2" d="M24.39,41c.2.19.28.61.54.65.29,0,.58-.07.83-.22.2-.1.39-.23.56-.38.16-.15.15-.44.27-.63.11-.17.48-.19.57-.37s-.22-.54-.15-.73c.09-.2.58-.28.63-.5.06-.23.1-.46.12-.69.01-.32-.04-.64-.14-.94-.13-.29-.31-.55-.53-.77-.24-.19-.51-.33-.8-.42-.22-.12-.45-.21-.69-.27-.24-.04-.47.19-.71.22-.23.02-.45.07-.66.16-.22.1-.51.06-.7.22-.16.2-.29.42-.41.65-.14.21-.48.33-.57.57-.1.25-.17.5-.22.76-.05.25.1.53.11.79,0,.38.31.69.7.69.01,0,.02,0,.03,0,.36.01.66-.27.67-.63,0-.02,0-.04,0-.06,0-.08.3-.14.31-.22,0-.03-.09-.22-.11-.1.02-.18-.12-.39-.07-.56.02-.08.15-.11.19-.18-.04.11-.18-.13-.16-.16.03-.06.21-.04.25-.09.02-.03.22.07.24.04,0-.01-.21-.33-.26-.26s.04-.13.06-.15c.05-.05.31.12.35.08.06-.06-.1-.1-.12-.09.03-.02-.01-.13,0-.15.07-.04.25.1.32.08-.13.05.01-.25.05-.25s.1.13.13.12c-.02,0-.1.03-.01.03.07,0,.14-.15.21-.14.03,0,.06.01.09.02-.08,0-.04.05.02.07s.05.32.12.34c.04.01.35-.33.24-.38.06.03-.09.45-.03.48.03.02.18-.18.21-.16.09.05-.15.16-.07.19.01,0,.04.06-.04-.02-.06-.06.26-.21.27-.19.03.05-.14.21-.11.25.07.12.17-.17.2-.03.02.07-.15.18-.14.25.02.08.18-.02.18-.03,0,.04-.27.08-.27.11,0,.08.11.15.11.22,0,.09.25.02.25,0,0,.04-.02.11-.02.14-.02.08-.15.16-.17.24-.04.14-.15.27-.2.4-.02.05-.05.03-.07.08,0-.01-.02-.13-.05-.05s-.18.08-.22.15c-.05.14-.11.27-.17.41-.02.03,0,.08-.02.11-.06.09.16,0,.09.08-.05.06-.25-.03-.31.03-.03.03,0,.13-.03.16-.1.1.21.06.21.04,0,.01-.34.14-.24.08.08-.04.12.13.09.13.03,0,.09-.26,0-.28.06.02.12.18.03.16-.06-.01-.02.13,0,.15-.3-.29-.55-.32-.83-.02-.28.2-.34.6-.14.88.01.02.03.04.04.05.09.03.14-.12.14-.12"/>
        <path class="cls-2" d="M32.86,30.79c.25.04.52,0,.77.04s.55-.23.81-.19.48.2.74.24.46.35.71.39.57-.32.82-.29.48.27.73.31.51.04.76.08.47.28.73.32.5.1.75.13.52-.03.77,0c.22.03.48-.15.71-.12s.46-.02.69.02c.04,0,.24.4.26.38-.02.01-.12-.4-.18-.38-.1.03.03-.04-.08.1-.02.02.13.2.13.23-.01.33.08.66.06.99s-.05.67-.06,1.01c0,.07-.22.31-.23.33.07-.13.15.07.04.02-.12,0-.2.08-.32.1-.24.02-.51-.29-.74-.27s-.48,0-.72.02-.45.45-.69.47c-.25.01-.5,0-.75.01s-.52-.34-.77-.32-.5.1-.75.11-.5,0-.75,0-.49.22-.74.23-.51-.28-.76-.26c-.31.01-.31.49-.42.7-.12.23-.52.52-.41.75.19.29.5.47.85.49.25-.01.51-.05.76-.06s.51-.09.76-.1.5-.17.76-.18.51.03.77.02.5-.26.75-.27.51,0,.76-.02c.28-.02.57.15.85.13s.55-.14.83-.15.57.2.85.17c.22,0,.44-.05.65-.13.19-.08.29-.35.43-.5.11-.18.19-.38.23-.59.05-.21.06-.42.04-.63.01-.25.32-.49.34-.73s-.08-.51-.07-.76-.17-.51-.17-.75c.02-.22,0-.44-.1-.64-.11-.2-.34-.23-.53-.36s-.3-.34-.54-.36c-.25-.04-.46-.3-.71-.34s-.51-.02-.76-.06-.55.29-.8.25-.45-.37-.7-.41-.52.07-.77.03-.51.04-.75,0-.47-.2-.71-.24-.51.08-.76.03-.47-.22-.71-.26-.49-.1-.73-.14-.51.06-.76.02-.43-.38-.68-.43c-.4-.1-.75.3-.87.69-.11.4-.1.94.29,1.05.08.08.11.07.11.07"/>
        <path class="cls-2" d="M32.18,36.34c-.04.24-.15.44-.21.68s-.11.46-.18.69.06.52-.01.75-.06.48-.12.71c-.06.25-.45.43-.5.69s.3.6.24.86-.42.44-.48.69c-.08.47.16.94.59,1.15.5.05.98-.21,1.2-.66.06-.25.03-.54.09-.79s-.19-.58-.14-.84.24-.48.31-.73c.06-.23.39-.38.46-.61s-.25-.58-.18-.8.33-.4.38-.64.07-.47.11-.71c.1-.4-.06-.97-.45-1.09-.49-.06-.96.2-1.17.64"/>
        <path class="cls-2" d="M29.34,42.1c-.26.06-.51.22-.78.27s-.54.11-.81.15c-.05,0-.1-.38-.15-.38.08-.01.11.11.06.11-.11.01-.11,0-.22,0-.13.01-.23.27-.35.28-.27.03-.56-.11-.84-.1-.42.02-.74.37-.73.78,0,.4.31.72.71.73,0,0,.01,0,.02,0v.06c.29-.01.58-.05.87-.08s.6.04.89,0,.6-.02.88-.08.58-.13.87-.2c.4-.11.56-.69.45-1.09-.11-.37-.49-.58-.86-.48,0,0-.01,0-.02,0"/>
        <path class="cls-2" d="M44.08,34.76c.1.56.58.97,1.15.98.28.09.57.14.86.12.29.04.58.02.86-.05.24-.12.64-.02.82-.2s.23-.53.35-.76c.11-.24.18-.49.21-.76.04-.26.05-.52,0-.77-.03-.26.09-.34-.02-.59-.27.13-.21.1-.38.33s-.48.13-.48.43c.36.01.77-.16,1.13-.16.2.01.4.17.61.16.2-.02.4-.04.6-.08.26-.08.64-.05.81-.23.19-.23.32-.5.38-.78.06-.25-.33-.49-.41-.75-.05-.15.17-.42.09-.55-.15-.19-.45-.27-.64-.42s-.33-.48-.56-.57c-.25-.08-.5-.14-.76-.16-.31-.07-.62-.11-.93-.18s-.67.09-.98.04c-.29-.06-.58-.26-.87-.24-.29.07-.57.18-.83.33-.25.13-.49.3-.69.5-.24.23-.25.6-.02.84.03.03.06.05.09.08.29.28.52.23.81-.05.06-.06.11,0,.05.05.04-.02.18.08.22.06.08-.04.14.06.08.09.04-.02-.03-.29.02-.3.07-.02.21.26.28.24.04,0,.06-.04.05-.08,0-.03-.04-.05-.07-.05.04,0,.08-.02.13-.02.14,0,.27-.12.41-.12-.23,0-.02.05.04.06.08.01.06.14.13.15.22.04.44.08.66.13s.48-.09.7-.04.39.3.61.35c.13.03.25.1.38.14.02,0,.28-.16.19-.2,0,0,.02.39-.08.32.04.03.41-.17.44-.13-.04-.06-.09-.08-.04,0s-.06.28-.09.21c.02.08.12-.03.11-.08s-.19.04-.18.13c.01-.07-.1-.17-.12-.08,0-.04.11-.1.14-.13-.06.06-.02-.06.05-.12-.18.08.14.01-.04.08-.08.02-.02.17.09.15-.05,0-.11-.19-.16-.19-.21,0-.41.26-.61.26-.38,0-.77-.03-1.15-.04-.41,0-.59.28-.59.7,0,.04,0,.08.02.12.15.32-.19.7-.27,1.05-.03.13.05.24-.02.34-.06.1-.16.17-.27.21-.05.03-.05.24,0,.21-.08.02-.02-.12.04-.14-.09.02-.19.04-.28.06-.14,0-.28-.02-.42-.06-.03,0-.27-.08-.14-.01-.06-.04-.11-.07-.17-.12.13.08-.11.02-.14-.01.05.08.35-.06.31-.13s-.03,0,.02.08c-.21-.39-.66-.59-1.09-.46-.35.09-.56.44-.47.79,0,.02.01.05.02.07.02.04,0,0,0,0"/>
        <path class="cls-2" d="M23.15,29.89c-.25.07-.38.51-.61.6s-.63-.15-.85-.04-.43.32-.64.45-.4.34-.6.49-.47.25-.66.42-.12.59-.29.78-.58.19-.73.39-.12.54-.25.76c-.14.21-.26.43-.38.66-.09.24-.17.48-.24.72-.08.24-.2.47-.26.72s.04.51,0,.77c-.02.26-.02.52,0,.77-.03.26-.04.52-.04.78.03.26-.25.58-.19.84s.31.48.39.73c.1.24.22.48.35.71.12.23.26.46.41.67.17.2.36.38.56.55.18.2.26.46.47.63s.35.42.59.55.56.01.81.09c.25.08.45.29.72.32.39,0,.72-.31.72-.7,0,0,0-.02,0-.02-.01-.41-.3-.95-.71-.97-.25-.02-.49-.08-.71-.19-.25-.12-.68.04-.88-.15s-.13-.61-.28-.84-.39-.39-.5-.65.04-.57-.03-.84c-.07-.25-.13-.51-.17-.77-.04-.26-.07-.52-.07-.79,0-.29-.18-.57-.13-.82.05-.26.29-.47.37-.72.04-.26.09-.53.16-.78.09-.25.19-.5.31-.74.12-.24.26-.48.41-.71.16-.23.32-.44.51-.65.19-.18.61-.11.83-.27.19-.18.4-.35.61-.51.23-.13.4-.42.64-.52.25-.1.51-.17.78-.24.39-.14.8-.5.66-.89-.2-.4-.62-.64-1.06-.61"/>
        <path class="cls-2" d="M28.79,60.62c.23-.1.16.26.11.28s-.16-.11-.21-.1c-.1.01-.19-.11-.29-.08.12-.02.1-.08.02-.08-.05,0-.05-.09-.1-.08-.07,0-.1.37-.17.38-.13,0-.27,0-.39,0-.27,0-.54-.21-.82-.24-.14-.01-.3.14-.44.13-.11-.01-.07-.35-.18-.36-.06,0-.13,0-.19.01.11.01.15.3.07.29-.19-.05-.47-.26-.65-.17-.36.21-.22.73-.02,1.09.1.17.04.61.23.67.25.06.58-.3.83-.26s.49.36.74.36.5-.32.75-.35.56.29.81.24.37-.47.61-.55c.36-.21.72-.59.51-.94-.3-.35-.79-.47-1.21-.27-.04.01-.01.03,0,.03"/>
        <path class="cls-2" d="M24.63,61.26s.05.18.02.21c-.05.06.03-.17-.05-.15s-.06.23-.12.28c-.08.04-.1-.25-.05-.26-.04.01-.11.02-.16.04-.08.03-.09.35-.17.36-.06.01-.07-.02-.13,0-.02,0-.19.1-.08.09s-.07-.3-.09-.3c-.08,0-.07.08-.15.08-.2-.03-.39-.07-.58-.11-.2,0-.37.04-.56.02-.07,0-.16.19-.05.21-.07,0-.05-.17-.11-.18-.09-.01-.2.04-.29.02-.17-.03-.38.11-.55.05-.05-.02-.11-.04-.16-.06.07.03.14-.18.08-.21-.04-.02-.21.21-.25.19s-.25-.16-.11-.05c-.3-.28-.72-.58-1.02-.3-.29.4-.29.94,0,1.35.21.14.58.08.81.18.23.11.46.2.7.27.47.2.98.32,1.49.36.24.04.49.06.74.05.24-.02.44-.32.67-.38s.37-.29.58-.4.47-.1.66-.25c.27-.22.31-.61.09-.88-.02-.03-.04-.05-.07-.07-.27-.33-.75-.4-1.1-.16,0,0,.25-.04.24-.03-.04-.04-.24.05-.24.05"/>
      </g>
    </g>
  </g>
</svg>