<svg xmlns="http://www.w3.org/2000/svg" xmlns:xlink="http://www.w3.org/1999/xlink" width="740.597" height="769.418" viewBox="0 0 740.597 769.418"><defs><clipPath id="a"><path d="M578.4,34.954l-40.348.121a2.523,2.523,0,0,0-1.78.74L472.849,99.238a2.522,2.522,0,0,0-.74,1.805l.281,39.946a2.529,2.529,0,0,0,4.317,1.77L580.195,39.27a2.529,2.529,0,0,0-1.787-4.316H578.4" transform="translate(-472.109 -34.954)" fill="none"/></clipPath><clipPath id="b"><path d="M844.989,305.005,741.5,408.494a2.528,2.528,0,0,0,1.8,4.316l40.348-.12a2.526,2.526,0,0,0,1.78-.741l63.422-63.423a2.528,2.528,0,0,0,.741-1.806l-.282-39.945a2.527,2.527,0,0,0-2.547-2.516,2.476,2.476,0,0,0-1.77.745" transform="translate(-740.756 -304.26)" fill="none"/></clipPath><clipPath id="c"><rect width="740.597" height="769.418" fill="none"/></clipPath></defs><g transform="translate(391.12 29.459)"><g clip-path="url(#a)"><path d="M23.689,24.189a.5.5,0,0,1-.354-.146L-.354.354a.5.5,0,0,1,0-.707.5.5,0,0,1,.707,0L24.043,23.336a.5.5,0,0,1-.354.854Z" transform="translate(-17.975 82.999)" fill="#0d4b08"/><path d="M23.689,24.19a.5.5,0,0,1-.354-.146L-.354.354a.5.5,0,0,1,0-.707.5.5,0,0,1,.707,0l23.689,23.69a.5.5,0,0,1-.354.854Z" transform="translate(-15.52 80.543)" fill="#0d4b08"/><path d="M23.689,24.189a.5.5,0,0,1-.354-.146L-.354.354a.5.5,0,0,1,0-.707.5.5,0,0,1,.707,0L24.043,23.336a.5.5,0,0,1-.354.854Z" transform="translate(-13.064 78.088)" fill="#0d4b08"/><path d="M23.689,24.19a.5.5,0,0,1-.354-.146L-.354.354a.5.5,0,0,1,0-.707.5.5,0,0,1,.707,0l23.689,23.69a.5.5,0,0,1-.354.854Z" transform="translate(-10.608 75.632)" fill="#0d4b08"/><path d="M23.689,24.189a.5.5,0,0,1-.354-.146L-.354.354a.5.5,0,0,1,0-.707.5.5,0,0,1,.707,0L24.043,23.336a.5.5,0,0,1-.354.854Z" transform="translate(-8.153 73.177)" fill="#0d4b08"/><path d="M23.689,24.189a.5.5,0,0,1-.354-.146L-.354.354a.5.5,0,0,1,0-.707.5.5,0,0,1,.707,0L24.043,23.336a.5.5,0,0,1-.354.854Z" transform="translate(-5.697 70.721)" fill="#0d4b08"/><path d="M23.689,24.19a.5.5,0,0,1-.354-.146L-.354.354a.5.5,0,0,1,0-.707.5.5,0,0,1,.707,0l23.689,23.69a.5.5,0,0,1-.354.854Z" transform="translate(-3.242 68.265)" fill="#0d4b08"/><path d="M23.689,24.189a.5.5,0,0,1-.354-.146L-.354.354a.5.5,0,0,1,0-.707.5.5,0,0,1,.707,0L24.043,23.336a.5.5,0,0,1-.354.854Z" transform="translate(-0.786 65.81)" fill="#0d4b08"/><path d="M23.689,24.19a.5.5,0,0,1-.354-.146L-.354.354a.5.5,0,0,1,0-.707.5.5,0,0,1,.707,0l23.689,23.69a.5.5,0,0,1-.354.854Z" transform="translate(1.67 63.354)" fill="#0d4b08"/><path d="M23.689,24.189a.5.5,0,0,1-.354-.146L-.354.354a.5.5,0,0,1,0-.707.5.5,0,0,1,.707,0L24.043,23.336a.5.5,0,0,1-.354.854Z" transform="translate(4.125 60.898)" fill="#0d4b08"/><path d="M23.689,24.19a.5.5,0,0,1-.354-.146L-.354.354a.5.5,0,0,1,0-.707.5.5,0,0,1,.707,0l23.689,23.69a.5.5,0,0,1-.354.854Z" transform="translate(6.581 58.443)" fill="#0d4b08"/><path d="M23.689,24.189a.5.5,0,0,1-.354-.146L-.354.354a.5.5,0,0,1,0-.707.5.5,0,0,1,.707,0L24.043,23.336a.5.5,0,0,1-.354.854Z" transform="translate(9.037 55.987)" fill="#0d4b08"/><path d="M23.689,24.189a.5.5,0,0,1-.354-.146L-.354.354a.5.5,0,0,1,0-.707.5.5,0,0,1,.707,0L24.043,23.336a.5.5,0,0,1-.354.854Z" transform="translate(11.492 53.532)" fill="#0d4b08"/><path d="M23.689,24.19a.5.5,0,0,1-.354-.146L-.354.354a.5.5,0,0,1,0-.707.5.5,0,0,1,.707,0l23.689,23.69a.5.5,0,0,1-.354.854Z" transform="translate(13.948 51.076)" fill="#0d4b08"/><path d="M23.689,24.189a.5.5,0,0,1-.354-.146L-.354.354a.5.5,0,0,1,0-.707.5.5,0,0,1,.707,0L24.043,23.336a.5.5,0,0,1-.354.854Z" transform="translate(16.403 48.62)" fill="#0d4b08"/><path d="M23.69,24.19a.5.5,0,0,1-.354-.146L-.354.354a.5.5,0,0,1,0-.707.5.5,0,0,1,.707,0l23.69,23.69a.5.5,0,0,1-.354.854Z" transform="translate(18.859 46.165)" fill="#0d4b08"/><path d="M23.689,24.189a.5.5,0,0,1-.354-.146L-.354.354a.5.5,0,0,1,0-.707.5.5,0,0,1,.707,0L24.043,23.336a.5.5,0,0,1-.354.854Z" transform="translate(21.315 43.709)" fill="#0d4b08"/><path d="M23.689,24.19a.5.5,0,0,1-.354-.146L-.354.354a.5.5,0,0,1,0-.707.5.5,0,0,1,.707,0l23.689,23.69a.5.5,0,0,1-.354.854Z" transform="translate(23.77 41.253)" fill="#0d4b08"/><path d="M23.689,24.189a.5.5,0,0,1-.354-.146L-.354.354a.5.5,0,0,1,0-.707.5.5,0,0,1,.707,0L24.043,23.336a.5.5,0,0,1-.354.854Z" transform="translate(26.226 38.798)" fill="#0d4b08"/><path d="M23.689,24.189a.5.5,0,0,1-.354-.146L-.354.354a.5.5,0,0,1,0-.707.5.5,0,0,1,.707,0L24.043,23.336a.5.5,0,0,1-.354.854Z" transform="translate(28.682 36.342)" fill="#0d4b08"/><path d="M23.689,24.19a.5.5,0,0,1-.354-.146L-.354.354a.5.5,0,0,1,0-.707.5.5,0,0,1,.707,0l23.689,23.69a.5.5,0,0,1-.354.854Z" transform="translate(31.137 33.887)" fill="#0d4b08"/><path d="M23.689,24.189a.5.5,0,0,1-.354-.146L-.354.354a.5.5,0,0,1,0-.707.5.5,0,0,1,.707,0L24.043,23.336a.5.5,0,0,1-.354.854Z" transform="translate(33.593 31.431)" fill="#0d4b08"/><path d="M23.69,24.19a.5.5,0,0,1-.354-.146L-.354.354a.5.5,0,0,1,0-.707.5.5,0,0,1,.707,0l23.69,23.69a.5.5,0,0,1-.354.854Z" transform="translate(36.048 28.975)" fill="#0d4b08"/><path d="M23.689,24.189a.5.5,0,0,1-.354-.146L-.354.354a.5.5,0,0,1,0-.707.5.5,0,0,1,.707,0L24.043,23.336a.5.5,0,0,1-.354.854Z" transform="translate(38.504 26.52)" fill="#0d4b08"/><path d="M23.689,24.19a.5.5,0,0,1-.354-.146L-.354.354a.5.5,0,0,1,0-.707.5.5,0,0,1,.707,0l23.689,23.69a.5.5,0,0,1-.354.854Z" transform="translate(40.96 24.064)" fill="#0d4b08"/><path d="M23.69,24.189a.5.5,0,0,1-.354-.146L-.354.354a.5.5,0,0,1,0-.707.5.5,0,0,1,.707,0l23.69,23.689a.5.5,0,0,1-.354.854Z" transform="translate(43.415 21.609)" fill="#0d4b08"/><path d="M23.689,24.189a.5.5,0,0,1-.354-.146L-.354.354a.5.5,0,0,1,0-.707.5.5,0,0,1,.707,0L24.043,23.336a.5.5,0,0,1-.354.854Z" transform="translate(45.871 19.153)" fill="#0d4b08"/><path d="M23.69,24.19a.5.5,0,0,1-.354-.146L-.354.354a.5.5,0,0,1,0-.707.5.5,0,0,1,.707,0l23.69,23.69a.5.5,0,0,1-.354.854Z" transform="translate(48.326 16.697)" fill="#0d4b08"/><path d="M23.689,24.189a.5.5,0,0,1-.354-.146L-.354.354a.5.5,0,0,1,0-.707.5.5,0,0,1,.707,0L24.043,23.336a.5.5,0,0,1-.354.854Z" transform="translate(50.782 14.242)" fill="#0d4b08"/><path d="M23.69,24.19a.5.5,0,0,1-.354-.146L-.354.354a.5.5,0,0,1,0-.707.5.5,0,0,1,.707,0l23.69,23.69a.5.5,0,0,1-.354.854Z" transform="translate(53.238 11.786)" fill="#0d4b08"/><path d="M23.689,24.189a.5.5,0,0,1-.354-.146L-.354.354a.5.5,0,0,1,0-.707.5.5,0,0,1,.707,0L24.043,23.336a.5.5,0,0,1-.354.854Z" transform="translate(55.693 9.33)" fill="#0d4b08"/><path d="M23.689,24.19a.5.5,0,0,1-.354-.146L-.354.354a.5.5,0,0,1,0-.707.5.5,0,0,1,.707,0l23.689,23.69a.5.5,0,0,1-.354.854Z" transform="translate(58.149 6.875)" fill="#0d4b08"/><path d="M23.69,24.189a.5.5,0,0,1-.354-.146L-.354.354a.5.5,0,0,1,0-.707.5.5,0,0,1,.707,0l23.69,23.689a.5.5,0,0,1-.354.854Z" transform="translate(60.605 4.419)" fill="#0d4b08"/><path d="M23.689,24.19a.5.5,0,0,1-.354-.146L-.354.354a.5.5,0,0,1,0-.707.5.5,0,0,1,.707,0l23.689,23.69a.5.5,0,0,1-.354.854Z" transform="translate(63.06 1.964)" fill="#0d4b08"/><path d="M23.69,24.19a.5.5,0,0,1-.354-.146L-.354.354a.5.5,0,0,1,0-.707.5.5,0,0,1,.707,0l23.69,23.69a.5.5,0,0,1-.354.854Z" transform="translate(65.516 -0.492)" fill="#0d4b08"/><path d="M23.689,24.189a.5.5,0,0,1-.354-.146L-.354.354a.5.5,0,0,1,0-.707.5.5,0,0,1,.707,0L24.043,23.336a.5.5,0,0,1-.354.854Z" transform="translate(67.971 -2.948)" fill="#0d4b08"/><path d="M23.69,24.19a.5.5,0,0,1-.354-.146L-.354.354a.5.5,0,0,1,0-.707.5.5,0,0,1,.707,0l23.69,23.69a.5.5,0,0,1-.354.854Z" transform="translate(70.427 -5.403)" fill="#0d4b08"/><path d="M23.689,24.189a.5.5,0,0,1-.354-.146L-.354.354a.5.5,0,0,1,0-.707.5.5,0,0,1,.707,0L24.043,23.336a.5.5,0,0,1-.354.854Z" transform="translate(72.883 -7.859)" fill="#0d4b08"/><path d="M23.689,24.19a.5.5,0,0,1-.354-.146L-.354.354a.5.5,0,0,1,0-.707.5.5,0,0,1,.707,0l23.689,23.69a.5.5,0,0,1-.354.854Z" transform="translate(75.338 -10.315)" fill="#0d4b08"/><path d="M23.69,24.189a.5.5,0,0,1-.354-.146L-.354.354a.5.5,0,0,1,0-.707.5.5,0,0,1,.707,0l23.69,23.689a.5.5,0,0,1-.354.854Z" transform="translate(77.794 -12.77)" fill="#0d4b08"/><path d="M23.689,24.19a.5.5,0,0,1-.354-.146L-.354.354a.5.5,0,0,1,0-.707.5.5,0,0,1,.707,0l23.689,23.69a.5.5,0,0,1-.354.854Z" transform="translate(80.249 -15.226)" fill="#0d4b08"/><path d="M23.69,24.19a.5.5,0,0,1-.354-.146L-.354.354a.5.5,0,0,1,0-.707.5.5,0,0,1,.707,0l23.69,23.69a.5.5,0,0,1-.354.854Z" transform="translate(82.705 -17.681)" fill="#0d4b08"/></g></g><g transform="translate(613.368 252.094)"><g clip-path="url(#b)"><path d="M23.689,24.189a.5.5,0,0,1-.354-.146L-.354.354a.5.5,0,0,1,0-.707.5.5,0,0,1,.707,0L24.043,23.336a.5.5,0,0,1-.354.854Z" transform="translate(103.117 1.862)" fill="#0d4b08"/><path d="M23.69,24.19a.5.5,0,0,1-.354-.146L-.354.354a.5.5,0,0,1,0-.707.5.5,0,0,1,.707,0l23.69,23.69a.5.5,0,0,1-.354.854Z" transform="translate(100.661 4.317)" fill="#0d4b08"/><path d="M23.689,24.189a.5.5,0,0,1-.354-.146L-.354.354a.5.5,0,0,1,0-.707.5.5,0,0,1,.707,0L24.043,23.336a.5.5,0,0,1-.354.854Z" transform="translate(98.206 6.774)" fill="#0d4b08"/><path d="M23.69,24.19a.5.5,0,0,1-.354-.146L-.354.354a.5.5,0,0,1,0-.707.5.5,0,0,1,.707,0l23.69,23.69a.5.5,0,0,1-.354.854Z" transform="translate(95.75 9.228)" fill="#0d4b08"/><path d="M23.69,24.189a.5.5,0,0,1-.354-.146L-.354.354a.5.5,0,0,1,0-.707.5.5,0,0,1,.707,0l23.69,23.689a.5.5,0,0,1-.354.854Z" transform="translate(93.294 11.685)" fill="#0d4b08"/><path d="M23.689,24.189a.5.5,0,0,1-.354-.146L-.354.354a.5.5,0,0,1,0-.707.5.5,0,0,1,.707,0L24.043,23.336a.5.5,0,0,1-.354.854Z" transform="translate(90.839 14.14)" fill="#0d4b08"/><path d="M23.69,24.19a.5.5,0,0,1-.354-.146L-.354.354a.5.5,0,0,1,0-.707.5.5,0,0,1,.707,0l23.69,23.69a.5.5,0,0,1-.354.854Z" transform="translate(88.383 16.595)" fill="#0d4b08"/><path d="M23.689,24.189a.5.5,0,0,1-.354-.146L-.354.354a.5.5,0,0,1,0-.707.5.5,0,0,1,.707,0L24.043,23.336a.5.5,0,0,1-.354.854Z" transform="translate(85.928 19.052)" fill="#0d4b08"/><path d="M23.69,24.19a.5.5,0,0,1-.354-.146L-.354.354a.5.5,0,0,1,0-.707.5.5,0,0,1,.707,0l23.69,23.69a.5.5,0,0,1-.354.854Z" transform="translate(83.472 21.507)" fill="#0d4b08"/><path d="M23.689,24.189a.5.5,0,0,1-.354-.146L-.354.354a.5.5,0,0,1,0-.707.5.5,0,0,1,.707,0L24.043,23.336a.5.5,0,0,1-.354.854Z" transform="translate(81.017 23.963)" fill="#0d4b08"/><path d="M23.69,24.19a.5.5,0,0,1-.354-.146L-.354.354a.5.5,0,0,1,0-.707.5.5,0,0,1,.707,0l23.69,23.69a.5.5,0,0,1-.354.854Z" transform="translate(78.56 26.418)" fill="#0d4b08"/><path d="M23.69,24.189a.5.5,0,0,1-.354-.146L-.354.354a.5.5,0,0,1,0-.707.5.5,0,0,1,.707,0l23.69,23.689a.5.5,0,0,1-.354.854Z" transform="translate(76.105 28.874)" fill="#0d4b08"/><path d="M23.689,24.189a.5.5,0,0,1-.354-.146L-.354.354a.5.5,0,0,1,0-.707.5.5,0,0,1,.707,0L24.043,23.336a.5.5,0,0,1-.354.854Z" transform="translate(73.65 31.33)" fill="#0d4b08"/><path d="M23.69,24.19a.5.5,0,0,1-.354-.146L-.354.354a.5.5,0,0,1,0-.707.5.5,0,0,1,.707,0l23.69,23.69a.5.5,0,0,1-.354.854Z" transform="translate(71.193 33.785)" fill="#0d4b08"/><path d="M23.689,24.189a.5.5,0,0,1-.354-.146L-.354.354a.5.5,0,0,1,0-.707.5.5,0,0,1,.707,0L24.043,23.336a.5.5,0,0,1-.354.854Z" transform="translate(68.739 36.241)" fill="#0d4b08"/><path d="M23.69,24.19a.5.5,0,0,1-.354-.146L-.354.354a.5.5,0,0,1,0-.707.5.5,0,0,1,.707,0l23.69,23.69a.5.5,0,0,1-.354.854Z" transform="translate(66.282 38.696)" fill="#0d4b08"/><path d="M23.689,24.189a.5.5,0,0,1-.354-.146L-.354.354a.5.5,0,0,1,0-.707.5.5,0,0,1,.707,0L24.043,23.336a.5.5,0,0,1-.354.854Z" transform="translate(63.827 41.152)" fill="#0d4b08"/><path d="M23.69,24.19a.5.5,0,0,1-.354-.146L-.354.354a.5.5,0,0,1,0-.707.5.5,0,0,1,.707,0l23.69,23.69a.5.5,0,0,1-.354.854Z" transform="translate(61.371 43.607)" fill="#0d4b08"/><path d="M23.69,24.189a.5.5,0,0,1-.354-.146L-.354.354a.5.5,0,0,1,0-.707.5.5,0,0,1,.707,0l23.69,23.689a.5.5,0,0,1-.354.854Z" transform="translate(58.915 46.064)" fill="#0d4b08"/><path d="M23.689,24.189a.5.5,0,0,1-.354-.146L-.354.354a.5.5,0,0,1,0-.707.5.5,0,0,1,.707,0L24.043,23.336a.5.5,0,0,1-.354.854Z" transform="translate(56.461 48.519)" fill="#0d4b08"/><path d="M23.69,24.19a.5.5,0,0,1-.354-.146L-.354.354a.5.5,0,0,1,0-.707.5.5,0,0,1,.707,0l23.69,23.69a.5.5,0,0,1-.354.854Z" transform="translate(54.004 50.974)" fill="#0d4b08"/><path d="M23.689,24.189a.5.5,0,0,1-.354-.146L-.354.354a.5.5,0,0,1,0-.707.5.5,0,0,1,.707,0L24.043,23.336a.5.5,0,0,1-.354.854Z" transform="translate(51.549 53.43)" fill="#0d4b08"/><path d="M23.69,24.19a.5.5,0,0,1-.354-.146L-.354.354a.5.5,0,0,1,0-.707.5.5,0,0,1,.707,0l23.69,23.69a.5.5,0,0,1-.354.854Z" transform="translate(49.093 55.885)" fill="#0d4b08"/><path d="M23.689,24.189a.5.5,0,0,1-.354-.146L-.354.354a.5.5,0,0,1,0-.707.5.5,0,0,1,.707,0L24.043,23.336a.5.5,0,0,1-.354.854Z" transform="translate(46.638 58.342)" fill="#0d4b08"/><path d="M23.69,24.19a.5.5,0,0,1-.354-.146L-.354.354a.5.5,0,0,1,0-.707.5.5,0,0,1,.707,0l23.69,23.69a.5.5,0,0,1-.354.854Z" transform="translate(44.182 60.796)" fill="#0d4b08"/><path d="M23.69,24.189a.5.5,0,0,1-.354-.146L-.354.354a.5.5,0,0,1,0-.707.5.5,0,0,1,.707,0l23.69,23.689a.5.5,0,0,1-.354.854Z" transform="translate(41.726 63.253)" fill="#0d4b08"/><path d="M23.689,24.189a.5.5,0,0,1-.354-.146L-.354.354a.5.5,0,0,1,0-.707.5.5,0,0,1,.707,0L24.043,23.336a.5.5,0,0,1-.354.854Z" transform="translate(39.271 65.709)" fill="#0d4b08"/><path d="M23.69,24.19a.5.5,0,0,1-.354-.146L-.354.354a.5.5,0,0,1,0-.707.5.5,0,0,1,.707,0l23.69,23.69a.5.5,0,0,1-.354.854Z" transform="translate(36.815 68.163)" fill="#0d4b08"/><path d="M23.689,24.189a.5.5,0,0,1-.354-.146L-.354.354a.5.5,0,0,1,0-.707.5.5,0,0,1,.707,0L24.043,23.336a.5.5,0,0,1-.354.854Z" transform="translate(34.36 70.62)" fill="#0d4b08"/><path d="M23.69,24.19a.5.5,0,0,1-.354-.146L-.354.354a.5.5,0,0,1,0-.707.5.5,0,0,1,.707,0l23.69,23.69a.5.5,0,0,1-.354.854Z" transform="translate(31.904 73.075)" fill="#0d4b08"/><path d="M23.689,24.189a.5.5,0,0,1-.354-.146L-.354.354a.5.5,0,0,1,0-.707.5.5,0,0,1,.707,0L24.043,23.336a.5.5,0,0,1-.354.854Z" transform="translate(29.449 75.531)" fill="#0d4b08"/><path d="M23.69,24.189a.5.5,0,0,1-.354-.146L-.354.354a.5.5,0,0,1,0-.707.5.5,0,0,1,.707,0l23.69,23.689a.5.5,0,0,1-.354.854Z" transform="translate(26.992 77.987)" fill="#0d4b08"/><path d="M23.689,24.189a.5.5,0,0,1-.354-.146L-.354.354a.5.5,0,0,1,0-.707.5.5,0,0,1,.707,0L24.043,23.336a.5.5,0,0,1-.354.854Z" transform="translate(24.538 80.442)" fill="#0d4b08"/><path d="M23.689,24.189a.5.5,0,0,1-.354-.146L-.354.354a.5.5,0,0,1,0-.707.5.5,0,0,1,.707,0L24.043,23.336a.5.5,0,0,1-.354.854Z" transform="translate(22.082 82.898)" fill="#0d4b08"/><path d="M23.69,24.19a.5.5,0,0,1-.354-.146L-.354.354a.5.5,0,0,1,0-.707.5.5,0,0,1,.707,0l23.69,23.69a.5.5,0,0,1-.354.854Z" transform="translate(19.625 85.353)" fill="#0d4b08"/><path d="M23.689,24.189a.5.5,0,0,1-.354-.146L-.354.354a.5.5,0,0,1,0-.707.5.5,0,0,1,.707,0L24.043,23.336a.5.5,0,0,1-.354.854Z" transform="translate(17.171 87.809)" fill="#0d4b08"/><path d="M23.69,24.19a.5.5,0,0,1-.354-.146L-.354.354a.5.5,0,0,1,0-.707.5.5,0,0,1,.707,0l23.69,23.69a.5.5,0,0,1-.354.854Z" transform="translate(14.714 90.264)" fill="#0d4b08"/><path d="M23.689,24.189a.5.5,0,0,1-.354-.146L-.354.354a.5.5,0,0,1,0-.707.5.5,0,0,1,.707,0L24.043,23.336a.5.5,0,0,1-.354.854Z" transform="translate(12.259 92.72)" fill="#0d4b08"/><path d="M23.69,24.189a.5.5,0,0,1-.354-.146L-.354.354a.5.5,0,0,1,0-.707.5.5,0,0,1,.707,0l23.69,23.689a.5.5,0,0,1-.354.854Z" transform="translate(9.803 95.176)" fill="#0d4b08"/><path d="M23.689,24.189a.5.5,0,0,1-.354-.146L-.354.354a.5.5,0,0,1,0-.707.5.5,0,0,1,.707,0L24.043,23.336a.5.5,0,0,1-.354.854Z" transform="translate(7.348 97.632)" fill="#0d4b08"/><path d="M23.689,24.189a.5.5,0,0,1-.354-.146L-.354.354a.5.5,0,0,1,0-.707.5.5,0,0,1,.707,0L24.043,23.336a.5.5,0,0,1-.354.854Z" transform="translate(4.893 100.087)" fill="#0d4b08"/><path d="M23.69,24.189a.5.5,0,0,1-.354-.146L-.354.354a.5.5,0,0,1,0-.707.5.5,0,0,1,.707,0l23.69,23.689a.5.5,0,0,1-.354.854Z" transform="translate(2.436 102.543)" fill="#0d4b08"/></g></g><path d="M0,28.523a.5.5,0,0,1-.354-.146.5.5,0,0,1,0-.707L27.669-.354a.5.5,0,0,1,.707,0,.5.5,0,0,1,0,.707L.354,28.376A.5.5,0,0,1,0,28.523Z" transform="translate(530.837 2.777)" fill="#0d4b08"/><path d="M0,28.522a.5.5,0,0,1-.354-.146.5.5,0,0,1,0-.707L27.669-.354a.5.5,0,0,1,.707,0,.5.5,0,0,1,0,.707L.354,28.376A.5.5,0,0,1,0,28.522Z" transform="translate(533.366 5.346)" fill="#0d4b08"/><path d="M0,28.523a.5.5,0,0,1-.354-.146.5.5,0,0,1,0-.707L27.669-.354a.5.5,0,0,1,.707,0,.5.5,0,0,1,0,.707L.354,28.376A.5.5,0,0,1,0,28.523Z" transform="translate(535.898 7.916)" fill="#0d4b08"/><path d="M0,28.523a.5.5,0,0,1-.354-.146.5.5,0,0,1,0-.707L27.669-.354a.5.5,0,0,1,.707,0,.5.5,0,0,1,0,.707L.354,28.376A.5.5,0,0,1,0,28.523Z" transform="translate(538.427 10.485)" fill="#0d4b08"/><path d="M0,28.523a.5.5,0,0,1-.354-.146.5.5,0,0,1,0-.707L27.669-.354a.5.5,0,0,1,.707,0,.5.5,0,0,1,0,.707L.354,28.376A.5.5,0,0,1,0,28.523Z" transform="translate(540.958 13.054)" fill="#0d4b08"/><path d="M0,28.523a.5.5,0,0,1-.354-.146.5.5,0,0,1,0-.707L27.669-.354a.5.5,0,0,1,.707,0,.5.5,0,0,1,0,.707L.354,28.376A.5.5,0,0,1,0,28.523Z" transform="translate(543.489 15.623)" fill="#0d4b08"/><path d="M0,28.522a.5.5,0,0,1-.354-.146.5.5,0,0,1,0-.707L27.669-.354a.5.5,0,0,1,.707,0,.5.5,0,0,1,0,.707L.354,28.376A.5.5,0,0,1,0,28.522Z" transform="translate(546.018 18.192)" fill="#0d4b08"/><path d="M0,28.523a.5.5,0,0,1-.354-.146.5.5,0,0,1,0-.707L27.669-.354a.5.5,0,0,1,.707,0,.5.5,0,0,1,0,.707L.354,28.376A.5.5,0,0,1,0,28.523Z" transform="translate(548.549 20.761)" fill="#0d4b08"/><path d="M0,28.523a.5.5,0,0,1-.354-.146.5.5,0,0,1,0-.707L27.669-.354a.5.5,0,0,1,.707,0,.5.5,0,0,1,0,.707L.354,28.376A.5.5,0,0,1,0,28.523Z" transform="translate(551.079 23.33)" fill="#0d4b08"/><path d="M0,28.522a.5.5,0,0,1-.354-.146.5.5,0,0,1,0-.707L27.669-.354a.5.5,0,0,1,.707,0,.5.5,0,0,1,0,.707L.354,28.376A.5.5,0,0,1,0,28.522Z" transform="translate(553.609 25.899)" fill="#0d4b08"/><path d="M0,28.523a.5.5,0,0,1-.354-.146.5.5,0,0,1,0-.707L27.669-.354a.5.5,0,0,1,.707,0,.5.5,0,0,1,0,.707L.354,28.376A.5.5,0,0,1,0,28.523Z" transform="translate(556.139 28.469)" fill="#0d4b08"/><path d="M0,28.523a.5.5,0,0,1-.354-.146.5.5,0,0,1,0-.707L27.669-.354a.5.5,0,0,1,.707,0,.5.5,0,0,1,0,.707L.354,28.376A.5.5,0,0,1,0,28.523Z" transform="translate(558.67 31.038)" fill="#0d4b08"/><path d="M0,28.522a.5.5,0,0,1-.354-.146.5.5,0,0,1,0-.707L27.669-.354a.5.5,0,0,1,.707,0,.5.5,0,0,1,0,.707L.354,28.376A.5.5,0,0,1,0,28.522Z" transform="translate(561.2 33.607)" fill="#0d4b08"/><path d="M0,28.523a.5.5,0,0,1-.354-.146.5.5,0,0,1,0-.707L27.669-.354a.5.5,0,0,1,.707,0,.5.5,0,0,1,0,.707L.354,28.376A.5.5,0,0,1,0,28.523Z" transform="translate(563.731 36.176)" fill="#0d4b08"/><path d="M0,28.523a.5.5,0,0,1-.354-.146.5.5,0,0,1,0-.707L27.669-.354a.5.5,0,0,1,.707,0,.5.5,0,0,1,0,.707L.354,28.376A.5.5,0,0,1,0,28.523Z" transform="translate(566.26 38.746)" fill="#0d4b08"/><path d="M0,28.523a.5.5,0,0,1-.354-.146.5.5,0,0,1,0-.707L27.669-.354a.5.5,0,0,1,.707,0,.5.5,0,0,1,0,.707L.354,28.376A.5.5,0,0,1,0,28.523Z" transform="translate(568.791 41.315)" fill="#0d4b08"/><path d="M0,28.523a.5.5,0,0,1-.354-.146.5.5,0,0,1,0-.707L27.669-.354a.5.5,0,0,1,.707,0,.5.5,0,0,1,0,.707L.354,28.376A.5.5,0,0,1,0,28.523Z" transform="translate(571.322 43.884)" fill="#0d4b08"/><path d="M0,28.522a.5.5,0,0,1-.354-.146.5.5,0,0,1,0-.707L27.669-.354a.5.5,0,0,1,.707,0,.5.5,0,0,1,0,.707L.354,28.376A.5.5,0,0,1,0,28.522Z" transform="translate(573.851 46.453)" fill="#0d4b08"/><path d="M0,28.523a.5.5,0,0,1-.354-.146.5.5,0,0,1,0-.707L27.669-.354a.5.5,0,0,1,.707,0,.5.5,0,0,1,0,.707L.354,28.376A.5.5,0,0,1,0,28.523Z" transform="translate(576.381 49.022)" fill="#0d4b08"/><path d="M0,28.523a.5.5,0,0,1-.354-.146.5.5,0,0,1,0-.707L27.669-.354a.5.5,0,0,1,.707,0,.5.5,0,0,1,0,.707L.354,28.376A.5.5,0,0,1,0,28.523Z" transform="translate(578.913 51.591)" fill="#0d4b08"/><path d="M0,28.522a.5.5,0,0,1-.354-.146.5.5,0,0,1,0-.707L27.669-.354a.5.5,0,0,1,.707,0,.5.5,0,0,1,0,.707L.354,28.376A.5.5,0,0,1,0,28.522Z" transform="translate(581.442 54.16)" fill="#0d4b08"/><path d="M0,28.523a.5.5,0,0,1-.354-.146.5.5,0,0,1,0-.707L27.669-.354a.5.5,0,0,1,.707,0,.5.5,0,0,1,0,.707L.354,28.376A.5.5,0,0,1,0,28.523Z" transform="translate(583.973 56.729)" fill="#0d4b08"/><path d="M0,28.523a.5.5,0,0,1-.354-.146.5.5,0,0,1,0-.707L27.669-.354a.5.5,0,0,1,.707,0,.5.5,0,0,1,0,.707L.354,28.376A.5.5,0,0,1,0,28.523Z" transform="translate(586.503 59.299)" fill="#0d4b08"/><path d="M0,28.522a.5.5,0,0,1-.354-.146.5.5,0,0,1,0-.707L27.669-.354a.5.5,0,0,1,.707,0,.5.5,0,0,1,0,.707L.354,28.376A.5.5,0,0,1,0,28.522Z" transform="translate(589.033 61.868)" fill="#0d4b08"/><path d="M0,28.523a.5.5,0,0,1-.354-.146.5.5,0,0,1,0-.707L27.669-.354a.5.5,0,0,1,.707,0,.5.5,0,0,1,0,.707L.354,28.376A.5.5,0,0,1,0,28.523Z" transform="translate(591.565 64.437)" fill="#0d4b08"/><path d="M0,28.522a.5.5,0,0,1-.354-.146.5.5,0,0,1,0-.707L27.669-.354a.5.5,0,0,1,.707,0,.5.5,0,0,1,0,.707L.354,28.376A.5.5,0,0,1,0,28.522Z" transform="translate(592.275 67.006)" fill="#0d4b08"/><path d="M0,28.523a.5.5,0,0,1-.354-.146.5.5,0,0,1,0-.707L27.669-.354a.5.5,0,0,1,.707,0,.5.5,0,0,1,0,.707L.354,28.376A.5.5,0,0,1,0,28.523Z" transform="translate(594.845 69.575)" fill="#0d4b08"/><path d="M0,28.523a.5.5,0,0,1-.354-.146.5.5,0,0,1,0-.707L27.669-.354a.5.5,0,0,1,.707,0,.5.5,0,0,1,0,.707L.354,28.376A.5.5,0,0,1,0,28.523Z" transform="translate(597.415 72.145)" fill="#0d4b08"/><path d="M0,28.522a.5.5,0,0,1-.354-.146.5.5,0,0,1,0-.707L27.669-.354a.5.5,0,0,1,.707,0,.5.5,0,0,1,0,.707L.354,28.376A.5.5,0,0,1,0,28.522Z" transform="translate(599.983 74.714)" fill="#0d4b08"/><path d="M0,28.523a.5.5,0,0,1-.354-.146.5.5,0,0,1,0-.707L27.669-.354a.5.5,0,0,1,.707,0,.5.5,0,0,1,0,.707L.354,28.376A.5.5,0,0,1,0,28.523Z" transform="translate(602.552 77.283)" fill="#0d4b08"/><path d="M0,28.523a.5.5,0,0,1-.354-.146.5.5,0,0,1,0-.707L27.669-.354a.5.5,0,0,1,.707,0,.5.5,0,0,1,0,.707L.354,28.376A.5.5,0,0,1,0,28.523Z" transform="translate(605.122 79.852)" fill="#0d4b08"/><path d="M0,28.522a.5.5,0,0,1-.354-.146.5.5,0,0,1,0-.707L27.669-.354a.5.5,0,0,1,.707,0,.5.5,0,0,1,0,.707L.354,28.376A.5.5,0,0,1,0,28.522Z" transform="translate(607.691 82.421)" fill="#0d4b08"/><path d="M0,28.523a.5.5,0,0,1-.354-.146.5.5,0,0,1,0-.707L27.669-.354a.5.5,0,0,1,.707,0,.5.5,0,0,1,0,.707L.354,28.376A.5.5,0,0,1,0,28.523Z" transform="translate(610.26 84.99)" fill="#0d4b08"/><path d="M0,28.523a.5.5,0,0,1-.354-.146.5.5,0,0,1,0-.707L27.669-.354a.5.5,0,0,1,.707,0,.5.5,0,0,1,0,.707L.354,28.376A.5.5,0,0,1,0,28.523Z" transform="translate(612.829 87.559)" fill="#0d4b08"/><path d="M0,28.523a.5.5,0,0,1-.354-.146.5.5,0,0,1,0-.707L27.669-.354a.5.5,0,0,1,.707,0,.5.5,0,0,1,0,.707L.354,28.376A.5.5,0,0,1,0,28.523Z" transform="translate(615.398 90.128)" fill="#0d4b08"/><path d="M0,28.523a.5.5,0,0,1-.354-.146.5.5,0,0,1,0-.707L27.669-.354a.5.5,0,0,1,.707,0,.5.5,0,0,1,0,.707L.354,28.376A.5.5,0,0,1,0,28.523Z" transform="translate(617.968 92.698)" fill="#0d4b08"/><path d="M0,28.522a.5.5,0,0,1-.354-.146.5.5,0,0,1,0-.707L27.669-.354a.5.5,0,0,1,.707,0,.5.5,0,0,1,0,.707L.354,28.376A.5.5,0,0,1,0,28.522Z" transform="translate(620.536 95.267)" fill="#0d4b08"/><path d="M0,28.523a.5.5,0,0,1-.354-.146.5.5,0,0,1,0-.707L27.669-.354a.5.5,0,0,1,.707,0,.5.5,0,0,1,0,.707L.354,28.376A.5.5,0,0,1,0,28.523Z" transform="translate(623.106 97.836)" fill="#0d4b08"/><path d="M0,28.523a.5.5,0,0,1-.354-.146.5.5,0,0,1,0-.707L27.669-.354a.5.5,0,0,1,.707,0,.5.5,0,0,1,0,.707L.354,28.376A.5.5,0,0,1,0,28.523Z" transform="translate(625.675 100.405)" fill="#0d4b08"/><path d="M0,28.522a.5.5,0,0,1-.354-.146.5.5,0,0,1,0-.707L27.669-.354a.5.5,0,0,1,.707,0,.5.5,0,0,1,0,.707L.354,28.376A.5.5,0,0,1,0,28.522Z" transform="translate(628.244 102.975)" fill="#0d4b08"/><path d="M0,28.523a.5.5,0,0,1-.354-.146.5.5,0,0,1,0-.707L27.669-.354a.5.5,0,0,1,.707,0,.5.5,0,0,1,0,.707L.354,28.376A.5.5,0,0,1,0,28.523Z" transform="translate(630.813 105.544)" fill="#0d4b08"/><path d="M0,28.523a.5.5,0,0,1-.354-.146.5.5,0,0,1,0-.707L27.669-.354a.5.5,0,0,1,.707,0,.5.5,0,0,1,0,.707L.354,28.376A.5.5,0,0,1,0,28.523Z" transform="translate(633.382 108.113)" fill="#0d4b08"/><path d="M0,28.522a.5.5,0,0,1-.354-.146.5.5,0,0,1,0-.707L27.669-.354a.5.5,0,0,1,.707,0,.5.5,0,0,1,0,.707L.354,28.376A.5.5,0,0,1,0,28.522Z" transform="translate(635.952 110.682)" fill="#0d4b08"/><path d="M0,28.523a.5.5,0,0,1-.354-.146.5.5,0,0,1,0-.707L27.669-.354a.5.5,0,0,1,.707,0,.5.5,0,0,1,0,.707L.354,28.376A.5.5,0,0,1,0,28.523Z" transform="translate(638.521 113.251)" fill="#0d4b08"/><path d="M0,28.523a.5.5,0,0,1-.354-.146.5.5,0,0,1,0-.707L27.669-.354a.5.5,0,0,1,.707,0,.5.5,0,0,1,0,.707L.354,28.376A.5.5,0,0,1,0,28.523Z" transform="translate(641.09 115.82)" fill="#0d4b08"/><path d="M0,28.523a.5.5,0,0,1-.354-.146.5.5,0,0,1,0-.707L27.669-.354a.5.5,0,0,1,.707,0,.5.5,0,0,1,0,.707L.354,28.376A.5.5,0,0,1,0,28.523Z" transform="translate(643.659 118.389)" fill="#0d4b08"/><path d="M0,28.523a.5.5,0,0,1-.354-.146.5.5,0,0,1,0-.707L27.669-.354a.5.5,0,0,1,.707,0,.5.5,0,0,1,0,.707L.354,28.376A.5.5,0,0,1,0,28.523Z" transform="translate(646.229 120.958)" fill="#0d4b08"/><path d="M0,28.522a.5.5,0,0,1-.354-.146.5.5,0,0,1,0-.707L27.669-.354a.5.5,0,0,1,.707,0,.5.5,0,0,1,0,.707L.354,28.376A.5.5,0,0,1,0,28.522Z" transform="translate(648.797 123.528)" fill="#0d4b08"/><path d="M0,28.523a.5.5,0,0,1-.354-.146.5.5,0,0,1,0-.707L27.669-.354a.5.5,0,0,1,.707,0,.5.5,0,0,1,0,.707L.354,28.376A.5.5,0,0,1,0,28.523Z" transform="translate(651.366 126.097)" fill="#0d4b08"/><path d="M0,28.523a.5.5,0,0,1-.354-.146.5.5,0,0,1,0-.707L27.669-.354a.5.5,0,0,1,.707,0,.5.5,0,0,1,0,.707L.354,28.376A.5.5,0,0,1,0,28.523Z" transform="translate(653.936 126.724)" fill="#0d4b08"/><path d="M0,28.522a.5.5,0,0,1-.354-.146.5.5,0,0,1,0-.707L27.669-.354a.5.5,0,0,1,.707,0,.5.5,0,0,1,0,.707L.354,28.376A.5.5,0,0,1,0,28.522Z" transform="translate(656.505 129.254)" fill="#0d4b08"/><path d="M0,28.523a.5.5,0,0,1-.354-.146.5.5,0,0,1,0-.707L27.669-.354a.5.5,0,0,1,.707,0,.5.5,0,0,1,0,.707L.354,28.376A.5.5,0,0,1,0,28.523Z" transform="translate(659.074 131.784)" fill="#0d4b08"/><path d="M0,28.523a.5.5,0,0,1-.354-.146.5.5,0,0,1,0-.707L27.669-.354a.5.5,0,0,1,.707,0,.5.5,0,0,1,0,.707L.354,28.376A.5.5,0,0,1,0,28.523Z" transform="translate(661.643 134.315)" fill="#0d4b08"/><path d="M0,28.522a.5.5,0,0,1-.354-.146.5.5,0,0,1,0-.707L27.669-.354a.5.5,0,0,1,.707,0,.5.5,0,0,1,0,.707L.354,28.376A.5.5,0,0,1,0,28.522Z" transform="translate(664.212 136.845)" fill="#0d4b08"/><path d="M0,28.523a.5.5,0,0,1-.354-.146.5.5,0,0,1,0-.707L27.669-.354a.5.5,0,0,1,.707,0,.5.5,0,0,1,0,.707L.354,28.376A.5.5,0,0,1,0,28.523Z" transform="translate(666.782 139.376)" fill="#0d4b08"/><path d="M0,28.522a.5.5,0,0,1-.354-.146.5.5,0,0,1,0-.707L27.669-.354a.5.5,0,0,1,.707,0,.5.5,0,0,1,0,.707L.354,28.376A.5.5,0,0,1,0,28.522Z" transform="translate(669.351 141.906)" fill="#0d4b08"/><path d="M0,28.523a.5.5,0,0,1-.354-.146.5.5,0,0,1,0-.707L27.669-.354a.5.5,0,0,1,.707,0,.5.5,0,0,1,0,.707L.354,28.376A.5.5,0,0,1,0,28.523Z" transform="translate(671.919 144.436)" fill="#0d4b08"/><path d="M0,28.523a.5.5,0,0,1-.354-.146.5.5,0,0,1,0-.707L27.669-.354a.5.5,0,0,1,.707,0,.5.5,0,0,1,0,.707L.354,28.376A.5.5,0,0,1,0,28.523Z" transform="translate(674.49 146.967)" fill="#0d4b08"/><path d="M0,28.522a.5.5,0,0,1-.354-.146.5.5,0,0,1,0-.707L27.669-.354a.5.5,0,0,1,.707,0,.5.5,0,0,1,0,.707L.354,28.376A.5.5,0,0,1,0,28.522Z" transform="translate(677.058 149.497)" fill="#0d4b08"/><path d="M0,28.523a.5.5,0,0,1-.354-.146.5.5,0,0,1,0-.707L27.669-.354a.5.5,0,0,1,.707,0,.5.5,0,0,1,0,.707L.354,28.376A.5.5,0,0,1,0,28.523Z" transform="translate(679.627 152.027)" fill="#0d4b08"/><path d="M0,28.523a.5.5,0,0,1-.354-.146.5.5,0,0,1,0-.707L27.669-.354a.5.5,0,0,1,.707,0,.5.5,0,0,1,0,.707L.354,28.376A.5.5,0,0,1,0,28.523Z" transform="translate(682.197 154.558)" fill="#0d4b08"/><path d="M0,28.522a.5.5,0,0,1-.354-.146.5.5,0,0,1,0-.707L27.669-.354a.5.5,0,0,1,.707,0,.5.5,0,0,1,0,.707L.354,28.376A.5.5,0,0,1,0,28.522Z" transform="translate(684.765 157.088)" fill="#0d4b08"/><path d="M0,28.523a.5.5,0,0,1-.354-.146.5.5,0,0,1,0-.707L27.669-.354a.5.5,0,0,1,.707,0,.5.5,0,0,1,0,.707L.354,28.376A.5.5,0,0,1,0,28.523Z" transform="translate(687.335 159.619)" fill="#0d4b08"/><path d="M0,28.523a.5.5,0,0,1-.354-.146.5.5,0,0,1,0-.707L27.669-.354a.5.5,0,0,1,.707,0,.5.5,0,0,1,0,.707L.354,28.376A.5.5,0,0,1,0,28.523Z" transform="translate(689.904 162.149)" fill="#0d4b08"/><path d="M0,28.523a.5.5,0,0,1-.354-.146.5.5,0,0,1,0-.707L27.669-.354a.5.5,0,0,1,.707,0,.5.5,0,0,1,0,.707L.354,28.376A.5.5,0,0,1,0,28.523Z" transform="translate(692.473 164.679)" fill="#0d4b08"/><path d="M0,28.523a.5.5,0,0,1-.354-.146.5.5,0,0,1,0-.707L27.669-.354a.5.5,0,0,1,.707,0,.5.5,0,0,1,0,.707L.354,28.376A.5.5,0,0,1,0,28.523Z" transform="translate(695.043 167.21)" fill="#0d4b08"/><path d="M0,28.522a.5.5,0,0,1-.354-.146.5.5,0,0,1,0-.707L27.669-.354a.5.5,0,0,1,.707,0,.5.5,0,0,1,0,.707L.354,28.376A.5.5,0,0,1,0,28.522Z" transform="translate(697.611 169.74)" fill="#0d4b08"/><path d="M0,28.523a.5.5,0,0,1-.354-.146.5.5,0,0,1,0-.707L27.669-.354a.5.5,0,0,1,.707,0,.5.5,0,0,1,0,.707L.354,28.376A.5.5,0,0,1,0,28.523Z" transform="translate(700.18 172.271)" fill="#0d4b08"/><path d="M0,28.523a.5.5,0,0,1-.354-.146.5.5,0,0,1,0-.707L27.669-.354a.5.5,0,0,1,.707,0,.5.5,0,0,1,0,.707L.354,28.376A.5.5,0,0,1,0,28.523Z" transform="translate(702.75 174.801)" fill="#0d4b08"/><path d="M0,28.522a.5.5,0,0,1-.354-.146.5.5,0,0,1,0-.707L27.669-.354a.5.5,0,0,1,.707,0,.5.5,0,0,1,0,.707L.354,28.376A.5.5,0,0,1,0,28.522Z" transform="translate(705.318 177.331)" fill="#0d4b08"/><path d="M0,2.015a.5.5,0,0,1-.4-.2.5.5,0,0,1,.1-.7L1.726-.4a.5.5,0,0,1,.7.1.5.5,0,0,1-.1.7L.3,1.915A.5.5,0,0,1,0,2.015Z" transform="translate(315.402 634.177)" fill="#0d4b08"/><g clip-path="url(#c)"><path d="M581.506,846.62l-53.2,53.2a2.492,2.492,0,0,1-3.523,0l-47.941-47.942a2.491,2.491,0,0,1,0-3.524l53.2-53.2Z" transform="translate(-80.686 -134.755)" fill="#407b3e"/><path d="M650.331,901.193,599.19,850.052l53.2-53.2a2.491,2.491,0,0,1,3.524,0l49.378,49.378a2.491,2.491,0,0,1,0,3.524l-51.44,51.44a2.491,2.491,0,0,1-3.524,0" transform="translate(-101.545 -134.919)" fill="#407b3e"/><path d="M698.923,750.254l51.8-51.8,52.107,52.107a2.492,2.492,0,0,1,0,3.523l-50.039,50.039a2.491,2.491,0,0,1-3.524,0l-50.344-50.344a2.491,2.491,0,0,1,0-3.524" transform="translate(-118.323 -118.367)" fill="#407b3e"/><path d="M697.461,628.618l55.161-55.161,49.012,49.012a2.491,2.491,0,0,1,0,3.524l-53.4,53.4Z" transform="translate(-118.199 -97.184)" fill="#407b3e"/><path d="M-25.356-9.568l.715-.455a8.086,8.086,0,0,0-1.4-.949l-.832.507a7.117,7.117,0,0,1,1.3.923l-1.807.156a3.306,3.306,0,0,1-.481-1.469l-1.222.13c.052.13.052.13.091.247.052.195.065.221.13.416.169.455.208.546.312.78l-1.131.091a5.752,5.752,0,0,1-.637.039c-.169,0-.39-.013-.533-.026l.1,1.144a4.37,4.37,0,0,1,1.1-.169l1.677-.143a5.966,5.966,0,0,0,2.821,1.937h-6.617c-.689,0-.975-.013-1.339-.039.026.338.039.767.039,1.365v2.769c0,.559-.026,1.053-.052,1.313.3-.026.845-.039,1.417-.039h5.889c.546,0,1.131.013,1.417.039a11.743,11.743,0,0,1-.052-1.365V-5.031c0-.507,0-.845.026-1.2a1.783,1.783,0,0,0,.377.052.964.964,0,0,0,.728-.312c.2-.208.26-.39.507-1.248a2.96,2.96,0,0,1-.923-.6,3.7,3.7,0,0,1-.325,1.014.265.265,0,0,1-.247.143,3.541,3.541,0,0,1-1.4-.533,4.459,4.459,0,0,1-.975-.754l2.353-.221c.507-.039.754-.052,1.027-.052h.351l-.091-1.118a6.593,6.593,0,0,1-1.352.208Zm-6.578,4.043h6.357v.65h-6.357Zm0,1.469h6.357v.65h-6.357Zm0,1.469h6.357v.65h-6.357Zm.494-4.121a3.427,3.427,0,0,1-.065-.78V-9.36a10.462,10.462,0,0,0,.858-.832,1.442,1.442,0,0,1,.143-.143c.1-.117.1-.117.169-.182L-31.453-11a8.353,8.353,0,0,1-3.341,2.652,2.951,2.951,0,0,1,.6.936A9.707,9.707,0,0,0-32.558-8.5a3.9,3.9,0,0,0-.052.663v.39a3.162,3.162,0,0,1-.078.741ZM-30.764-1A10.13,10.13,0,0,1-34.639.117a3.3,3.3,0,0,1,.663.988A11.433,11.433,0,0,0-29.958-.351Zm3.133.65A11.047,11.047,0,0,0-23.5,1.092,4.922,4.922,0,0,1-22.821.078,9.256,9.256,0,0,1-26.747-1Zm12.974-4.706.039,4.043v.26A8.752,8.752,0,0,1-14.684.611H-13.2A13.4,13.4,0,0,1-13.28-1.04l-.078-5.915h1.365c.663,0,1.209.013,1.547.052V-8.242a9.191,9.191,0,0,1-1.56.091H-13.37l-.013-1.04v-.364a6.526,6.526,0,0,1,.052-.871h-1.443a9.206,9.206,0,0,1,.065,1.261l.013,1.014-4.472.013a8.978,8.978,0,0,1-1.69-.091v1.352a15.01,15.01,0,0,1,1.651-.065l3.731-.013a13.457,13.457,0,0,1-1.794,2.223A14.245,14.245,0,0,1-21.5-1.794a2.988,2.988,0,0,1,.91,1.118A18.956,18.956,0,0,0-18.57-1.937,15.886,15.886,0,0,0-15.8-4.446,7.641,7.641,0,0,0-14.618-6.11c-.039.637-.039.754-.039.91ZM1.384-9.451a3.285,3.285,0,0,1-1.17.117H-5.752a10.5,10.5,0,0,1-1.755-.091v1.443A11.885,11.885,0,0,1-5.778-8.06h6.2a9.323,9.323,0,0,1-4,5.863A9.794,9.794,0,0,1-6.467-.845,3.847,3.847,0,0,1-5.531.442,12.385,12.385,0,0,0-1.4-2.119,11.338,11.338,0,0,0,1.84-7.813a3.064,3.064,0,0,1,.312-.91ZM12.447-8.242a4.21,4.21,0,0,1-.767.9A14.873,14.873,0,0,1,8.014-4.693,13.217,13.217,0,0,1,4.92-3.523a4.526,4.526,0,0,1,.663,1.131,17.119,17.119,0,0,0,3.809-1.7V-.624A7.516,7.516,0,0,1,9.314.728h1.443a7.016,7.016,0,0,1-.078-1.352V-4.875a17.6,17.6,0,0,0,2.457-2.158,2.34,2.34,0,0,1,.429-.416ZM27.437-.806a30.883,30.883,0,0,0-4.329-3.757,15.609,15.609,0,0,0,2.08-3.588,2.072,2.072,0,0,1,.39-.663l-.728-.767a2.35,2.35,0,0,1-1.027.13l-4.329.065h-.351A10.044,10.044,0,0,1,17.8-9.464l.039,1.417a11.954,11.954,0,0,1,1.664-.1l3.77-.065c.169,0,.247,0,.4-.013a1.032,1.032,0,0,1-.052.117,1,1,0,0,0-.078.2,13.344,13.344,0,0,1-4.485,5.525A10.669,10.669,0,0,1,16.452-.949,3.909,3.909,0,0,1,17.336.26,15.152,15.152,0,0,0,22.3-3.549,25.553,25.553,0,0,1,26.358.39Zm4.329-4.888a2.706,2.706,0,0,1,1.476.39,2.576,2.576,0,0,1,.943,1.033,3.112,3.112,0,0,1,.325,1.424,3.017,3.017,0,0,1-.377,1.495A2.807,2.807,0,0,1,33.1-.286,2.809,2.809,0,0,1,31.636.1a3.809,3.809,0,0,1-1.378-.26,3.05,3.05,0,0,1-1.079-.663l.793-1.2a1.858,1.858,0,0,0,.683.475,2.135,2.135,0,0,0,.851.189,1.426,1.426,0,0,0,1.034-.4,1.39,1.39,0,0,0,.41-1.047,1.677,1.677,0,0,0-.41-1.176A1.463,1.463,0,0,0,31.4-4.42a2.725,2.725,0,0,0-.8.117,4.174,4.174,0,0,0-.839.377h-.013V-8.58h4.173v1.456H31.051v1.508A3.286,3.286,0,0,1,31.766-5.694Z" transform="translate(448.121 718.894)" fill="#fff"/><path d="M-25.551-9.568l.715-.455a8.086,8.086,0,0,0-1.4-.949l-.832.507a7.117,7.117,0,0,1,1.3.923l-1.807.156a3.306,3.306,0,0,1-.481-1.469l-1.222.13c.052.13.052.13.091.247.052.195.065.221.13.416.169.455.208.546.312.78l-1.131.091a5.752,5.752,0,0,1-.637.039c-.169,0-.39-.013-.533-.026l.1,1.144a4.37,4.37,0,0,1,1.1-.169l1.677-.143a5.966,5.966,0,0,0,2.821,1.937H-31.96c-.689,0-.975-.013-1.339-.039.026.338.039.767.039,1.365v2.769c0,.559-.026,1.053-.052,1.313.3-.026.845-.039,1.417-.039h5.889c.546,0,1.131.013,1.417.039a11.743,11.743,0,0,1-.052-1.365V-5.031c0-.507,0-.845.026-1.2a1.783,1.783,0,0,0,.377.052.964.964,0,0,0,.728-.312c.2-.208.26-.39.507-1.248a2.96,2.96,0,0,1-.923-.6,3.7,3.7,0,0,1-.325,1.014.265.265,0,0,1-.247.143,3.541,3.541,0,0,1-1.4-.533,4.459,4.459,0,0,1-.975-.754l2.353-.221c.507-.039.754-.052,1.027-.052h.351l-.091-1.118a6.593,6.593,0,0,1-1.352.208ZM-32.13-5.525h6.357v.65H-32.13Zm0,1.469h6.357v.65H-32.13Zm0,1.469h6.357v.65H-32.13Zm.494-4.121a3.427,3.427,0,0,1-.065-.78V-9.36a10.462,10.462,0,0,0,.858-.832,1.442,1.442,0,0,1,.143-.143c.1-.117.1-.117.169-.182L-31.648-11a8.353,8.353,0,0,1-3.341,2.652,2.951,2.951,0,0,1,.6.936A9.707,9.707,0,0,0-32.753-8.5a3.9,3.9,0,0,0-.052.663v.39a3.162,3.162,0,0,1-.078.741ZM-30.959-1A10.13,10.13,0,0,1-34.833.117a3.3,3.3,0,0,1,.663.988A11.433,11.433,0,0,0-30.153-.351Zm3.133.65a11.047,11.047,0,0,0,4.134,1.443A4.922,4.922,0,0,1-23.016.078,9.256,9.256,0,0,1-26.942-1Zm12.974-4.706.039,4.043v.26A8.752,8.752,0,0,1-14.878.611H-13.4a13.4,13.4,0,0,1-.078-1.651l-.078-5.915h1.365c.663,0,1.209.013,1.547.052V-8.242a9.191,9.191,0,0,1-1.56.091h-1.365l-.013-1.04v-.364a6.526,6.526,0,0,1,.052-.871h-1.443A9.206,9.206,0,0,1-14.9-9.165l.013,1.014-4.472.013a8.978,8.978,0,0,1-1.69-.091v1.352A15.01,15.01,0,0,1-19.4-6.942l3.731-.013a13.457,13.457,0,0,1-1.794,2.223,14.245,14.245,0,0,1-4.225,2.938,2.988,2.988,0,0,1,.91,1.118,18.956,18.956,0,0,0,2.015-1.261A15.886,15.886,0,0,0-16-4.446,7.641,7.641,0,0,0-14.813-6.11c-.039.637-.039.754-.039.91ZM1.189-9.451a3.285,3.285,0,0,1-1.17.117H-5.947A10.5,10.5,0,0,1-7.7-9.425v1.443A11.885,11.885,0,0,1-5.973-8.06h6.2a9.323,9.323,0,0,1-4,5.863A9.794,9.794,0,0,1-6.662-.845,3.847,3.847,0,0,1-5.726.442,12.385,12.385,0,0,0-1.592-2.119,11.338,11.338,0,0,0,1.645-7.813a3.064,3.064,0,0,1,.312-.91ZM12.252-8.242a4.21,4.21,0,0,1-.767.9A14.873,14.873,0,0,1,7.819-4.693a13.217,13.217,0,0,1-3.094,1.17,4.526,4.526,0,0,1,.663,1.131A17.119,17.119,0,0,0,9.2-4.095V-.624A7.516,7.516,0,0,1,9.119.728h1.443a7.016,7.016,0,0,1-.078-1.352V-4.875a17.6,17.6,0,0,0,2.457-2.158,2.34,2.34,0,0,1,.429-.416ZM27.242-.806a30.883,30.883,0,0,0-4.329-3.757,15.609,15.609,0,0,0,2.08-3.588,2.072,2.072,0,0,1,.39-.663l-.728-.767a2.35,2.35,0,0,1-1.027.13L19.3-9.386h-.351a10.044,10.044,0,0,1-1.339-.078l.039,1.417a11.954,11.954,0,0,1,1.664-.1l3.77-.065c.169,0,.247,0,.4-.013a1.032,1.032,0,0,1-.052.117,1,1,0,0,0-.078.2A13.344,13.344,0,0,1,18.87-2.392,10.669,10.669,0,0,1,16.257-.949,3.909,3.909,0,0,1,17.141.26a15.152,15.152,0,0,0,4.966-3.809A25.553,25.553,0,0,1,26.163.39ZM32.4-5.564a2.364,2.364,0,0,1,1.242.358,2.717,2.717,0,0,1,.956.988,2.77,2.77,0,0,1,.364,1.411,2.761,2.761,0,0,1-.429,1.534A2.872,2.872,0,0,1,33.4-.254,3.288,3.288,0,0,1,31.9.1a3.106,3.106,0,0,1-1.619-.429A3,3,0,0,1,29.14-1.56a4.086,4.086,0,0,1-.416-1.9A4.49,4.49,0,0,1,29.8-6.312a11.075,11.075,0,0,1,2.769-2.411l1.014,1.1a6.42,6.42,0,0,0-1.833,1.209,4.944,4.944,0,0,0-1.092,1.482A2.409,2.409,0,0,1,32.4-5.564Zm-.572,4.316a1.54,1.54,0,0,0,1.118-.429,1.5,1.5,0,0,0,.442-1.131,1.389,1.389,0,0,0-.442-1.079,1.6,1.6,0,0,0-1.118-.4,1.657,1.657,0,0,0-1.1.383,1.163,1.163,0,0,0-.455.917v.26A1.364,1.364,0,0,0,30.479-2a1.59,1.59,0,0,0,.566.546A1.536,1.536,0,0,0,31.831-1.248Z" transform="translate(552.065 718.894)" fill="#fff"/><path d="M-25.187-9.568l.715-.455a8.086,8.086,0,0,0-1.4-.949l-.832.507a7.117,7.117,0,0,1,1.3.923l-1.807.156a3.306,3.306,0,0,1-.481-1.469l-1.222.13c.052.13.052.13.091.247.052.195.065.221.13.416.169.455.208.546.312.78l-1.131.091a5.752,5.752,0,0,1-.637.039c-.169,0-.39-.013-.533-.026l.1,1.144a4.37,4.37,0,0,1,1.1-.169l1.677-.143a5.966,5.966,0,0,0,2.821,1.937H-31.6c-.689,0-.975-.013-1.339-.039.026.338.039.767.039,1.365v2.769c0,.559-.026,1.053-.052,1.313.3-.026.845-.039,1.417-.039h5.889c.546,0,1.131.013,1.417.039a11.743,11.743,0,0,1-.052-1.365V-5.031c0-.507,0-.845.026-1.2a1.783,1.783,0,0,0,.377.052.964.964,0,0,0,.728-.312c.2-.208.26-.39.507-1.248a2.96,2.96,0,0,1-.923-.6,3.7,3.7,0,0,1-.325,1.014.265.265,0,0,1-.247.143,3.541,3.541,0,0,1-1.4-.533,4.459,4.459,0,0,1-.975-.754l2.353-.221c.507-.039.754-.052,1.027-.052h.351l-.091-1.118a6.593,6.593,0,0,1-1.352.208Zm-6.578,4.043h6.357v.65h-6.357Zm0,1.469h6.357v.65h-6.357Zm0,1.469h6.357v.65h-6.357Zm.494-4.121a3.427,3.427,0,0,1-.065-.78V-9.36a10.462,10.462,0,0,0,.858-.832,1.442,1.442,0,0,1,.143-.143c.1-.117.1-.117.169-.182L-31.285-11a8.353,8.353,0,0,1-3.341,2.652,2.951,2.951,0,0,1,.6.936A9.707,9.707,0,0,0-32.389-8.5a3.9,3.9,0,0,0-.052.663v.39a3.162,3.162,0,0,1-.078.741ZM-30.6-1A10.13,10.13,0,0,1-34.47.117a3.3,3.3,0,0,1,.663.988A11.433,11.433,0,0,0-29.79-.351Zm3.133.65a11.047,11.047,0,0,0,4.134,1.443A4.922,4.922,0,0,1-22.653.078,9.256,9.256,0,0,1-26.579-1Zm12.974-4.706.039,4.043v.26A8.752,8.752,0,0,1-14.515.611h1.482a13.4,13.4,0,0,1-.078-1.651l-.078-5.915h1.365c.663,0,1.209.013,1.547.052V-8.242a9.191,9.191,0,0,1-1.56.091H-13.2l-.013-1.04v-.364a6.526,6.526,0,0,1,.052-.871h-1.443a9.206,9.206,0,0,1,.065,1.261l.013,1.014L-19-8.138a8.978,8.978,0,0,1-1.69-.091v1.352a15.01,15.01,0,0,1,1.651-.065l3.731-.013A13.457,13.457,0,0,1-17.1-4.732a14.245,14.245,0,0,1-4.225,2.938,2.988,2.988,0,0,1,.91,1.118A18.956,18.956,0,0,0-18.4-1.937a15.886,15.886,0,0,0,2.769-2.509A7.641,7.641,0,0,0-14.45-6.11c-.039.637-.039.754-.039.91ZM1.553-9.451a3.285,3.285,0,0,1-1.17.117H-5.584a10.5,10.5,0,0,1-1.755-.091v1.443A11.885,11.885,0,0,1-5.61-8.06h6.2a9.323,9.323,0,0,1-4,5.863A9.794,9.794,0,0,1-6.3-.845,3.847,3.847,0,0,1-5.363.442,12.385,12.385,0,0,0-1.229-2.119,11.338,11.338,0,0,0,2.008-7.813a3.064,3.064,0,0,1,.312-.91ZM12.616-8.242a4.21,4.21,0,0,1-.767.9A14.873,14.873,0,0,1,8.183-4.693a13.217,13.217,0,0,1-3.094,1.17,4.526,4.526,0,0,1,.663,1.131,17.119,17.119,0,0,0,3.809-1.7V-.624A7.516,7.516,0,0,1,9.483.728h1.443a7.016,7.016,0,0,1-.078-1.352V-4.875a17.6,17.6,0,0,0,2.457-2.158,2.34,2.34,0,0,1,.429-.416ZM27.605-.806a30.883,30.883,0,0,0-4.329-3.757,15.609,15.609,0,0,0,2.08-3.588,2.072,2.072,0,0,1,.39-.663l-.728-.767a2.35,2.35,0,0,1-1.027.13l-4.329.065h-.351a10.044,10.044,0,0,1-1.339-.078l.039,1.417a11.954,11.954,0,0,1,1.664-.1l3.77-.065c.169,0,.247,0,.4-.013a1.032,1.032,0,0,1-.052.117,1,1,0,0,0-.078.2,13.344,13.344,0,0,1-4.485,5.525A10.669,10.669,0,0,1,16.621-.949,3.909,3.909,0,0,1,17.5.26a15.152,15.152,0,0,0,4.966-3.809A25.553,25.553,0,0,1,26.527.39ZM34.769-8.58,31.427,0h-1.69l2.834-7.124H29.087V-8.58Z" transform="translate(632.554 636.691)" fill="#fff"/><path d="M-25.4-9.568l.715-.455a8.086,8.086,0,0,0-1.4-.949l-.832.507a7.117,7.117,0,0,1,1.3.923l-1.807.156a3.306,3.306,0,0,1-.481-1.469l-1.222.13c.052.13.052.13.091.247.052.195.065.221.13.416.169.455.208.546.312.78l-1.131.091a5.752,5.752,0,0,1-.637.039c-.169,0-.39-.013-.533-.026l.1,1.144a4.37,4.37,0,0,1,1.1-.169l1.677-.143a5.966,5.966,0,0,0,2.821,1.937H-31.8c-.689,0-.975-.013-1.339-.039.026.338.039.767.039,1.365v2.769c0,.559-.026,1.053-.052,1.313.3-.026.845-.039,1.417-.039h5.889c.546,0,1.131.013,1.417.039a11.743,11.743,0,0,1-.052-1.365V-5.031c0-.507,0-.845.026-1.2a1.783,1.783,0,0,0,.377.052.964.964,0,0,0,.728-.312c.2-.208.26-.39.507-1.248a2.96,2.96,0,0,1-.923-.6A3.7,3.7,0,0,1-24.1-7.319a.265.265,0,0,1-.247.143,3.541,3.541,0,0,1-1.4-.533,4.459,4.459,0,0,1-.975-.754l2.353-.221c.507-.039.754-.052,1.027-.052h.351l-.091-1.118a6.593,6.593,0,0,1-1.352.208Zm-6.578,4.043h6.357v.65h-6.357Zm0,1.469h6.357v.65h-6.357Zm0,1.469h6.357v.65h-6.357Zm.494-4.121a3.427,3.427,0,0,1-.065-.78V-9.36a10.462,10.462,0,0,0,.858-.832,1.442,1.442,0,0,1,.143-.143c.1-.117.1-.117.169-.182L-31.493-11a8.353,8.353,0,0,1-3.341,2.652,2.951,2.951,0,0,1,.6.936A9.707,9.707,0,0,0-32.6-8.5a3.9,3.9,0,0,0-.052.663v.39a3.162,3.162,0,0,1-.078.741ZM-30.8-1A10.13,10.13,0,0,1-34.678.117a3.3,3.3,0,0,1,.663.988A11.433,11.433,0,0,0-30-.351Zm3.133.65a11.047,11.047,0,0,0,4.134,1.443A4.922,4.922,0,0,1-22.861.078,9.256,9.256,0,0,1-26.787-1ZM-14.7-5.057l.039,4.043v.26A8.752,8.752,0,0,1-14.723.611h1.482a13.4,13.4,0,0,1-.078-1.651L-13.4-6.955h1.365c.663,0,1.209.013,1.547.052V-8.242a9.191,9.191,0,0,1-1.56.091H-13.41l-.013-1.04v-.364a6.526,6.526,0,0,1,.052-.871h-1.443a9.206,9.206,0,0,1,.065,1.261l.013,1.014-4.472.013a8.978,8.978,0,0,1-1.69-.091v1.352a15.01,15.01,0,0,1,1.651-.065l3.731-.013A13.457,13.457,0,0,1-17.31-4.732a14.245,14.245,0,0,1-4.225,2.938,2.988,2.988,0,0,1,.91,1.118A18.956,18.956,0,0,0-18.61-1.937a15.886,15.886,0,0,0,2.769-2.509A7.641,7.641,0,0,0-14.658-6.11c-.039.637-.039.754-.039.91ZM1.345-9.451a3.285,3.285,0,0,1-1.17.117H-5.792a10.5,10.5,0,0,1-1.755-.091v1.443A11.885,11.885,0,0,1-5.818-8.06h6.2a9.323,9.323,0,0,1-4,5.863A9.794,9.794,0,0,1-6.507-.845,3.847,3.847,0,0,1-5.571.442,12.385,12.385,0,0,0-1.437-2.119,11.338,11.338,0,0,0,1.8-7.813a3.064,3.064,0,0,1,.312-.91ZM12.408-8.242a4.21,4.21,0,0,1-.767.9A14.873,14.873,0,0,1,7.975-4.693a13.217,13.217,0,0,1-3.094,1.17,4.526,4.526,0,0,1,.663,1.131,17.119,17.119,0,0,0,3.809-1.7V-.624A7.516,7.516,0,0,1,9.275.728h1.443A7.016,7.016,0,0,1,10.64-.624V-4.875A17.6,17.6,0,0,0,13.1-7.033a2.34,2.34,0,0,1,.429-.416ZM27.4-.806a30.883,30.883,0,0,0-4.329-3.757,15.609,15.609,0,0,0,2.08-3.588,2.072,2.072,0,0,1,.39-.663l-.728-.767a2.35,2.35,0,0,1-1.027.13l-4.329.065H19.1a10.044,10.044,0,0,1-1.339-.078L17.8-8.047a11.954,11.954,0,0,1,1.664-.1l3.77-.065c.169,0,.247,0,.4-.013a1.032,1.032,0,0,1-.052.117,1,1,0,0,0-.078.2,13.344,13.344,0,0,1-4.485,5.525A10.669,10.669,0,0,1,16.413-.949,3.909,3.909,0,0,1,17.3.26a15.152,15.152,0,0,0,4.966-3.809A25.553,25.553,0,0,1,26.319.39Zm1.326-1.937a2.357,2.357,0,0,1,.475-1.5,3.292,3.292,0,0,1,1.125-.929,2.532,2.532,0,0,1-.6-.657,1.676,1.676,0,0,1-.208-.877,1.779,1.779,0,0,1,.306-1.014,2.04,2.04,0,0,1,.839-.709,2.719,2.719,0,0,1,1.183-.253,2.762,2.762,0,0,1,1.19.253,2.142,2.142,0,0,1,.851.689,1.625,1.625,0,0,1,.312.968,1.8,1.8,0,0,1-.208.923,2.493,2.493,0,0,1-.624.676,3.538,3.538,0,0,1,1.138.955,2.316,2.316,0,0,1,.475,1.476,2.556,2.556,0,0,1-.416,1.4A3.085,3.085,0,0,1,33.423-.293,3.252,3.252,0,0,1,31.83.1a3.257,3.257,0,0,1-1.586-.39,2.926,2.926,0,0,1-1.118-1.046A2.649,2.649,0,0,1,28.723-2.743Zm2.262-3.783a.784.784,0,0,0,.273.591.891.891,0,0,0,.624.253.858.858,0,0,0,.611-.247.8.8,0,0,0,.26-.6.866.866,0,0,0-.26-.637.836.836,0,0,0-.611-.26.873.873,0,0,0-.631.26A.856.856,0,0,0,30.986-6.526ZM30.271-2.8a1.643,1.643,0,0,0,.208.806,1.58,1.58,0,0,0,.572.6,1.477,1.477,0,0,0,.78.221,1.568,1.568,0,0,0,.806-.221,1.7,1.7,0,0,0,.6-.6,1.534,1.534,0,0,0,.227-.806A1.578,1.578,0,0,0,33-3.945a1.53,1.53,0,0,0-1.131-.475,1.545,1.545,0,0,0-.786.214,1.613,1.613,0,0,0-.592.592A1.591,1.591,0,0,0,30.271-2.8Z" transform="translate(630.81 533.241)" fill="#fff"/><path d="M-8.879-9.451a3.285,3.285,0,0,1-1.17.117h-5.967a10.5,10.5,0,0,1-1.755-.091v1.443a11.885,11.885,0,0,1,1.729-.078h6.2a9.323,9.323,0,0,1-4,5.863A9.794,9.794,0,0,1-16.731-.845,3.847,3.847,0,0,1-15.8.442a12.385,12.385,0,0,0,4.134-2.561A11.338,11.338,0,0,0-8.424-7.813a3.064,3.064,0,0,1,.312-.91Zm5.187-.676a9.682,9.682,0,0,1,.065,1.391v2.847a13.257,13.257,0,0,1-.065,1.573h1.521a12.352,12.352,0,0,1-.065-1.573V-8.736a11.009,11.009,0,0,1,.065-1.391Zm5.824.026A7.806,7.806,0,0,1,2.2-8.658v1.313l.013.481a14.917,14.917,0,0,1-.182,2.7A3.671,3.671,0,0,1,.078-1.547a7.042,7.042,0,0,1-2.587.884,3.757,3.757,0,0,1,.78,1.3A11.332,11.332,0,0,0,.728-.325,5.013,5.013,0,0,0,3.25-3.3a14.742,14.742,0,0,0,.338-3.965v-1.4a9.205,9.205,0,0,1,.065-1.43ZM7.514-4.225A18.539,18.539,0,0,1,9.529-4.29h7.007a19.111,19.111,0,0,1,1.95.065V-5.733a13.236,13.236,0,0,1-1.937.078H9.516a14.953,14.953,0,0,1-2-.091ZM-16.432,14.194a30.883,30.883,0,0,0-4.329-3.757,15.609,15.609,0,0,0,2.08-3.588,2.072,2.072,0,0,1,.39-.663l-.728-.767a2.35,2.35,0,0,1-1.027.13l-4.329.065h-.351a10.044,10.044,0,0,1-1.339-.078l.039,1.417a11.954,11.954,0,0,1,1.664-.1l3.77-.065c.169,0,.247,0,.4-.013a1.032,1.032,0,0,1-.052.117,1,1,0,0,0-.078.2A13.344,13.344,0,0,1-24.8,12.608a10.669,10.669,0,0,1-2.613,1.443,3.909,3.909,0,0,1,.884,1.209,15.152,15.152,0,0,0,4.966-3.809,25.553,25.553,0,0,1,4.056,3.939Zm1.781-1.911.4-.52c.871-1.027,1.794-2.171,2.34-2.886.546-.741.6-.78.832-.78s.247.013,1.092.923a60.032,60.032,0,0,0,4.277,4.29l1.248,1.131.7-1.495a6.961,6.961,0,0,1-1.183-.9,43.454,43.454,0,0,1-4.3-4.186c-.975-1.079-1.235-1.274-1.833-1.274-.65,0-1.027.273-1.781,1.261-.637.845-1.9,2.34-2.275,2.717a2.541,2.541,0,0,1-.455.364Zm8.619-6.916A1.5,1.5,0,0,0-7.527,6.875,1.5,1.5,0,0,0-6.032,8.383,1.509,1.509,0,0,0-4.524,6.875,1.509,1.509,0,0,0-6.032,5.367Zm0,.624a.885.885,0,0,1,.884.884.893.893,0,0,1-.884.884A.882.882,0,0,1-6.9,6.875.882.882,0,0,1-6.032,5.991Zm3.471,4.784A18.539,18.539,0,0,1-.546,10.71H6.461a19.111,19.111,0,0,1,1.95.065V9.267a13.236,13.236,0,0,1-1.937.078H-.559a14.953,14.953,0,0,1-2-.091ZM20.1,14.194a30.883,30.883,0,0,0-4.329-3.757,15.609,15.609,0,0,0,2.08-3.588,2.072,2.072,0,0,1,.39-.663l-.728-.767a2.35,2.35,0,0,1-1.027.13l-4.329.065H11.8a10.044,10.044,0,0,1-1.339-.078L10.5,6.953a11.954,11.954,0,0,1,1.664-.1l3.77-.065c.169,0,.247,0,.4-.013a1.032,1.032,0,0,1-.052.117,1,1,0,0,0-.078.2,13.344,13.344,0,0,1-4.485,5.525,10.669,10.669,0,0,1-2.613,1.443A3.909,3.909,0,0,1,10,15.26a15.152,15.152,0,0,0,4.966-3.809,25.553,25.553,0,0,1,4.056,3.939Zm7.709-.65V15h-5.98l.468-.468q1.287-1.287,2.021-2.1a10.163,10.163,0,0,0,1.222-1.638,3.1,3.1,0,0,0,.488-1.567A1.36,1.36,0,0,0,25.6,8.149a1.557,1.557,0,0,0-1.066-.377,1.414,1.414,0,0,0-1.066.39,1.225,1.225,0,0,0-.377.871,1.866,1.866,0,0,0,.507,1.339l-.923.845a1.862,1.862,0,0,1-.761-.929,3.074,3.074,0,0,1-.292-1.215A2.612,2.612,0,0,1,22,7.72a2.726,2.726,0,0,1,1.1-1.02,3.564,3.564,0,0,1,1.7-.384,2.8,2.8,0,0,1,1.462.384,2.676,2.676,0,0,1,.994,1.02A2.81,2.81,0,0,1,27.6,9.1a3.459,3.459,0,0,1-.338,1.469,7.314,7.314,0,0,1-.812,1.352q-.475.624-1.332,1.625ZM-8.086,23.981a3.011,3.011,0,0,1,.7.6A10.574,10.574,0,0,0-5.85,21.966h3.809A8.361,8.361,0,0,1-3.51,24.592a3.186,3.186,0,0,1,1.053.6A13.482,13.482,0,0,0-.962,22.4c.182-.468.286-.741.338-.832l-.6-.715a5.487,5.487,0,0,1-.988.052H-5.486c.2-.572.208-.6.3-.9a5.68,5.68,0,0,1,.247-.715l-1.3-.208a6.666,6.666,0,0,1-.377,1.651,8.82,8.82,0,0,1-1.469,2.821V21.537c0-.806,0-.936.026-1.261a5.62,5.62,0,0,1-.91.039h-2.054a8.172,8.172,0,0,1-.949-.039,12.077,12.077,0,0,1,.052,1.261v6.227A13.241,13.241,0,0,1-12,29.272h1.2V27.946h1.625v.728h1.131a9.475,9.475,0,0,1-.039-1.209ZM-10.8,21.368h1.625v5.551H-10.8Zm5.317,1.4a6.086,6.086,0,0,1,.052.806,7.724,7.724,0,0,1-.377,2.548,7.591,7.591,0,0,1-1.131,2.145,6.219,6.219,0,0,1-2.5,1.846,3.667,3.667,0,0,1,.78,1,8.817,8.817,0,0,0,2.2-1.664,6.886,6.886,0,0,0,1.677-3.211A7.881,7.881,0,0,0-3.12,29.285,7.82,7.82,0,0,0-.845,31.053a3.956,3.956,0,0,1,.65-1.2,6.358,6.358,0,0,1-3.6-3.679,7.182,7.182,0,0,1-.494-2.509,4.59,4.59,0,0,1,.052-.9Zm12.935.949c.091-.585.117-.845.182-1.456h3.341a10.258,10.258,0,0,1,1.378.078V21.1a10.259,10.259,0,0,1-1.378.078H7.709c.026-.364.026-.429.026-.611a9.894,9.894,0,0,1,.1-1.339H6.526a6.583,6.583,0,0,1,.052,1c0,.286,0,.52-.026.949H6.344a12.766,12.766,0,0,1-1.391-.065V22.33a11.137,11.137,0,0,1,1.378-.065h.156C6.175,25.619,5.213,28.1,3.51,29.909a3.494,3.494,0,0,1,.806.988,12.6,12.6,0,0,0,2.639-4.953,9.527,9.527,0,0,0,1.287,2.119,8.43,8.43,0,0,1-2.821,1.924A3.471,3.471,0,0,1,6.123,31,10.673,10.673,0,0,0,8.983,28.9a11.583,11.583,0,0,0,2.9,2.145,4.258,4.258,0,0,1,.689-1.144,9.231,9.231,0,0,1-2.86-1.859,11.1,11.1,0,0,0,1.534-2.86c.26-.689.26-.715.338-.9l-.572-.611a5.814,5.814,0,0,1-.962.052Zm2.756,1.04A7.786,7.786,0,0,1,8.97,27.244a7.885,7.885,0,0,1-1.417-2.483Zm-7.9-2.08V25.32a8.128,8.128,0,0,1-1.742.468l.26,1.222A10.437,10.437,0,0,1,2.3,26.464V29.48c0,.312-.078.377-.442.377a11.15,11.15,0,0,1-1.183-.078,4.21,4.21,0,0,1,.247,1.144c.4.026.6.039.845.039H2.08a2.062,2.062,0,0,0,.936-.182.914.914,0,0,0,.429-.91V26.061c.507-.182.767-.286,1.56-.611V24.371c-.663.273-.884.351-1.56.572V22.681h.416a5.9,5.9,0,0,1,.845.052V21.589a5.49,5.49,0,0,1-.832.052H3.445V20.484a9.3,9.3,0,0,1,.078-1.3h-1.3A9.57,9.57,0,0,1,2.3,20.51v1.131H1.729A6.115,6.115,0,0,1,.7,21.563v1.183a7.622,7.622,0,0,1,1.027-.065Z" transform="translate(496.147 567.191)" fill="#0d4b08"/><path d="M-35.172-9.451a3.285,3.285,0,0,1-1.17.117h-5.967a10.5,10.5,0,0,1-1.755-.091v1.443a11.885,11.885,0,0,1,1.729-.078h6.2a9.323,9.323,0,0,1-4,5.863A9.794,9.794,0,0,1-43.024-.845,3.847,3.847,0,0,1-42.088.442a12.385,12.385,0,0,0,4.134-2.561,11.338,11.338,0,0,0,3.237-5.694,3.064,3.064,0,0,1,.312-.91Zm5.187-.676a9.682,9.682,0,0,1,.065,1.391v2.847a13.257,13.257,0,0,1-.065,1.573h1.521a12.352,12.352,0,0,1-.065-1.573V-8.736a11.009,11.009,0,0,1,.065-1.391Zm5.824.026A7.806,7.806,0,0,1-24.1-8.658v1.313l.013.481a14.917,14.917,0,0,1-.182,2.7,3.671,3.671,0,0,1-1.95,2.613A7.042,7.042,0,0,1-28.8-.663a3.757,3.757,0,0,1,.78,1.3,11.332,11.332,0,0,0,2.457-.962A5.013,5.013,0,0,0-23.043-3.3,14.741,14.741,0,0,0-22.7-7.267v-1.4a9.205,9.205,0,0,1,.065-1.43Zm5.382,5.876a18.539,18.539,0,0,1,2.015-.065h7.007a19.111,19.111,0,0,1,1.95.065V-5.733a13.236,13.236,0,0,1-1.937.078h-7.033a14.953,14.953,0,0,1-2-.091ZM3.88-.806A30.883,30.883,0,0,0-.449-4.563a15.609,15.609,0,0,0,2.08-3.588,2.072,2.072,0,0,1,.39-.663l-.728-.767a2.35,2.35,0,0,1-1.027.13l-4.329.065h-.351a10.044,10.044,0,0,1-1.339-.078l.039,1.417a11.954,11.954,0,0,1,1.664-.1l3.77-.065c.169,0,.247,0,.4-.013a1.031,1.031,0,0,1-.052.117,1,1,0,0,0-.078.2A13.344,13.344,0,0,1-4.492-2.392,10.669,10.669,0,0,1-7.1-.949,3.909,3.909,0,0,1-6.221.26,15.152,15.152,0,0,0-1.255-3.549,25.553,25.553,0,0,1,2.8.39ZM5.661-2.717l.4-.52C6.935-4.264,7.858-5.408,8.4-6.123c.546-.741.6-.78.832-.78s.247.013,1.092.923a60.032,60.032,0,0,0,4.277,4.29L15.853-.559l.7-1.5a6.961,6.961,0,0,1-1.183-.9,43.454,43.454,0,0,1-4.3-4.186c-.975-1.079-1.235-1.274-1.833-1.274-.65,0-1.027.273-1.781,1.261-.637.845-1.9,2.34-2.275,2.717a2.541,2.541,0,0,1-.455.364ZM14.28-9.633a1.5,1.5,0,0,0-1.495,1.508A1.5,1.5,0,0,0,14.28-6.617a1.509,1.509,0,0,0,1.508-1.508A1.509,1.509,0,0,0,14.28-9.633Zm0,.624a.885.885,0,0,1,.884.884.893.893,0,0,1-.884.884.882.882,0,0,1-.871-.884A.882.882,0,0,1,14.28-9.009Zm3.471,4.784a18.539,18.539,0,0,1,2.015-.065h7.007a19.111,19.111,0,0,1,1.95.065V-5.733a13.236,13.236,0,0,1-1.937.078H19.753a14.953,14.953,0,0,1-2-.091ZM40.41-.806a30.883,30.883,0,0,0-4.329-3.757,15.609,15.609,0,0,0,2.08-3.588,2.072,2.072,0,0,1,.39-.663l-.728-.767a2.35,2.35,0,0,1-1.027.13l-4.329.065h-.351a10.044,10.044,0,0,1-1.339-.078l.039,1.417a11.954,11.954,0,0,1,1.664-.1l3.77-.065c.169,0,.247,0,.4-.013a1.032,1.032,0,0,1-.052.117,1,1,0,0,0-.078.2,13.344,13.344,0,0,1-4.485,5.525A10.669,10.669,0,0,1,29.426-.949,3.909,3.909,0,0,1,30.309.26a15.152,15.152,0,0,0,4.966-3.809A25.553,25.553,0,0,1,39.332.39ZM44.493-8.58V0H42.972V-7.124h-.858V-8.58ZM-8.086,8.981a3.011,3.011,0,0,1,.7.6A10.574,10.574,0,0,0-5.85,6.966h3.809A8.361,8.361,0,0,1-3.51,9.592a3.186,3.186,0,0,1,1.053.6A13.482,13.482,0,0,0-.962,7.4c.182-.468.286-.741.338-.832l-.6-.715A5.487,5.487,0,0,1-2.21,5.9H-5.486c.2-.572.208-.6.3-.9a5.68,5.68,0,0,1,.247-.715l-1.3-.208a6.666,6.666,0,0,1-.377,1.651A8.82,8.82,0,0,1-8.086,8.552V6.537c0-.806,0-.936.026-1.261a5.62,5.62,0,0,1-.91.039h-2.054a8.172,8.172,0,0,1-.949-.039,12.077,12.077,0,0,1,.052,1.261v6.227A13.241,13.241,0,0,1-12,14.272h1.2V12.946h1.625v.728h1.131a9.475,9.475,0,0,1-.039-1.209ZM-10.8,6.368h1.625v5.551H-10.8Zm5.317,1.4a6.086,6.086,0,0,1,.052.806,7.724,7.724,0,0,1-.377,2.548,7.591,7.591,0,0,1-1.131,2.145,6.219,6.219,0,0,1-2.5,1.846,3.667,3.667,0,0,1,.78,1,8.817,8.817,0,0,0,2.2-1.664,6.886,6.886,0,0,0,1.677-3.211A7.88,7.88,0,0,0-3.12,14.285,7.82,7.82,0,0,0-.845,16.053a3.956,3.956,0,0,1,.65-1.2,6.358,6.358,0,0,1-3.6-3.679A7.182,7.182,0,0,1-4.29,8.669a4.59,4.59,0,0,1,.052-.9Zm12.935.949c.091-.585.117-.845.182-1.456h3.341a10.258,10.258,0,0,1,1.378.078V6.1a10.258,10.258,0,0,1-1.378.078H7.709c.026-.364.026-.429.026-.611a9.894,9.894,0,0,1,.1-1.339H6.526a6.584,6.584,0,0,1,.052,1c0,.286,0,.52-.026.949H6.344a12.766,12.766,0,0,1-1.391-.065V7.33a11.137,11.137,0,0,1,1.378-.065h.156C6.175,10.619,5.213,13.1,3.51,14.909a3.494,3.494,0,0,1,.806.988,12.6,12.6,0,0,0,2.639-4.953,9.527,9.527,0,0,0,1.287,2.119,8.43,8.43,0,0,1-2.821,1.924A3.471,3.471,0,0,1,6.123,16,10.673,10.673,0,0,0,8.983,13.9a11.583,11.583,0,0,0,2.9,2.145,4.258,4.258,0,0,1,.689-1.144,9.231,9.231,0,0,1-2.86-1.859,11.1,11.1,0,0,0,1.534-2.86c.26-.689.26-.715.338-.9l-.572-.611a5.814,5.814,0,0,1-.962.052ZM10.2,9.761A7.786,7.786,0,0,1,8.97,12.244,7.885,7.885,0,0,1,7.553,9.761ZM2.3,7.681V10.32a8.128,8.128,0,0,1-1.742.468l.26,1.222A10.437,10.437,0,0,1,2.3,11.464V14.48c0,.312-.078.377-.442.377a11.15,11.15,0,0,1-1.183-.078,4.21,4.21,0,0,1,.247,1.144c.4.026.6.039.845.039H2.08a2.062,2.062,0,0,0,.936-.182.914.914,0,0,0,.429-.91V11.061c.507-.182.767-.286,1.56-.611V9.371c-.663.273-.884.351-1.56.572V7.681h.416a5.9,5.9,0,0,1,.845.052V6.589a5.49,5.49,0,0,1-.832.052H3.445V5.484a9.3,9.3,0,0,1,.078-1.3h-1.3A9.57,9.57,0,0,1,2.3,5.51V6.641H1.729A6.115,6.115,0,0,1,.7,6.563V7.746a7.622,7.622,0,0,1,1.027-.065Z" transform="translate(263.424 680.968)" fill="#0d4b08"/><path d="M-9.412-2.158c-.962-.663-1.7-1.131-2.561-1.625A13.465,13.465,0,0,0-9.594-7.332a4.506,4.506,0,0,1,.351-.637L-10.374-8.5a5.844,5.844,0,0,1-.377,1.014,12.807,12.807,0,0,1-2.2,3.172,30.893,30.893,0,0,0-3.159-1.443l-.624.923A20.968,20.968,0,0,1-13.78-3.549a10.524,10.524,0,0,1-2.86,1.69,4.379,4.379,0,0,1,.793.923,12.11,12.11,0,0,0,3.068-2.041,25.234,25.234,0,0,1,2.665,1.859ZM-14.04-6.032a9.971,9.971,0,0,0-1.339-2.275l-.936.481a8.34,8.34,0,0,1,1.3,2.314Zm2.236-.585a10.088,10.088,0,0,0-1.183-2.3l-.949.442a9.141,9.141,0,0,1,1.157,2.34Zm-5.46,7.631V.273h8.528v.741h1.248A11.8,11.8,0,0,1-7.566-.624v-8.2A11.335,11.335,0,0,1-7.488-10.4a13.217,13.217,0,0,1-1.534.065h-7.969a12.845,12.845,0,0,1-1.521-.065,13.958,13.958,0,0,1,.078,1.573v8.19a12.027,12.027,0,0,1-.078,1.651Zm0-10.3h8.528v8.5h-8.528Zm16.7.481H-4.3a10.753,10.753,0,0,1-1.482-.078v1A11.768,11.768,0,0,1-4.3-7.943H-.559v.6H-3.276A10.937,10.937,0,0,1-4.563-7.4v.923a11.331,11.331,0,0,1,1.3-.052h2.7v.559H-3.523a8.7,8.7,0,0,1-1.326-.065v.962a9.122,9.122,0,0,1,1.326-.065H-.559v.585H-4.3a10.624,10.624,0,0,1-1.482-.078v1.053A12.3,12.3,0,0,1-4.3-3.653h8.7a12.071,12.071,0,0,1,1.469.078V-4.628a10.04,10.04,0,0,1-1.469.078H.546v-.585h3.12a9.122,9.122,0,0,1,1.326.065v-.962a8.591,8.591,0,0,1-1.326.065H.546v-.559H3.224A12.748,12.748,0,0,1,4.6-6.474a8.813,8.813,0,0,1-.039-.988v-.481h.065A8.044,8.044,0,0,1,5.9-7.878v-.988A7.978,7.978,0,0,1,4.654-8.8H4.563v-.351A10.156,10.156,0,0,1,4.6-10.27a13.686,13.686,0,0,1-1.43.052H.546a2.941,2.941,0,0,1,.091-.767H-.637a4.107,4.107,0,0,1,.078.767h-2.6A9.734,9.734,0,0,1-4.537-10.3v.988A11.011,11.011,0,0,1-3.276-9.36H-.559Zm1.105,0V-9.36H3.471V-8.8Zm0,.858H3.471v.6H.546ZM-4.186-.325A8.819,8.819,0,0,1-4.264,1h1.209V.533h6.24V1H4.394A7.708,7.708,0,0,1,4.316-.325V-1.911a8.782,8.782,0,0,1,.052-1.261,11.4,11.4,0,0,1-1.443.039H-2.8a11.649,11.649,0,0,1-1.443-.039,9.146,9.146,0,0,1,.052,1.261ZM-3.055-2.3h6.24v.585h-6.24Zm0,1.365h6.24v.611h-6.24ZM12.3-9.841H9.1c-.754,0-1.17-.013-1.612-.052a6.679,6.679,0,0,1,.052.923v.676c0,.286-.013.572-.026.728-.013.208-.013.208-.026.364H8.671V-8.8h8.71v1.573h1.2a5.7,5.7,0,0,1-.065-1v-.689a6.311,6.311,0,0,1,.052-.975c-.455.039-.845.052-1.69.052h-3.38v-.247a4.289,4.289,0,0,1,.078-.858H12.22a4.479,4.479,0,0,1,.078.858ZM11.063-6.734a9.614,9.614,0,0,1-.884,1.5c-.663.026-.819.026-1.183.026a6.247,6.247,0,0,1-.923-.039l.143,1.118a2.9,2.9,0,0,1,.442-.052c2.613-.091,5.109-.234,7.449-.416.26.273.416.442.845.936l.884-.741a24.56,24.56,0,0,0-2.613-2.327l-.871.533a8.383,8.383,0,0,1,.871.741c-1.014.078-1.014.078-3.8.2a9.952,9.952,0,0,0,.884-1.469h3.211a9.51,9.51,0,0,1,1.443.065V-7.787a12.679,12.679,0,0,1-1.469.052H10.53a12.733,12.733,0,0,1-1.443-.052v1.118a10.386,10.386,0,0,1,1.547-.065ZM13.52-3v-.1a6.911,6.911,0,0,1,.065-.975H12.272a7.2,7.2,0,0,1,.065.975V-3H9.867a9.232,9.232,0,0,1-1.4-.065v1.157a10.019,10.019,0,0,1,1.391-.065h2.483V-.52H8.84A10.331,10.331,0,0,1,7.215-.6V.611A14.868,14.868,0,0,1,8.944.533H17.1A15.217,15.217,0,0,1,18.85.611V-.6a11.973,11.973,0,0,1-1.625.078h-3.7V-1.976h2.7a9.836,9.836,0,0,1,1.365.065V-3.068A8.994,8.994,0,0,1,16.25-3Z" transform="translate(106.644 677.597)" fill="#0d4b08"/><path d="M-1.6.384-3.666-4.824-5.982.408l-3.492-9.1h1.632L-5.8-2.856l1.452-3.72-.84-2.112h1.38l2.244,5.664L.306-8.688h1.5ZM9.258-.684A4.583,4.583,0,0,1,8.2-.156,4.222,4.222,0,0,1,6.714.1,4.6,4.6,0,0,1,4.344-.5a4.1,4.1,0,0,1-1.56-1.6,4.527,4.527,0,0,1-.546-2.2,4.927,4.927,0,0,1,.546-2.34A4.032,4.032,0,0,1,4.308-8.25a4.269,4.269,0,0,1,2.226-.582,4.754,4.754,0,0,1,1.422.2,5.045,5.045,0,0,1,1.158.516L8.562-6.8a3.409,3.409,0,0,0-1.98-.684,2.668,2.668,0,0,0-1.434.414A3.034,3.034,0,0,0,4.086-5.946a3.175,3.175,0,0,0-.4,1.566,3.487,3.487,0,0,0,.366,1.614A2.7,2.7,0,0,0,5.1-1.65a3.012,3.012,0,0,0,1.566.4A3.233,3.233,0,0,0,7.812-1.44a2.823,2.823,0,0,0,.858-.492Z" transform="translate(190.345 679.811)" fill="#0d4b08"/><path d="M-1.6.384-3.666-4.824-5.982.408l-3.492-9.1h1.632L-5.8-2.856l1.452-3.72-.84-2.112h1.38l2.244,5.664L.306-8.688h1.5ZM9.258-.684A4.583,4.583,0,0,1,8.2-.156,4.222,4.222,0,0,1,6.714.1,4.6,4.6,0,0,1,4.344-.5a4.1,4.1,0,0,1-1.56-1.6,4.527,4.527,0,0,1-.546-2.2,4.927,4.927,0,0,1,.546-2.34A4.032,4.032,0,0,1,4.308-8.25a4.269,4.269,0,0,1,2.226-.582,4.754,4.754,0,0,1,1.422.2,5.045,5.045,0,0,1,1.158.516L8.562-6.8a3.409,3.409,0,0,0-1.98-.684,2.668,2.668,0,0,0-1.434.414A3.034,3.034,0,0,0,4.086-5.946a3.175,3.175,0,0,0-.4,1.566,3.487,3.487,0,0,0,.366,1.614A2.7,2.7,0,0,0,5.1-1.65a3.012,3.012,0,0,0,1.566.4A3.233,3.233,0,0,0,7.812-1.44a2.823,2.823,0,0,0,.858-.492Z" transform="translate(589.869 496.822)" fill="#0d4b08"/><path d="M7.514,8.32,5.794,3.98,3.864,8.34.954.76h1.36l1.7,4.86,1.21-3.1L4.524.76h1.15l1.87,4.72L9.1.76h1.25Zm9.05-.89a3.819,3.819,0,0,1-.885.44,3.519,3.519,0,0,1-1.235.21,3.836,3.836,0,0,1-1.975-.495,3.412,3.412,0,0,1-1.3-1.33,3.772,3.772,0,0,1-.455-1.835,4.105,4.105,0,0,1,.455-1.95,3.36,3.36,0,0,1,1.27-1.345A3.557,3.557,0,0,1,14.294.64a3.962,3.962,0,0,1,1.185.17,4.2,4.2,0,0,1,.965.43l-.46,1.09a2.841,2.841,0,0,0-1.65-.57,2.223,2.223,0,0,0-1.195.345,2.528,2.528,0,0,0-.885.94,2.646,2.646,0,0,0-.33,1.3,2.906,2.906,0,0,0,.3,1.345,2.252,2.252,0,0,0,.87.93,2.51,2.51,0,0,0,1.3.335,2.694,2.694,0,0,0,.955-.16,2.353,2.353,0,0,0,.715-.41Z" transform="translate(300.013 584.003)" fill="#0d4b08"/><path d="M-29.51-.754v.78h1.456a10.368,10.368,0,0,1-.065-1.391V-8.19c0-.546,0-.689.026-1.053-.442.026-.442.026-1.092.026h-5.941a9.123,9.123,0,0,1-1.742-.091v1.43a13.778,13.778,0,0,1,1.729-.065h5.629v5.915h-5.876a8.738,8.738,0,0,1-1.677-.091v1.43a11.77,11.77,0,0,1,1.651-.065Zm6.89-4.29a12.83,12.83,0,0,1-.065-1.313V-8.216h6.539a11.8,11.8,0,0,1-.468,2.444,6.628,6.628,0,0,1-2.639,3.731A8.008,8.008,0,0,1-21.918-.78,4.52,4.52,0,0,1-21.034.468a10.351,10.351,0,0,0,3.9-2.5c1.365-1.443,2.028-3.094,2.4-6.045a2.348,2.348,0,0,1,.221-.832l-.741-.689a3.689,3.689,0,0,1-1.326.13h-6.1c-.546,0-1.027-.026-1.417-.065.026.364.039.7.039,1.261v1.911A10.467,10.467,0,0,1-24.1-5.044Zm10.634.819A18.539,18.539,0,0,1-9.971-4.29h7.007a19.111,19.111,0,0,1,1.95.065V-5.733a13.236,13.236,0,0,1-1.937.078H-9.984a14.953,14.953,0,0,1-2-.091ZM5.239-7.956l-2.353.377a11.408,11.408,0,0,1-1.547.143L1.56-6.071a13.265,13.265,0,0,1,1.534-.312L5.46-6.747,5.876-4.42l-3.12.507a9.133,9.133,0,0,1-1.5.143l.221,1.352a10.27,10.27,0,0,1,1.443-.3L6.1-3.224,6.539-.78A10.493,10.493,0,0,1,6.747.793L8.242.533a8.742,8.742,0,0,1-.364-1.56l-.455-2.4,2.99-.468A10.357,10.357,0,0,1,11.9-4.095l-.26-1.339a9.926,9.926,0,0,1-1.482.338L7.2-4.628,6.773-6.955l2.561-.4A10.5,10.5,0,0,1,10.8-7.54l-.234-1.352A10.8,10.8,0,0,1,9.1-8.567l-2.561.4L6.331-9.282A9.043,9.043,0,0,1,6.162-10.6l-1.443.234a5.691,5.691,0,0,1,.325,1.313Zm9.516-.455a14.159,14.159,0,0,1,3.237,2.6l.936-1.157a17.757,17.757,0,0,0-3.276-2.483ZM15.067.117a5.49,5.49,0,0,1,.819-.208A13.455,13.455,0,0,0,20.8-2.041a11.285,11.285,0,0,0,4.056-5.044,4.389,4.389,0,0,1-1.131-1.066A11.383,11.383,0,0,1,22.36-5.525a8.926,8.926,0,0,1-3.874,3.159,11.753,11.753,0,0,1-3.822.975ZM35.308-10.27A9.554,9.554,0,0,1,36.66-8.281l.806-.442a8.685,8.685,0,0,0-1.352-1.95Zm1.547-.741a9.922,9.922,0,0,1,1.326,1.95l.793-.455a8.083,8.083,0,0,0-1.339-1.9Zm-6.058.39a5.384,5.384,0,0,1-.728,1.794,9.979,9.979,0,0,1-3.328,3.692,2.862,2.862,0,0,1,1.053.936,13.159,13.159,0,0,0,3.055-3.328l4.108-.065a11.346,11.346,0,0,1-2.21,4.134,10.979,10.979,0,0,1-4.5,3.107,3.29,3.29,0,0,1,.91,1.118,12.748,12.748,0,0,0,4.589-3.276,14.106,14.106,0,0,0,2.5-4.511,1.919,1.919,0,0,1,.3-.715L35.451-8.892a2.372,2.372,0,0,1-.832.1l-2.587.039a4.024,4.024,0,0,0-.559.039A10.892,10.892,0,0,0,32.006-9.8a2.243,2.243,0,0,1,.273-.494ZM-12.792,14.194a30.883,30.883,0,0,0-4.329-3.757,15.609,15.609,0,0,0,2.08-3.588,2.072,2.072,0,0,1,.39-.663l-.728-.767a2.35,2.35,0,0,1-1.027.13l-4.329.065h-.351a10.044,10.044,0,0,1-1.339-.078l.039,1.417a11.954,11.954,0,0,1,1.664-.1l3.77-.065c.169,0,.247,0,.4-.013a1.032,1.032,0,0,1-.052.117,1,1,0,0,0-.078.2,13.344,13.344,0,0,1-4.485,5.525,10.669,10.669,0,0,1-2.613,1.443,3.909,3.909,0,0,1,.884,1.209,15.152,15.152,0,0,0,4.966-3.809,25.553,25.553,0,0,1,4.056,3.939Zm1.781-1.911.4-.52c.871-1.027,1.794-2.171,2.34-2.886.546-.741.6-.78.832-.78s.247.013,1.092.923a60.032,60.032,0,0,0,4.277,4.29l1.248,1.131.7-1.495a6.961,6.961,0,0,1-1.183-.9A43.454,43.454,0,0,1-5.6,7.863c-.975-1.079-1.235-1.274-1.833-1.274-.65,0-1.027.273-1.781,1.261-.637.845-1.9,2.34-2.275,2.717a2.541,2.541,0,0,1-.455.364Zm8.619-6.916A1.5,1.5,0,0,0-3.887,6.875,1.5,1.5,0,0,0-2.392,8.383,1.509,1.509,0,0,0-.884,6.875,1.509,1.509,0,0,0-2.392,5.367Zm0,.624a.885.885,0,0,1,.884.884.893.893,0,0,1-.884.884.882.882,0,0,1-.871-.884A.882.882,0,0,1-2.392,5.991Zm3.471,4.784a18.539,18.539,0,0,1,2.015-.065H10.1a19.111,19.111,0,0,1,1.95.065V9.267a13.236,13.236,0,0,1-1.937.078H3.081a14.953,14.953,0,0,1-2-.091Zm22.659,3.419a30.883,30.883,0,0,0-4.329-3.757,15.609,15.609,0,0,0,2.08-3.588,2.072,2.072,0,0,1,.39-.663l-.728-.767a2.35,2.35,0,0,1-1.027.13L15.8,5.614h-.351A10.044,10.044,0,0,1,14.1,5.536l.039,1.417a11.954,11.954,0,0,1,1.664-.1l3.77-.065c.169,0,.247,0,.4-.013a1.032,1.032,0,0,1-.052.117,1,1,0,0,0-.078.2,13.344,13.344,0,0,1-4.485,5.525,10.669,10.669,0,0,1-2.613,1.443,3.909,3.909,0,0,1,.884,1.209A15.152,15.152,0,0,0,18.6,11.451a25.553,25.553,0,0,1,4.056,3.939Z" transform="translate(400.53 560.448)" fill="#0d4b08"/><path d="M-10.062-7.878a18.615,18.615,0,0,0,.793-2.054c.13-.377.156-.455.247-.715l-1.2-.4a8.091,8.091,0,0,1-.507,1.859,10.159,10.159,0,0,1-2.067,3.484,5.672,5.672,0,0,1,.572,1.2,7.411,7.411,0,0,0,1.053-1.547c-.039.689-.039,1-.039,1.495V-.494a13.077,13.077,0,0,1-.078,1.534H-10a14.113,14.113,0,0,1-.065-1.521Zm5.538,2.652V-6.552h1.092a6.137,6.137,0,0,1,.91.052V-7.618a4.641,4.641,0,0,1-.923.065H-4.524v-.338a4.88,4.88,0,0,1,.065-.988H-5.616a4.88,4.88,0,0,1,.065.988v.338H-6.565a4.229,4.229,0,0,1-.884-.065V-6.5a5.991,5.991,0,0,1,.884-.052h1.014v1.326h-.364c-.468,0-.715-.013-1.04-.039a6.948,6.948,0,0,1,.039.923v1.807a7.051,7.051,0,0,1-.039.936c.325-.026.6-.039,1.04-.039h1.781c.351,0,.715.013,1.053.039a5.307,5.307,0,0,1-.039-.962V-4.316a5.47,5.47,0,0,1,.039-.949c-.338.026-.637.039-1.053.039Zm-1.417.975H-4.1v1.638H-5.941ZM-8.918-.637A11.881,11.881,0,0,1-9,.936h1.157v-.6h5.707v.6H-.988A12.738,12.738,0,0,1-1.053-.715V-8.788A13.74,13.74,0,0,1-1-10.322a13.336,13.336,0,0,1-1.443.052H-7.67a12.714,12.714,0,0,1-1.3-.052,13.528,13.528,0,0,1,.052,1.43Zm1.079-8.58h5.707v8.5H-7.839ZM5.8-9.841H2.6c-.754,0-1.17-.013-1.612-.052a6.679,6.679,0,0,1,.052.923v.676c0,.286-.013.572-.026.728C1-7.358,1-7.358.988-7.2H2.171V-8.8h8.71v1.573h1.2a5.7,5.7,0,0,1-.065-1v-.689a6.311,6.311,0,0,1,.052-.975c-.455.039-.845.052-1.69.052H6.994v-.247a4.289,4.289,0,0,1,.078-.858H5.72a4.479,4.479,0,0,1,.078.858ZM4.563-6.734a9.614,9.614,0,0,1-.884,1.5c-.663.026-.819.026-1.183.026a6.247,6.247,0,0,1-.923-.039l.143,1.118a2.9,2.9,0,0,1,.442-.052C4.771-4.277,7.267-4.42,9.607-4.6c.26.273.416.442.845.936l.884-.741A24.56,24.56,0,0,0,8.723-6.734L7.852-6.2a8.383,8.383,0,0,1,.871.741c-1.014.078-1.014.078-3.8.2a9.952,9.952,0,0,0,.884-1.469H9.022a9.51,9.51,0,0,1,1.443.065V-7.787A12.679,12.679,0,0,1,9-7.735H4.03a12.733,12.733,0,0,1-1.443-.052v1.118a10.386,10.386,0,0,1,1.547-.065ZM7.02-3v-.1a6.911,6.911,0,0,1,.065-.975H5.772a7.2,7.2,0,0,1,.065.975V-3H3.367a9.232,9.232,0,0,1-1.4-.065v1.157a10.019,10.019,0,0,1,1.391-.065H5.837V-.52H2.34A10.331,10.331,0,0,1,.715-.6V.611A14.868,14.868,0,0,1,2.444.533H10.6A15.217,15.217,0,0,1,12.35.611V-.6a11.973,11.973,0,0,1-1.625.078H7.02V-1.976h2.7a9.836,9.836,0,0,1,1.365.065V-3.068A8.994,8.994,0,0,1,9.75-3ZM-7.891,6.277-7.4,6a8.685,8.685,0,0,0-1.352-1.95l-.806.4A9.026,9.026,0,0,1-8.424,6.043h-6.8a10.238,10.238,0,0,1-1.755-.1V7.4A11.617,11.617,0,0,1-15.249,7.3h6.2a9.351,9.351,0,0,1-4,5.876,10.5,10.5,0,0,1-2.886,1.352A3.8,3.8,0,0,1-15,15.806a12.578,12.578,0,0,0,4.134-2.548A11.311,11.311,0,0,0-7.7,7.785a2.44,2.44,0,0,1,.312-.9Zm.1-2.236a9.922,9.922,0,0,1,1.326,1.95l.793-.455a8.083,8.083,0,0,0-1.339-1.9Zm2.561,6.734a18.539,18.539,0,0,1,2.015-.065H3.8a19.111,19.111,0,0,1,1.95.065V9.267a13.236,13.236,0,0,1-1.937.078H-3.224a14.953,14.953,0,0,1-2-.091Zm22.659,3.419A30.883,30.883,0,0,0,13.1,10.437a15.609,15.609,0,0,0,2.08-3.588,2.072,2.072,0,0,1,.39-.663l-.728-.767a2.35,2.35,0,0,1-1.027.13L9.49,5.614H9.139A10.044,10.044,0,0,1,7.8,5.536l.039,1.417a11.954,11.954,0,0,1,1.664-.1l3.77-.065c.169,0,.247,0,.4-.013a1.031,1.031,0,0,1-.052.117,1,1,0,0,0-.078.2,13.344,13.344,0,0,1-4.485,5.525,10.669,10.669,0,0,1-2.613,1.443,3.909,3.909,0,0,1,.884,1.209A15.152,15.152,0,0,0,12.3,11.451a25.553,25.553,0,0,1,4.056,3.939Z" transform="translate(336.553 560.448)" fill="#0d4b08"/><path d="M-15.379-10.465a10.613,10.613,0,0,1-2.444,2.444,18.474,18.474,0,0,1-6.786,3.367,4.482,4.482,0,0,1,.728,1.248A20.24,20.24,0,0,0-19.1-5.577V-1.2A11.062,11.062,0,0,1-19.175.52h1.547A12.632,12.632,0,0,1-17.706-1.2V-6.435a20.874,20.874,0,0,0,2.99-2.587,6.618,6.618,0,0,1,.585-.559Zm3.328,7.774.4-.52c.871-1.014,1.794-2.158,2.34-2.873.546-.741.6-.793.832-.793s.247.013,1.092.936c1.807,1.95,3.042,3.185,4.277,4.29L-1.859-.52l.7-1.5a6.961,6.961,0,0,1-1.183-.9A44.965,44.965,0,0,1-6.643-7.1C-7.605-8.19-7.878-8.372-8.476-8.372c-.65,0-1.027.26-1.781,1.261-.637.845-1.911,2.353-2.275,2.717a2.541,2.541,0,0,1-.455.364Zm6.825-6.084A9.554,9.554,0,0,1-3.874-6.786l.806-.442A8.685,8.685,0,0,0-4.42-9.178Zm1.547-.741a9.922,9.922,0,0,1,1.326,1.95l.793-.455A8.083,8.083,0,0,0-2.9-9.919Zm4.849,1.1a14.159,14.159,0,0,1,3.237,2.6l.936-1.157A17.757,17.757,0,0,0,2.067-9.451ZM1.482.117A5.49,5.49,0,0,1,2.3-.091a13.455,13.455,0,0,0,4.914-1.95,11.285,11.285,0,0,0,4.056-5.044A4.389,4.389,0,0,1,10.14-8.151,11.383,11.383,0,0,1,8.775-5.525,8.926,8.926,0,0,1,4.9-2.366a11.753,11.753,0,0,1-3.822.975ZM17.55.507a14.88,14.88,0,0,1-.078-1.664V-4.225c0-.13-.013-.533-.013-.65a4.4,4.4,0,0,1-.026-.507,1.6,1.6,0,0,0,.416.221c.7.3,2.119,1,3.107,1.534a15.574,15.574,0,0,1,1.612.988l.754-1.287a34.975,34.975,0,0,0-5.85-2.743v-2.2a12.242,12.242,0,0,1,.078-1.586H16.016a8.33,8.33,0,0,1,.078,1.56v7.735A12.184,12.184,0,0,1,16.016.507ZM-16.432,14.194a30.883,30.883,0,0,0-4.329-3.757,15.609,15.609,0,0,0,2.08-3.588,2.072,2.072,0,0,1,.39-.663l-.728-.767a2.35,2.35,0,0,1-1.027.13l-4.329.065h-.351a10.044,10.044,0,0,1-1.339-.078l.039,1.417a11.954,11.954,0,0,1,1.664-.1l3.77-.065c.169,0,.247,0,.4-.013a1.032,1.032,0,0,1-.052.117,1,1,0,0,0-.078.2A13.344,13.344,0,0,1-24.8,12.608a10.669,10.669,0,0,1-2.613,1.443,3.909,3.909,0,0,1,.884,1.209,15.152,15.152,0,0,0,4.966-3.809,25.553,25.553,0,0,1,4.056,3.939Zm1.781-1.911.4-.52c.871-1.027,1.794-2.171,2.34-2.886.546-.741.6-.78.832-.78s.247.013,1.092.923a60.032,60.032,0,0,0,4.277,4.29l1.248,1.131.7-1.495a6.961,6.961,0,0,1-1.183-.9,43.454,43.454,0,0,1-4.3-4.186c-.975-1.079-1.235-1.274-1.833-1.274-.65,0-1.027.273-1.781,1.261-.637.845-1.9,2.34-2.275,2.717a2.541,2.541,0,0,1-.455.364Zm8.619-6.916A1.5,1.5,0,0,0-7.527,6.875,1.5,1.5,0,0,0-6.032,8.383,1.509,1.509,0,0,0-4.524,6.875,1.509,1.509,0,0,0-6.032,5.367Zm0,.624a.885.885,0,0,1,.884.884.893.893,0,0,1-.884.884A.882.882,0,0,1-6.9,6.875.882.882,0,0,1-6.032,5.991Zm3.471,4.784A18.539,18.539,0,0,1-.546,10.71H6.461a19.111,19.111,0,0,1,1.95.065V9.267a13.236,13.236,0,0,1-1.937.078H-.559a14.953,14.953,0,0,1-2-.091ZM20.1,14.194a30.883,30.883,0,0,0-4.329-3.757,15.609,15.609,0,0,0,2.08-3.588,2.072,2.072,0,0,1,.39-.663l-.728-.767a2.35,2.35,0,0,1-1.027.13l-4.329.065H11.8a10.044,10.044,0,0,1-1.339-.078L10.5,6.953a11.954,11.954,0,0,1,1.664-.1l3.77-.065c.169,0,.247,0,.4-.013a1.032,1.032,0,0,1-.052.117,1,1,0,0,0-.078.2,13.344,13.344,0,0,1-4.485,5.525,10.669,10.669,0,0,1-2.613,1.443A3.909,3.909,0,0,1,10,15.26a15.152,15.152,0,0,0,4.966-3.809,25.553,25.553,0,0,1,4.056,3.939Zm7.709-.65V15h-5.98l.468-.468q1.287-1.287,2.021-2.1a10.163,10.163,0,0,0,1.222-1.638,3.1,3.1,0,0,0,.488-1.567A1.36,1.36,0,0,0,25.6,8.149a1.557,1.557,0,0,0-1.066-.377,1.414,1.414,0,0,0-1.066.39,1.225,1.225,0,0,0-.377.871,1.866,1.866,0,0,0,.507,1.339l-.923.845a1.862,1.862,0,0,1-.761-.929,3.074,3.074,0,0,1-.292-1.215A2.612,2.612,0,0,1,22,7.72a2.726,2.726,0,0,1,1.1-1.02,3.564,3.564,0,0,1,1.7-.384,2.8,2.8,0,0,1,1.462.384,2.676,2.676,0,0,1,.994,1.02A2.81,2.81,0,0,1,27.6,9.1a3.459,3.459,0,0,1-.338,1.469,7.314,7.314,0,0,1-.812,1.352q-.475.624-1.332,1.625Z" transform="translate(297.674 396.946)" fill="#0d4b08"/><path d="M-15.379-10.465a10.613,10.613,0,0,1-2.444,2.444,18.474,18.474,0,0,1-6.786,3.367,4.482,4.482,0,0,1,.728,1.248A20.24,20.24,0,0,0-19.1-5.577V-1.2A11.062,11.062,0,0,1-19.175.52h1.547A12.632,12.632,0,0,1-17.706-1.2V-6.435a20.874,20.874,0,0,0,2.99-2.587,6.618,6.618,0,0,1,.585-.559Zm3.328,7.774.4-.52c.871-1.014,1.794-2.158,2.34-2.873.546-.741.6-.793.832-.793s.247.013,1.092.936c1.807,1.95,3.042,3.185,4.277,4.29L-1.859-.52l.7-1.5a6.961,6.961,0,0,1-1.183-.9A44.965,44.965,0,0,1-6.643-7.1C-7.605-8.19-7.878-8.372-8.476-8.372c-.65,0-1.027.26-1.781,1.261-.637.845-1.911,2.353-2.275,2.717a2.541,2.541,0,0,1-.455.364Zm6.825-6.084A9.554,9.554,0,0,1-3.874-6.786l.806-.442A8.685,8.685,0,0,0-4.42-9.178Zm1.547-.741a9.922,9.922,0,0,1,1.326,1.95l.793-.455A8.083,8.083,0,0,0-2.9-9.919Zm4.849,1.1a14.159,14.159,0,0,1,3.237,2.6l.936-1.157A17.757,17.757,0,0,0,2.067-9.451ZM1.482.117A5.49,5.49,0,0,1,2.3-.091a13.455,13.455,0,0,0,4.914-1.95,11.285,11.285,0,0,0,4.056-5.044A4.389,4.389,0,0,1,10.14-8.151,11.383,11.383,0,0,1,8.775-5.525,8.926,8.926,0,0,1,4.9-2.366a11.753,11.753,0,0,1-3.822.975ZM17.55.507a14.88,14.88,0,0,1-.078-1.664V-4.225c0-.13-.013-.533-.013-.65a4.4,4.4,0,0,1-.026-.507,1.6,1.6,0,0,0,.416.221c.7.3,2.119,1,3.107,1.534a15.574,15.574,0,0,1,1.612.988l.754-1.287a34.975,34.975,0,0,0-5.85-2.743v-2.2a12.242,12.242,0,0,1,.078-1.586H16.016a8.33,8.33,0,0,1,.078,1.56v7.735A12.184,12.184,0,0,1,16.016.507Zm-32.52,13.687A30.883,30.883,0,0,0-19.3,10.437a15.609,15.609,0,0,0,2.08-3.588,2.072,2.072,0,0,1,.39-.663l-.728-.767a2.35,2.35,0,0,1-1.027.13l-4.329.065h-.351A10.044,10.044,0,0,1-24.6,5.536l.039,1.417a11.954,11.954,0,0,1,1.664-.1l3.77-.065c.169,0,.247,0,.4-.013a1.031,1.031,0,0,1-.052.117,1,1,0,0,0-.078.2,13.344,13.344,0,0,1-4.485,5.525,10.669,10.669,0,0,1-2.613,1.443,3.909,3.909,0,0,1,.884,1.209A15.152,15.152,0,0,0-20.1,11.451a25.553,25.553,0,0,1,4.056,3.939Zm1.781-1.911.4-.52c.871-1.027,1.794-2.171,2.34-2.886.546-.741.6-.78.832-.78s.247.013,1.092.923a60.032,60.032,0,0,0,4.277,4.29L-3,14.441l.7-1.495a6.961,6.961,0,0,1-1.183-.9,43.454,43.454,0,0,1-4.3-4.186c-.975-1.079-1.235-1.274-1.833-1.274-.65,0-1.027.273-1.781,1.261-.637.845-1.9,2.34-2.275,2.717a2.541,2.541,0,0,1-.455.364Zm8.619-6.916A1.5,1.5,0,0,0-6.064,6.875,1.5,1.5,0,0,0-4.569,8.383,1.509,1.509,0,0,0-3.061,6.875,1.509,1.509,0,0,0-4.569,5.367Zm0,.624a.885.885,0,0,1,.884.884.893.893,0,0,1-.884.884.882.882,0,0,1-.871-.884A.882.882,0,0,1-4.569,5.991ZM-1.1,10.775A18.539,18.539,0,0,1,.917,10.71H7.924a19.111,19.111,0,0,1,1.95.065V9.267a13.236,13.236,0,0,1-1.937.078H.9a14.953,14.953,0,0,1-2-.091ZM21.56,14.194a30.883,30.883,0,0,0-4.329-3.757,15.609,15.609,0,0,0,2.08-3.588,2.072,2.072,0,0,1,.39-.663l-.728-.767a2.35,2.35,0,0,1-1.027.13l-4.329.065h-.351a10.044,10.044,0,0,1-1.339-.078l.039,1.417a11.954,11.954,0,0,1,1.664-.1l3.77-.065c.169,0,.247,0,.4-.013a1.031,1.031,0,0,1-.052.117,1,1,0,0,0-.078.2,13.344,13.344,0,0,1-4.485,5.525,10.669,10.669,0,0,1-2.613,1.443,3.909,3.909,0,0,1,.884,1.209,15.152,15.152,0,0,0,4.966-3.809,25.553,25.553,0,0,1,4.056,3.939ZM25.642,6.42V15H24.122V7.876h-.858V6.42Z" transform="translate(360.036 669.169)" fill="#0d4b08"/></g><g clip-path="url(#c)"><path d="M3-1H330.708a4,4,0,0,1,4,4V228.112a4,4,0,0,1-4,4H3a4,4,0,0,1-4-4V3A4,4,0,0,1,3-1ZM330.708,230.112a2,2,0,0,0,2-2V3a2,2,0,0,0-2-2H3A2,2,0,0,0,1,3V228.112a2,2,0,0,0,2,2Z" transform="translate(0.831 38.559)" fill="#0d4b08"/><path d="M186.915,492.039a1,1,0,0,1-1-1V378.971h-8.6a1.493,1.493,0,0,0-1.492,1.492v8.118a3.5,3.5,0,0,1-3.492,3.492H107.138a3.5,3.5,0,0,1-3.492-3.492V324.7a1,1,0,0,1,2,0V388.58a1.493,1.493,0,0,0,1.492,1.492h65.191a1.493,1.493,0,0,0,1.492-1.492v-8.118a3.5,3.5,0,0,1,3.492-3.492h10.6V491.039A1,1,0,0,1,186.915,492.039Z" transform="translate(-17.734 -55.027)" fill="#0d4b08"/><path d="M388.212,539.537a1,1,0,0,1-1-1V450.576a3.5,3.5,0,0,1,3.492-3.492h8.729a1.493,1.493,0,0,0,1.492-1.492V376.476a1.493,1.493,0,0,0-1.492-1.492H390.7a3.5,3.5,0,0,1-3.492-3.492V331.607h36.547a1.493,1.493,0,0,0,1.492-1.492V59.513a1.493,1.493,0,0,0-1.492-1.492h-23.43a1,1,0,0,1,0-2h23.43a3.5,3.5,0,0,1,3.492,3.492v270.6a3.5,3.5,0,0,1-3.492,3.492H389.212v37.885a1.493,1.493,0,0,0,1.492,1.492h8.729a3.5,3.5,0,0,1,3.492,3.492v69.117a3.5,3.5,0,0,1-3.492,3.492H390.7a1.493,1.493,0,0,0-1.492,1.492v87.961A1,1,0,0,1,388.212,539.537Z" transform="translate(-65.79 -9.663)" fill="#0d4b08"/><path d="M142.736,864.076a85.944,85.944,0,0,1-34.023-7,87.681,87.681,0,0,1-14.861-8.185,89.2,89.2,0,0,1-31.908-39.237A88.155,88.155,0,0,1,115.6,692.251c.121-.04,3-.985,7.711-2.068a124.291,124.291,0,0,1,18.718-2.833,3.495,3.495,0,0,1,3.735,3.486v9.048a1.493,1.493,0,0,0,1.492,1.492h30.447V636.791a1,1,0,0,1,2,0V852.855a3.479,3.479,0,0,1-2.1,3.2C165.066,861.453,153.66,864.076,142.736,864.076Zm-.457-174.734q-.053,0-.107,0a119.45,119.45,0,0,0-25.941,4.8A86.022,86.022,0,0,0,63.79,808.888a87.236,87.236,0,0,0,31.191,38.356,85.673,85.673,0,0,0,14.522,8,83.944,83.944,0,0,0,33.233,6.834c10.647,0,21.795-2.569,34.081-7.854a1.481,1.481,0,0,0,.888-1.366V703.375H147.258a3.5,3.5,0,0,1-3.492-3.492v-9.048a1.5,1.5,0,0,0-1.488-1.495Z" transform="translate(-9.525 -107.917)" fill="#0d4b08"/><path d="M-1-1H43.34V80.39H-1ZM41.34,1H1V78.39H41.34Z" transform="translate(169.181 635.68)" fill="#0d4b08"/><path d="M307.714,899.3a3.464,3.464,0,0,1-2.512-1.066l-51.24-53.08a1,1,0,0,1-.281-.695V765.391a1,1,0,0,1,1-1H361.1a1,1,0,0,1,1,1v80a3.516,3.516,0,0,1-1.034,2.481l-50.914,50.432-.009.009A3.475,3.475,0,0,1,307.714,899.3Zm-52.032-55.245,50.959,52.789a1.493,1.493,0,0,0,2.106.04l50.909-50.427a1.483,1.483,0,0,0,.442-1.06v-79H255.682Z" transform="translate(-43.161 -129.711)" fill="#0d4b08"/><path d="M530.041,793.741,582.92,846.62l-53.91,53.91a3.492,3.492,0,0,1-4.937,0l-47.942-47.942a3.5,3.5,0,0,1,0-4.938Zm50.05,52.879-50.05-50.05-52.5,52.495a1.494,1.494,0,0,0,0,2.11l47.942,47.942a1.492,1.492,0,0,0,2.109,0Z" transform="translate(-80.686 -134.755)" fill="#0d4b08"/><path d="M530.041,793.741,582.92,846.62l-53.91,53.91a3.492,3.492,0,0,1-4.937,0l-47.942-47.942a3.5,3.5,0,0,1,0-4.938Zm50.05,52.879-50.05-50.05-52.5,52.495a1.494,1.494,0,0,0,0,2.11l47.942,47.942a1.492,1.492,0,0,0,2.109,0Z" transform="translate(-80.686 -134.755)" fill="#0d4b08"/><path d="M652.093,902.923a3.469,3.469,0,0,1-2.469-1.023l-51.848-51.848,53.909-53.908a3.492,3.492,0,0,1,4.938,0L706,845.522a3.491,3.491,0,0,1,0,4.938l-51.44,51.44A3.469,3.469,0,0,1,652.093,902.923ZM600.6,850.052l50.434,50.434a1.491,1.491,0,0,0,2.11,0l51.44-51.44a1.491,1.491,0,0,0,0-2.11l-49.378-49.378a1.492,1.492,0,0,0-2.11,0Z" transform="translate(-101.545 -134.919)" fill="#0d4b08"/><path d="M750.723,697.04l.707.707,52.107,52.107a3.492,3.492,0,0,1,0,4.937L753.5,804.829a3.491,3.491,0,0,1-4.938,0l-50.344-50.344a3.5,3.5,0,0,1,0-4.938Zm.306,106.813a1.482,1.482,0,0,0,1.055-.437l50.039-50.039a1.492,1.492,0,0,0,0-2.109l-51.4-51.4L699.63,750.961a1.494,1.494,0,0,0,0,2.11l50.344,50.344A1.482,1.482,0,0,0,751.029,803.852Z" transform="translate(-118.323 -118.367)" fill="#0d4b08"/><path d="M748.235,680.807l-52.189-52.189.707-.707,55.868-55.868,49.719,49.719a3.5,3.5,0,0,1,0,4.938Zm-49.36-52.189,49.36,49.36,52.692-52.693a1.494,1.494,0,0,0,0-2.11l-48.3-48.3Z" transform="translate(-118.199 -97.184)" fill="#0d4b08"/><path d="M691.934,624.505,664.868,597.44a3.5,3.5,0,0,1,0-4.938l51.637-51.637a3.491,3.491,0,0,1,4.938,0L748.51,567.93l-.707.707Zm27.04-82.664a1.482,1.482,0,0,0-1.055.437l-51.637,51.637a1.494,1.494,0,0,0,0,2.11l25.652,25.651,53.747-53.747-25.652-25.651A1.482,1.482,0,0,0,718.974,541.841Z" transform="translate(-112.672 -91.657)" fill="#0d4b08"/><path d="M0,27.315a1,1,0,0,1-.707-.293,1,1,0,0,1,0-1.414L25.608-.707a1,1,0,0,1,1.414,0,1,1,0,0,1,0,1.414L.707,27.022A1,1,0,0,1,0,27.315Z" transform="translate(597.294 678.419)" fill="#0d4b08"/><path d="M593.479,633.147H388.211a1,1,0,0,1,0-2H592.647l24.473-24.63a1,1,0,0,1,1.419,1.41Z" transform="translate(-65.79 -102.906)" fill="#0d4b08"/><path d="M-1-1H67.755V81.708H-1ZM65.755,1H1V79.708H65.755Z" transform="translate(169.181 322.944)" fill="#0d4b08"/><path d="M316.75,431.6V387.84h60.521V411.7Zm2-41.758v39l56.521-18.58V389.84Z" transform="translate(-53.849 -65.897)" fill="#0d4b08"/><path d="M377.271,568.324H320.242a3.5,3.5,0,0,1-3.492-3.492V526.489l60.521,20.395Zm-58.521-39.05v35.559a1.493,1.493,0,0,0,1.492,1.492h55.029v-18Z" transform="translate(-53.849 -89.46)" fill="#0d4b08"/><path d="M1,74.1H-1V0H1Z" transform="translate(263.901 364.321)" fill="#0d4b08"/><path d="M-1-1H67.755V33.361H-1ZM65.755,1H1V31.361H65.755Z" transform="translate(169.181 403.652)" fill="#0d4b08"/><path d="M267.966,678.553H202.7V573h68.755V675.061A3.5,3.5,0,0,1,267.966,678.553Zm-63.264-2h63.264a1.493,1.493,0,0,0,1.492-1.492V575H204.7Z" transform="translate(-34.521 -97.276)" fill="#0d4b08"/><path d="M-1-1H67.755V41.712H-1ZM65.755,1H1V39.712H65.755Z" transform="translate(169.181 436.012)" fill="#0d4b08"/><path d="M-1-1H39.849V70.984H-1ZM37.849,1H1V68.984H37.849Z" transform="translate(318.671 529.241)" fill="#0d4b08"/><path d="M-1-1H91.333V70.984H-1ZM89.333,1H1V68.984H89.333Z" transform="translate(357.52 529.241)" fill="#0d4b08"/><path d="M532.274,790.559a1,1,0,0,1-.719-.305l-26.189-27.113h-5.706a1.5,1.5,0,0,0-1.059.441l-8.609,8.683a1,1,0,1,1-1.42-1.408l8.608-8.683a3.513,3.513,0,0,1,2.479-1.033h6.555l26.779,27.723a1,1,0,0,1-.719,1.695Z" transform="translate(-82.919 -129.16)" fill="#0d4b08"/><path d="M33.113,34.521a1,1,0,0,1-.711-.3L-.711.7A1,1,0,0,1-.7-.711,1,1,0,0,1,.711-.7L33.825,32.818a1,1,0,0,1-.711,1.7Z" transform="translate(576.659 658.246)" fill="#0d4b08"/><path d="M.7,13.211-.7,11.791,11.9-.71,13.306.71Z" transform="translate(564.621 659.767)" fill="#0d4b08"/><path d="M.7,13.211-.7,11.791,11.9-.71,13.306.71Z" transform="translate(567.783 662.929)" fill="#0d4b08"/><path d="M.7,13.211-.7,11.791,11.9-.71,13.306.71Z" transform="translate(570.946 666.091)" fill="#0d4b08"/><path d="M.7,13.211-.7,11.791,11.9-.71,13.306.71Z" transform="translate(574.108 669.253)" fill="#0d4b08"/><path d="M.7,13.211-.7,11.791,11.9-.71,13.306.71Z" transform="translate(577.27 672.416)" fill="#0d4b08"/><path d="M.7,13.211-.7,11.791,11.9-.71,13.306.71Z" transform="translate(580.433 675.578)" fill="#0d4b08"/><path d="M.7,13.211-.7,11.791,11.9-.71,13.306.71Z" transform="translate(583.595 678.74)" fill="#0d4b08"/><path d="M.7,13.211-.7,11.791,11.9-.71,13.306.71Z" transform="translate(577.951 646.436)" fill="#0d4b08"/><path d="M.7,13.211-.7,11.791,11.9-.71,13.306.71Z" transform="translate(581.114 649.599)" fill="#0d4b08"/><path d="M.7,13.211-.7,11.791,11.9-.71,13.306.71Z" transform="translate(584.276 652.761)" fill="#0d4b08"/><path d="M.7,13.211-.7,11.791,11.9-.71,13.306.71Z" transform="translate(587.438 655.923)" fill="#0d4b08"/><path d="M.7,13.211-.7,11.791,11.9-.71,13.306.71Z" transform="translate(590.6 659.086)" fill="#0d4b08"/><path d="M.7,13.211-.7,11.791,11.9-.71,13.306.71Z" transform="translate(593.763 662.248)" fill="#0d4b08"/><path d="M.7,13.211-.7,11.791,11.9-.71,13.306.71Z" transform="translate(596.925 665.41)" fill="#0d4b08"/><path d="M326.141,265.6H54.416V65.829H326.141a3.5,3.5,0,0,1,3.492,3.492V262.108A3.5,3.5,0,0,1,326.141,265.6Zm-269.725-2H326.141a1.493,1.493,0,0,0,1.492-1.492V69.321a1.493,1.493,0,0,0-1.492-1.492H56.416Z" transform="translate(-9.487 -11.576)" fill="#0d4b08"/><path d="M20.929,65.828H32.84a3.5,3.5,0,0,1,3.492,3.492v48.091A3.5,3.5,0,0,1,32.84,120.9H12.649a3.5,3.5,0,0,1-3.492-3.492V97.12L15.972,97a1.5,1.5,0,0,0,1.465-1.492V69.32A3.5,3.5,0,0,1,20.929,65.828ZM32.84,118.9a1.493,1.493,0,0,0,1.492-1.492V69.32a1.493,1.493,0,0,0-1.492-1.492H20.929a1.493,1.493,0,0,0-1.492,1.492V95.509A3.492,3.492,0,0,1,16.008,99l-4.851.085v18.326a1.493,1.493,0,0,0,1.492,1.492Z" transform="translate(-1.721 -11.325)" fill="#0d4b08"/><path d="M0,53.78a1,1,0,0,1-1-1V0A1,1,0,0,1,0-1,1,1,0,0,1,1,0V52.78A1,1,0,0,1,0,53.78Z" transform="translate(39.9 55.32)" fill="#0d4b08"/><path d="M0,54.01a1,1,0,0,1-1-1V0A1,1,0,0,1,0-1,1,1,0,0,1,1,0V53.01A1,1,0,0,1,0,54.01Z" transform="translate(39.9 201.223)" fill="#0d4b08"/><path d="M0,34.9a1,1,0,0,1-1-1V0A1,1,0,0,1,0-1,1,1,0,0,1,1,0V33.9A1,1,0,0,1,0,34.9Z" transform="translate(8.436 55.327)" fill="#0d4b08"/><path d="M6.29,1H0V-1H6.29Z" transform="translate(33.61 57.818)" fill="#0d4b08"/><path d="M6.29,1H0V-1H6.29Z" transform="translate(33.61 62.318)" fill="#0d4b08"/><path d="M6.29,1H0V-1H6.29Z" transform="translate(33.61 66.818)" fill="#0d4b08"/><path d="M6.29,1H0V-1H6.29Z" transform="translate(33.61 71.317)" fill="#0d4b08"/><path d="M6.29,1H0V-1H6.29Z" transform="translate(33.61 75.817)" fill="#0d4b08"/><path d="M6.29,1H0V-1H6.29Z" transform="translate(33.61 80.317)" fill="#0d4b08"/><path d="M6.29,1H0V-1H6.29Z" transform="translate(33.61 227.401)" fill="#0d4b08"/><path d="M6.29,1H0V-1H6.29Z" transform="translate(33.61 231.901)" fill="#0d4b08"/><path d="M6.29,1H0V-1H6.29Z" transform="translate(33.61 236.401)" fill="#0d4b08"/><path d="M6.29,1H0V-1H6.29Z" transform="translate(33.61 240.9)" fill="#0d4b08"/><path d="M6.29,1H0V-1H6.29Z" transform="translate(33.61 245.4)" fill="#0d4b08"/><path d="M6.29,1H0V-1H6.29Z" transform="translate(33.61 249.9)" fill="#0d4b08"/><path d="M7.587,1H0V-1H7.587Z" transform="translate(9.129 57.818)" fill="#0d4b08"/><path d="M7.587,1H0V-1H7.587Z" transform="translate(9.129 62.318)" fill="#0d4b08"/><path d="M7.587,1H0V-1H7.587Z" transform="translate(9.129 66.818)" fill="#0d4b08"/><path d="M7.587,1H0V-1H7.587Z" transform="translate(9.129 71.317)" fill="#0d4b08"/><path d="M7.587,1H0V-1H7.587Z" transform="translate(9.129 75.817)" fill="#0d4b08"/><path d="M7.587,1H0V-1H7.587Z" transform="translate(9.129 80.317)" fill="#0d4b08"/><path d="M31.721,299.372H0V240.28H31.721a3.5,3.5,0,0,1,3.492,3.492v52.109A3.5,3.5,0,0,1,31.721,299.372ZM2,297.372H31.721a1.493,1.493,0,0,0,1.492-1.492V243.772a1.493,1.493,0,0,0-1.492-1.492H2Z" transform="translate(-0.169 -40.89)" fill="#0d4b08"/><path d="M18.692,323.7H37.947v5.377a3.5,3.5,0,0,1-3.492,3.492H22.184a3.5,3.5,0,0,1-3.492-3.492Zm17.255,2H20.692v3.377a1.493,1.493,0,0,0,1.492,1.492H34.455a1.493,1.493,0,0,0,1.492-1.492Z" transform="translate(-3.337 -55.027)" fill="#0d4b08"/><path d="M27.561,1H0A1,1,0,0,1-1,0,1,1,0,0,1,0-1H27.561a1,1,0,0,1,1,1A1,1,0,0,1,27.561,1Z" transform="translate(235.936 322.944)" fill="#0d4b08"/><path d="M1,16.944H-1V0H1Z" transform="translate(46.025 38.559)" fill="#0d4b08"/><path d="M1,16.4H-1V0H1Z" transform="translate(46.025 253.274)" fill="#0d4b08"/><path d="M1,13.782H-1V0H1Z" transform="translate(299.712 478.241)" fill="#0d4b08"/><path d="M1,13.782H-1V0H1Z" transform="translate(290.685 478.241)" fill="#0d4b08"/><path d="M1,13.782H-1V0H1Z" transform="translate(295.199 478.241)" fill="#0d4b08"/><path d="M1,13.782H-1V0H1Z" transform="translate(286.172 478.241)" fill="#0d4b08"/><path d="M1,13.782H-1V0H1Z" transform="translate(281.659 478.285)" fill="#0d4b08"/><path d="M1,13.782H-1V0H1Z" transform="translate(299.712 514.639)" fill="#0d4b08"/><path d="M1,13.782H-1V0H1Z" transform="translate(290.685 514.639)" fill="#0d4b08"/><path d="M1,13.782H-1V0H1Z" transform="translate(295.199 514.639)" fill="#0d4b08"/><path d="M1,13.782H-1V0H1Z" transform="translate(286.172 514.639)" fill="#0d4b08"/><path d="M379.894,634.895H339.132a1,1,0,0,1-1-1V619.7a1,1,0,0,1,2,0v13.191h39.762a1,1,0,1,1,0,2Z" transform="translate(-57.473 -105.021)" fill="#0d4b08"/><path d="M18.694,1H0V-1H18.694Z" transform="translate(303.728 512.358)" fill="#0d4b08"/><path d="M18.694,1H0V-1H18.694Z" transform="translate(303.728 503.331)" fill="#0d4b08"/><path d="M18.694,1H0V-1H18.694Z" transform="translate(303.728 507.845)" fill="#0d4b08"/><path d="M18.694,1H0V-1H18.694Z" transform="translate(303.728 498.818)" fill="#0d4b08"/><path d="M18.694,1H0V-1H18.694Z" transform="translate(303.669 494.305)" fill="#0d4b08"/><path d="M1,22.131H-1V0H1Z" transform="translate(281.659 492.023)" fill="#0d4b08"/><path d="M359.541,616.037H333.034a1,1,0,0,1,0-2h25.506V593.42H333.034a1,1,0,0,1,0-2h26.506a1,1,0,0,1,1,1v22.616A1,1,0,0,1,359.541,616.037Z" transform="translate(-56.439 -100.398)" fill="#0d4b08"/><path d="M0-1H36.14a1,1,0,0,1,1,1V30.915a1,1,0,0,1-1,1H0a1,1,0,0,1-1-1V0A1,1,0,0,1,0-1ZM35.14,1H1V29.915H35.14Z" transform="translate(282.531 528.873)" fill="#0d4b08"/><path d="M376.322,714.45H356.575a1,1,0,0,1-.732-.319L340.22,697.323a3.513,3.513,0,0,1-1.038-2.485V674.014a1,1,0,0,1,1-1h36.14a1,1,0,0,1,1,1V713.45A1,1,0,0,1,376.322,714.45Zm-19.311-2h18.311V675.014h-34.14v19.824a1.5,1.5,0,0,0,.452,1.071l.035.036Z" transform="translate(-57.651 -114.225)" fill="#0d4b08"/><path d="M362.738,692.811h16.984a1,1,0,0,1,1,1v22.994a1,1,0,0,1-1,1H360.246a1,1,0,0,1-1-1V696.3A3.5,3.5,0,0,1,362.738,692.811Zm15.984,2H362.738a1.493,1.493,0,0,0-1.492,1.492v19.5h17.476Z" transform="translate(-61.051 -117.58)" fill="#0d4b08"/><path d="M583.147,745.572a63.462,63.462,0,0,1-20.013-3.216,3.533,3.533,0,0,1-1.362-.837l-23.247-22.373a1,1,0,0,1-.307-.721V706.657a1,1,0,0,1,2,0V718l22.945,22.082.011.01a1.523,1.523,0,0,0,.589.365,61.471,61.471,0,0,0,19.385,3.115l.475,0a60.651,60.651,0,0,0,23.507-4.9,61.853,61.853,0,0,0,10.307-5.624,62.456,62.456,0,0,0,16.493-16.38,61.833,61.833,0,0,0,5.694-10.267,60.626,60.626,0,0,0,5.061-23.472,61.523,61.523,0,0,0-2.918-19.7,1.541,1.541,0,0,0-.35-.585l-23.487-24.722a1,1,0,1,1,1.45-1.378l23.487,24.722a3.553,3.553,0,0,1,.8,1.351,63.519,63.519,0,0,1,3.014,20.336,62.615,62.615,0,0,1-5.227,24.242,63.834,63.834,0,0,1-5.879,10.6,64.459,64.459,0,0,1-17.022,16.9,63.859,63.859,0,0,1-10.641,5.806,62.643,62.643,0,0,1-24.278,5.063Z" transform="translate(-91.382 -107.992)" fill="#0d4b08"/><path d="M845.217,303.093a3.565,3.565,0,0,1,2.507,1.041,3.449,3.449,0,0,1,1,2.466l-.118,39.761a3.473,3.473,0,0,1-1.023,2.458l-62.5,62.5a3.472,3.472,0,0,1-2.471,1.023h-.022l-39.365-.278a3.492,3.492,0,0,1-2.444-5.961L842.766,304.121A3.45,3.45,0,0,1,845.217,303.093Zm-62.6,107.249a1.485,1.485,0,0,0,1.057-.437l62.5-62.5a1.5,1.5,0,0,0,.437-1.051l.118-39.76a1.44,1.44,0,0,0-.419-1.048,1.551,1.551,0,0,0-1.091-.453,1.441,1.441,0,0,0-1.037.442L742.2,407.517a1.492,1.492,0,0,0,1.044,2.547Z" transform="translate(-125.536 -51.535)" fill="#0d4b08"/><path d="M576.86,33.954a3.492,3.492,0,0,1,2.468,5.96L477.346,141.9a3.449,3.449,0,0,1-2.451,1.027,3.58,3.58,0,0,1-2.409-.946,3.439,3.439,0,0,1-1.1-2.525l-.278-39.365a3.515,3.515,0,0,1,1.021-2.493l62.5-62.5a3.472,3.472,0,0,1,2.457-1.023ZM474.9,140.925a1.44,1.44,0,0,0,1.036-.441L577.914,38.5a1.492,1.492,0,0,0-1.054-2.546l-39.766.118a1.5,1.5,0,0,0-1.05.437l-62.5,62.5a1.5,1.5,0,0,0-.436,1.065l.278,39.365A1.491,1.491,0,0,0,474.9,140.925Z" transform="translate(-80.008 -5.924)" fill="#0d4b08"/><path d="M816.582,207.94a3.469,3.469,0,0,1-2.469-1.023L637.247,30.051a3.5,3.5,0,0,1,0-4.938L661.338,1.022a3.492,3.492,0,0,1,4.937,0L843.142,177.888a3.5,3.5,0,0,1,0,4.937l-24.091,24.091A3.469,3.469,0,0,1,816.582,207.94ZM663.807,2a1.481,1.481,0,0,0-1.055.437L638.661,26.527a1.494,1.494,0,0,0,0,2.11L815.527,205.5a1.491,1.491,0,0,0,2.11,0l24.091-24.091a1.493,1.493,0,0,0,0-2.109L664.861,2.436A1.481,1.481,0,0,0,663.807,2Z" transform="translate(-107.991 -0.169)" fill="#0d4b08"/><path d="M385.3,761.141h75.836a3.506,3.506,0,0,1,2.529,1.084l8.511,8.939-.406,62.267-9.356,9.356-.417,0-80.188-.44V764.633A3.5,3.5,0,0,1,385.3,761.141Zm84.871,10.817L462.22,763.6a1.5,1.5,0,0,0-1.081-.463H385.3a1.493,1.493,0,0,0-1.492,1.492v75.722l77.782.427,8.185-8.185Z" transform="translate(-64.875 -129.16)" fill="#0d4b08"/><path d="M168.471,343.119l-56.293-.06a3.5,3.5,0,0,1-3.491-3.492V280.62a1,1,0,0,1,2,0v58.948a1.493,1.493,0,0,0,1.492,1.492l56.293.06a1.493,1.493,0,0,0,1.491-1.492v-7.584a3.5,3.5,0,0,1,3.492-3.492H372.726a1.493,1.493,0,0,0,1.492-1.492V64.037a1.493,1.493,0,0,0-1.492-1.492H353.793a1,1,0,0,1,0-2h18.933a3.5,3.5,0,0,1,3.492,3.492V327.06a3.5,3.5,0,0,1-3.492,3.492H173.454a1.493,1.493,0,0,0-1.492,1.492v7.584A3.5,3.5,0,0,1,168.471,343.119Z" transform="translate(-18.589 -10.43)" fill="#0d4b08"/><path d="M-31.46-2.314a3.5,3.5,0,0,1,.78,1A11.573,11.573,0,0,0-28.7-3.458a11.573,11.573,0,0,0,1.469-2.717c-.026.676-.026.936-.026,1.573v2.054h-.949A7.118,7.118,0,0,1-29.224-2.6v1.157a7.231,7.231,0,0,1,.975-.052h.988V-.364a10,10,0,0,1-.091,1.391h1.313A9.686,9.686,0,0,1-26.13-.351V-1.5h1.053a7.069,7.069,0,0,1,.988.052V-2.6a7.034,7.034,0,0,1-1,.052h-1.04v-2.08c0-.533-.013-.858-.026-1.573a12.809,12.809,0,0,0,3.6,4.953,5.16,5.16,0,0,1,.793-1.092,11.452,11.452,0,0,1-3.887-4.888h2.106a11.71,11.71,0,0,1,1.4.078V-8.385a11.254,11.254,0,0,1-1.43.078h-2.548V-9.594a9.746,9.746,0,0,1,.078-1.248h-1.313a9.746,9.746,0,0,1,.078,1.248v1.287h-2.08a13.531,13.531,0,0,1-1.365-.065V-7.15a11.4,11.4,0,0,1,1.339-.078h1.625a12.1,12.1,0,0,1-1.521,2.7A9.669,9.669,0,0,1-31.46-2.34v-5.2A24.336,24.336,0,0,0-30.212-10.6l-1.222-.351a11.168,11.168,0,0,1-2.847,5.46,5.255,5.255,0,0,1,.546,1.235,7.978,7.978,0,0,0,1.157-1.6c-.039.572-.039.845-.039,1.521V-.507A12.768,12.768,0,0,1-32.7,1.027h1.3A12.451,12.451,0,0,1-31.46-.494Zm15.626-7.54h-3.64a10.3,10.3,0,0,1-1.43-.078v1.157a10.3,10.3,0,0,1,1.365-.065h2.249A8.968,8.968,0,0,1-18.2-7.5c-.793.013-1.391.013-1.4.013a5.6,5.6,0,0,1-.871-.052l.156,1.118c.182-.026.351-.026.624-.039,3.237-.065,5.9-.2,8.164-.4a14.668,14.668,0,0,1,1.209,1.04l.832-.819A24.847,24.847,0,0,0-12.7-8.84H-10.6a10.7,10.7,0,0,1,1.352.065V-9.932a10.221,10.221,0,0,1-1.417.078h-3.991v-.234a4.564,4.564,0,0,1,.078-.884h-1.339a3.909,3.909,0,0,1,.078.9ZM-13-8.84l-.793.455a11.934,11.934,0,0,1,1.118.676c-1.3.091-2.847.169-4.264.2a13.406,13.406,0,0,0,.923-1.326Zm-5.07,7.566h5.954v.793c0,.286-.1.364-.52.364a13.755,13.755,0,0,1-1.612-.117A2.617,2.617,0,0,1-13.962.819c.559.026,1.157.052,1.456.052A1.862,1.862,0,0,0-11.349.65a1.139,1.139,0,0,0,.377-1.014V-4.537a12.3,12.3,0,0,1,.052-1.378,11.705,11.705,0,0,1-1.417.052H-17.81c-.7,0-1.131-.013-1.482-.039a8.35,8.35,0,0,1,.065,1.274V-.585A13.407,13.407,0,0,1-19.305,1h1.3A11.421,11.421,0,0,1-18.07-.468Zm0-1.807h5.954v.832H-18.07Zm5.954-.975H-18.07v-.819h5.954ZM-2.379.1A20.769,20.769,0,0,0-3.991-2.73l-.9.4a10.028,10.028,0,0,1,.637,1.066c-.585.2-.962.312-1.794.52V-3.029h2.236a7.215,7.215,0,0,1,.845.039c-.013-.273-.026-.6-.026-1.092V-6.344c0-.468.013-.78.039-1.105a6.73,6.73,0,0,1-1.04.052h-.52v-.442a3.657,3.657,0,0,1,.052-.715H-5.577a2.932,2.932,0,0,1,.065.7V-7.4h-.7c-.442,0-.741-.013-.923-.026A11,11,0,0,0-4.927-9.75,8.654,8.654,0,0,0-3.146-7.839a2.489,2.489,0,0,1,.533-.845v.767a7.457,7.457,0,0,1-.039.78h.637C-2-6.9-2-6.825-2-6.487V-.078a9,9,0,0,1-.065,1.183H-.884V.4H2.21v.676H3.38A9.628,9.628,0,0,1,3.328-.13V-2.184c0-.455.013-.754.039-1.066A7.494,7.494,0,0,1,2.314-3.2H-.9V-4.29h2.73c.429,0,.728.013,1.027.039a8.389,8.389,0,0,1-.039-.975V-7.111H3.77a7.464,7.464,0,0,1-.039-.858V-8.84a8.753,8.753,0,0,1,.039-.9,12.791,12.791,0,0,1-1.339.065H.975v-.26a4.563,4.563,0,0,1,.065-.923H-.26a5.093,5.093,0,0,1,.078.923v.26H-1.521c-.546,0-.819-.013-1.131-.039a6.089,6.089,0,0,1,.039.767v.078a6.513,6.513,0,0,1-1.807-1.95H-5.512A5.393,5.393,0,0,1-6.539-9.464,8.741,8.741,0,0,1-8.177-8.151a3.435,3.435,0,0,1,.533,1.118c.234-.169.312-.234.468-.351a10,10,0,0,1,.039,1.066v5.8a4.848,4.848,0,0,1-.871.13l.3,1.2a1.948,1.948,0,0,1,.416-.13C-5.33.143-4.485-.1-3.8-.364c.13.286.234.533.442,1.027ZM2.639-7.631a8.637,8.637,0,0,1-.871.026H-1.014c-.208,0-.3,0-.494-.013V-8.645H2.639Zm-3.523.962h2.6v1.417h-2.6Zm0,4.459H2.21V-.6H-.884ZM-6.045-5.694v-.819h2v.819Zm0,.884h2v.884h-2ZM13.494-6.019a3.011,3.011,0,0,1,.7.6A10.574,10.574,0,0,0,15.73-8.034h3.809A8.361,8.361,0,0,1,18.07-5.408a3.186,3.186,0,0,1,1.053.6,13.482,13.482,0,0,0,1.5-2.795c.182-.468.286-.741.338-.832l-.6-.715a5.487,5.487,0,0,1-.988.052H16.094c.195-.572.208-.6.3-.9a5.68,5.68,0,0,1,.247-.715l-1.3-.208a6.666,6.666,0,0,1-.377,1.651,8.82,8.82,0,0,1-1.469,2.821V-8.463c0-.806,0-.936.026-1.261a5.62,5.62,0,0,1-.91.039H10.556a8.172,8.172,0,0,1-.949-.039,12.077,12.077,0,0,1,.052,1.261v6.227A13.241,13.241,0,0,1,9.581-.728h1.2V-2.054H12.4v.728h1.131a9.475,9.475,0,0,1-.039-1.209ZM10.777-8.632H12.4v5.551H10.777Zm5.317,1.4a6.086,6.086,0,0,1,.052.806,7.724,7.724,0,0,1-.377,2.548,7.591,7.591,0,0,1-1.131,2.145,6.219,6.219,0,0,1-2.5,1.846,3.667,3.667,0,0,1,.78,1,8.817,8.817,0,0,0,2.2-1.664A6.886,6.886,0,0,0,16.8-3.757,7.88,7.88,0,0,0,18.46-.715a7.82,7.82,0,0,0,2.275,1.768,3.956,3.956,0,0,1,.65-1.2,6.358,6.358,0,0,1-3.6-3.679,7.182,7.182,0,0,1-.494-2.509,4.59,4.59,0,0,1,.052-.9Zm12.935.949c.091-.585.117-.845.182-1.456h3.341a10.258,10.258,0,0,1,1.378.078V-8.9a10.258,10.258,0,0,1-1.378.078H29.289c.026-.364.026-.429.026-.611a9.894,9.894,0,0,1,.1-1.339H28.106a6.583,6.583,0,0,1,.052,1c0,.286,0,.52-.026.949h-.208a12.766,12.766,0,0,1-1.391-.065V-7.67a11.137,11.137,0,0,1,1.378-.065h.156C27.755-4.381,26.793-1.9,25.09-.091A3.494,3.494,0,0,1,25.9.9a12.6,12.6,0,0,0,2.639-4.953,9.527,9.527,0,0,0,1.287,2.119A8.43,8.43,0,0,1,27-.013,3.471,3.471,0,0,1,27.7,1a10.673,10.673,0,0,0,2.86-2.106,11.583,11.583,0,0,0,2.9,2.145A4.258,4.258,0,0,1,34.151-.1a9.231,9.231,0,0,1-2.86-1.859,11.1,11.1,0,0,0,1.534-2.86c.26-.689.26-.715.338-.9l-.572-.611a5.814,5.814,0,0,1-.962.052Zm2.756,1.04A7.786,7.786,0,0,1,30.55-2.756a7.885,7.885,0,0,1-1.417-2.483Zm-7.9-2.08V-4.68a8.128,8.128,0,0,1-1.742.468L22.4-2.99a10.437,10.437,0,0,1,1.482-.546V-.52c0,.312-.078.377-.442.377a11.15,11.15,0,0,1-1.183-.078A4.21,4.21,0,0,1,22.5.923c.4.026.6.039.845.039h.312A2.062,2.062,0,0,0,24.6.78a.914.914,0,0,0,.429-.91V-3.939c.507-.182.767-.286,1.56-.611V-5.629c-.663.273-.884.351-1.56.572V-7.319h.416a5.9,5.9,0,0,1,.845.052V-8.411a5.49,5.49,0,0,1-.832.052h-.429V-9.516a9.3,9.3,0,0,1,.078-1.3H23.8a9.57,9.57,0,0,1,.078,1.326v1.131h-.572a6.115,6.115,0,0,1-1.027-.078v1.183a7.622,7.622,0,0,1,1.027-.065Z" transform="translate(181.634 157.646)" fill="#0d4b08"/></g></svg>