<svg xmlns="http://www.w3.org/2000/svg" xmlns:xlink="http://www.w3.org/1999/xlink" width="89.489" height="117.434" viewBox="0 0 89.489 117.434"><defs><clipPath id="a"><rect width="89.489" height="117.434" fill="none"/></clipPath></defs><g transform="translate(0 0)"><g transform="translate(0 0)" clip-path="url(#a)"><path d="M79.042,105.7c2.286-.695,4.771-3.724,5.145-8.734A76.955,76.955,0,0,0,81.824,76.33c-.291-1.452-.559-2.623-.8-3.384a61.693,61.693,0,0,0-3.357-8.98A12.89,12.89,0,0,0,73.9,58.959,26.571,26.571,0,0,0,68,55.345c-2.79-1.139-5.35-2.262-8.132-3.447-2.66,2.176-10.043,4.346-15.481,4.332A31.481,31.481,0,0,1,28.7,51.766a94.211,94.211,0,0,0-12.984,5.508c-3.864,2.086-6.023,5.686-7.357,9.339-1.5,3.992-5.045,16.5-5.735,22.243a23.128,23.128,0,0,0,.994,11.421,8.126,8.126,0,0,0,5.5,4.3c2.576.5,5.887.235,7.867-1.343a10.286,10.286,0,0,0,1.884-2.132l-.042.611c-.006.071-.167,2.656-.338,5.425H74.232l-.091-.877a14.39,14.39,0,0,0,4.9-.551" transform="translate(0.41 9.182)" fill="#fefffd"/><path d="M26.525,58.472c1.566-.721,3.358-1.555,3.421-1.579,1.672-.605,1.6-1.678,1.817-2.88a23.537,23.537,0,0,0,.316-2.435,18.706,18.706,0,0,1-4.337-3.884,21.049,21.049,0,0,1-3.876-7.131l-.4.106a2.556,2.556,0,0,1-2.321-.734,6.811,6.811,0,0,1-1.766-2.312,10.716,10.716,0,0,1-1.094-5.678,3.593,3.593,0,0,1,.374-1.439,2.585,2.585,0,0,1,4.408,0,116.885,116.885,0,0,1,13.765-13.57,23.681,23.681,0,0,0,1.379,4.356c.353.182,5.425-3.955,6.937-5.034,1,.089,1.974.246,2.553.353l.888.228a8.835,8.835,0,0,1,5.063,3.71A29.453,29.453,0,0,1,58.373,31l.532-.483a2.679,2.679,0,0,1,2.142-.623,2.534,2.534,0,0,1,1.818,1.21,3.573,3.573,0,0,1,.374,1.439,10.712,10.712,0,0,1-1.094,5.677,6.807,6.807,0,0,1-1.766,2.311,2.053,2.053,0,0,1-2.058.483l-.4-.132c-.172.642-.364,1.177-.459,1.467-.571,1.552-3.607,6.808-7.521,9.228a24.625,24.625,0,0,0,.308,2.444c.21,1.2.145,2.276,1.817,2.88.08.031,2.641,1.241,4.071,1.92,0,0-4.436,7.727-15.585,7.727s-14.025-8.078-14.025-8.078" transform="translate(3.237 2.883)" fill="#fefffd"/><path d="M53.742,9.187a4.073,4.073,0,0,0,.991,1.086,14.342,14.342,0,0,0,1.368.845c2.325,1.029,4.739,4.647,5.521,7.15,1.247,3.99,1.378,10.707.134,14.382a2.586,2.586,0,0,0-.8-.26,2.677,2.677,0,0,0-2.143.626l-.532.483a29.414,29.414,0,0,0-4.721-10.452,8.832,8.832,0,0,0-5.063-3.711l-.888-.227c-.579-.1-1.555-.261-2.553-.353-1.512,1.08-6.582,5.217-6.937,5.033a23.653,23.653,0,0,1-1.379-4.356A116.9,116.9,0,0,0,22.98,33a2.535,2.535,0,0,0-2.59-1.2,2.287,2.287,0,0,0-.459.118c-1.4-1.648-1.433-8.621-.533-12.354a17.716,17.716,0,0,1,5.638-9.106c-.353.015-2.018.162-2.078-.065a14.467,14.467,0,0,1,7.407-5.139,19.8,19.8,0,0,1,6.644-1,10.329,10.329,0,0,1-2.436-1.234,9.6,9.6,0,0,1,4.668-.824c5.378.133,12.566,2.7,14.482,7.011" transform="translate(3.333 0.383)" fill="#407b3e"/><path d="M15.726,94.29c-.147,1.8-.225,3.618-.338,5.425a.772.772,0,0,0,1.544.06.51.51,0,0,0,0-.06c.112-1.807.191-3.62.338-5.425a.779.779,0,0,0-.772-.772.788.788,0,0,0-.772.772Z" transform="translate(2.729 16.588)" fill="#211715"/><path d="M12.629,66.582c.048.385.234.743.285,1.128s-.491.849-.438,1.233.423.726.476,1.11.333.738.386,1.123.086.782.137,1.167c.013.422.164.847.585.859a.742.742,0,0,0,.662-.83c-.052-.389-.3-.746-.357-1.131s.358-.834.306-1.217-.506-.713-.558-1.1.385-.832.334-1.216-.372-.734-.42-1.119a.822.822,0,0,0-.741-.829c-.425,0-.655.393-.657.819" transform="translate(2.212 11.664)" fill="#0d4b08"/><path d="M60.125,99.094c-.029-.494-.047-.993-.093-1.486a.864.864,0,0,0-.225-.546.772.772,0,0,0-1.091,0,.755.755,0,0,0-.225.546c.047.493.065.991.093,1.486a.82.82,0,0,0,.225.546.771.771,0,0,0,1.316-.546" transform="translate(10.375 17.176)" fill="#211715"/><path d="M60.775,84.886c.053-.41-.178-.856-.125-1.266s.45-.776.5-1.186.287-.8.34-1.207-.153-.854-.1-1.263,0-.832.058-1.242.213-.807.266-1.216-.074-.843-.02-1.253.2-.808.257-1.217-.126-.85-.072-1.26.6-.755.656-1.164-.2-.861-.145-1.27-.029-.837.025-1.247.7-.742.755-1.151-.212-.862-.159-1.272-.121-.85-.068-1.26c.046-.353.113-.7.159-1.057s.348-.678.391-1.031c0-.426-.418-.662-.843-.664s-.45.26-.459.683c-.049.411-.565.781-.616,1.192s.3.871.248,1.282-.595.759-.648,1.169.166.856.112,1.267-.191.81-.245,1.22.207.863.153,1.273-.539.764-.595,1.174.228.867.173,1.276-.515.766-.57,1.176.376.885.321,1.3-.041.829-.1,1.239-.208.808-.261,1.217c-.051.386-.267.75-.317,1.136s-.237.755-.286,1.14-.179.762-.228,1.148.187.809.137,1.2-.306.751-.356,1.137a.837.837,0,0,0,.854.756.708.708,0,0,0,.685-.759c0-.014.115.011.115.011" transform="translate(10.487 11.291)" fill="#0d4b08"/><path d="M53.536,29.2a1.836,1.836,0,0,1,1.349-.433A2.081,2.081,0,0,1,56.3,29.3c.021.026-.055.148-.035.175a3.284,3.284,0,0,1,.032,1.738c.013.321.527.665.507.985s-.573.58-.625.9a9.859,9.859,0,0,1-.074,1.286,10.2,10.2,0,0,1-.292,1.274c-.177.391-.776.543-1,.91-.175.277-.135.731-.38,1.007a2.567,2.567,0,0,1-.9.478c-.316.154-.643.771-1.017.668-.414-.1-.677-.167-.777.247-.1.4,0,1.013.386,1.134a3.149,3.149,0,0,0,1.359-.13c.429-.073.682-.487,1.05-.728.351-.23.883-.247,1.179-.58a8.108,8.108,0,0,0,.936-.961,11.108,11.108,0,0,0,.393-1.283,11.146,11.146,0,0,0,.386-1.237,11.462,11.462,0,0,0,.459-1.27,11.272,11.272,0,0,0,.019-1.354,11.391,11.391,0,0,0,.138-1.338,3.777,3.777,0,0,0-.339-1.232c-.111-.427.166-1.016-.078-1.383s-.77-.486-1.126-.758a3.075,3.075,0,0,0-1.015-.281c-.364-.089-.705-.709-1.074-.678s-.713.44-1.058.586-.5.512-.786.764c-.3.3-.308.505-.011.808s.7.482,1.007.188c.011-.008-.031-.034-.029-.034" transform="translate(9.171 4.768)" fill="#0d4b08"/><path d="M52.908,35.5c-.022.394.619.871.546,1.257a9.924,9.924,0,0,1-.474,1.131c-.082.274-.219.535-.31.805-.028.086-.115.154-.146.24-.009.025.153.114.145.139-.055.147.016-.181-.054-.029-.175.385-.443.738-.645,1.111s-.331.8-.558,1.156c-.21.352-.778.472-1.007.811s-.287.792-.536,1.119-.578.58-.844.892-.406.734-.688,1.03-.449.723-.745,1-.809.332-1.121.6a8.851,8.851,0,0,1-1.075.8,9.134,9.134,0,0,1-1.111.807,9.159,9.159,0,0,1-1.335.306c-.491.113-.9.563-.789.938s.643.354,1.122.245c.377-.114.914.248,1.277.1s.646-.518,1-.7.605-.524.938-.734.925-.064,1.237-.3.44-.726.731-.993.716-.416.981-.708.066-.978.306-1.293c.247-.28.7-.387.94-.678s.709-.4.929-.7.263-.734.467-1.046.161-.775.353-1.095.673-.472.851-.8.51-.589.671-.927.065-.8.19-1.157.134-.742.226-1.107.266-.71.321-1.083-.091-.755-.072-1.131c.016-.5-.2-.672-.591-.668s-.524.367-.54.859c-.1.137-.588-.2-.588-.2" transform="translate(7.475 6.18)" fill="#0d4b08"/><path d="M23.1,27.787c-.345-.3-.542-.731-.958-.877a3.684,3.684,0,0,0-1.32-.361,3.923,3.923,0,0,0-1.4.235,4.041,4.041,0,0,0-1.043.9,3.863,3.863,0,0,0-.478,1.249,3.51,3.51,0,0,0-.238,1.259,11.223,11.223,0,0,0-.028,1.176,12.085,12.085,0,0,0-.138,1.2c.052.39.625.677.717,1.058s-.423.951-.29,1.32.5.67.673,1.023a11.964,11.964,0,0,0,.393,1.159,11.332,11.332,0,0,0,.705.976c.212.308.963.1,1.243.336s.446.54.782.688a3.7,3.7,0,0,0,1,.332,3.78,3.78,0,0,0,1.069.06c.49-.114.4-.414.287-.79s-.164-.557-.642-.445a1.863,1.863,0,0,1-1.15-.25,3.736,3.736,0,0,1-.968-.608c-.276-.278-.191-.844-.37-1.106-.219-.331-.6-.556-.771-.908a9.739,9.739,0,0,1-.371-1.124,10.365,10.365,0,0,1-.5-1.088,10.744,10.744,0,0,1-.376-1.161c-.039-.392.244-.816.252-1.212a3.474,3.474,0,0,1,.035-.951,4.111,4.111,0,0,1,.133-1.014,2.165,2.165,0,0,1,1.382-.693c.472-.071.821.321,1.235.628.028.02.386-.357.413-.334.306.291.807.668,1.113.377s.114-1.04-.185-1.342c-.153-.022-.21.286-.211.285" transform="translate(3.102 4.708)" fill="#0d4b08"/><path d="M21.941,33.926c.048.409-.381.889-.311,1.292s.69.695.785,1.093-.107.871.011,1.263.263.778.4,1.163.2.808.359,1.184.635.606.818.973-.034.95.17,1.306.822.459,1.046.8.033.976.277,1.307.822.4,1.084.718.341.792.622,1.093.712.451,1.009.735.379.811.692,1.077.934.147,1.262.4.7.4,1.043.626c.369.238.59.69.98.889a12.821,12.821,0,0,0,1.133.7,13.09,13.09,0,0,0,1.233.52,12.8,12.8,0,0,0,1.312.219c.41.1.83-.338.955-.741a.738.738,0,0,0-.51-.929c-.416-.078-.829-.166-1.233-.281s-.723-.466-1.115-.619-.99.14-1.366-.049-.418-.969-.775-1.193-.811-.268-1.146-.525-.5-.682-.805-.969-.592-.56-.874-.876c-.267-.278-1.046-.1-1.3-.391s-.365-.715-.6-1.02-.427-.652-.643-.97-.374-.681-.572-1.01-.551-.583-.729-.924-.3-.724-.458-1.075-.237-.743-.376-1.1-.365-.7-.483-1.063c-.1-.325.2-.77.107-1.1s-.379-.6-.452-.937c-.065-.29-.025-.6-.075-.887-.024-.133-.219-.238-.239-.371-.009-.065.343-.177.333-.239.019.135-.247-.015-.258-.052a.822.822,0,0,0-.8-.777c-.426,0-.6.246-.6.672.067.106.079.074.079.075" transform="translate(3.835 5.885)" fill="#0d4b08"/><path d="M44.153,15.592c-.328.234-.7.412-1.021.653s-.4.8-.718,1.05-.7.413-1.011.661-.809.267-1.127.513-.642.48-.963.722-.611.484-.935.7-.543.6-.875.808c-.139.088.2.18.115.2-.046.013-.165-.193-.02-.2.212-.029.294.121.447.27.081.071.016.115-.028-.014-.026-.077.2-.328.274-.159-.165-.414-.445-.786-.579-1.212-.174-.549-.555-1.047-.708-1.608-.058-.21.352-.539.3-.751-.019-.078-.35-.082-.369-.162-.041-.168.42-.145.433-.027a1.421,1.421,0,0,0-1.15-1.036c-.191.006-.135.625-.274.756-.311.259-.955.132-1.262.394s-.631.512-.936.778-.258.93-.56,1.2-.874.237-1.174.51-.306.859-.6,1.135-.595.544-.889.823-.638.5-.929.781-.768.371-1.056.655-.542.6-.827.89-.847.306-1.128.6-.316.823-.595,1.116-.616.532-.891.829-.319.805-.592,1.1c-.3.328-.967.325-1.262.657s-.179,1.027-.471,1.362-.819.465-1.107.8A.811.811,0,0,0,21.68,31.5a.882.882,0,0,0,1.17.069c.272-.32.3-.859.572-1.176s.9-.323,1.183-.637.207-.942.49-1.253.948-.268,1.234-.576.273-.895.562-1.2.764-.431,1.056-.732.443-.742.738-1.04.83-.354,1.129-.65.263-.931.565-1.223.542-.652.847-.941.8-.371,1.113-.656.736-.439,1.048-.721c.288-.261.651-.436.943-.693s.54-.56.835-.816.438-.682.734-.934.611-.467.91-.716a1.7,1.7,0,0,0-1.313-.536,13.676,13.676,0,0,0,.073,1.378c.114.443.741.731.9,1.161.15.485-.318,1.2-.133,1.671a1.853,1.853,0,0,0,1.081,1,1.91,1.91,0,0,0,1.3-.086c.352-.21.7-.512.949-.692.328-.235.24-1.036.563-1.279s.748-.344,1.068-.59.665-.457.984-.7c.3-.235.629-.413.91-.633s.467-.6.763-.824.624-.393.936-.616c.361-.224.491-.474.286-.844s-.537-.341-.908-.127c-.054.015-.114-.3-.117-.3" transform="translate(3.806 2.765)" fill="#0d4b08"/><path d="M43.907,17.771a9.4,9.4,0,0,1,1.267.3c.39.187.941.15,1.3.39s.478.825.8,1.114a8.975,8.975,0,0,1,.953.878c.276.33.759.535.987.9.226.33.4.7.615,1.036s.193.821.39,1.168.575.6.757.96.113.836.279,1.2.078.828.228,1.2.5.657.632,1.033c.153.4.218.814.345,1.216s.626.7.728,1.115.092.851.168,1.268c.115.41.491.852.9.742a1.158,1.158,0,0,0,.679-1.171c-.081-.412-.206-.819-.307-1.227s-.4-.764-.523-1.167S53.63,28,53.489,27.6s.008-.9-.151-1.287-.214-.83-.392-1.21-.725-.584-.922-.956c-.174-.385-.074-.909-.273-1.281s-.542-.666-.765-1.024-.639-.577-.887-.92-.121-.971-.391-1.3-.794-.43-1.084-.737-.29-.929-.6-1.216a9.358,9.358,0,0,0-1.128-.754c-.37-.23-1.041.13-1.44-.041s-.633-.791-1.056-.9a1.106,1.106,0,0,0-1.153.685c-.1.394.524.567.912.689.059.046-.254.417-.253.417" transform="translate(7.669 2.831)" fill="#0d4b08"/><path d="M54.485,9c-.168-.373-.062-.92-.288-1.257a9.1,9.1,0,0,0-.894-.889,10.369,10.369,0,0,0-.814-.945c-.3-.267-.976-.068-1.309-.306s-.308-1.02-.658-1.228S49.767,4,49.406,3.822s-.783-.3-1.15-.457-.864.082-1.223-.055-.631-.51-1-.63-.815.055-1.186-.046-.6-.784-.976-.868-.817.119-1.2.054-.785.066-1.167.019-.73-.5-1.114-.523-.79.311-1.174.3c-.429-.006-.85.051-1.277.079s-.89-.266-1.315-.2c-.409.041-.692.643-1.081.77s-.845.038-1.2.245-.685.812-.472,1.182a3.593,3.593,0,0,0,1.376,1.05c.509.235,1.177.186,1.627.4a1.864,1.864,0,0,0,.449-1.513c-.44-.007-1.038.031-1.478.051S34.94,3.4,34.5,3.451s-.9.1-1.329.174-.757.7-1.184.8c-.406.092-.951-.327-1.35-.208s-.7.571-1.086.717-.828.184-1.207.356-.585.677-.952.874c-.41.231-1.01.14-1.4.4S25.2,7.1,24.838,7.4s-.815.51-1.157.832c-.281.233-.263.783-.5,1.058s-.834.324-1.024.636a1.534,1.534,0,0,0,.239,1.376c.252.214.755.061,1.084.054a19.136,19.136,0,0,0,2.012.034,1.969,1.969,0,0,0-.567-1.548c-.3.257-1.048.567-1.33.842s-.605.538-.869.83-.161.9-.406,1.212-.895.327-1.119.651-.009.938-.212,1.276-.828.449-1.008.8-.17.808-.326,1.17-.344.722-.476,1.094-.324.741-.432,1.121c-.106.41.182.917.1,1.332s-.537.765-.6,1.183.126.876.08,1.3-.187.836-.213,1.259-.2.848-.2,1.272.332.847.347,1.27-.171.856-.134,1.279c.008.358-.187.745-.147,1.1s.53.651.6,1-.279.816-.178,1.16.459.628.59.961a1.022,1.022,0,0,0,1.23.357.9.9,0,0,0,.164-1.168c-.087-.193-.257.2-.3.069-.021-.055.323-.248.3-.3-.034-.1-.139-.168-.167-.265-.081-.27-.413-.5-.469-.776a15.19,15.19,0,0,1-.186-1.806c-.028-.361.213-.743.2-1.1s-.234-.723-.235-1.086.274-.724.285-1.087.3-.708.319-1.069c.021-.431-.165-.867-.119-1.3s.181-.836.253-1.261-.233-.928-.137-1.348c.1-.374.307-.729.429-1.094s.524-.626.669-.983.307-.695.477-1.041.318-.691.511-1.024.23-.761.445-1.081.257-.779.493-1.084.732-.4.99-.69.61-.472.887-.743.284-.816.578-1.067c.3-.311.509-.723.2-1.021-.141-.135-.4-.091-.595-.094-.324.015-.639.266-.963.277-.2.007-.4-.472-.588-.484-.071,0-.147.1-.218.089.1.015.206-.2.127-.212-.188-.061-.39.527.018.77.126.158.618-.06.663.137.019.155-.546.2-.558.3-.014.132.26.208.3.16s.247-.079.3-.148c-.082.118-.3-.075-.24-.151.039-.047-.247-.372-.207-.418.108-.126.238-.255.352-.376.287-.3.663-.556.976-.831s.816-.339,1.151-.588c.308-.232.6-.491.925-.7s.844-.065,1.183-.247.522-.658.874-.815c.378-.157.789-.224,1.176-.356s.693-.552,1.089-.659.909.281,1.31.2c.357-.078.617-.683.977-.739s.77.211,1.133.175.725-.075,1.09-.088.729.086,1.094.094c.43-.012.539-.467.527-.9-.007-.261.2-.719-.027-.857-.413-.2-1.029.072-1.431-.1-.235-.1-.24-.673-.46-.795-.093-.051-.392.253-.48.194s-.081-.151-.026-.072a2.24,2.24,0,0,0-.078,1.075c.389-.191.795-.08,1.208-.2s.745-.669,1.175-.711A7.709,7.709,0,0,1,38.9,2.8c.445,0,.88.294,1.323.324s.865.247,1.306.307.851.241,1.287.331c.4.069.8.088,1.194.182s.841-.022,1.228.1.766.272,1.146.414.758.29,1.129.456.628.546.987.736.967-.055,1.313.155.323.983.656,1.215a7.76,7.76,0,0,1,1.127.659A7.66,7.66,0,0,1,52.252,8.8a7.333,7.333,0,0,1,.659,1.1c.218.367.815.028,1.183-.187s.527-.272.324-.642C54.4,9.046,54.486,9,54.485,9" transform="translate(3.175 0.233)" fill="#0d4b08"/><path d="M50.108,10.646c.32.164.814.049,1.108.251a9.12,9.12,0,0,1,.941.6,9.359,9.359,0,0,1,.64.922c.232.271.278.7.474,1,.23.3.3.7.506,1.02s.5.573.671.909.085.776.232,1.126.513.593.631.954c.1.376.048.781.135,1.16s.5.689.569,1.071-.246.824-.193,1.21.06.763.1,1.151.476.741.5,1.129-.33.784-.326,1.174.157.772.142,1.161-.138.769-.17,1.157c-.015.393.526.835.485,1.226s-.761.688-.828,1.074-.092.763-.186,1.144-.124.762-.243,1.137c-.164.479.386.681.769.776s.806.174.963-.285c.114-.36-.069-.8.022-1.167s.766-.611.835-.982-.152-.8-.106-1.177-.106-.769-.084-1.146c.034-.426.473-.834.49-1.261s-.333-.865-.333-1.293-.057-.85-.074-1.276.3-.876.263-1.3c-.027-.405-.593-.759-.639-1.162s.166-.836.1-1.237.1-.85.015-1.248-.113-.825-.217-1.217-.42-.738-.565-1.116-.276-.777-.451-1.143-.532-.64-.737-.991-.144-.874-.377-1.206a11,11,0,0,0-.62-.941c-.225-.292-.878-.227-1.131-.493s-.153-.918-.433-1.157-.79-.2-1.095-.411A10.482,10.482,0,0,0,51,9.1c-.37-.2-.7.152-.92.511s-.4.832-.035,1.049c.04.04.06-.013.061-.012" transform="translate(8.84 1.603)" fill="#0d4b08"/><path d="M12.506,60.387c.407,0,.816.325,1.223.318s.809-.283,1.216-.291.81-.251,1.216-.26.828.474,1.235.464.812-.079,1.22-.089.815-.034,1.222-.045.81-.238,1.217-.247.824.438,1.232.429.809-.271,1.216-.278c.377-.007.752-.086,1.129-.093s.752-.04,1.129-.042.756-.21,1.133-.206.748.356,1.124.367c.405.012.823-.326,1.228-.31s.816-.075,1.22-.058.8.225,1.207.243.8.255,1.2.272.805.2,1.209.208.816-.106,1.221-.1.822.281,1.235.286.828-.251,1.241-.248.825.157,1.237.158.825-.34,1.239-.341.825.381,1.239.38.825.034,1.239.032.821-.417,1.234-.42,1.047-.313,1.03-.739c-.015-.4-.624-.843-1.027-.858-.4,0-.8-.1-1.2-.1s-.8.576-1.2.576-.8-.671-1.2-.671-.8.051-1.2.048-.8.067-1.2.062-.8.405-1.2.4-.795-.274-1.194-.281-.805.281-1.206.272-.783-.626-1.182-.638-.805.26-1.2.247-.805.159-1.2.144-.781-.446-1.18-.464-.815.32-1.214.3c-.464-.022-.928.012-1.393.007s-.932-.343-1.4-.337-.924.546-1.388.553c-.39.006-.783-.258-1.171-.251s-.783-.23-1.171-.221-.779-.053-1.168-.045-.774.2-1.162.211-.779-.019-1.169-.009-.777.2-1.168.215-.791-.316-1.182-.306-.783,0-1.175.009-.774.557-1.166.563-.8-.53-1.187-.525c-.426.016-.746.706-.73,1.133.015.4.338.558.741.573" transform="translate(2.087 10.374)" fill="#0d4b08"/><path d="M11.718,65.482c.454-.054.917.008,1.375-.027s.9-.22,1.36-.246.922.035,1.379.008c.412-.025.822-.087,1.233-.111s.8-.437,1.215-.46.852.471,1.266.449.817-.175,1.23-.2.809-.357,1.222-.379.839.239,1.254.217c.393-.021.786-.026,1.179-.047s.769-.323,1.161-.344.8.27,1.2.25.776-.2,1.169-.22.8.208,1.192.188.768-.363,1.161-.384.8.293,1.2.272.77-.31,1.162-.331.774-.276,1.166-.3.812.45,1.2.427.782-.1,1.175-.125.784-.058,1.176-.081.771-.264,1.164-.287.811.41,1.2.385c.434-.026.854-.3,1.289-.33s.867-.122,1.3-.151.867-.089,1.3-.127.851-.288,1.283-.341c.423-.012.892-.119.905-.54,0-.426-.449-.533-.874-.536-.366.045-.713.192-1.081.225s-.756-.126-1.122-.1-.751-.172-1.119-.151-.748-.12-1.111-.1c-.423.027-.834.181-1.255.207S38.417,61.98,38,62s-.825.308-1.246.332-.85-.1-1.273-.081-.821.389-1.242.412-.863-.337-1.285-.313c-.39.021-.781,0-1.169.026s-.758.453-1.147.474-.8-.318-1.188-.3-.771.2-1.161.221-.784-.06-1.174-.04-.748.613-1.137.635-.816-.629-1.2-.608-.777.094-1.166.115-.776.114-1.167.135-.755.456-1.146.478-.794-.219-1.182-.2-.762.339-1.151.361-.815-.563-1.2-.54-.762.328-1.151.352c-.407.024-.805.232-1.214.253s-.842-.371-1.25-.346-.794.41-1.2.444-.812.119-1.217.168c-.422.012-1.015.254-1.027.675s.623.49,1.048.492a1.664,1.664,0,0,1-.022.325" transform="translate(1.897 10.995)" fill="#0d4b08"/><path d="M14.728,74.311a44.871,44.871,0,0,1,3.148-9.156c1.2-2.653,1.82-5.743,4.171-7.635,2.355-1.124,10.448-1.562,11.24,1.559A1.649,1.649,0,0,1,31.843,60.6a1.714,1.714,0,0,1-.28.016c1.5.278,4.627,1.468,2.826,3.319a1.546,1.546,0,0,1-.824.366h0a.791.791,0,0,1-.235.013h-.006a7.488,7.488,0,0,1-.942-.145,2.945,2.945,0,0,1,.334.18,1.738,1.738,0,0,1,.346,2.434,1.758,1.758,0,0,1-.472.432,1.28,1.28,0,0,1,.245.184,1.255,1.255,0,0,1,.118.132v.006c1.157,2.043-1.962,2.186-3.165,2.444-2.139.52-2.2,2.872-3.274,4.445a36.765,36.765,0,0,1-3.741,2.747l-2.168.45-6.314-1.977c.082-.166.377-1.14.436-1.332" transform="translate(2.535 10.053)" fill="#fff"/><path d="M15.453,74.628c.094-.422.385-.795.492-1.212s.23-.828.35-1.242.3-.8.439-1.213-.059-.932.088-1.338.586-.7.745-1.1-.152-1,.021-1.394c.172-.414.83-.624,1-1.038s.1-.934.266-1.35.132-.9.291-1.325c.133-.385.314-.764.469-1.141s.551-.657.726-1.023.427-.7.624-1.053a7.438,7.438,0,0,1,1.04-1.415c.1-.1.228-.167.333-.263.04-.036.426-.02.39.015.06-.057-.414-.4-.241-.466.072-.026.162-.015.234-.04.324-.109.771.258,1.1.187.185-.04.352-.1.537-.134.137-.022.131-.046.267-.068.08-.013,0-.589.077-.6.019,0,.192.022.081.036.437-.065.914.108,1.353.081s.89-.337,1.33-.327.85.593,1.288.64.9-.138,1.336-.054c.221.049.336.476.552.542.109.032.439-.588.547-.547.054.02.133.547.021.5.18.08.434.022.6.125.084.052.173.112.252.17-.118-.091-.014.109.027.148.067.061-.032.29.034.353.118.118.158-.25.24-.1.044.075.338.013.38.089.019.034-.449.366-.507.208.009.025.624.046.619.072-.015.092-.3.018-.3-.012-.011.04-.174-.009-.192.028-.055.1,0,.26-.085.343a.949.949,0,0,1-.626.215.941.941,0,0,0-.888.829.813.813,0,0,0,.889.745A2.835,2.835,0,0,0,33,61.154a2.647,2.647,0,0,0,.94-1.028c.2-.4-.1-.748-.28-1.226-.162-.4.053-1-.239-1.308a3.669,3.669,0,0,0-1.136-.659c-.367-.158-.838,0-1.216-.12s-.681-.492-1.07-.573-.782-.16-1.177-.2-.8.217-1.2.214-.8-.3-1.194-.26c-.5.019-.982.213-1.476.272s-1.03-.109-1.52-.011c-.371.075-.653.482-1.013.6-.487.164-1.1.16-1.466.525-.287.277-.352.752-.59,1.061s-.253.749-.453,1.087-.816.449-.987.805-.277.746-.427,1.111-.28.737-.422,1.106-.078.815-.221,1.18-.71.551-.867.91c-.177.378-.118.864-.285,1.247s-.263.8-.42,1.183-.281.785-.429,1.176-.094.85-.231,1.244-.6.681-.723,1.078.091.9-.025,1.3-.119.825-.225,1.229-.386.758-.48,1.166-.039.848.366.97a1.082,1.082,0,0,0,1.187-.563c0-.027-.274-.04-.274-.042" transform="translate(2.507 9.931)" fill="#0d4b08"/><path d="M22.674,61.819c.343-.192.589-.612.951-.761s.841.013,1.219-.089A9.436,9.436,0,0,1,26,60.836a7.144,7.144,0,0,1,.927-.016c.336.012.676-.25,1.007-.191.3.036.583.276.888.314s.582.26.884.316a5.879,5.879,0,0,1,1.38.328,5.942,5.942,0,0,1,1.3.584c.264.151.553.211.452.5-.139.318-.442.313-.786.285a1.183,1.183,0,0,0-1.18.678c-.111.411.349.816.757.932a2.322,2.322,0,0,0,1.167.121c.381-.107.559-.525.836-.808s.83-.423.931-.821a2.794,2.794,0,0,0,.051-1.236,2.721,2.721,0,0,0-.739-.965,2.373,2.373,0,0,0-1.016-.5,10.927,10.927,0,0,0-.948-.615,10.588,10.588,0,0,0-1.069-.332,10.582,10.582,0,0,0-1.09-.266c-.328-.051-.705.255-1.035.215s-.619-.381-.949-.422c-.292-.053-.6.437-.9.438-.386.022-.8-.459-1.186-.407-.449.062-.844.419-1.28.537a10.692,10.692,0,0,0-1.192.63,10.12,10.12,0,0,0-1.2.54c-.361.227-.589.454-.361.815a.785.785,0,0,0,1.017.326c.027-.009,0,.008.007.007" transform="translate(3.824 10.452)" fill="#0d4b08"/><path d="M24.975,64.18c.1-.1-.084.044.049-.028.058-.029.152,0,.2-.029.118-.065.519.292.566.272.321-.132.533-.53.865-.639a4.461,4.461,0,0,1,1.073-.28,4.579,4.579,0,0,1,1.121-.019,9.951,9.951,0,0,1,1.221.08c.3.077.339.662.582.851.158.165.65.273.605.5-.053.349-.639.476-.924.685-.3.3.021.731.319,1.034s.431.308.736.016c.308-.253.663-.406.827-.75s-.035-.716-.032-1.106a2,2,0,0,0-.125-1c-.207-.28-.27-.6-.539-.814a3.92,3.92,0,0,0-.827-.622c-.316-.132-.713.04-1.058-.006-.357-.1-.669-.464-1.035-.493a6.179,6.179,0,0,0-1.129-.082,6.1,6.1,0,0,0-1.122.162c-.433.088-.775.51-1.175.691a6.3,6.3,0,0,0-1.26.513,1.235,1.235,0,0,0-.119,1.446,1.6,1.6,0,0,0,1.651-.089c.041-.1-.476-.294-.473-.3" transform="translate(4.189 10.951)" fill="#0d4b08"/><path d="M21.856,76.169c.38-.23.9-.223,1.259-.482s.505-.832.845-1.118a6.592,6.592,0,0,0,1.212-.629,6.294,6.294,0,0,0,1.016-.894c.221-.354.759-.59.905-.988a10.947,10.947,0,0,1,.444-1.147,1.992,1.992,0,0,1,.782-1.094c.336-.2.537-.622.907-.7s.8.13,1.173.068.679-.4,1.034-.539.794-.167,1.007-.44.147-.728.2-1.081.4-.809.259-1.153a2.7,2.7,0,0,0-1.135-1.2c-.432-.188-1.029.071-1.491,0a5.089,5.089,0,0,0-1.355.045,5.93,5.93,0,0,0-1.309.394c-.443.171-1.124-.1-1.521.161-.361.227-.3.951-.073,1.313a.747.747,0,0,0,1.005.255,5.014,5.014,0,0,1,.876-.5c.307-.135.682.036,1.01-.035.317-.039.6-.384.916-.353a4.5,4.5,0,0,1,.937.228,1.758,1.758,0,0,1,.3.142c.068.048.353.065.29,0,.118.178-.287.39-.394.573-.028.045.291.363.254.4.02-.024.094-.064-.035.008-.047.035-.173.006-.232.019-.27.084-.644-.33-.923-.284-.517.094-1.01.436-1.516.58a4.587,4.587,0,0,0-1.555.843,7.854,7.854,0,0,0-.757,1.033c-.237.356-.208.83-.385,1.22s-.794.585-.905,1c-.2.347-.057.952-.349,1.224s-.916.144-1.277.324c-.34.286-.425.94-.785,1.2s-.769.485-1.148.716-.571.457-.358.825.346.359.716.15a.135.135,0,0,1,.161-.087" transform="translate(3.706 11.477)" fill="#0d4b08"/><path d="M54.606,91.567l5.541-7.535-3.815-3.271c-.383-2.647-3.358-3.4-4.5-5.6-.774-1.867-4.121-3.327-3.605-.145.45,1.7,1.143,3.4,1.492,5.11l-2.727,2.8A18.443,18.443,0,0,1,38.646,84.4c-1.93.085-5.1-1.335-6.461.337-2.251,4.963,14.762,3.2,17.405,3.447.8.464,4.175,2.814,5.016,3.383" transform="translate(5.673 12.974)" fill="#fff"/><path d="M47.77,87.164c-.316-.208-.645-.42-1.006-.647L47.4,85.5c.368.232.7.447,1.026.66Z" transform="translate(8.352 15.256)" fill="#211715"/><path d="M31.438,74.337c1.222,1.26,6.324,2.485,9.609,2.444,3.64-.045,8.006-.446,9.066-2.444a10.733,10.733,0,0,1-1.479,6.233A9.6,9.6,0,0,1,42.9,84.362a10.155,10.155,0,0,1-8.555-2.031C32,80.559,31.085,77.1,31.438,74.337" transform="translate(5.563 13.185)" fill="#fff"/><path d="M32.734,72.456l.032-.035A3.308,3.308,0,0,1,34.987,71.4a.757.757,0,0,0,.562-.089.73.73,0,0,0,.172-.321,3.506,3.506,0,0,1,5.717-1.382.758.758,0,0,0,.39.252.806.806,0,0,0,.533-.235,2.488,2.488,0,0,1,3.441.692,1.046,1.046,0,0,0,.363.439,1.07,1.07,0,0,0,.471.06,3.17,3.17,0,0,1,2.438,2.079,3.731,3.731,0,0,1,.279,3.222c-1.648,1.34-5.3,1.64-8.411,1.678a22.226,22.226,0,0,1-8.787-1.87l-.118-.8a3.38,3.38,0,0,1,.7-2.671" transform="translate(5.675 12.176)" fill="#fff"/><path d="M31.108,74.876a7.094,7.094,0,0,0,.91.616c.321.194.471.741.818.884a7.744,7.744,0,0,0,1.086.4c.352.111.821-.2,1.177-.107s.743.024,1.1.1.7.2,1.063.265.637.737,1,.784.761.027,1.131.058.769-.28,1.141-.267.744.171,1.116.167.73-.466,1.1-.486c.391-.011.784.162,1.173.132s.807.206,1.194.155.7-.538,1.088-.608.83.194,1.21.1a5.286,5.286,0,0,0,1.294-.544,5.357,5.357,0,0,0,1.269-.612,5.355,5.355,0,0,0,.845-1.121c.24-.431-.053-.557-.383-.754s-.651-.429-.894.009c-.084.174.041.6-.108.722-.157.151-.484.177-.676.278a6.518,6.518,0,0,1-1.6.5c-.451.113-.982-.2-1.44-.119s-.892.155-1.355.2-.9.155-1.369.17c-.386.024-.761.386-1.148.391s-.77-.259-1.157-.273-.789.238-1.174.2-.742-.334-1.127-.385-.8.138-1.184.068-.672-.549-1.049-.636-.746-.153-1.12-.258c-.3-.085-.726.223-1.023.118s-.635-.148-.924-.273a7.232,7.232,0,0,1-.723-.324c-.1-.059.125-.578.033-.649s-.062.363-.2.233a1.633,1.633,0,0,1-.127-.109.731.731,0,0,0-1.056.047,1.082,1.082,0,0,0-.132,1.257c.068.033.208-.343.211-.341" transform="translate(5.454 13.074)" fill="#0d4b08"/><path d="M30.716,74.449a10.6,10.6,0,0,0,.045,1.237,11.316,11.316,0,0,0-.132,1.247,10.859,10.859,0,0,0,.279,1.215c.094.4.659.642.8,1.028s-.133.934.052,1.3a9.532,9.532,0,0,0,.843.995,9.254,9.254,0,0,0,.824.98c.3.3.784.369,1.126.63s.43.885.805,1.1a9.937,9.937,0,0,0,1.113.73c.352.147.736.3,1.1.407s.774.179,1.147.251.815-.235,1.194-.2a11.092,11.092,0,0,0,1.133-.059,10.831,10.831,0,0,0,1.119-.1c.377-.041.823.312,1.2.233a10.739,10.739,0,0,0,1.137-.273c.36-.124.557-.668.9-.83a10.216,10.216,0,0,0,.9-.675,9.625,9.625,0,0,0,.935-.592c.3-.235,1-.025,1.27-.294a10.728,10.728,0,0,0,.744-.924c.25-.345.211-.9.417-1.273A10.985,10.985,0,0,0,50.35,79.5c.162-.393-.127-.931-.012-1.34a11.127,11.127,0,0,0,.454-1.177c.066-.419.383-.816.4-1.242s-.425-.838-.458-1.263c-.019-.49-.114-.812-.5-.819a.682.682,0,0,0-.67.8,9.866,9.866,0,0,1-.133,1.187,10.087,10.087,0,0,1,.022,1.192,11.052,11.052,0,0,1-.055,1.222c-.11.379-.522.671-.676,1.035s-.019.909-.215,1.253a9.4,9.4,0,0,1-.892.865,8.8,8.8,0,0,1-.945.745c-.3.254-.849.14-1.182.351a7.957,7.957,0,0,1-.99.551,7.994,7.994,0,0,1-1.038.471c-.374.106-.666.525-1.048.585s-.789-.161-1.175-.148-.777.277-1.162.244-.728-.349-1.107-.429-.812.061-1.18-.064-.537-.624-.87-.782a7.569,7.569,0,0,1-.949-.5c-.31-.2-.849-.086-1.13-.328a8.629,8.629,0,0,1-.862-.741,8.874,8.874,0,0,1-.738-.887c-.2-.343.13-.947-.02-1.309s-.562-.622-.662-1a8.77,8.77,0,0,1-.32-2.336c0-.392.308-.769.36-1.161,0-.426-.6-.695-1.024-.7a.676.676,0,0,0-.715.693c-.011.042-.145-.022-.145-.02" transform="translate(5.432 13.064)" fill="#0d4b08"/><path d="M32.729,75.084a3.739,3.739,0,0,1,.679-2.193c.261-.253.782-.127,1.12-.263.3-.1.562-.646.881-.625.51.006.875-.028,1.061-.5.124-.347.515-.54.736-.835.224-.274.369-.6.672-.769a2.739,2.739,0,0,1,.993-.3c.37-.04.8-.259,1.147-.158s.617.489.908.718a1.5,1.5,0,0,0,1.181.383c.478-.022.652-.449,1.066-.613.529-.192,1.19.207,1.662.513.233.171.292.44.43.695a1.812,1.812,0,0,0,1.412.751,1.743,1.743,0,0,1,.857.469c.291.221.734.279.885.625.22.333.007.808.1,1.19s.762.748.726,1.146c-.1.41-.248,1.068.154,1.191a1.276,1.276,0,0,0,1.207-.79c.092-.483-.319-.974-.387-1.46a5.429,5.429,0,0,0-.372-1.3,5.172,5.172,0,0,0-.471-1.363c-.291-.376-.8-.518-1.189-.8-.377-.258-.681-.859-1.134-.911a2.752,2.752,0,0,0-.258.433,1.011,1.011,0,0,1-.008-.259c.13.112.118.152.021.025-.11-.218-.472-.245-.646-.416-.313-.324-.453-.975-.859-1.147s-.97.3-1.421.307c-.411,0-.9-.394-1.281-.238-.19.077-.1.652-.266.765-.051.035-.423-.556-.474-.525-.194.1.089.657.414.639a3.861,3.861,0,0,0-.162-.628,4.842,4.842,0,0,0-1-.4,4.577,4.577,0,0,0-.949-.452c-.333-.077-.7.3-1.046.3-.48.012-1.077-.506-1.521-.34s-.8.659-1.167.965a4.462,4.462,0,0,0-.819,1.095c-.14.22-.443.369-.538.611-.038.068.106.316.087.391.3-.114.339.094.127.111-.073-.006-.164-.48-.238-.482a4.05,4.05,0,0,0-.993.36,3.769,3.769,0,0,0-.925.432c-.286.188-.332.583-.564.845-.257.313-.85.393-1,.759a4.81,4.81,0,0,0-.49,1.183,4.961,4.961,0,0,0,.039,1.313,1.494,1.494,0,0,0,1.376.765c.4-.121.517-.812.413-1.222-.068-.082-.172,0-.172,0" transform="translate(5.507 12.047)" fill="#0d4b08"/><path d="M38.149,73.1c0-.026-.412-.041-.409-.067-.014.1.057.113.044.215,0-.026.339.061.35.037-.04.092-.476-.092-.515,0,.015-.032.52.24.54.213-.059.078-.263-.081-.32,0,.039-.047.177.086.226.048-.079.059-.321-.258-.4-.2.109-.08.426.239.551.187-.092.04-.55-.41-.465-.463a2.522,2.522,0,0,1,.623-.159c.085-.06.074.372-.027.39a1.758,1.758,0,0,1,.478.065c-.1-.018-.018-.572-.119-.586a2.664,2.664,0,0,1,.507.219c-.091-.041-.283.392-.376.354.073.031.22-.119.285-.072-.079-.06-.22.244-.308.2.074.078.43-.38.522-.324.272.152.411.22.659.032s.092-.3.012-.606c-.039-.133.232-.347.135-.447.033.092-.018.139.042.217a.861.861,0,0,1-.153.071c-.227-.361-.549-.73-.91-.5a1.182,1.182,0,0,0-.43,1.27c.041.062.417-.061.466,0-.092-.174-.351-.028-.451-.2l.151-.1c.567-.436.5-.518,1.066-.96a1.359,1.359,0,0,1,.178-.066c.077.06-.041.473-.107.4a1.753,1.753,0,0,0-1.137-.624,2.6,2.6,0,0,0-.941.013c-.307.073-.433.509-.705.67-.417.212-1.122.33-1.127.8.006.2.4.359.538.507.3.3.545.132.847-.17.147-.144.361-.21.358-.416.091-.085.319.051.319.048" transform="translate(6.401 12.703)" fill="#0d4b08"/><path d="M51.623,77.532a7.24,7.24,0,0,1-2.23-2.367,4.077,4.077,0,0,0-2.216-2,1.177,1.177,0,0,0-1.034.151,1.1,1.1,0,0,0-.311.471c-.41,1.09.492,2.72.772,3.851.155.63.577,1.916.673,2.5Z" transform="translate(8.111 12.967)" fill="#fff"/><path d="M51.966,77.3a5.878,5.878,0,0,1-1.529-1.6c-.217-.28.054-.877-.119-1.188-.186-.337-.671-.515-.932-.789s-.708-.3-1.033-.5a4.29,4.29,0,0,0-.935-.618c-.313-.082-.713-.477-1.017-.4s-.281.788-.517,1.009c-.392.449-1.034.847-1,1.441.041.346.659.6.734.94s-.069.717.036,1.049.193.665.331.987c.158.465.46.9.589,1.372s-.179,1.061-.08,1.541a.973.973,0,0,0,1.139.484c.405-.121.3-.454.192-.864a10.084,10.084,0,0,0-.258-1.113c-.109-.373.1-.842,0-1.215-.112-.412-.019-.9-.158-1.3s-.356-.766-.467-1.179a4.633,4.633,0,0,1-.185-.5c-.011-.093-.364-.185-.363-.278.006-.065.479-.086.477-.151.065-.363.066-.784.4-.692.413.114.729.657,1.013.976a9.691,9.691,0,0,1,.91.937c.2.343.1.887.354,1.193s.828.28,1.123.545a7.122,7.122,0,0,0,.857.741c.376.2.483.178.686-.2.194-.358.314-.526-.031-.743a.276.276,0,0,0-.214.107" transform="translate(7.961 12.806)" fill="#0d4b08"/><path d="M46.991,81.448A20.734,20.734,0,0,1,39.7,83.017c-1.237-.08-3.751-.41-5.047-.492-.976-.061-2-.125-2.462.739a1.742,1.742,0,0,0,.492,2.246c1.546.927,6.029,1.117,7.526,1.254,2.781.251,6.451-.111,9.322-.053Z" transform="translate(5.671 14.447)" fill="#fff"/><path d="M46.805,80.564c-.372.155-.632.571-1.013.7s-.7.491-1.083.6-.795.193-1.188.279-.838-.082-1.236-.02-.823-.182-1.223-.145-.771.17-1.174.183c-.542-.013-1.1.32-1.637.24-.312-.033-.564-.578-.875-.612s-.693.494-1.005.462a9.121,9.121,0,0,0-1.115-.277c-.383-.031-.744.23-1.128.248s-.867-.6-1.246-.537c-.414.142-.446.91-.715,1.219s-.617.517-.7.931-.412.9-.27,1.32c.011.029.331-.053.341-.024a3.165,3.165,0,0,0,.553.908,3.141,3.141,0,0,0,.937.493c.318.151.585.549.945.586.4.082.835-.021,1.24.048s.859-.206,1.267-.15.777.366,1.186.41.8.264,1.214.293.842-.291,1.253-.274c.4.032.788.165,1.186.18s.791.252,1.189.254.792-.416,1.19-.423.8.139,1.194.127.789-.221,1.187-.234.8,0,1.2-.007.8.055,1.2.053.8.555,1.2.562c.426-.016.794-.7.777-1.129-.016-.4-.384-.5-.786-.515s-.781-.188-1.174-.184-.8-.4-1.192-.385-.764.688-1.157.7-.8-.493-1.2-.48-.772.593-1.166.6-.794-.225-1.187-.226-.788-.044-1.181-.059c-.374-.013-.759.133-1.134.112s-.718-.48-1.093-.51-.763.144-1.135.106-.789.265-1.161.219-.75-.114-1.121-.168c-.485-.075-.917-.505-1.394-.626-.21-.053-.343-.353-.546-.417-.086-.029-.184.027-.268-.009-.007,0,0,.075-.012.072-.053-.024-.264.261-.314.235-.43-.227-.283-.887-.055-1.316.1-.2.012-.8.219-.874a5.9,5.9,0,0,1,1.574.25c.519.038,1.058-.1,1.577-.045.359.039.675.478,1.035.524s.765-.344,1.126-.308.691.126,1.053.137a12.185,12.185,0,0,0,1.578-.1c.6-.059,1.206-.039,1.8-.141.357-.065.688-.2,1.041-.285s.852.369,1.2.266.684-.3,1.025-.419.523-.7.858-.837c.4-.124.7-.338.6-.746-.115-.41-.65-.31-1.061-.2-.152-.053-.006-.638-.006-.638" transform="translate(5.528 14.29)" fill="#0d4b08"/><path d="M50.833,77.707c.052.036.287.2.119.048.052.047-.006.21.047.254.111.1.376.054.478.16s-.258.626-.162.739c.061.073.193-.413.29-.283.027.038-.2.207-.177.245.046.062.02.16.062.226.078.117.53,0,.593.127.036.068-.025.192.008.26.02.042.167-.025.187.018.007.015-.285.319-.339.193s.266-.109.279-.082.219.015.232.052c.024.065-.019.167,0,.233.046.148-.423.443-.387.595a1.293,1.293,0,0,0,1.285.681,1.346,1.346,0,0,0,.79-1.239,6.344,6.344,0,0,0-.513-.993,5.924,5.924,0,0,0-.615-.892,5.99,5.99,0,0,0-.586-.915,6.389,6.389,0,0,0-.745-.854c-.37-.217-1.04.166-1.255.535s-.042.631.318.854c.106.009.088.037.091.038" transform="translate(8.928 13.519)" fill="#0d4b08"/><path d="M71.064,100.275a11.456,11.456,0,0,1-1.149.439,12.517,12.517,0,0,1-1.2.371,12.055,12.055,0,0,1-1.25-.059c-.4.008-.786-.14-1.181-.161s-.783-.049-1.175-.1-.834.175-1.221.1-.781-.194-1.162-.3c-.416-.114-.649-.751-1.049-.908s-.968.075-1.35-.124c-.423-.24-.931-.36-1.34-.624s-.58-.88-.973-1.167c-.307-.208-.675-.333-.981-.544s-.451-.652-.756-.863-.831-.1-1.136-.318-.439-.666-.743-.881-.736-.244-1.04-.459-.732-.278-1.04-.5-.421-.71-.728-.934-.9-.058-1.2-.284-.433-.685-.735-.915c-.244-.185-.643-.166-.884-.353s-.177-.752-.419-.947c-.173-.138-.114-.21-.286-.349a5.184,5.184,0,0,0-.819-.118.623.623,0,0,0,.286.535c.13.078.311-.131.394-.257s.12-.1.2-.228c.251-.379-.054-.582.2-.961s.476-.742.718-1.109.743-.565.987-.932.086-1,.33-1.367.611-.653.857-1.02.344-.832.59-1.2c.2-.294.556-.482.757-.774s.664-.4.867-.695.155-.756.359-1.046c.285-.406.719-.708,1.009-1.11.144-.2.483-.228.628-.422.2-.215.029-.715.175-.969.039-.062.157.261.089.233-.454-.036-.364-.459-.173-.358.055.046-.115.465-.051.5.2.126.365-.133.566,0,.313.2.745.23,1.06.436.373.246.41,1,.782,1.249s.969.162,1.341.412.575.732.942.981.692.557,1.06.8.984.126,1.352.373.672.586,1.041.834c.419.283.613.013.8-.333s.252-.542-.151-.812c-.334-.224-.635-.5-.969-.726s-.779-.286-1.113-.513-.625-.512-.958-.739-.372-.888-.706-1.114-.7-.4-1.037-.625-.618-.529-.955-.751-.777-.287-1.116-.505-.739-.339-1.08-.553a1.447,1.447,0,0,0-1.412-.24A4.929,4.929,0,0,0,53.6,78.561c-.226.307-.2.769-.42,1.078s-.241.763-.46,1.075-.451.612-.668.927-.639.492-.856.809-.676.47-.891.788-.34.7-.553,1.017-.108.85-.321,1.17-.854.354-1.066.675.049.952-.162,1.273c-.464.7-.552.645-1.027,1.34-.194.234-.144.619-.3.876s-.909.228-1.035.505c-.146.47.563.746.841,1.061a7.266,7.266,0,0,0,.779.943c.3.235.366.763.665.995s.8.2,1.1.43.56.516.864.741.691.337,1,.558.41.681.706.894.7.276,1,.486.792.14,1.091.35.447.632.748.841.493.564.795.771c.333.258.874.228,1.219.472s.626.569.982.8.6.644.961.856.931.054,1.306.251.669.519,1.05.7c.378.147.805.088,1.193.207s.749.246,1.143.337.761.235,1.161.3.742.664,1.146.7.835-.237,1.24-.233.789-.245,1.186-.261.8.133,1.194.084.869.285,1.259.2.609-.822.99-.936c.464-.154.908-.364.815-.732s-.651-.286-1.131-.126c-.086,0-.064-.5-.072-.5" transform="translate(8.127 13.69)" fill="#0d4b08"/><path d="M.582,99.452c.391,0,.783.312,1.175.312s.782-.255,1.173-.255.783.507,1.174.507.783-.078,1.174-.078.782.059,1.174.058.782-.1,1.173-.1H8.8c.391,0,.783.171,1.174.171s.782-.244,1.173-.244.783-.062,1.174-.062.782.1,1.174.1.782-.1,1.173-.1.783-.1,1.174-.1.8-.2,1.2-.2.8-.009,1.2-.009.8.352,1.2.352.8-.386,1.2-.387.8.17,1.2.17.8-.166,1.2-.166.8.23,1.2.23.8-.082,1.2-.084.8-.071,1.2-.072.8-.035,1.2-.036.8.4,1.2.4.8-.336,1.2-.337.8.047,1.2.047.8.357,1.2.356.8-.142,1.2-.144.8-.193,1.2-.193c.6,0,.6.108,1.192.108s.6.14,1.193.139.6-.006,1.194-.007.593-.293,1.188-.294.595.022,1.188.021.6.531,1.19.53.6-.447,1.2-.449.6-.162,1.192-.162.6.41,1.194.409.6-.1,1.2-.106.6.28,1.2.279.6-.387,1.2-.389.6.294,1.192.293.6-.225,1.2-.226.6-.2,1.2-.2.6.328,1.2.327.6-.486,1.2-.487.613.288,1.227.288.611-.26,1.221-.261.611.483,1.221.483.611.092,1.221.091.615.053,1.228.052.612-.187,1.224-.188.612.06,1.224.059.615.044,1.228.042.613-.366,1.227-.367.613-.014,1.228-.015.612.308,1.223.307.615-.482,1.229-.482.616.146,1.232.145.617-.18,1.235-.181.617.19,1.235.188c.41,0,.821.318,1.232.318s.821-.3,1.232-.3.822.177,1.233.177.821.255,1.232.255.821-.434,1.232-.434.821-.161,1.232-.161.822.092,1.232.091.822.445,1.233.444.821-.308,1.232-.308.822-.213,1.232-.214.822.609,1.233.609c.592,0,.592-.4,1.184-.4.426-.016.97-.308.954-.735a1.28,1.28,0,0,0-.947-1.018c-.386,0-.778.446-1.166.446s-.772-.111-1.159-.111-.774.162-1.16.164-.772-.036-1.159-.036-.774-.06-1.16-.06-.772.2-1.159.2-.774-.072-1.16-.072-.774-.525-1.16-.525-.772.061-1.159.062-.774-.1-1.16-.1-.772.187-1.159.187c-.6,0-.6.115-1.2.117s-.6-.125-1.193-.124-.6-.175-1.192-.174-.6.294-1.192.3-.6.247-1.2.248-.6-.018-1.2-.016-.6-.246-1.2-.245-.6-.294-1.2-.293-.6.108-1.2.108-.6.384-1.2.384-.6-.515-1.2-.513-.6.569-1.2.569-.6-.117-1.2-.115-.6.266-1.206.267-.6-.677-1.207-.676-.592.643-1.186.643-.595-.224-1.189-.224-.595-.371-1.189-.37-.592.33-1.184.331-.591-.075-1.183-.074-.592.139-1.186.139-.6-.311-1.19-.31-.593.184-1.188.185-.593.344-1.188.344-.6-.261-1.192-.26-.6-.184-1.19-.182-.6.346-1.192.346-.593-.109-1.187-.108-.6-.227-1.194-.227-.6.416-1.194.417-.6-.155-1.2-.155-.6.2-1.2.2-.61-.027-1.22-.027-.61-.072-1.221-.072-.609-.556-1.216-.556-.608.29-1.215.29-.608.265-1.216.266-.611-.179-1.222-.179-.61-.409-1.22-.407-.609.664-1.219.664-.612-.52-1.224-.52-.61.57-1.22.571-.612-.235-1.223-.234-.61-.033-1.219-.032-.612.162-1.224.164-.613-.434-1.227-.434-.615.208-1.229.208-.615.35-1.229.35c-.407,0-.816-.014-1.223-.013s-.816-.344-1.224-.344-.816-.246-1.223-.245-.816.085-1.223.086-.816.072-1.223.073-.816.35-1.223.35-.816-.472-1.224-.472-.815.579-1.222.579-.816-.257-1.224-.255-.815.193-1.223.193-.816-.394-1.223-.394-.816.434-1.223.436-.816-.065-1.223-.065c-.779,0-.777-.026-1.555-.02-.426.018-.6.117-.584.543.015.4.039.556.442.571.131-.1.138-.155.139-.155" transform="translate(0 17.347)" fill="#0d4b08"/><path d="M25.734,53.75c.307-.141.8.106,1.1-.036s.632-.245.938-.386.387-.789.693-.931c.221-.081.265-.011.471-.125-.2.082.091.255.254.192.1-.039.054-.148.152-.188.128-.054.308-.013.43-.079a3.219,3.219,0,0,0,.841-.657c.232-.255.2-.685.326-1a2.794,2.794,0,0,0,.038-.98c.057-.363.106-.742.161-1.1s.459-.671.505-1.035.161-.726.191-1.093c0-.425-.449-.426-.874-.429s-.91,0-.918.418c-.036.48.036.962-.032,1.438s.127.988.052,1.463c-.038.321-.53.55-.639.855.057-.139.419.257.4.285s-.409.061-.38.025c-.08.088-.035.39-.127.464-.5.288-1.252.088-1.788.291-.658.288-.625.373-1.277.675s-.688.235-1.333.552a1.111,1.111,0,0,0-.279,1.31,1.035,1.035,0,0,0,1.242.293c.052-.06-.158-.213-.154-.214" transform="translate(4.353 8.14)" fill="#0d4b08"/><path d="M44.7,46.371c.032.405-.212.837-.165,1.24s.134.805.2,1.206.008.824.086,1.223a3.494,3.494,0,0,0,.577,1.442c.291.384.989.3,1.438.515.161.077.093.61.25.7-.258-.152-.048-.326.024-.287s.184.052.268.091c.539.254.533.264,1.073.518.666.316.6.464,1.263.781s.745.151,1.408.476c.37.206,1.069.243,1.292-.118a1.378,1.378,0,0,0-.377-1.463c-.338-.161-.821-.051-1.159-.213s-.762-.142-1.1-.3-.724-.215-1.063-.373-.5-.728-.842-.878c-.377-.121-1,.038-1.285-.243.065.078.028-.316.012-.344s-.2-.126-.219-.172a1.064,1.064,0,0,0,.582-.144c-.065-.181-.642-.21-.676-.4-.068-.353-.167-.709-.223-1.064s.288-.768.247-1.124-.192-.7-.22-1.058a.926.926,0,0,0-.788-.9,1.053,1.053,0,0,0-.888.945c.033.081.287-.06.287-.054" transform="translate(7.878 8.067)" fill="#0d4b08"/><path d="M79.376,106.575a5.828,5.828,0,0,0,1.025-.609,6.648,6.648,0,0,0,1.1-.493,7.55,7.55,0,0,0,.948-.769,9.115,9.115,0,0,0,.77-.951,10.87,10.87,0,0,0,.679-1.024c.179-.357-.217-.969-.072-1.342s.47-.67.58-1.051-.021-.817.06-1.2.779-.693.83-1.078c.041-.436-.393-.915-.367-1.35s.248-.863.258-1.3-.087-.874-.094-1.31-.278-.859-.3-1.3-.064-.867-.1-1.3c-.021-.391-.072-.781-.1-1.17s.165-.794.132-1.183-.04-.779-.079-1.168-.251-.757-.294-1.146.324-.825.276-1.213-.347-.744-.4-1.131c-.059-.429.34-.925.276-1.354s-.689-.769-.761-1.2.152-.908.071-1.333-.255-.834-.346-1.257-.172-.85-.271-1.272c-.082-.349-.141-.7-.226-1.05s-.232-.679-.314-1.027-.478-.628-.555-.978.373-.8.286-1.139-.308-.642-.406-.976-.291-.638-.4-.971c-.124-.412-.164-.851-.3-1.261s-.57-.715-.71-1.121.054-.932-.1-1.336-.718-.645-.875-1.047-.152-.862-.317-1.259-.337-.791-.51-1.186c-.144-.357-.075-.809-.243-1.154s-.125-.821-.317-1.154-.831-.4-1.046-.713-.293-.73-.53-1.033-.656-.445-.912-.73-.186-.9-.464-1.168c-.281-.245-.818-.2-1.11-.432s-.675-.334-.976-.555-.283-.9-.593-1.11-.887,0-1.207-.193-.638-.373-.965-.552-.443-.776-.778-.941c-.393-.194-.99.044-1.393-.131s-.865-.2-1.27-.361-.741-.51-1.144-.681-.693-.618-1.1-.792-.884-.187-1.292-.363-.844-.285-1.25-.459c-.459-.2-.324-.512-.783-.709s-.688.325-1.143.12c-.3-.16-.339-.113-.6.118-.118.094-.384-.374-.358-.394-.078.059.22.458.141.517-.1.071-.214.147-.316.213-.22.145-.532.172-.762.3-.509.283-1.139.337-1.673.569-.414.175-.692.709-1.114.865s-.977-.057-1.406.08-.923.033-1.358.15c-.4.119-.646.831-1.053.932s-.869.008-1.279.094-.848.046-1.261.115-.872-.218-1.288-.166-.774.655-1.19.69-.864-.363-1.283-.345-.828.108-1.247.109-.838.248-1.249.221-.842.041-1.253,0-.818-.181-1.227-.241-.838-.045-1.244-.121-.778-.351-1.181-.443-.742-.427-1.141-.536-.778-.252-1.173-.377-.816-.146-1.206-.286c-.338-.117-.715-.13-1.048-.259s-.765-.039-1.094-.182-.533-.566-.856-.723-.6-.394-.915-.564c-.266-.144-.676-.039-.935-.2-.292-.178-.538-.754-.892-.754a3.936,3.936,0,0,0-1.18.318c-.595.239-.538.374-1.14.595-.387.139-.9-.046-1.282.1s-.718.44-1.1.589-.7.466-1.086.619-.7.469-1.078.626-.948-.122-1.326.04-.485.944-.861,1.113-.97-.146-1.345.026-.822.193-1.193.371c-.349.161-.509.715-.847.895s-.572.531-.9.728-.619.429-.938.642-.708.3-1.015.535-.527.512-.8.766-.465.57-.722.843-.571.473-.807.765-.861.3-1.075.609c-.225.337-.1.9-.31,1.252s-.234.788-.426,1.146-.691.552-.865.918-.543.656-.7,1.03-.248.785-.386,1.167-.2.8-.316,1.184c-.139.412.086.943-.047,1.358s-.79.665-.918,1.082.364,1.021.24,1.439-.644.718-.765,1.137-.051.891-.168,1.31c-.1.361-.148.738-.248,1.1s-.473.649-.572,1.011-.164.733-.26,1.1-.312.7-.406,1.058-.227.719-.318,1.083.324.854.235,1.219-.157.732-.244,1.1-.46.662-.544,1.028-.137.737-.217,1.1-.168.73-.244,1.1-.307.706-.376,1.075.036.769-.024,1.139-.409.7-.459,1.069-.133.777-.179,1.162.225.81.2,1.2.154.783.144,1.171.1.766.107,1.155-.432.79-.41,1.179.524.734.563,1.121-.117.786-.06,1.171-.3.847-.228,1.229c.089.418.155.862.267,1.274s.766.668.9,1.075a5.137,5.137,0,0,0,.576,1.223c.21.325.113.859.361,1.156a9.738,9.738,0,0,0,.888.766,9.686,9.686,0,0,0,.834.827,10.982,10.982,0,0,0,1.084.629c.37.187.852.111,1.239.252a10.291,10.291,0,0,0,1.209.185,10.032,10.032,0,0,0,1.182.2c.41.049.783.427,1.2.429a10.723,10.723,0,0,0,1.246.007c.409-.046.736-.559,1.14-.653.465-.079,1.037.277,1.476.119a8.141,8.141,0,0,0,1.233-.718c.405-.234.608-.712.967-1.016.339-.323.961-.358,1.263-.711s.194-1.018.46-1.4.768-.6.995-1.007c.19-.344.15-.808.333-1.154s.812-.464.989-.815.28-.741.45-1.095.389-.689.55-1.046.227-.761.381-1.122.308-.724.456-1.087.452-.67.592-1.036.049-.821.182-1.19c.15-.374.243-.771.391-1.146s.394-.712.542-1.088.2-.786.349-1.163.2-.785.346-1.163.1-.823.24-1.2.273-.757.412-1.136.608-.637.744-1.016-.1-.887.038-1.268c.118-.343.4-.629.511-.973s.074-.738.188-1.083.482-.645.511-1.015a.8.8,0,0,0-.438-.836,6.078,6.078,0,0,0-1.541-.538c-.818-.274-.829-.264-1.64-.558-.4-.142-.657-.661-1.055-.8s-.907.031-1.3-.112-.777-.328-1.174-.471-.675-.619-1.073-.761-.842-.148-1.24-.288-.858-.1-1.256-.24c-.446-.155-.856-.416-1.3-.57s-.849-.44-1.3-.59c-.276-.092-.56-.194-.843-.264-.377-.112-.671.208-.974.459a1.742,1.742,0,0,0-.427.6c-.193.381-.862.536-1.048.921s.033.965-.146,1.354-.21.843-.384,1.234-.724.617-.895,1.009-.244.829-.412,1.222-.595.679-.761,1.074c-.153.363.052.876-.1,1.241s-.572.62-.717.987-.08.818-.218,1.187c-.109.411.191.657.6.774s.916.092,1.037-.313c.139-.372-.173-.914-.027-1.283s.564-.632.715-1,.066-.836.22-1.2.757-.542.915-.905.4-.69.562-1.054c.2-.46.457-.895.664-1.354s.247-.991.459-1.447c.186-.4.434-.774.626-1.167a4.57,4.57,0,0,1,.38-1.153c-.18-.079-.2.431-.371.527-.046.019-.2-.3-.064-.264.059.016-.031.311.028.328.132.041.277-.416.407-.374.245.079.447.3.691.384.321.108.7.049,1.024.16s.58.4.9.512c.407.142.71.586,1.117.729s.916,0,1.323.145.756.457,1.162.6.728.532,1.135.678.954-.118,1.356.028.862.14,1.265.285.776.378,1.18.524.653.71,1.057.856c.158.058.417-.165.573-.117.039.012.13-.182.166-.166.218.1.253-.04-.061-.418a4.069,4.069,0,0,0-.226.609c-.144.449-.563.808-.712,1.254-.111.33-.293.632-.406.962s.194.8.078,1.13-.338.618-.457.944c-.132.366-.113.788-.247,1.151s-.306.717-.443,1.081-.333.706-.472,1.069-.093.8-.234,1.16-.35.7-.492,1.061-.775.529-.918.89-.221.724-.36,1.075-.365.666-.5,1.018-.1.77-.245,1.12-.178.743-.324,1.09-.407.645-.559.99-.467.616-.628.957c-.155.359-.053.835-.227,1.184s-.145.817-.338,1.156-.419.676-.631,1-.64.516-.87.832-.695.437-.942.741a5.466,5.466,0,0,1-.828.941c-.349.266-.523.816-.923,1-.444.188-1.048-.153-1.515-.042s-.843.739-1.325.771a9.348,9.348,0,0,1-1.162-.049c-.384,0-.811.235-1.189.185s-.624-.789-.994-.887-.935.387-1.289.243-.623-.526-.957-.716c-.347-.221-.444-.757-.752-1.028s-.819-.32-1.086-.635a5.114,5.114,0,0,1-.445-.728c-.069-.109-.258-.155-.318-.27-.027-.051.226-.244.2-.294-.066-.128-.118.248-.174.049-.1-.367-.542-.635-.65-1s.036-.8-.062-1.171-.007-.772-.08-1.147c-.067-.345-.465-.639-.513-.988s.022-.721-.006-1.071.18-.715.171-1.067c-.007-.389-.42-.779-.413-1.167s.178-.778.2-1.166-.146-.8-.111-1.183.107-.781.155-1.166.18-.769.243-1.153.681-.653.75-1.029-.144-.8-.071-1.176-.109-.8-.033-1.175.334-.711.416-1.084.564-.653.65-1.025-.472-.895-.383-1.266.689-.616.783-.985-.36-.883-.263-1.252.426-.677.529-1.044c.1-.4.243-.784.349-1.18s.058-.835.166-1.23.638-.673.75-1.068.025-.845.14-1.239-.1-.888.014-1.28.253-.784.376-1.176.573-.681.7-1.07.49-.708.62-1.1c.1-.376.135-.768.26-1.135s.193-.751.34-1.11-.011-.863.159-1.213.769-.479.958-.818-.1-.974.108-1.3.65-.515.88-.829.323-.749.571-1.049.807-.336,1.073-.619.248-.883.531-1.151c.334-.259.739-.477,1.087-.716s.724-.463,1.084-.683.782-.357,1.154-.557.729-.454,1.11-.633,1,.167,1.392.009c.354-.164.681-.4,1.037-.555s.53-.743.89-.894.8-.112,1.161-.258.6-.62.958-.763.777-.162,1.141-.3.764-.191,1.129-.328c.336-.126.593-.462.93-.586s.8.1,1.136-.028.734-.333,1.07-.456c-.237-.185-.26.074-.516.232.354.225.505.332.87.539s.682.527,1.056.717.831.228,1.215.4.881.065,1.273.217.725.453,1.123.585.831.164,1.234.287.822.167,1.229.276.808.21,1.219.3.788.326,1.2.405.819.2,1.235.265.872-.237,1.29-.188.778.693,1.194.717.849-.29,1.266-.283.825-.232,1.242-.241.834.159,1.249.133.816-.167,1.23-.21.832,0,1.244-.064.807-.193,1.216-.268.9.232,1.3.14.686-.688,1.089-.795.855-.012,1.254-.135.87-.009,1.263-.148c.4-.114.739-.393,1.124-.535s.781-.27,1.156-.438.623-.582.985-.776.825-.2,1.174-.421.643-.239.975-.484c-.462-.1-.333-.047-.75.174.4.168.628.126,1.023.3s.738.464,1.134.635.8.318,1.2.487.755.429,1.15.6.918.044,1.315.211.645.695,1.043.859c.344.14.94-.308,1.277-.155s.412.862.744,1.028.709.224,1.034.4.864-.009,1.181.183.6.453.911.658.467.632.769.849.744.227,1.025.456.24.822.5,1.07.867.164,1.113.431c.224.26.438.55.639.827s.14.732.319,1.024.591.456.745.762c.181.361-.066.929.106,1.294s.876.49,1.038.859-.131.934.022,1.308.819.547.962.925-.383,1-.248,1.381.407.709.531,1.094c.122.37.228.746.351,1.117s.446.676.563,1.048.122.776.225,1.153c.093.334.575.577.65.916s-.474.812-.4,1.153.4.628.485.963c.1.387.311.746.405,1.135s-.013.823.074,1.213.235.764.317,1.155.622.695.7,1.087-.319.871-.254,1.266.3.754.358,1.146.1.785.157,1.177.373.754.422,1.147-.379.841-.337,1.235-.1.8-.066,1.2.054.785.084,1.18.087.783.111,1.177.412.77.43,1.166.137.789.148,1.184.049.794.055,1.189-.413.8-.414,1.194c.013.373-.033.729-.052,1.1s.378.777.328,1.147.04.783-.04,1.147-.235.732-.346,1.088-.823.491-.963.837-.225.679-.393,1.013c-.2.37-.135.881-.391,1.213a7.793,7.793,0,0,1-.954.821c-.252.239-.281.821-.583.994-.152.091-.417.013-.578.087-.029.014-.285-.185-.453-.133-.465.147-.278.65-.182,1.02s.173.811.655.661c.007,0-.012-.061,0-.064" transform="translate(0.282 9.045)" fill="#0d4b08"/><path d="M37.3,33.979c-.146.557-.653,1.043-.75,1.611a2.544,2.544,0,0,0-.028.92c.081.311.708.324,1,.459.243.127.429.339.7.337.18-.008.3-.276.474-.3.412-.111.5-.232.389-.643a.378.378,0,0,0-.248-.321c-.089-.045-.057-.059-.152-.093-.134-.036-.192-.151-.326-.113-.084.011-.171.032-.254.042.1-.014.106,0,.208-.011-.074.008-.208.254-.281.245.1.015.151-.328.253-.317a.966.966,0,0,1-.228-.082c.093.039.171-.15.264-.112-.048-.021-.391.424-.436.4.077.061.265-.171.344-.112-.021-.016.088-.146.072-.166.058.078.052.08.111.158-.014-.022-.06,0-.071-.021.039.092-.277.228-.237.32-.013-.035.094-.162.088-.2.013.1.118.091.134.192-.008-.08.316-.127.327-.207-.014.1-.232.288-.214.186a16.212,16.212,0,0,1,.5-1.727c.1-.414-.43-.673-.844-.774-.4-.1-.406-.046-.527.343,0,.04-.265-.015-.266-.008" transform="translate(6.472 5.96)" fill="#0d4b08"/><path d="M29.414,30.386a3.88,3.88,0,0,0,.02,1.471,2.712,2.712,0,0,0,.718,1.214c.279.331.637.351,1.179.407.512,0,.868.069,1.182-.139.374-.248.955-.456,1.091-.867a3.658,3.658,0,0,0,.15-1.42c-.054-.454-.693-.743-.907-1.074A1.707,1.707,0,0,0,31.82,29.1c-.467-.1-.829.172-1.26.456-.391.257-1.031.38-1.146.835" transform="translate(5.206 5.157)" fill="#0d4b08"/><path d="M46.1,30.447a3.425,3.425,0,0,1,.035,1.4c-.071.458,0,1.133-.3,1.488a2.372,2.372,0,0,1-1.466.5c-.512,0-.8-.41-1.113-.618a1.6,1.6,0,0,1-.752-.876A2.976,2.976,0,0,1,42.2,31.1a3.566,3.566,0,0,1,.263-1.352,2.208,2.208,0,0,1,1.385-.731c.467-.1.815.317,1.246.6.391.258.891.378,1.005.832" transform="translate(7.484 5.144)" fill="#0d4b08"/><path d="M34.373,40.986a6.774,6.774,0,0,0,1.076.56c.367.174.682.55,1.068.656a7.436,7.436,0,0,0,1.252-.029,6.837,6.837,0,0,0,1.189-.193,6.533,6.533,0,0,0,1.127-.3c.386-.1.9.164,1.267-.011s.524-.643.856-.881c.354-.349.379-.638.1-.91s-.546-.207-.9.139c-.032.032-.558-.24-.467-.313s-.038.162-.087.194c-.088.054-.2.024-.294.071-.062.032.112.595.048.623.1-.044-.1-.191-.146-.175a6.135,6.135,0,0,1-1.037.239,6.229,6.229,0,0,1-1.058.066,6.07,6.07,0,0,1-1.031-.108c-.339-.055-.788.157-1.113.044-.094-.035-.086-.489.049-.431-.054-.024-.041-.174-.1-.2-.1-.051-.234-.015-.332-.075-.075-.046-.181-.034-.254-.085.193.132-.233.217-.281.171-.353-.346-.57-.384-.844-.113s-.663.87-.306,1.22c.018.02.21-.157.212-.155" transform="translate(6.034 7.04)" fill="#0d4b08"/><path d="M39.432,39.3a4.355,4.355,0,0,0,1.493,2.206,5.179,5.179,0,0,0,1.13.691c.181.1.252-.046.453-.1.411-.112.683-.232.571-.644-.054-.2-.014-.6-.19-.7-.119-.057-.314.041-.425-.028-.051-.032-.1-.053-.152-.087s.111-.239.071-.267c-.1-.075.165.075.093.014-.2-.166-.655-.038-.827-.233-.04-.046-.285.073-.324.027-.078-.1.384-.4.418-.364-.021-.026-.145.133-.164.106-.074-.1-.391-.048-.457-.155-.135-.217.04-.612-.06-.847-.042-.092-.087.148-.049.241-.038-.089.111-.241.079-.333-.058-.191-.42-.154-.59-.26-.369-.214-.8-.276-1.013.093a.835.835,0,0,0-.022.623c0,.016-.036.011-.036.012" transform="translate(6.992 6.811)" fill="#0d4b08"/><path d="M61.824,9.6a1.6,1.6,0,0,1,.595-2.185,1.69,1.69,0,0,1,.219-.1,1.924,1.924,0,0,1,2.415.416,1.573,1.573,0,0,1-.666,2.123,1.475,1.475,0,0,1-.231.1A1.781,1.781,0,0,1,61.824,9.6" transform="translate(10.929 1.251)" fill="#407b3e"/><path d="M65.916.974c.243.4.675.62.971.983a10.011,10.011,0,0,1,.591.991,1.414,1.414,0,0,1,.157.962c-.077.385-.417.681-.62,1.016-.179.307.124.55.43.729s.48.21.659-.1a3.2,3.2,0,0,0,.5-.878,3.472,3.472,0,0,0,.288-1.008A3.591,3.591,0,0,0,68.739,2.6a4.992,4.992,0,0,0-.772-1.283c-.308-.353-1.027-.4-1.267-.8-.179-.306-.389-.646-.695-.467a.778.778,0,0,0-.206.993l.049.014a.2.2,0,0,0,.067-.082" transform="translate(11.655 0)" fill="#0d4b08"/><path d="M62.308,9.615c-.027-.044.073-.267.046-.311-.082-.133-.112.109-.134.026-.013-.04.181-.194.206-.231-.007.009-.367.073-.37-.026,0-.045.293-.093.293-.138,0-.021-.074-.021-.074-.044,0-.058.285-.059.285,0s-.46.035-.452-.021c0-.028.452.02.459-.008s-.17-.115-.158-.15c.029-.087-.079-.077-.069,0a.626.626,0,0,1,.058-.243c.019-.041.225.16.255.127-.1.069-.377-.351-.336-.4.061-.069.549.286.617.226.029-.026.042-.2-.065-.1.036-.031-.182-.392-.141-.417.066-.042.308.213.379.178.029-.015,0-.146.027-.162.078-.044-.172-.038-.041-.08.079-.025.24.244.318.225.029-.007.125.049.138.028-.044,0-.3-.436-.325-.4s.292-.068.334-.071.079.491.132.49c.078,0,.139-.036.219-.036.041,0,.075-.459.117-.456.071.008.147.592.045.585a1.242,1.242,0,0,1,0-.543c.066.013.044.4.108.424.032.009.064.081.094.088.084.019-.1-.277.016-.214.057.031.2-.058.247-.021.015.012.053-.041.068-.031.055.04.051-.049-.031-.111.006.022-.1.337-.081.356.068.071-.107.051-.127-.047.014.029.426-.117.447-.093s-.429.373-.409.406c.08.135.32-.308.367-.164.024.072.1.138.114.211.033.134-.506-.094-.516-.012,0,.048.573.12.576.17,0,.018-.235.161-.235.047s.238.107.227.133-.188,0-.2.042c-.033.118.1-.159.108-.153.015.025-.5.111-.52.135s.266.278.244.29c.057-.071.158.018.114.072-.022.027-.207-.133-.23-.108-.058.064.154.41.087.471-.085.078-.407-.414-.39-.424-.038.031-.02.042-.06.068-.071.047.072.456,0,.5-.042.022-.068.089-.111.111-.118.059.008-.248-.121-.208-.172.059-.325.225-.5.27.168-.044.059.094.014.1s-.128-.168-.172-.168-.081-.208-.125-.208c-.155-.009-.012,0,0,.019-.079-.026-.127-.147-.21-.159-.02,0-.147.434-.166.427-.066-.024.126-.566.217-.529a2.879,2.879,0,0,1-.208.265c-.036-.02.012-.179-.024-.2-.1-.062.259,0,.152-.119-.024-.026-.366.244-.39.218s-.127.013-.145-.009c.055.073-.069.135-.109.079-.179-.307-.228-.511-.536-.332a.47.47,0,0,0-.172.732c.287.4.5,1.013.94,1.16a2.711,2.711,0,0,0,1.481-.28c.484-.1.746-.505,1.1-.829s.814-.536.961-1.009a1.932,1.932,0,0,0-.386-1.383,1.665,1.665,0,0,0-.963-.812c-.42-.14-.867-.659-1.293-.6s-.756.622-1.122.869c-.474.317-.549.829-.734,1.368-.173.571-.556,1.176-.233,1.679.179.306.67.233.976.053s.178-.321,0-.629l.389-.074a.4.4,0,0,1-.294.109" transform="translate(10.84 1.105)" fill="#0d4b08"/><path d="M65.922.461c-.178.615-.333.571-.506,1.187s-.052.653-.226,1.272-.319.579-.493,1.2-.148.629-.323,1.25.088.695-.08,1.317c-.081.347.177.439.523.52.327.077.558.126.661-.2.177-.613.042-.651.215-1.267s.464-.537.638-1.156-.206-.726-.032-1.346.457-.543.631-1.164.109-.639.278-1.262c.081-.346-.134-.454-.482-.535-.327-.077-.7-.141-.8.179" transform="translate(11.402 0.039)" fill="#0d4b08"/></g></g></svg>