<svg xmlns="http://www.w3.org/2000/svg" width="115.681" height="61.608"><defs><clipPath id="a"><path fill="none" d="M0 0h115.681v61.608H0z"/></clipPath></defs><g clip-path="url(#a)"><path fill="#407b3e" d="M25.559 59.818c-6.539-.209-12.822-1.371-17.152-6.357a28 28 0 0 1-5.58-11.732C.6 32.987 1.273 22.856 6.314 15.797a15.7 15.7 0 0 1 6.3-5.151 21.36 21.36 0 0 1 12-1.029 26.4 26.4 0 0 0 10.612.5c9.051-1.331 17.75 1.358 22 9.124 3.07 5.606 3.148 12.191 2.023 18.361a31.6 31.6 0 0 1-5.942 14.184 21.5 21.5 0 0 1-10.626 7.281c-4.485 1.315-9.729.791-14.379.791q-1.38.006-2.743-.036"/><path fill="#0d4b08" d="M22.236 17.072a11 11 0 0 0 1.246.833 11 11 0 0 0 1.362.624 11 11 0 0 0 1.467.293 11 11 0 0 0 1.448.3 11 11 0 0 0 1.482-.066 15 15 0 0 0 1.564 0 15 15 0 0 0 1.557-.107 15 15 0 0 0 1.524-.356c.506-.139 1.218.292 1.708.1s1.014-.415 1.487-.655a1.75 1.75 0 0 0 .74-1.429c-.027-.408-.662-.681-1.029-.911-.332-.21-.846-.688-1.293-.466-.482.24-.778.884-1.281 1.062a14 14 0 0 1-1.627.13 13 13 0 0 1-1.571.162c-.534.047-1.044.452-1.581.432-.485.026-.933-.425-1.411-.479s-1.023.28-1.488.149a9 9 0 0 1-1.3-.675 8.6 8.6 0 0 1-1.243-.713c-.376-.335-.949-.7-1.323-.582-.411.13-.577.836-.708 1.226a.975.975 0 0 0 .269 1.129"/><path fill="#0d4b08" d="M25.573 58.239c-.469-.016-.963.5-1.438.476s-.967.173-1.441.132-.951-.129-1.422-.186-.906-.419-1.372-.5-.907-.308-1.368-.411-.89-.319-1.345-.449-1.079.232-1.522.07-.587-1.066-1.016-1.262-.961-.146-1.374-.379-.9-.342-1.286-.615a14 14 0 0 1-1.007-1.007c-.363-.313-.9-.444-1.23-.787s-.763-.624-1.066-.996-.589-.778-.863-1.172-.648-.745-.894-1.156.13-1.167-.09-1.594-.352-.868-.548-1.306-.525-.8-.7-1.246-.248-.916-.4-1.368-.319-.891-.454-1.349-.515-.845-.637-1.309-.438-.884-.539-1.349.169-1.016.08-1.482c-.1-.489-.584-.91-.661-1.4s-.145-1-.2-1.491-.2-1-.236-1.492.289-1.017.279-1.515.094-.994.106-1.492-.331-1.016-.295-1.512.215-.989.27-1.484.312-.964.391-1.456-.067-1.026.033-1.515.787-.836.909-1.319-.092-1.046.052-1.524.594-.814.77-1.271-.024-1.064.182-1.508.25-.983.486-1.412.648-.768.914-1.177.285-1.023.584-1.411 1.212-.263 1.542-.622.551-.8.914-1.123.529-.893.926-1.182.685-.784 1.112-1.029a15 15 0 0 1 1.444-.461 14 14 0 0 1 1.345-.682c.492-.136 1.013-.263 1.512-.363s1.064.119 1.57.056 1.014-.1 1.524-.126 1.019-.063 1.528-.053 1.036-.133 1.544-.087 1.017.149 1.521.232c.562.074 1.146.043 1.7.142s1.107.22 1.665.315 1.095.248 1.657.31 1.1.094 1.667.122 1.125.665 1.685.651 1.157-.046 1.717-.1c.485-.056.963-.242 1.441-.31s.9-.581 1.381-.64.994.363 1.481.338c.416-.021.814-.512 1.23-.515s.826.326 1.24.341.818.116 1.232.152c.468.034.973-.3 1.436-.238s.84.581 1.3.68 1.014-.215 1.461-.083.841.448 1.281.609.87.333 1.3.527c.455.215.731.724 1.162.974s1.079.152 1.485.439.924.465 1.3.788.627.817.974 1.172.481.9.8 1.291.549.81.831 1.222.5.834.747 1.271.682.753.89 1.209.336.93.5 1.4.458.9.582 1.385.322.947.413 1.434.262.969.329 1.458.233.983.279 1.475-.529 1.03-.506 1.524 0 .977 0 1.471.272.989.25 1.482.386 1.027.342 1.519-.671.926-.738 1.416-.379.927-.469 1.415.343 1.074.233 1.558-.136.994-.27 1.471-.149.99-.3 1.461c-.119.464-.361.9-.506 1.352s-.83.721-1 1.166-.469.817-.665 1.252.219 1.167-.006 1.59-.65.741-.9 1.149-.216 1.016-.486 1.409-.884.552-1.179.929-.373.941-.69 1.3-.979.4-1.313.743-.584.764-.94 1.083-.966.318-1.339.617-.29 1.213-.68 1.489-1.232-.175-1.645.059-.637.813-1.069 1.014-.823.516-1.269.685-1.009-.027-1.467.107-.81.688-1.276.788-1-.216-1.474-.15c-.514.049-1 .273-1.517.31s-1.032-.05-1.545-.027-1.03-.251-1.549-.24-1.017.163-1.531.159-1.033.265-1.545.248-1.037.233-1.551.2c-.525-.011-1.034-.727-1.56-.731s-1.057.781-1.581.774-1.057 0-1.582-.011-.992-.216-1.169.136a1.8 1.8 0 0 0-.056 1.4 1.47 1.47 0 0 0 1.236.562c.485.014.979-.262 1.465-.248s.967.13 1.455.143.966.363 1.452.372.981-.549 1.468-.542.971.127 1.458.13.974.363 1.461.359.976.323 1.461.315c.458 0 .924-.162 1.381-.182s.906-.282 1.361-.328.963.236 1.415.167.884-.333 1.331-.428.745-.791 1.188-.91.909-.087 1.343-.229.934-.079 1.361-.243c.436-.192.68-.761 1.1-.977s1.079.011 1.489-.229.718-.647 1.113-.911.758-.562 1.137-.85.737-.588 1.1-.9.691-.644 1.033-.973.549-.774.871-1.123 1.072-.325 1.372-.692.036-1.167.316-1.552.806-.581 1.063-.981.435-.836.667-1.25.632-.735.841-1.165.112-.983.295-1.424c.21-.488.373-.983.564-1.479s.3-1.006.465-1.509.532-.934.68-1.445.153-1.049.279-1.564.415-.984.524-1.505.242-1.032.328-1.555c.083-.454.23-.893.3-1.348s.127-.909.176-1.365-.069-.924-.037-1.384.537-.9.552-1.355-.226-.927-.23-1.388-.2-.911-.22-1.371.236-.936.2-1.394c-.031-.494.089-1.014.021-1.5s-.059-1.016-.159-1.5-.911-.8-1.044-1.268.362-1.153.195-1.615-.891-.71-1.09-1.16-.215-.981-.446-1.416-.528-.828-.787-1.248-.371-.94-.661-1.339-.488-.884-.8-1.262-1.156-.279-1.5-.634-.624-.731-.99-1.063-.757-.565-1.146-.87c-.4-.272-.514-.936-.923-1.18s-.731-.682-1.157-.9-1-.159-1.434-.351-.84-.488-1.291-.652-.986-.064-1.445-.2-.956-.076-1.422-.183-.836-.678-1.308-.757-.946-.26-1.422-.31-.992.439-1.471.419-.941.023-1.419.033-.979-.476-1.456-.436c-.5.027-1.024.019-1.521.082s-.907.765-1.4.837-1.032-.112-1.531-.062c-.445.04-.906-.253-1.352-.239s-.874-.167-1.321-.179-.933.737-1.379.7-.903-.182-1.345-.247-.843-.535-1.289-.612-.846-.437-1.295-.517-1.007.5-1.458.432-.85-.5-1.3-.545c-.529-.057-1.09.352-1.621.326s-1.054-.63-1.587-.622-1.039.614-1.57.655c-.465.031-.979-.4-1.438-.335s-.917.233-1.369.338-.767.682-1.21.824-1.03-.136-1.459.041-.775.544-1.19.755-.791.475-1.188.718-.807.452-1.183.727c-.388.3-.808.558-1.17.886s-.672.71-1.009 1.066-.953.481-1.26.861-.574.823-.851 1.226-.4.921-.648 1.345-.494.856-.705 1.3-.482.877-.671 1.332-.106 1.023-.275 1.487-.478.881-.624 1.352-.5.893-.627 1.371-.189.983-.293 1.465-.176.983-.258 1.469.439 1.059.381 1.549-.456.937-.494 1.429-.457.972-.474 1.466.127 1 .134 1.5.681.957.711 1.451-.48 1.018-.427 1.508.167.99.23 1.487 0 1.014.074 1.508.173.992.269 1.482.2.986.315 1.472.175 1 .3 1.478.569.88.717 1.358c.126.438.082.931.227 1.362s.505.787.672 1.212.361.831.548 1.246.026 1 .233 1.409.338.871.564 1.266.933.508 1.177.893.212.957.475 1.329c.285.395 1.07.385 1.385.753s.575.748.919 1.09.21 1.208.579 1.521.834.549 1.229.833.964.318 1.381.568.989.172 1.424.388.644.937 1.095 1.115 1.07-.109 1.531.043.961.1 1.429.225.813.715 1.286.816.981.009 1.461.082.931.331 1.415.378c.464.054.961-.266 1.426-.227s.888.7 1.355.724.964-.671 1.431-.655c.521.016 1.186.316 1.365-.036.187-.372-.469-.851-.664-1.23-.18-.352-.19-1.139-.7-1.156"/><path fill="#0d4b08" d="M31.436 17.053c-.053-.506-.219-1.033-.229-1.539s.029-1.043.062-1.549.461-.981.537-1.484-.165-1.076-.046-1.57.509-.923.668-1.406c.113-.436.054-.929.192-1.356s.07-.951.233-1.371.961-.579 1.147-.99.021-.99.232-1.388.32-.911.554-1.3c.418-.459 1.176-.97 1.067-1.582-.195-.561-.973-.9-1.544-1.056-.383-.18-.921-.559-1.328-.442-.647.207-.572 1.4-.926 1.94-.256.415-1.2.419-1.436.846s-.421.9-.63 1.341-.054 1.05-.239 1.5-.464.866-.624 1.325.146 1.069.01 1.537c-.162.461-.572.837-.7 1.306s.057 1-.036 1.474-.557.884-.615 1.368.039.976.014 1.462-.421.973-.409 1.461.286.967.332 1.454c.021.667.564 1.479 1.232 1.5.675 0 1.112-.823 1.116-1.5-.046-.449-.381-.891-.392-1.342s.026-.93.047-1.379.554-.868.608-1.315.363-.837.449-1.279-.339-1-.222-1.432.033-.946.182-1.371c.179-.582.415-1.163.628-1.734s.72-1.037.967-1.594c.26-.572.671-1.076.987-1.622a6.8 6.8 0 0 1 1.079-1.664c-.21-.232-.19.552-.448.731-.06.041.037-.753-.037-.758-.325-.026-.363.272-.688.285a2 2 0 0 1 .339.18c.12.043.4.16.193.016-.229-.209-.379-.034-.618-.233-.059-.049-.093.155-.107.08-.063-.315-.084-.3-.15-.618-.011-.226.5.122.4.227-.106.145-.773-.1-.857.06-.147.239-.356.459-.489.707-.3.579-.439 1.272-.684 1.879-.166.4-.409.781-.561 1.19s-.269.837-.408 1.249-.014.913-.142 1.328c-.153.449-.082.957-.2 1.415s-.589.838-.677 1.3.239.992.185 1.462-.09.927-.112 1.4.08.929.093 1.4-.3.954-.258 1.426a1.37 1.37 0 0 0 1.229 1.335c.675 0 .98-.587.984-1.262-.03-.1.043-.047.041-.056"/><path fill="#407b3e" d="M87.583 60.106c-5.182-.166-10.158-1.091-13.592-5.038a22.2 22.2 0 0 1-4.425-9.3c-1.766-6.929-1.232-14.953 2.763-20.553a12.4 12.4 0 0 1 4.988-4.082 16.9 16.9 0 0 1 9.51-.816 20.9 20.9 0 0 0 8.411.4c7.174-1.054 14.068 1.076 17.441 7.231 2.432 4.442 2.5 9.663 1.6 14.553a25.03 25.03 0 0 1-4.709 11.243 17.05 17.05 0 0 1-8.415 5.764c-3.555 1.042-7.71.627-11.4.627q-1.09 0-2.17-.029"/><path fill="#0d4b08" d="M84.74 26.497c.4.3 1.125.1 1.561.33a9 9 0 0 0 1.292.7c.471.153.891.622 1.382.694s1.026-.269 1.524-.28a12 12 0 0 0 1.535-.325c.521-.046 1.082.288 1.592.176a13 13 0 0 0 1.432-.658 12 12 0 0 0 1.356-.733c.574-.285.491-.415.227-.837-.25-.4-.547-.891-1.1-.62-.508.255-.921.791-1.461.957a11 11 0 0 1-1.734.112 10.4 10.4 0 0 1-1.694.27 8 8 0 0 1-1.6.142c-.5-.084-.833-.877-1.3-1.069s-1.113-.083-1.535-.375c-.458-.408-.692-.18-1.037.149s-1.013.784-.539 1.209c.062.163.1.162.1.162"/><path fill="#0d4b08" d="M87.593 58.87c-.509-.019-1.036.248-1.555.213s-1.057.179-1.572.12-1.012-.295-1.519-.383-1-.295-1.5-.421-1.042-.157-1.527-.328-.836-.671-1.3-.894-1.215.037-1.651-.243a13 13 0 0 1-1.15-1.113c-.383-.332-.442-1-.781-1.366a14 14 0 0 1-1.126-1.023c-.3-.406-.8-.694-1.06-1.129s-.226-1.034-.451-1.489-.436-.907-.627-1.376-.652-.843-.816-1.322-.369-.961-.505-1.448.478-1.165.365-1.654-.315-.959-.408-1.449c-.1-.474-.129-.94-.2-1.416s-.069-.941-.113-1.422-.451-.924-.466-1.406-.157-.964-.147-1.446.508-.934.541-1.415-.585-1.024-.524-1.5.313-.937.4-1.412 0-1 .114-1.465.793-.783.931-1.246-.316-1.122-.14-1.562.326-.931.537-1.355.5-.854.744-1.258 1.006-.475 1.293-.853a13 13 0 0 1 .864-1.126c.328-.346.821-.469 1.183-.774a10 10 0 0 1 1.053-.893c.4-.255.594-.863 1.029-1.064s.8-.667 1.263-.81 1.07.22 1.547.132.987.16 1.468.114.933-.631 1.418-.635.976.155 1.461.192.916.455 1.394.534c.445.059.943-.235 1.386-.156s.927-.126 1.371-.052.817.552 1.262.6.9-.145 1.345-.123.874-.109 1.318-.12.867-.014 1.309-.059c.574-.066 1.188.216 1.758.137s1.116-.494 1.7-.524c.494-.027 1 .222 1.5.229s1.006-.159 1.5-.117c.464.034.98-.142 1.436-.067s.783.834 1.232.949 1.009-.139 1.448.014.95.187 1.374.379c.451.212.577 1.024 1 1.282s1.009.259 1.4.561.515.891.868 1.236 1.236.212 1.551.592-.05 1.263.222 1.678a13 13 0 0 1 .765 1.22c.223.441.773.718.946 1.183a14 14 0 0 1 .339 1.445c.107.459.667.831.748 1.295s-.126.983-.073 1.449.4.923.429 1.391-.349.966-.343 1.436.133.947.112 1.416-.445.909-.491 1.376.139.959.066 1.424-.418.871-.516 1.332.175 1 .05 1.459.04.993-.109 1.441c-.124.491-.308.981-.468 1.458s-.814.781-1.014 1.243-.63.8-.866 1.243-.019 1.149-.289 1.574-.378.994-.68 1.4-.667.8-1 1.176-.907.555-1.268.909-.834.584-1.223.907-.843.539-1.256.831c-.379.252-.5.947-.9 1.162s-1.149-.293-1.565-.114-.717.6-1.146.738-.821.419-1.263.521-.913.009-1.361.07c-.489.047-.95.359-1.439.391s-.976.192-1.464.209-.986.01-1.477.011-.987.12-1.477.107-.954-.728-1.442-.757c-.418-.009-.843-.084-1.26-.087s-.834.162-1.25.156-.826-.1-1.242-.112a1.43 1.43 0 0 0-1.225 1.271 1.234 1.234 0 0 0 1.215.993c.449.013.9-.189 1.353-.176s.891.4 1.339.409.91-.383 1.359-.376.9.013 1.349.016.9-.1 1.349-.1.9.339 1.351.331c.506.006 1.02.1 1.527.063s.967-.448 1.471-.519 1.01-.026 1.505-.134 1.033-.054 1.519-.2.88-.535 1.355-.718c.449-.2 1.153.117 1.585-.113s.694-.794 1.106-1.056 1.006-.3 1.4-.6.518-.937.886-1.26.579-.8.923-1.146.8-.582 1.115-.957.339-.954.624-1.352 1.208-.373 1.464-.793.368-.941.592-1.379.124-1.024.315-1.478.146-1.02.323-1.494.562-.863.717-1.343.129-1.006.26-1.494.24-.967.345-1.462.5-.927.581-1.426.185-1 .249-1.511.094-1.016.133-1.524-.109-1.022-.1-1.532.046-1.012.03-1.521-.173-1-.216-1.512c-.03-.469-.059-.917-.129-1.379s-.09-.919-.2-1.372-.255-.886-.4-1.329.276-1.115.094-1.544-.393-.89-.612-1.3-.571-.787-.823-1.182-.891-.527-1.177-.9-.226-1.039-.542-1.385-.99-.349-1.332-.668-.5-.873-.866-1.162c-.383-.263-.755-.587-1.156-.818s-1-.1-1.415-.3-.675-.79-1.107-.959-1.017.087-1.461-.049-.844-.425-1.295-.527-.913-.183-1.372-.249-.9-.438-1.364-.469-.951.389-1.414.393-.91.2-1.374.242c-.6.033-1.2-.084-1.787 0s-1.206-.094-1.8-.034c-.471.041-.924-.006-1.395 0s-.92-.046-1.389-.077-.951.166-1.418.1-.94-.2-1.414-.282-.973-.017-1.448-.1-.961-.033-1.441-.082c-.418-.046-.836.017-1.256 0s-.83.084-1.249.092-.87-.582-1.291-.549a14 14 0 0 0-1.57.162 15 15 0 0 0-1.455.644c-.494.15-.807.737-1.279.941s-1.179-.084-1.628.173a15 15 0 0 0-1.456.662c-.366.286-.382 1.013-.721 1.329s-.579.71-.888 1.057-.481.77-.755 1.145-.609.674-.848 1.073-.953.544-1.155.963-.516.824-.692 1.258.308 1.125.156 1.568-.5.82-.624 1.272.107.983 0 1.441-.585.83-.661 1.293.153.96.1 1.426-.548.891-.574 1.361.093.946.092 1.416-.386.96-.361 1.429.841.878.89 1.346-.708 1.04-.644 1.512.545.887.628 1.356.31.9.412 1.369-.14 1.014-.02 1.475.688.8.83 1.25c.139.485-.09 1.092.082 1.565s.529.883.734 1.345.319.97.551 1.418.238 1.046.5 1.477.677.79.971 1.2c.27.375.781.574 1.086.919s.814.479 1.149.794.236 1.159.6 1.439 1.2-.1 1.588.145a13 13 0 0 0 1.182.64c.418.192.621.864 1.053 1.027s.853.393 1.292.528.944.07 1.394.175.951-.09 1.406-.014.886.236 1.343.282c.551.066 1.076.454 1.63.492s1.133-.5 1.688-.484c.632.017.674-.089.667-.581s-.049-1.24-.667-1.26"/><path fill="#0d4b08" d="M92.476 26.181a16.6 16.6 0 0 1-.461-3.047c.054-.5.7-.917.8-1.409s-.236-1.1-.077-1.582c.112-.432.81-.68.953-1.1s-.014-.949.157-1.361.454-.773.655-1.17.1-1.012.332-1.394c.332-.365.93-.718.844-1.2-.155-.445-.784-.535-1.238-.66-.3-.143-.664-.641-.986-.548-.512.165-.452 1.119-.73 1.544-.253.409-.406.844-.631 1.27s-.537.784-.733 1.225-.559.8-.725 1.252-.472.857-.607 1.319c-.153.439-.382.864-.5 1.312s.133.977.057 1.435-.382.884-.418 1.346.073.931.077 1.395.107.92.152 1.382a1 1 0 0 0 .864 1.064c.535 0 1.292-.538 1.293-1.073a15 15 0 0 1-.145-1.587c0-.537-.605-1.122-.542-1.653s.846-.944.967-1.467a15 15 0 0 1 .451-1.512c.142-.462-.222-1.1-.053-1.552s.256-.959.451-1.4.486-.893.734-1.326c.2-.445.933-.9 1.262-1.259-.169-.183-.409.309-.612.451-.05.034.137.239.077.235-.258-.02-.232-.173-.491-.163.087.014.175-.1.258-.069s.147.3-.013.189c-.182-.165.057-.439-.132-.6-.047-.039-.451.386-.462.328-.05-.249.117-.278.066-.527-.009-.179-.016-.23-.087-.147-.086.114.01.373-.059.5-.116.19 0 .5-.1.694-.242.459-.74.788-.934 1.269s-.371.967-.542 1.455-.04 1.076-.192 1.568c-.146.428-.209.857-.318 1.293s-.943.734-1.014 1.179-.023.937-.056 1.386-.1.93-.09 1.381-.023.921.02 1.371c.016.531.881.993 1.411 1.009a.984.984 0 0 0 .9-1.047c.007-.041.157.006.157 0"/></g></svg>