<svg xmlns="http://www.w3.org/2000/svg" width="129.007" height="101.658"><defs><clipPath id="a"><path fill="none" d="M0 0h129.007v101.658H0z"/></clipPath></defs><g clip-path="url(#a)"><path fill="#fff" d="M58.746 78.228c-.143.329.1.821-.04 1.152s-.242.672-.374 1.005-.4.614-.522.949-.4.616-.525.953-.254.673-.37 1.012-.177.7-.287 1.039-.085.725-.19 1.068-.375.637-.474.981.074.764-.019 1.11c-.087.321-.585.539-.664.867s.017.693-.049 1.022-.29.635-.341.966.3.715.271 1.048-.441.646-.45.979.144.68.163 1.013.249.643.3.972a9 9 0 0 0 .112.99 8 8 0 0 0 .151 1.017 7.5 7.5 0 0 0 .415.941 38 38 0 0 0 1.393 1.5 8 8 0 0 0 .883.5c.276.189.463.535.762.688a9 9 0 0 0 .945.373 9 9 0 0 0 .945.392 10 10 0 0 0 1.03.009 9 9 0 0 0 .995.206c.336.011.666-.215 1-.24a9 9 0 0 0 .981-.144c.331-.063.644-.146.965-.24s.68-.069.992-.192.6-.293.9-.443.559-.366.847-.539.534-.393.808-.587.7-.186.962-.4.591-.359.838-.588.472-.5.7-.739.384-.569.6-.825.37-.555.573-.821c.47-.221.355-.173 1.028-.173.288 0 .631.114 1.027.114.311 0 .654.025 1.028.025.32 0 .663.179 1.027.179.326 0 .669-.213 1.028-.213.33 0 .673.059 1.029.059.332 0 .675-.217 1.028-.217.334 0 .677-.005 1.029-.005.336 0 .679.317 1.03.317s.68.052 1.03.052.68.079 1.029.079.682-.285 1.03-.285.682.139 1.03.139.683-.155 1.03-.155.683.052 1.03.052.683.235 1.03.235.683-.208 1.029-.208.68.013 1.024.013.681-.077 1.025-.077.682-.131 1.026-.131.683.318 1.027.318.683-.067 1.027-.067.685.021 1.029.021.685-.335 1.029-.335.683.257 1.025.257.684-.232 1.028-.232.684.013 1.028.013h1.03c.343 0 .686.015 1.03.015s.688.237 1.032.237.689-.06 1.034-.06.69.246 1.035.246.689-.309 1.033-.309.689.009 1.033.009.689.084 1.033.084.69-.177 1.033-.177.69.391 1.033.391.69-.481 1.033-.481.69.252 1.032.252.694-.012 1.038-.012.692.117 1.036.117.691.016 1.034.016.69.034 1.032.034.689-.388 1.03-.388.687.284 1.027.284.691.176 1.032.176.687-.407 1.025-.407.686.309 1.024.309a20 20 0 0 0 2.126-.41 6 6 0 0 0 1-.436c.3-.188.408-.647.67-.885a6 6 0 0 0 .816-.68c.214-.283.208-.686.367-1a5.5 5.5 0 0 0 .43-.94 5.7 5.7 0 0 0 .32-1.007 6 6 0 0 0-.075-1.054l.093-.009c-.031-.347-.041-.7-.074-1.047s.113-.715.078-1.064-.326-.672-.364-1.021-.207-.682-.25-1.031.118-.722.071-1.07.126-.731.073-1.078-.407-.647-.467-.993 0-.715-.073-1.059-.031-.717-.108-1.059-.245-.669-.332-1.008-.084-.712-.183-1.048-.224-.674-.336-1.006-.41-.6-.535-.931-.407-.589-.547-.91-.154-.7-.309-1.012-.4-.58-.57-.886-.174-.712-.363-1.008-.606-.433-.812-.719-.257-.679-.48-.953c-.208-.254-.461-.469-.684-.71s-.535-.388-.772-.616-.469-.448-.718-.662-.314-.658-.575-.857-.61-.285-.883-.469-.552-.359-.835-.526-.61-.252-.9-.4c-.315-.161-.666-.231-.989-.374s-.666-.216-1-.345-.518-.632-.851-.75-.768.058-1.1-.054-.69-.162-1.025-.271-.6-.443-.937-.551-.7-.126-1.041-.227-.695-.137-1.037-.227-.638-.377-.983-.451-.679.127-1.028.073c-.272.213-.389-.159-.6.008-.261.2-.313.715-.609.91-.279.183-.748.074-1.055.247-.292.165-.576.343-.892.5s-.485.579-.807.716-.61.34-.938.461-.686.136-1.018.242-.729-.05-1.064.041-.666.135-1.005.212-.639.281-.98.343-.664.21-1.007.257-.681.13-1.026.162-.706-.248-1.051-.232-.68.159-1.025.16-.707.153-1.055.136-.712.022-1.058-.011-.654-.449-1-.5-.736.167-1.078.1-.7-.1-1.041-.177-.594-.509-.929-.6-.788.182-1.117.075-.621-.369-.943-.491-.724-.106-1.04-.244-.6-.4-.9-.559-.669-.262-.964-.433c-.311-.181-.428-.646-.708-.837-.3-.2-.67-.274-.93-.487a10 10 0 0 1-.834-.542c-.352.083-.689.011-1.052.1s-.65.448-1 .545c-.369.1-.839-.174-1.175-.069a6.6 6.6 0 0 0-.979.436c-.3.155-.452.584-.753.781-.286.186-.545.41-.831.621s-.651.29-.927.506-.494.506-.766.722-.515.5-.786.705c-.288.221-.645.34-.92.532a8 8 0 0 1-.962.433 3.7 3.7 0 0 1-.945.392 1.3 1.3 0 0 1-.943-.143c-.342-.17-.763.016-1.073-.044a2.6 2.6 0 0 0-.967.012 3.2 3.2 0 0 0-1.006.12 4.4 4.4 0 0 0-.917.51 7 7 0 0 0-.819.7c-.365.474-.071.58-.318 1.031-.185.3-.55.494-.731.795s-.032.8-.208 1.1-.5.522-.67.83-.318.626-.484.936-.571.5-.732.809-.133.722-.289 1.037-.161.7-.311 1.02-.471.555-.617.875-.211.741-.351 1.063c-.081.061-.257-.177-.257-.177M55.6 50.9c.209-.275.514-.486.713-.77s.3-.635.491-.927.491-.514.669-.812.376-.591.542-.9.253-.656.408-.967.194-.676.338-.992.215-.66.346-.981.114-.692.234-1.018.633-.512.741-.843.183-.674.279-1.008.138-.683.222-1.021-.219-.756-.147-1.1.49-.607.55-.95-.191-.727-.143-1.073.14-.672.176-1.019.352-.662.377-1.01.011-.695.024-1.043-.3-.7-.3-1.046 0-.684-.007-1.033.114-.692.094-1.041-.1-.682-.134-1.031-.035-.688-.071-1.028-.075-.684-.119-1.023-.1-.682-.148-1.02-.152-.672-.211-1.008-.183-.667-.251-1 .194-.749.118-1.084-.41-.614-.494-.946.02-.722-.073-1.052-.069-.706-.171-1.032-.607-.528-.719-.852-.259-.634-.381-.954-.116-.692-.248-1.008-.121-.7-.263-1.011-.278-.635-.43-.941-.361-.592-.523-.893-.452-.536-.624-.831-.2-.683-.384-.972-.6-.424-.8-.707-.044-.813-.248-1.089-.554-.449-.767-.716-.31-.645-.533-.9-.753-.251-.986-.5-.2-.769-.439-1.011-.6-.375-.853-.607-.641-.31-.9-.532-.464-.513-.735-.725-.431-.573-.71-.774-.535-.447-.821-.636-.647-.273-.941-.451-.592-.354-.893-.521-.675-.192-.982-.347-.529-.486-.842-.629-.647-.244-.965-.375-.607-.346-.93-.466-.711-.055-1.038-.163-.619-.325-.95-.422-.718.027-1.052-.058-.665-.148-1-.221-.668-.133-1.007-.2-.651-.256-.992-.307-.684-.06-1.027-.1-.686-.01-1.03-.04-.683 0-1.028-.023S32.941.843 32.6.834s-.69-.12-1.036-.119-.691.037-1.036.048-.686.131-1.031.151-.681.11-1.026.139-.668.236-1.009.274-.7-.032-1.038.015-.686.075-1.025.132-.715-.057-1.051.01-.634.348-.968.424-.686.1-1.017.187-.606.388-.935.484-.653.2-.978.31-.756-.079-1.078.038-.668.195-.986.324-.674.193-.988.332-.51.544-.819.694-.68.183-.983.344-.531.464-.828.636-.618.3-.909.488-.711.177-.995.371-.448.565-.724.769-.558.4-.826.62-.483.495-.743.72-.424.55-.674.785-.719.247-.96.493-.432.543-.663.8-.475.5-.7.766-.174.737-.385 1.01-.618.39-.818.67-.2.691-.389.979-.377.563-.555.859-.346.583-.512.886-.336.59-.491.9-.515.51-.659.824-.226.651-.358.971-.488.549-.609.873.056.75-.054 1.078-.221.646-.32.978-.271.635-.359.969 0 .7-.075 1.042-.531.587-.6.926.346.758.289 1.1-.356.636-.4.979-.076.681-.114 1.026-.186.672-.214 1.018-.068.685-.087 1.032-.064.681-.077 1.026.371.691.369 1.038-.283.687-.277 1.034-.159.692-.145 1.038.438.667.46 1.014-.261.709-.232 1.061.142.683.18 1.022.02.7.069 1.034.049.7.108 1.032.423.623.492.957 0 .705.085 1.037.379.611.471.94.132.676.234 1 .09.7.2 1.018.305.622.43.94.17.675.306.989.26.64.407.948.143.7.3 1.007.551.488.72.786.456.525.636.816.193.691.383.975.206.7.407.979.652.375.863.645.335.615.556.876.367.6.6.853.534.449.774.694.419.564.667.8.521.459.779.686.645.307.911.524.634.3.907.508.463.526.743.724.615.314.9.5.469.544.763.722.725.117 1.025.284.506.5.811.661.636.263.946.41.671.176.987.312.626.27.945.4.536.531.86.645.694.1 1.022.2l.988.3c.331.1.683.1 1.017.181s.684.072 1.02.143.68.073 1.018.134.613.515.953.564.721-.212 1.062-.174.684.009 1.027.036.669.282 1.012.3.689-.065 1.033-.06.685-.058 1.028-.064.694.191 1.037.173.667-.313 1.009-.342.717.314 1.055.274.626-.467.962-.517.729.227 1.063.165.669-.154 1-.226.592-.457.922-.539.632-.248.959-.342.677-.091 1-.195.73.035 1.05-.079.657-.2.974-.326.58-.385.893-.52.583-.361.891-.506.592-.331.9-.486.748-.045 1.046-.21.53-.451.822-.626.5-.491.782-.675.529-.424.809-.618.778-.084 1.051-.287.378-.629.644-.841.556-.481.816-.7c.255.117.491.588.837.739.282.123.747-.1 1.073.035.294.126.542.4.86.528.3.127.673.1.986.232s.57.368.88.493.653.181.958.3.509.56.81.677c.328.129.7.1.995.207.345.13.566.131.84.229-.137-.293-.14-.528-.286-.828s-.53-.469-.678-.767.063-.762-.085-1.057-.313-.58-.464-.873-.559-.454-.712-.746-.336-.569-.489-.858-.171-.66-.325-.947-.4-.541-.551-.825-.385-.56-.54-.841c-.01-.02.2-.051.2-.051"/><path fill="#fff" d="M109.662 36.542c.24-.231.431-.618.721-.722a3 3 0 0 1 1.023-.128c.492.017.791.467 1.086.624a1.65 1.65 0 0 1 .716.814 3 3 0 0 1 .325.839c.076.3.564.549.592.883s-.382.655-.395.98.312.689.261 1c-.056.339-.41.59-.507.873s.13.751-.018 1.1a10 10 0 0 1-.605.881 6.3 6.3 0 0 1-.525.925 5.8 5.8 0 0 1-.723.8 3.4 3.4 0 0 1-1.108.358c-.35.105-.7-.09-1.063-.152-.1-.016.073.328-.053.307-.1.338-.324.57-.433.871a6 6 0 0 1-.546.885c-.085.231-.337.492-.54.883-.143.275-.172.653-.367.983-.168.282-.426.529-.628.837-.184.281-.194.7-.4.99-.2.277-.426.549-.647.83s-.541.455-.773.722-.45.532-.695.784-.605.372-.864.606-.359.657-.635.869-.382.487-.676.67c0 .424-.16.7-.16 1.019 0 .694-.267.554-.267 1.107a4 4 0 0 0 .433 1.279 4 4 0 0 0 .3.8c.154.232.46.307.689.491a6.4 6.4 0 0 0 1.009.578 10 10 0 0 0 1.044.518c.352.146.621.525 1.014.672.371.145.362.076.636.366-.26.215-.451.267-.75.473-.281.193-.644.261-.956.444-.3.173-.606.313-.927.476s-.58.38-.909.525-.593.383-.928.511-.634.307-.973.419-.63.356-.973.451-.782-.232-1.128-.152-.672.177-1.021.241-.678.167-1.029.217-.654.475-1.007.509-.731-.3-1.084-.284-.7.333-1.052.334-.705-.062-1.052-.079-.677-.33-1.022-.362-.694-.041-1.037-.089-.745.215-1.086.153-.695-.139-1.033-.216-.654-.3-.987-.388-.7-.134-1.023-.24-.663-.251-.985-.372-.66-.259-.974-.395-.65-.286-.955-.438-.656-.288-.951-.459-.648-.318-.927-.506c-.3-.2-.376-.492-.637-.7.4-.334.356-.413.842-.6.393-.148.838-.1 1.19-.244a11 11 0 0 0 1.148-.4c.337-.188.432-.745.756-1.006a2.3 2.3 0 0 0 .5-.6c.153-.231.386-.385.491-.657a3.7 3.7 0 0 0 .313-1.266c0-.51.015-.384.015-1.02 0-.294-.058-.654-.058-1.043-.315-.173-.709-.255-1.013-.462s-.483-.561-.77-.795-.736-.259-1.005-.513-.211-.806-.464-1.078-.608-.415-.847-.7-.319-.659-.528-.942-.748-.363-.94-.659-.052-.816-.226-1.122-.475-.56-.63-.875c-.161-.33-.491-.578-.627-.9-.143-.339-.182-.714-.3-1.04-.125-.349-.123-.831-.219-1.16a2.35 2.35 0 0 1-1.185-.085 2.7 2.7 0 0 1-1.058-.406 5.3 5.3 0 0 1-.724-.724 7 7 0 0 1-.719-.768 7 7 0 0 1-.279-1.02c-.148-.351-.3-.661-.4-.947a6.4 6.4 0 0 1-.133-.942 8 8 0 0 1-.284-.939 8 8 0 0 1 .139-.964c.028-.335-.137-.7-.061-1a3.8 3.8 0 0 1 .35-.939 2.4 2.4 0 0 1 .9-.889 3.1 3.1 0 0 1 1.232-.164 2.6 2.6 0 0 1 .952.11 1.9 1.9 0 0 1 .732.458c.366-.364-.166-.3-.229-.937-.028-.295.213-.66.207-1.051-.006-.319.107-.65.131-1.018.021-.328.023-.659.076-1.016.049-.33.008-.678.092-1.025.079-.326.11-.673.225-1.008a10 10 0 0 1 .226-1.033c.141-.307.407-.57.587-.874a10 10 0 0 1 .6-.85c.2-.269.554-.414.794-.674s.321-.637.587-.872.559-.393.847-.6c.271-.2.446-.574.752-.757.288-.173.6-.352.923-.51.3-.149.75-.005 1.08-.141.311-.126.645-.2.983-.309.318-.107.66-.128 1-.222.324-.089.586-.446.933-.522.329-.072.693 0 1.043-.062.333-.057.652-.261 1.005-.307.335-.043.686-.03 1.04-.063.337-.031.7.179 1.05.158s.674-.242 1.029-.252.688 0 1.044 0 .691-.072 1.025-.063c.35.01.7-.107 1.033-.088.35.02.668.363 1 .394.349.031.692 0 1.022.044.348.044.68.115 1.007.169.346.061.749-.2 1.073-.13.343.075.618.407.937.5.339.093.738-.027 1.051.079.333.114.66.251.965.378.325.135.647.286.941.436.315.16.619.349.9.524.3.186.451.579.715.779s.576.387.818.614.3.647.518.9.672.343.858.618a9 9 0 0 1 .517.889 9 9 0 0 1 .345.967c.126.325.4.6.489.923s-.22.75-.164 1.078c.058.345.576.625.6.951.028.355-.212.716-.213 1.041 0 .363-.007.706-.034 1.021a9 9 0 0 1-.241 1 6.6 6.6 0 0 1-.225.973.6.6 0 0 0 .136.046"/><path fill="#3e783d" d="M111.734 24.119c-.106-.325.24-.813.115-1.127s-.511-.529-.658-.834-.441-.53-.61-.822-.355-.564-.549-.842-.239-.664-.457-.923-.373-.591-.615-.829-.657-.3-.923-.512c-.355-.348-.227-.475-.57-.834s-.391-.317-.735-.677-.436-.277-.77-.647c-.2-.268-.476-.469-.7-.715s-.358-.57-.605-.8-.5-.425-.773-.628-.626-.238-.912-.417-.374-.678-.675-.834-.653-.182-.965-.314-.625-.217-.946-.328-.62-.233-.948-.324-.614-.292-.947-.364-.708.176-1.044.12-.635-.2-.973-.239-.647-.2-.987-.225-.66-.194-1-.209-.693.049-1.028.053-.677.217-1.012.237-.694-.1-1.027-.06-.672.14-1 .192-.625.355-.952.424-.664.117-.988.2-.757-.157-1.076-.054-.686.141-1 .26-.648.259-.953.394-.429.689-.725.841-.806-.041-1.092.129-.4.664-.67.85-.729.162-.99.364-.3.712-.541.931c-.261.234-.6.353-.825.59a8 8 0 0 0-.556.654c.118.319.431.156.532.481-.255.221-.7.536-.942.775s-.644.332-.864.588-.09.789-.291 1.061-.506.456-.689.741-.5.484-.666.78-.428.548-.572.855-.134.684-.259 1-.324.6-.429.927.017.708-.069 1.035-.179.645-.246.977-.258.638-.307.973-.069.673-.1 1.01-.216.668-.228 1.007.245.68.25 1.018.213.657.236.995-.129.68-.089 1.017-.175.71-.118 1.044.4.61.472.941.064.677.154 1 .314.521.42.843c.211-.061.348-.22.624-.23a3.1 3.1 0 0 1 1.022.178c.291.1.516.509.757.741a2.6 2.6 0 0 0 .913-.606c.414-.348.343-.433.756-.78s.518-.232.921-.592c.206-.23.46-.465.7-.716.217-.23.381-.525.62-.766s.373-.546.613-.78.424-.5.667-.732.384-.56.63-.779.775-.116 1.024-.327.488-.444.741-.645.493-.446.752-.635c.276-.2.33-.71.593-.88.293-.189.763-.048 1.033-.19a.59.59 0 0 1 .863.356 3.2 3.2 0 0 1 .023 1.142c-.052.475.34.935.733.717.279-.156.582-.366.925-.566.293-.17.443-.633.769-.823.3-.176.619-.357.939-.541s.695-.242 1.012-.419.61-.41.926-.578.667-.319.98-.473c.343-.168.719-.331 1.03-.462a5.6 5.6 0 0 1 1.039.121c.514.063.52.018 1.034.081a9 9 0 0 1 1.052.069c.359.156.584.632.908.81s.757.144 1.085.38c.274.2.439.588.756.861.263.226.429.556.686.8s.795.2 1.036.461.507.51.732.779.341.646.549.926.282.672.47.963.358.61.518.912a10 10 0 0 1 .5.934c.365.373.5.217.906.541s.3.463.712.788.451.207.938.4c.24-.232.51.008.8-.1a2.6 2.6 0 0 1 .87-.306 3.8 3.8 0 0 1 .945.263c.082-.323-.162-.85-.094-1.183s.508-.59.561-.925-.049-.69-.011-1.027-.128-.685-.1-1.022.139-.663.149-1 .205-.674.2-1.012.04-.683.02-1.02-.169-.669-.2-1-.077-.675-.128-1.007-.261-.639-.329-.968.051-.708-.034-1.032-.253-.685-.357-1c-.1-.072-.278.141-.278.141"/><path fill="#0d4b08" d="M76.693 35.765c-.1-.323-.227-.654-.314-.983s-.025-.7-.1-1.035 0-.692-.056-1.028-.136-.667-.172-1.005.171-.69.152-1.029-.42-.667-.42-1.007.259-.675.278-1.015.061-.671.1-1.009-.151-.709-.093-1.044.016-.7.094-1.034.642-.531.741-.857-.048-.726.071-1.044.109-.7.249-1.008.286-.63.447-.93.505-.5.686-.788.453-.49.65-.757.223-.67.439-.922.563-.387.8-.623.43-.508.68-.727c.4-.348.219-.724-.079-1.006s-.542-.309-.921.024c-.252.22-.581.344-.815.58s-.451.485-.669.737-.288.612-.488.877-.711.311-.894.589-.255.632-.42.922-.293.6-.441.9-.312.59-.442.9-.371.576-.483.89.085.728-.01 1.048-.274.609-.351.934-.268.624-.328.952-.257.642-.3.973-.012.677-.037 1.009.158.678.15 1.011-.153.668-.144 1 .085.666.111 1 .3.632.344.962.06.652.116.979-.226.721-.154 1.045.072.676.158 1 .186.649.287.965c.156.483.8.357 1.179.259s.966-.326.806-.826l-.16.2c-.1.033-.248-.073-.248-.073M107.439 18.85c.265.215.541.393.78.629s.46.483.676.742.383.544.574.822.282.6.449.9.655.417.8.724-.03.744.09 1.061.268.61.367.934.459.575.538.9.024.69.083 1.023.317.642.359.977.1.682.128 1.018-.1.692-.093 1.029-.119.681-.123 1.017.022.679 0 1.013-.279.665-.314 1.007.313.732.262 1.073-.356.64-.422.978-.155.667-.237 1c-.122.5.34.754.722.864s.571.037.695-.469c.084-.34.641-.576.711-.922s-.131-.741-.076-1.09-.05-.711-.009-1.061.062-.692.088-1.044.241-.687.252-1.039.124-.7.119-1.057-.248-.695-.269-1.046.111-.714.072-1.063-.149-.692-.205-1.038-.23-.67-.3-1.013-.236-.658-.33-1-.067-.708-.181-1.04-.246-.654-.381-.978-.434-.564-.59-.879.022-.807-.156-1.11-.477-.537-.68-.825-.443-.547-.669-.816-.444-.548-.694-.8-.433-.582-.706-.8c-.336-.273-.775-.1-1.1.233a.63.63 0 0 0-.059.976c.041.071-.166.164-.166.164M99.483 27.676c.309.135.717.082 1 .243s.4.633.671.819.6.3.854.512.612.312.857.54.346.595.578.837.332.615.559.875.6.383.814.655.279.636.469.922.441.523.6.824a9 9 0 0 1 .367.949 1.076 1.076 0 0 0 1.169.607 1.03 1.03 0 0 0 .638-1.138c-.123-.3-.227-.622-.372-.912s-.227-.632-.394-.911-.662-.349-.847-.617-.112-.724-.311-.98-.447-.485-.66-.73-.641-.3-.864-.531c-.254-.269-.423-.617-.69-.869s-.677-.338-.962-.571-.579-.427-.882-.637-.523-.524-.845-.706a11 11 0 0 0-.928-.613.867.867 0 0 0-1.119.325c-.2.34-.2 1.145.2 1.32l.234-.152-.141-.061M81.839 35.159c.232-.257.173-.783.411-1.039s.711-.281.954-.531.495-.483.744-.726.442-.54.7-.776.378-.623.64-.851.5-.5.769-.717.744-.178 1.023-.385.367-.687.655-.882c.243-.164.515-.306.768-.454.066-.039.207-.017.223-.063-.012.034-.119-.062-.145 0a.5.5 0 0 0-.043.179c.053.315-.194.645-.16.96a1.6 1.6 0 0 0 .806 1 1.33 1.33 0 0 0 1.018.233 4 4 0 0 0 .924-.5c.29-.167.49-.489.779-.658s.573-.347.862-.515.7-.1.989-.26.528-.4.815-.561.689-.1.98-.255.434-.595.73-.737.68-.092.982-.22a1.14 1.14 0 0 0 .426-1.316c-.241-.412-.885-.357-1.285-.187-.335.143-.565.5-.892.661s-.8.018-1.125.189-.593.435-.909.613-.555.494-.87.675-.719.2-1.03.378-.713.207-1.025.388c-.246.143-.387.468-.635.608-.026.015.02.134.019.146.011-.092.256-.051.156.024.062-.047.25-.25.25-.324a3.4 3.4 0 0 0-.279-1.231 1.45 1.45 0 0 0-1.955-.828 7 7 0 0 0-.906.423c-.3.195-.389.714-.681.925s-.778.169-1.06.394-.534.494-.807.728-.359.686-.626.926c-.238.213-.558.335-.792.553s-.32.588-.549.811-.435.463-.659.691-.55.353-.77.586-.533.377-.747.614a.847.847 0 0 0 .064 1.162c.282.3.929.553 1.281.162l-.075-.274c.081.073.06.261.06.261"/><path fill="#0d4b08" d="M80.554 17.513c.207-.261.387-.533.614-.775s.411-.524.657-.747.554-.367.817-.571.391-.6.667-.781.663-.2.95-.365.5-.484.794-.633.649-.192.954-.323.65-.162.962-.276.619-.233.936-.33.666-.066.987-.147c.357-.09.649-.461 1.009-.53s.727-.157 1.091-.206.73-.182 1.1-.211.757.409 1.124.4.735-.406 1.1-.395.718.353 1.085.382c.322.024.637.07.96.108s.648 0 .969.055.678-.088.994-.02.654.1.966.183.526.493.832.6.734-.09 1.031.038c.332.144.661.335.979.508s.63.388.93.59a11 11 0 0 1 .847.7 10 10 0 0 1 .733.814 10 10 0 0 1 .565.931 1 1 0 0 0 1.251.177c.338-.2.613-.8.347-1.15-.219-.285-.505-.514-.742-.773s-.615-.383-.875-.621-.532-.45-.813-.664-.416-.638-.715-.828-.653-.3-.966-.464-.536-.542-.861-.685-.782.032-1.117-.088-.608-.425-.95-.524-.669-.282-1.016-.361-.74.053-1.091-.008-.729.115-1.082.07-.65-.42-.995-.448-.7.052-1.045.04-.691.139-1.037.142-.7-.176-1.042-.156-.712-.133-1.056-.1-.667.29-1.009.342-.715-.042-1.054.026-.663.238-1 .324-.694.111-1.024.213-.649.265-.973.385-.653.247-.971.385-.653.251-.963.4-.669.24-.97.412c-.319.182-.44.7-.75.9s-.8.147-1.1.37-.563.5-.84.745-.35.7-.605.972-.591.458-.82.747c-.268.339-.185.649.147.98a.5.5 0 0 0 .845-.042c.051-.037.237.271.237.271M79.311 35.833a3.8 3.8 0 0 0-.863-.608 3.8 3.8 0 0 0-1.041-.134 3.5 3.5 0 0 0-.986.163 3.5 3.5 0 0 0-.992.131c-.3.141-.461.45-.684.677a3 3 0 0 0-.506.774 4 4 0 0 0-.4.851 7 7 0 0 0-.222.966c-.037.331-.351.663-.346 1a9 9 0 0 0 .094 1.026 9 9 0 0 0 .258.993 10 10 0 0 0 .261.991c.118.314.483.531.633.827s.087.739.269 1.015a8 8 0 0 0 .664.72c.209.239.647.242.891.441s.356.615.636.755a3.6 3.6 0 0 0 .937.274 3.2 3.2 0 0 0 .962-.049c.429-.057.9-.339.9-.813a.77.77 0 0 0-.882-.659 2.1 2.1 0 0 1-1.163-.377 3.1 3.1 0 0 1-1.051-.612 6 6 0 0 1-.6-1.063 9 9 0 0 1-.352-.964 8 8 0 0 1-.333-.959 6 6 0 0 1-.049-1.01c-.028-.322-.344-.661-.333-1.016a5 5 0 0 1 .1-1.05 3.1 3.1 0 0 1 .365-1.039c.031-.043.008.04-.031.093.035-.042.156-.148.195-.187.006 0 .36.11.332.132a1.26 1.26 0 0 1 .578-.235 1.75 1.75 0 0 1 .766-.081c.265.059.616.007.826.2.377.338.637.2.923-.073s.617-.726.225-1.077l-.241-.022c.056-.063.257 0 .257 0M110.057 36.918c.21-.188.609-.171.875-.23s.508.189.779.248a1.3 1.3 0 0 1 .6.172c-.012-.009.233.294.147.184a2.4 2.4 0 0 1 .5.855 4.7 4.7 0 0 1-.053 1.024 9 9 0 0 1-.04 1.012c-.028.33.325.724.242 1.051s-.529.53-.654.84a9 9 0 0 1-.259.974 6.6 6.6 0 0 1-.362.866 4.3 4.3 0 0 1-.629.713 2.7 2.7 0 0 1-.862.431c-.276.092-.6-.059-.93-.1a1.04 1.04 0 0 0-.981.876 1.16 1.16 0 0 0 .945 1 3.4 3.4 0 0 0 1.1-.2 3.3 3.3 0 0 0 .929-.527 4.3 4.3 0 0 0 .938-.517 6.5 6.5 0 0 0 .573-.914 8 8 0 0 0 .524-.919c.173-.32.388-.6.523-.927.144-.345.3-.666.4-.99.091-.3.458-.541.51-.848a9 9 0 0 0 .091-.956 9 9 0 0 0-.066-.953c-.018-.312-.008-.647-.057-.951-.054-.332-.38-.612-.5-.922s-.049-.766-.247-1.034a3.5 3.5 0 0 0-.823-.675c-.31-.216-.774-.088-1.131-.174s-.708-.391-1.078-.356a3.8 3.8 0 0 0-1.094.32 3.5 3.5 0 0 0-.909.662.8.8 0 0 0-.055 1.177c.285.273.724.2 1.1-.142l.133.074a.7.7 0 0 0-.194-.142"/><path fill="#0d4b08" d="M108.583 44.417c-.076.369.013.776-.1 1.135s-.067.782-.2 1.131-.692.545-.829.886c0-.005.334-.009.264.138-.029.062-.237.039-.267.1-.073.154-.035.36-.114.511-.2.373-.416.732-.635 1.092-.186.305-.545.5-.745.794s-.329.636-.543.924-.51.5-.738.776-.322.661-.566.923-.575.431-.835.677-.279.772-.556 1c-.3.249-.889.112-1.221.323a7.5 7.5 0 0 1-.981.6c-.359.157-.619.635-1 .724-.509.118-.842.421-.727.811a.94.94 0 0 0 1.109.546c.339-.079.583-.406.9-.529a9 9 0 0 0 1.009-.245c.3-.161.737-.13 1.025-.324s.527-.474.8-.691.559-.428.812-.664.433-.557.669-.806.614-.393.837-.652.435-.507.643-.767.079-.776.277-1.042.683-.329.868-.6.215-.656.386-.939.2-.646.352-.938.275-.593.41-.893c.05-.112.146-.2.192-.313.013-.03.134-.215.091-.115-.051.119.247.048.258.023.048-.107.123-.207.168-.314.057-.138-.045-.342.008-.48.143-.38.123-.813.241-1.2s.376-.738.458-1.135c.1-.494-.285-.733-.662-.848s-.643-.067-.749.449l-.186.06c-.073-.015-.126-.124-.126-.124M78.176 44.769c.075.33-.021.7.071 1.024s-.066.735.042 1.056.582.512.707.827.224.634.365.942.086.713.243 1.013.328.6.5.892.57.441.759.722c.2.3.3.674.521.967s.32.681.556.962.621.428.872.694.631.389.9.637.252.828.536 1.055.762.209 1.064.413.512.567.832.743c.283.157.634.189.93.32s.593.26.9.364.57.39.885.466.663.055.983.1a1.16 1.16 0 0 0 1.225-.622 1.08 1.08 0 0 0-.774-1.092 9 9 0 0 1-.977-.319c-.337-.088-.784.169-1.1.047s-.452-.68-.759-.835-.623-.257-.914-.441-.785-.078-1.06-.288-.316-.7-.573-.93-.6-.358-.844-.606-.654-.341-.881-.6-.32-.689-.54-.978-.222-.728-.422-1.031-.456-.561-.637-.876-.32-.643-.481-.969-.4-.61-.542-.945-.1-.732-.218-1.075-.222-.677-.323-1.027-.6-.6-.675-.95c-.116-.511-.463-.874-.853-.759a1 1 0 0 0-.541 1.156c.067.089.228-.057.228-.057"/><path fill="#0d4b08" d="M101.093 55.993c0 .3.307.615.3.923s-.306.61-.3.916-.047.628-.014.931a4 4 0 0 0 .421.962 4 4 0 0 0 .409.948 4 4 0 0 0 .8.658 8 8 0 0 0 .892.726c.333.187.754.193 1.1.347s.73.21 1.086.348.565.651.919.791c.4.159.744-.433.85-.82.125-.455.045-.73-.36-.889-.293-.116-.493-.481-.789-.594s-.731.125-1.021 0-.574-.291-.852-.439-.428-.5-.687-.689a2.3 2.3 0 0 1-.67-.717c-.175-.292-.524-.56-.543-.915-.021-.412.111-.834.114-1.248s.173-.828.173-1.24c0-.517-.549-.732-.95-.732s-.579.215-.579.732l-.223-.227c-.038 0-.074.227-.074.227M85.945 56.353c0 .724-.19.725-.19 1.449 0 .468.233.99.046 1.415a2.7 2.7 0 0 1-.573.732 4 4 0 0 1-.778.464 8 8 0 0 1-.808.368c-.345.166-.7.3-1.057.446s-.647.457-1.008.592-.747.2-1.1.346c-.4.158-.475.478-.352.927.1.384.388.818.794.659.322-.127.707-.092 1.035-.214s.609-.373.936-.5.529-.546.848-.685.76-.021 1.068-.183a7.4 7.4 0 0 0 1.007-.549 5 5 0 0 0 .706-.9 4 4 0 0 0 .683-.9 4 4 0 0 0 .182-1.148 9 9 0 0 0 .161-1.153c-.006-.391-.2-.779-.2-1.156 0-.516-.3-.582-.7-.582s-1.017.065-1.017.582l.213-.224c.051 0 .1.223.1.223M116.513 88.912c0-.35-.086-.7-.082-1.052s-.168-.7-.164-1.053.167-.7.171-1.05.239-.7.243-1.048-.3-.705-.3-1.055-.05-.7-.045-1.052.084-.7.089-1.05.2-.7.206-1.048-.211-.7-.205-1.055.075-.7.082-1.05.134-.7.14-1.048a.87.87 0 0 0-.841-.883.976.976 0 0 0-.931.879c-.007.35.177.705.17 1.055s-.081.7-.087 1.05.2.7.2 1.054-.272.7-.278 1.047-.178.7-.184 1.048.127.7.123 1.054.305.705.3 1.055-.3.7-.308 1.047-.076.7-.08 1.05.164.7.16 1.054-.12.7-.125 1.049a.765.765 0 0 0 .859.731.785.785 0 0 0 .878-.718c.006-.039.008-.011.008-.011"/><path fill="#0d4b08" d="M106.4 63.021c.335.035.686.029 1.02.085s.685.069 1.016.142.6.418.925.5.714-.038 1.039.059.521.594.842.7.675.111.994.221.626.264.945.378.641.208.956.321c.333.119.79-.084 1.116.049s.494.634.813.783.688.189 1 .356.684.226.985.411.593.388.882.592.6.381.877.6.376.637.634.881.681.317.918.573.528.489.748.761.14.776.343 1.062.733.358.918.657.175.718.343 1.026.219.673.371.99.307.626.444.95.26.647.382.977.189.671.3 1.006.228.659.324 1 .458.6.543.946-.055.735.019 1.078.236.668.3 1.013c.06.32.291.613.345.934s-.051.671 0 .993-.135.676-.093 1 .39.608.429.932.134.643.168.967 0 .657.028.981-.126.667-.1.992.282.629.311.954c.039.431.207.741.668.741.4 0 .888-.3.849-.733-.032-.348 0-.7-.035-1.052s-.052-.7-.086-1.047-.259-.678-.3-1.026-.008-.7-.049-1.052-.3-.667-.342-1.015.163-.729.112-1.075.059-.722 0-1.068-.257-.669-.323-1.013-.446-.621-.522-.963.131-.748.045-1.088-.112-.7-.209-1.035-.365-.622-.474-.955-.118-.7-.24-1.029-.348-.616-.483-.94-.17-.687-.318-1-.463-.546-.627-.853-.406-.562-.584-.86-.022-.812-.216-1.1-.752-.317-.963-.6-.28-.657-.506-.922-.263-.709-.5-.959c-.227-.235-.727-.193-.965-.412s-.459-.454-.711-.659-.371-.585-.634-.776-.538-.377-.811-.554-.683-.128-.965-.29-.5-.434-.789-.583-.515-.437-.812-.572-.672-.088-.974-.209-.659-.066-.961-.178-.452-.642-.756-.747-.7.076-1.01-.024-.55-.389-.857-.486-.651-.072-.957-.168-.624-.2-.938-.295-.584-.37-.9-.449-.664-.069-.985-.136-.631-.231-.955-.283-.679.084-1.006.05a1.006 1.006 0 0 0-.969.846c0 .472.555.538.988.584l.213.242c.006-.056-.225-.136-.225-.136"/><path fill="#0d4b08" d="M81.09 63.165c.278.216.4.647.691.844s.573.427.878.606.573.441.889.6.787-.005 1.111.138.581.437.911.563.62.379.956.489.688.2 1.027.29.693.173 1.037.252.743-.092 1.09-.028.674.243 1.023.293c.327.047.665-.021.992.013s.648.1.977.116.652.189.98.2.658-.213.987-.219.648-.074.978-.094.642-.1.97-.133.684.2 1.009.152.61-.322.934-.382.73.28 1.051.206.62-.259.939-.346.651-.14.963-.24.624-.228.934-.341c.354-.13.575-.6.921-.742s.851.053 1.189-.113.618-.46.944-.646.578-.5.892-.706.619-.418.919-.649a.662.662 0 0 0-.041-1.007.85.85 0 0 0-1.141-.181c-.284.22-.431.631-.734.827s-.583.445-.9.618-.8.008-1.127.161-.5.663-.832.8-.752.051-1.092.164-.719.1-1.064.2-.686.2-1.035.279-.7.15-1.052.215-.714.076-1.066.128c-.324.047-.641.1-.969.137s-.633.337-.962.353-.664-.2-.991-.2-.657.09-.985.077-.672.142-1 .114-.642-.219-.968-.261-.613-.318-.936-.374-.7.186-1.025.116-.659-.089-.977-.172-.62-.245-.933-.342-.566-.38-.875-.489-.712-.024-1.024-.151-.6-.321-.9-.465-.552-.4-.847-.565-.55-.385-.83-.567-.543-.384-.809-.589a.876.876 0 0 0-1.16.145.75.75 0 0 0-.047 1.084l-.174-.13c.066-.085.3-.039.3-.039M56.112 51.164c.206-.273.544-.445.739-.724s.35-.586.534-.873.214-.665.388-.958.56-.462.723-.761.468-.529.62-.834.28-.63.421-.94.21-.658.34-.972.013-.727.132-1.046.174-.655.283-.978.549-.54.646-.867.275-.637.361-.967-.058-.719.017-1.051.268-.642.332-.978-.177-.721-.124-1.058.44-.625.483-.964-.132-.7-.1-1.041.223-.667.244-1.008.069-.682.08-1.023-.074-.686-.074-1.027-.221-.677-.231-1.018.165-.687.145-1.028-.129-.673-.16-1.013.027-.678-.01-1.012.047-.685 0-1.019-.026-.679-.078-1.011-.254-.643-.313-.974-.369-.613-.436-.943-.09-.664-.164-.992.036-.7-.046-1.025-.264-.626-.355-.95-.237-.629-.336-.951-.122-.665-.23-.984-.091-.682-.208-1-.423-.558-.549-.869.041-.75-.095-1.058-.461-.534-.605-.836-.188-.662-.342-.961-.447-.526-.611-.82-.129-.707-.3-.995-.725-.34-.909-.621-.392-.538-.586-.813-.057-.813-.266-1.086-.606-.4-.825-.669-.255-.694-.483-.951-.784-.215-1.022-.464-.172-.8-.419-1.041-.76-.2-1.016-.427-.424-.558-.688-.779-.637-.3-.909-.511-.556-.395-.836-.6-.557-.392-.844-.582-.41-.636-.705-.815-.64-.271-.941-.439-.564-.41-.871-.567-.6-.359-.909-.5-.663-.213-.981-.346-.654-.225-.977-.346-.693-.072-1.015-.18-.538-.554-.863-.65-.77.231-1.1.145-.59-.438-.921-.512-.657-.189-.99-.253-.657-.22-.989-.273-.722.245-1.059.205-.653-.252-.991-.285-.668-.2-1.006-.224-.684-.022-1.023-.035S32.406 0 32.067 0s-.679.245-1.018.251-.682-.107-1.021-.093-.671.142-1.01.165S28.34.338 28 .37s-.691-.086-1.027-.045-.645.3-.981.351-.679.159-1.023.219-.672.179-1.015.25-.74-.121-1.08-.04-.622.385-.96.477-.789-.21-1.124-.108-.64.314-.971.426-.68.192-1.007.315-.65.273-.973.407-.5.6-.821.742-.8-.058-1.115.1-.568.433-.876.6-.546.455-.847.632-.6.352-.9.54-.556.42-.844.619-.715.2-.995.414-.4.621-.676.841-.492.5-.755.725-.77.2-1.023.438-.219.774-.463 1.025-.64.355-.874.616-.556.45-.779.72-.432.557-.645.834-.425.563-.627.85-.441.553-.632.847-.362.606-.542.906-.11.745-.279 1.052-.532.51-.689.823-.226.671-.372.989-.124.707-.259 1.03-.409.587-.533.915-.459.583-.571.915.077.761-.023 1.1-.137.688-.226 1.028-.244.66-.322 1-.337.647-.405.992.089.731.031 1.078-.171.683-.219 1.032-.209.683-.247 1.033-.131.7-.16 1.047-.066.7-.085 1.055.156.712.145 1.064-.085.706-.088 1.061.214.7.219 1.06-.244.714-.23 1.068-.132.719-.112 1.072.188.7.22 1.054.382.67.424 1.022-.2.74-.151 1.091.043.714.105 1.063.3.665.374 1.012.042.718.127 1.062.272.642.365.974.081.7.186 1.025.383.6.5.923.317.613.443.934-.116.8.021 1.112.68.449.828.76.137.7.3 1 .086.742.256 1.042.673.406.853.7.335.6.525.886.2.7.4.981.411.56.621.833.626.383.846.649.34.612.57.87.347.622.585.871.619.36.867.6.619.34.875.571.223.8.489 1.017.72.2.99.414.427.577.7.777.633.295.918.486.566.388.857.57.485.531.782.7.644.264.946.426.565.414.873.566.7.135 1.012.276.583.387.9.519.775-.1 1.1.022.49.668.815.778.678.153 1.006.253.759-.162 1.09-.073.577.514.911.593.7.009 1.039.077.713-.107 1.051-.05.644.3.984.349.642.334.977.369.685-.017 1.021.007.676.076 1.013.09.681-.078 1.018-.074.681.186 1.018.179.682-.014 1.019-.032.647-.456.983-.484.708.3 1.043.26.65-.261.984-.309.64-.257.972-.315.654-.146.984-.215.667-.089.995-.168.7.021 1.027-.068.679-.094 1-.193.658-.175.978-.284.582-.384.9-.5.568-.393.88-.522.684-.114.992-.253.543-.426.846-.574.58-.338.878-.5.626-.253.919-.421.582-.291.86-.462.716-.1.988-.275.54-.379.806-.567.5-.435.758-.631.55-.363.805-.566.367-.547.616-.757c-.487-.058-.6-.315-1.059-.132.31.141.65.641.961.78s.747 0 1.059.134.512.533.826.667.644.229.959.36.659.193.975.321.6.336.918.461.723.022 1.042.143.57.423.89.541.7.064 1.022.178c.36.128.592.088.763-.166a1.01 1.01 0 0 0 .169-.922c-.141-.3-.3-.59-.439-.886s-.176-.648-.322-.943-.559-.457-.708-.75-.323-.573-.473-.866-.387-.54-.539-.832.1-.8-.057-1.086-.661-.393-.818-.682-.028-.734-.185-1.023-.3-.585-.463-.873a.947.947 0 0 0-1.257-.261.76.76 0 0 0-.16 1.088c.159.288.366.551.523.84s.031.732.187 1.022.611.42.765.711.285.6.437.887.285.6.435.888.252.611.4.905.2.634.351.929.127.669.27.966.46.515.6.812a2.4 2.4 0 0 0 .973-1.149c-.306-.109-.681-.258-.986-.371s-.673-.06-.978-.176-.613-.224-.916-.343-.506-.491-.808-.613-.635-.166-.936-.291-.506-.474-.805-.6-.729.047-1.028-.084-.513-.45-.81-.583-.553-.353-.849-.488a1.07 1.07 0 0 0-1.066.314c-.264.224-.388.623-.66.837s-.756.151-1.035.355-.5.484-.787.678-.491.515-.783.7-.688.2-.987.375-.684.183-.988.346-.51.508-.82.661-.686.158-1 .3-.59.364-.91.5-.663.189-.987.31-.627.284-.955.4-.654.211-.985.31-.669.156-1 .244-.686.078-1.023.155-.595.519-.934.585-.736-.2-1.077-.144-.671.147-1.014.19-.655.362-1 .393-.7-.069-1.046-.049-.685.241-1.031.249-.7.035-1.044.032-.691-.162-1.036-.177-.682-.169-1.026-.2-.691-.021-1.034-.06-.651-.314-.992-.364-.744.284-1.084.222-.631-.373-.968-.445-.667-.165-1-.248-.74.063-1.068-.037-.7-.088-1.03-.195-.495-.684-.819-.8-.739.01-1.059-.119-.7-.121-1.017-.261-.639-.277-.949-.428-.532-.484-.837-.645-.552-.424-.851-.6-.713-.152-1.006-.335-.48-.5-.758-.686-.59-.329-.861-.527-.609-.315-.873-.523-.58-.363-.836-.58-.423-.545-.672-.771-.5-.453-.741-.688-.6-.359-.834-.6-.17-.757-.392-1.01-.533-.426-.746-.686-.447-.5-.65-.772-.378-.557-.571-.832-.274-.623-.456-.905-.628-.4-.8-.692-.255-.634-.416-.929-.2-.652-.355-.953-.159-.664-.3-.97-.328-.584-.454-.9-.428-.535-.541-.841-.083-.663-.186-.974-.256-.6-.348-.916-.417-.566-.5-.883-.133-.647-.206-.965.206-.713.143-1.034-.037-.651-.09-.974-.1-.638-.146-.962-.524-.6-.558-.92.349-.688.324-1.014c-.028-.36-.412-.7-.432-1.058s.25-.734.239-1.1-.387-.717-.39-1.078.151-.727.157-1.088-.079-.73-.063-1.091-.02-.731.007-1.092.263-.707.3-1.067.314-.688.362-1.046-.325-.771-.261-1.128c.057-.337.262-.651.329-.986s.309-.633.386-.966.276-.63.364-.96.027-.7.126-1.025.286-.623.4-.946.011-.721.131-1.041.265-.633.4-.948.393-.573.536-.884.273-.624.427-.929.457-.525.623-.824.11-.722.288-1.014.2-.688.388-.973.538-.467.738-.744.616-.386.828-.655.209-.708.431-.968.52-.452.754-.7.351-.634.6-.877.449-.55.706-.783.54-.454.807-.677.7-.239.98-.451.624-.319.908-.52.506-.485.8-.675.656-.254.954-.433.607-.324.912-.492.566-.4.877-.558.569-.415.886-.56.607-.348.929-.482.593-.4.919-.525.8.162 1.125.051.646-.242.979-.342.65-.239.986-.327.577-.548.914-.627.752.2 1.091.132.622-.434.963-.493.677-.06 1.015-.114.721.192 1.064.153.68-.105 1.024-.134.668-.377 1.013-.4.7-.03 1.042-.039.7.122 1.042.123.695-.055 1.04-.044.693.056 1.038.078.693.052 1.036.085.692.066 1.034.11.7.048 1.037.1.7.057 1.037.123.607.473.944.551.732-.09 1.065 0 .608.381.936.483.61.334.935.447.792-.154 1.113-.029.658.233.974.37.574.415.884.565.544.452.848.613.594.342.892.515.618.3.908.49.655.262.938.459.458.542.733.75.72.2.986.423.247.768.5 1 .622.335.869.575.367.6.6.849.756.228.979.483.144.765.356 1.028.536.438.738.709.561.435.753.714.3.62.479.906.193.675.364.968.284.611.444.909.423.539.574.843.293.608.434.916.417.558.548.87.068.7.19 1.019.275.617.387.937.128.668.231.991.38.591.474.916.065.684.15 1.012.378.6.454.935.162.662.229.994.139.67.2 1.006-.023.7.028 1.033.135.669.178 1.007.146.671.18 1.01.114.677.139 1.017-.22.7-.2 1.036-.08.68-.074 1.021.038.675.034 1.015.093.68.079 1.021.033.682.008 1.022.119.7.083 1.035-.19.667-.237 1-.123.672-.181 1.007-.3.634-.368.968.064.711-.018 1.042-.227.645-.32.972.013.72-.093 1.044-.215.655-.334.975-.538.522-.668.837-.313.6-.456.911-.359.573-.514.878-.053.715-.213 1-.445.5-.616.784-.215.643-.395.919-.409.521-.6.79-.572.394-.77.658c-.262.346.116 1.046.458 1.247a.87.87 0 0 0 1.135-.295c.022-.091-.178-.12-.178-.12M62.522 69.426c-.177.287-.184.678-.356.967s-.189.668-.358.96-.406.541-.57.835-.641.418-.8.715-.3.61-.45.909-.287.613-.437.915-.368.573-.514.877.082.784-.059 1.09-.405.554-.542.862-.233.633-.365.943-.478.531-.606.843-.112.664-.234.971-.189.632-.307.939-.288.6-.4.9.009.7-.1 1.012-.628.48-.732.793.149.74.051 1.054-.295.6-.386.913-.065.662-.149.98-.33.594-.406.915-.1.65-.171.972.044.674-.012 1-.354.611-.4.941-.234.651-.255.982-.006.676 0 1.007.092.67.119 1 .327.624.383.95a10 10 0 0 0 .275.935c.09.32-.14.743-.013 1.05a8 8 0 0 0 .367.95c.163.285.544.443.748.71a7.5 7.5 0 0 0 .565.834c.235.234.679.221.938.423s.335.669.616.84.677.14.976.279a10 10 0 0 0 .858.521 10 10 0 0 0 .953.305c.321.074.669.046 1 .089s.667-.145 1-.133.654.2.983.181.647-.136.972-.186.675-.027 1-.109.688-.059 1-.17.663-.18.967-.317.545-.426.838-.588.443-.547.723-.73.569-.329.836-.531.645-.257.9-.474.434-.515.675-.746.433-.5.661-.749.51-.436.725-.69.534-.432.736-.695c.264-.345-.079-.893-.42-1.093a.98.98 0 0 0-1.243.07c-.22.287-.289.691-.529.966s-.572.454-.829.712-.417.612-.692.851-.7.276-.993.493-.346.784-.655.975-.631.4-.956.567-.832-.082-1.172.047-.607.458-.96.551c-.313.082-.672-.1-1-.053s-.608.51-.934.52-.641-.432-.966-.457-.7.309-1.016.247a9 9 0 0 1-.923-.378 8 8 0 0 1-.984-.2 7.5 7.5 0 0 1-.888-.469 7 7 0 0 1-.8-.609c-.277-.244-.306-.726-.525-1a6 6 0 0 1-.667-.839 7 7 0 0 1-.347-1.015 7.5 7.5 0 0 1-.222-1.038 9 9 0 0 1-.222-1.045c-.027-.356-.076-.71-.069-1.071s-.141-.733-.1-1.091.441-.665.5-1.017c.057-.332-.309-.743-.241-1.074s.415-.6.492-.929.2-.641.29-.968.272-.619.366-.943-.16-.75-.06-1.072.37-.589.478-.909.35-.591.462-.908.21-.64.326-.956.227-.635.348-.95.013-.717.136-1.029.375-.6.508-.926.172-.687.312-1.007.315-.626.46-.944.432-.569.582-.885.106-.725.261-1.039.265-.651.425-.962.276-.648.441-.956.572-.485.742-.79.147-.722.321-1.024.71-.394.889-.694.267-.652.45-.949a1.01 1.01 0 0 0-.318-1.292 1.08 1.08 0 0 0-1.313.33l.03.25c-.061-.038-.018-.242-.018-.242"/><path fill="#fff" d="M69.214 50.11c.134-.091.175-.338.313-.424.295-.184.778-.052 1.089-.213s.651-.228.973-.368.556-.469.885-.591.642-.28.977-.387.632-.338.971-.431a3.04 3.04 0 0 1 1.417.162 2 2 0 0 1 .745.436 1.57 1.57 0 0 1 .577.677 2.7 2.7 0 0 1 .02.948c-.026.311-.3.544-.4.84-.059.154.073.188.166.324a1.7 1.7 0 0 1 .771 0c.307.088.717.086.933.267s.062.673.16.976.45.562.435.877-.446.549-.534.849c-.1.336.251.425.186.77.07 0 .04-.224.1-.207a2.4 2.4 0 0 1 .776.522c.219.183.084.571.18.866a2.4 2.4 0 0 1 .19 1.174 4.5 4.5 0 0 1-.177 1.175c.554.155.518.774.571 1.086.085.515.3.951.111 1.279a3 3 0 0 1-1 .852c-.356.23-.634.521-.953.7-.343.195-.856.03-1.207.2-.329.164-.422.622-.8.8a4.7 4.7 0 0 0 .049.925c.08.341.08.7.161 1.043a6.6 6.6 0 0 1 .069.965c.023.328.2.658.125.977a2.5 2.5 0 0 1-.466 1.168 1.55 1.55 0 0 1-1.126.365c.064.34-.176.6-.131.945a4.4 4.4 0 0 1 .061.994 2.5 2.5 0 0 1-.194.877 1.66 1.66 0 0 1-.573.641c-.195.155-.213.616-.446.7a3.9 3.9 0 0 1-1.267.105 3.4 3.4 0 0 1-1.238-.165c-.3-.114-.48-.479-.757-.646s-.611-.207-.872-.384-.549-.318-.8-.51-.458-.437-.7-.644-.645-.24-.87-.46-.134-.75-.347-.983c-.252-.276-.832-.459-.838-.835-.007-.31.278-.632.438-.9.26-.426.3-.727.486-1.027a11 11 0 0 0 .737-.88c.159-.259.306-.578.548-.975-.106-.321-.375-.558-.482-.878s.028-.72-.077-1.041-.056-.692-.161-1.013-.236-.633-.342-.953-.283-.618-.389-.938-.458-.56-.563-.881-.269-.622-.374-.943.127-.752.02-1.072a4.6 4.6 0 0 1-.075-.9c-.026-.293-.263-.6-.249-.921a8 8 0 0 1 .221-.915c.055-.32-.16-.714-.06-.995.114-.32.559-.448.736-.669.231-.289.314-.7.567-.957a11 11 0 0 1 .919-.617c.282-.233.6-.432.9-.636.023-.021-.118-.137-.117-.137"/><path fill="#0d4b08" d="M83.7 69.384a1.44 1.44 0 0 1 .536.806c.012.106-.31.177-.351.276-.019.047.209.365.207.392.192-.134.294-.205.389.083-.1.294-.255.35-.437.226-.042-.112.083-.115.123.016.017.084-.044.2-.042.29a6.3 6.3 0 0 1-.042 1.322c-.019.14-.314.214-.374.342.051-.109.14.016.137.031.018-.016.013.228.037.235.28.038.394.173.01.613.009.068.029.01.04.077a3 3 0 0 1-.113.891c-.032.2.1.49.025.677-.032.078-.222.1-.263.179-.092.14-.188-.089-.078-.22.208-.051.251.4.464.412.113.029.154-.149.113-.1-.066.2.2.283.133.482-.072.166-.824-.219-.885-.117a1 1 0 0 0-.019.174c-.039.242.126.457.053.7a3.6 3.6 0 0 1-.543 1.252.78.78 0 0 0 .033 1.1.657.657 0 0 0 1-.039 7 7 0 0 0 .731-.9 4.7 4.7 0 0 0 .586-1.029 3.5 3.5 0 0 0 .2-1.213c-.033-.28-.472-.459-.609-.7a1.17 1.17 0 0 0-.527-.536 1 1 0 0 0-.814-.058c-.3.082-.8 0-.969.28a1.56 1.56 0 0 0-.153 1.05 2.1 2.1 0 0 0 .61.8 1.5 1.5 0 0 0 1.075.422 1.75 1.75 0 0 0 .914-.692 3.8 3.8 0 0 0 .537-1.057 4.7 4.7 0 0 0 .066-1.171 4.1 4.1 0 0 0 .02-1.188c-.081-.271-.494-.406-.684-.616a1.2 1.2 0 0 0-.666-.416c-.348-.08-.754-.228-1.026-.053s-.194.63-.264.978c-.084.413-.136.667.067.906.219.259.532.2.893.23.339.025.74.275 1.035.07a2.01 2.01 0 0 0 .835-1.283 11 11 0 0 0-.095-1.1 6 6 0 0 0-.082-1.066 1.8 1.8 0 0 0-.354-.676c-.132-.228-.113-.572-.377-.706a1.56 1.56 0 0 0-1-.145 1.31 1.31 0 0 0-.72.654 1.24 1.24 0 0 0-.218.929c.069.324.134.805.419 1s.74-.021 1.061-.068a1.3 1.3 0 0 0 .841-.4c.229-.25.181-.563.257-.87s.5-.611.452-.935-.471-.534-.62-.82-.063-.8-.292-1.01c-.373-.349-.889.039-1.174.316s-.354.474.027.832l-.224.092a.5.5 0 0 1 .086.055"/><path fill="#fff" d="M68.765 46.948c.064.15.545.349.739.741.142.285.249.618.4.9.208.389.284.884.389 1a.4.4 0 0 0 .264-.038c.314-.165.556-.5.883-.639s.627-.355.962-.48.767.05 1.108-.059.583-.531.928-.626a3.3 3.3 0 0 1 1.335.031c.223-.013.262.036.453-.078.436-.262.284-.469.68-.789a10 10 0 0 0 .847-.813c.341-.415.6-.663.65-.977a2.9 2.9 0 0 0-.019-1.084 4.5 4.5 0 0 0-.371-1.021c-.132-.283-.38-.552-.564-.876-.171-.3-.052-.788-.23-1.083-.195-.324-.444-.593-.6-.858a4.8 4.8 0 0 0-.843-.83 3 3 0 0 0-1.146-.763 5.3 5.3 0 0 0-1.029-.036 5 5 0 0 0-.992-.113 4.8 4.8 0 0 0-.985.18c-.328.091-.769-.064-1.071.1s-.456.565-.718.79-.718.354-.935.656-.07.8-.219 1.142a5.3 5.3 0 0 0-.371 1 5.6 5.6 0 0 0-.235 1.063 5.5 5.5 0 0 0 .286 1.053 7.4 7.4 0 0 0 .179 1.235c.143.4.447.815.611 1.2 0 .1-.384.069-.384.069M85.62 68.524a6.3 6.3 0 0 1-1.19-.1 6 6 0 0 1-1.137-.1 5.8 5.8 0 0 1-1.09-.33 5.3 5.3 0 0 1-.905-.679 9 9 0 0 1-1.025-.659c-.3-.273-.485-.652-.774-.958a6.4 6.4 0 0 1-.589-.8c-.181-.28-.694-.4-.859-.7a3.3 3.3 0 0 1-.2-1.036c-.072-.269-.252-.24-.337-.558.346-.173.766-.3 1.106-.5.315-.179.68-.308 1.029-.534a3.1 3.1 0 0 0 1.028-.841 2.12 2.12 0 0 0 .057-1.329c-.008-.048 0-.006-.017-.062.6-.305.482-.259.978-.51.4-.2.442-.116.847-.311.447-.195.695-.644 1.006-.713a2.5 2.5 0 0 1 1.237.052c.449.119.644.431.9.6a4.8 4.8 0 0 1 .752.733c.2.221.573.367.8.66.208.267.487.5.688.775.22.3.181.768.359 1.013.23.315.753.471.893.825A3.2 3.2 0 0 1 89.2 63.9a5.3 5.3 0 0 1-.238.99c-.093.33-.017.74-.172 1.041a5.3 5.3 0 0 1-.609.858 5 5 0 0 1-.825.635 4.6 4.6 0 0 1-.847.573 4.5 4.5 0 0 1-.934.313c-.078.087.041.216.041.216"/><path fill="#0d4b08" d="M69.229 49.167c-.3.188-.721.221-1.011.434s-.421.633-.69.868-.385.615-.627.876-.693.351-.9.641a4.1 4.1 0 0 0-.45 1.1 6.3 6.3 0 0 0-.1 1.168 9 9 0 0 0-.148 1.153 6 6 0 0 0 .173.96 9 9 0 0 0 .2.952c.089.315-.118.726-.012 1.039s.208.621.311.934.52.544.626.866.326.607.432.929-.022.721.084 1.043.205.647.311.969.195.65.3.972a1.06 1.06 0 0 0 1.091.732 1.013 1.013 0 0 0 .6-1.205c-.1-.294-.062-.631-.159-.925s-.2-.584-.3-.878-.552-.47-.649-.764.04-.665-.057-.959-.392-.522-.489-.816c-.181-.551-.088-.582-.27-1.133s-.095-.576-.279-1.123a4.4 4.4 0 0 1-.163-1.247 8 8 0 0 1-.139-.929 5 5 0 0 1 .2-.907 3 3 0 0 1 .325-.848 4.6 4.6 0 0 1 .619-.644c.2-.223.182-.683.417-.883s.521-.348.766-.523.637-.168.884-.325a1.034 1.034 0 0 0 .32-1.273.83.83 0 0 0-1.172-.18l-.13.031c-.011-.017.085-.1.085-.1"/><path fill="#0d4b08" d="M77.876 51.087a5.3 5.3 0 0 0 .3-1.066 3.8 3.8 0 0 0-.142-1.11c-.078-.345-.422-.584-.646-.876-.195-.254-.22-.731-.479-.89s-.695-.013-1-.074a2.8 2.8 0 0 0-.918-.107 8 8 0 0 0-1.025.045c-.323.084-.677.13-.993.239s-.485.639-.794.756c-.331.126-.741.045-1.065.188s-.647.29-.961.452-.733.159-1.035.345c-.436.268-.326.958-.129 1.3s.524.4.968.128c.279-.171.71-.079 1-.23s.547-.359.845-.49.547-.4.852-.509.645-.144.956-.244.6-.278.915-.365a3.5 3.5 0 0 1 .819-.137c.263 0 .382.331.607.526s.237.368.228.71c-.008.319.228.695.139.975-.158.5.11.594.5.695s.795.186.949-.3l-.019.016a.5.5 0 0 0 .125.018"/><path fill="#0d4b08" d="M79.851 54.37a5.4 5.4 0 0 0 .045-1.121 3.7 3.7 0 0 0 .034-1.127 2.7 2.7 0 0 0-.606-.961c-.221-.259-.613-.233-.894-.374a2.3 2.3 0 0 0-.858-.222c-.316-.033-.662-.494-.987-.435a9 9 0 0 0-.932.439c-.313.1-.617.247-.924.37s-.6.3-.9.421c-.335.14-.668.281-1 .437s-.644.33-.961.506-.708.237-1.011.438a.93.93 0 1 0 .948 1.593c.28-.185.447-.552.738-.718s.746-.012 1.047-.158.479-.554.788-.685.65-.18.964-.3.679-.075 1-.179a3.8 3.8 0 0 1 .8-.146c.284-.031.647-.388.906-.2s.211.671.218 1a3.3 3.3 0 0 1-.15.932 1.03 1.03 0 0 0 .539 1.211c.386.106.908-.277 1.047-.773l.052-.186c.07.019.089.225.089.225"/><path fill="#0d4b08" d="M81.112 57.992c.1-.34-.224-.763-.205-1.12a3.4 3.4 0 0 0 .087-1.053 2.5 2.5 0 0 0-.6-.854 2.1 2.1 0 0 0-.644-.585 2.5 2.5 0 0 0-.835-.319 3.1 3.1 0 0 0-.915-.024 8 8 0 0 0-.838.356c-.288.085-.691-.156-.973-.051s-.445.544-.72.653c-.3.119-.565.28-.854.415s-.617.172-.9.327-.508.374-.774.552a.558.558 0 0 0-.182.881c.209.357.636.756 1 .515.313-.209.554-.519.881-.693s.722-.2 1.065-.349.65-.366 1-.492.624-.492.982-.6a1.82 1.82 0 0 1 1.654.1c.061.051-.251.418-.2.509.029.051.258.112.28.242a2.5 2.5 0 0 1-.081 1.098.755.755 0 0 0 .593.944.733.733 0 0 0 .96-.516l.022-.021a1 1 0 0 1 .2.082M75.824 63.3c.026.265-.064.543-.014.8s-.078.567-.012.824a7.6 7.6 0 0 1 .331 1.33c.012.215.391.492.357.647-.024.107-.164.2-.2.3-.033.088.025.108.054.033-.017.034-.314-.047-.333-.014-.042.077.183.334.129.4.089-.117-.206.037-.227.058-.071.06-.11.024-.047-.027a1 1 0 0 1-.133.072.067.067 0 1 0 .046.125c-.047.018-.187-.206-.235-.193-.417.119-.441.636-.325 1.057s.316.549.733.429a1.96 1.96 0 0 0 .873-.551c.276-.26.845-.323 1-.677s-.006-.81.025-1.192a4.3 4.3 0 0 0-.2-.882 9 9 0 0 0-.085-.9c-.065-.27.136-.6.07-.875a6 6 0 0 1-.084-.785c-.041-.417-.541-.621-1-.6-.4.018-.864.175-.819.622v-.137c.044-.005.1.128.1.128"/><path fill="#0d4b08" d="M67.12 65.5c-.191.314-.162.775-.362 1.093a8 8 0 0 0-.576.945 1.92 1.92 0 0 0-.283 1.192 2.75 2.75 0 0 0 .687 1.038c.212.247.241.679.474.912s.585.349.832.565.538.386.8.586.511.419.78.6.556.359.833.529a7 7 0 0 0 1.053.714 4.6 4.6 0 0 0 1.276.107 4.6 4.6 0 0 0 1.33.066 4 4 0 0 0 1.168-.647 2.9 2.9 0 0 0 .775-.688 3.3 3.3 0 0 0 .576-.9c.09-.317-.14-.72-.127-1.061a7 7 0 0 0-.091-.994c-.036-.339.041-.692-.02-1.013a1.09 1.09 0 0 0-1.093-.783 1.22 1.22 0 0 0-.67 1.25c.061.324.514.656.541 1.036a3 3 0 0 1-.225 1.13c-.119.332-.5.429-.882.6a2.15 2.15 0 0 1-1.051.219 2.8 2.8 0 0 1-1.043-.316 7 7 0 0 1-1.114-.346c-.333-.218-.613-.513-.926-.756s-.628-.488-.922-.755-.484-.633-.759-.921c-.132-.139-.393-.319-.445-.521a1.1 1.1 0 0 1-.025-.728c.139-.228.29-.449.429-.678s.236-.482.374-.71c.271-.445.364-.922.015-1.123a.93.93 0 0 0-1.143.469l-.166.161c-.067-.04-.017-.272-.017-.272M77.55 63.811c.31-.149.53-.488.836-.646s.565-.4.862-.575.5-.476.783-.672c.258-.178.752-.071.952-.291s.051-.682.17-.963a2 2 0 0 0 .244-.809 2.7 2.7 0 0 0 .024-.9 2.2 2.2 0 0 0-.486-.76c-.2-.217-.37-.569-.67-.68a3.1 3.1 0 0 0-1.156-.112c-.378.02-.7.449-1.03.527s-.8-.182-1.132-.05-.5.614-.819.778-.713.176-1.016.357a.76.76 0 0 0-.248 1.061.87.87 0 0 0 1.106.406c.4-.235.829-.371 1.245-.568.085-.04.122-.174.208-.212.035-.016.1.038.133.023-.124.052-.106-.243-.083-.251.163-.062.305-.2.471-.258a7 7 0 0 1 .919-.112c.09-.017-.012.074-.013.071a1 1 0 0 0 .07.18c.06-.006.1-.245.161-.248.124-.006.244.241.367.245a2 2 0 0 1 .175 0c-.182-.022.171-.136.062-.178s.079.264-.091.114c.057.05.077.21-.02.066.036.053.345-.07.377-.015.1.163.1-.095.126.024.011.05-.256.17-.242.219 0 .017.243.059.232-.014s-.072.142-.072.141c0 .078.077.149.087.226s-.3-.042-.3-.062c-.009.041.024.086.014.126s-.048.231 0 .127 0-.02 0 0c-.026.041-.105.055-.129.1-.094.163.282.119.188.216-.05.053-.133.077-.186.127s-.118.1-.175.149c.128-.112-.137.043-.175.068-.279.189-.7.131-1 .3s-.505.462-.8.617-.576.35-.88.5a.9.9 0 0 0-.327 1.161.92.92 0 0 0 1.176.3l-.221.046c.047.1.292.1.292.1M70.695 49.062c.174.212-.041-.106-.076-.164-.076-.125-.118-.282-.188-.41-.168-.307-.338-.621-.5-.934s-.026-.726-.162-1.029-.34-.574-.457-.886c-.127-.339-.474-.636-.547-.989s.326-.77.319-1.129a4.5 4.5 0 0 1 .12-1.027c.07-.352-.157-.794 0-1.123a4.4 4.4 0 0 1 .526-1 4.3 4.3 0 0 1 .887-.619 4.5 4.5 0 0 1 .907-.59A4.6 4.6 0 0 1 72.6 39a4.5 4.5 0 0 1 1.073.034 4.4 4.4 0 0 1 .988.408c.291.13.448.437.651.669a4.7 4.7 0 0 1 .5.766c.157.272.4.5.549.752s.263.54.42.8.211.564.343.833.518.45.6.736a2 2 0 0 1 .031.988c-.074.3-.545.386-.745.632s-.253.573-.494.774-.435.455-.675.634c-.344.261-.376.515-.139.919.2.341.66.8 1.008.543.255-.192.27-.693.517-.9a9 9 0 0 0 .748-.578c.227-.233.549-.372.723-.637a3.6 3.6 0 0 0 .378-.881 3.4 3.4 0 0 0 .352-.934 3.7 3.7 0 0 0-.2-1.113c-.1-.342-.585-.534-.749-.858s0-.828-.178-1.133c-.141-.243-.6-.3-.744-.539s-.133-.575-.277-.817-.333-.488-.5-.734-.234-.585-.456-.784a4.3 4.3 0 0 0-.807-.667 5 5 0 0 0-1-.275c-.321-.087-.692.113-1.029.087a6 6 0 0 0-.985-.064 6 6 0 0 0-.956.248 6 6 0 0 0-.963.226 5.2 5.2 0 0 0-.934.389 6 6 0 0 0-.824.552c-.224.232-.252.638-.433.9s-.562.431-.7.722.1.724 0 1.033-.345.57-.389.889a7 7 0 0 0 .1.962 6 6 0 0 0 .158.926 7.6 7.6 0 0 0 .151 1.135c.118.368.355.679.508 1.036s.053.83.22 1.175c.18.374.3.8.5 1.177a6.6 6.6 0 0 0 .867.955c.275.336.686.215.971-.069.332-.332.508-.785.233-1.122l-.2.008a.45.45 0 0 0-.118.249"/><path fill="#0d4b08" d="M76.959 63.407a5 5 0 0 0 .4.763c.126.256.376.432.527.676s.188.562.345.795c.175.258.136.694.339.93s.45.462.677.676.71.134.955.327c.261.206.417.554.7.723a7.4 7.4 0 0 0 .971.271 7 7 0 0 0 .913.353c.323.084.613.343.944.377s.663-.209 1-.229.691.184 1.017.107.566-.383.876-.517c.335-.144.762-.122 1.055-.33s.4-.641.644-.9.652-.4.846-.707a6 6 0 0 0 .39-1.022 6 6 0 0 0 .169-1.06 5.3 5.3 0 0 0 .107-1.044 2.9 2.9 0 0 0-.152-.869c-.084-.306.073-.687-.076-.964s-.487-.425-.67-.685-.157-.654-.345-.909c-.2-.277-.494-.5-.707-.781s-.437-.55-.671-.808-.376-.65-.647-.866a4 4 0 0 0-.882-.565c-.3-.127-.749.249-1.075.208a3.1 3.1 0 0 0-.924-.03 4.3 4.3 0 0 0-.8.21c-.271.094-.642-.068-.9.055s-.48.33-.736.459c-.469.238-.281.6-.066.947s.523.863.975.634c.24-.122.483-.211.724-.322s.353-.54.613-.615a2.6 2.6 0 0 1 .883-.228c.147.009-.171.083.056.128.047.009.128-.1.174-.094a3.3 3.3 0 0 1 .605.271 3.4 3.4 0 0 1 .931.755c.258.292.413.691.627.969.276.36.43.812.7 1.18a5 5 0 0 1 .768 1.249 2.2 2.2 0 0 1 .211.82 4 4 0 0 1-.2.837 4 4 0 0 1-.4.75c-.185.371-.179.873-.453 1.171a4.1 4.1 0 0 1-.99.79c-.305.169-.752-.054-1.084.026s-.626.319-.971.318a5 5 0 0 1-1.039-.024 6 6 0 0 1-1.054-.186c-.318-.138-.43-.658-.708-.853-.225-.156-.68-.025-.885-.208s-.358-.436-.55-.63c-.147-.148-.182-.4-.313-.567.091.112-.156-.147-.2-.208-.2-.29-.256-.72-.453-1.05a4.5 4.5 0 0 1-.5-.971c-.144-.492-.68-.38-1.066-.277s-.928.292-.781.792l.214.14a2 2 0 0 1-.065-.184"/><path fill="#3e783d" d="M42.5 44.478a3.5 3.5 0 0 0 .907.2c.326.031.657.331.977.284a4.6 4.6 0 0 0 .965-.273 4.8 4.8 0 0 0 .852-.513 4.7 4.7 0 0 0 .774-.614 4.8 4.8 0 0 0 .736-.7c.168-.275.046-.711.146-1.023a4.6 4.6 0 0 0 .351-.968c.028-.331-.215-.668-.238-1.013s.3-.721.247-1.06-.346-.631-.425-.96-.17-.664-.261-.985c-.095-.337-.052-.706-.144-1.018-.1-.347-.39-.639-.48-.987s.006-.742-.071-1.093-.268-.68-.333-1.034-.213-.7-.267-1.052-.23-.7-.273-1.059.065-.735.033-1.094.239-.738.216-1.1-.061-.712-.074-1.073-.4-.713-.4-1.074c.011-.33.215-.67.215-1.012s-.2-.679-.205-1.014.023-.689.01-1.013c-.014-.364.173-.716.156-1.023-.023-.409-.3-.74-.314-.992-.023-.324.194-.676.147-1s-.316-.61-.383-.934.079-.695-.008-1.013-.431-.556-.537-.867 0-.7-.124-1.007-.371-.56-.514-.854-.424-.517-.586-.8-.339-.556-.523-.823-.409-.5-.615-.747-.216-.7-.448-.918-.581-.289-.758-.467c-.222-.223-.238-.6-.449-.78a6 6 0 0 0-.774-.414c-.472-.276-.476-.273-.948-.549-.469-.19-.4-.36-.87-.55-.323-.131-.647-.3-.979-.409s-.8.249-1.142.158-.645-.2-1-.267a15 15 0 0 0-1.02-.147c-.335-.039-.654-.363-1.018-.383-.337-.018-.692.056-1.057.056s-.69.265-1.039.294-.76-.369-1.1-.312-.722.1-1.062.182-.6.524-.928.629-.626.331-.95.458-.7.159-1.012.307c-.328.155-.573.429-.872.6-.32.178-.643.3-.927.485-.312.2-.584.408-.847.61-.3.234-.632.372-.861.591a10 10 0 0 0-.8.64c-.215.252-.447.509-.646.79s-.286.614-.462.911-.382.555-.535.864-.383.567-.516.886.023.726-.09 1.052-.2.631-.3.963-.535.555-.613.891.059.7 0 1.04-.024.674-.072 1.015.06.676.026 1.018-.462.636-.484.98.352.689.342 1.033-.09.667-.089 1.012-.151.675-.14 1.02c0 .369.041.73.036 1.082-.005.369-.209.725-.219 1.076-.01.37.008.728-.008 1.077-.017.371.328.751.305 1.1-.024.374-.443.7-.473 1.05-.033.375.3.77.255 1.112-.043.376-.273.712-.324 1.047-.057.381-.078.743-.143 1.069a11 11 0 0 1-.4 1c-.076.272-.242.571-.311.9-.061.3-.015.636-.067.957s.162.664.123.976-.142.628-.166.929c-.028.342.039.656.036.937a2.8 2.8 0 0 0 .079 1.022 4 4 0 0 0 .36 1.007 4.8 4.8 0 0 0 .625.909c.257.235.694.265 1.015.442.3.169.555.541.911.639.331.091.741-.218 1.114-.2a5 5 0 0 0 1.064.125"/><path fill="#fff" d="M45.642 26.217c-.1-.17-.528-.187-.849-.357a1.6 1.6 0 0 0-.759-.207 2 2 0 0 0-.889.306c-.251-.2-.386-.737-.634-.969s-.48-.437-.712-.682-.578-.363-.8-.619-.462-.479-.666-.744-.471-.481-.663-.754-.409-.533-.589-.813-.047-.751-.215-1.038-.62-.417-.775-.709.022-.756-.119-1.054-.364-.562-.49-.865L37.4 17.7c-.293.244-.672.343-.94.558-.293.235-.443.62-.724.83s-.69.264-.989.466-.481.551-.8.745c-.294.179-.5.543-.834.728-.3.166-.721.14-1.06.317-.3.157-.6.369-.941.54-.306.153-.646.277-.99.443-.309.15-.692.185-1.037.349-.324.154-.54.552-.871.693s-.768.027-1.1.158-.613.42-.95.541-.7.185-1.042.3-.757.009-1.094.116-.609.487-.947.59-.685.245-1.019.347c-.355.108-.716.373-1.046.477a1.9 1.9 0 0 0-.706-.184 1.53 1.53 0 0 0-.742.18c-.321.17-.7.191-.8.361a3.3 3.3 0 0 0-.329 1.129 5.7 5.7 0 0 0 .041 1.151 5 5 0 0 0 .2 1.129 7 7 0 0 0 .219.971c.128.274.549.422.75.7a3.8 3.8 0 0 0 .549.814c.2.162.546.078.815.153s.371.421.638.359c.094.3.325.436.453.76q.177.452.4.92c.142.291.173.661.347.957s.517.46.714.742.249.65.47.913c.242.29.587.488.845.749a11 11 0 0 0 .88.689 10 10 0 0 0 .959.553 9 9 0 0 0 .911.7c-.013.555-.286.739-.335 1.408a2.8 2.8 0 0 1-.119.833c-.144.373-.038.9-.351 1.154a5.7 5.7 0 0 1-1.457.617c.075.321.333.632.41.954s.116.653.2.975-.037.692.045 1.014.376.521.46.844c.306.147.461.472.777.592s.706.022 1.031.116.6.4.931.467.706-.134 1.043-.092.651.306.99.322.681-.1 1.02-.111c.33.009.653-.137.982-.152s.646-.045.974-.084.633-.127.956-.191.709.151 1.027.062.569-.381.878-.495.763-.038 1.062-.178c.086-.333.1-.744.181-1.077l.243-1c.081-.332.341-.627.42-.96s.162-.851.238-1.182c-.415-.184-1.153-.078-1.529-.381a2.64 2.64 0 0 1-.687-1.066 3.6 3.6 0 0 1-.174-.947c-.025-.356.264-.588.261-.8s-.084-.421-.089-.773c.291-.14.429-.511.705-.7s.8-.037 1.05-.257.522-.437.749-.676.186-.729.394-.98.322-.586.51-.845c.2-.28.483-.479.651-.741.194-.3.245-.649.386-.906.205-.373.393-.625.468-.828.072-.219.285-.683.455-1.18.064.01.227.015.277.023a1.88 1.88 0 0 0 1.468-.291 4 4 0 0 0 .694-.7 4.8 4.8 0 0 0 .4-.9c.153-.327.317-.618.4-.877a4.7 4.7 0 0 0 .319-1.109c.03-.375-.263-.757-.312-1.122a3.1 3.1 0 0 0-.336-1.1c.007-.111.345-.1.345-.1"/><path fill="#0d4b08" d="M30.007 35.219c.341.18.832-.069 1.2.014s.695.549 1.08.547c.4 0 .769-.378 1.148-.483a2.9 2.9 0 0 0 1.064-.451.58.58 0 0 0-.056-.9.6.6 0 0 0-.9-.044c.251-.2-.126-.181-.206-.139-.062.032-.118.343.108.268-.06.02-.223-.278-.284-.259s-.141.022-.219.04-.151.159-.218.195c.068-.036.1-.136-.017-.124-.049 0-.092-.006-.142 0-.118.008-.222.139-.341.138s-.219.171-.324.164c-.049 0-.1-.012-.149-.017-.027 0-.037-.17-.065-.173-.057-.007.088-.129.187-.117a1.3 1.3 0 0 1-.336-.01c-.077-.017-.16.031-.235.008s-.162.065-.226.043c-.167-.057.192-.021.041-.092-.08-.038-.255.114-.334.073-.337-.178-.764-.21-.953.149a.73.73 0 0 0 .285.982l-.014.02c-.045.083-.086.168-.086.168M31.959 29.974c.091.348-.11.762-.057 1.118.015.1.031-.107.018-.2.006.049.176.089.171.139.014-.1-.027-.1-.014-.2 0 .022-.136-.007-.144.014.038-.086.354.048.391-.039-.007.015-.274-.1-.284-.088.058-.073.3.11.353.036-.011.013-.284-.22-.3-.21.074-.057.2.1.269.041-.027.018-.014.178-.043.192.087-.036-.065-.4.022-.437-.046.019-.035.087-.084.095.1-.012.122.179.219.166-.045 0-.123.094-.168.089.1.013.1-.007.2 0-.05-.007-.126.016-.176.009-.1-.03-.146-.209-.243-.188-.1.005-.132.119-.216.172a.5.5 0 0 0-.238.377c-.043.186-.267.413-.16.578a.82.82 0 0 0 .513.3c.131.017.262-.023.394-.017a1.2 1.2 0 0 0 .592-.09.89.89 0 0 0 .481-.588 1.4 1.4 0 0 0 .027-.615c-.058-.341-.4-.612-.486-.946-.046-.177-.052-.218-.209-.31s-.329-.483-.5-.426a1.07 1.07 0 0 0-.509.433c-.092.175.219.376.27.571l-.223.034a.5.5 0 0 1 .137-.011M26.216 26.9a2.6 2.6 0 0 0 .319 1.3c.154.38.408.479.916.531.435 0 .709.066.917-.16a1.33 1.33 0 0 0 .233-.952c0-.37.173-.826 0-1.091-.151-.233-.572-.217-.864-.287-.271-.064-.573-.188-.837-.012a1.55 1.55 0 0 0-.5.723c-.08.065-.188-.05-.188-.05M37.981 26.943c.094.306-.138.768-.313 1.2-.153.38-.252.909-.76.961-.435 0-.6-.426-.81-.652-.236-.257-.549-.474-.553-.833a2.4 2.4 0 0 1 .124-1.137c.15-.233.6-.316.9-.385a1.21 1.21 0 0 1 .917.063 1.8 1.8 0 0 1 .5.781M25.4 44.34c.307-.127.578-.322.88-.483a4.4 4.4 0 0 0 .867-.475c.254-.221.707-.312.873-.617.148-.272-.14-.7-.074-.994a5 5 0 0 0 .118-.868c.017-.305.136-.6.139-.9a.56.56 0 0 0-.624-.611c-.4.018-.863.2-.865.611 0 .308.094.615.073.922-.007.11-.1.212-.106.322 0 .018.225.22.236.122s-.075.1-.075.1c-.019.1.057.239.024.332-.024.068-.389-.025-.344-.119-.021.044.155.183.133.226-.04.078-.006.209-.054.282-.012.018-.318-.019-.251-.093s.1.2.1.2c-.027.028-.238-.133-.267-.106 0 0-.142.083-.079.031s.046.189.033.2c-.044.031-.128 0-.173.028a5 5 0 0 1-.471.347c-.092.048-.185.087-.279.13-.038.018-.025.148-.063.165-.191.085.129-.069-.068.012-.351.145-.857.5-.725.906.109.338.661.477 1.039.321l.241.046c-.022-.054-.234-.028-.234-.028M36.214 40a13 13 0 0 0 .308 1.254c.047.423-.169.912.01 1.3.128.281.569.327.776.543s.214.675.47.839a7 7 0 0 0 .81.449c.346.157.661-.147.858-.519.169-.32.25-.576-.121-.745a6 6 0 0 1-1-.6c-.043-.032-.122-.092-.045-.026-.036-.031-.027-.118-.061-.151-.056-.052-.056-.179-.091-.246.041.079.017.079-.031.007-.02-.031-.079-.037-.1-.069-.048-.08-.149-.133-.192-.215s-.057.129-.089.031c-.016-.051.081-.141.066-.192-.027-.094-.085-.191-.1-.287s-.082.1-.093-.04c0-.043.4-.118.4-.161-.009-.107-.148-.2-.154-.308-.018-.29-.211-.574-.211-.864 0-.381-.211-.56-.6-.543s-.641.15-.641.558c-.005.032-.161-.015-.161-.015"/><path fill="#0d4b08" d="M41.876 31.365a4.7 4.7 0 0 1-.1.85c-.093.277-.106.582-.219.852-.062.149.065.369.008.52-.039.1.035-.142-.057.047-.024.051-.415-.077-.439-.027-.17.347-.076.835-.279 1.166s-.673.481-.9.8c-.21.295-.3.687-.544.982s-.384.661-.649.928-.692.343-.987.57a6 6 0 0 1-.9.621c-.334.17-.6.567-.961.653-.462.109-.4.29-.293.644s.205.766.657.66c.357-.083.6-.445.933-.594s.8-.044 1.1-.246.383-.684.659-.923.783-.227 1.033-.49.509-.539.737-.818.14-.815.349-1.1c.245-.335.535-.625.755-.979a12 12 0 0 0 .627-1.062c.136-.277.513-.459.641-.757s.058-.664.153-.966a5.7 5.7 0 0 0 .235-.916.73.73 0 0 0-.467-.9.7.7 0 0 0-.859.521l-.055.1c-.093-.013-.171-.135-.171-.135M20.716 31.76c.083.357.157.726.269 1.074s.315.673.454 1.011.556.542.721.869-.06.87.131 1.183.657.446.873.742.318.68.558.958c.206.239.366.538.592.765s.444.477.687.685.564.333.823.519.586.274.862.433.639.12.931.248a8 8 0 0 0 .864.349c.3.089.53.558.847.607.388.059.729-.348.842-.759.095-.345 0-1.025-.388-1.085a7 7 0 0 1-1.059-.083A7.5 7.5 0 0 1 27.678 39c-.32-.158-.51-.535-.807-.735a9 9 0 0 1-.859-.614c-.268-.234-.721-.285-.965-.548s-.541-.5-.757-.789-.172-.76-.362-1.062-.6-.49-.761-.806-.028-.782-.166-1.11-.579-.555-.688-.891.137-.789.057-1.131a.934.934 0 0 0-1.07-.614c-.345.1-.356.578-.25 1.03 0 .053-.337.025-.337.025"/><path fill="#0d4b08" d="M22.082 25.43a2.7 2.7 0 0 0-.894-.466 2.6 2.6 0 0 0-.986-.182 2.7 2.7 0 0 0-.955.3 2.1 2.1 0 0 0-.849.648 3 3 0 0 0-.56.95 5.4 5.4 0 0 0-.037 1.04 6 6 0 0 0-.082 1.032c.038.338.368.617.459.946a6 6 0 0 0 .4.906c.143.314-.052.808.135 1.087a5 5 0 0 0 .822.848 3.4 3.4 0 0 0 .981.664 2.5 2.5 0 0 0 1.187.121c.391-.05.476-.4.476-.828 0-.354-.085-.7-.478-.648-.437.056-.74-.259-1.04-.514A3.1 3.1 0 0 1 20 30.4a5.5 5.5 0 0 1-.469-.875c-.106-.319-.472-.613-.5-.945s.423-.679.464-1.019-.156-.766.03-1.042c-.117.173.306-.064.214.005.136-.1.211-.039.363-.073a.76.76 0 0 1 .786.195 1 1 0 0 0 1.218-.078.8.8 0 0 0-.072-1.083l-.149-.153c.021-.023.2.1.2.1M43.189 26.35c.243-.217.707-.041 1.023.02a.73.73 0 0 1 .386.167c-.094-.07.373.131.258-.04.186.277.114.7.156 1.047a5 5 0 0 1 .036 1.016 4.7 4.7 0 0 1-.022 1.039 6 6 0 0 1-.482.913 3.5 3.5 0 0 1-.733.975c-.3.255-.708.185-1.145.128-.391-.05-.737.519-.737.876a.725.725 0 0 0 .72.713 2.2 2.2 0 0 0 1.039-.212c.343-.119.85-.018 1.13-.264s.362-.687.573-.994a7 7 0 0 0 .59-.932 8 8 0 0 0 .341-1.048 5.7 5.7 0 0 0 .244-.967 6 6 0 0 0-.018-1 4.7 4.7 0 0 0-.1-.988 3.4 3.4 0 0 0-.305-.971 2.5 2.5 0 0 0-.8-.631 2.45 2.45 0 0 0-1.007-.47c-.362-.04-.691.262-1.04.374a2.2 2.2 0 0 0-.837.552c-.294.263-.548.7-.281.971a.99.99 0 0 0 1.214-.049l.032-.157a.36.36 0 0 0-.237-.072M25.383 44.3c.307-.127.59-.293.891-.454s.752-.092 1.006-.312a3 3 0 0 0 .518-.892 3.1 3.1 0 0 0 .217-.859 5.7 5.7 0 0 0 .286-.871c.017-.3-.014-.612-.012-.913 0-.381-.318-.587-.71-.569s-.818.16-.82.569c0 .308.178.622.157.93-.007.11-.02.222-.03.332 0 .018-.293.166-.281.068s.263.139.263.138c-.019.1-.24.137-.272.23-.025.068-.007.125.038.031-.021.044-.024.1-.046.139-.04.077.068.249.02.321-.012.018-.333-.03-.266-.1s.139.237.138.238c-.027.028 0 .122-.033.148 0 0-.119.152-.056.1s-.151-.034-.164-.024c-.043.031-.24-.161-.284-.131-.165.109-.274.293-.45.383-.091.048-.137.192-.231.235-.038.018-.088.011-.126.028-.191.085.2.093 0 .174-.351.145-.8.317-.663.724a.884.884 0 0 0 1 .559l-.157-.02c-.03-.072.067-.2.067-.2M36.3 40a12 12 0 0 0-.031 1.282 4.2 4.2 0 0 0 .224 1.3c.128.28.541.376.748.592a3.6 3.6 0 0 0 .728.477 6.4 6.4 0 0 0 .727.514c.346.158.792.205.988-.167a.7.7 0 0 0-.317-.951 5.8 5.8 0 0 1-.965-.625c-.044-.032.049-.274.126-.208-.036-.031-.229.122-.264.089-.056-.053.024-.194-.012-.262.042.079-.226.221-.274.149-.02-.03.266-.252.247-.283-.047-.08-.069-.157-.112-.24s-.4.3-.434.2c-.016-.051.394-.234.38-.285-.027-.1-.135-.153-.154-.25s-.226.139-.237 0c0-.043.059-.09.056-.133-.009-.107.2-.228.189-.335-.017-.289-.328-.569-.328-.859 0-.381-.171-.552-.565-.535s-.845.131-.845.54A.7.7 0 0 0 36.3 40"/><path fill="#0d4b08" d="M17.132 26.452c0 .346.379.7.377 1.045s-.154.7-.16 1.049-.19.695-.2 1.045.23.711.21 1.06-.155.693-.184 1.042.142.722.1 1.069-.076.707-.132 1.051-.516.619-.588.961.1.742.009 1.079c-.083.31-.426.56-.5.876s.025.667-.03.985-.125.635-.166.955-.027.647-.052.968-.121.643-.129.964a4.4 4.4 0 0 0-.016.974c.065.308.434.527.563.814a4.7 4.7 0 0 0 .525.751 5 5 0 0 0 .508.771 5.4 5.4 0 0 0 .733.742 5 5 0 0 0 .968.386 5.5 5.5 0 0 0 .978.346c.339.062.688-.15 1.039-.148s.69.22 1.038.167c.39-.06.433-.5.337-.852-.114-.416-.313-.479-.7-.419-.316.048-.638-.3-.951-.321a3.6 3.6 0 0 1-.875-.179c-.3-.1-.79.2-1.06.037s-.236-.715-.46-.946a3.3 3.3 0 0 1-.641-.71c-.156-.3-.478-.544-.531-.874a5 5 0 0 1 .03-1.019c.022-.352.266-.678.309-1.026s-.207-.74-.146-1.085.091-.7.166-1.047.45-.616.536-.957c.075-.3-.023-.636.036-.938s.018-.616.064-.921.258-.584.294-.889.037-.615.067-.92c.033-.326-.086-.664-.061-.99s.291-.636.31-.963-.151-.663-.138-.99.029-.653.037-.981-.067-.654-.063-.982.078-.653.078-.98c0-.469-.258-.8-.623-.8a.76.76 0 0 0-.679.822c-.031.082-.226-.019-.226-.019M45.124 26.272c.005.331.256.654.268.984s-.335.678-.315 1.009.259.646.285.976.1.654.134.983-.214.694-.17 1.022.195.644.249.97.169.644.233.969.356.6.428.922-.117.706-.034 1.027.333.594.426.912c.087.3-.079.682.014 1s.542.516.621.832.005.667.061.983a9 9 0 0 1-.055.975c.021.326.276.654.244.968a4.4 4.4 0 0 1-.314.934 3.8 3.8 0 0 1-.269.981 4 4 0 0 1-.688.76c-.239.2-.723.03-1 .159s-.484.469-.783.526-.613-.2-.921-.217a3.5 3.5 0 0 1-.9-.018.676.676 0 0 0-.9.5.747.747 0 0 0 .511.9 4.7 4.7 0 0 0 .966.294 5 5 0 0 0 1.024.112c.333-.034.611-.379.931-.477a5 5 0 0 0 .865-.451 5 5 0 0 0 .875-.442 5.4 5.4 0 0 0 .8-.609 5 5 0 0 0 .486-.877 4.6 4.6 0 0 0 .448-.89c.091-.3-.089-.64-.054-.954s.29-.6.281-.918a9 9 0 0 0-.26-.919c-.042-.313-.056-.62-.121-.927s.21-.7.132-1.005c-.085-.33-.165-.664-.255-.992s-.645-.527-.735-.854.26-.772.175-1.1-.26-.63-.336-.962-.375-.615-.436-.95-.049-.687-.1-1.025.12-.7.081-1.041-.376-.649-.405-.989-.093-.682-.113-1.022.267-.7.255-1.038-.189-.677-.194-1.019c-.007-.466-.313-.55-.676-.552s-.75.079-.743.552l.02.011a.1.1 0 0 1-.039-.011"/><path fill="#0d4b08" d="M39.747 11.068c.28.168.286.695.521.906s.616.262.845.49.633.317.858.558.068.8.264 1.069c.21.291.638.429.822.737s.292.658.451.98.442.593.575.926.23.688.34 1.029.134.708.218 1.055.211.687.274 1.038 0 .721.049 1.076.319.689.346 1.045-.315.734-.3 1.09.237.708.24 1.064.04.717.035 1.072-.305.708-.316 1.063c-.014.474.546.8.914.8a.82.82 0 0 0 .769-.792c.01-.344-.214-.691-.21-1.037s.276-.688.272-1.033-.181-.685-.195-1.03.237-.706.211-1.049-.435-.653-.473-1 .064-.7.012-1.04.058-.713-.011-1.05-.4-.616-.485-.949-.076-.691-.184-1.019-.417-.572-.546-.892-.275-.612-.427-.923.043-.8-.132-1.1-.578-.448-.777-.733-.189-.722-.411-.991c-.2-.238-.531-.376-.749-.613s-.422-.475-.653-.693-.5-.392-.748-.586a8 8 0 0 0-.737-.607.89.89 0 0 0-1.154.238c-.182.315.043.736.444.977h-.229c.053-.089.278-.077.278-.077M38.325 8.974c-.316-.127-.7-.04-1.023-.146s-.595-.353-.922-.439-.6-.453-.931-.519-.684-.113-1.02-.158-.718.345-1.056.322-.665-.015-1-.017-.686-.364-1.024-.345-.658.279-.995.32-.676.044-1.009.107-.692.019-1.021.1-.69.086-1.013.191-.62.307-.935.432-.531.476-.839.622-.685.141-.983.306c-.315.175-.484.578-.782.773s-.832.069-1.115.288-.411.634-.674.877-.348.643-.588.91-.839.237-1.053.528-.2.777-.4 1.1-.438.613-.606.948-.186.736-.33 1.082-.3.681-.421 1.035-.3.689-.4 1.049c-.092.329-.121.672-.2 1s-.251.645-.312.981.127.708.08 1.046-.445.634-.478.974.155.7.134 1.039 0 .681-.006 1.023-.3.68-.3 1.021.111.685.121 1.026a.82.82 0 0 0 .831.731c.368 0 .531-.253.517-.728-.011-.339.256-.688.255-1.031s-.165-.685-.155-1.028.3-.669.316-1.011-.331-.714-.3-1.054.223-.668.272-1.006.277-.647.341-.982-.115-.726-.034-1.058.281-.638.38-.965.016-.725.136-1.046.242-.657.383-.968.656-.442.819-.743.114-.724.3-1.012.6-.384.8-.643.3-.606.535-.844.487-.446.74-.662.485-.455.755-.649.59-.308.874-.479.62-.233.916-.383.478-.545.784-.673.6-.33.911-.436.675-.1.995-.182.675-.042 1-.1.643-.209.97-.247c.357-.041.722 0 1.078-.013s.727-.255 1.084-.241.7.287 1.06.327.743-.083 1.1-.017.7.184 1.05.274.586.535.926.647.659.24.991.374c.366.147.65-.442.745-.791.115-.416.173-.875-.194-1.022l.024.229a1 1 0 0 0-.1-.046M37.055 17.4c-.252.21-.8.055-1.054.255s-.381.576-.644.769-.452.5-.722.682-.666.177-.942.352-.542.359-.824.525-.629.206-.917.364-.381.675-.674.824c-.309.157-.716.12-1.026.273s-.62.309-.933.458-.538.49-.854.632-.7.135-1.02.267-.747-.017-1.072.1-.624.24-.943.351-.5.622-.822.727-.637.228-.959.329-.754-.154-1.076-.055-.578.416-.9.515a.646.646 0 0 0-.484.831.74.74 0 0 0 .882.608c.335-.1.7-.11 1.032-.214s.642-.3.974-.4.592-.439.923-.55.718-.058 1.047-.175.567-.479.893-.6.8.134 1.126 0 .557-.483.877-.624.541-.483.857-.634.844.133 1.16-.021.507-.563.821-.721.66-.256.97-.421.545-.465.849-.64.619-.328.917-.514.631-.315.92-.516.538-.45.818-.662.624-.342.9-.562.39-.63.659-.855c.371-.309.516-.69.24-.945a.85.85 0 0 0-1.087.094c-.046.1.091.15.091.15"/><path fill="#0d4b08" d="M42.55 23.989c-.229-.235-.571-.361-.789-.608s-.348-.564-.553-.821-.3-.587-.494-.854-.74-.288-.921-.563-.279-.61-.447-.892-.358-.561-.513-.851-.363-.563-.5-.86.147-.786.019-1.088a.99.99 0 0 0-1.119-.429.628.628 0 0 0-.385.858c.139.331.082.75.235 1.076s.333.642.5.961.226.7.407 1.015.722.4.917.7.216.718.425 1.011.429.579.652.861.616.417.853.688.361.637.612.895c.329.338.894.454 1.152.194a1.16 1.16 0 0 0 .014-1.357l-.3.03c.054-.053.24.03.24.03M39.3 44.14c.369.165.69.435 1.054.61s.741.32 1.107.491c.263.124.42.508.691.618s.706-.193.979-.087.494.342.763.452c.3.122.64.135.934.261s.442.584.734.717.68.054.968.194.6.243.88.394.442.517.718.68a.94.94 0 0 0 1.169-.33.874.874 0 0 0-.324-1.113c-.28-.165-.628-.205-.913-.358s-.645-.149-.936-.291-.419-.625-.714-.759-.659-.113-.956-.24-.556-.349-.855-.473c-.264-.109-.487-.33-.754-.434s-.695.2-.961.093-.5-.307-.76-.426c-.367-.167-.746-.318-1.109-.494s-.749-.291-1.117-.456-.9-.43-1.111-.064a.99.99 0 0 0 .462 1.128l-.114-.064c.022-.051.165-.049.165-.049M22.38 52.633c-.215-.408-.515-.773-.728-1.183-.1-.2-.187-.418-.291-.621-.052-.1-.1-.3-.155-.4-.042.169.142.394.233.262.153-.064.336-.406.455-.527.158-.16.305-.33.466-.487.321-.314.469-.809.8-1.117s.238-.621-.16-.848c-.32-.183-.623-.4-.949-.582s-.556-.509-.862-.715c-.114.145.063.192.2.31.044.037.045-.218.053-.162.025.189-.055.2-.024.387-.007.178.235-.113.276-.175.064-.1.132-.189.2-.282a8 8 0 0 1 .656-.555c.218-.224.266-.619.5-.828s.637-.211.88-.408.454-.419.707-.6a2 2 0 0 0 .222-.333c-.047.006-.031-.066-.075-.082-.092-.127-.328-.071-.285.048a2.1 2.1 0 0 0 .084.624c.039.168.408.257.448.424.094.393.065.816.162 1.208.084.34-.012.725.074 1.064s.514.591.6.929-.041.735.049 1.072.407.615.5.952-.2.783-.106 1.12.187.676.284 1.012.268.651.368.987.353.625.454.96.028.724.132 1.058c.136.443.713.436 1.063.345s.754-.362.614-.816c-.1-.32-.52-.543-.617-.863s.2-.76.1-1.081-.208-.637-.3-.959-.483-.559-.574-.881-.132-.66-.221-.983-.076-.675-.163-1-.207-.639-.293-.963.113-.721.029-1.045-.592-.542-.673-.867-.026-.685-.1-1.01c-.1-.391-.305-.755-.4-1.147s.166-.964-.107-1.27c-.243-.272-.694-.234-1.01-.248a1.38 1.38 0 0 0-.868.325c-.274.2-.692.2-.962.409s-.533.428-.791.647-.467.5-.708.74-.375.575-.593.833a7.5 7.5 0 0 0-.524.963c-.2.347-.657.661-.517 1.006.171.421.77.535 1.141.747.432.247.943.533 1.375.78a1.43 1.43 0 0 0-.033-1.249c-.216.2-.474.643-.687.847s-.486.341-.695.55c-.192.192-.4.41-.6.631a1.6 1.6 0 0 0-.369.691c-.083.271-.489.539-.4.785s.435.407.553.638c.145.281.418.5.564.777s.1.664.244.944a.8.8 0 0 0 1.091.267.984.984 0 0 0 .435-1.143l-.285-.081.109.173"/><path fill="#0d4b08" d="M43.6 52.934c.132-.251.327-.471.458-.722s.272-.5.4-.755a1.75 1.75 0 0 0 .125-1.572c-.122-.224-.542-.254-.73-.448s-.311-.443-.489-.62c-.2-.2-.364-.431-.567-.625s-.334-.336-.539-.529a1.27 1.27 0 0 0-.1 1.082c.356-.2.524-.462.881-.665a4.3 4.3 0 0 0 .906-.682c.272-.271.437-.427.359-.735a2.6 2.6 0 0 0-.524-.786 9 9 0 0 0-.671-.742c-.228-.25-.168-.79-.417-1.021s-.537-.435-.8-.65-.725-.18-.994-.384a5 5 0 0 0-.818-.454c-.282-.142-.563-.607-.908-.511-.4.109-.569.574-.717.879a5 5 0 0 0-.177 1.032c-.076.323-.13.651-.209.973s-.243.623-.323.945-.051.671-.134.992-.439.571-.524.891.157.728.071 1.048c-.1.361-.446.654-.546 1.014s.027.784-.075 1.143-.3.691-.408 1.05-.457.644-.564 1 .1.812-.006 1.169c-.139.454-.026.778.33.872s.56-.156.7-.6c.1-.326.546-.546.644-.873s.059-.692.155-1.019.209-.648.3-.976.058-.691.149-1.019.085-.682.175-1.01.51-.567.6-.9-.1-.73-.012-1.059.329-.619.412-.949.073-.683.154-1.014c.089-.364.2-.721.29-1.086.039-.167.224-.3.263-.468.026-.111.127-.188.152-.3.071-.173-.2-.347-.277-.253-.027.045.053.03 0 .027-.1-.013-.019.01.111.072.09.09.271.1.373.172.235.173.441.4.667.582.242.2.382.522.614.731s.4.485.613.709c.183.19.472.293.635.5.073.093.039.263.1.363.041.063.287.366.279.188.032-.188.079-.181.1-.37.007-.056-.059.274-.015.237.143-.118.206-.232.091-.377-.305.207-.679.183-1.006.364s-.633.4-.953.582a.854.854 0 0 0-.061 1.262c.3.279.529.625.822.909s.517.628.8.923c.059.061.059.144.117.206.091.132.275.1.233-.066-.023.162-.188.255-.264.4-.2.379-.559.67-.757 1.049-.215.409.236.752.543.939s.729.341.95-.081l.017-.174c.035.019-.009.181-.009.18"/><path fill="#fff" d="M37.312 40.748c.251.281.5.64.775.987s.916.394 1.162.679a1.8 1.8 0 0 1 .149 1.532c-.05.1-.247.407-.522.832-.157.243-.308.546-.513.841-.181.261-.448.48-.652.752s-.459.481-.668.732-.445.5-.664.721a3.7 3.7 0 0 1-.637.574c-.119-.159-.449-.209-.725-.583-.186-.253-.314-.6-.536-.9-.2-.273-.374-.588-.585-.866s-.529-.495-.732-.752c-.248-.313-.532-.6-.717-.8.079-.056.459-.426.888-.76.239-.187.444-.494.738-.724.263-.207.657-.274.934-.491s.491-.517.754-.724c.3-.234.544-.5.784-.685a9 9 0 0 0 .755-.682c-.077.071.012.319.012.319M27.063 40.733c-.251.281-.631.533-.91.88s-.472.769-.718 1.053a1.21 1.21 0 0 0-.29 1.221 3.4 3.4 0 0 0 .367.893c.157.244.345.521.551.816.18.261.184.676.388.948s.386.561.595.811c.222.267.794.2 1.013.423.263.264.359.661.595.813.119-.16.365-.46.641-.835.186-.253.363-.564.585-.862.2-.273.487-.5.7-.781s.49-.523.693-.78c.247-.313.506-.623.691-.831a10 10 0 0 0-.858-.826c-.24-.187-.7-.163-1-.394-.263-.206-.477-.5-.754-.721s-.521-.477-.784-.684c-.3-.234-.65-.361-.891-.551a2.9 2.9 0 0 1-.655-.82c.067.063.041.227.041.227"/><path fill="#0d4b08" d="M36.912 41.159c.184.208.285.48.461.695s.314.458.488.674a2.3 2.3 0 0 1 .641.98c.008.042.408.213.418.143s-.227-.049-.239-.022c-.032.077.19.308.147.379-.142.236-.364.432-.515.662-.207.316-.586.519-.806.828s-.343.692-.58.988c-.208.259-.517.49-.762.753a5.7 5.7 0 0 1-.837.777c.447.256.518.007 1.034-.01-.215-.287-.589-.257-.8-.547s-.178-.76-.39-1.05-.55-.487-.767-.774-.36-.631-.585-.91-.637-.6-.874-.865c-.233.528.1.612.19 1.183.288-.207.464-.286.749-.5s.481-.542.762-.76.489-.528.767-.75.771-.177 1.048-.4.5-.514.776-.738.517-.49.793-.712A.94.94 0 0 0 38.079 40a1.04 1.04 0 0 0-1.245-.049c-.261.21-.256.754-.519.961s-.818.045-1.081.252-.272.74-.535.947-.62.313-.889.523-.467.508-.736.718c-.1.078-.186.172-.285.249-.051.04-.485.112-.3-.028-.1.074-.159.2-.258.267-.4.284-.654.882-.322 1.259.221.251.4.522.612.783s.784.235.986.5.206.682.4.952.383.549.58.819.429.515.629.782c.226.3.674.57 1.032.334a6 6 0 0 0 .752-.5 9 9 0 0 0 .633-.638c.195-.222.4-.449.579-.679s.129-.664.309-.907.437-.429.609-.679.383-.472.547-.727a4.5 4.5 0 0 0 .412-1.006A1.6 1.6 0 0 0 40 43.114a2.2 2.2 0 0 0-.321-.782c-.166-.24-.446-.385-.636-.617-.2-.249-.254-.621-.456-.87s-.482-.428-.695-.668c-.317-.359-.516-.228-.772.042s-.671.7-.367 1.046c.016.022.163-.106.163-.106"/><path fill="#0d4b08" d="M26.561 40.227c-.213.24-.46.442-.662.691s-.346.546-.549.8-.455.393-.621.635a2.2 2.2 0 0 0-.369.757 1.5 1.5 0 0 0 .151.983 4.3 4.3 0 0 0 .33 1.028c.164.254.149.632.321.881s.693.25.873.493.265.554.452.792.342.475.538.7a9 9 0 0 0 .55.694c.217.2.591.172.837.334.356.235.546.159.772-.142.2-.267.636-.361.833-.632s.447-.5.645-.771.325-.588.526-.855.372-.553.582-.813.4-.529.625-.78a.784.784 0 0 0-.239-1.168c-.1-.071-.256-.071-.352-.146.18.139-.146-.077-.193-.114-.1-.077-.036-.364-.135-.442-.269-.21-.743-.156-1.011-.367s-.393-.6-.66-.814-.626-.288-.89-.494-.275-.735-.538-.943-.651-.256-.911-.466a.77.77 0 0 0-1.044.046.72.72 0 0 0-.015 1.019c.276.222.519.486.8.709s.492.523.769.746.528.48.807.7.537.473.818.691.608.381.892.6.738.306 1.027.513c.086-.571-.213-.528-.445-1.056-.238.269-.111.55-.337.83s-.6.438-.819.724-.326.653-.539.943-.5.528-.708.818-.432.662-.647.948c.516.017.452-.284.91-.522-.218-.144-.507-.038-.752-.291-.267-.276-.292-.773-.533-1.071s-.6-.518-.822-.833-.36-.692-.572-1.016c-.151-.23-.193-.524-.336-.76-.042-.069-.4.026-.437-.047-.01-.021.015-.092.009-.116.038.149.155-.122.159-.147a2.7 2.7 0 0 1 .636-1.157c.174-.216.613-.217.788-.432s.283-.478.467-.686a.925.925 0 0 0-.078-1.167.855.855 0 0 0-1.18.006c-.032.1.282.178.282.178"/><path fill="#fff" d="M12.2 27.7a4.4 4.4 0 0 0-.349 1.247c-.055.414.269.816.345 1.236.056.308-.084.65.022.944s.394.511.516.8a11 11 0 0 0 .44 1.045c.287.559.671 1.285.664 1.089.314-.169.432-.54.765-.68s.674-.254 1.018-.369.691-.2 1.041-.293a2 2 0 0 1 .993.074c.024.008.08-.1.1-.087.117-.087.108-.044.2-.112.3-.227.4-.1.7-.338.264-.245.246-.68.4-.866a1.46 1.46 0 0 0 .4-.708 1.75 1.75 0 0 0-.079-.748 2.7 2.7 0 0 0-.211-.737c-.143-.307-.4-.618-.61-.971s-.348-.759-.516-1.043a3.2 3.2 0 0 0-.465-.685 1.96 1.96 0 0 0-.874-.387c-.3-.1-.543-.36-.854-.388s-.667-.234-.976-.183-.492.546-.778.677a3.2 3.2 0 0 0-.822.385 3.56 3.56 0 0 0-.918 1.188c-.035.047-.155-.087-.155-.087M24.919 48.045a4.5 4.5 0 0 1-1.18.09c-.372-.019-.713-.362-1.075-.478a4.2 4.2 0 0 1-1.1-.327 6.5 6.5 0 0 1-.731-.574 11 11 0 0 1-.663-.642 10 10 0 0 1-.634-.989 4.8 4.8 0 0 1-.49-1.053c-.053-.2-.158-.253-.221-.488.256-.127.564-.331.816-.474.233-.132.556-.127.814-.294.3-.194.675-.308.818-.556a1.63 1.63 0 0 0 .042-1c-.006-.036-.052-.046-.064-.087.445-.226.267-.379.634-.565.3-.15.388.03.688-.114.33-.145.543-.485.773-.536.379-.085.667.285.894.345a2.2 2.2 0 0 1 .71.275c.187.126.571.057.8.309.221.237.3.716.549 1.044s.63.55.822.814a3.8 3.8 0 0 1 .407.791c.131.33-.187.7-.214 1.033-.025.318.213.67.113.966a3.9 3.9 0 0 1-.427.858 3.6 3.6 0 0 1-.638.712 3.4 3.4 0 0 1-.855.4 3.3 3.3 0 0 1-.639.346c-.062.084.044.2.043.2"/><path fill="#fff" d="M12.321 45.143c-.1-.316-.126-.659-.23-.975s-.093-.671-.2-.987-.314-.6-.418-.914-.071-.677-.175-.994-.332-.591-.436-.907-.342-.589-.446-.905c-.095-.287.224-.753.226-1.2a5.3 5.3 0 0 1 0-1.131c.092-.417-.036-.968.173-1.228.252-.313.752-.4 1.037-.666a8 8 0 0 1 1-.6c.118-.081.18-.233.3-.308.274-.17.514-.385.805-.529s.545-.354.847-.475.57-.332.879-.433.724.178 1.038.091c.282-.078.635-.257.914-.167.459.149.936.27 1.063.716a2.55 2.55 0 0 1-.067 1.43c-.032.107-.191.057-.118.141.206-.034.313.2.471.243.465.134.8.221.939.663a2.2 2.2 0 0 1-.038 1.325c-.072.248.167.265.092.534.05 0-.007-.205.036-.193a1.65 1.65 0 0 1 1.055.957c.139.428-.178.935-.306 1.367-.074.263.1.212.024.494a1 1 0 0 1 .568.761 1.52 1.52 0 0 1-.134.982 2.2 2.2 0 0 1-.733.644c-.262.17-.521.294-.757.428-.254.144-.443.394-.7.523-.244.121-.426.188-.7.32.014.26-.08.414-.02.667s-.032.54.027.792A2.95 2.95 0 0 1 18.51 47a1.5 1.5 0 0 1-.391.743c-.208.2-.54.518-.85.507-.433-.195-.318-.436-.724-.683s-.538-.027-.943-.273-.221-.553-.628-.8-.415-.236-.822-.484-.577.026-.985-.222-.264-.5-.7-.7c-.068-.032-.149.058-.149.058"/><path fill="#0d4b08" d="M12.806 33.71c-.3.19-.571.417-.862.641s-.7.29-.958.546a6 6 0 0 0-.583.922 2.9 2.9 0 0 0-.363.76 4.6 4.6 0 0 0-.087.846 7 7 0 0 0-.139.844c0 .328-.183.669-.121.979s.436.542.533.848.1.636.2.942.021.673.122.981.523.508.625.815.151.631.252.938.12.642.221.949a.733.733 0 0 0 .861.554.658.658 0 0 0 .433-.905c-.116-.352-.094-.75-.21-1.1s-.357-.664-.473-1.016-.365-.661-.481-1.014c-.091-.274.158-.681.051-.967s-.311-.515-.392-.8-.472-.545-.491-.836c-.021-.315.28-.668.321-1a2.5 2.5 0 0 1 .406-.859 2.8 2.8 0 0 1 .447-.735 6 6 0 0 1 .633-.636c.253-.189.461-.432.7-.584.391-.248.3-.571.124-.886s-.561-.791-.963-.535l.012.271c.036.057.186.041.186.041"/><path fill="#0d4b08" d="M19.079 35.071c.124-.391.421-.775.4-1.19a2.3 2.3 0 0 0-.382-1.236 2.25 2.25 0 0 0-.929-.665 2.3 2.3 0 0 0-1.1.05 6.6 6.6 0 0 0-1.1.2c-.362.11-.744.168-1.091.3-.373.141-.728.328-1.087.5a12 12 0 0 0-1.148.408.98.98 0 0 0-.235 1.206.77.77 0 0 0 1.071.214c.341-.21.6-.6.954-.773s.894.077 1.269-.056.732-.281 1.117-.388a2.5 2.5 0 0 1 .584-.168c.2-.011-.083.084.009.109.031.008.276-.285.194-.321.045.02-.1.4-.052.421 0 0 .218-.044.174-.083s.162-.015.172 0c-.063-.078.094-.007.111.029.048.1.021-.117.067.088.014.064-.179.169-.173.235a2.1 2.1 0 0 1 .008.808.59.59 0 0 0 .447.785c.394.108.58-.1.7-.48l.146.147c-.075-.023-.12-.138-.12-.138"/><path fill="#0d4b08" d="M20.543 37.508c.076-.273.431-.516.444-.8a3 3 0 0 0-.175-.886c-.077-.272-.471-.352-.665-.578-.267-.309-.428-.636-.789-.738a2.5 2.5 0 0 0-1.1.121 6.3 6.3 0 0 0-1.086.137c-.348.128-.776.066-1.107.2-.377.158-.745.368-1.108.554a11 11 0 0 0-1.035.686.95.95 0 0 0-.31 1.144c.19.325.661.25.99.031.256-.17.572-.269.841-.416s.516-.368.8-.494.576-.246.863-.356.641-.046.933-.141c.121-.039.24-.1.363-.127q.102-.026.206-.044c.011 0 .138.12.068.125.067-.005.143-.188.209-.182s.147.033.081.031c.023.036 0-.067.04-.05.074.042.008.246.115.321a1 1 0 0 1 .035.118c.01.016.274.046.247-.027a1.3 1.3 0 0 1 .041.213 2 2 0 0 1-.133.816.68.68 0 0 0 .463.893.72.72 0 0 0 .9-.518l.052-.178c-.063-.018-.176.143-.176.143"/><path fill="#0d4b08" d="M21.691 40.249a3.5 3.5 0 0 0-.044-1.279 1.96 1.96 0 0 0-.515-1.08 1.84 1.84 0 0 0-.806-.684 2.8 2.8 0 0 0-1.123-.277 7 7 0 0 0-.991.323c-.32.109-.523.539-.827.66-.336.134-.684.21-1 .372s-.762.129-1.064.33a.87.87 0 0 0-.118 1.113c.19.326.708.64 1.037.421s.476-.658.791-.815a11 11 0 0 1 1.081-.263c.33-.123.614-.417.976-.529a2.3 2.3 0 0 1 .646-.12c.1 0-.1.068.054.123.015.005.23-.031.157-.061s.086.119.084.118c.017.01.173.11.108.055s.131.039.129.037c-.068-.076-.015.027.013.073s-.292.04-.257.164c.01.037.124.132.124.132.045.258.3.556.23.823-.128.453-.056.7.3.791s.589-.063.715-.514l.176.037a1 1 0 0 1 .132.05M17.484 44.15a8 8 0 0 0 .318 1.161c.048.188.144.371.184.561.02.095.03.2.044.3-.02-.136-.085.123-.083.15 0 .085.008.175 0 .259 0 .049.111.138.106.186.012-.075-.214-.122-.23-.033s-.14.119-.164.2c-.042.136.153-.09.064.073-.032.058-.149.047-.187.1.106-.15.061.1.034.125-.061.052.11.234.184.175-.03.021-.1.074-.133.092-.073.036-.211-.256-.121-.295-.035.013.03.31-.006.319-.366.1-.913.408-.791.785a1.13 1.13 0 0 0 1.17.59c.307-.087.45-.474.663-.674s.59-.326.711-.606-.048-.636-.023-.939a4.3 4.3 0 0 0-.106-1.357c-.049-.2.137-.457.089-.657-.026-.1-.032-.207-.053-.314-.012-.059-.331-.059-.342-.118-.024-.129.068.154.045-.072-.037-.379-.252-.821-.672-.8-.363.016-.907.4-.866.81l.136-.051c.01 0 .024.035.024.035"/><path fill="#0d4b08" d="M18.9 44.409c.344-.165.825-.074 1.16-.257s.568-.559.881-.776a3 3 0 0 0 .845-.707 2 2 0 0 0 .183-1.074 2.17 2.17 0 0 0-.1-1.108 1.82 1.82 0 0 0-.875-.763 2.4 2.4 0 0 0-.893-.051c-.292.015-.542.307-.8.368a6 6 0 0 0-1.163.258c-.366.168-.611.544-.951.747s-.677.523-.463.856a.91.91 0 0 0 1.123.277c.292-.174.5-.516.806-.662.063-.03.1-.115.168-.143.025-.011.072-.032.1-.04-.148.045-.059.046-.023.033.12-.046.355.243.478.2a5 5 0 0 1 .624-.112c.079-.015-.148-.244-.139-.243.025 0 .066.156.092.153.044 0 .084.033.129.031.091-.005.178-.306.269-.3.01 0-.1.192-.1.2a.18.18 0 0 0 .108.113c.031.012.177.045.074.03-.077-.012.053-.3.085-.28.089.064-.055.045-.056.034s.085-.146.09-.144c.1.039.1.213.084.129.006.034-.25.193-.231.225.083.137-.009-.173.014-.071.009.036.323 0 .333.033 0 .02-.078.123-.1.038-.023-.1-.327.09-.327.1 0 .059.052.127.057.185.007.078.3.133.307.127 0 0-.26-.169-.263-.156-.007.031.175.279.226.167s.015.092 0 .126c-.081.146.035-.047-.049.039-.037.039-.306-.155-.345-.118-.018.018 0 .017-.032.018a.079.079 0 0 1 .017.146c-.035.024.012.172-.024.2-.31.209-.594.487-.922.667s-.763.16-1.1.321-.258.571-.057.883c.228.354.451.61.82.433l-.141.014c-.02-.043.08-.142.081-.142M14.224 33.305c.145.179-.31.2-.343.145-.054-.089.219-.37.168-.462-.127-.232-.3-.435-.421-.672a13 13 0 0 1-.49-1.387c-.112-.3-.5-.534-.554-.853a4.2 4.2 0 0 1 .078-.991c.031-.323-.095-.73.033-1.03a3.4 3.4 0 0 1 .6-.846c.2-.225.636-.186.9-.33a2.7 2.7 0 0 1 .814-.286c.3-.057.591-.313.891-.279a3 3 0 0 1 .884.3 2 2 0 0 1 .806.608c.175.266.161.665.317.924.167.277.335.567.5.859s.089.658.185.969.361.551.25.8a2.2 2.2 0 0 1-.594.645c-.212.19-.576.2-.8.365a1.14 1.14 0 0 0-.314 1.266 1.1 1.1 0 0 0 1.263.277c.244-.184.338-.56.568-.758s.672-.218.863-.45.2-.623.317-.907a2.6 2.6 0 0 0 .28-.888 3.1 3.1 0 0 0-.4-1.21 10 10 0 0 0-.431-1.2c-.2-.345-.379-.747-.6-1.119a4.7 4.7 0 0 0-.826-.986c-.259-.24-.678-.221-1-.363a3.8 3.8 0 0 0-.95-.417 4.6 4.6 0 0 0-1.031.184c-.353.031-.754-.22-1.084-.112a4.2 4.2 0 0 0-.963.481c-.3.2-.438.578-.672.837a4 4 0 0 0-.541.873c-.168.311-.627.51-.722.852s.173.748.152 1.1-.356.729-.3 1.081a6 6 0 0 0 .177.883c.087.275.439.465.553.731s.091.6.215.858c.139.289.244.611.4.9s.574.407.777.657c.248.307.851.512 1.109.255a1.17 1.17 0 0 0-.022-1.33l-.287-.042c.058-.047.249.072.249.072"/><path fill="#0d4b08" d="M18.467 44.23c.1.329 0 .759.17 1.07a7 7 0 0 0 .57.911 8 8 0 0 0 .7.809c.253.252.676.32.943.527s.48.564.789.719a5.8 5.8 0 0 0 .98.448 5.5 5.5 0 0 0 1.082-.027 5 5 0 0 0 1.06.057c.338-.057.553-.513.876-.651s.77.009 1.034-.2a4.5 4.5 0 0 0 .621-.819 4.5 4.5 0 0 0 .369-.925c.146-.3.586-.5.661-.826a4.6 4.6 0 0 0 .193-1.034c0-.322-.363-.582-.464-.854s-.045-.658-.212-.914-.293-.535-.475-.783c-.233-.317-.806-.388-1.06-.7s-.232-.905-.539-1.155-.821-.134-1.19-.238a2.44 2.44 0 0 0-1.079.012c-.334.049-.719-.155-1.026-.028s-.629.244-.926.4a.866.866 0 0 0-.289 1.151.9.9 0 0 0 1.112.28c.34-.172.6-.539.967-.647a2 2 0 0 1 .684-.169c-.128-.012.055.4.085.409.13.035.256.005.376.067.22.117.31.36.49.568s.587.223.734.414c.2.262.307.6.5.866s.662.489.783.814A2.26 2.26 0 0 1 27 44.795c-.053.313-.446.537-.569.785a2.8 2.8 0 0 1-.475.686c-.2.212-.275.585-.535.728a3 3 0 0 1-.915.265 3.6 3.6 0 0 1-.954.129c-.3-.038-.583-.3-.869-.413a3.7 3.7 0 0 1-.8-.447c-.311-.221-.426-.647-.694-.917-.106-.107-.438 0-.533-.113.09.108-.033-.161-.058-.2-.177-.257-.162-.625-.316-.9a3 3 0 0 1-.293-.6 1.03 1.03 0 0 0-1.132-.568.74.74 0 0 0-.381.988l-.027.219c.042-.014.022-.22.022-.219M91.275 49.592a5.7 5.7 0 0 0 .968.391 6 6 0 0 0 1.006.306 7.5 7.5 0 0 0 1.052-.1 7 7 0 0 0 1.06-.1c.36-.059.823.221 1.16.086a4.3 4.3 0 0 0 .958-.617c.342-.267.028-.825-.251-1.1-.339-.338-.61-.385-.952-.118.245-.19.02-.1-.043-.055s-.216-.1-.28-.07c-.034.017-.011.14-.043.157-.125.065-.006.114.017.135-.01-.009-.136.146-.16.154a5 5 0 0 1-.749.158c.12-.018-.056-.36-.107-.355-.071.007-.106.464-.177.468a9 9 0 0 1-.53.015c-.154 0-.317-.074-.471-.085-.07 0-.124-.219-.195-.226-.01 0-.247-.133-.08-.106-.229-.037-.546.3-.768.231-.1-.029-.1-.337-.2-.369-.2-.07.165-.015-.02-.1-.116-.055-.337.1-.451.043-.37-.2-1-.264-1.209.13a1.17 1.17 0 0 0 .35 1.348l.269-.08c.01-.022-.157-.132-.157-.132M93.935 42.446c.066.253-.116.565-.058.822s.184.494.222.753c.022.106.077-.127.062-.234a1 1 0 0 1-.03.2c.016-.107.1-.094.116-.2-.005.033.156.142.145.174.042-.1-.022-.125.019-.221-.01.022-.208-.062-.222-.042.064-.081.246.06.308-.021a1 1 0 0 1-.082.07c.081-.063-.113-.307-.034-.372-.039.025-.018.06-.06.079.1-.039.121.022.217-.018-.067.028-.134-.1-.206-.089.107-.013.119.1.225.083-.065.007-.13.214-.194.207.106.015.131-.162.238-.148-.073-.01-.18.148-.252.138a.5.5 0 0 0-.281-.033c-.107.005-.261-.124-.353-.065-.166.1-.2.378-.24.569a.67.67 0 0 0 .053.561c.1.162.22.384.42.411.167.022.328.084.5.092.26.011.44-.232.672-.339.288-.132.768-.205.844-.514a2.1 2.1 0 0 0-.12-.814c-.084-.5-.38-.946-.508-1.432a.68.68 0 0 0-.868-.541.75.75 0 0 0-.545.932l-.043-.038c.022-.007.057.033.057.034M85.937 38.171a2.2 2.2 0 0 0-.113.84c.017.3-.272.7-.155.987s.491.448.736.644c.223.179.466.545.817.582a2.3 2.3 0 0 0 1.176-.4 1.85 1.85 0 0 0 .565-1.027 2.6 2.6 0 0 0 .061-1.117 2.6 2.6 0 0 0-.282-1.1c-.165-.256-.354-.644-.653-.776a2 2 0 0 0-1.033-.071c-.29.049-.5.376-.747.625a2.3 2.3 0 0 0-.372.81M102.589 38.08a3 3 0 0 1 .028.94 2.9 2.9 0 0 1-.341.844c-.117.289 0 .782-.243.979a2.06 2.06 0 0 1-.979.35c-.456 0-.722-.446-1-.631-.332-.22-.7-.375-.817-.739s.105-.747.151-1.127a2.35 2.35 0 0 1 .27-1.035c.165-.255.3-.571.6-.7a1.74 1.74 0 0 1 .957-.164 1.65 1.65 0 0 1 .8.518 2.3 2.3 0 0 1 .573.768"/></g></svg>